{
	"asset":{
		"generator":"Khronos glTF Blender I/O v4.2.83",
		"version":"2.0"
	},
	"scene":0,
	"scenes":[
		{
			"name":"Scene",
			"nodes":[
				55
			]
		}
	],
	"nodes":[
		{
			"name":"index_03_l",
			"rotation":[
				0.06464508920907974,
				0.0004314826801419258,
				0.021152136847376823,
				0.9976840615272522
			],
			"translation":[
				-2.9802322387695312e-08,
				0.021137308329343796,
				-1.4901161193847656e-08
			]
		},
		{
			"children":[
				0
			],
			"name":"index_02_l",
			"rotation":[
				0.11133172363042831,
				0.012590639293193817,
				0.004885460250079632,
				0.9936915636062622
			],
			"scale":[
				0.9999999403953552,
				1,
				1.0000001192092896
			],
			"translation":[
				-4.470348358154297e-08,
				0.02371605485677719,
				-7.450580596923828e-08
			]
		},
		{
			"children":[
				1
			],
			"name":"index_01_l",
			"rotation":[
				0.11632975190877914,
				0.4802410304546356,
				-0.007045655976980925,
				0.8693597912788391
			],
			"scale":[
				0.9999998211860657,
				0.9999998211860657,
				0.9999999403953552
			],
			"translation":[
				-0.011158682405948639,
				0.09666159749031067,
				0.009448755532503128
			]
		},
		{
			"name":"middle_03_l",
			"rotation":[
				0.06824793666601181,
				0.006521052680909634,
				-0.00791627261787653,
				0.9976156949996948
			],
			"translation":[
				2.9802322387695312e-08,
				0.02556624263525009,
				-2.2351741790771484e-08
			]
		},
		{
			"children":[
				3
			],
			"name":"middle_02_l",
			"rotation":[
				0.04760241135954857,
				0.004335904959589243,
				0.03742379695177078,
				0.9981556534767151
			],
			"translation":[
				-1.4901161193847656e-08,
				0.031243428587913513,
				1.4901161193847656e-08
			]
		},
		{
			"children":[
				4
			],
			"name":"middle_01_l",
			"rotation":[
				0.10195279121398926,
				0.4136510491371155,
				-0.15647795796394348,
				0.8910741806030273
			],
			"scale":[
				0.9999999403953552,
				0.9999999403953552,
				0.9999999403953552
			],
			"translation":[
				0.002873256802558899,
				0.09298160672187805,
				-0.010181315243244171
			]
		},
		{
			"name":"pinky_03_l",
			"rotation":[
				-0.00542667368426919,
				-0.004827982746064663,
				-0.013028203509747982,
				0.9998887181282043
			],
			"scale":[
				1,
				1.0000001192092896,
				1
			],
			"translation":[
				-5.960464477539063e-08,
				0.014423541724681854,
				-4.0978193283081055e-08
			]
		},
		{
			"children":[
				6
			],
			"name":"pinky_02_l",
			"rotation":[
				0.07780761271715164,
				0.009340237826108932,
				0.02936822921037674,
				0.9964919686317444
			],
			"translation":[
				-7.450580596923828e-09,
				0.01957640051841736,
				2.60770320892334e-08
			]
		},
		{
			"children":[
				7
			],
			"name":"pinky_01_l",
			"rotation":[
				0.04613296315073967,
				0.2968558073043823,
				-0.31034690141677856,
				0.9019052982330322
			],
			"scale":[
				1.0000001192092896,
				1,
				1.0000001192092896
			],
			"translation":[
				0.03004651516675949,
				0.07635946571826935,
				-0.02973201498389244
			]
		},
		{
			"name":"ring_03_l",
			"rotation":[
				0.05663880333304405,
				0.007530975621193647,
				-0.0243764016777277,
				0.9980686902999878
			],
			"scale":[
				0.9999999403953552,
				1,
				1
			],
			"translation":[
				4.470348358154297e-08,
				0.02273806929588318,
				-9.685754776000977e-08
			]
		},
		{
			"children":[
				9
			],
			"name":"ring_02_l",
			"rotation":[
				0.06530602276325226,
				-0.002228909870609641,
				0.04220068082213402,
				0.9969700574874878
			],
			"scale":[
				0.9999998807907104,
				0.9999998807907104,
				0.9999998807907104
			],
			"translation":[
				-1.4901161193847656e-08,
				0.027452468872070312,
				-6.705522537231445e-08
			]
		},
		{
			"children":[
				10
			],
			"name":"ring_01_l",
			"rotation":[
				0.051854345947504044,
				0.3948635756969452,
				-0.23296332359313965,
				0.8871989846229553
			],
			"scale":[
				0.9999998807907104,
				0.9999998807907104,
				0.9999999403953552
			],
			"translation":[
				0.015231631696224213,
				0.086246058344841,
				-0.021965373307466507
			]
		},
		{
			"name":"thumb_03_l",
			"rotation":[
				0.14329686760902405,
				-0.030495114624500275,
				-0.02690834552049637,
				0.9888437390327454
			],
			"scale":[
				1,
				0.9999999403953552,
				1.0000001192092896
			],
			"translation":[
				-5.21540641784668e-08,
				0.033109232783317566,
				-1.4901161193847656e-08
			]
		},
		{
			"children":[
				12
			],
			"name":"thumb_02_l",
			"rotation":[
				0.0846097320318222,
				-0.013294093310832977,
				-0.1794286072254181,
				0.980035662651062
			],
			"scale":[
				1.0000001192092896,
				0.9999999403953552,
				1
			],
			"translation":[
				-7.450580596923828e-08,
				0.028529852628707886,
				-2.60770320892334e-08
			]
		},
		{
			"children":[
				13
			],
			"name":"thumb_01_l",
			"rotation":[
				0.27069416642189026,
				0.7496630549430847,
				0.4489715099334717,
				0.40392398834228516
			],
			"translation":[
				-0.012720488011837006,
				0.03596736490726471,
				0.014052748680114746
			]
		},
		{
			"children":[
				2,
				5,
				8,
				11,
				14
			],
			"name":"hand_l",
			"rotation":[
				0.116442009806633,
				0.432588130235672,
				-0.009076653979718685,
				0.8939946293830872
			],
			"scale":[
				1,
				0.9999998807907104,
				0.9999999403953552
			],
			"translation":[
				-8.940696716308594e-08,
				0.21451407670974731,
				-5.21540641784668e-08
			]
		},
		{
			"children":[
				15
			],
			"name":"lowerarm_l",
			"rotation":[
				0.3356214463710785,
				-0.02620532736182213,
				-0.018532266840338707,
				0.9414500594139099
			],
			"scale":[
				0.9999999403953552,
				1,
				0.9999999403953552
			],
			"translation":[
				4.976755008101463e-08,
				0.2344232052564621,
				-5.122274160385132e-09
			]
		},
		{
			"children":[
				16
			],
			"name":"upperarm_l",
			"rotation":[
				-0.0029768513049930334,
				-0.0022347166668623686,
				-0.34870612621307373,
				0.9372247457504272
			],
			"translation":[
				3.166496753692627e-08,
				0.13431093096733093,
				3.259629011154175e-09
			]
		},
		{
			"children":[
				17
			],
			"name":"clavicle_l",
			"rotation":[
				-0.012395389378070831,
				-0.008081266656517982,
				-0.7478414177894592,
				0.6637125611305237
			],
			"scale":[
				0.9999999403953552,
				1,
				0.9999999403953552
			],
			"translation":[
				0.022762034088373184,
				0.2305036187171936,
				0.012551426887512207
			]
		},
		{
			"name":"index_03_r",
			"rotation":[
				0.06464508920907974,
				-0.0004314826801419258,
				-0.021152136847376823,
				0.9976840615272522
			],
			"translation":[
				2.9802322387695312e-08,
				0.021137308329343796,
				-1.4901161193847656e-08
			]
		},
		{
			"children":[
				19
			],
			"name":"index_02_r",
			"rotation":[
				0.11133172363042831,
				-0.012590639293193817,
				-0.004885460250079632,
				0.9936915636062622
			],
			"scale":[
				0.9999999403953552,
				1,
				1.0000001192092896
			],
			"translation":[
				4.470348358154297e-08,
				0.02371605485677719,
				-7.450580596923828e-08
			]
		},
		{
			"children":[
				20
			],
			"name":"index_01_r",
			"rotation":[
				0.11632975190877914,
				-0.4802410304546356,
				0.007045655976980925,
				0.8693597912788391
			],
			"scale":[
				0.9999998211860657,
				0.9999998211860657,
				0.9999999403953552
			],
			"translation":[
				0.011158682405948639,
				0.09666159749031067,
				0.009448755532503128
			]
		},
		{
			"name":"middle_03_r",
			"rotation":[
				0.06824793666601181,
				-0.006521052680909634,
				0.00791627261787653,
				0.9976156949996948
			],
			"translation":[
				-2.9802322387695312e-08,
				0.02556624263525009,
				-2.2351741790771484e-08
			]
		},
		{
			"children":[
				22
			],
			"name":"middle_02_r",
			"rotation":[
				0.04760241135954857,
				-0.004335904959589243,
				-0.03742379695177078,
				0.9981556534767151
			],
			"translation":[
				1.4901161193847656e-08,
				0.031243428587913513,
				1.4901161193847656e-08
			]
		},
		{
			"children":[
				23
			],
			"name":"middle_01_r",
			"rotation":[
				0.10195279121398926,
				-0.4136510491371155,
				0.15647795796394348,
				0.8910741806030273
			],
			"scale":[
				0.9999999403953552,
				0.9999999403953552,
				0.9999999403953552
			],
			"translation":[
				-0.002873256802558899,
				0.09298160672187805,
				-0.010181315243244171
			]
		},
		{
			"name":"pinky_03_r",
			"rotation":[
				-0.00542667368426919,
				0.004827982746064663,
				0.013028203509747982,
				0.9998887181282043
			],
			"scale":[
				1,
				1.0000001192092896,
				1
			],
			"translation":[
				5.960464477539063e-08,
				0.014423541724681854,
				-4.0978193283081055e-08
			]
		},
		{
			"children":[
				25
			],
			"name":"pinky_02_r",
			"rotation":[
				0.07780761271715164,
				-0.009340237826108932,
				-0.02936822921037674,
				0.9964919686317444
			],
			"translation":[
				7.450580596923828e-09,
				0.01957640051841736,
				2.60770320892334e-08
			]
		},
		{
			"children":[
				26
			],
			"name":"pinky_01_r",
			"rotation":[
				0.04613296315073967,
				-0.2968558073043823,
				0.31034690141677856,
				0.9019052982330322
			],
			"scale":[
				1.0000001192092896,
				1,
				1.0000001192092896
			],
			"translation":[
				-0.03004651516675949,
				0.07635946571826935,
				-0.02973201498389244
			]
		},
		{
			"name":"ring_03_r",
			"rotation":[
				0.05663880333304405,
				-0.007530975621193647,
				0.0243764016777277,
				0.9980686902999878
			],
			"scale":[
				0.9999999403953552,
				1,
				1
			],
			"translation":[
				-4.470348358154297e-08,
				0.02273806929588318,
				-9.685754776000977e-08
			]
		},
		{
			"children":[
				28
			],
			"name":"ring_02_r",
			"rotation":[
				0.06530602276325226,
				0.002228909870609641,
				-0.04220068082213402,
				0.9969700574874878
			],
			"scale":[
				0.9999998807907104,
				0.9999998807907104,
				0.9999998807907104
			],
			"translation":[
				1.4901161193847656e-08,
				0.027452468872070312,
				-6.705522537231445e-08
			]
		},
		{
			"children":[
				29
			],
			"name":"ring_01_r",
			"rotation":[
				0.051854345947504044,
				-0.3948635756969452,
				0.23296332359313965,
				0.8871989846229553
			],
			"scale":[
				0.9999998807907104,
				0.9999998807907104,
				0.9999999403953552
			],
			"translation":[
				-0.015231631696224213,
				0.086246058344841,
				-0.021965373307466507
			]
		},
		{
			"name":"thumb_03_r",
			"rotation":[
				0.14329686760902405,
				0.030495114624500275,
				0.02690834552049637,
				0.9888437390327454
			],
			"scale":[
				1,
				0.9999999403953552,
				1.0000001192092896
			],
			"translation":[
				5.21540641784668e-08,
				0.033109232783317566,
				-1.4901161193847656e-08
			]
		},
		{
			"children":[
				31
			],
			"name":"thumb_02_r",
			"rotation":[
				0.0846097320318222,
				0.013294093310832977,
				0.1794286072254181,
				0.980035662651062
			],
			"scale":[
				1.0000001192092896,
				0.9999999403953552,
				1
			],
			"translation":[
				7.450580596923828e-08,
				0.028529852628707886,
				-2.60770320892334e-08
			]
		},
		{
			"children":[
				32
			],
			"name":"thumb_01_r",
			"rotation":[
				0.27069416642189026,
				-0.7496630549430847,
				-0.4489715099334717,
				0.40392398834228516
			],
			"translation":[
				0.012720488011837006,
				0.03596736490726471,
				0.014052748680114746
			]
		},
		{
			"children":[
				21,
				24,
				27,
				30,
				33
			],
			"name":"hand_r",
			"rotation":[
				0.116442009806633,
				-0.432588130235672,
				0.009076653979718685,
				0.8939946293830872
			],
			"scale":[
				1,
				0.9999998807907104,
				0.9999999403953552
			],
			"translation":[
				8.940696716308594e-08,
				0.21451407670974731,
				-5.21540641784668e-08
			]
		},
		{
			"children":[
				34
			],
			"name":"lowerarm_r",
			"rotation":[
				0.3356214463710785,
				0.02620532736182213,
				0.018532266840338707,
				0.9414500594139099
			],
			"scale":[
				0.9999999403953552,
				1,
				0.9999999403953552
			],
			"translation":[
				-4.976755008101463e-08,
				0.2344232052564621,
				-5.122274160385132e-09
			]
		},
		{
			"children":[
				35
			],
			"name":"upperarm_r",
			"rotation":[
				-0.0029768513049930334,
				0.0022347166668623686,
				0.34870612621307373,
				0.9372247457504272
			],
			"translation":[
				-3.166496753692627e-08,
				0.13431093096733093,
				3.259629011154175e-09
			]
		},
		{
			"children":[
				36
			],
			"name":"clavicle_r",
			"rotation":[
				-0.012395389378070831,
				0.008081266656517982,
				0.7478414177894592,
				0.6637125611305237
			],
			"scale":[
				0.9999999403953552,
				1,
				0.9999999403953552
			],
			"translation":[
				-0.022762034088373184,
				0.2305036187171936,
				0.012551426887512207
			]
		},
		{
			"name":"head",
			"rotation":[
				-0.20763812959194183,
				0,
				0,
				0.978205680847168
			],
			"translation":[
				0,
				0.11492259800434113,
				5.587935447692871e-08
			]
		},
		{
			"children":[
				38
			],
			"name":"neck_01",
			"rotation":[
				0.18651920557022095,
				0,
				0,
				0.982451319694519
			],
			"scale":[
				1,
				0.9999999403953552,
				1
			],
			"translation":[
				0,
				0.29908308386802673,
				-0.00884166918694973
			]
		},
		{
			"children":[
				18,
				37,
				39
			],
			"name":"spine_03",
			"rotation":[
				-0.06329352408647537,
				0,
				0,
				0.9979949593544006
			],
			"translation":[
				0,
				0.08959371596574783,
				-5.587935447692871e-09
			]
		},
		{
			"children":[
				40
			],
			"name":"spine_02",
			"rotation":[
				-0.10116694122552872,
				0,
				0,
				0.9948694705963135
			],
			"scale":[
				1,
				0.9999999403953552,
				0.9999999403953552
			],
			"translation":[
				0,
				0.06687778234481812,
				1.2922100722789764e-08
			]
		},
		{
			"children":[
				41
			],
			"name":"spine_01",
			"rotation":[
				0.4237050712108612,
				0,
				0,
				0.9058002233505249
			],
			"scale":[
				1,
				0.9999999403953552,
				1
			],
			"translation":[
				0,
				0.08598992973566055,
				-3.725290298461914e-09
			]
		},
		{
			"name":"ball_l",
			"rotation":[
				-0.24646292626857758,
				0.3624396026134491,
				-0.06768367439508438,
				0.8962770104408264
			],
			"scale":[
				0.9999999403953552,
				0.9999999403953552,
				0.9999998807907104
			],
			"translation":[
				-1.210719347000122e-08,
				0.12412410229444504,
				9.313225746154785e-09
			]
		},
		{
			"children":[
				43
			],
			"name":"foot_l",
			"rotation":[
				-0.5347397327423096,
				0.02447645738720894,
				-0.018847374245524406,
				0.8444519639015198
			],
			"scale":[
				1.0000001192092896,
				1,
				1.0000001192092896
			],
			"translation":[
				6.461050361394882e-09,
				0.38374751806259155,
				3.4924596548080444e-09
			]
		},
		{
			"children":[
				44
			],
			"name":"calf_l",
			"rotation":[
				0.06436967849731445,
				0.2269154191017151,
				-0.004946212284266949,
				0.971772313117981
			],
			"scale":[
				0.9999998807907104,
				1,
				0.9999999403953552
			],
			"translation":[
				-1.30385160446167e-08,
				0.3754979968070984,
				0
			]
		},
		{
			"children":[
				45
			],
			"name":"thigh_l",
			"rotation":[
				-0.9484364986419678,
				-0.10113058984279633,
				0.21088984608650208,
				0.2139306515455246
			],
			"scale":[
				0.9999998807907104,
				0.9999998807907104,
				0.9999994039535522
			],
			"translation":[
				0.09722994267940521,
				-0.0060330163687467575,
				-0.011028126813471317
			]
		},
		{
			"name":"ball_r",
			"rotation":[
				-0.24646292626857758,
				-0.3624396026134491,
				0.06768367439508438,
				0.8962770104408264
			],
			"scale":[
				0.9999999403953552,
				0.9999999403953552,
				0.9999998807907104
			],
			"translation":[
				1.210719347000122e-08,
				0.12412410229444504,
				9.313225746154785e-09
			]
		},
		{
			"children":[
				47
			],
			"name":"foot_r",
			"rotation":[
				-0.5347397327423096,
				-0.02447645738720894,
				0.018847374245524406,
				0.8444519639015198
			],
			"scale":[
				1.0000001192092896,
				1,
				1.0000001192092896
			],
			"translation":[
				-6.461050361394882e-09,
				0.38374751806259155,
				3.4924596548080444e-09
			]
		},
		{
			"children":[
				48
			],
			"name":"calf_r",
			"rotation":[
				0.06436967849731445,
				-0.2269154191017151,
				0.004946212284266949,
				0.971772313117981
			],
			"scale":[
				0.9999998807907104,
				1,
				0.9999999403953552
			],
			"translation":[
				1.30385160446167e-08,
				0.3754979968070984,
				0
			]
		},
		{
			"children":[
				49
			],
			"name":"thigh_r",
			"rotation":[
				-0.9484364986419678,
				0.10113058984279633,
				-0.21088984608650208,
				0.2139306515455246
			],
			"scale":[
				0.9999998807907104,
				0.9999998807907104,
				0.9999994039535522
			],
			"translation":[
				-0.09722994267940521,
				-0.0060330163687467575,
				-0.011028126813471317
			]
		},
		{
			"children":[
				42,
				46,
				50
			],
			"name":"pelvis",
			"rotation":[
				0.48857882618904114,
				0,
				0,
				0.8725197911262512
			],
			"scale":[
				1,
				0.9999998807907104,
				0.9999999403953552
			],
			"translation":[
				0,
				-0.02228374592959881,
				0.8336919546127319
			]
		},
		{
			"children":[
				51
			],
			"name":"Root",
			"rotation":[
				-0.7071067690849304,
				0,
				0,
				0.7071067690849304
			],
			"translation":[
				0,
				7.209181785583496e-05,
				6.100162863731384e-08
			]
		},
		{
			"name":"neutral_bone",
			"rotation":[
				-0.7071067690849304,
				0,
				0,
				0.7071067690849304
			]
		},
		{
			"mesh":0,
			"name":"female_body",
			"skin":0
		},
		{
			"children":[
				54,
				52,
				53
			],
			"name":"female_armature"
		}
	],
	"materials":[
		{
			"doubleSided":true,
			"name":"female_skin",
			"pbrMetallicRoughness":{
				"baseColorTexture":{
					"index":0
				},
				"metallicFactor":0,
				"roughnessFactor":0.6499999761581421
			}
		}
	],
	"meshes":[
		{
			"name":"base.001",
			"primitives":[
				{
					"attributes":{
						"POSITION":0,
						"NORMAL":1,
						"TEXCOORD_0":2,
						"JOINTS_0":3,
						"WEIGHTS_0":4
					},
					"indices":5,
					"material":0
				}
			]
		}
	],
	"textures":[
		{
			"sampler":0,
			"source":0
		}
	],
	"images":[
		{
			"mimeType":"image/png",
			"name":"young_lightskinned_female_diffuse",
			"uri":"young_lightskinned_female_diffuse.png"
		}
	],
	"skins":[
		{
			"inverseBindMatrices":6,
			"joints":[
				52,
				51,
				42,
				41,
				40,
				18,
				17,
				16,
				15,
				2,
				1,
				0,
				5,
				4,
				3,
				8,
				7,
				6,
				11,
				10,
				9,
				14,
				13,
				12,
				37,
				36,
				35,
				34,
				21,
				20,
				19,
				24,
				23,
				22,
				27,
				26,
				25,
				30,
				29,
				28,
				33,
				32,
				31,
				39,
				38,
				46,
				45,
				44,
				43,
				50,
				49,
				48,
				47,
				53
			],
			"name":"female_armature"
		}
	],
	"accessors":[
		{
			"bufferView":0,
			"componentType":5126,
			"count":14517,
			"max":[
				0.4919506311416626,
				1.6041722297668457,
				0.29824098944664
			],
			"min":[
				-0.4919506311416626,
				3.946661308873445e-08,
				-0.0926717072725296
			],
			"type":"VEC3"
		},
		{
			"bufferView":1,
			"componentType":5126,
			"count":14517,
			"type":"VEC3"
		},
		{
			"bufferView":2,
			"componentType":5126,
			"count":14517,
			"type":"VEC2"
		},
		{
			"bufferView":3,
			"componentType":5121,
			"count":14517,
			"type":"VEC4"
		},
		{
			"bufferView":4,
			"componentType":5126,
			"count":14517,
			"type":"VEC4"
		},
		{
			"bufferView":5,
			"componentType":5123,
			"count":80268,
			"type":"SCALAR"
		},
		{
			"bufferView":6,
			"componentType":5126,
			"count":54,
			"type":"MAT4"
		}
	],
	"bufferViews":[
		{
			"buffer":0,
			"byteLength":174204,
			"byteOffset":0,
			"target":34962
		},
		{
			"buffer":0,
			"byteLength":174204,
			"byteOffset":174204,
			"target":34962
		},
		{
			"buffer":0,
			"byteLength":116136,
			"byteOffset":348408,
			"target":34962
		},
		{
			"buffer":0,
			"byteLength":58068,
			"byteOffset":464544,
			"target":34962
		},
		{
			"buffer":0,
			"byteLength":232272,
			"byteOffset":522612,
			"target":34962
		},
		{
			"buffer":0,
			"byteLength":160536,
			"byteOffset":754884,
			"target":34963
		},
		{
			"buffer":0,
			"byteLength":3456,
			"byteOffset":915420
		}
	],
	"samplers":[
		{
			"magFilter":9729,
			"minFilter":9987
		}
	],
	"buffers":[
		{
			"byteLength":918876,
			"uri":"female_base.bin"
		}
	]
}
