{
	"asset":{
		"generator":"Khronos glTF Blender I/O v4.2.83",
		"version":"2.0"
	},
	"scene":0,
	"scenes":[
		{
			"name":"Scene",
			"nodes":[
				55
			]
		}
	],
	"nodes":[
		{
			"name":"index_03_l",
			"rotation":[
				0.06039226055145264,
				0.0013128180289641023,
				0.01689651794731617,
				0.9980308413505554
			],
			"scale":[
				1,
				1.0000001192092896,
				1.0000001192092896
			],
			"translation":[
				1.4901161193847656e-08,
				0.025988485664129257,
				1.4901161193847656e-07
			]
		},
		{
			"children":[
				0
			],
			"name":"index_02_l",
			"rotation":[
				0.10387854278087616,
				0.0006424659513868392,
				0.006451282650232315,
				0.9945688843727112
			],
			"translation":[
				0,
				0.028900742530822754,
				2.9802322387695312e-08
			]
		},
		{
			"children":[
				1
			],
			"name":"index_01_l",
			"rotation":[
				0.11798834055662155,
				0.4401075541973114,
				-0.0016245825681835413,
				0.8901581168174744
			],
			"scale":[
				0.9999999403953552,
				0.9999998211860657,
				0.9999999403953552
			],
			"translation":[
				-0.014457972720265388,
				0.11746527254581451,
				0.009759292006492615
			]
		},
		{
			"name":"middle_03_l",
			"rotation":[
				0.06558629870414734,
				0.0002842717804014683,
				-0.005880562122911215,
				0.9978295564651489
			],
			"translation":[
				1.4901161193847656e-08,
				0.030454687774181366,
				-1.4901161193847656e-08
			]
		},
		{
			"children":[
				3
			],
			"name":"middle_02_l",
			"rotation":[
				0.04545908421278,
				-0.003127654083073139,
				0.03784913197159767,
				0.998244047164917
			],
			"scale":[
				1,
				0.9999999403953552,
				1
			],
			"translation":[
				1.4901161193847656e-08,
				0.03783612698316574,
				-7.450580596923828e-09
			]
		},
		{
			"children":[
				4
			],
			"name":"middle_01_l",
			"rotation":[
				0.11179789900779724,
				0.37786608934402466,
				-0.15074637532234192,
				0.9066388607025146
			],
			"scale":[
				1,
				1.0000001192092896,
				1
			],
			"translation":[
				0.005150265991687775,
				0.11359904706478119,
				-0.011864252388477325
			]
		},
		{
			"name":"pinky_03_l",
			"rotation":[
				0.0018871192587539554,
				-0.01497194916009903,
				-0.011923937126994133,
				0.999815046787262
			],
			"scale":[
				0.9999998211860657,
				1,
				1
			],
			"translation":[
				-2.9802322387695312e-08,
				0.017397940158843994,
				7.450580596923828e-09
			]
		},
		{
			"children":[
				6
			],
			"name":"pinky_02_l",
			"rotation":[
				0.07780449837446213,
				0.0007116782362572849,
				0.02407848834991455,
				0.996677577495575
			],
			"scale":[
				1,
				1.0000001192092896,
				1.0000001192092896
			],
			"translation":[
				0,
				0.023715488612651825,
				2.2351741790771484e-08
			]
		},
		{
			"children":[
				7
			],
			"name":"pinky_01_l",
			"rotation":[
				0.0664631649851799,
				0.2598186433315277,
				-0.30020129680633545,
				0.915399432182312
			],
			"scale":[
				0.9999998807907104,
				0.9999998807907104,
				1
			],
			"translation":[
				0.0408807098865509,
				0.09245821833610535,
				-0.03165385127067566
			]
		},
		{
			"name":"ring_03_l",
			"rotation":[
				0.0675201416015625,
				-0.012575964443385601,
				-0.02643638290464878,
				0.9972883462905884
			],
			"scale":[
				1,
				0.9999999403953552,
				1
			],
			"translation":[
				2.9802322387695312e-08,
				0.02765670418739319,
				-5.960464477539063e-08
			]
		},
		{
			"children":[
				9
			],
			"name":"ring_02_l",
			"rotation":[
				0.049164045602083206,
				0.009880561381578445,
				0.04669782519340515,
				0.9976495504379272
			],
			"scale":[
				1,
				1.0000001192092896,
				1
			],
			"translation":[
				0,
				0.033269450068473816,
				3.725290298461914e-08
			]
		},
		{
			"children":[
				10
			],
			"name":"ring_01_l",
			"rotation":[
				0.07154808193445206,
				0.35098928213119507,
				-0.23227092623710632,
				0.9042884707450867
			],
			"scale":[
				0.9999999403953552,
				1.0000001192092896,
				1
			],
			"translation":[
				0.021566396579146385,
				0.10479825735092163,
				-0.02474220097064972
			]
		},
		{
			"name":"thumb_03_l",
			"rotation":[
				0.15057937800884247,
				0.045951683074235916,
				-0.04270637035369873,
				0.9866055250167847
			],
			"scale":[
				0.9999998807907104,
				0.9999999403953552,
				1
			],
			"translation":[
				1.6763806343078613e-08,
				0.04069922864437103,
				-6.705522537231445e-08
			]
		},
		{
			"children":[
				12
			],
			"name":"thumb_02_l",
			"rotation":[
				0.04474085569381714,
				-0.040541790425777435,
				-0.19142486155033112,
				0.9796485304832458
			],
			"scale":[
				1,
				0.9999998807907104,
				1
			],
			"translation":[
				9.313225746154785e-09,
				0.034414827823638916,
				-5.21540641784668e-08
			]
		},
		{
			"children":[
				13
			],
			"name":"thumb_01_l",
			"rotation":[
				0.27724596858024597,
				0.6900873184204102,
				0.4413939118385315,
				0.5020813345909119
			],
			"scale":[
				1,
				1.0000003576278687,
				1
			],
			"translation":[
				-0.01724747009575367,
				0.04457332193851471,
				0.015050143003463745
			]
		},
		{
			"children":[
				2,
				5,
				8,
				11,
				14
			],
			"name":"hand_l",
			"rotation":[
				0.1028393879532814,
				0.423349529504776,
				-0.007124390918761492,
				0.900082528591156
			],
			"scale":[
				1,
				0.9999999403953552,
				0.9999998807907104
			],
			"translation":[
				4.656612873077393e-10,
				0.26883792877197266,
				-4.470348358154297e-08
			]
		},
		{
			"children":[
				15
			],
			"name":"lowerarm_l",
			"rotation":[
				0.38953888416290283,
				0.02679687738418579,
				0.02255854941904545,
				0.9203436970710754
			],
			"scale":[
				0.9999999403953552,
				0.9999999403953552,
				0.9999998807907104
			],
			"translation":[
				-4.598405212163925e-08,
				0.26110243797302246,
				-1.862645149230957e-09
			]
		},
		{
			"children":[
				16
			],
			"name":"upperarm_l",
			"rotation":[
				-0.010463562794029713,
				0.02251340262591839,
				-0.3318089544773102,
				0.9430198669433594
			],
			"scale":[
				1,
				1,
				0.9999999403953552
			],
			"translation":[
				4.889443516731262e-08,
				0.16801244020462036,
				-1.30385160446167e-08
			]
		},
		{
			"children":[
				17
			],
			"name":"clavicle_l",
			"rotation":[
				0.002719482406973839,
				0.03996377810835838,
				-0.7642216086387634,
				0.6437086462974548
			],
			"scale":[
				0.9999999403953552,
				1,
				1
			],
			"translation":[
				0.023365315049886703,
				0.26262733340263367,
				0.08933795988559723
			]
		},
		{
			"name":"index_03_r",
			"rotation":[
				0.06039226055145264,
				-0.0013128180289641023,
				-0.01689651794731617,
				0.9980308413505554
			],
			"scale":[
				1,
				1.0000001192092896,
				1.0000001192092896
			],
			"translation":[
				-1.4901161193847656e-08,
				0.025988485664129257,
				1.4901161193847656e-07
			]
		},
		{
			"children":[
				19
			],
			"name":"index_02_r",
			"rotation":[
				0.10387854278087616,
				-0.0006424659513868392,
				-0.006451282650232315,
				0.9945688843727112
			],
			"translation":[
				0,
				0.028900742530822754,
				2.9802322387695312e-08
			]
		},
		{
			"children":[
				20
			],
			"name":"index_01_r",
			"rotation":[
				0.11798834055662155,
				-0.4401075541973114,
				0.0016245825681835413,
				0.8901581168174744
			],
			"scale":[
				0.9999999403953552,
				0.9999998211860657,
				0.9999999403953552
			],
			"translation":[
				0.014457972720265388,
				0.11746527254581451,
				0.009759292006492615
			]
		},
		{
			"name":"middle_03_r",
			"rotation":[
				0.06558629870414734,
				-0.0002842717804014683,
				0.005880562122911215,
				0.9978295564651489
			],
			"translation":[
				-1.4901161193847656e-08,
				0.030454687774181366,
				-1.4901161193847656e-08
			]
		},
		{
			"children":[
				22
			],
			"name":"middle_02_r",
			"rotation":[
				0.04545908421278,
				0.003127654083073139,
				-0.03784913197159767,
				0.998244047164917
			],
			"scale":[
				1,
				0.9999999403953552,
				1
			],
			"translation":[
				-1.4901161193847656e-08,
				0.03783612698316574,
				-7.450580596923828e-09
			]
		},
		{
			"children":[
				23
			],
			"name":"middle_01_r",
			"rotation":[
				0.11179789900779724,
				-0.37786608934402466,
				0.15074637532234192,
				0.9066388607025146
			],
			"scale":[
				1,
				1.0000001192092896,
				1
			],
			"translation":[
				-0.005150265991687775,
				0.11359904706478119,
				-0.011864252388477325
			]
		},
		{
			"name":"pinky_03_r",
			"rotation":[
				0.0018871192587539554,
				0.01497194916009903,
				0.011923937126994133,
				0.999815046787262
			],
			"scale":[
				0.9999998211860657,
				1,
				1
			],
			"translation":[
				2.9802322387695312e-08,
				0.017397940158843994,
				7.450580596923828e-09
			]
		},
		{
			"children":[
				25
			],
			"name":"pinky_02_r",
			"rotation":[
				0.07780449837446213,
				-0.0007116782362572849,
				-0.02407848834991455,
				0.996677577495575
			],
			"scale":[
				1,
				1.0000001192092896,
				1.0000001192092896
			],
			"translation":[
				0,
				0.023715488612651825,
				2.2351741790771484e-08
			]
		},
		{
			"children":[
				26
			],
			"name":"pinky_01_r",
			"rotation":[
				0.0664631649851799,
				-0.2598186433315277,
				0.30020129680633545,
				0.915399432182312
			],
			"scale":[
				0.9999998807907104,
				0.9999998807907104,
				1
			],
			"translation":[
				-0.0408807098865509,
				0.09245821833610535,
				-0.03165385127067566
			]
		},
		{
			"name":"ring_03_r",
			"rotation":[
				0.0675201416015625,
				0.012575964443385601,
				0.02643638290464878,
				0.9972883462905884
			],
			"scale":[
				1,
				0.9999999403953552,
				1
			],
			"translation":[
				-2.9802322387695312e-08,
				0.02765670418739319,
				-5.960464477539063e-08
			]
		},
		{
			"children":[
				28
			],
			"name":"ring_02_r",
			"rotation":[
				0.049164045602083206,
				-0.009880561381578445,
				-0.04669782519340515,
				0.9976495504379272
			],
			"scale":[
				1,
				1.0000001192092896,
				1
			],
			"translation":[
				0,
				0.033269450068473816,
				3.725290298461914e-08
			]
		},
		{
			"children":[
				29
			],
			"name":"ring_01_r",
			"rotation":[
				0.07154808193445206,
				-0.35098928213119507,
				0.23227092623710632,
				0.9042884707450867
			],
			"scale":[
				0.9999999403953552,
				1.0000001192092896,
				1
			],
			"translation":[
				-0.021566396579146385,
				0.10479825735092163,
				-0.02474220097064972
			]
		},
		{
			"name":"thumb_03_r",
			"rotation":[
				0.15057937800884247,
				-0.045951683074235916,
				0.04270637035369873,
				0.9866055250167847
			],
			"scale":[
				0.9999998807907104,
				0.9999999403953552,
				1
			],
			"translation":[
				-1.6763806343078613e-08,
				0.04069922864437103,
				-6.705522537231445e-08
			]
		},
		{
			"children":[
				31
			],
			"name":"thumb_02_r",
			"rotation":[
				0.04474085569381714,
				0.040541790425777435,
				0.19142486155033112,
				0.9796485304832458
			],
			"scale":[
				1,
				0.9999998807907104,
				1
			],
			"translation":[
				-9.313225746154785e-09,
				0.034414827823638916,
				-5.21540641784668e-08
			]
		},
		{
			"children":[
				32
			],
			"name":"thumb_01_r",
			"rotation":[
				0.27724596858024597,
				-0.6900873184204102,
				-0.4413939118385315,
				0.5020813345909119
			],
			"scale":[
				1,
				1.0000003576278687,
				1
			],
			"translation":[
				0.01724747009575367,
				0.04457332193851471,
				0.015050143003463745
			]
		},
		{
			"children":[
				21,
				24,
				27,
				30,
				33
			],
			"name":"hand_r",
			"rotation":[
				0.1028393879532814,
				-0.423349529504776,
				0.007124390918761492,
				0.900082528591156
			],
			"scale":[
				1,
				0.9999999403953552,
				0.9999998807907104
			],
			"translation":[
				-4.656612873077393e-10,
				0.26883792877197266,
				-4.470348358154297e-08
			]
		},
		{
			"children":[
				34
			],
			"name":"lowerarm_r",
			"rotation":[
				0.38953888416290283,
				-0.02679687738418579,
				-0.02255854941904545,
				0.9203436970710754
			],
			"scale":[
				0.9999999403953552,
				0.9999999403953552,
				0.9999998807907104
			],
			"translation":[
				4.598405212163925e-08,
				0.26110243797302246,
				-1.862645149230957e-09
			]
		},
		{
			"children":[
				35
			],
			"name":"upperarm_r",
			"rotation":[
				-0.010463562794029713,
				-0.02251340262591839,
				0.3318089544773102,
				0.9430198669433594
			],
			"scale":[
				1,
				1,
				0.9999999403953552
			],
			"translation":[
				-4.889443516731262e-08,
				0.16801244020462036,
				-1.30385160446167e-08
			]
		},
		{
			"children":[
				36
			],
			"name":"clavicle_r",
			"rotation":[
				0.002719482406973839,
				-0.03996377810835838,
				0.7642216086387634,
				0.6437086462974548
			],
			"scale":[
				0.9999999403953552,
				1,
				1
			],
			"translation":[
				-0.023365315049886703,
				0.26262733340263367,
				0.08933795988559723
			]
		},
		{
			"name":"head",
			"rotation":[
				-0.18165118992328644,
				0,
				0,
				0.9833630323410034
			],
			"scale":[
				1,
				0.9999999403953552,
				1
			],
			"translation":[
				0,
				0.10524726659059525,
				0
			]
		},
		{
			"children":[
				38
			],
			"name":"neck_01",
			"rotation":[
				0.24043257534503937,
				0,
				0,
				0.9706658720970154
			],
			"translation":[
				0,
				0.3394736647605896,
				0.08783628046512604
			]
		},
		{
			"children":[
				18,
				37,
				39
			],
			"name":"spine_03",
			"rotation":[
				-0.01764710620045662,
				0,
				0,
				0.9998443126678467
			],
			"translation":[
				0,
				0.0651484951376915,
				5.587935447692871e-09
			]
		},
		{
			"children":[
				40
			],
			"name":"spine_02",
			"rotation":[
				-0.12665680050849915,
				0,
				0,
				0.9919466376304626
			],
			"scale":[
				1,
				0.9999999403953552,
				1
			],
			"translation":[
				0,
				0.07244417071342468,
				-3.725290298461914e-09
			]
		},
		{
			"children":[
				41
			],
			"name":"spine_01",
			"rotation":[
				0.24866549670696259,
				0,
				0,
				0.9685894846916199
			],
			"scale":[
				1,
				0.9999999403953552,
				0.9999999403953552
			],
			"translation":[
				0,
				0.09428773820400238,
				2.2351741790771484e-08
			]
		},
		{
			"name":"ball_l",
			"rotation":[
				-0.2521975636482239,
				-0.23377636075019836,
				0.10062287002801895,
				0.933605968952179
			],
			"scale":[
				1,
				1.0000001192092896,
				1.0000001192092896
			],
			"translation":[
				7.07223080098629e-09,
				0.1446216106414795,
				-4.190951585769653e-09
			]
		},
		{
			"children":[
				43
			],
			"name":"foot_l",
			"rotation":[
				-0.5369301438331604,
				-0.028029724955558777,
				0.023835347965359688,
				0.8428240418434143
			],
			"scale":[
				0.9999999403953552,
				0.9999998807907104,
				1
			],
			"translation":[
				5.238689482212067e-10,
				0.44255587458610535,
				-1.862645149230957e-09
			]
		},
		{
			"children":[
				44
			],
			"name":"calf_l",
			"rotation":[
				0.053385213017463684,
				0.23934932053089142,
				-0.01451053936034441,
				0.9693561792373657
			],
			"scale":[
				0.9999999403953552,
				1.0000001192092896,
				0.9999999403953552
			],
			"translation":[
				-9.313225746154785e-10,
				0.43874403834342957,
				-1.862645149230957e-09
			]
		},
		{
			"children":[
				45
			],
			"name":"thigh_l",
			"rotation":[
				-0.9638930559158325,
				-0.07991983741521835,
				0.22118157148361206,
				0.12490706890821457
			],
			"scale":[
				1,
				1,
				1.0000001192092896
			],
			"translation":[
				0.110292948782444,
				-0.0017123925499618053,
				-0.011864352971315384
			]
		},
		{
			"name":"ball_r",
			"rotation":[
				-0.2521975636482239,
				0.23377636075019836,
				-0.10062287002801895,
				0.933605968952179
			],
			"scale":[
				1,
				1.0000001192092896,
				1.0000001192092896
			],
			"translation":[
				-7.07223080098629e-09,
				0.1446216106414795,
				-4.190951585769653e-09
			]
		},
		{
			"children":[
				47
			],
			"name":"foot_r",
			"rotation":[
				-0.5369301438331604,
				0.028029724955558777,
				-0.023835347965359688,
				0.8428240418434143
			],
			"scale":[
				0.9999999403953552,
				0.9999998807907104,
				1
			],
			"translation":[
				-5.238689482212067e-10,
				0.44255587458610535,
				-1.862645149230957e-09
			]
		},
		{
			"children":[
				48
			],
			"name":"calf_r",
			"rotation":[
				0.053385213017463684,
				-0.23934932053089142,
				0.01451053936034441,
				0.9693561792373657
			],
			"scale":[
				0.9999999403953552,
				1.0000001192092896,
				0.9999999403953552
			],
			"translation":[
				9.313225746154785e-10,
				0.43874403834342957,
				-1.862645149230957e-09
			]
		},
		{
			"children":[
				49
			],
			"name":"thigh_r",
			"rotation":[
				-0.9638930559158325,
				0.07991983741521835,
				-0.22118157148361206,
				0.12490706890821457
			],
			"scale":[
				1,
				1,
				1.0000001192092896
			],
			"translation":[
				-0.110292948782444,
				-0.0017123925499618053,
				-0.011864352971315384
			]
		},
		{
			"children":[
				42,
				46,
				50
			],
			"name":"pelvis",
			"rotation":[
				0.5686459541320801,
				0,
				0,
				0.8225824236869812
			],
			"translation":[
				0,
				-0.005827123299241066,
				0.9543981552124023
			]
		},
		{
			"children":[
				51
			],
			"name":"Root",
			"rotation":[
				-0.7071067690849304,
				0,
				0,
				0.7071067690849304
			],
			"translation":[
				0,
				-1.8030405044555664e-05,
				6.100162863731384e-08
			]
		},
		{
			"name":"neutral_bone",
			"rotation":[
				-0.7071067690849304,
				0,
				0,
				0.7071067690849304
			]
		},
		{
			"mesh":0,
			"name":"male_body",
			"skin":0
		},
		{
			"children":[
				54,
				52,
				53
			],
			"name":"male_armature"
		}
	],
	"materials":[
		{
			"doubleSided":true,
			"name":"male_skin",
			"pbrMetallicRoughness":{
				"baseColorTexture":{
					"index":0
				},
				"metallicFactor":0,
				"roughnessFactor":0.6499999761581421
			}
		}
	],
	"meshes":[
		{
			"name":"base.001",
			"primitives":[
				{
					"attributes":{
						"POSITION":0,
						"NORMAL":1,
						"TEXCOORD_0":2,
						"JOINTS_0":3,
						"WEIGHTS_0":4
					},
					"indices":5,
					"material":0
				}
			]
		}
	],
	"textures":[
		{
			"sampler":0,
			"source":0
		}
	],
	"images":[
		{
			"mimeType":"image/png",
			"name":"young_lightskinned_male_diffuse",
			"uri":"young_lightskinned_male_diffuse.png"
		}
	],
	"skins":[
		{
			"inverseBindMatrices":6,
			"joints":[
				52,
				51,
				42,
				41,
				40,
				18,
				17,
				16,
				15,
				2,
				1,
				0,
				5,
				4,
				3,
				8,
				7,
				6,
				11,
				10,
				9,
				14,
				13,
				12,
				37,
				36,
				35,
				34,
				21,
				20,
				19,
				24,
				23,
				22,
				27,
				26,
				25,
				30,
				29,
				28,
				33,
				32,
				31,
				39,
				38,
				46,
				45,
				44,
				43,
				50,
				49,
				48,
				47,
				53
			],
			"name":"male_armature"
		}
	],
	"accessors":[
		{
			"bufferView":0,
			"componentType":5126,
			"count":14517,
			"max":[
				0.5771377086639404,
				1.7779208421707153,
				0.3827458620071411
			],
			"min":[
				-0.5771377086639404,
				-1.0928488336503506e-08,
				-0.09926388412714005
			],
			"type":"VEC3"
		},
		{
			"bufferView":1,
			"componentType":5126,
			"count":14517,
			"type":"VEC3"
		},
		{
			"bufferView":2,
			"componentType":5126,
			"count":14517,
			"type":"VEC2"
		},
		{
			"bufferView":3,
			"componentType":5121,
			"count":14517,
			"type":"VEC4"
		},
		{
			"bufferView":4,
			"componentType":5126,
			"count":14517,
			"type":"VEC4"
		},
		{
			"bufferView":5,
			"componentType":5123,
			"count":80268,
			"type":"SCALAR"
		},
		{
			"bufferView":6,
			"componentType":5126,
			"count":54,
			"type":"MAT4"
		}
	],
	"bufferViews":[
		{
			"buffer":0,
			"byteLength":174204,
			"byteOffset":0,
			"target":34962
		},
		{
			"buffer":0,
			"byteLength":174204,
			"byteOffset":174204,
			"target":34962
		},
		{
			"buffer":0,
			"byteLength":116136,
			"byteOffset":348408,
			"target":34962
		},
		{
			"buffer":0,
			"byteLength":58068,
			"byteOffset":464544,
			"target":34962
		},
		{
			"buffer":0,
			"byteLength":232272,
			"byteOffset":522612,
			"target":34962
		},
		{
			"buffer":0,
			"byteLength":160536,
			"byteOffset":754884,
			"target":34963
		},
		{
			"buffer":0,
			"byteLength":3456,
			"byteOffset":915420
		}
	],
	"samplers":[
		{
			"magFilter":9729,
			"minFilter":9987
		}
	],
	"buffers":[
		{
			"byteLength":918876,
			"uri":"male_base.bin"
		}
	]
}
