# City room prop — voxel footprint 4x2x3 (0.5 m cells)
o altarStone
v 0.862045 1.815310 2.244021
v 0.825636 1.815310 2.517089
v 0.825636 1.815310 1.970952
v 0.552567 1.815310 1.934543
v 0.552567 1.815310 2.553499
v 0.279499 1.815310 1.970952
v 0.279499 1.815310 2.517089
v 0.243090 1.815310 2.244021
v 0.552567 0.404091 1.980965
v 0.784676 0.404091 2.011913
v 0.552567 0.404091 2.507077
v 0.320459 0.404091 2.476129
v 0.815623 0.404091 2.244021
v 0.784676 0.404091 2.476129
v 0.289511 0.404091 2.244021
v 0.320459 0.404091 2.011913
v 3.756910 1.815310 0.755979
v 3.720501 1.815310 1.029048
v 3.720501 1.815310 0.482911
v 3.447433 1.815310 0.446501
v 3.447433 1.815310 1.065457
v 3.174364 1.815310 0.482911
v 3.174364 1.815310 1.029048
v 3.137955 1.815310 0.755979
v 3.447433 0.404091 0.492923
v 3.679541 0.404091 0.523871
v 3.447433 0.404091 1.019035
v 3.215324 0.404091 0.988087
v 3.710489 0.404091 0.755979
v 3.679541 0.404091 0.988087
v 3.184377 0.404091 0.755979
v 3.215324 0.404091 0.523871
v 3.756910 1.815310 2.244021
v 3.720501 1.815310 2.517089
v 3.720501 1.815310 1.970952
v 3.447433 1.815310 1.934543
v 3.447433 1.815310 2.553499
v 3.174364 1.815310 1.970952
v 3.174364 1.815310 2.517089
v 3.137955 1.815310 2.244021
v 3.447433 0.404091 1.980965
v 3.679541 0.404091 2.011913
v 3.447433 0.404091 2.507077
v 3.215324 0.404091 2.476129
v 3.710489 0.404091 2.244021
v 3.679541 0.404091 2.476129
v 3.184377 0.404091 2.244021
v 3.215324 0.404091 2.011913
v 0.862045 1.815310 0.755979
v 0.825636 1.815310 1.029048
v 0.825636 1.815310 0.482911
v 0.552567 1.815310 0.446501
v 0.552567 1.815310 1.065457
v 0.279499 1.815310 0.482911
v 0.279499 1.815310 1.029048
v 0.243090 1.815310 0.755979
v 0.552567 0.404091 0.492923
v 0.784676 0.404091 0.523871
v 0.552567 0.404091 1.019035
v 0.320459 0.404091 0.988087
v 0.815623 0.404091 0.755979
v 0.784676 0.404091 0.988087
v 0.289511 0.404091 0.755979
v 0.320459 0.404091 0.523871
v 3.538456 1.633264 0.664956
v 3.538456 1.633264 2.335044
v 0.461544 1.633264 0.664956
v 0.461544 1.633264 2.335044
v 3.538456 1.200723 2.335044
v 0.461544 1.200723 2.335044
v 3.538456 1.200723 0.664956
v 0.461544 1.200723 0.664956
v 0.538467 1.018678 0.706708
v 0.538467 1.018678 2.293292
v 3.461533 1.018678 2.293292
v 3.461533 1.018678 0.706708
v 0.461544 0.836632 0.664956
v 3.538456 0.836632 0.664956
v 0.461544 0.836632 2.335044
v 3.538456 0.836632 2.335044
v 3.461533 0.404091 0.706708
v 3.461533 0.404091 2.293292
v 0.538467 0.404091 0.706708
v 0.538467 0.404091 2.293292
v 0.289511 0.040000 0.310877
v 3.710489 0.040000 0.310877
v 0.289511 0.404091 0.310877
v 3.710489 0.404091 0.310877
v 0.107465 0.040000 0.492923
v 0.107465 0.404091 0.492923
v 0.107465 0.040000 2.507077
v 0.107465 0.404091 2.507077
v 3.892535 0.404091 0.492923
v 3.892535 0.040000 0.492923
v 3.892535 0.404091 2.507077
v 3.892535 0.040000 2.507077
v 3.710489 0.040000 2.689123
v 0.289511 0.040000 2.689123
v 3.710489 0.404091 2.689123
v 0.289511 0.404091 2.689123
v 3.839214 0.040000 0.364197
v 3.839214 0.404091 0.364197
v 3.839214 0.404091 2.635803
v 3.839214 0.040000 2.635803
v 0.160786 0.040000 0.364197
v 0.160786 0.404091 0.364197
v 0.160786 0.040000 2.635803
v 0.160786 0.404091 2.635803
f 3 2 1
f 2 3 4
f 2 4 5
f 5 4 6
f 5 6 7
f 7 6 8
f 4 10 9
f 10 4 3
f 5 12 11
f 12 5 7
f 1 10 3
f 10 1 13
f 2 11 14
f 11 2 5
f 12 8 15
f 8 12 7
f 16 8 6
f 8 16 15
f 6 9 16
f 9 6 4
f 2 13 1
f 13 2 14
f 19 18 17
f 18 19 20
f 18 20 21
f 21 20 22
f 21 22 23
f 23 22 24
f 20 26 25
f 26 20 19
f 21 28 27
f 28 21 23
f 17 26 19
f 26 17 29
f 18 27 30
f 27 18 21
f 28 24 31
f 24 28 23
f 32 24 22
f 24 32 31
f 22 25 32
f 25 22 20
f 18 29 17
f 29 18 30
f 35 34 33
f 34 35 36
f 34 36 37
f 37 36 38
f 37 38 39
f 39 38 40
f 36 42 41
f 42 36 35
f 37 44 43
f 44 37 39
f 33 42 35
f 42 33 45
f 34 43 46
f 43 34 37
f 44 40 47
f 40 44 39
f 48 40 38
f 40 48 47
f 38 41 48
f 41 38 36
f 34 45 33
f 45 34 46
f 51 50 49
f 50 51 52
f 50 52 53
f 53 52 54
f 53 54 55
f 55 54 56
f 52 58 57
f 58 52 51
f 53 60 59
f 60 53 55
f 49 58 51
f 58 49 61
f 50 59 62
f 59 50 53
f 60 56 63
f 56 60 55
f 64 56 54
f 56 64 63
f 54 57 64
f 57 54 52
f 50 61 49
f 61 50 62
f 67 66 65
f 66 67 68
f 66 70 69
f 70 66 68
f 66 71 65
f 71 66 69
f 67 71 72
f 71 67 65
f 70 67 72
f 67 70 68
f 73 70 72
f 70 73 74
f 69 74 75
f 74 69 70
f 72 76 73
f 76 72 71
f 69 76 71
f 76 69 75
f 73 78 77
f 78 73 76
f 79 73 77
f 73 79 74
f 76 80 78
f 80 76 75
f 75 79 80
f 79 75 74
f 80 81 78
f 81 80 82
f 77 81 83
f 81 77 78
f 80 84 82
f 84 80 79
f 83 79 77
f 79 83 84
f 87 86 85
f 86 87 88
f 91 90 89
f 90 91 92
f 95 94 93
f 94 95 96
f 99 98 97
f 98 99 100
f 88 101 86
f 101 88 102
f 103 96 95
f 96 103 104
f 103 97 104
f 97 103 99
f 106 85 105
f 85 106 87
f 100 107 98
f 107 100 108
f 89 106 105
f 106 89 90
f 107 92 91
f 92 107 108
f 93 101 102
f 101 93 94
f 104 94 96
f 94 104 101
f 101 104 97
f 101 97 86
f 86 97 98
f 86 98 85
f 85 98 107
f 85 107 105
f 105 107 91
f 105 91 89
f 102 95 93
f 95 102 103
f 103 102 88
f 103 88 99
f 99 88 87
f 99 87 100
f 100 87 106
f 100 106 108
f 108 106 90
f 108 90 92
f 3 2 1
f 2 3 4
f 2 4 5
f 5 4 6
f 5 6 7
f 7 6 8
f 4 10 9
f 10 4 3
f 5 12 11
f 12 5 7
f 1 10 3
f 10 1 13
f 2 11 14
f 11 2 5
f 12 8 15
f 8 12 7
f 16 8 6
f 8 16 15
f 6 9 16
f 9 6 4
f 2 13 1
f 13 2 14
f 19 18 17
f 18 19 20
f 18 20 21
f 21 20 22
f 21 22 23
f 23 22 24
f 20 26 25
f 26 20 19
f 21 28 27
f 28 21 23
f 17 26 19
f 26 17 29
f 18 27 30
f 27 18 21
f 28 24 31
f 24 28 23
f 32 24 22
f 24 32 31
f 22 25 32
f 25 22 20
f 18 29 17
f 29 18 30
f 35 34 33
f 34 35 36
f 34 36 37
f 37 36 38
f 37 38 39
f 39 38 40
f 36 42 41
f 42 36 35
f 37 44 43
f 44 37 39
f 33 42 35
f 42 33 45
f 34 43 46
f 43 34 37
f 44 40 47
f 40 44 39
f 48 40 38
f 40 48 47
f 38 41 48
f 41 38 36
f 34 45 33
f 45 34 46
f 51 50 49
f 50 51 52
f 50 52 53
f 53 52 54
f 53 54 55
f 55 54 56
f 52 58 57
f 58 52 51
f 53 60 59
f 60 53 55
f 49 58 51
f 58 49 61
f 50 59 62
f 59 50 53
f 60 56 63
f 56 60 55
f 64 56 54
f 56 64 63
f 54 57 64
f 57 54 52
f 50 61 49
f 61 50 62
f 67 66 65
f 66 67 68
f 66 70 69
f 70 66 68
f 66 71 65
f 71 66 69
f 67 71 72
f 71 67 65
f 70 67 72
f 67 70 68
f 73 70 72
f 70 73 74
f 69 74 75
f 74 69 70
f 72 76 73
f 76 72 71
f 69 76 71
f 76 69 75
f 73 78 77
f 78 73 76
f 79 73 77
f 73 79 74
f 76 80 78
f 80 76 75
f 75 79 80
f 79 75 74
f 80 81 78
f 81 80 82
f 77 81 83
f 81 77 78
f 80 84 82
f 84 80 79
f 83 79 77
f 79 83 84
f 87 86 85
f 86 87 88
f 91 90 89
f 90 91 92
f 95 94 93
f 94 95 96
f 99 98 97
f 98 99 100
f 88 101 86
f 101 88 102
f 103 96 95
f 96 103 104
f 103 97 104
f 97 103 99
f 106 85 105
f 85 106 87
f 100 107 98
f 107 100 108
f 89 106 105
f 106 89 90
f 107 92 91
f 92 107 108
f 93 101 102
f 101 93 94
f 104 94 96
f 94 104 101
f 101 104 97
f 101 97 86
f 86 97 98
f 86 98 85
f 85 98 107
f 85 107 105
f 105 107 91
f 105 91 89
f 102 95 93
f 95 102 103
f 103 102 88
f 103 88 99
f 99 88 87
f 99 87 100
f 100 87 106
f 100 106 108
f 108 106 90
f 108 90 92
