# City room prop — unit cell 0..1
o barrel
v 0.780000 0.040000 0.500000
v 0.758686 0.040000 0.607151
v 0.697990 0.040000 0.697990
v 0.607151 0.040000 0.758686
v 0.500000 0.040000 0.780000
v 0.392849 0.040000 0.758686
v 0.302010 0.040000 0.697990
v 0.241314 0.040000 0.607151
v 0.220000 0.040000 0.500000
v 0.241314 0.040000 0.392849
v 0.302010 0.040000 0.302010
v 0.392849 0.040000 0.241314
v 0.500000 0.040000 0.220000
v 0.607151 0.040000 0.241314
v 0.697990 0.040000 0.302010
v 0.758686 0.040000 0.392849
v 0.840000 0.220000 0.500000
v 0.814119 0.220000 0.630112
v 0.740416 0.220000 0.740416
v 0.630112 0.220000 0.814119
v 0.500000 0.220000 0.840000
v 0.369888 0.220000 0.814119
v 0.259584 0.220000 0.740416
v 0.185881 0.220000 0.630112
v 0.160000 0.220000 0.500000
v 0.185881 0.220000 0.369888
v 0.259584 0.220000 0.259584
v 0.369888 0.220000 0.185881
v 0.500000 0.220000 0.160000
v 0.630112 0.220000 0.185881
v 0.740416 0.220000 0.259584
v 0.814119 0.220000 0.369888
v 0.860000 0.500000 0.500000
v 0.832597 0.500000 0.637766
v 0.754558 0.500000 0.754558
v 0.637766 0.500000 0.832597
v 0.500000 0.500000 0.860000
v 0.362234 0.500000 0.832597
v 0.245442 0.500000 0.754558
v 0.167403 0.500000 0.637766
v 0.140000 0.500000 0.500000
v 0.167403 0.500000 0.362234
v 0.245442 0.500000 0.245442
v 0.362234 0.500000 0.167403
v 0.500000 0.500000 0.140000
v 0.637766 0.500000 0.167403
v 0.754558 0.500000 0.245442
v 0.832597 0.500000 0.362234
v 0.840000 0.780000 0.500000
v 0.814119 0.780000 0.630112
v 0.740416 0.780000 0.740416
v 0.630112 0.780000 0.814119
v 0.500000 0.780000 0.840000
v 0.369888 0.780000 0.814119
v 0.259584 0.780000 0.740416
v 0.185881 0.780000 0.630112
v 0.160000 0.780000 0.500000
v 0.185881 0.780000 0.369888
v 0.259584 0.780000 0.259584
v 0.369888 0.780000 0.185881
v 0.500000 0.780000 0.160000
v 0.630112 0.780000 0.185881
v 0.740416 0.780000 0.259584
v 0.814119 0.780000 0.369888
v 0.780000 0.920000 0.500000
v 0.758686 0.920000 0.607151
v 0.697990 0.920000 0.697990
v 0.607151 0.920000 0.758686
v 0.500000 0.920000 0.780000
v 0.392849 0.920000 0.758686
v 0.302010 0.920000 0.697990
v 0.241314 0.920000 0.607151
v 0.220000 0.920000 0.500000
v 0.241314 0.920000 0.392849
v 0.302010 0.920000 0.302010
v 0.392849 0.920000 0.241314
v 0.500000 0.920000 0.220000
v 0.607151 0.920000 0.241314
v 0.697990 0.920000 0.302010
v 0.758686 0.920000 0.392849
v 0.500000 0.920000 0.500000
v 0.500000 0.040000 0.500000
f 1 17 18
f 1 18 2
f 2 18 19
f 2 19 3
f 3 19 20
f 3 20 4
f 4 20 21
f 4 21 5
f 5 21 22
f 5 22 6
f 6 22 23
f 6 23 7
f 7 23 24
f 7 24 8
f 8 24 25
f 8 25 9
f 9 25 26
f 9 26 10
f 10 26 27
f 10 27 11
f 11 27 28
f 11 28 12
f 12 28 29
f 12 29 13
f 13 29 30
f 13 30 14
f 14 30 31
f 14 31 15
f 15 31 32
f 15 32 16
f 16 32 17
f 16 17 1
f 17 33 34
f 17 34 18
f 18 34 35
f 18 35 19
f 19 35 36
f 19 36 20
f 20 36 37
f 20 37 21
f 21 37 38
f 21 38 22
f 22 38 39
f 22 39 23
f 23 39 40
f 23 40 24
f 24 40 41
f 24 41 25
f 25 41 42
f 25 42 26
f 26 42 43
f 26 43 27
f 27 43 44
f 27 44 28
f 28 44 45
f 28 45 29
f 29 45 46
f 29 46 30
f 30 46 47
f 30 47 31
f 31 47 48
f 31 48 32
f 32 48 33
f 32 33 17
f 33 49 50
f 33 50 34
f 34 50 51
f 34 51 35
f 35 51 52
f 35 52 36
f 36 52 53
f 36 53 37
f 37 53 54
f 37 54 38
f 38 54 55
f 38 55 39
f 39 55 56
f 39 56 40
f 40 56 57
f 40 57 41
f 41 57 58
f 41 58 42
f 42 58 59
f 42 59 43
f 43 59 60
f 43 60 44
f 44 60 61
f 44 61 45
f 45 61 62
f 45 62 46
f 46 62 63
f 46 63 47
f 47 63 64
f 47 64 48
f 48 64 49
f 48 49 33
f 49 65 66
f 49 66 50
f 50 66 67
f 50 67 51
f 51 67 68
f 51 68 52
f 52 68 69
f 52 69 53
f 53 69 70
f 53 70 54
f 54 70 71
f 54 71 55
f 55 71 72
f 55 72 56
f 56 72 73
f 56 73 57
f 57 73 74
f 57 74 58
f 58 74 75
f 58 75 59
f 59 75 76
f 59 76 60
f 60 76 77
f 60 77 61
f 61 77 78
f 61 78 62
f 62 78 79
f 62 79 63
f 63 79 80
f 63 80 64
f 64 80 65
f 64 65 49
f 81 66 65
f 82 1 2
f 81 67 66
f 82 2 3
f 81 68 67
f 82 3 4
f 81 69 68
f 82 4 5
f 81 70 69
f 82 5 6
f 81 71 70
f 82 6 7
f 81 72 71
f 82 7 8
f 81 73 72
f 82 8 9
f 81 74 73
f 82 9 10
f 81 75 74
f 82 10 11
f 81 76 75
f 82 11 12
f 81 77 76
f 82 12 13
f 81 78 77
f 82 13 14
f 81 79 78
f 82 14 15
f 81 80 79
f 82 15 16
f 81 65 80
f 82 16 1
