# City room prop — voxel footprint 6x2x3 (0.5 m cells)
o bathtub
v 1.217753 0.422979 1.500000
v 1.245026 0.422979 1.707141
v 0.888221 1.529362 1.500000
v 0.920306 1.529362 1.743695
v 4.845234 0.422979 1.900165
v 5.155845 1.529362 1.970783
v 4.718047 0.422979 2.065919
v 5.006213 1.529362 2.165787
v 1.164000 1.529362 0.834213
v 1.452166 0.422979 0.934081
v 1.014366 1.529362 1.029217
v 1.324978 0.422979 1.099835
v 0.468085 1.229892 0.436170
v 0.468085 1.529362 0.436170
v 0.468085 1.229892 2.563830
v 0.468085 1.529362 2.563830
v 0.595745 1.229892 0.308511
v 5.404255 1.229892 0.308511
v 0.595745 1.529362 0.308511
v 5.404255 1.529362 0.308511
v 4.952458 0.422979 1.500000
v 4.925188 0.422979 1.707141
v 4.925188 0.422979 1.292859
v 4.845234 0.422979 1.099835
v 4.718047 0.422979 0.934081
v 4.552293 0.422979 0.806893
v 4.552293 0.422979 2.193107
v 4.359269 0.422979 0.726940
v 4.359269 0.422979 2.273060
v 4.279787 0.422979 1.500000
v 4.275437 0.422979 1.466959
v 4.152128 0.422979 0.699669
v 4.262684 0.422979 1.436170
v 4.242397 0.422979 1.409731
v 4.215957 0.422979 1.389443
v 4.185169 0.422979 1.376690
v 4.152128 0.422979 1.372340
v 2.018085 0.422979 0.699669
v 4.119087 0.422979 1.376690
v 4.088298 0.422979 1.389443
v 4.061859 0.422979 1.409731
v 4.041571 0.422979 1.436170
v 4.028818 0.422979 1.466959
v 4.024468 0.422979 1.500000
v 4.275437 0.422979 1.533041
v 2.018085 0.422979 2.300331
v 4.028818 0.422979 1.533041
v 4.041571 0.422979 1.563830
v 4.061859 0.422979 1.590269
v 4.088298 0.422979 1.610557
v 4.119087 0.422979 1.623310
v 4.152128 0.422979 2.300331
v 4.262684 0.422979 1.563830
v 4.242397 0.422979 1.590269
v 4.215957 0.422979 1.610557
v 4.185169 0.422979 1.623310
v 4.152128 0.422979 1.627660
v 1.810944 0.422979 0.726940
v 1.810944 0.422979 2.273060
v 1.617920 0.422979 0.806893
v 1.617920 0.422979 2.193107
v 1.452166 0.422979 2.065919
v 1.324978 0.422979 1.900165
v 1.245026 0.422979 1.292859
v 4.584121 1.529362 0.590518
v 4.340426 1.529362 0.558435
v 1.586093 1.529362 0.590518
v 1.359005 1.529362 0.684580
v 1.829787 1.529362 0.558435
v 0.920306 1.529362 1.256305
v 1.164000 1.529362 2.165787
v 1.359005 1.529362 2.315420
v 4.811209 1.529362 2.315420
v 1.829787 1.529362 2.441566
v 4.340426 1.529362 2.441566
v 4.584121 1.529362 2.409483
v 1.014366 1.529362 1.970783
v 5.006213 1.529362 0.834213
v 5.155845 1.529362 1.029217
v 5.249908 1.529362 1.256305
v 5.531915 1.529362 0.436170
v 5.531915 1.229892 0.436170
v 5.531915 1.529362 2.563830
v 5.531915 1.229892 2.563830
v 0.760562 1.699574 1.436170
v 0.632902 1.699574 1.436170
v 0.760562 1.699574 1.563830
v 0.632902 1.699574 1.563830
v 4.811209 1.529362 0.684580
v 1.586093 1.529362 2.409483
v 5.281991 1.529362 1.500000
v 5.249908 1.529362 1.743695
v 5.404255 1.229892 2.691489
v 0.595745 1.229892 2.691489
v 5.404255 1.529362 2.691489
v 0.595745 1.529362 2.691489
v 5.530823 1.529362 0.419507
v 5.530823 1.529362 2.580493
v 5.527565 1.529362 0.403129
v 5.527565 1.529362 2.596870
v 5.522197 1.529362 0.387317
v 5.522197 1.529362 2.612683
v 5.514812 1.529362 0.372340
v 5.514812 1.529362 2.627660
v 5.505534 1.529362 0.358456
v 5.505534 1.529362 2.641544
v 5.494524 1.529362 0.345901
v 5.494524 1.529362 2.654099
v 5.481970 1.529362 0.334891
v 5.481970 1.529362 2.665109
v 5.468085 1.529362 0.325614
v 5.468085 1.529362 2.674386
v 5.453109 1.529362 0.318228
v 5.453109 1.529362 2.681772
v 5.437296 1.529362 0.312861
v 5.437296 1.529362 2.687139
v 5.420918 1.529362 0.309603
v 5.420918 1.529362 2.690397
v 0.760562 1.529362 1.436170
v 0.760562 1.529362 1.563830
v 0.632902 1.529362 1.436170
v 0.632902 1.529362 1.563830
v 0.579081 1.529362 0.309603
v 0.579081 1.529362 2.690397
v 0.562702 1.529362 0.312861
v 0.562702 1.529362 2.687139
v 0.546889 1.529362 0.318228
v 0.546889 1.529362 2.681772
v 0.531915 1.529362 0.325614
v 0.531915 1.529362 2.674386
v 0.518030 1.529362 0.334891
v 0.518030 1.529362 2.665109
v 0.505477 1.529362 0.345901
v 0.505477 1.529362 2.654099
v 0.494464 1.529362 0.358456
v 0.494464 1.529362 2.641544
v 0.485187 1.529362 0.372340
v 0.485187 1.529362 2.627660
v 0.477804 1.529362 0.387317
v 0.477804 1.529362 2.612683
v 0.472434 1.529362 0.403129
v 0.472434 1.529362 2.596870
v 0.469179 1.529362 0.419507
v 0.469179 1.529362 2.580493
v 5.420918 1.229892 0.309603
v 5.437296 1.229892 0.312861
v 5.453109 1.229892 0.318228
v 5.468085 1.229892 0.325614
v 5.481970 1.229892 0.334891
v 5.494524 1.229892 0.345901
v 5.505534 1.229892 0.358456
v 5.514812 1.229892 0.372340
v 5.522197 1.229892 0.387317
v 5.527565 1.229892 0.403129
v 5.530823 1.229892 0.419507
v 5.530823 1.229892 2.580493
v 5.527565 1.229892 2.596870
v 5.522197 1.229892 2.612683
v 5.514812 1.229892 2.627660
v 5.505534 1.229892 2.641544
v 5.494524 1.229892 2.654099
v 5.481970 1.229892 2.665109
v 5.468085 1.229892 2.674386
v 5.453109 1.229892 2.681772
v 5.437296 1.229892 2.687139
v 5.420918 1.229892 2.690397
v 0.469179 1.229892 0.419507
v 0.472434 1.229892 0.403129
v 0.477804 1.229892 0.387317
v 0.485187 1.229892 0.372340
v 0.494464 1.229892 0.358456
v 0.505477 1.229892 0.345901
v 0.518030 1.229892 0.334891
v 0.531915 1.229892 0.325614
v 0.546889 1.229892 0.318228
v 0.562702 1.229892 0.312861
v 0.579081 1.229892 0.309603
v 0.579081 1.229892 2.690397
v 0.562702 1.229892 2.687139
v 0.546889 1.229892 2.681772
v 0.531915 1.229892 2.674386
v 0.518030 1.229892 2.665109
v 0.505477 1.229892 2.654099
v 0.494464 1.229892 2.641544
v 0.485187 1.229892 2.627660
v 0.477804 1.229892 2.612683
v 0.472434 1.229892 2.596870
v 0.469179 1.229892 2.580493
v 5.531915 0.040000 2.563830
v 5.531915 0.040000 0.436170
v 5.530823 0.040000 2.580493
v 5.530823 0.040000 0.419507
v 5.527565 0.040000 2.596870
v 5.527565 0.040000 0.403129
v 5.522197 0.040000 2.612683
v 5.522197 0.040000 0.387317
v 5.514812 0.040000 2.627660
v 5.514812 0.040000 0.372340
v 5.505534 0.040000 2.641544
v 5.505534 0.040000 0.358456
v 5.494524 0.040000 2.654099
v 5.494524 0.040000 0.345901
v 5.481970 0.040000 2.665109
v 5.481970 0.040000 0.334891
v 5.468085 0.040000 2.674386
v 5.468085 0.040000 0.325614
v 5.453109 0.040000 2.681772
v 5.453109 0.040000 0.318228
v 5.437296 0.040000 2.687139
v 5.437296 0.040000 0.312861
v 5.420918 0.040000 2.690397
v 5.420918 0.040000 0.309603
v 5.404255 0.040000 2.691489
v 5.404255 0.040000 0.308511
v 0.595745 0.040000 2.691489
v 0.595745 0.040000 0.308511
v 0.579081 0.040000 2.690397
v 0.579081 0.040000 0.309603
v 0.562702 0.040000 2.687139
v 0.562702 0.040000 0.312861
v 0.546889 0.040000 2.681772
v 0.546889 0.040000 0.318228
v 0.531915 0.040000 2.674386
v 0.531915 0.040000 0.325614
v 0.518030 0.040000 0.334891
v 0.518030 0.040000 2.665109
v 0.505477 0.040000 0.345901
v 0.505477 0.040000 2.654099
v 0.494464 0.040000 0.358456
v 0.494464 0.040000 2.641544
v 0.485187 0.040000 2.627660
v 0.485187 0.040000 0.372340
v 0.477804 0.040000 2.612683
v 0.477804 0.040000 0.387317
v 0.472434 0.040000 2.596870
v 0.472434 0.040000 0.403129
v 0.469179 0.040000 0.419507
v 0.469179 0.040000 2.580493
v 0.468085 0.040000 0.436170
v 0.468085 0.040000 2.563830
v 0.632902 1.614468 1.308511
v 0.760562 1.614468 1.308511
v 0.632902 1.699574 1.308511
v 0.760562 1.699574 1.308511
v 1.032545 1.826142 1.563830
v 1.015881 1.827234 1.563830
v 1.032545 1.826142 1.436170
v 1.015881 1.827234 1.436170
v 1.048923 1.822884 1.563830
v 1.048923 1.822884 1.436170
v 1.143540 1.699574 1.436170
v 1.143540 1.699574 1.563830
v 1.142447 1.716237 1.436170
v 1.142447 1.716237 1.563830
v 1.117162 1.777289 1.436170
v 1.126438 1.763404 1.436170
v 1.117162 1.777289 1.563830
v 1.126438 1.763404 1.563830
v 0.760562 1.614468 1.691489
v 0.632902 1.614468 1.691489
v 0.760562 1.699574 1.691489
v 0.632902 1.699574 1.691489
v 1.133821 1.748428 1.436170
v 1.133821 1.748428 1.563830
v 1.064736 1.817517 1.563830
v 1.064736 1.817517 1.436170
v 0.760562 1.827234 1.563830
v 0.743898 1.826142 1.563830
v 0.760562 1.827234 1.436170
v 0.743898 1.826142 1.436170
v 0.760562 1.614468 1.436170
v 0.632902 1.614468 1.436170
v 1.093596 1.800854 1.563830
v 1.079711 1.810131 1.563830
v 1.093596 1.800854 1.436170
v 1.079711 1.810131 1.436170
v 0.633996 1.716237 1.436170
v 0.633996 1.716237 1.563830
v 0.711711 1.817517 1.563830
v 0.696732 1.810131 1.563830
v 0.711711 1.817517 1.436170
v 0.696732 1.810131 1.436170
v 0.727523 1.822884 1.563830
v 0.727523 1.822884 1.436170
v 0.632902 1.614468 1.563830
v 0.650004 1.763404 1.436170
v 0.659285 1.777289 1.436170
v 0.650004 1.763404 1.563830
v 0.659285 1.777289 1.563830
v 0.760562 1.614468 1.563830
v 0.637251 1.732615 1.436170
v 1.139191 1.732615 1.436170
v 0.642621 1.748428 1.436170
v 0.670294 1.789843 1.436170
v 1.106149 1.789843 1.436170
v 0.682847 1.800854 1.436170
v 1.106149 1.789843 1.563830
v 0.682847 1.800854 1.563830
v 0.670294 1.789843 1.563830
v 0.642621 1.748428 1.563830
v 1.139191 1.732615 1.563830
v 0.637251 1.732615 1.563830
f 2 1 3
f 3 4 2
f 6 5 7
f 7 8 6
f 10 9 11
f 11 12 10
f 14 13 15
f 15 16 14
f 18 17 19
f 19 20 18
f 22 21 23
f 23 24 22
f 24 5 22
f 24 25 5
f 25 7 5
f 25 26 7
f 26 27 7
f 26 28 27
f 28 29 27
f 28 30 29
f 28 31 30
f 28 32 31
f 32 33 31
f 32 34 33
f 32 35 34
f 32 36 35
f 32 37 36
f 32 38 37
f 38 39 37
f 38 40 39
f 38 41 40
f 38 42 41
f 38 43 42
f 38 44 43
f 29 30 45
f 44 38 46
f 47 44 46
f 48 47 46
f 49 48 46
f 50 49 46
f 51 50 46
f 51 46 52
f 45 52 29
f 45 53 52
f 53 54 52
f 54 55 52
f 55 56 52
f 56 57 52
f 57 51 52
f 38 58 46
f 58 59 46
f 58 60 59
f 60 61 59
f 60 10 61
f 10 62 61
f 10 12 62
f 12 63 62
f 12 64 63
f 64 2 63
f 64 1 2
f 32 28 65
f 65 66 32
f 60 58 67
f 67 68 60
f 10 60 68
f 68 9 10
f 58 38 69
f 69 67 58
f 38 32 66
f 66 69 38
f 12 11 70
f 70 64 12
f 61 62 71
f 71 72 61
f 7 27 73
f 73 8 7
f 52 46 74
f 74 75 52
f 27 29 76
f 76 73 27
f 62 63 77
f 77 71 62
f 79 78 25
f 25 24 79
f 80 79 24
f 24 23 80
f 82 81 83
f 83 84 82
f 86 85 87
f 87 88 86
f 63 2 4
f 4 77 63
f 26 25 78
f 78 89 26
f 59 61 72
f 72 90 59
f 91 21 22
f 22 92 91
f 29 52 75
f 75 76 29
f 28 26 89
f 89 65 28
f 64 70 3
f 3 1 64
f 46 59 90
f 90 74 46
f 92 22 5
f 5 6 92
f 91 80 23
f 23 21 91
f 94 93 95
f 95 96 94
f 83 81 97
f 97 98 83
f 97 99 98
f 99 100 98
f 99 101 100
f 101 102 100
f 101 103 102
f 103 104 102
f 103 105 104
f 105 106 104
f 105 107 106
f 107 108 106
f 107 109 108
f 109 110 108
f 109 111 110
f 111 112 110
f 111 113 112
f 113 114 112
f 113 115 114
f 115 116 114
f 115 117 116
f 117 118 116
f 117 20 118
f 20 95 118
f 20 91 95
f 20 80 91
f 20 79 80
f 20 78 79
f 20 89 78
f 20 65 89
f 20 66 65
f 20 19 66
f 19 69 66
f 19 67 69
f 19 68 67
f 19 9 68
f 19 11 9
f 19 70 11
f 19 3 70
f 19 119 3
f 119 120 3
f 19 121 119
f 3 120 96
f 121 19 96
f 4 3 96
f 77 4 96
f 71 77 96
f 72 71 96
f 90 72 96
f 74 90 96
f 75 74 96
f 75 96 95
f 95 76 75
f 95 73 76
f 95 8 73
f 95 6 8
f 95 92 6
f 95 91 92
f 122 121 96
f 120 122 96
f 19 123 96
f 123 124 96
f 123 125 124
f 125 126 124
f 125 127 126
f 127 128 126
f 127 129 128
f 129 130 128
f 129 131 130
f 131 132 130
f 131 133 132
f 133 134 132
f 133 135 134
f 135 136 134
f 135 137 136
f 137 138 136
f 137 139 138
f 139 140 138
f 139 141 140
f 141 142 140
f 141 143 142
f 143 144 142
f 143 14 144
f 14 16 144
f 145 18 20
f 20 117 145
f 146 145 117
f 117 115 146
f 147 146 115
f 115 113 147
f 148 147 113
f 113 111 148
f 149 148 111
f 111 109 149
f 150 149 109
f 109 107 150
f 150 107 105
f 105 151 150
f 151 105 103
f 103 152 151
f 152 103 101
f 101 153 152
f 153 101 99
f 99 154 153
f 154 99 97
f 97 155 154
f 155 97 81
f 81 82 155
f 84 83 98
f 98 156 84
f 156 98 100
f 100 157 156
f 157 100 102
f 102 158 157
f 158 102 104
f 104 159 158
f 159 104 106
f 106 160 159
f 160 106 108
f 108 161 160
f 162 161 108
f 108 110 162
f 163 162 110
f 110 112 163
f 164 163 112
f 112 114 164
f 165 164 114
f 114 116 165
f 166 165 116
f 116 118 166
f 93 166 118
f 118 95 93
f 143 167 13
f 13 14 143
f 141 168 167
f 167 143 141
f 139 169 168
f 168 141 139
f 137 170 169
f 169 139 137
f 135 171 170
f 170 137 135
f 133 172 171
f 171 135 133
f 173 172 133
f 133 131 173
f 174 173 131
f 131 129 174
f 175 174 129
f 129 127 175
f 176 175 127
f 127 125 176
f 177 176 125
f 125 123 177
f 17 177 123
f 123 19 17
f 178 94 96
f 96 124 178
f 179 178 124
f 124 126 179
f 180 179 126
f 126 128 180
f 181 180 128
f 128 130 181
f 182 181 130
f 130 132 182
f 183 182 132
f 132 134 183
f 136 184 183
f 183 134 136
f 138 185 184
f 184 136 138
f 140 186 185
f 185 138 140
f 142 187 186
f 186 140 142
f 144 188 187
f 187 142 144
f 16 15 188
f 188 144 16
f 190 189 191
f 191 192 190
f 191 193 192
f 193 194 192
f 193 195 194
f 195 196 194
f 195 197 196
f 197 198 196
f 197 199 198
f 199 200 198
f 199 201 200
f 201 202 200
f 201 203 202
f 203 204 202
f 203 205 204
f 205 206 204
f 205 207 206
f 207 208 206
f 207 209 208
f 209 210 208
f 209 211 210
f 211 212 210
f 211 213 212
f 213 214 212
f 213 215 214
f 215 216 214
f 215 217 216
f 217 218 216
f 217 219 218
f 219 220 218
f 219 221 220
f 221 222 220
f 221 223 222
f 223 224 222
f 223 225 224
f 223 226 225
f 226 227 225
f 226 228 227
f 228 229 227
f 228 230 229
f 230 231 229
f 231 232 229
f 231 233 232
f 233 234 232
f 233 235 234
f 235 236 234
f 235 237 236
f 235 238 237
f 238 239 237
f 238 240 239
f 242 241 243
f 243 244 242
f 246 245 247
f 247 248 246
f 245 249 250
f 250 247 245
f 252 251 253
f 253 254 252
f 256 255 257
f 257 258 256
f 260 259 261
f 261 262 260
f 263 256 258
f 258 264 263
f 249 265 266
f 266 250 249
f 268 267 269
f 269 270 268
f 242 271 272
f 272 241 242
f 274 273 275
f 275 276 274
f 277 86 88
f 88 278 277
f 280 279 281
f 281 282 280
f 283 268 270
f 270 284 283
f 272 121 122
f 122 86 272
f 122 88 86
f 122 285 88
f 285 260 88
f 260 262 88
f 241 272 86
f 86 243 241
f 287 286 288
f 288 289 287
f 242 244 85
f 85 271 242
f 85 87 271
f 271 87 120
f 120 119 271
f 87 290 120
f 87 261 290
f 261 259 290
f 85 86 277
f 277 251 85
f 277 253 251
f 277 291 253
f 291 292 253
f 291 293 292
f 293 263 292
f 293 286 263
f 286 256 263
f 286 287 256
f 287 255 256
f 287 294 255
f 294 295 255
f 294 296 295
f 296 275 295
f 296 282 275
f 282 276 275
f 282 281 276
f 281 266 276
f 281 284 266
f 284 250 266
f 284 270 250
f 270 247 250
f 270 269 247
f 269 248 247
f 257 255 295
f 295 297 257
f 290 259 260
f 260 285 290
f 279 283 284
f 284 281 279
f 119 121 272
f 272 271 119
f 299 298 296
f 296 294 299
f 262 261 87
f 87 88 262
f 286 293 300
f 300 288 286
f 86 85 244
f 244 243 86
f 122 120 290
f 290 285 122
f 273 297 295
f 295 275 273
f 299 294 287
f 287 289 299
f 253 292 301
f 301 254 253
f 291 277 278
f 278 302 291
f 267 246 248
f 248 269 267
f 298 280 282
f 282 296 298
f 88 87 252
f 252 278 88
f 252 254 278
f 254 302 278
f 254 301 302
f 301 300 302
f 301 264 300
f 264 288 300
f 264 258 288
f 258 289 288
f 258 257 289
f 257 299 289
f 257 297 299
f 297 298 299
f 297 273 298
f 273 280 298
f 273 274 280
f 274 279 280
f 274 265 279
f 265 283 279
f 265 249 283
f 249 268 283
f 249 245 268
f 245 267 268
f 245 246 267
f 292 263 264
f 264 301 292
f 293 291 302
f 302 300 293
f 85 251 252
f 252 87 85
f 265 274 276
f 276 266 265
f 214 216 17
f 17 18 214
f 15 13 239
f 239 240 15
f 94 215 213
f 213 93 94
f 190 82 84
f 84 189 190
f 212 214 18
f 18 145 212
f 210 212 145
f 145 146 210
f 208 210 146
f 146 147 208
f 206 208 147
f 147 148 206
f 204 206 148
f 148 149 204
f 202 204 149
f 149 150 202
f 202 150 151
f 151 200 202
f 200 151 152
f 152 198 200
f 198 152 153
f 153 196 198
f 196 153 154
f 154 194 196
f 194 154 155
f 155 192 194
f 192 155 82
f 82 190 192
f 189 84 156
f 156 191 189
f 191 156 157
f 157 193 191
f 193 157 158
f 158 195 193
f 195 158 159
f 159 197 195
f 197 159 160
f 160 199 197
f 199 160 161
f 161 201 199
f 203 201 161
f 161 162 203
f 205 203 162
f 162 163 205
f 207 205 163
f 163 164 207
f 209 207 164
f 164 165 209
f 211 209 165
f 165 166 211
f 213 211 166
f 166 93 213
f 13 167 237
f 237 239 13
f 167 168 236
f 236 237 167
f 168 169 234
f 234 236 168
f 169 170 232
f 232 234 169
f 170 171 229
f 229 232 170
f 171 172 227
f 227 229 171
f 225 227 172
f 172 173 225
f 224 225 173
f 173 174 224
f 222 224 174
f 174 175 222
f 220 222 175
f 175 176 220
f 218 220 176
f 176 177 218
f 216 218 177
f 177 17 216
f 217 215 94
f 94 178 217
f 219 217 178
f 178 179 219
f 221 219 179
f 179 180 221
f 223 221 180
f 180 181 223
f 226 223 181
f 181 182 226
f 228 226 182
f 182 183 228
f 184 230 228
f 228 183 184
f 185 231 230
f 230 184 185
f 186 233 231
f 231 185 186
f 187 235 233
f 233 186 187
f 188 238 235
f 235 187 188
f 15 240 238
f 238 188 15
f 45 30 31
f 31 33 45
f 33 53 45
f 33 34 53
f 34 54 53
f 34 35 54
f 35 55 54
f 35 36 55
f 36 56 55
f 36 37 56
f 37 57 56
f 37 39 57
f 39 51 57
f 39 40 51
f 40 50 51
f 40 41 50
f 41 49 50
f 41 42 49
f 42 48 49
f 42 47 48
f 42 43 47
f 43 44 47
