# City room prop — unit cell 0..1
o bathroomCabinet
v 0.765385 0.050000 0.650000
v 0.765385 0.050000 0.350000
v 0.234615 0.050000 0.650000
v 0.234615 0.050000 0.350000
v 0.765385 0.950000 0.350000
v 0.765385 0.950000 0.650000
v 0.234615 0.950000 0.350000
v 0.234615 0.950000 0.650000
v 0.296564 0.111948 0.350000
v 0.296564 0.888052 0.350000
v 0.703436 0.888052 0.350000
v 0.703436 0.111948 0.350000
v 0.296564 0.530974 0.603846
v 0.703436 0.530974 0.603846
v 0.296564 0.888052 0.603846
v 0.703436 0.888052 0.603846
v 0.703436 0.111948 0.603846
v 0.296564 0.111948 0.603846
v 0.703436 0.469026 0.603846
v 0.703436 0.469026 0.396154
v 0.296564 0.469026 0.603846
v 0.296564 0.469026 0.396154
v 0.703436 0.530974 0.396154
v 0.296564 0.530974 0.396154
v 0.703436 0.111948 0.396154
v 0.296564 0.111948 0.396154
v 0.703436 0.888052 0.396154
v 0.296564 0.888052 0.396154
v 0.343506 0.158891 0.350000
v 0.343506 0.841109 0.350000
v 0.656494 0.841109 0.350000
v 0.656494 0.158891 0.350000
f 2 1 3
f 3 4 2
f 6 5 7
f 7 8 6
f 2 5 6
f 6 1 2
f 3 1 6
f 6 8 3
f 7 4 3
f 3 8 7
f 9 2 4
f 4 7 9
f 7 10 9
f 7 11 10
f 7 5 11
f 12 5 2
f 2 9 12
f 12 11 5
f 14 13 15
f 15 16 14
f 17 12 9
f 9 18 17
f 11 16 15
f 15 10 11
f 20 19 21
f 21 22 20
f 14 23 24
f 24 13 14
f 17 18 21
f 21 19 17
f 20 22 24
f 24 23 20
f 22 18 9
f 9 24 22
f 22 21 18
f 24 9 10
f 10 15 24
f 15 13 24
f 23 16 11
f 11 20 23
f 23 14 16
f 20 11 12
f 12 17 20
f 17 19 20
f 26 25 27
f 27 28 26
f 10 9 26
f 26 28 10
f 27 11 10
f 10 28 27
f 12 11 27
f 27 25 12
f 12 25 26
f 26 9 12
f 29 12 9
f 9 10 29
f 10 30 29
f 10 31 30
f 12 29 32
f 32 11 12
f 32 31 11
f 31 10 11
f 32 29 30
f 30 31 32
