# City room prop — voxel footprint 2x3x2 (0.5 m cells)
o bathroomSink
v 1.723404 2.210213 1.404556
v 1.723404 2.210213 1.617021
v 1.191489 2.210213 1.404556
v 0.276596 2.210213 1.617021
v 1.063830 2.210213 1.404556
v 0.936170 2.210213 1.404556
v 0.808511 2.210213 1.404556
v 0.276596 2.210213 1.404556
v 1.063830 2.125106 1.404556
v 1.723404 2.125106 1.404556
v 1.500419 1.827234 0.830563
v 1.452335 1.827234 0.798344
v 1.617801 2.125106 0.728944
v 1.558438 2.125106 0.677285
v 1.371414 1.827234 0.756993
v 1.458536 2.125106 0.610985
v 1.284206 1.827234 0.724081
v 1.350872 2.125106 0.558217
v 1.192186 1.827234 0.700167
v 1.237267 2.125106 0.519875
v 1.096914 1.827234 0.685655
v 1.119646 2.125106 0.496606
v 1.000000 1.827234 0.680790
v 1.000000 2.125106 0.488806
v 0.903086 1.827234 0.685655
v 0.880354 2.125106 0.496606
v 0.807813 1.827234 0.700167
v 0.762733 2.125106 0.519875
v 0.715794 1.827234 0.724081
v 0.649128 2.125106 0.558217
v 0.628586 1.827234 0.756993
v 0.541464 2.125106 0.610985
v 0.547665 1.827234 0.798344
v 0.441562 2.125106 0.677285
v 0.499581 1.827234 0.830563
v 0.382199 2.125106 0.728944
v 1.500419 1.827234 1.106457
v 0.499581 1.827234 1.106457
v 0.382199 2.125106 1.171293
v 1.617801 2.125106 1.171293
v 1.511194 1.742128 0.519189
v 1.622569 1.742128 0.593103
v 1.511194 2.125106 0.519189
v 1.622569 2.125106 0.593103
v 1.723404 1.742128 0.680851
v 1.723404 2.125106 0.680851
v 1.391165 2.125106 0.460361
v 1.391165 1.742128 0.460361
v 1.264515 2.125106 0.417615
v 1.264515 1.742128 0.417615
v 1.133386 2.125106 0.391675
v 1.133386 1.742128 0.391675
v 1.000000 2.125106 0.382979
v 1.000000 1.742128 0.382979
v 0.866614 2.125106 0.391675
v 0.866614 1.742128 0.391675
v 0.735485 2.125106 0.417615
v 0.735485 1.742128 0.417615
v 0.608834 2.125106 0.460361
v 0.608834 1.742128 0.460361
v 0.488806 2.125106 0.519189
v 0.488806 1.742128 0.519189
v 0.377431 2.125106 0.593103
v 0.377431 1.742128 0.593103
v 0.276596 2.125106 0.680851
v 0.276596 1.742128 0.680851
v 0.276596 1.742128 1.617021
v 0.276596 2.125106 1.404556
v 1.723404 1.742128 1.617021
v 0.609079 1.742128 1.617021
v 0.609079 1.742128 1.222608
v 0.697699 1.742128 1.179174
v 0.795577 1.742128 1.146139
v 0.896916 1.742128 1.126091
v 1.000000 1.742128 1.119371
v 1.103084 1.742128 1.126091
v 1.204423 1.742128 1.146139
v 1.302301 1.742128 1.179174
v 1.390921 1.742128 1.222608
v 1.390921 1.742128 1.617021
v 1.401010 0.040000 1.617021
v 1.401010 0.040000 1.108228
v 0.598990 0.040000 1.617021
v 1.310103 0.040000 1.052198
v 1.209699 0.040000 1.009583
v 1.105744 0.040000 0.983722
v 1.000000 0.040000 0.975053
v 0.894255 0.040000 0.983722
v 0.790301 0.040000 1.009583
v 0.689897 0.040000 1.052198
v 0.598990 0.040000 1.108228
v 1.063830 2.125106 1.276896
v 0.936170 2.125106 1.276896
v 0.936170 2.125106 1.404556
v 1.063830 2.311982 0.895009
v 1.063830 2.328360 0.898267
v 0.936170 2.311982 0.895009
v 0.936170 2.328360 0.898267
v 1.063830 2.418629 0.988536
v 1.063830 2.421887 1.004914
v 0.936170 2.418629 0.988536
v 0.936170 2.421887 1.004914
v 0.936170 2.295319 0.893917
v 1.063830 2.295319 0.893917
v 1.191489 2.210213 1.276896
v 1.191489 2.295319 1.276896
v 1.191489 2.295319 1.404556
v 1.063830 2.422979 1.021577
v 0.936170 2.422979 1.021577
v 1.063830 2.421887 1.293559
v 0.936170 2.421887 1.293559
v 1.063830 2.422979 1.276896
v 0.936170 2.422979 1.276896
v 0.936170 2.295319 1.404556
v 0.936170 2.311982 1.403463
v 1.063830 2.295319 1.404556
v 1.063830 2.311982 1.403463
v 1.063830 2.373033 0.920298
v 1.063830 2.385588 0.931308
v 0.936170 2.373033 0.920298
v 0.936170 2.385588 0.931308
v 0.936170 2.295319 1.276896
v 0.936170 2.344172 0.903635
v 0.936170 2.359149 0.911020
v 0.936170 2.396598 0.943863
v 0.936170 2.405876 0.957747
v 0.936170 2.413261 0.972724
v 0.936170 2.418629 1.309937
v 0.936170 2.413261 1.325749
v 0.936170 2.405876 1.340726
v 0.936170 2.396598 1.354610
v 0.936170 2.385588 1.367165
v 0.936170 2.373033 1.378175
v 0.936170 2.359149 1.387453
v 0.936170 2.344172 1.394838
v 0.936170 2.328360 1.400206
v 1.063830 2.344172 0.903635
v 1.063830 2.359149 0.911020
v 1.063830 2.328360 1.400206
v 1.063830 2.344172 1.394838
v 0.808511 2.210213 1.276896
v 0.936170 2.210213 1.276896
v 0.808511 2.295319 1.276896
v 1.063830 2.210213 1.276896
v 1.063830 2.295319 1.276896
v 0.808511 2.295319 1.404556
v 1.063830 2.396598 0.943863
v 1.063830 2.405876 0.957747
v 1.063830 2.413261 0.972724
v 1.063830 2.359149 1.387453
v 1.063830 2.373033 1.378175
v 1.063830 2.385588 1.367165
v 1.063830 2.418629 1.309937
v 1.063830 2.413261 1.325749
v 1.063830 2.405876 1.340726
v 1.063830 2.396598 1.354610
f 2 1 3
f 3 4 2
f 3 5 4
f 5 6 4
f 6 7 4
f 7 8 4
f 10 9 5
f 5 1 10
f 5 3 1
f 12 11 13
f 12 13 14
f 15 12 14
f 15 14 16
f 17 15 16
f 17 16 18
f 19 17 18
f 19 18 20
f 21 19 20
f 21 20 22
f 23 21 22
f 23 22 24
f 25 23 24
f 25 24 26
f 27 25 26
f 27 26 28
f 29 27 28
f 29 28 30
f 31 29 30
f 31 30 32
f 33 31 32
f 33 32 34
f 35 33 34
f 35 34 36
f 37 11 12
f 12 38 37
f 12 15 38
f 15 17 38
f 17 19 38
f 19 21 38
f 21 23 38
f 23 25 38
f 25 27 38
f 27 29 38
f 29 31 38
f 31 33 38
f 33 35 38
f 35 36 39
f 39 38 35
f 37 38 39
f 39 40 37
f 40 13 11
f 11 37 40
f 42 41 43
f 43 44 42
f 45 42 44
f 44 46 45
f 47 43 41
f 41 48 47
f 49 47 48
f 48 50 49
f 51 49 50
f 50 52 51
f 53 51 52
f 52 54 53
f 55 53 54
f 54 56 55
f 57 55 56
f 56 58 57
f 59 57 58
f 58 60 59
f 61 59 60
f 60 62 61
f 63 61 62
f 62 64 63
f 65 63 64
f 64 66 65
f 65 66 67
f 67 68 65
f 67 8 68
f 67 4 8
f 10 1 2
f 10 2 69
f 10 69 45
f 45 46 10
f 71 70 67
f 67 60 71
f 67 62 60
f 67 64 62
f 67 66 64
f 72 71 60
f 72 60 58
f 73 72 58
f 73 58 56
f 74 73 56
f 75 74 56
f 75 56 54
f 76 75 54
f 76 54 52
f 77 76 52
f 77 52 50
f 78 77 50
f 79 78 50
f 79 50 48
f 80 79 48
f 80 48 41
f 80 41 42
f 80 42 45
f 45 69 80
f 82 81 83
f 83 84 82
f 83 85 84
f 83 86 85
f 83 87 86
f 83 88 87
f 83 89 88
f 83 90 89
f 83 91 90
f 89 90 72
f 89 72 73
f 90 71 72
f 90 91 71
f 88 89 73
f 88 73 74
f 87 88 74
f 87 74 75
f 86 87 75
f 86 75 76
f 85 86 76
f 85 76 77
f 84 85 77
f 84 77 78
f 82 84 78
f 82 78 79
f 10 46 44
f 44 40 10
f 40 9 10
f 44 13 40
f 40 92 9
f 40 39 92
f 39 93 92
f 13 44 43
f 43 14 13
f 43 16 14
f 43 47 16
f 47 18 16
f 47 49 18
f 49 20 18
f 49 51 20
f 51 22 20
f 51 53 22
f 53 24 22
f 53 26 24
f 53 55 26
f 55 28 26
f 55 57 28
f 57 30 28
f 57 59 30
f 59 32 30
f 59 61 32
f 61 34 32
f 61 63 34
f 63 36 34
f 63 39 36
f 68 94 93
f 93 39 68
f 39 63 68
f 63 65 68
f 9 94 6
f 6 5 9
f 94 7 6
f 94 68 8
f 8 7 94
f 80 69 2
f 2 70 80
f 2 67 70
f 2 4 67
f 83 81 80
f 80 70 83
f 81 82 79
f 79 80 81
f 71 91 83
f 83 70 71
f 96 95 97
f 97 98 96
f 100 99 101
f 101 102 100
f 104 103 97
f 97 95 104
f 3 105 106
f 106 107 3
f 108 100 102
f 102 109 108
f 111 110 112
f 112 113 111
f 115 114 116
f 116 117 115
f 119 118 120
f 120 121 119
f 97 103 122
f 122 98 97
f 122 123 98
f 122 124 123
f 122 120 124
f 122 121 120
f 122 125 121
f 122 126 125
f 122 127 126
f 122 101 127
f 122 102 101
f 122 109 102
f 122 113 109
f 122 114 113
f 114 111 113
f 114 128 111
f 114 129 128
f 114 130 129
f 114 131 130
f 114 132 131
f 114 133 132
f 114 134 133
f 114 135 134
f 114 136 135
f 114 115 136
f 138 137 123
f 123 124 138
f 135 136 139
f 139 140 135
f 142 141 143
f 143 144 142
f 143 105 144
f 143 145 105
f 145 106 105
f 143 122 145
f 142 144 92
f 92 93 142
f 146 7 6
f 6 5 146
f 5 3 146
f 3 114 146
f 3 107 114
f 107 116 114
f 148 147 125
f 125 126 148
f 149 148 126
f 126 127 149
f 143 141 7
f 7 146 143
f 99 149 127
f 127 101 99
f 134 135 140
f 140 150 134
f 116 107 106
f 106 145 116
f 136 115 117
f 117 139 136
f 132 133 151
f 151 152 132
f 112 108 109
f 109 113 112
f 92 144 5
f 5 9 92
f 145 104 95
f 95 96 145
f 96 137 145
f 137 138 145
f 138 118 145
f 118 119 145
f 119 147 145
f 147 148 145
f 148 149 145
f 149 99 145
f 99 100 145
f 100 108 145
f 108 112 145
f 112 110 145
f 110 116 145
f 110 153 116
f 153 154 116
f 154 155 116
f 155 156 116
f 156 152 116
f 152 151 116
f 151 150 116
f 150 140 116
f 140 139 116
f 139 117 116
f 103 104 145
f 145 122 103
f 154 153 128
f 128 129 154
f 132 152 156
f 156 131 132
f 142 6 7
f 7 141 142
f 153 110 111
f 111 128 153
f 130 155 154
f 154 129 130
f 146 114 122
f 122 143 146
f 147 119 121
f 121 125 147
f 118 138 124
f 124 120 118
f 133 134 150
f 150 151 133
f 6 142 93
f 93 94 6
f 156 155 130
f 130 131 156
f 105 3 5
f 5 144 105
f 137 96 98
f 98 123 137
f 145 116 114
f 114 122 145
