# City room prop — unit cell 0..1
o bathroomMirror
v 0.623837 0.950000 0.649508
v 0.376163 0.950000 0.649508
v 0.623837 0.950000 0.598982
v 0.376163 0.950000 0.598982
v 0.812000 0.050000 0.649508
v 0.812000 0.050000 0.598982
v 0.188000 0.050000 0.649508
v 0.188000 0.050000 0.598982
v 0.734967 0.124070 0.598982
v 0.734967 0.839454 0.598982
v 0.734967 0.124070 0.624245
v 0.734967 0.839454 0.624245
v 0.812000 0.894091 0.649508
v 0.188000 0.894091 0.649508
v 0.612206 0.875930 0.624245
v 0.612206 0.875930 0.598982
v 0.387794 0.875930 0.624245
v 0.387794 0.875930 0.598982
v 0.188000 0.124070 0.598982
v 0.265033 0.124070 0.598982
v 0.188000 0.894091 0.598982
v 0.265033 0.839454 0.598982
v 0.812000 0.894091 0.598982
v 0.812000 0.124070 0.598982
v 0.812000 0.091415 0.598982
v 0.188000 0.091415 0.598982
v 0.265033 0.124070 0.624245
v 0.265033 0.839454 0.624245
v 0.188000 0.091415 0.350492
v 0.812000 0.091415 0.350492
v 0.188000 0.124070 0.350492
v 0.812000 0.124070 0.350492
f 2 1 3
f 3 4 2
f 6 5 7
f 7 8 6
f 10 9 11
f 11 12 10
f 7 5 13
f 13 14 7
f 13 1 14
f 1 2 14
f 10 12 15
f 15 16 10
f 16 15 17
f 17 18 16
f 20 19 21
f 21 22 20
f 21 18 22
f 21 16 18
f 16 21 23
f 10 16 23
f 10 23 24
f 19 20 24
f 24 9 10
f 20 9 24
f 21 4 23
f 4 3 23
f 19 24 25
f 25 26 19
f 26 25 6
f 6 8 26
f 26 8 7
f 7 21 26
f 7 14 21
f 19 26 21
f 1 13 23
f 23 3 1
f 27 11 9
f 9 20 27
f 27 20 22
f 22 28 27
f 24 23 13
f 24 13 5
f 25 24 5
f 5 6 25
f 14 2 4
f 4 21 14
f 18 17 28
f 28 22 18
f 11 27 28
f 28 12 11
f 28 17 12
f 17 15 12
f 30 29 31
f 31 32 30
f 30 31 29
f 31 30 32
f 19 31 29
f 29 26 19
f 19 29 31
f 29 19 26
f 9 24 32
f 32 31 9
f 31 20 9
f 31 19 20
f 25 30 32
f 32 24 25
f 25 32 30
f 32 25 24
f 30 25 26
f 26 29 30
f 30 26 25
f 26 30 29
