# City room prop — unit cell 0..1
o bear
v 0.635600 0.764866 0.537500
v 0.364400 0.764866 0.537500
v 0.588140 0.682663 0.402500
v 0.411860 0.682663 0.402500
v 0.614582 0.500000 0.342500
v 0.676280 0.530000 0.402500
v 0.557291 0.599231 0.342500
v 0.632210 0.606332 0.402500
v 0.588140 0.377337 0.402500
v 0.557291 0.400769 0.342500
v 0.411860 0.377337 0.402500
v 0.442709 0.400769 0.342500
v 0.593957 0.508931 0.252500
v 0.385418 0.500000 0.342500
v 0.406043 0.508931 0.252500
v 0.461019 0.386626 0.267500
v 0.422038 0.454143 0.267500
v 0.635600 0.295134 0.627500
v 0.364400 0.295134 0.627500
v 0.620000 0.292154 0.702500
v 0.380000 0.292154 0.702500
v 0.635600 0.764866 0.627500
v 0.364400 0.764866 0.627500
v 0.635600 0.295134 0.537500
v 0.364400 0.295134 0.537500
v 0.260000 0.500000 0.702500
v 0.740000 0.500000 0.702500
v 0.380000 0.707846 0.702500
v 0.620000 0.707846 0.702500
v 0.453021 0.590300 0.252500
v 0.546979 0.590300 0.252500
v 0.538981 0.386626 0.267500
v 0.577962 0.454143 0.267500
v 0.367790 0.606332 0.402500
v 0.323720 0.530000 0.402500
v 0.228800 0.530000 0.537500
v 0.771200 0.530000 0.537500
v 0.771200 0.530000 0.627500
v 0.228800 0.530000 0.627500
v 0.442709 0.599231 0.342500
v 0.110289 0.275000 0.702500
v 0.110289 0.725000 0.702500
v 0.110289 0.275000 0.747500
v 0.110289 0.725000 0.747500
v 0.835013 0.629473 0.555500
v 0.813653 0.718431 0.555500
v 0.753653 0.770393 0.555500
v 0.164987 0.629473 0.555500
v 0.164987 0.629473 0.609500
v 0.186347 0.718431 0.555500
v 0.246347 0.770393 0.555500
v 0.835013 0.629473 0.609500
v 0.818094 0.699933 0.609500
v 0.813653 0.718431 0.609500
v 0.753653 0.770393 0.609500
v 0.246347 0.770393 0.609500
v 0.186347 0.718431 0.609500
v 0.500000 0.050000 0.747500
v 0.500000 0.050000 0.702500
v 0.889711 0.275000 0.747500
v 0.889711 0.725000 0.747500
v 0.500000 0.950000 0.747500
v 0.889711 0.275000 0.702500
v 0.500000 0.950000 0.702500
v 0.889711 0.725000 0.702500
f 2 1 3
f 3 4 2
f 6 5 7
f 7 8 6
f 10 9 11
f 11 12 10
f 13 5 14
f 14 15 13
f 17 16 12
f 12 14 17
f 19 18 20
f 20 21 19
f 23 22 1
f 1 2 23
f 24 18 19
f 19 25 24
f 20 21 26
f 26 27 20
f 26 28 27
f 28 29 27
f 13 15 30
f 30 31 13
f 32 16 17
f 17 33 32
f 2 4 34
f 34 35 2
f 35 36 2
f 14 5 33
f 33 17 14
f 24 37 38
f 38 18 24
f 10 5 6
f 6 9 10
f 37 6 8
f 8 3 37
f 3 1 37
f 14 12 11
f 11 35 14
f 24 25 36
f 36 37 24
f 36 2 37
f 2 1 37
f 28 23 39
f 39 26 28
f 5 13 31
f 31 7 5
f 7 40 4
f 4 3 7
f 40 7 31
f 31 30 40
f 32 10 12
f 12 16 32
f 32 33 5
f 5 10 32
f 27 38 22
f 22 29 27
f 9 6 37
f 37 24 9
f 9 24 25
f 25 11 9
f 29 22 23
f 23 28 29
f 18 38 27
f 27 20 18
f 36 25 19
f 19 39 36
f 35 11 25
f 25 36 35
f 40 30 15
f 15 14 40
f 42 41 43
f 43 44 42
f 39 19 21
f 21 26 39
f 46 45 1
f 46 1 47
f 48 36 39
f 39 49 48
f 48 50 2
f 2 50 51
f 49 39 23
f 38 37 45
f 45 52 38
f 36 48 2
f 22 52 53
f 53 54 22
f 52 45 46
f 46 54 52
f 54 53 52
f 38 52 22
f 22 55 47
f 47 1 22
f 40 14 35
f 35 34 40
f 56 23 2
f 2 51 56
f 57 49 23
f 22 54 55
f 57 50 48
f 48 49 57
f 57 56 51
f 51 50 57
f 55 54 46
f 46 47 55
f 45 37 1
f 57 23 56
f 59 58 43
f 43 41 59
f 43 58 60
f 60 44 43
f 60 61 44
f 61 62 44
f 63 60 58
f 58 59 63
f 44 62 64
f 64 42 44
f 63 65 61
f 61 60 63
f 62 61 65
f 65 64 62
f 63 59 41
f 41 21 63
f 41 42 21
f 42 26 21
f 42 28 26
f 42 29 28
f 63 21 20
f 20 65 63
f 29 42 65
f 20 27 65
f 27 29 65
f 42 64 65
f 8 7 3
f 40 34 4
