# City room prop — unit cell 0..1
o bedBunk
v 0.288356 0.250267 0.078767
v 0.288356 0.250267 0.921233
v 0.288356 0.279034 0.078767
v 0.288356 0.279034 0.921233
v 0.276027 0.279034 0.921233
v 0.276027 0.279034 0.078767
v 0.276027 0.250267 0.921233
v 0.276027 0.250267 0.078767
v 0.276027 0.694103 0.078767
v 0.276027 0.722870 0.078767
v 0.276027 0.694103 0.921233
v 0.276027 0.722870 0.921233
v 0.732192 0.136301 0.921233
v 0.732192 0.551370 0.921233
v 0.711644 0.136301 0.921233
v 0.711644 0.218493 0.921233
v 0.703425 0.218493 0.921233
v 0.703425 0.551370 0.921233
v 0.288356 0.722870 0.921233
v 0.288356 0.722870 0.078767
v 0.288356 0.694103 0.921233
v 0.288356 0.694103 0.078767
v 0.296575 0.551370 0.050000
v 0.296575 0.279034 0.058219
v 0.296575 0.551370 0.078767
v 0.296575 0.279034 0.070548
v 0.296575 0.250267 0.070548
v 0.296575 0.136301 0.078767
v 0.296575 0.250267 0.058219
v 0.296575 0.136301 0.050000
v 0.732192 0.136301 0.078767
v 0.703425 0.136301 0.078767
v 0.732192 0.551370 0.078767
v 0.703425 0.551370 0.078767
v 0.703425 0.136301 0.050000
v 0.288356 0.136301 0.099315
v 0.711644 0.136301 0.099315
v 0.267808 0.136301 0.078767
v 0.288356 0.136301 0.921233
v 0.267808 0.136301 0.921233
v 0.296575 0.551370 0.921233
v 0.296575 0.218493 0.921233
v 0.296575 0.551370 0.950000
v 0.296575 0.279034 0.929452
v 0.296575 0.279034 0.941781
v 0.296575 0.250267 0.941781
v 0.296575 0.250267 0.929452
v 0.296575 0.218493 0.950000
v 0.267808 0.551370 0.078767
v 0.288356 0.218493 0.921233
v 0.267808 0.551370 0.921233
v 0.703425 0.218493 0.950000
v 0.703425 0.250267 0.929452
v 0.703425 0.250267 0.941781
v 0.703425 0.279034 0.941781
v 0.703425 0.279034 0.929452
v 0.703425 0.551370 0.950000
v 0.703425 0.551370 0.050000
v 0.703425 0.250267 0.058219
v 0.703425 0.250267 0.070548
v 0.703425 0.279034 0.070548
v 0.703425 0.279034 0.058219
v 0.703425 0.694103 0.941781
v 0.296575 0.694103 0.941781
v 0.703425 0.722870 0.941781
v 0.296575 0.722870 0.941781
v 0.703425 0.694103 0.929452
v 0.703425 0.722870 0.929452
v 0.296575 0.694103 0.929452
v 0.296575 0.722870 0.929452
v 0.703425 0.694103 0.058219
v 0.296575 0.694103 0.058219
v 0.703425 0.694103 0.070548
v 0.296575 0.694103 0.070548
v 0.703425 0.722870 0.058219
v 0.296575 0.722870 0.058219
v 0.703425 0.722870 0.070548
v 0.296575 0.722870 0.070548
v 0.296575 0.050000 0.950000
v 0.296575 0.050000 0.921233
v 0.267808 0.050000 0.950000
v 0.267808 0.050000 0.921233
v 0.296575 0.107534 0.921233
v 0.267808 0.107534 0.921233
v 0.296575 0.107534 0.950000
v 0.296575 0.050000 0.078767
v 0.296575 0.050000 0.050000
v 0.267808 0.050000 0.078767
v 0.267808 0.050000 0.050000
v 0.296575 0.107534 0.050000
v 0.296575 0.107534 0.078767
v 0.732192 0.050000 0.078767
v 0.732192 0.050000 0.050000
v 0.703425 0.050000 0.078767
v 0.703425 0.050000 0.050000
v 0.267808 0.107534 0.078767
v 0.732192 0.107534 0.078767
v 0.703425 0.107534 0.078767
v 0.703425 0.107534 0.050000
v 0.732192 0.050000 0.921233
v 0.703425 0.050000 0.921233
v 0.732192 0.050000 0.950000
v 0.703425 0.050000 0.950000
v 0.703425 0.107534 0.950000
v 0.703425 0.107534 0.921233
v 0.732192 0.107534 0.921233
v 0.267808 0.580137 0.078767
v 0.296575 0.580137 0.078767
v 0.296575 0.748630 0.078767
v 0.267808 0.748630 0.078767
v 0.296575 0.748630 0.921233
v 0.296575 0.748630 0.950000
v 0.267808 0.748630 0.921233
v 0.267808 0.748630 0.950000
v 0.267808 0.580137 0.921233
v 0.267808 0.748630 0.050000
v 0.732192 0.748630 0.950000
v 0.703425 0.662329 0.950000
v 0.703425 0.748630 0.950000
v 0.296575 0.662329 0.950000
v 0.703425 0.748630 0.921233
v 0.703425 0.662329 0.921233
v 0.703425 0.580137 0.050000
v 0.703425 0.580137 0.078767
v 0.296575 0.580137 0.050000
v 0.288356 0.580137 0.099315
v 0.711644 0.580137 0.099315
v 0.732192 0.580137 0.078767
v 0.732192 0.580137 0.921233
v 0.288356 0.580137 0.921233
v 0.711644 0.580137 0.921233
v 0.296575 0.748630 0.050000
v 0.732192 0.748630 0.921233
v 0.711644 0.662329 0.921233
v 0.732192 0.748630 0.050000
v 0.703425 0.748630 0.050000
v 0.296575 0.662329 0.921233
v 0.288356 0.662329 0.921233
v 0.732192 0.748630 0.078767
v 0.703425 0.748630 0.078767
v 0.711644 0.218493 0.099315
v 0.711644 0.218493 0.754036
v 0.288356 0.218493 0.099315
v 0.288356 0.218493 0.754036
v 0.711644 0.156849 0.099315
v 0.711644 0.156849 0.653574
v 0.711644 0.156849 0.754036
v 0.288356 0.156849 0.099315
v 0.288356 0.156849 0.653574
v 0.288356 0.156849 0.754036
v 0.711644 0.662329 0.754036
v 0.288356 0.662329 0.754036
v 0.288356 0.662329 0.099315
v 0.711644 0.662329 0.099315
v 0.711644 0.600685 0.099315
v 0.288356 0.600685 0.099315
v 0.288356 0.600685 0.653574
v 0.288356 0.600685 0.754036
v 0.711644 0.600685 0.754036
v 0.711644 0.600685 0.653574
v 0.288356 0.218493 0.754036
v 0.711644 0.218493 0.754036
v 0.288356 0.218493 0.099315
v 0.711644 0.218493 0.099315
v 0.726438 0.218493 0.086949
v 0.711644 0.239041 0.099315
v 0.273562 0.218493 0.086949
v 0.288356 0.239041 0.099315
v 0.273562 0.156849 0.653574
v 0.288356 0.156849 0.653574
v 0.273562 0.156849 0.086949
v 0.288356 0.156849 0.099315
v 0.726438 0.156849 0.086949
v 0.711644 0.156849 0.099315
v 0.726438 0.156849 0.653574
v 0.711644 0.156849 0.653574
v 0.711644 0.156849 0.754036
v 0.288356 0.156849 0.754036
v 0.726438 0.218493 0.653574
v 0.711644 0.239041 0.653574
v 0.288356 0.239041 0.653574
v 0.273562 0.218493 0.653574
v 0.715753 0.247260 0.754036
v 0.284247 0.247260 0.754036
v 0.265342 0.156849 0.754036
v 0.265342 0.222603 0.754036
v 0.734658 0.156849 0.754036
v 0.734658 0.222603 0.754036
v 0.265342 0.156849 0.653574
v 0.715753 0.247260 0.653574
v 0.284247 0.247260 0.653574
v 0.265342 0.222603 0.653574
v 0.734658 0.156849 0.653574
v 0.734658 0.222603 0.653574
v 0.288356 0.662329 0.754036
v 0.711644 0.662329 0.754036
v 0.288356 0.662329 0.099315
v 0.711644 0.662329 0.099315
v 0.726438 0.662329 0.086949
v 0.711644 0.682877 0.099315
v 0.273562 0.662329 0.086949
v 0.288356 0.682877 0.099315
v 0.273562 0.600685 0.653574
v 0.288356 0.600685 0.653574
v 0.273562 0.600685 0.086949
v 0.288356 0.600685 0.099315
v 0.726438 0.600685 0.086949
v 0.711644 0.600685 0.099315
v 0.726438 0.600685 0.653574
v 0.711644 0.600685 0.653574
v 0.711644 0.600685 0.754036
v 0.288356 0.600685 0.754036
v 0.726438 0.662329 0.653574
v 0.711644 0.682877 0.653574
v 0.288356 0.682877 0.653574
v 0.273562 0.662329 0.653574
v 0.715753 0.691096 0.754036
v 0.284247 0.691096 0.754036
v 0.265342 0.600685 0.754036
v 0.265342 0.666438 0.754036
v 0.734658 0.600685 0.754036
v 0.734658 0.666438 0.754036
v 0.265342 0.600685 0.653574
v 0.715753 0.691096 0.653574
v 0.284247 0.691096 0.653574
v 0.265342 0.666438 0.653574
v 0.734658 0.600685 0.653574
v 0.734658 0.666438 0.653574
v 0.394548 0.266357 0.897971
v 0.394548 0.251111 0.777287
v 0.601343 0.266357 0.897971
v 0.601343 0.251111 0.777287
v 0.394548 0.233739 0.902092
v 0.601343 0.233739 0.902092
v 0.394548 0.218493 0.781407
v 0.601343 0.218493 0.781407
v 0.394548 0.252726 0.921233
v 0.601343 0.252726 0.921233
v 0.637671 0.250048 0.900032
v 0.637671 0.234802 0.779347
v 0.394548 0.232124 0.758145
v 0.601343 0.232124 0.758145
v 0.358219 0.250048 0.900032
v 0.358219 0.234802 0.779347
v 0.394548 0.710192 0.897971
v 0.394548 0.694946 0.777287
v 0.601343 0.710192 0.897971
v 0.601343 0.694946 0.777287
v 0.394548 0.677575 0.902092
v 0.601343 0.677575 0.902092
v 0.394548 0.662329 0.781407
v 0.601343 0.662329 0.781407
v 0.394548 0.696562 0.921233
v 0.601343 0.696562 0.921233
v 0.637671 0.693884 0.900032
v 0.637671 0.678638 0.779347
v 0.394548 0.675959 0.758145
v 0.601343 0.675959 0.758145
v 0.358219 0.693884 0.900032
v 0.358219 0.678638 0.779347
f 2 1 3
f 3 4 2
f 5 4 3
f 3 6 5
f 1 2 7
f 7 8 1
f 6 8 7
f 7 5 6
f 10 9 11
f 11 12 10
f 14 13 15
f 15 16 14
f 16 17 14
f 17 18 14
f 12 19 20
f 20 10 12
f 22 21 11
f 11 9 22
f 21 22 20
f 20 19 21
f 24 23 25
f 25 26 24
f 25 27 26
f 25 28 27
f 23 24 29
f 29 27 28
f 29 28 30
f 30 23 29
f 32 31 33
f 33 34 32
f 32 35 30
f 32 30 28
f 32 28 36
f 32 36 37
f 31 32 37
f 37 13 31
f 28 38 36
f 38 39 36
f 38 40 39
f 13 37 15
f 42 41 43
f 43 44 42
f 43 45 44
f 43 46 45
f 42 44 47
f 47 48 42
f 47 46 48
f 46 43 48
f 1 38 28
f 28 25 1
f 1 8 38
f 25 3 1
f 49 38 8
f 3 25 49
f 8 6 49
f 6 3 49
f 50 39 40
f 40 7 50
f 40 51 7
f 7 42 50
f 51 5 7
f 51 4 5
f 51 41 4
f 2 41 42
f 42 7 2
f 2 4 41
f 52 17 42
f 42 48 52
f 53 18 17
f 17 52 53
f 52 54 53
f 52 55 54
f 18 53 56
f 56 57 18
f 56 55 57
f 55 52 57
f 59 58 35
f 35 32 59
f 32 60 59
f 32 61 60
f 58 59 62
f 62 34 58
f 62 61 34
f 61 32 34
f 64 63 65
f 65 66 64
f 68 67 69
f 69 70 68
f 69 67 63
f 63 64 69
f 72 71 73
f 73 74 72
f 75 71 72
f 72 76 75
f 77 75 76
f 76 78 77
f 74 73 77
f 77 78 74
f 65 68 70
f 70 66 65
f 62 59 29
f 29 24 62
f 61 62 24
f 24 26 61
f 27 60 61
f 61 26 27
f 29 59 60
f 60 27 29
f 80 79 81
f 81 82 80
f 83 80 82
f 82 84 83
f 79 80 83
f 83 85 79
f 87 86 88
f 88 89 87
f 87 90 91
f 91 86 87
f 93 92 94
f 94 95 93
f 88 86 91
f 91 96 88
f 94 92 97
f 97 98 94
f 98 99 95
f 95 94 98
f 101 100 102
f 102 103 101
f 105 104 85
f 85 91 105
f 85 83 91
f 83 96 91
f 83 84 96
f 105 91 90
f 105 90 99
f 105 99 98
f 106 105 98
f 98 97 106
f 105 101 103
f 103 104 105
f 106 100 101
f 101 105 106
f 22 107 108
f 108 109 22
f 22 9 107
f 109 20 22
f 110 107 9
f 20 109 110
f 9 10 110
f 10 20 110
f 112 111 113
f 113 114 112
f 84 82 81
f 81 40 84
f 40 81 114
f 40 114 113
f 40 113 115
f 51 40 115
f 49 51 115
f 49 115 107
f 107 96 49
f 96 38 49
f 38 96 84
f 84 40 38
f 96 107 89
f 89 88 96
f 89 107 110
f 110 116 89
f 103 102 117
f 117 104 103
f 117 52 104
f 52 85 104
f 117 57 52
f 117 118 57
f 118 43 57
f 117 119 118
f 85 52 48
f 85 48 114
f 48 43 114
f 85 114 81
f 81 79 85
f 43 120 114
f 43 118 120
f 120 112 114
f 67 121 122
f 122 118 67
f 118 63 67
f 118 65 63
f 121 67 68
f 68 119 121
f 68 65 119
f 65 118 119
f 124 123 125
f 124 125 108
f 124 108 126
f 124 126 127
f 128 124 127
f 127 129 128
f 108 107 126
f 107 130 126
f 107 115 130
f 129 127 131
f 109 132 116
f 116 110 109
f 133 129 131
f 131 134 133
f 134 122 133
f 122 121 133
f 90 87 89
f 89 116 90
f 116 30 90
f 30 35 90
f 116 23 30
f 116 125 23
f 125 58 23
f 125 123 58
f 116 132 125
f 99 90 35
f 99 35 135
f 35 58 135
f 58 123 135
f 95 99 135
f 135 93 95
f 123 136 135
f 70 111 112
f 112 66 70
f 112 64 66
f 112 120 64
f 111 70 69
f 69 64 120
f 69 120 137
f 137 111 69
f 138 130 115
f 115 11 138
f 115 113 11
f 11 137 138
f 113 12 11
f 113 19 12
f 113 111 19
f 21 111 137
f 137 11 21
f 21 19 111
f 118 122 137
f 137 120 118
f 139 135 136
f 136 140 139
f 71 136 123
f 123 124 71
f 124 73 71
f 124 77 73
f 136 71 75
f 75 140 136
f 75 77 140
f 77 124 140
f 93 135 139
f 139 128 93
f 93 128 97
f 97 92 93
f 128 31 97
f 33 31 128
f 128 129 33
f 129 14 33
f 129 133 14
f 133 117 14
f 97 31 13
f 13 106 97
f 13 100 106
f 13 102 100
f 13 14 102
f 14 117 102
f 117 133 121
f 121 119 117
f 76 132 109
f 109 78 76
f 109 74 78
f 109 108 74
f 132 76 72
f 72 74 108
f 72 108 125
f 125 132 72
f 56 53 47
f 47 44 56
f 46 54 55
f 55 45 46
f 47 53 54
f 54 46 47
f 124 128 139
f 139 140 124
f 55 56 44
f 44 45 55
f 18 57 43
f 43 23 18
f 43 25 23
f 43 41 25
f 41 49 25
f 41 51 49
f 18 23 58
f 18 58 34
f 14 18 34
f 34 33 14
f 142 141 143
f 143 144 142
f 16 142 144
f 144 17 16
f 144 42 17
f 144 50 42
f 145 141 142
f 142 146 145
f 142 147 146
f 147 142 16
f 145 146 15
f 146 147 15
f 147 16 15
f 15 37 145
f 143 148 149
f 149 144 143
f 149 150 144
f 39 149 148
f 39 150 149
f 148 36 39
f 50 144 150
f 150 39 50
f 141 145 148
f 148 143 141
f 36 148 145
f 145 37 36
f 134 151 152
f 152 122 134
f 152 137 122
f 152 138 137
f 153 152 151
f 151 154 153
f 155 127 126
f 126 156 155
f 154 155 156
f 156 153 154
f 156 126 130
f 130 157 156
f 130 158 157
f 158 130 138
f 138 152 158
f 157 158 152
f 153 156 157
f 157 152 153
f 159 151 134
f 159 134 131
f 160 159 131
f 151 159 160
f 155 160 131
f 151 160 155
f 131 127 155
f 155 154 151
f 162 161 163
f 163 164 162
f 166 165 167
f 167 168 166
f 170 169 171
f 171 172 170
f 171 173 172
f 174 172 173
f 174 173 175
f 175 176 174
f 176 177 162
f 176 162 164
f 164 174 176
f 174 164 163
f 163 172 174
f 165 173 171
f 171 167 165
f 170 172 163
f 163 178 170
f 163 161 178
f 175 173 165
f 165 179 175
f 179 165 166
f 166 180 179
f 181 180 166
f 166 168 181
f 168 167 182
f 182 181 168
f 167 171 169
f 169 182 167
f 162 183 184
f 184 161 162
f 184 178 161
f 184 185 178
f 184 186 185
f 183 162 177
f 183 177 187
f 187 188 183
f 169 185 189
f 185 169 170
f 170 178 185
f 184 183 190
f 190 191 184
f 191 192 186
f 186 184 191
f 192 189 185
f 185 186 192
f 187 193 194
f 194 188 187
f 188 194 190
f 190 183 188
f 194 193 175
f 175 179 194
f 179 190 194
f 179 180 190
f 180 191 190
f 180 181 191
f 181 182 191
f 182 192 191
f 182 169 192
f 169 189 192
f 187 177 176
f 176 175 187
f 175 193 187
f 196 195 197
f 197 198 196
f 200 199 201
f 201 202 200
f 204 203 205
f 205 206 204
f 205 207 206
f 208 206 207
f 208 207 209
f 209 210 208
f 210 211 196
f 210 196 198
f 198 208 210
f 208 198 197
f 197 206 208
f 199 207 205
f 205 201 199
f 204 206 197
f 197 212 204
f 197 195 212
f 209 207 199
f 199 213 209
f 213 199 200
f 200 214 213
f 215 214 200
f 200 202 215
f 202 201 216
f 216 215 202
f 201 205 203
f 203 216 201
f 196 217 218
f 218 195 196
f 218 212 195
f 218 219 212
f 218 220 219
f 217 196 211
f 217 211 221
f 221 222 217
f 203 219 223
f 219 203 204
f 204 212 219
f 218 217 224
f 224 225 218
f 225 226 220
f 220 218 225
f 226 223 219
f 219 220 226
f 221 227 228
f 228 222 221
f 222 228 224
f 224 217 222
f 228 227 209
f 209 213 228
f 213 224 228
f 213 214 224
f 214 225 224
f 214 215 225
f 215 216 225
f 216 226 225
f 216 203 226
f 203 223 226
f 221 211 210
f 210 209 221
f 209 227 221
f 230 229 231
f 231 232 230
f 234 233 235
f 235 236 234
f 238 237 233
f 233 234 238
f 229 237 238
f 238 231 229
f 240 239 234
f 234 236 240
f 241 230 232
f 232 242 241
f 243 229 230
f 230 244 243
f 235 233 243
f 243 244 235
f 231 239 240
f 240 232 231
f 236 235 241
f 241 242 236
f 234 239 231
f 231 233 234
f 231 229 233
f 229 243 233
f 235 233 237
f 237 241 235
f 237 229 241
f 229 230 241
f 232 240 236
f 236 235 232
f 235 230 232
f 235 244 230
f 238 234 236
f 236 242 238
f 242 231 238
f 242 232 231
f 239 238 234
f 238 239 231
f 237 229 243
f 233 237 243
f 244 230 241
f 235 244 241
f 238 237 243
f 243 239 238
f 243 240 239
f 243 244 240
f 244 241 240
f 241 242 240
f 232 240 242
f 240 236 242
f 246 245 247
f 247 248 246
f 250 249 251
f 251 252 250
f 254 253 249
f 249 250 254
f 245 253 254
f 254 247 245
f 256 255 250
f 250 252 256
f 257 246 248
f 248 258 257
f 259 245 246
f 246 260 259
f 251 249 259
f 259 260 251
f 247 255 256
f 256 248 247
f 252 251 257
f 257 258 252
f 250 255 247
f 247 249 250
f 247 245 249
f 245 259 249
f 251 249 253
f 253 257 251
f 253 245 257
f 245 246 257
f 248 256 252
f 252 251 248
f 251 246 248
f 251 260 246
f 254 250 252
f 252 258 254
f 258 247 254
f 258 248 247
f 255 254 250
f 254 255 247
f 253 245 259
f 249 253 259
f 260 246 257
f 251 260 257
f 254 253 259
f 259 255 254
f 259 256 255
f 259 260 256
f 260 257 256
f 257 258 256
f 248 256 258
f 256 252 258
