# City room prop — voxel footprint 2x2x3 (0.5 m cells)
o benchStone_z
v 1.208767 0.737184 2.960000
v 1.208767 0.737184 0.040000
v 1.208767 0.898170 2.960000
v 1.208767 0.898170 0.040000
v 1.539126 0.898170 0.040000
v 1.539126 0.737184 0.040000
v 0.811788 0.898170 2.960000
v 1.142145 0.898170 2.960000
v 0.811788 0.737184 2.960000
v 1.142145 0.737184 2.960000
v 1.142145 0.737184 0.040000
v 1.142145 0.898170 0.040000
v 0.707599 0.737184 0.144189
v 0.707599 0.898170 0.144189
v 0.707599 0.737184 2.855811
v 0.707599 0.898170 2.855811
v 1.539126 0.737184 2.960000
v 1.539126 0.898170 2.960000
v 1.643315 0.737184 2.855811
v 1.643315 0.898170 2.855811
v 1.643315 0.737184 0.144189
v 1.643315 0.898170 0.144189
v 0.811788 0.898170 0.040000
v 0.811788 0.737184 0.040000
v 0.652587 1.012750 0.144189
v 0.802510 1.071397 0.144189
v 0.614631 1.109779 0.040000
v 0.764555 1.168426 0.040000
v 0.652587 1.012750 2.855811
v 0.802510 1.071397 2.855811
v 0.644206 1.476083 0.040000
v 0.644206 1.476083 2.960000
v 0.764555 1.168426 2.960000
v 0.494283 1.417436 0.040000
v 0.494283 1.417436 2.960000
v 0.614631 1.109779 2.960000
v 0.499587 1.845783 0.040000
v 0.349664 1.787137 0.040000
v 0.619936 1.538128 0.040000
v 0.470012 1.479481 0.040000
v 0.470012 1.479481 2.960000
v 0.311708 1.884166 0.144189
v 0.311708 1.884166 2.855811
v 0.349664 1.787137 2.960000
v 0.461631 1.942813 0.144189
v 0.619936 1.538128 2.960000
v 0.461631 1.942813 2.855811
v 0.499587 1.845783 2.960000
v 0.176769 1.884166 2.400932
v 0.446646 0.737184 2.400932
v 0.311708 1.884166 2.400932
v 0.760382 0.737184 2.400932
v 0.650836 0.498095 2.400932
v 0.532688 0.040000 2.400932
v 0.289216 0.040000 2.400932
v 1.443417 0.498095 2.400932
v 1.643315 0.737184 2.400932
v 1.578441 0.040000 2.400932
v 1.823231 0.040000 2.400932
v 0.289216 0.040000 2.680466
v 0.446646 0.737184 2.680466
v 0.532688 0.040000 2.680466
v 0.650836 0.498095 2.680466
v 0.760382 0.737184 2.680466
v 1.443417 0.498095 2.680466
v 0.311708 1.884166 2.680466
v 0.176769 1.884166 2.680466
v 1.643315 0.737184 2.680466
v 1.578441 0.040000 2.680466
v 1.823231 0.040000 2.680466
v 0.176769 1.884166 0.317162
v 0.446646 0.737184 0.317162
v 0.311708 1.884166 0.317162
v 0.760382 0.737184 0.317162
v 0.650836 0.498095 0.317162
v 0.532688 0.040000 0.317162
v 0.289216 0.040000 0.317162
v 1.443417 0.498095 0.317162
v 1.643315 0.737184 0.317162
v 1.578441 0.040000 0.317162
v 1.823231 0.040000 0.317162
v 0.289216 0.040000 0.596696
v 0.446646 0.737184 0.596696
v 0.532688 0.040000 0.596696
v 0.650836 0.498095 0.596696
v 0.760382 0.737184 0.596696
v 1.443417 0.498095 0.596696
v 0.311708 1.884166 0.596696
v 0.176769 1.884166 0.596696
v 1.643315 0.737184 0.596696
v 1.578441 0.040000 0.596696
v 1.823231 0.040000 0.596696
f 3 2 1
f 2 3 4
f 5 2 4
f 2 5 6
f 9 8 7
f 8 9 10
f 12 10 11
f 10 12 8
f 15 14 13
f 14 15 16
f 17 3 1
f 3 17 18
f 15 7 16
f 7 15 9
f 20 17 19
f 17 20 18
f 22 19 21
f 19 22 20
f 12 24 23
f 24 12 11
f 5 21 6
f 21 5 22
f 23 13 14
f 13 23 24
f 14 12 23
f 12 14 8
f 8 14 16
f 8 16 7
f 21 2 6
f 2 21 1
f 1 21 19
f 1 19 17
f 10 24 11
f 24 10 13
f 13 10 15
f 15 10 9
f 3 5 4
f 5 3 22
f 22 3 20
f 20 3 18
f 27 26 25
f 26 27 28
f 26 29 25
f 29 26 30
f 32 28 31
f 28 32 26
f 26 32 30
f 30 32 33
f 25 34 27
f 34 25 35
f 35 25 29
f 35 29 36
f 36 32 35
f 32 36 33
f 30 36 29
f 36 30 33
f 31 27 34
f 27 31 28
f 32 34 35
f 34 32 31
f 39 38 37
f 38 39 40
f 41 38 40
f 38 41 42
f 42 41 43
f 43 41 44
f 45 39 37
f 39 45 46
f 46 45 47
f 46 47 48
f 37 42 45
f 42 37 38
f 43 48 47
f 48 43 44
f 44 46 48
f 46 44 41
f 39 41 40
f 41 39 46
f 43 45 42
f 45 43 47
f 51 50 49
f 50 51 52
f 50 52 53
f 50 53 54
f 54 55 50
f 53 52 56
f 56 52 57
f 56 57 58
f 58 57 59
f 62 61 60
f 63 61 62
f 64 61 63
f 64 63 65
f 66 61 64
f 61 66 67
f 64 65 68
f 68 65 69
f 68 69 70
f 53 62 54
f 62 53 63
f 62 55 54
f 55 62 60
f 61 55 60
f 55 61 50
f 67 50 61
f 50 67 49
f 67 51 49
f 51 67 66
f 51 64 52
f 64 51 66
f 64 57 52
f 57 64 68
f 57 70 59
f 70 57 68
f 70 58 59
f 58 70 69
f 65 58 69
f 58 65 56
f 65 53 56
f 53 65 63
f 73 72 71
f 72 73 74
f 72 74 75
f 72 75 76
f 76 77 72
f 75 74 78
f 78 74 79
f 78 79 80
f 80 79 81
f 84 83 82
f 85 83 84
f 86 83 85
f 86 85 87
f 88 83 86
f 83 88 89
f 86 87 90
f 90 87 91
f 90 91 92
f 75 84 76
f 84 75 85
f 84 77 76
f 77 84 82
f 83 77 82
f 77 83 72
f 89 72 83
f 72 89 71
f 89 73 71
f 73 89 88
f 73 86 74
f 86 73 88
f 86 79 74
f 79 86 90
f 79 92 81
f 92 79 90
f 92 80 81
f 80 92 91
f 87 80 91
f 80 87 78
f 87 75 78
f 75 87 85
f 3 2 1
f 2 3 4
f 5 2 4
f 2 5 6
f 9 8 7
f 8 9 10
f 12 10 11
f 10 12 8
f 15 14 13
f 14 15 16
f 17 3 1
f 3 17 18
f 15 7 16
f 7 15 9
f 20 17 19
f 17 20 18
f 22 19 21
f 19 22 20
f 12 24 23
f 24 12 11
f 5 21 6
f 21 5 22
f 23 13 14
f 13 23 24
f 14 12 23
f 12 14 8
f 8 14 16
f 8 16 7
f 21 2 6
f 2 21 1
f 1 21 19
f 1 19 17
f 10 24 11
f 24 10 13
f 13 10 15
f 15 10 9
f 3 5 4
f 5 3 22
f 22 3 20
f 20 3 18
f 27 26 25
f 26 27 28
f 26 29 25
f 29 26 30
f 32 28 31
f 28 32 26
f 26 32 30
f 30 32 33
f 25 34 27
f 34 25 35
f 35 25 29
f 35 29 36
f 36 32 35
f 32 36 33
f 30 36 29
f 36 30 33
f 31 27 34
f 27 31 28
f 32 34 35
f 34 32 31
f 39 38 37
f 38 39 40
f 41 38 40
f 38 41 42
f 42 41 43
f 43 41 44
f 45 39 37
f 39 45 46
f 46 45 47
f 46 47 48
f 37 42 45
f 42 37 38
f 43 48 47
f 48 43 44
f 44 46 48
f 46 44 41
f 39 41 40
f 41 39 46
f 43 45 42
f 45 43 47
f 51 50 49
f 50 51 52
f 50 52 53
f 50 53 54
f 54 55 50
f 53 52 56
f 56 52 57
f 56 57 58
f 58 57 59
f 62 61 60
f 63 61 62
f 64 61 63
f 64 63 65
f 66 61 64
f 61 66 67
f 64 65 68
f 68 65 69
f 68 69 70
f 53 62 54
f 62 53 63
f 62 55 54
f 55 62 60
f 61 55 60
f 55 61 50
f 67 50 61
f 50 67 49
f 67 51 49
f 51 67 66
f 51 64 52
f 64 51 66
f 64 57 52
f 57 64 68
f 57 70 59
f 70 57 68
f 70 58 59
f 58 70 69
f 65 58 69
f 58 65 56
f 65 53 56
f 53 65 63
f 73 72 71
f 72 73 74
f 72 74 75
f 72 75 76
f 76 77 72
f 75 74 78
f 78 74 79
f 78 79 80
f 80 79 81
f 84 83 82
f 85 83 84
f 86 83 85
f 86 85 87
f 88 83 86
f 83 88 89
f 86 87 90
f 90 87 91
f 90 91 92
f 75 84 76
f 84 75 85
f 84 77 76
f 77 84 82
f 83 77 82
f 77 83 72
f 89 72 83
f 72 89 71
f 89 73 71
f 73 89 88
f 73 86 74
f 86 73 88
f 86 79 74
f 79 86 90
f 79 92 81
f 92 79 90
f 92 80 81
f 80 92 91
f 87 80 91
f 80 87 78
f 87 75 78
f 75 87 85
