# City room prop — voxel footprint 2x1x1 (0.5 m cells)
o benchCushionLow
v 0.330909 0.332727 0.249091
v 0.163636 0.332727 0.249091
v 0.330909 0.625455 0.249091
v 0.163636 0.625455 0.249091
v 0.330909 0.040000 0.249091
v 0.163636 0.040000 0.249091
v 0.330909 0.249091 0.249091
v 0.163636 0.249091 0.249091
v 1.669091 0.249091 0.583636
v 0.330909 0.249091 0.583636
v 1.669091 0.332727 0.583636
v 0.330909 0.332727 0.583636
v 0.330909 0.249091 0.750909
v 0.163636 0.249091 0.750909
v 0.330909 0.249091 0.416364
v 1.669091 0.249091 0.416364
v 1.669091 0.249091 0.750909
v 1.836364 0.249091 0.249091
v 1.836364 0.249091 0.750909
v 1.669091 0.249091 0.249091
v 1.669091 0.040000 0.750909
v 1.836364 0.040000 0.750909
v 0.330909 0.040000 0.081818
v 0.163636 0.040000 0.081818
v 1.836364 0.040000 0.249091
v 1.669091 0.040000 0.249091
v 1.836364 0.332727 0.249091
v 1.669091 0.332727 0.249091
v 1.836364 0.625455 0.249091
v 1.669091 0.625455 0.249091
v 0.330909 0.625455 0.081818
v 0.330909 0.332727 0.416364
v 1.669091 0.332727 0.416364
v 0.163636 0.332727 0.750909
v 0.163636 0.625455 0.750909
v 0.163636 0.750909 0.081818
v 0.163636 0.750909 0.918182
v 0.163636 0.040000 0.918182
v 0.163636 0.040000 0.750909
v 0.330909 0.625455 0.750909
v 0.330909 0.625455 0.918182
v 1.669091 0.625455 0.081818
v 1.669091 0.625455 0.750909
v 1.669091 0.625455 0.918182
v 1.836364 0.625455 0.750909
v 1.836364 0.750909 0.081818
v 1.836364 0.040000 0.081818
v 1.669091 0.040000 0.081818
v 1.836364 0.040000 0.918182
v 1.669091 0.040000 0.918182
v 1.669091 0.332727 0.750909
v 1.836364 0.332727 0.750909
v 0.330909 0.040000 0.750909
v 0.330909 0.332727 0.750909
v 0.330909 0.040000 0.918182
v 1.836364 0.750909 0.918182
v 1.878182 0.876364 0.040000
v 1.878182 0.876364 0.960000
v 0.121818 0.876364 0.040000
v 0.121818 0.876364 0.960000
v 0.121818 0.750909 0.040000
v 1.878182 0.750909 0.040000
v 1.878182 0.750909 0.960000
v 0.121818 0.750909 0.960000
f 2 1 3
f 3 4 2
f 6 5 7
f 7 8 6
f 10 9 11
f 11 12 10
f 10 13 14
f 14 15 10
f 15 14 8
f 8 7 15
f 9 10 15
f 9 15 16
f 17 9 16
f 17 16 18
f 18 19 17
f 18 16 20
f 22 21 17
f 17 19 22
f 23 5 6
f 6 24 23
f 26 25 18
f 18 20 26
f 28 27 29
f 29 30 28
f 23 31 3
f 3 5 23
f 3 1 5
f 1 7 5
f 1 32 7
f 32 15 7
f 16 15 32
f 32 33 16
f 2 4 6
f 6 8 2
f 8 34 2
f 8 14 34
f 14 35 34
f 6 4 36
f 36 24 6
f 4 37 36
f 4 35 37
f 35 14 37
f 14 38 37
f 14 39 38
f 3 40 35
f 35 4 3
f 40 3 31
f 41 40 31
f 41 31 42
f 41 42 30
f 41 30 43
f 43 44 41
f 43 30 29
f 29 45 43
f 23 24 36
f 36 31 23
f 36 42 31
f 42 36 46
f 42 46 47
f 47 48 42
f 22 49 50
f 50 21 22
f 47 25 26
f 26 48 47
f 28 26 20
f 20 33 28
f 20 16 33
f 26 28 30
f 26 30 42
f 42 48 26
f 52 51 43
f 43 45 52
f 17 21 50
f 50 43 17
f 50 44 43
f 17 43 51
f 9 17 51
f 51 11 9
f 53 39 14
f 14 13 53
f 54 34 35
f 35 40 54
f 54 40 41
f 41 13 54
f 13 41 55
f 55 53 13
f 54 13 10
f 10 12 54
f 53 55 38
f 38 39 53
f 52 27 28
f 28 33 52
f 51 52 33
f 33 11 51
f 11 33 32
f 32 12 11
f 2 12 32
f 32 1 2
f 12 2 34
f 34 54 12
f 50 49 56
f 56 44 50
f 56 41 44
f 41 56 37
f 41 37 38
f 38 55 41
f 29 47 46
f 46 56 29
f 56 45 29
f 56 19 45
f 56 22 19
f 56 49 22
f 25 47 29
f 29 27 25
f 27 18 25
f 27 52 18
f 52 19 18
f 52 45 19
f 58 57 59
f 59 60 58
f 62 61 59
f 59 57 62
f 62 57 58
f 58 63 62
f 56 46 63
f 63 64 56
f 64 37 56
f 64 36 37
f 62 63 46
f 46 61 62
f 46 36 61
f 36 64 61
f 59 61 64
f 64 60 59
f 64 63 58
f 58 60 64
f 56 46 36
f 36 37 56
