# City room prop — voxel footprint 2x2x1 (0.5 m cells)
o bench
v 0.346383 0.325957 0.254894
v 0.182979 0.325957 0.254894
v 0.346383 0.816170 0.254894
v 0.182979 0.816170 0.254894
v 0.346383 0.040000 0.254894
v 0.182979 0.040000 0.254894
v 0.346383 0.244255 0.254894
v 0.182979 0.244255 0.254894
v 1.653617 0.244255 0.581702
v 0.346383 0.244255 0.581702
v 1.653617 0.325957 0.581702
v 0.346383 0.325957 0.581702
v 0.346383 0.244255 0.745106
v 0.182979 0.244255 0.745106
v 0.346383 0.244255 0.418298
v 1.653617 0.244255 0.418298
v 1.653617 0.244255 0.745106
v 1.817021 0.244255 0.254894
v 1.817021 0.244255 0.745106
v 1.653617 0.244255 0.254894
v 1.653617 0.040000 0.745106
v 1.817021 0.040000 0.745106
v 0.346383 0.040000 0.091489
v 0.182979 0.040000 0.091489
v 1.817021 0.040000 0.254894
v 1.653617 0.040000 0.254894
v 1.653617 1.796596 0.745106
v 1.653617 1.245106 0.785957
v 1.653617 1.020426 0.745106
v 1.653617 1.020426 0.908511
v 1.653617 1.245106 0.867660
v 1.653617 1.408511 0.867660
v 1.653617 1.408511 0.785957
v 1.653617 1.796596 0.908511
v 1.817021 0.325957 0.254894
v 1.653617 0.325957 0.254894
v 1.817021 0.816170 0.254894
v 1.653617 0.816170 0.254894
v 0.346383 0.816170 0.091489
v 0.346383 0.325957 0.418298
v 1.653617 0.325957 0.418298
v 1.817021 1.020426 0.091489
v 1.817021 1.020426 0.745106
v 0.182979 1.020426 0.091489
v 0.346383 1.020426 0.745106
v 0.182979 1.020426 0.745106
v 0.346383 1.020426 0.908511
v 0.346383 1.245106 0.867660
v 0.346383 1.408511 0.867660
v 0.182979 0.040000 0.745106
v 0.182979 0.040000 0.908511
v 0.182979 1.960000 0.908511
v 0.182979 1.960000 0.745106
v 0.182979 0.816170 0.745106
v 0.182979 0.325957 0.745106
v 1.817021 1.960000 0.745106
v 1.817021 1.960000 0.908511
v 1.817021 0.816170 0.745106
v 1.817021 0.040000 0.908511
v 1.817021 0.325957 0.745106
v 1.817021 0.040000 0.091489
v 0.346383 0.816170 0.745106
v 0.346383 0.816170 0.908511
v 1.653617 0.816170 0.091489
v 1.653617 0.816170 0.745106
v 1.653617 0.816170 0.908511
v 0.346383 1.408511 0.785957
v 1.653617 0.040000 0.908511
v 0.346383 1.796596 0.908511
v 0.346383 0.040000 0.908511
v 1.653617 0.040000 0.091489
v 0.346383 1.245106 0.785957
v 0.346383 1.796596 0.745106
v 1.653617 0.325957 0.745106
v 0.346383 0.040000 0.745106
v 0.346383 0.325957 0.745106
f 2 1 3
f 3 4 2
f 6 5 7
f 7 8 6
f 10 9 11
f 11 12 10
f 10 13 14
f 14 15 10
f 15 14 8
f 8 7 15
f 9 10 15
f 9 15 16
f 17 9 16
f 17 16 18
f 18 19 17
f 18 16 20
f 22 21 17
f 17 19 22
f 23 5 6
f 6 24 23
f 26 25 18
f 18 20 26
f 28 27 29
f 29 30 28
f 30 31 28
f 30 32 31
f 27 28 33
f 33 34 27
f 33 32 34
f 32 30 34
f 36 35 37
f 37 38 36
f 23 39 3
f 3 5 23
f 3 1 5
f 1 7 5
f 1 40 7
f 40 15 7
f 16 15 40
f 40 41 16
f 43 42 44
f 44 29 43
f 44 30 29
f 44 45 30
f 44 46 45
f 30 45 47
f 48 31 32
f 32 49 48
f 14 50 51
f 14 51 52
f 14 52 53
f 14 53 46
f 14 46 54
f 14 54 55
f 8 14 55
f 8 55 2
f 6 8 2
f 2 4 6
f 4 54 46
f 6 4 44
f 4 46 44
f 44 24 6
f 43 56 57
f 57 58 43
f 57 19 58
f 57 22 19
f 57 59 22
f 60 58 19
f 60 19 18
f 35 60 18
f 35 18 25
f 37 35 25
f 43 58 37
f 25 61 37
f 37 61 42
f 42 43 37
f 3 62 54
f 54 4 3
f 62 3 39
f 63 62 39
f 63 39 64
f 63 64 38
f 63 38 65
f 65 66 63
f 65 38 37
f 37 58 65
f 32 33 67
f 67 49 32
f 68 59 57
f 57 66 68
f 57 30 66
f 30 63 66
f 57 34 30
f 57 69 34
f 63 30 47
f 63 47 52
f 47 69 52
f 69 57 52
f 63 52 51
f 51 70 63
f 23 24 44
f 44 39 23
f 44 64 39
f 64 44 42
f 64 42 61
f 61 71 64
f 33 28 72
f 72 67 33
f 28 31 48
f 48 72 28
f 57 56 53
f 53 52 57
f 22 59 68
f 68 21 22
f 45 46 53
f 53 73 45
f 53 27 73
f 53 56 27
f 27 56 43
f 43 29 27
f 61 25 26
f 26 71 61
f 36 26 20
f 20 41 36
f 20 16 41
f 26 36 38
f 26 38 64
f 64 71 26
f 60 74 65
f 65 58 60
f 17 21 68
f 68 65 17
f 68 66 65
f 17 65 74
f 9 17 74
f 74 11 9
f 27 34 69
f 69 73 27
f 75 50 14
f 14 13 75
f 67 45 73
f 73 69 67
f 69 49 67
f 69 48 49
f 45 67 72
f 72 47 45
f 72 48 47
f 48 69 47
f 76 55 54
f 54 62 76
f 76 62 63
f 63 13 76
f 13 63 70
f 70 75 13
f 76 13 10
f 10 12 76
f 75 70 51
f 51 50 75
f 60 35 36
f 36 41 60
f 74 60 41
f 41 11 74
f 11 41 40
f 40 12 11
f 2 12 40
f 40 1 2
f 12 2 55
f 55 76 12
