# City room prop — unit cell 0..1
o benchCushion
v 0.186957 0.186957 0.382609
v 0.108696 0.186957 0.382609
v 0.186957 0.421739 0.382609
v 0.108696 0.421739 0.382609
v 0.186957 0.050000 0.382609
v 0.108696 0.050000 0.382609
v 0.186957 0.147826 0.382609
v 0.108696 0.147826 0.382609
v 0.813043 0.147826 0.539130
v 0.186957 0.147826 0.539130
v 0.813043 0.186957 0.539130
v 0.186957 0.186957 0.539130
v 0.186957 0.147826 0.617391
v 0.108696 0.147826 0.617391
v 0.186957 0.147826 0.460870
v 0.813043 0.147826 0.460870
v 0.813043 0.147826 0.617391
v 0.891304 0.147826 0.382609
v 0.891304 0.147826 0.617391
v 0.813043 0.147826 0.382609
v 0.813043 0.050000 0.617391
v 0.891304 0.050000 0.617391
v 0.186957 0.050000 0.304348
v 0.108696 0.050000 0.304348
v 0.891304 0.050000 0.382609
v 0.813043 0.050000 0.382609
v 0.813043 0.813043 0.617391
v 0.813043 0.627174 0.636957
v 0.813043 0.519565 0.617391
v 0.813043 0.519565 0.695652
v 0.813043 0.627174 0.676087
v 0.813043 0.705435 0.676087
v 0.813043 0.705435 0.636957
v 0.813043 0.813043 0.695652
v 0.891304 0.186957 0.382609
v 0.813043 0.186957 0.382609
v 0.891304 0.421739 0.382609
v 0.813043 0.421739 0.382609
v 0.186957 0.421739 0.304348
v 0.186957 0.186957 0.460870
v 0.813043 0.186957 0.460870
v 0.186957 0.627174 0.676087
v 0.186957 0.705435 0.676087
v 0.108696 0.050000 0.617391
v 0.108696 0.050000 0.695652
v 0.108696 0.950000 0.695652
v 0.108696 0.950000 0.617391
v 0.108696 0.519565 0.617391
v 0.108696 0.480435 0.617391
v 0.108696 0.421739 0.617391
v 0.108696 0.186957 0.617391
v 0.108696 0.480435 0.304348
v 0.891304 0.950000 0.617391
v 0.891304 0.519565 0.617391
v 0.891304 0.950000 0.695652
v 0.891304 0.480435 0.617391
v 0.891304 0.421739 0.617391
v 0.891304 0.050000 0.695652
v 0.891304 0.186957 0.617391
v 0.891304 0.050000 0.304348
v 0.891304 0.480435 0.304348
v 0.186957 0.421739 0.617391
v 0.186957 0.421739 0.695652
v 0.813043 0.421739 0.304348
v 0.813043 0.421739 0.617391
v 0.813043 0.421739 0.695652
v 0.186957 0.705435 0.636957
v 0.813043 0.050000 0.695652
v 0.813043 0.480435 0.695652
v 0.813043 0.891304 0.695652
v 0.186957 0.813043 0.695652
v 0.813043 0.950000 0.695652
v 0.186957 0.480435 0.695652
v 0.186957 0.050000 0.695652
v 0.186957 0.519565 0.695652
v 0.186957 0.891304 0.695652
v 0.186957 0.950000 0.695652
v 0.813043 0.050000 0.304348
v 0.186957 0.627174 0.636957
v 0.813043 0.186957 0.617391
v 0.186957 0.050000 0.617391
v 0.186957 0.519565 0.617391
v 0.186957 0.813043 0.617391
v 0.186957 0.186957 0.617391
v 0.186957 0.891304 0.617391
v 0.186957 0.950000 0.617391
v 0.813043 0.891304 0.617391
v 0.813043 0.950000 0.617391
v 0.891304 0.519565 0.304348
v 0.108696 0.519565 0.304348
f 2 1 3
f 3 4 2
f 6 5 7
f 7 8 6
f 10 9 11
f 11 12 10
f 10 13 14
f 14 15 10
f 15 14 8
f 8 7 15
f 9 10 15
f 9 15 16
f 17 9 16
f 17 16 18
f 18 19 17
f 18 16 20
f 22 21 17
f 17 19 22
f 23 5 6
f 6 24 23
f 26 25 18
f 18 20 26
f 28 27 29
f 29 30 28
f 30 31 28
f 30 32 31
f 27 28 33
f 33 34 27
f 33 32 34
f 32 30 34
f 36 35 37
f 37 38 36
f 23 39 3
f 3 5 23
f 3 1 5
f 1 7 5
f 1 40 7
f 40 15 7
f 16 15 40
f 40 41 16
f 42 31 32
f 32 43 42
f 14 44 45
f 14 45 46
f 14 46 47
f 14 47 48
f 14 48 49
f 14 49 50
f 14 50 51
f 8 14 51
f 8 51 2
f 6 8 2
f 2 4 6
f 4 50 49
f 6 4 52
f 4 49 52
f 52 24 6
f 54 53 55
f 55 56 54
f 55 57 56
f 55 19 57
f 55 22 19
f 55 58 22
f 59 57 19
f 59 19 18
f 35 59 18
f 35 18 25
f 37 35 25
f 56 57 37
f 25 60 37
f 37 60 61
f 61 56 37
f 3 62 50
f 50 4 3
f 62 3 39
f 63 62 39
f 63 39 64
f 63 64 38
f 63 38 65
f 65 66 63
f 65 38 37
f 37 57 65
f 32 33 67
f 67 43 32
f 68 58 55
f 55 66 68
f 55 69 66
f 69 63 66
f 55 30 69
f 55 34 30
f 55 70 34
f 70 71 34
f 55 72 70
f 63 69 73
f 63 73 46
f 63 46 45
f 45 74 63
f 73 75 46
f 75 71 46
f 71 76 46
f 71 70 76
f 76 77 46
f 23 24 52
f 52 39 23
f 52 64 39
f 64 52 61
f 64 61 60
f 60 78 64
f 33 28 79
f 79 67 33
f 28 31 42
f 42 79 28
f 22 58 68
f 68 21 22
f 60 25 26
f 26 78 60
f 36 26 20
f 20 41 36
f 20 16 41
f 26 36 38
f 26 38 64
f 64 78 26
f 59 80 65
f 65 57 59
f 17 21 68
f 68 65 17
f 68 66 65
f 17 65 80
f 9 17 80
f 80 11 9
f 81 44 14
f 14 13 81
f 67 82 83
f 83 71 67
f 71 43 67
f 71 42 43
f 82 67 79
f 79 75 82
f 79 42 75
f 42 71 75
f 84 51 50
f 50 62 84
f 84 62 63
f 63 13 84
f 13 63 74
f 74 81 13
f 84 13 10
f 10 12 84
f 81 74 45
f 45 44 81
f 59 35 36
f 36 41 59
f 80 59 41
f 41 11 80
f 11 41 40
f 40 12 11
f 2 12 40
f 40 1 2
f 12 2 51
f 51 84 12
f 82 48 47
f 47 83 82
f 47 85 83
f 85 27 83
f 47 86 85
f 27 85 87
f 27 87 53
f 27 53 54
f 54 29 27
f 87 88 53
f 55 53 88
f 88 72 55
f 77 86 47
f 47 46 77
f 70 87 85
f 85 76 70
f 85 86 77
f 77 76 85
f 88 87 70
f 70 72 88
f 27 34 71
f 71 83 27
f 54 89 90
f 90 29 54
f 90 30 29
f 90 82 30
f 90 48 82
f 30 82 75
f 73 69 30
f 30 75 73
f 61 89 54
f 54 56 61
f 61 52 90
f 90 89 61
f 90 52 49
f 49 48 90
