# City room prop — voxel footprint 1x1x1 (0.5 m cells)
o books
v 0.716069 0.482137 0.352553
v 0.716069 0.482137 0.701064
v 0.612037 0.456129 0.352553
v 0.612037 0.456129 0.701064
v 0.608835 0.040000 0.701064
v 0.608835 0.040000 0.325745
v 0.179899 0.040000 0.701064
v 0.501601 0.040000 0.379362
v 0.394367 0.040000 0.379362
v 0.394367 0.040000 0.325745
v 0.287133 0.040000 0.325745
v 0.287133 0.040000 0.298936
v 0.179899 0.040000 0.298936
v 0.501601 0.040000 0.325745
v 0.716069 0.040000 0.701064
v 0.820101 0.066008 0.701064
v 0.287133 0.442128 0.298936
v 0.287133 0.442128 0.325745
v 0.820101 0.066008 0.352553
v 0.716069 0.040000 0.352553
v 0.179899 0.442128 0.298936
v 0.179899 0.442128 0.701064
v 0.287133 0.442128 0.701064
v 0.608835 0.468936 0.701064
v 0.501601 0.415319 0.701064
v 0.501601 0.468936 0.701064
v 0.394367 0.415319 0.701064
v 0.394367 0.468936 0.701064
v 0.287133 0.468936 0.701064
v 0.394367 0.415319 0.379362
v 0.501601 0.415319 0.379362
v 0.394367 0.468936 0.325745
v 0.287133 0.468936 0.325745
v 0.501601 0.468936 0.325745
v 0.608835 0.468936 0.325745
f 2 1 3
f 3 4 2
f 6 5 7
f 7 8 6
f 7 9 8
f 7 10 9
f 7 11 10
f 7 12 11
f 7 13 12
f 6 8 14
f 4 15 16
f 16 2 4
f 12 17 18
f 18 11 12
f 19 16 15
f 15 20 19
f 19 20 3
f 3 1 19
f 21 13 7
f 7 22 21
f 18 17 21
f 21 23 18
f 21 22 23
f 19 1 2
f 2 16 19
f 7 5 24
f 24 25 7
f 24 26 25
f 7 25 27
f 27 22 7
f 27 23 22
f 23 27 28
f 28 29 23
f 12 13 21
f 21 17 12
f 3 20 15
f 15 4 3
f 8 9 30
f 30 31 8
f 25 31 30
f 30 27 25
f 30 10 32
f 32 28 30
f 28 27 30
f 10 30 9
f 10 11 18
f 18 32 10
f 18 33 32
f 28 32 33
f 33 29 28
f 33 18 23
f 23 29 33
f 34 14 8
f 8 31 34
f 31 26 34
f 31 25 26
f 6 35 24
f 24 5 6
f 6 14 34
f 34 35 6
f 24 35 34
f 34 26 24
