# City room prop — unit cell 0..1
o cabinetBed
v 0.950000 0.771353 0.863722
v 0.916165 0.771353 0.863722
v 0.950000 0.839023 0.863722
v 0.083835 0.771353 0.863722
v 0.050000 0.771353 0.863722
v 0.050000 0.839023 0.863722
v 0.083835 0.050000 0.863722
v 0.916165 0.050000 0.863722
v 0.916165 0.050000 0.170113
v 0.083835 0.050000 0.170113
v 0.083835 0.771353 0.170113
v 0.832932 0.133233 0.725000
v 0.832932 0.688120 0.725000
v 0.167068 0.133233 0.725000
v 0.167068 0.688120 0.725000
v 0.832932 0.133233 0.170113
v 0.167068 0.133233 0.170113
v 0.167068 0.688120 0.170113
v 0.916165 0.771353 0.170113
v 0.832932 0.688120 0.170113
v 0.950000 0.839023 0.136278
v 0.050000 0.839023 0.136278
v 0.950000 0.771353 0.136278
v 0.050000 0.771353 0.136278
v 0.832932 0.688120 0.237782
v 0.832932 0.688120 0.293271
v 0.167068 0.688120 0.237782
v 0.167068 0.688120 0.293271
v 0.167068 0.133233 0.237782
v 0.167068 0.133233 0.293271
v 0.832932 0.133233 0.237782
v 0.832932 0.133233 0.293271
v 0.236381 0.289452 0.237782
v 0.236381 0.511407 0.237782
v 0.305742 0.511407 0.237782
v 0.305742 0.289452 0.237782
v 0.298806 0.489212 0.196165
v 0.243317 0.489212 0.196165
v 0.298806 0.311647 0.196165
v 0.243317 0.311647 0.196165
f 2 1 3
f 3 4 2
f 3 5 4
f 3 6 5
f 2 4 7
f 7 8 2
f 9 8 7
f 7 10 9
f 11 10 7
f 7 4 11
f 13 12 14
f 14 15 13
f 17 16 10
f 10 11 17
f 11 18 17
f 11 19 18
f 16 19 9
f 9 10 16
f 16 20 19
f 20 18 19
f 9 19 2
f 2 8 9
f 17 18 15
f 15 14 17
f 20 16 12
f 12 13 20
f 14 12 16
f 16 17 14
f 20 13 15
f 15 18 20
f 6 3 21
f 21 22 6
f 21 23 24
f 24 22 21
f 23 21 3
f 3 1 23
f 11 4 5
f 11 5 24
f 19 11 24
f 19 24 23
f 2 19 23
f 23 1 2
f 22 24 5
f 5 6 22
f 26 25 27
f 27 28 26
f 27 29 30
f 30 28 27
f 29 31 32
f 32 30 29
f 33 31 29
f 29 27 33
f 27 34 33
f 27 35 34
f 31 33 36
f 36 25 31
f 36 35 25
f 35 27 25
f 31 25 26
f 26 32 31
f 28 30 32
f 32 26 28
f 34 35 37
f 37 38 34
f 39 37 35
f 35 36 39
f 34 38 40
f 40 33 34
f 39 40 38
f 38 37 39
f 39 36 33
f 33 40 39
