# City room prop — voxel footprint 2x2x1 (0.5 m cells)
o cabinetBedDrawer
v 1.520755 0.040000 0.960000
v 1.393741 0.040000 0.960000
v 1.520755 1.069655 0.960000
v 1.393741 0.167013 0.960000
v 0.606259 0.167013 0.960000
v 0.479245 1.069655 0.960000
v 1.563092 1.154330 0.960000
v 1.563092 1.069655 0.960000
v 0.436908 1.069655 0.960000
v 0.436908 1.154330 0.960000
v 0.479245 0.040000 0.960000
v 0.606259 0.040000 0.960000
v 0.479245 0.040000 0.832987
v 0.479245 0.167013 0.832987
v 0.479245 0.167013 0.219089
v 0.479245 1.069655 0.092075
v 0.479245 0.040000 0.219089
v 0.479245 0.040000 0.092075
v 0.606259 0.040000 0.092075
v 0.583396 0.271164 0.092075
v 0.606259 0.167013 0.092075
v 1.416604 0.271164 0.092075
v 0.583396 0.663520 0.092075
v 0.583396 0.752161 0.092075
v 1.416604 0.663520 0.092075
v 0.583396 0.965504 0.092075
v 1.416604 0.965504 0.092075
v 1.520755 1.069655 0.092075
v 1.520755 0.040000 0.092075
v 1.393741 0.167013 0.092075
v 1.393741 0.040000 0.092075
v 1.416604 0.752161 0.092075
v 1.520755 0.167013 0.219089
v 1.520755 0.167013 0.832987
v 1.520755 0.040000 0.832987
v 1.520755 0.040000 0.219089
v 0.583396 0.271164 0.786415
v 0.583396 0.663520 0.786415
v 1.416604 0.965504 0.786415
v 1.416604 0.752161 0.786415
v 1.416604 0.753815 0.786415
v 1.416604 0.271164 0.786415
v 0.583396 0.965504 0.786415
v 1.563092 1.154330 0.049738
v 0.436908 1.154330 0.049738
v 1.563092 1.069655 0.049738
v 0.436908 1.069655 0.049738
v 0.606259 0.167013 0.832987
v 0.606259 0.167013 0.219089
v 1.393741 0.167013 0.219089
v 1.393741 0.167013 0.832987
v 1.393741 0.040000 0.219089
v 0.606259 0.040000 0.219089
v 0.606259 0.040000 0.832987
v 1.393741 0.040000 0.832987
v 1.416604 0.663520 0.786415
v 0.583396 0.752161 0.786415
v 0.583396 0.753815 0.786415
v 1.416604 0.663520 0.144151
v 1.416604 0.663520 0.213585
v 0.583396 0.663520 0.144151
v 0.583396 0.663520 0.213585
v 0.583396 0.271164 0.144151
v 0.583396 0.271164 0.213585
v 1.416604 0.271164 0.144151
v 1.416604 0.271164 0.213585
v 0.670189 0.374888 0.144151
v 0.670189 0.567948 0.144151
v 0.756981 0.567948 0.144151
v 0.756981 0.374888 0.144151
v 0.678868 0.402661 0.092075
v 0.748302 0.402661 0.092075
v 0.678868 0.540174 0.092075
v 0.748302 0.540174 0.092075
v 1.416604 0.753815 0.786415
v 0.583396 0.753815 0.786415
v 1.416604 0.965504 0.786415
v 0.583396 0.965504 0.786415
v 1.416604 0.753815 0.092075
v 0.903470 0.816263 0.092075
v 0.583396 0.753815 0.092075
v 0.583396 0.965504 0.092075
v 0.903470 0.903056 0.092075
v 1.096530 0.903056 0.092075
v 1.096530 0.816263 0.092075
v 1.416604 0.965504 0.092075
v 1.330535 0.965504 0.700347
v 1.330535 0.965504 0.178144
v 0.669465 0.965504 0.178144
v 0.669465 0.965504 0.700347
v 1.330535 0.796153 0.700347
v 0.669465 0.796153 0.700347
v 1.330535 0.796153 0.178144
v 0.669465 0.796153 0.178144
v 1.068757 0.824942 0.040000
v 1.068757 0.894376 0.040000
v 0.931243 0.824942 0.040000
v 0.931243 0.894376 0.040000
f 2 1 3
f 3 4 2
f 3 5 4
f 5 3 6
f 7 6 3
f 3 8 7
f 7 9 6
f 7 10 9
f 5 6 11
f 11 12 5
f 14 13 11
f 14 11 6
f 15 14 6
f 15 6 16
f 17 15 16
f 16 18 17
f 19 18 16
f 16 20 19
f 20 21 19
f 20 22 21
f 16 23 20
f 16 24 23
f 24 25 23
f 16 26 24
f 16 27 26
f 16 28 27
f 22 25 28
f 22 28 29
f 30 22 29
f 30 21 22
f 29 31 30
f 25 32 28
f 25 24 32
f 32 27 28
f 29 28 3
f 3 33 29
f 3 34 33
f 3 35 34
f 3 1 35
f 29 33 36
f 37 20 23
f 23 38 37
f 39 27 32
f 32 40 39
f 40 41 39
f 37 42 22
f 22 20 37
f 27 39 43
f 43 26 27
f 10 7 44
f 44 45 10
f 44 46 47
f 47 45 44
f 46 44 7
f 7 8 46
f 16 6 9
f 16 9 47
f 28 16 47
f 28 47 46
f 3 28 46
f 46 8 3
f 45 47 9
f 9 10 45
f 49 48 14
f 14 15 49
f 48 49 21
f 48 21 30
f 5 48 30
f 5 30 50
f 5 50 51
f 51 4 5
f 51 50 33
f 33 34 51
f 29 36 52
f 52 31 29
f 52 36 33
f 33 50 52
f 30 31 52
f 52 50 30
f 19 53 17
f 17 18 19
f 17 53 49
f 49 15 17
f 19 21 49
f 49 53 19
f 54 12 11
f 11 13 54
f 54 13 14
f 14 48 54
f 54 48 5
f 5 12 54
f 35 1 2
f 2 55 35
f 51 55 2
f 2 4 51
f 35 55 51
f 51 34 35
f 56 42 37
f 37 38 56
f 25 56 38
f 38 23 25
f 57 40 32
f 32 24 57
f 25 22 42
f 42 56 25
f 24 26 43
f 43 58 24
f 24 58 57
f 40 57 58
f 58 41 40
f 41 58 43
f 43 39 41
f 60 59 61
f 61 62 60
f 61 63 64
f 64 62 61
f 63 65 66
f 66 64 63
f 67 65 63
f 63 61 67
f 61 68 67
f 61 69 68
f 65 67 70
f 70 59 65
f 70 69 59
f 69 61 59
f 65 59 60
f 60 66 65
f 72 71 73
f 73 74 72
f 72 74 69
f 69 70 72
f 72 70 67
f 67 71 72
f 68 69 74
f 74 73 68
f 68 73 71
f 71 67 68
f 76 75 77
f 77 78 76
f 80 79 81
f 81 82 80
f 82 83 80
f 82 84 83
f 79 80 85
f 85 86 79
f 85 84 86
f 84 82 86
f 79 86 77
f 77 75 79
f 79 75 76
f 76 81 79
f 82 81 76
f 76 78 82
f 88 87 86
f 86 82 88
f 82 89 88
f 82 78 89
f 87 78 77
f 77 86 87
f 87 90 78
f 90 89 78
f 92 91 93
f 93 94 92
f 94 89 90
f 90 92 94
f 91 92 90
f 90 87 91
f 88 93 91
f 91 87 88
f 94 93 88
f 88 89 94
f 85 95 96
f 96 84 85
f 98 97 80
f 80 83 98
f 83 84 96
f 96 98 83
f 95 85 80
f 80 97 95
f 95 97 98
f 98 96 95
