# City room prop — voxel footprint 4x2x2 (0.5 m cells)
o cabinetTelevisionDoors
v 3.702128 0.040000 0.659574
v 3.531915 0.040000 0.659574
v 3.702128 0.210213 0.659574
v 3.531915 0.210213 0.659574
v 3.531915 0.040000 0.489362
v 3.531915 0.210213 0.489362
v 3.702128 0.040000 0.489362
v 3.702128 0.040000 1.553191
v 3.702128 0.040000 1.382979
v 3.531915 0.040000 1.553191
v 3.531915 0.040000 1.382979
v 3.531915 0.210213 1.382979
v 3.531915 0.210213 1.553191
v 3.531915 1.188936 1.382979
v 3.531915 1.188936 0.489362
v 0.468085 1.188936 1.382979
v 2.042553 1.188936 0.702128
v 1.957447 1.188936 0.702128
v 1.957447 1.188936 0.617021
v 2.042553 1.188936 0.617021
v 0.468085 1.188936 0.489362
v 3.531915 0.380426 1.382979
v 2.042553 0.380426 0.617021
v 3.531915 0.380426 0.489362
v 0.468085 0.380426 0.489362
v 1.957447 0.380426 0.617021
v 1.957447 0.380426 0.702128
v 2.042553 0.380426 0.702128
v 0.468085 0.380426 1.382979
v 3.702128 0.210213 1.382979
v 0.468085 0.040000 0.659574
v 0.468085 0.040000 0.489362
v 0.297872 0.040000 0.659574
v 0.297872 0.040000 0.489362
v 0.468085 0.210213 0.659574
v 0.297872 0.210213 0.659574
v 0.468085 0.210213 1.382979
v 0.468085 0.040000 1.382979
v 0.468085 0.210213 1.553191
v 0.468085 0.040000 1.553191
v 0.297872 0.040000 1.382979
v 0.297872 0.210213 1.382979
v 0.297872 0.040000 1.553191
v 3.702128 1.359149 0.489362
v 3.702128 1.359149 1.553191
v 0.297872 1.359149 0.489362
v 0.297872 1.359149 1.553191
v 0.468085 0.210213 0.489362
v 3.531915 0.742128 1.382979
v 3.531915 0.742128 0.617021
v 0.468085 0.742128 1.382979
v 2.042553 0.742128 0.702128
v 1.957447 0.742128 0.702128
v 1.957447 0.742128 0.617021
v 0.468085 0.742128 0.617021
v 2.042553 0.742128 0.617021
v 1.957447 0.827234 0.617021
v 1.957447 0.827234 0.702128
v 0.468085 0.827234 0.617021
v 0.468085 0.827234 1.382979
v 2.042553 0.827234 0.702128
v 3.531915 0.827234 1.382979
v 2.042553 0.827234 0.617021
v 3.531915 0.827234 0.617021
v 3.531915 0.380426 0.617021
v 2.000000 0.380426 0.617021
v 3.531915 1.188936 0.617021
v 2.000000 1.188936 0.617021
v 3.531915 0.380426 0.531915
v 2.064170 0.627199 0.531915
v 2.000000 0.380426 0.531915
v 2.000000 1.188936 0.531915
v 2.064170 0.882518 0.531915
v 2.149277 0.882518 0.531915
v 2.149277 0.627199 0.531915
v 3.531915 1.188936 0.531915
v 2.064170 0.627199 0.446809
v 2.149277 0.627199 0.446809
v 2.064170 0.695770 0.446809
v 2.149277 0.695770 0.446809
v 1.935830 0.695770 0.446809
v 1.935830 0.627199 0.446809
v 1.935830 0.882518 0.531915
v 1.935830 0.627199 0.531915
v 1.850723 0.627199 0.446809
v 1.850723 0.695770 0.446809
v 1.850723 0.627199 0.531915
v 1.850723 0.882518 0.531915
v 2.000000 1.188936 0.531915
v 2.000000 1.188936 0.617021
v 0.468085 1.188936 0.531915
v 0.468085 1.188936 0.617021
v 0.468085 0.380426 0.531915
v 0.468085 0.380426 0.617021
v 2.000000 0.380426 0.617021
v 2.000000 0.380426 0.531915
f 2 1 3
f 3 4 2
f 6 5 2
f 2 4 6
f 7 1 2
f 2 5 7
f 9 8 10
f 10 11 9
f 13 12 11
f 11 10 13
f 15 14 16
f 16 17 15
f 16 18 17
f 16 19 18
f 15 17 20
f 20 21 15
f 20 19 21
f 19 16 21
f 23 22 24
f 24 25 23
f 25 26 23
f 25 27 26
f 22 23 28
f 28 29 22
f 28 27 29
f 27 25 29
f 9 11 12
f 12 30 9
f 32 31 33
f 33 34 32
f 33 31 35
f 35 36 33
f 38 37 39
f 39 40 38
f 38 41 42
f 42 37 38
f 38 40 43
f 43 41 38
f 45 44 46
f 46 47 45
f 7 44 45
f 45 3 7
f 45 30 3
f 45 9 30
f 45 8 9
f 7 3 1
f 10 8 45
f 45 13 10
f 45 39 13
f 39 45 47
f 39 47 43
f 43 40 39
f 36 34 33
f 34 36 47
f 47 46 34
f 36 42 47
f 42 41 47
f 41 43 47
f 32 34 46
f 46 48 32
f 46 25 48
f 25 6 48
f 46 21 25
f 46 15 21
f 6 25 24
f 6 24 44
f 24 15 44
f 15 46 44
f 6 44 7
f 7 5 6
f 50 49 51
f 51 52 50
f 51 53 52
f 51 54 53
f 51 55 54
f 50 52 56
f 58 57 59
f 58 59 60
f 61 58 60
f 61 60 62
f 63 61 62
f 62 64 63
f 62 60 16
f 16 14 62
f 22 29 51
f 51 49 22
f 35 37 42
f 42 36 35
f 37 35 48
f 39 37 48
f 39 48 6
f 39 6 4
f 39 4 12
f 12 13 39
f 12 4 3
f 3 30 12
f 32 48 35
f 35 31 32
f 57 63 20
f 20 19 57
f 63 57 59
f 64 63 59
f 64 59 55
f 64 55 54
f 64 54 56
f 56 50 64
f 23 56 54
f 54 26 23
f 57 20 63
f 20 57 19
f 63 59 57
f 64 59 63
f 64 55 59
f 64 54 55
f 64 56 54
f 56 64 50
f 23 54 56
f 54 23 26
f 50 15 24
f 24 22 50
f 22 49 50
f 15 50 64
f 64 14 15
f 64 62 14
f 59 25 21
f 21 16 59
f 16 60 59
f 25 59 55
f 55 29 25
f 55 51 29
f 58 61 17
f 17 18 58
f 58 17 61
f 17 58 18
f 19 57 58
f 58 18 19
f 19 58 57
f 58 19 18
f 63 20 17
f 17 61 63
f 63 17 20
f 17 63 61
f 53 27 28
f 28 52 53
f 53 28 27
f 28 53 52
f 23 56 52
f 52 28 23
f 23 52 56
f 52 23 28
f 54 26 27
f 27 53 54
f 54 27 26
f 27 54 53
f 66 65 67
f 67 68 66
f 70 69 71
f 71 72 70
f 72 73 70
f 72 74 73
f 69 70 75
f 75 76 69
f 75 74 76
f 74 72 76
f 69 65 66
f 66 71 69
f 69 76 67
f 67 65 69
f 67 76 72
f 72 68 67
f 72 71 66
f 66 68 72
f 78 77 79
f 79 80 78
f 78 80 74
f 74 75 78
f 79 77 70
f 70 73 79
f 78 75 70
f 70 77 78
f 80 79 73
f 73 74 80
f 82 81 83
f 83 84 82
f 86 85 87
f 87 88 86
f 82 85 86
f 86 81 82
f 82 84 87
f 87 85 82
f 81 86 88
f 88 83 81
f 90 89 91
f 91 92 90
f 91 93 94
f 94 92 91
f 94 95 90
f 90 92 94
f 96 95 94
f 94 93 96
f 96 89 90
f 90 95 96
f 96 93 91
f 91 87 96
f 91 88 87
f 91 83 88
f 96 87 84
f 84 89 96
f 84 83 89
f 83 91 89
