# City room prop — voxel footprint 2x2x1 (0.5 m cells)
o cardboardBoxOpen
v 0.547872 0.040000 0.047872
v 0.547872 0.980426 0.047872
v 0.547872 0.040000 0.952128
v 0.547872 0.980426 0.952128
v 0.927660 0.040000 0.047872
v 0.927660 0.293191 0.047872
v 1.072340 0.293191 0.047872
v 1.452128 0.980426 0.047872
v 1.452128 0.040000 0.047872
v 1.072340 0.040000 0.047872
v 1.452128 0.980426 0.952128
v 1.452128 0.040000 0.952128
v 1.072340 0.040000 0.952128
v 0.927660 0.040000 0.952128
v 1.072340 0.293191 0.952128
v 0.927660 0.293191 0.952128
v 0.208777 1.235745 0.952128
v 0.208777 1.235745 0.047872
v 1.791223 1.235745 0.952128
v 1.791223 1.235745 0.047872
f 2 1 3
f 3 4 2
f 2 3 1
f 3 2 4
f 5 1 2
f 2 6 5
f 2 7 6
f 7 2 8
f 7 8 9
f 9 10 7
f 5 2 1
f 2 5 6
f 2 6 7
f 7 8 2
f 7 9 8
f 9 7 10
f 10 6 5
f 6 10 7
f 9 8 11
f 11 12 9
f 9 11 8
f 11 9 12
f 9 12 13
f 13 10 9
f 10 13 14
f 14 5 10
f 5 14 3
f 3 1 5
f 9 13 12
f 13 9 10
f 13 12 11
f 11 15 13
f 11 16 15
f 16 11 4
f 16 4 3
f 3 14 16
f 13 11 12
f 11 13 15
f 11 15 16
f 16 4 11
f 16 3 4
f 3 16 14
f 13 16 14
f 16 13 15
f 5 3 14
f 3 5 1
f 2 4 17
f 17 18 2
f 2 17 4
f 17 2 18
f 20 19 11
f 11 8 20
f 20 11 19
f 11 20 8
f 10 5 6
f 6 7 10
f 13 14 16
f 16 15 13
f 10 14 13
f 14 10 5
