# City room prop — unit cell 0..1
o ceilingFan
v 0.490534 0.189267 0.439651
v 0.513530 0.247295 0.452928
v 0.490534 0.189267 0.458994
v 0.513530 0.247295 0.547072
v 0.490534 0.189267 0.541006
v 0.490534 0.189267 0.560349
v 0.682838 0.162187 0.429980
v 0.699589 0.162187 0.439651
v 0.682838 0.173793 0.429980
v 0.699589 0.189267 0.439651
v 0.682838 0.189267 0.429980
v 0.611813 0.173793 0.388973
v 0.611813 0.162187 0.388973
v 0.595061 0.189267 0.379302
v 0.595061 0.162187 0.379302
v 0.611813 0.189267 0.388973
v 0.490534 0.162187 0.439651
v 0.723941 0.189267 0.358787
v 0.706801 0.189267 0.388475
v 0.652916 0.189267 0.317781
v 0.635775 0.189267 0.347468
v 0.682838 0.189267 0.570020
v 0.699589 0.189267 0.560349
v 0.611813 0.189267 0.611027
v 0.652916 0.189267 0.682219
v 0.706801 0.189267 0.611525
v 0.723941 0.189267 0.641213
v 0.595061 0.189267 0.620698
v 0.442608 0.189267 0.458994
v 0.442608 0.189267 0.541006
v 0.408327 0.189267 0.458994
v 0.408327 0.189267 0.541006
v 0.618601 0.050000 0.513591
v 0.618601 0.050000 0.486409
v 0.595061 0.050000 0.527182
v 0.595061 0.050000 0.472818
v 0.571521 0.050000 0.513591
v 0.571521 0.050000 0.486409
v 0.682838 0.173793 0.570020
v 0.706801 0.173793 0.611525
v 0.699589 0.162187 0.560349
v 0.635775 0.173793 0.347468
v 0.632426 0.088685 0.478427
v 0.632426 0.088685 0.521573
v 0.706801 0.173793 0.388475
v 0.595061 0.247295 0.405856
v 0.635775 0.189267 0.652532
v 0.557696 0.088685 0.478427
v 0.595061 0.088685 0.456855
v 0.595061 0.247295 0.522041
v 0.575973 0.247295 0.511020
v 0.595061 0.279194 0.522041
v 0.575973 0.279194 0.511020
v 0.611813 0.173793 0.611027
v 0.635775 0.173793 0.652532
v 0.614149 0.247295 0.511020
v 0.614149 0.279194 0.511020
v 0.595061 0.247295 0.594144
v 0.595061 0.088685 0.543145
v 0.490534 0.173793 0.541006
v 0.490534 0.173793 0.458994
v 0.442608 0.173793 0.541006
v 0.442608 0.173793 0.458994
v 0.595061 0.162187 0.620698
v 0.490534 0.162187 0.560349
v 0.614149 0.279194 0.488980
v 0.595061 0.279194 0.477959
v 0.575973 0.279194 0.488980
v 0.575973 0.247295 0.488980
v 0.595061 0.247295 0.477959
v 0.557696 0.088685 0.521573
v 0.676593 0.247295 0.452928
v 0.676593 0.247295 0.547072
v 0.614149 0.247295 0.488980
v 0.507955 0.088685 0.449709
v 0.507955 0.088685 0.550291
v 0.682168 0.088685 0.449709
v 0.682168 0.088685 0.550291
v 0.595061 0.088685 0.399418
v 0.595061 0.088685 0.600582
v 0.889711 0.162187 0.889651
v 0.785184 0.162187 0.950000
v 0.889711 0.189267 0.889651
v 0.785184 0.189267 0.950000
v 0.889711 0.162187 0.110349
v 0.785184 0.162187 0.050000
v 0.723552 0.162187 0.398146
v 0.619024 0.162187 0.337797
v 0.785184 0.189267 0.050000
v 0.619024 0.189267 0.337797
v 0.723552 0.189267 0.398146
v 0.889711 0.189267 0.110349
v 0.723552 0.162187 0.601854
v 0.619024 0.162187 0.662203
v 0.619024 0.189267 0.662203
v 0.110289 0.162187 0.439651
v 0.110289 0.189267 0.439651
v 0.110289 0.162187 0.560349
v 0.110289 0.189267 0.560349
v 0.723552 0.189267 0.601854
v 0.442608 0.162187 0.560349
v 0.442608 0.189267 0.560349
v 0.442608 0.162187 0.439651
v 0.442608 0.189267 0.439651
f 2 1 3
f 3 4 2
f 3 5 4
f 5 6 4
f 8 7 9
f 9 10 8
f 9 11 10
f 12 9 7
f 7 13 12
f 14 12 13
f 13 15 14
f 14 16 12
f 15 17 1
f 1 14 15
f 19 18 20
f 20 11 19
f 20 21 11
f 21 16 11
f 11 16 22
f 11 22 23
f 23 10 11
f 16 24 22
f 22 24 25
f 26 22 25
f 25 27 26
f 16 14 24
f 14 28 24
f 14 1 28
f 1 6 28
f 1 3 6
f 3 5 6
f 5 3 29
f 29 30 5
f 29 31 30
f 31 32 30
f 34 33 35
f 35 36 34
f 35 37 36
f 37 38 36
f 39 22 26
f 26 40 39
f 8 10 23
f 23 41 8
f 21 42 12
f 12 16 21
f 34 43 44
f 44 33 34
f 45 19 11
f 11 9 45
f 14 1 2
f 2 46 14
f 24 47 25
f 36 38 48
f 48 49 36
f 51 50 52
f 52 53 51
f 24 54 55
f 55 47 24
f 42 45 9
f 9 12 42
f 50 56 57
f 57 52 50
f 6 28 58
f 58 4 6
f 35 33 44
f 44 59 35
f 61 60 62
f 62 63 61
f 65 64 28
f 28 6 65
f 57 66 67
f 67 52 57
f 67 68 52
f 68 53 52
f 61 63 29
f 29 3 61
f 70 69 68
f 68 67 70
f 62 60 5
f 5 30 62
f 39 64 41
f 41 23 39
f 23 22 39
f 64 39 54
f 54 28 64
f 54 24 28
f 37 35 59
f 59 71 37
f 16 14 46
f 46 11 16
f 46 10 11
f 46 72 10
f 73 72 46
f 46 74 73
f 46 70 74
f 46 2 70
f 2 69 70
f 2 51 69
f 73 74 56
f 56 58 73
f 56 50 58
f 50 51 58
f 51 4 58
f 51 2 4
f 68 69 51
f 51 53 68
f 22 23 73
f 73 24 22
f 73 28 24
f 73 58 28
f 23 10 72
f 72 73 23
f 61 1 17
f 17 65 61
f 65 60 61
f 65 5 60
f 65 6 5
f 1 61 3
f 39 40 55
f 55 54 39
f 74 66 57
f 57 56 74
f 71 48 38
f 38 37 71
f 74 70 67
f 67 66 74
f 34 36 49
f 49 43 34
f 65 17 75
f 75 76 65
f 77 8 41
f 41 78 77
f 77 79 15
f 15 8 77
f 15 13 8
f 13 7 8
f 76 80 64
f 64 65 76
f 79 75 17
f 17 15 79
f 80 78 41
f 41 64 80
f 77 78 80
f 80 44 77
f 80 59 44
f 80 76 59
f 76 71 59
f 76 48 71
f 77 44 43
f 43 79 77
f 43 49 79
f 49 48 79
f 48 75 79
f 48 76 75
f 82 81 83
f 83 84 82
f 86 85 87
f 87 88 86
f 20 18 89
f 89 90 20
f 90 21 20
f 89 18 91
f 91 92 89
f 18 19 91
f 93 81 82
f 82 94 93
f 95 94 82
f 82 84 95
f 97 96 98
f 98 99 97
f 25 95 84
f 84 27 25
f 25 47 95
f 100 27 84
f 84 83 100
f 100 26 27
f 85 92 91
f 91 87 85
f 85 86 89
f 89 92 85
f 89 86 88
f 88 90 89
f 93 100 83
f 83 81 93
f 98 101 102
f 102 99 98
f 103 96 97
f 97 104 103
f 103 101 98
f 98 96 103
f 40 100 93
f 93 55 40
f 40 26 100
f 55 93 94
f 94 95 55
f 95 47 55
f 62 30 102
f 62 102 101
f 63 62 101
f 63 101 103
f 29 63 103
f 103 104 29
f 45 88 87
f 87 91 45
f 91 19 45
f 88 45 42
f 42 90 88
f 42 21 90
f 29 104 97
f 97 31 29
f 97 32 31
f 32 97 99
f 32 99 102
f 102 30 32
