# City room prop — voxel footprint 1x2x1 (0.5 m cells)
o chairRounded
v 0.246813 0.335385 0.246813
v 0.078022 0.335385 0.246813
v 0.246813 0.757363 0.246813
v 0.078022 0.757363 0.246813
v 0.753187 0.335385 0.246813
v 0.246813 0.250989 0.246813
v 0.753187 0.250989 0.246813
v 0.246813 0.040000 0.246813
v 0.078022 0.040000 0.246813
v 0.078022 0.250989 0.246813
v 0.921978 0.250989 0.246813
v 0.753187 0.040000 0.246813
v 0.921978 0.040000 0.246813
v 0.921978 0.335385 0.246813
v 0.921978 0.757363 0.246813
v 0.753187 0.757363 0.246813
v 0.246813 0.250989 0.753187
v 0.078022 0.250989 0.753187
v 0.753187 0.250989 0.078022
v 0.246813 0.250989 0.078022
v 0.753187 0.250989 0.753187
v 0.921978 0.250989 0.753187
v 0.246813 0.250989 0.921978
v 0.753187 0.250989 0.921978
v 0.753187 0.040000 0.753187
v 0.921978 0.040000 0.753187
v 0.753187 0.335385 0.753187
v 0.246813 0.335385 0.753187
v 0.921978 0.335385 0.753187
v 0.753187 0.757363 0.753187
v 0.921978 0.757363 0.753187
v 0.246813 0.040000 0.753187
v 0.078022 0.040000 0.753187
v 0.078022 0.335385 0.753187
v 0.078022 0.757363 0.753187
v 0.246813 0.757363 0.753187
v 0.246813 0.040000 0.078022
v 0.078022 0.040000 0.078022
v 0.753187 1.538022 0.753187
v 0.753187 1.284835 0.795385
v 0.753187 0.968352 0.753187
v 0.753187 0.968352 0.921978
v 0.753187 1.284835 0.879780
v 0.753187 1.453626 0.879780
v 0.753187 1.453626 0.795385
v 0.753187 1.538022 0.921978
v 0.246813 0.757363 0.921978
v 0.246813 0.335385 0.921978
v 0.246813 0.335385 0.078022
v 0.246813 0.757363 0.078022
v 0.246813 0.040000 0.921978
v 0.921978 0.968352 0.078022
v 0.921978 0.968352 0.753187
v 0.078022 0.968352 0.078022
v 0.246813 0.968352 0.753187
v 0.078022 0.968352 0.753187
v 0.246813 0.968352 0.921978
v 0.246813 1.284835 0.879780
v 0.246813 1.453626 0.879780
v 0.078022 0.040000 0.921978
v 0.078022 1.538022 0.921978
v 0.078022 1.538022 0.753187
v 0.921978 1.538022 0.753187
v 0.921978 1.538022 0.921978
v 0.921978 0.040000 0.921978
v 0.921978 0.040000 0.078022
v 0.753187 0.757363 0.078022
v 0.753187 0.757363 0.921978
v 0.246813 1.453626 0.795385
v 0.753187 0.040000 0.921978
v 0.753187 0.335385 0.921978
v 0.907599 1.647238 0.921978
v 0.744560 1.603552 0.921978
v 0.719266 1.664615 0.921978
v 0.865444 1.749011 0.921978
v 0.679030 1.717052 0.921978
v 0.626593 1.757288 0.921978
v 0.798384 1.836406 0.921978
v 0.565530 1.782582 0.921978
v 0.500000 1.791209 0.921978
v 0.246813 1.538022 0.921978
v 0.255441 1.603552 0.921978
v 0.092400 1.647238 0.921978
v 0.280734 1.664615 0.921978
v 0.134556 1.749011 0.921978
v 0.320970 1.717052 0.921978
v 0.373407 1.757288 0.921978
v 0.201616 1.836406 0.921978
v 0.434471 1.782582 0.921978
v 0.710989 1.903466 0.921978
v 0.289011 1.903466 0.921978
v 0.609216 1.945622 0.921978
v 0.390784 1.945622 0.921978
v 0.500000 1.960000 0.921978
v 0.753187 0.335385 0.078022
v 0.753187 0.040000 0.078022
v 0.246813 1.284835 0.795385
v 0.246813 1.538022 0.753187
v 0.092400 1.647238 0.753187
v 0.255441 1.603552 0.753187
v 0.280734 1.664615 0.753187
v 0.134556 1.749011 0.753187
v 0.320970 1.717052 0.753187
v 0.373407 1.757288 0.753187
v 0.201616 1.836406 0.753187
v 0.434471 1.782582 0.753187
v 0.500000 1.791209 0.753187
v 0.798384 1.836406 0.753187
v 0.565530 1.782582 0.753187
v 0.626593 1.757288 0.753187
v 0.865444 1.749011 0.753187
v 0.679030 1.717052 0.753187
v 0.719266 1.664615 0.753187
v 0.907599 1.647238 0.753187
v 0.744560 1.603552 0.753187
v 0.289011 1.903466 0.753187
v 0.710989 1.903466 0.753187
v 0.390784 1.945622 0.753187
v 0.609216 1.945622 0.753187
v 0.500000 1.960000 0.753187
f 2 1 3
f 3 4 2
f 5 1 6
f 6 7 5
f 9 8 6
f 6 10 9
f 11 7 12
f 12 13 11
f 5 14 15
f 15 16 5
f 6 17 18
f 18 10 6
f 19 7 6
f 6 20 19
f 21 7 11
f 11 22 21
f 23 17 21
f 21 24 23
f 26 25 21
f 21 22 26
f 27 21 17
f 17 28 27
f 29 27 30
f 30 31 29
f 18 17 32
f 32 33 18
f 28 34 35
f 35 36 28
f 37 8 9
f 9 38 37
f 40 39 41
f 41 42 40
f 42 43 40
f 42 44 43
f 39 40 45
f 45 46 39
f 45 44 46
f 44 42 46
f 28 36 47
f 47 48 28
f 6 1 28
f 28 17 6
f 37 20 6
f 6 8 37
f 3 1 49
f 49 50 3
f 51 32 17
f 17 23 51
f 53 52 54
f 54 41 53
f 54 42 41
f 54 55 42
f 54 56 55
f 42 55 57
f 58 43 44
f 44 59 58
f 18 33 60
f 18 60 61
f 18 61 62
f 18 62 56
f 18 56 35
f 18 35 34
f 10 18 34
f 10 34 2
f 9 10 2
f 2 4 9
f 4 35 56
f 9 4 54
f 4 56 54
f 54 38 9
f 53 63 64
f 64 31 53
f 64 22 31
f 64 26 22
f 64 65 26
f 29 31 22
f 29 22 11
f 14 29 11
f 14 11 13
f 15 14 13
f 53 31 15
f 13 66 15
f 15 66 52
f 52 53 15
f 3 36 35
f 35 4 3
f 36 3 50
f 47 36 50
f 47 50 67
f 47 67 16
f 47 16 30
f 30 68 47
f 30 16 15
f 15 31 30
f 44 45 69
f 69 59 44
f 70 65 64
f 64 24 70
f 64 71 24
f 71 23 24
f 64 68 71
f 64 42 68
f 42 47 68
f 64 46 42
f 64 72 46
f 72 73 46
f 72 74 73
f 72 75 74
f 75 76 74
f 75 77 76
f 75 78 77
f 78 79 77
f 78 80 79
f 23 71 48
f 23 48 61
f 48 47 61
f 23 61 60
f 47 57 61
f 47 42 57
f 57 81 61
f 81 82 61
f 82 83 61
f 82 84 83
f 84 85 83
f 84 86 85
f 86 87 85
f 87 88 85
f 80 78 88
f 87 89 88
f 89 80 88
f 78 90 88
f 90 91 88
f 90 92 91
f 92 93 91
f 92 94 93
f 60 51 23
f 37 38 54
f 54 20 37
f 54 49 20
f 49 19 20
f 54 50 49
f 54 67 50
f 19 49 95
f 19 95 52
f 95 67 52
f 67 54 52
f 19 52 66
f 66 96 19
f 45 40 97
f 97 69 45
f 40 43 58
f 58 97 40
f 26 65 70
f 70 25 26
f 55 56 62
f 62 98 55
f 62 99 98
f 99 100 98
f 99 101 100
f 99 102 101
f 102 103 101
f 102 104 103
f 102 105 104
f 105 106 104
f 105 107 106
f 107 105 108
f 109 107 108
f 110 109 108
f 110 108 111
f 112 110 111
f 113 112 111
f 113 111 114
f 115 113 114
f 115 114 63
f 39 115 63
f 39 63 53
f 53 41 39
f 105 116 108
f 116 117 108
f 116 118 117
f 118 119 117
f 118 120 119
f 66 13 12
f 12 96 66
f 69 55 98
f 98 81 69
f 81 59 69
f 81 58 59
f 55 69 97
f 97 57 55
f 97 58 57
f 58 81 57
f 32 51 60
f 60 33 32
f 29 14 5
f 5 27 29
f 5 95 49
f 49 1 5
f 28 1 2
f 2 34 28
f 71 27 28
f 28 48 71
f 63 114 72
f 72 64 63
f 114 111 75
f 75 72 114
f 111 108 78
f 78 75 111
f 78 108 117
f 117 90 78
f 90 117 119
f 119 92 90
f 92 119 120
f 120 94 92
f 94 120 118
f 118 93 94
f 93 118 116
f 116 91 93
f 91 116 105
f 105 88 91
f 105 102 85
f 85 88 105
f 102 99 83
f 83 85 102
f 99 62 61
f 61 83 99
f 98 100 82
f 82 81 98
f 100 101 84
f 84 82 100
f 101 103 86
f 86 84 101
f 104 87 86
f 86 103 104
f 106 89 87
f 87 104 106
f 107 80 89
f 89 106 107
f 109 79 80
f 80 107 109
f 110 77 79
f 79 109 110
f 112 76 77
f 77 110 112
f 112 113 74
f 74 76 112
f 113 115 73
f 73 74 113
f 115 39 46
f 46 73 115
f 19 96 12
f 12 7 19
f 27 5 7
f 7 21 27
f 67 95 5
f 5 16 67
f 30 27 71
f 71 68 30
f 21 25 70
f 70 24 21
