# City room prop — unit cell 0..1
o chairDesk
v 0.532911 0.050000 0.449587
v 0.532911 0.050000 0.281614
v 0.467089 0.050000 0.449587
v 0.467089 0.050000 0.281614
v 0.500000 0.050000 0.550875
v 0.553250 0.050000 0.512186
v 0.446750 0.050000 0.512186
v 0.401268 0.050000 0.686767
v 0.348018 0.050000 0.648079
v 0.307338 0.050000 0.397680
v 0.286998 0.050000 0.460280
v 0.692662 0.050000 0.397680
v 0.713002 0.050000 0.460280
v 0.598732 0.050000 0.686767
v 0.651982 0.050000 0.648079
v 0.467089 0.068664 0.281614
v 0.467089 0.096659 0.449587
v 0.446750 0.096659 0.512186
v 0.348018 0.068664 0.648079
v 0.500000 0.096659 0.550875
v 0.401268 0.068664 0.686767
v 0.532911 0.068664 0.281614
v 0.532911 0.096659 0.449587
v 0.307338 0.068664 0.397680
v 0.286998 0.068664 0.460280
v 0.692662 0.068664 0.397680
v 0.713002 0.068664 0.460280
v 0.553250 0.096659 0.512186
v 0.651982 0.068664 0.648079
v 0.598732 0.068664 0.686767
v 0.553250 0.331435 0.512186
v 0.500000 0.331435 0.550875
v 0.532911 0.331435 0.449587
v 0.500000 0.331435 0.449587
v 0.467089 0.331435 0.449587
v 0.446750 0.331435 0.512186
v 0.300255 0.518274 0.650393
v 0.300255 0.512175 0.654985
v 0.300255 0.416449 0.663970
v 0.300255 0.505124 0.658854
v 0.300255 0.497593 0.661677
v 0.300255 0.489735 0.663394
v 0.300255 0.481712 0.663970
v 0.300255 0.589171 0.640940
v 0.699745 0.589171 0.640940
v 0.300255 0.891426 0.666714
v 0.699745 0.891426 0.666714
v 0.699745 0.891426 0.732776
v 0.641171 0.950000 0.666714
v 0.641171 0.950000 0.732776
v 0.699745 0.518274 0.650393
v 0.699745 0.416449 0.663970
v 0.699745 0.512175 0.654985
v 0.699745 0.505124 0.658854
v 0.699745 0.497593 0.661677
v 0.699745 0.489735 0.663394
v 0.699745 0.481712 0.663970
v 0.358829 0.331435 0.267224
v 0.641171 0.331435 0.267224
v 0.358829 0.395869 0.267224
v 0.641171 0.395869 0.267224
v 0.699745 0.331435 0.325798
v 0.699745 0.395869 0.325798
v 0.699745 0.395869 0.346149
v 0.699745 0.380516 0.352166
v 0.699745 0.331435 0.663970
v 0.699745 0.380516 0.652984
v 0.358829 0.950000 0.666714
v 0.358829 0.950000 0.732776
v 0.300255 0.891426 0.732776
v 0.699745 0.416449 0.724274
v 0.300255 0.416449 0.724274
v 0.699745 0.589171 0.707002
v 0.300255 0.589171 0.707002
v 0.300255 0.566364 0.643981
v 0.300255 0.565729 0.645711
v 0.300255 0.559454 0.657330
v 0.300255 0.551582 0.667933
v 0.300255 0.542276 0.677301
v 0.300255 0.531726 0.685244
v 0.300255 0.520150 0.691597
v 0.300255 0.507784 0.696231
v 0.300255 0.494883 0.699050
v 0.300255 0.483001 0.699903
v 0.300255 0.416449 0.699903
v 0.699745 0.566364 0.643981
v 0.699745 0.395869 0.649548
v 0.300255 0.395869 0.649548
v 0.300255 0.395869 0.325798
v 0.300255 0.395869 0.346149
v 0.699745 0.416449 0.699903
v 0.300255 0.331435 0.663970
v 0.300255 0.380516 0.652984
v 0.300255 0.380516 0.352166
v 0.300255 0.331435 0.325798
v 0.699745 0.565729 0.645711
v 0.699745 0.559454 0.657330
v 0.699745 0.551582 0.667933
v 0.699745 0.542276 0.677301
v 0.699745 0.531726 0.685244
v 0.699745 0.520150 0.691597
v 0.699745 0.507784 0.696231
v 0.699745 0.494883 0.699050
v 0.699745 0.483001 0.699903
v 0.300255 0.546315 0.419332
v 0.300255 0.572937 0.595342
v 0.251930 0.546315 0.419332
v 0.251930 0.572937 0.595342
v 0.300255 0.570280 0.633315
v 0.251930 0.570280 0.633315
v 0.251930 0.565729 0.645711
v 0.251930 0.559454 0.657330
v 0.300255 0.573012 0.620396
v 0.251930 0.573012 0.620396
v 0.300255 0.573870 0.607218
v 0.251930 0.573870 0.607218
v 0.699745 0.483100 0.341036
v 0.748070 0.483100 0.341036
v 0.699745 0.496813 0.347641
v 0.748070 0.496813 0.347641
v 0.748070 0.483001 0.699903
v 0.748070 0.494883 0.699050
v 0.251930 0.507784 0.696231
v 0.251930 0.520150 0.691597
v 0.699745 0.509390 0.356214
v 0.748070 0.509390 0.356214
v 0.748070 0.507784 0.696231
v 0.300255 0.537322 0.615486
v 0.300255 0.537845 0.607460
v 0.251930 0.537322 0.615486
v 0.251930 0.537845 0.607460
v 0.699745 0.520549 0.366565
v 0.748070 0.520549 0.366565
v 0.748070 0.572937 0.595342
v 0.748070 0.573870 0.607218
v 0.699745 0.572937 0.595342
v 0.699745 0.573870 0.607218
v 0.748070 0.530042 0.378463
v 0.699745 0.530042 0.378463
v 0.300255 0.537656 0.391642
v 0.300255 0.543222 0.405808
v 0.251930 0.537656 0.391642
v 0.251930 0.543222 0.405808
v 0.251930 0.551582 0.667933
v 0.251930 0.453506 0.334277
v 0.300255 0.453506 0.334277
v 0.251930 0.468556 0.336548
v 0.300255 0.468556 0.336548
v 0.699745 0.438285 0.334273
v 0.748070 0.438285 0.334273
v 0.699745 0.453506 0.334277
v 0.748070 0.453506 0.334277
v 0.748070 0.565729 0.645711
v 0.748070 0.559454 0.657330
v 0.251930 0.483100 0.341036
v 0.300255 0.483100 0.341036
v 0.251930 0.494883 0.699050
v 0.300255 0.529064 0.637983
v 0.300255 0.532886 0.630906
v 0.251930 0.529064 0.637983
v 0.251930 0.532886 0.630906
v 0.300255 0.535658 0.623355
v 0.251930 0.535658 0.623355
v 0.251930 0.496813 0.347641
v 0.300255 0.496813 0.347641
v 0.251930 0.509390 0.356214
v 0.300255 0.509390 0.356214
v 0.300255 0.380516 0.699903
v 0.251930 0.380516 0.699903
v 0.251930 0.483001 0.699903
v 0.251930 0.505124 0.658854
v 0.251930 0.512175 0.654985
v 0.251930 0.518601 0.650147
v 0.300255 0.518601 0.650147
v 0.251930 0.481712 0.663970
v 0.251930 0.489735 0.663394
v 0.251930 0.531726 0.685244
v 0.251930 0.542276 0.677301
v 0.251930 0.497593 0.661677
v 0.300255 0.537215 0.599441
v 0.251930 0.537215 0.599441
v 0.300255 0.520549 0.366565
v 0.300255 0.530042 0.378463
v 0.251930 0.520549 0.366565
v 0.251930 0.530042 0.378463
v 0.251930 0.423234 0.336537
v 0.300255 0.423234 0.336537
v 0.251930 0.438285 0.334273
v 0.300255 0.438285 0.334273
v 0.251930 0.380516 0.352166
v 0.300255 0.524269 0.644440
v 0.251930 0.524269 0.644440
v 0.251930 0.416449 0.663970
v 0.251930 0.409976 0.340620
v 0.300255 0.409976 0.340620
v 0.300255 0.416449 0.376677
v 0.251930 0.416449 0.376677
v 0.699745 0.468556 0.336548
v 0.748070 0.468556 0.336548
v 0.748070 0.380516 0.699903
v 0.699745 0.380516 0.699903
v 0.699745 0.409976 0.340620
v 0.748070 0.409976 0.340620
v 0.699745 0.423234 0.336537
v 0.748070 0.423234 0.336537
v 0.748070 0.532886 0.630906
v 0.748070 0.535658 0.623355
v 0.699745 0.532886 0.630906
v 0.699745 0.535658 0.623355
v 0.748070 0.537656 0.391642
v 0.699745 0.537656 0.391642
v 0.748070 0.466234 0.374578
v 0.699745 0.466234 0.374578
v 0.748070 0.475595 0.378607
v 0.699745 0.475595 0.378607
v 0.748070 0.416449 0.376677
v 0.748070 0.416449 0.663970
v 0.699745 0.416449 0.376677
v 0.748070 0.508295 0.416204
v 0.748070 0.504169 0.406885
v 0.699745 0.508295 0.416204
v 0.699745 0.504169 0.406885
v 0.748070 0.426054 0.373267
v 0.699745 0.426054 0.373267
v 0.748070 0.436059 0.371325
v 0.699745 0.436059 0.371325
v 0.748070 0.537215 0.599441
v 0.748070 0.510987 0.426034
v 0.699745 0.537215 0.599441
v 0.699745 0.510987 0.426034
v 0.748070 0.531726 0.685244
v 0.748070 0.542276 0.677301
v 0.748070 0.380516 0.352166
v 0.748070 0.446242 0.370896
v 0.748070 0.456376 0.371988
v 0.748070 0.484253 0.383985
v 0.748070 0.492012 0.390593
v 0.748070 0.498701 0.398284
v 0.748070 0.543222 0.405808
v 0.748070 0.546315 0.419332
v 0.748070 0.537845 0.607460
v 0.748070 0.573012 0.620396
v 0.748070 0.537322 0.615486
v 0.748070 0.570280 0.633315
v 0.748070 0.529064 0.637983
v 0.748070 0.524269 0.644440
v 0.748070 0.518601 0.650147
v 0.748070 0.512175 0.654985
v 0.748070 0.505124 0.658854
v 0.748070 0.551582 0.667933
v 0.748070 0.497593 0.661677
v 0.748070 0.489735 0.663394
v 0.748070 0.481712 0.663970
v 0.748070 0.520150 0.691597
v 0.699745 0.543222 0.405808
v 0.699745 0.546315 0.419332
v 0.699745 0.498701 0.398284
v 0.699745 0.492012 0.390593
v 0.699745 0.446242 0.370896
v 0.699745 0.456376 0.371988
v 0.699745 0.570280 0.633315
v 0.699745 0.573012 0.620396
v 0.699745 0.518601 0.650147
v 0.699745 0.524269 0.644440
v 0.699745 0.529064 0.637983
v 0.699745 0.537322 0.615486
v 0.699745 0.537845 0.607460
v 0.300255 0.504169 0.406885
v 0.300255 0.498701 0.398284
v 0.251930 0.504169 0.406885
v 0.251930 0.498701 0.398284
v 0.300255 0.446242 0.370896
v 0.251930 0.446242 0.370896
v 0.300255 0.456376 0.371988
v 0.251930 0.456376 0.371988
v 0.300255 0.466234 0.374578
v 0.300255 0.475595 0.378607
v 0.300255 0.484253 0.383985
v 0.300255 0.492012 0.390593
v 0.300255 0.508295 0.416204
v 0.300255 0.510987 0.426034
v 0.300255 0.426054 0.373267
v 0.300255 0.436059 0.371325
v 0.251930 0.510987 0.426034
v 0.251930 0.508295 0.416204
v 0.699745 0.484253 0.383985
v 0.251930 0.436059 0.371325
v 0.251930 0.426054 0.373267
v 0.251930 0.484253 0.383985
v 0.251930 0.492012 0.390593
v 0.251930 0.466234 0.374578
v 0.251930 0.475595 0.378607
f 2 1 3
f 3 4 2
f 5 3 1
f 1 6 5
f 5 7 3
f 7 5 8
f 8 9 7
f 10 3 7
f 7 11 10
f 6 1 12
f 12 13 6
f 14 5 6
f 6 15 14
f 16 4 3
f 3 17 16
f 18 7 9
f 9 19 18
f 5 20 21
f 21 8 5
f 21 20 18
f 18 19 21
f 9 8 21
f 21 19 9
f 2 22 23
f 23 1 2
f 24 10 11
f 11 25 24
f 3 10 24
f 24 17 3
f 12 26 27
f 27 13 12
f 6 13 27
f 27 28 6
f 18 17 24
f 24 25 18
f 11 7 18
f 18 25 11
f 30 29 28
f 28 20 30
f 14 15 29
f 29 30 14
f 6 28 29
f 29 15 6
f 12 1 23
f 23 26 12
f 28 27 26
f 26 23 28
f 20 5 14
f 14 30 20
f 2 4 16
f 16 22 2
f 23 22 16
f 16 17 23
f 32 31 33
f 33 34 32
f 34 35 32
f 35 36 32
f 23 17 35
f 35 33 23
f 35 34 33
f 20 28 31
f 31 32 20
f 35 17 18
f 18 36 35
f 23 33 31
f 31 28 23
f 18 20 32
f 32 36 18
f 38 37 39
f 39 40 38
f 39 41 40
f 39 42 41
f 39 43 42
f 45 44 46
f 46 47 45
f 48 47 49
f 49 50 48
f 52 51 53
f 53 54 52
f 54 55 52
f 55 56 52
f 56 57 52
f 59 58 60
f 60 61 59
f 62 59 61
f 61 63 62
f 62 63 64
f 64 65 62
f 65 66 62
f 65 67 66
f 69 68 46
f 46 70 69
f 72 71 73
f 73 74 72
f 46 44 74
f 74 70 46
f 74 44 75
f 75 76 74
f 76 77 74
f 77 78 74
f 78 79 74
f 79 80 74
f 80 81 74
f 81 82 74
f 82 83 74
f 83 84 74
f 72 74 84
f 84 85 72
f 52 39 37
f 37 51 52
f 37 75 51
f 75 86 51
f 75 44 86
f 44 45 86
f 64 63 61
f 61 87 64
f 61 88 87
f 61 60 88
f 60 89 88
f 89 90 88
f 91 71 72
f 72 52 91
f 72 39 52
f 72 85 39
f 50 49 68
f 68 69 50
f 92 66 67
f 67 93 92
f 67 87 93
f 87 88 93
f 94 89 95
f 95 92 94
f 94 90 89
f 92 93 94
f 73 45 47
f 47 48 73
f 86 45 73
f 73 96 86
f 73 97 96
f 73 98 97
f 73 99 98
f 73 100 99
f 73 101 100
f 73 102 101
f 73 103 102
f 73 104 103
f 73 91 104
f 73 71 91
f 74 73 48
f 48 70 74
f 60 58 95
f 95 89 60
f 59 62 66
f 66 92 59
f 92 58 59
f 92 95 58
f 47 46 68
f 68 49 47
f 69 70 48
f 48 50 69
f 106 105 107
f 107 108 106
f 75 109 110
f 110 76 75
f 110 111 76
f 77 76 111
f 111 112 77
f 109 113 114
f 114 110 109
f 115 106 108
f 108 116 115
f 118 117 119
f 119 120 118
f 104 121 122
f 122 103 104
f 123 82 81
f 81 124 123
f 120 119 125
f 125 126 120
f 103 122 127
f 127 102 103
f 129 128 130
f 130 131 129
f 126 125 132
f 132 133 126
f 135 134 136
f 136 137 135
f 138 133 132
f 132 139 138
f 141 140 142
f 142 143 141
f 78 77 112
f 112 144 78
f 146 145 147
f 147 148 146
f 150 149 151
f 151 152 150
f 154 153 96
f 96 97 154
f 148 147 155
f 155 156 148
f 157 83 82
f 82 123 157
f 159 158 160
f 160 161 159
f 162 159 161
f 161 163 162
f 165 164 166
f 166 167 165
f 169 168 85
f 85 170 169
f 85 84 170
f 40 171 172
f 172 38 40
f 38 172 173
f 173 37 38
f 173 174 37
f 43 175 176
f 176 42 43
f 128 162 163
f 163 130 128
f 177 80 79
f 79 178 177
f 42 176 179
f 179 41 42
f 124 81 80
f 80 177 124
f 180 129 131
f 131 181 180
f 183 182 184
f 184 185 183
f 113 115 116
f 116 114 113
f 170 84 83
f 83 157 170
f 187 186 188
f 188 189 187
f 156 155 164
f 164 165 156
f 140 183 185
f 185 142 140
f 93 168 169
f 169 94 93
f 169 190 94
f 158 191 192
f 192 160 158
f 39 193 175
f 175 43 39
f 195 194 186
f 186 187 195
f 105 141 143
f 143 107 105
f 191 174 173
f 173 192 191
f 79 78 144
f 144 178 79
f 39 196 197
f 197 193 39
f 41 179 171
f 171 40 41
f 94 190 194
f 194 90 94
f 194 195 90
f 189 188 145
f 145 146 189
f 167 166 184
f 184 182 167
f 152 151 198
f 198 199 152
f 199 198 117
f 117 118 199
f 201 200 121
f 121 91 201
f 121 104 91
f 203 202 204
f 204 205 203
f 205 204 149
f 149 150 205
f 207 206 208
f 208 209 207
f 210 138 139
f 139 211 210
f 213 212 214
f 214 215 213
f 217 216 218
f 218 52 217
f 220 219 221
f 221 222 220
f 224 223 225
f 225 226 224
f 228 227 229
f 229 230 228
f 100 231 232
f 232 99 100
f 233 65 64
f 64 203 233
f 64 202 203
f 234 133 138
f 138 235 234
f 138 212 235
f 138 214 212
f 138 210 214
f 210 236 214
f 210 237 236
f 210 238 237
f 210 239 238
f 239 220 238
f 239 240 220
f 240 219 220
f 240 228 219
f 240 134 228
f 134 227 228
f 134 135 227
f 135 241 227
f 135 242 241
f 242 243 241
f 242 207 243
f 242 244 207
f 244 206 207
f 244 245 206
f 244 153 245
f 153 246 245
f 153 247 246
f 153 154 247
f 154 248 247
f 154 249 248
f 154 250 249
f 250 251 249
f 250 252 251
f 250 253 252
f 250 217 253
f 217 250 200
f 216 217 200
f 216 200 233
f 223 216 233
f 126 223 233
f 120 126 233
f 118 120 233
f 118 233 203
f 199 118 203
f 199 203 205
f 152 199 205
f 205 150 152
f 126 225 223
f 126 133 225
f 133 234 225
f 250 232 200
f 232 231 200
f 231 254 200
f 254 127 200
f 127 122 200
f 122 121 200
f 240 239 255
f 255 256 240
f 253 57 56
f 56 252 253
f 237 238 257
f 257 258 237
f 219 228 230
f 230 221 219
f 226 225 234
f 234 259 226
f 218 216 223
f 223 224 218
f 259 234 235
f 235 260 259
f 217 52 57
f 57 253 217
f 153 244 261
f 261 86 153
f 153 86 96
f 102 127 254
f 254 101 102
f 101 254 231
f 231 100 101
f 244 242 262
f 262 261 244
f 248 53 51
f 51 247 248
f 51 263 247
f 252 56 55
f 55 251 252
f 245 246 264
f 264 265 245
f 250 154 97
f 97 98 250
f 243 207 209
f 209 266 243
f 232 250 98
f 98 99 232
f 233 200 201
f 201 65 233
f 201 67 65
f 251 55 54
f 54 249 251
f 241 243 266
f 266 267 241
f 239 210 211
f 211 255 239
f 227 241 267
f 267 229 227
f 249 54 53
f 53 248 249
f 134 240 256
f 256 136 134
f 206 245 265
f 265 208 206
f 246 247 263
f 263 264 246
f 242 135 137
f 137 262 242
f 269 268 270
f 270 271 269
f 260 235 212
f 212 213 260
f 273 272 274
f 274 275 273
f 272 182 183
f 183 274 272
f 183 276 274
f 183 277 276
f 183 140 277
f 140 278 277
f 140 279 278
f 140 269 279
f 140 141 269
f 141 268 269
f 141 105 268
f 105 280 268
f 105 281 280
f 105 106 281
f 106 180 281
f 106 115 180
f 115 129 180
f 115 113 129
f 113 128 129
f 113 162 128
f 113 109 162
f 109 159 162
f 109 158 159
f 109 75 158
f 75 191 158
f 75 174 191
f 75 37 174
f 187 189 146
f 146 148 187
f 148 195 187
f 148 156 195
f 156 90 195
f 156 165 90
f 165 196 90
f 196 88 90
f 165 282 196
f 165 167 282
f 167 283 282
f 167 182 283
f 182 272 283
f 196 39 88
f 39 93 88
f 39 168 93
f 39 85 168
f 280 281 284
f 284 285 280
f 151 149 204
f 204 198 151
f 204 202 198
f 202 117 198
f 202 64 117
f 64 119 117
f 64 218 119
f 64 87 218
f 218 224 119
f 224 125 119
f 224 226 125
f 226 132 125
f 226 259 132
f 87 52 218
f 87 67 52
f 67 201 52
f 201 91 52
f 139 132 259
f 259 260 139
f 260 213 139
f 213 215 139
f 215 211 139
f 215 286 211
f 286 258 211
f 258 257 211
f 257 255 211
f 257 222 255
f 222 256 255
f 222 221 256
f 221 230 256
f 230 136 256
f 230 229 136
f 229 137 136
f 229 267 137
f 267 262 137
f 267 266 262
f 266 209 262
f 209 261 262
f 209 208 261
f 208 265 261
f 265 86 261
f 265 264 86
f 264 263 86
f 263 51 86
f 287 283 272
f 272 273 287
f 288 282 283
f 283 287 288
f 289 278 279
f 279 290 289
f 286 236 237
f 237 258 286
f 238 220 222
f 222 257 238
f 291 276 277
f 277 292 291
f 275 274 276
f 276 291 275
f 281 180 181
f 181 284 281
f 145 188 186
f 186 147 145
f 186 194 147
f 194 155 147
f 194 190 155
f 190 164 155
f 190 166 164
f 190 288 166
f 190 197 288
f 190 169 197
f 288 287 166
f 287 184 166
f 287 273 184
f 169 193 197
f 169 175 193
f 169 144 175
f 169 178 144
f 169 177 178
f 169 124 177
f 169 123 124
f 169 157 123
f 169 170 157
f 185 184 273
f 273 275 185
f 275 291 185
f 291 292 185
f 292 142 185
f 292 289 142
f 289 290 142
f 290 271 142
f 271 143 142
f 271 270 143
f 270 107 143
f 270 285 107
f 285 284 107
f 284 108 107
f 284 181 108
f 181 116 108
f 181 131 116
f 131 114 116
f 131 130 114
f 130 163 114
f 163 110 114
f 163 161 110
f 161 160 110
f 160 111 110
f 160 192 111
f 192 173 111
f 173 112 111
f 173 172 112
f 172 171 112
f 171 144 112
f 171 179 144
f 179 176 144
f 176 175 144
f 288 197 196
f 196 282 288
f 292 277 278
f 278 289 292
f 215 214 236
f 236 286 215
f 268 280 285
f 285 270 268
f 279 269 271
f 271 290 279
