# City room prop — unit cell 0..1
o computerKeyboard
v 0.950000 0.050000 0.688471
v 0.950000 0.050000 0.311529
v 0.050000 0.050000 0.688471
v 0.050000 0.050000 0.311529
v 0.950000 0.137882 0.621279
v 0.950000 0.137882 0.688471
v 0.050000 0.137882 0.621279
v 0.050000 0.137882 0.688471
v 0.889135 0.083845 0.364372
v 0.950000 0.072731 0.311529
v 0.050000 0.072731 0.311529
v 0.321889 0.083845 0.364372
v 0.256131 0.083845 0.364372
v 0.321889 0.126768 0.568437
v 0.110865 0.083845 0.364372
v 0.110865 0.126768 0.568437
v 0.889135 0.126768 0.568437
v 0.256131 0.126768 0.568437
f 2 1 3
f 3 4 2
f 6 5 7
f 7 8 6
f 9 5 10
f 10 11 9
f 11 12 9
f 11 13 12
f 13 14 12
f 11 15 13
f 11 16 15
f 5 9 17
f 17 7 5
f 17 14 7
f 16 11 7
f 14 18 7
f 14 13 18
f 18 16 7
f 8 3 1
f 1 6 8
f 2 4 11
f 11 10 2
f 11 4 3
f 3 7 11
f 3 8 7
f 2 10 5
f 5 1 2
f 5 6 1
f 17 9 12
f 12 14 17
f 18 13 15
f 15 16 18
