# City room prop — voxel footprint 2x2x1 (0.5 m cells)
o computerScreen
v 1.835506 0.250549 0.408831
v 1.835506 0.235779 0.513928
v 1.835506 1.292277 0.555236
v 1.835506 1.277507 0.660334
v 1.806674 0.279101 0.412843
v 1.806674 0.276535 0.431104
v 0.193326 0.279101 0.412843
v 0.193326 0.276535 0.431104
v 0.164494 0.250549 0.408831
v 0.164494 1.292277 0.555236
v 0.193326 1.263726 0.551223
v 1.806674 1.263726 0.551223
v 0.164494 0.235779 0.513928
v 1.154331 0.430523 0.541298
v 1.154331 0.545991 0.557526
v 0.914606 0.545991 0.557526
v 0.914606 0.430523 0.541298
v 0.164494 1.277507 0.660334
v 1.806674 1.261159 0.569484
v 0.193326 1.261159 0.569484
v 1.154331 0.545991 0.578470
v 0.914606 0.545991 0.578470
v 1.154331 0.430523 0.550809
v 1.154331 0.113762 0.550809
v 1.154331 0.113762 0.643011
v 1.154331 0.481450 0.643011
v 0.914606 0.113762 0.550809
v 0.914606 0.430523 0.550809
v 0.914606 0.113762 0.643011
v 0.914606 0.481450 0.643011
v 1.367257 0.040000 0.278715
v 1.367257 0.040000 0.721285
v 1.311936 0.113762 0.334036
v 1.311936 0.113762 0.702845
v 0.757000 0.113762 0.334036
v 0.757000 0.113762 0.702845
v 0.701679 0.040000 0.278715
v 0.701679 0.040000 0.721285
f 2 1 3
f 3 4 2
f 6 5 7
f 7 8 6
f 7 1 9
f 9 10 7
f 10 11 7
f 10 12 11
f 1 7 5
f 5 3 1
f 5 12 3
f 12 10 3
f 14 13 2
f 2 4 14
f 4 15 14
f 4 16 15
f 13 14 17
f 17 18 13
f 17 16 18
f 16 4 18
f 12 5 6
f 6 19 12
f 1 2 13
f 13 9 1
f 12 19 20
f 20 11 12
f 4 3 10
f 10 18 4
f 10 9 13
f 13 18 10
f 8 7 11
f 11 20 8
f 21 15 16
f 16 22 21
f 23 14 15
f 15 24 23
f 15 25 24
f 15 21 25
f 21 26 25
f 28 27 29
f 29 16 28
f 29 22 16
f 29 30 22
f 17 28 16
f 29 25 26
f 26 30 29
f 32 31 33
f 33 34 32
f 24 34 33
f 33 35 24
f 35 27 24
f 35 29 27
f 34 24 25
f 25 36 34
f 25 29 36
f 29 35 36
f 35 37 38
f 38 36 35
f 30 26 21
f 21 22 30
f 14 23 28
f 28 17 14
f 24 27 28
f 28 23 24
f 38 32 34
f 34 36 38
f 31 32 38
f 38 37 31
f 31 37 35
f 35 33 31
f 6 8 20
f 20 19 6
