# City room prop — voxel footprint 1x1x1 (0.5 m cells)
o computerMouse
v 0.605745 0.105253 0.416342
v 0.552872 0.040000 0.318928
v 0.605745 0.040000 0.416342
v 0.394255 0.040000 0.416342
v 0.447128 0.040000 0.318928
v 0.394255 0.105253 0.416342
v 0.605745 0.040000 0.572340
v 0.603526 0.040000 0.600068
v 0.593722 0.040000 0.626203
v 0.577051 0.040000 0.648830
v 0.554734 0.040000 0.666292
v 0.528408 0.040000 0.677308
v 0.500000 0.040000 0.681072
v 0.471592 0.040000 0.677308
v 0.445266 0.040000 0.666292
v 0.422949 0.040000 0.648830
v 0.406278 0.040000 0.626203
v 0.396474 0.040000 0.600068
v 0.394255 0.040000 0.572340
v 0.605745 0.140306 0.572340
v 0.394255 0.140306 0.572340
v 0.603526 0.140306 0.600068
v 0.593722 0.140306 0.626203
v 0.577051 0.140306 0.648830
v 0.554734 0.140306 0.666292
v 0.528408 0.140306 0.677308
v 0.500000 0.140306 0.681072
v 0.471592 0.140306 0.677308
v 0.445266 0.140306 0.666292
v 0.422949 0.140306 0.648830
v 0.406278 0.140306 0.626203
v 0.396474 0.140306 0.600068
f 2 1 3
f 5 4 6
f 6 1 2
f 2 5 6
f 3 7 8
f 8 2 3
f 8 9 2
f 9 10 2
f 10 11 2
f 11 12 2
f 12 5 2
f 12 13 5
f 13 14 5
f 14 15 5
f 15 4 5
f 15 16 4
f 16 17 4
f 17 18 4
f 18 19 4
f 20 1 6
f 6 21 20
f 3 1 20
f 20 7 3
f 6 4 19
f 19 21 6
f 22 20 21
f 21 23 22
f 21 24 23
f 21 25 24
f 21 26 25
f 21 27 26
f 21 28 27
f 21 29 28
f 21 30 29
f 21 31 30
f 21 32 31
f 22 21 20
f 21 22 23
f 21 23 24
f 21 24 25
f 21 25 26
f 21 26 27
f 21 27 28
f 21 28 29
f 21 29 30
f 21 30 31
f 21 31 32
f 21 19 18
f 18 32 21
f 7 20 22
f 22 8 7
f 8 22 23
f 23 9 8
f 9 23 24
f 24 10 9
f 11 10 24
f 24 25 11
f 12 11 25
f 25 26 12
f 13 12 26
f 26 27 13
f 14 13 27
f 27 28 14
f 15 14 28
f 28 29 15
f 16 15 29
f 29 30 16
f 31 17 16
f 16 30 31
f 32 18 17
f 17 31 32
