# City room prop — voxel footprint 1x2x1 (0.5 m cells)
o crate
v 0.952128 0.980426 0.047872
v 0.952128 0.980426 0.952128
v 0.500000 1.235745 0.047872
v 0.500000 1.235745 0.952128
v 0.500000 1.108085 0.047872
v 0.500000 1.108085 0.952128
v 0.047872 0.980426 0.047872
v 0.047872 0.980426 0.952128
v 0.047872 0.040000 0.047872
v 0.047872 0.040000 0.952128
v 0.427660 0.040000 0.047872
v 0.427660 0.293191 0.047872
v 0.572340 0.293191 0.047872
v 0.952128 0.040000 0.047872
v 0.572340 0.040000 0.047872
v 0.952128 0.040000 0.952128
v 0.572340 0.040000 0.952128
v 0.572340 0.293191 0.952128
v 0.427660 0.293191 0.952128
v 0.427660 0.040000 0.952128
f 2 1 3
f 3 4 2
f 2 3 1
f 3 2 4
f 6 5 7
f 7 8 6
f 6 7 5
f 7 6 8
f 7 9 10
f 10 8 7
f 7 10 9
f 10 7 8
f 11 9 7
f 7 12 11
f 7 13 12
f 13 7 1
f 13 1 14
f 14 15 13
f 11 7 9
f 7 11 12
f 7 12 13
f 13 1 7
f 13 14 1
f 14 13 15
f 15 12 11
f 12 15 13
f 14 1 2
f 2 16 14
f 14 2 1
f 2 14 16
f 17 16 2
f 2 18 17
f 2 19 18
f 19 2 8
f 19 8 10
f 10 20 19
f 17 2 16
f 2 17 18
f 2 18 19
f 19 8 2
f 19 10 8
f 10 19 20
f 11 20 10
f 10 9 11
f 20 11 15
f 15 17 20
f 17 15 14
f 14 16 17
f 11 10 20
f 10 11 9
f 17 19 20
f 19 17 18
f 14 17 16
f 17 14 15
f 17 20 19
f 19 18 17
f 15 20 17
f 20 15 11
f 15 11 12
f 12 13 15
