# City room prop — voxel footprint 2x2x2 (0.5 m cells)
o crop_pumpkin
v 0.181148 0.780412 0.740974
v 0.506392 1.027216 1.000000
v 0.259588 0.780412 1.000000
v 1.740412 0.780412 1.000000
v 1.740412 0.286804 1.000000
v 1.818852 0.780412 1.259026
v 1.818852 0.286804 1.259026
v 1.633749 0.286804 1.579633
v 1.370206 0.286804 1.641216
v 1.633749 0.780412 1.579633
v 1.370206 0.780412 1.641216
v 1.493608 1.027216 1.000000
v 0.366251 0.780412 0.420367
v 0.629794 0.780412 0.358784
v 0.753196 1.027216 0.572523
v 1.370206 0.780412 0.358784
v 1.246804 1.027216 0.572523
v 1.185103 0.780412 0.161341
v 1.246804 1.027216 1.427477
v 0.814897 0.286804 1.838659
v 0.753196 0.040000 1.427477
v 0.629794 0.286804 1.641216
v 1.818852 0.780412 0.740974
v 1.633749 0.780412 0.420367
v 1.246804 0.040000 1.427477
v 1.185103 0.286804 1.838659
v 1.185103 0.780412 1.838659
v 1.185103 0.286804 0.161341
v 1.370206 0.286804 0.358784
v 0.814897 0.286804 0.161341
v 0.814897 0.780412 0.161341
v 0.366251 0.286804 0.420367
v 0.181148 0.286804 0.740974
v 0.629794 0.286804 0.358784
v 1.818852 0.286804 0.740974
v 0.259588 0.286804 1.000000
v 0.506392 0.040000 1.000000
v 0.753196 0.040000 0.572523
v 1.493608 0.040000 1.000000
v 0.814897 0.780412 1.838659
v 1.246804 0.040000 0.572523
v 0.753196 1.027216 1.427477
v 0.629794 0.780412 1.641216
v 0.366251 0.286804 1.579633
v 1.276817 1.027216 1.000000
v 1.138409 1.027216 0.760269
v 0.861591 1.027216 0.760269
v 0.723183 1.027216 1.000000
v 1.138409 1.027216 1.239731
v 0.861591 1.027216 1.239731
v 0.181148 0.780412 1.259026
v 0.181148 0.286804 1.259026
v 0.366251 0.780412 1.579633
v 1.633749 0.286804 0.420367
v 1.041957 1.027216 1.041957
v 0.958043 1.027216 1.041957
v 1.070068 1.278957 1.070068
v 0.929932 1.278957 1.070068
v 0.958043 1.027216 0.958043
v 1.041957 1.027216 0.958043
v 0.929932 1.278957 0.929932
v 1.070068 1.278957 0.929932
f 3 2 1
f 6 5 4
f 5 6 7
f 10 9 8
f 9 10 11
f 6 4 12
f 15 14 13
f 18 17 16
f 19 11 10
f 22 21 20
f 24 12 23
f 12 24 17
f 26 25 9
f 27 9 11
f 9 27 26
f 16 28 18
f 28 16 29
f 31 28 30
f 28 31 18
f 33 13 32
f 13 33 1
f 13 34 32
f 34 13 14
f 4 35 23
f 35 4 5
f 33 37 36
f 34 30 38
f 18 15 17
f 15 18 31
f 8 39 7
f 39 8 25
f 27 20 26
f 20 27 40
f 9 25 8
f 34 31 30
f 31 34 14
f 12 10 6
f 10 12 19
f 28 29 41
f 34 38 32
f 27 11 19
f 42 27 19
f 27 42 40
f 13 2 15
f 2 13 1
f 4 23 12
f 38 28 41
f 28 38 30
f 43 40 42
f 44 21 22
f 10 7 6
f 7 10 8
f 17 45 12
f 45 17 46
f 46 17 15
f 46 15 47
f 47 15 48
f 48 15 2
f 45 19 12
f 19 45 49
f 19 49 42
f 42 48 2
f 42 49 50
f 42 50 48
f 26 21 25
f 21 26 20
f 51 2 3
f 39 35 5
f 52 3 36
f 3 52 51
f 2 53 42
f 53 2 51
f 20 43 22
f 43 20 40
f 25 41 39
f 41 25 21
f 41 21 38
f 38 21 37
f 16 54 29
f 54 16 24
f 43 44 22
f 44 43 53
f 17 24 16
f 37 32 38
f 32 37 33
f 44 37 21
f 37 44 52
f 7 39 5
f 14 15 31
f 44 51 52
f 51 44 53
f 54 41 29
f 36 1 33
f 1 36 3
f 42 53 43
f 23 54 24
f 54 23 35
f 52 36 37
f 39 54 35
f 54 39 41
f 57 56 55
f 56 57 58
f 61 60 59
f 60 61 62
f 61 57 62
f 57 61 58
f 57 60 62
f 60 57 55
f 59 58 61
f 58 59 56
f 46 49 45
f 49 46 60
f 60 46 47
f 60 47 59
f 59 47 56
f 55 49 60
f 49 55 50
f 50 55 56
f 50 56 47
f 50 47 48
