# City room prop — voxel footprint 2x5x2 (0.5 m cells)
o crops_cornStageC
v 1.320213 3.398833 0.839633
v 1.320213 3.398833 1.160367
v 1.161606 3.227420 0.880718
v 1.161606 3.227420 1.119282
v 1.564499 3.487704 1.078198
v 1.564499 3.487704 0.921802
v 1.092784 2.823505 0.907216
v 1.092784 2.823505 1.092784
v 0.838394 3.025463 1.119282
v 0.679787 3.111169 1.160367
v 0.838394 3.025463 0.880718
v 0.679787 3.111169 0.839633
v 0.435501 3.155604 1.078198
v 0.435501 3.155604 0.921802
v 0.907216 2.823505 0.907216
v 0.907216 2.823505 1.092784
v 0.907216 3.751340 1.092784
v 1.092784 3.751340 1.092784
v 0.880718 4.155256 1.161606
v 1.119282 4.155256 1.161606
v 1.160367 4.326668 1.320213
v 0.839633 4.326668 1.320213
v 1.078198 4.415540 1.564499
v 0.921802 4.415540 1.564499
v 1.160367 4.039002 0.679787
v 1.119282 3.953296 0.838394
v 0.839633 4.039002 0.679787
v 0.880718 3.953296 0.838394
v 1.078198 4.083438 0.435501
v 0.921802 4.083438 0.435501
v 1.092784 3.751340 0.907216
v 0.907216 3.751340 0.907216
v 0.838394 1.169792 1.119282
v 0.679787 1.255499 1.160367
v 0.838394 1.169792 0.880718
v 0.679787 1.255499 0.839633
v 0.435501 1.299934 1.078198
v 0.435501 1.299934 0.921802
v 0.907216 0.967835 0.907216
v 0.907216 0.967835 1.092784
v 1.161606 1.371749 0.880718
v 1.161606 1.371749 1.119282
v 1.092784 0.967835 0.907216
v 1.092784 0.967835 1.092784
v 1.564499 1.632034 1.078198
v 1.320213 1.543163 1.160367
v 1.564499 1.632034 0.921802
v 1.320213 1.543163 0.839633
v 0.907216 1.895670 0.907216
v 1.092784 1.895670 0.907216
v 1.092784 0.225567 0.907216
v 0.907216 0.225567 0.907216
v 1.092784 1.895670 1.092784
v 1.092784 0.225567 1.092784
v 0.907216 1.895670 1.092784
v 0.907216 0.225567 1.092784
v 1.139175 0.040000 1.139175
v 0.860825 0.040000 1.139175
v 0.860825 0.040000 0.860825
v 1.139175 0.040000 0.860825
v 0.953608 4.679175 0.953608
v 1.046392 4.679175 0.953608
v 1.046392 4.679175 1.046392
v 0.953608 4.679175 1.046392
v 1.160367 2.183334 1.320213
v 0.839633 2.183334 1.320213
v 1.119282 2.097628 1.161606
v 0.880718 2.097628 1.161606
v 1.078198 2.227769 1.564499
v 0.921802 2.227769 1.564499
v 1.160367 2.470998 0.679787
v 0.839633 2.470998 0.679787
v 1.078198 2.559869 0.435501
v 0.921802 2.559869 0.435501
v 1.119282 2.299585 0.838394
v 0.880718 2.299585 0.838394
f 3 2 1
f 2 3 4
f 1 2 3
f 4 3 2
f 6 2 5
f 2 6 1
f 5 2 6
f 1 6 2
f 7 4 3
f 4 7 8
f 3 4 7
f 8 7 4
f 11 10 9
f 10 11 12
f 9 10 11
f 12 11 10
f 12 13 10
f 13 12 14
f 10 13 12
f 14 12 13
f 9 15 11
f 15 9 16
f 11 15 9
f 16 9 15
f 19 18 17
f 18 19 20
f 17 18 19
f 20 19 18
f 19 21 20
f 21 19 22
f 20 21 19
f 22 19 21
f 22 23 21
f 23 22 24
f 21 23 22
f 24 22 23
f 27 26 25
f 26 27 28
f 25 26 27
f 28 27 26
f 29 27 25
f 27 29 30
f 25 27 29
f 30 29 27
f 26 32 31
f 32 26 28
f 31 32 26
f 28 26 32
f 35 34 33
f 34 35 36
f 33 34 35
f 36 35 34
f 36 37 34
f 37 36 38
f 34 37 36
f 38 36 37
f 33 39 35
f 39 33 40
f 35 39 33
f 40 33 39
f 43 42 41
f 42 43 44
f 41 42 43
f 44 43 42
f 47 46 45
f 46 47 48
f 45 46 47
f 48 47 46
f 41 46 48
f 46 41 42
f 48 46 41
f 42 41 46
f 15 50 49
f 50 15 7
f 43 49 50
f 49 43 39
f 51 39 43
f 39 51 52
f 32 7 15
f 7 32 31
f 8 50 7
f 50 8 53
f 53 43 50
f 43 53 44
f 44 51 43
f 51 44 54
f 31 8 7
f 8 31 18
f 53 40 44
f 40 53 55
f 8 55 53
f 55 8 16
f 56 44 40
f 44 56 54
f 8 17 16
f 17 8 18
f 39 55 49
f 55 39 40
f 55 15 49
f 15 55 16
f 39 56 40
f 56 39 52
f 17 15 16
f 15 17 32
f 54 58 57
f 58 54 56
f 58 52 59
f 52 58 56
f 52 60 59
f 60 52 51
f 58 60 57
f 60 58 59
f 51 57 60
f 57 51 54
f 61 31 32
f 31 61 62
f 63 17 18
f 17 63 64
f 17 61 32
f 61 17 64
f 62 18 31
f 18 62 63
f 61 63 62
f 63 61 64
f 67 66 65
f 66 67 68
f 65 66 67
f 68 67 66
f 68 53 55
f 53 68 67
f 55 53 68
f 67 68 53
f 66 69 65
f 69 66 70
f 65 69 66
f 70 66 69
f 73 72 71
f 72 73 74
f 71 72 73
f 74 73 72
f 75 49 50
f 49 75 76
f 50 49 75
f 76 75 49
f 75 72 76
f 72 75 71
f 76 72 75
f 71 75 72
