# City room prop — voxel footprint 3x2x2 (0.5 m cells)
o crops_wheatStageB
v 1.020091 0.040000 1.175995
v 1.001220 0.040000 1.275866
v 1.001686 1.600232 1.188550
v 0.988665 1.600232 1.257461
v 0.920220 0.040000 1.157124
v 0.932775 1.600232 1.175529
v 0.901349 0.040000 1.256995
v 0.919754 1.600232 1.244440
v 0.902773 1.720155 1.131548
v 1.045667 1.720155 1.158548
v 0.932775 1.960000 1.175529
v 1.001686 1.960000 1.188550
v 1.018666 1.720155 1.301442
v 0.875773 1.720155 1.274442
v 0.988665 1.960000 1.257461
v 0.919754 1.960000 1.244440
v 1.289939 0.040000 1.646424
v 1.201918 0.040000 1.595605
v 1.284173 1.600232 1.624904
v 1.223438 1.600232 1.589839
v 1.370663 1.720155 1.550390
v 1.319238 1.600232 1.564169
v 1.297952 1.720155 1.676329
v 1.252737 0.040000 1.507584
v 1.258503 1.600232 1.529104
v 1.340758 0.040000 1.558403
v 1.172013 1.720155 1.603618
v 1.284173 1.960000 1.624904
v 1.223438 1.960000 1.589839
v 1.319238 1.960000 1.564169
v 1.258503 1.960000 1.529104
v 1.244724 1.720155 1.477679
v 2.239682 1.361233 1.241874
v 2.239682 1.361233 1.387296
v 2.277328 1.241310 1.279520
v 2.277328 1.241310 1.349650
v 2.385104 1.361233 1.241874
v 2.347458 1.241310 1.279520
v 2.385104 1.361233 1.387296
v 2.347458 1.241310 1.349650
v 2.261574 0.040000 1.263766
v 2.363212 0.040000 1.263766
v 2.363212 0.040000 1.365404
v 2.347458 1.601078 1.349650
v 2.277328 1.601078 1.349650
v 2.277328 1.601078 1.279520
v 2.347458 1.601078 1.279520
v 2.261574 0.040000 1.365404
v 1.794380 1.241310 1.693868
v 1.849264 1.241310 1.650211
v 1.741482 1.361233 1.687841
v 1.855291 1.361233 1.597314
v 1.915057 0.040000 1.707618
v 1.835515 0.040000 1.770889
v 1.892921 1.241310 1.705096
v 1.838037 1.241310 1.748753
v 1.945818 1.361233 1.711123
v 1.832010 1.361233 1.801650
v 1.851786 0.040000 1.628075
v 1.892921 1.601078 1.705096
v 1.838037 1.601078 1.748753
v 1.794380 1.601078 1.693868
v 1.849264 1.601078 1.650211
v 1.772243 0.040000 1.691346
v 1.065012 0.040000 0.244837
v 0.965486 0.040000 0.224227
v 1.044402 0.040000 0.344364
v 0.944876 0.040000 0.323753
v 1.046391 1.601078 0.257069
v 1.032170 1.601078 0.325742
v 0.977718 1.601078 0.242848
v 0.963497 1.601078 0.311521
v 0.948489 1.361233 0.198350
v 0.918999 1.361233 0.340750
v 0.977718 1.241310 0.242848
v 0.963497 1.241310 0.311521
v 1.046391 1.241310 0.257069
v 1.032170 1.241310 0.325742
v 1.061400 1.361233 0.370240
v 1.090889 1.361233 0.227840
v 0.592621 0.040000 1.465400
v 0.608374 1.061850 1.481155
v 0.592621 0.040000 1.567038
v 0.608374 1.061850 1.551285
v 0.694258 0.040000 1.567038
v 0.694258 0.040000 1.465400
v 0.678504 1.061850 1.481155
v 0.570729 1.181772 1.443508
v 0.716150 1.181772 1.443508
v 0.716150 1.181772 1.588930
v 0.678504 1.061850 1.551285
v 0.678504 1.421618 1.481155
v 0.678504 1.421618 1.551285
v 0.570729 1.181772 1.588930
v 0.608374 1.421618 1.551285
v 0.608374 1.421618 1.481155
v 1.692234 0.040000 1.441156
v 1.624754 0.040000 1.517160
v 1.669994 1.061850 1.442477
v 1.623433 1.061850 1.494920
v 1.548749 0.040000 1.449680
v 1.570989 1.061850 1.448358
v 1.723139 1.181772 1.439319
v 1.626590 1.181772 1.548065
v 1.669994 1.421618 1.442477
v 1.623433 1.421618 1.494920
v 1.614393 1.181772 1.342770
v 1.617550 1.421618 1.395915
v 1.517844 1.181772 1.451516
v 1.570989 1.421618 1.448358
v 1.617550 1.061850 1.395915
v 1.616229 0.040000 1.373675
v 1.603742 1.361233 0.766269
v 1.706571 1.361233 0.869097
v 1.603742 1.601078 0.819508
v 1.653331 1.601078 0.869098
v 1.603742 1.241310 0.918687
v 1.554152 1.241310 0.869098
v 1.603742 1.361233 0.971926
v 1.500913 1.361233 0.869098
v 1.675611 0.040000 0.869097
v 1.603742 0.040000 0.940966
v 1.653331 1.241310 0.869098
v 1.603742 0.040000 0.797229
v 1.603742 1.241310 0.819508
v 1.603742 1.601078 0.918687
v 1.554152 1.601078 0.869098
v 1.531873 0.040000 0.869098
v 2.381895 1.241310 0.503461
v 2.321160 1.241310 0.468396
v 2.395674 1.361233 0.554887
v 2.269735 1.361233 0.482175
v 2.387661 0.040000 0.524981
v 2.299640 0.040000 0.474163
v 2.350459 0.040000 0.386141
v 2.438480 0.040000 0.436960
v 2.356225 1.241310 0.407662
v 2.416959 1.241310 0.442727
v 2.342446 1.361233 0.356236
v 2.468385 1.361233 0.428947
v 2.356225 1.601078 0.407662
v 2.416959 1.601078 0.442727
v 2.381895 1.601078 0.503461
v 2.321160 1.601078 0.468396
v 1.320841 0.040000 0.581884
v 1.232820 0.040000 0.531065
v 1.270022 0.040000 0.669905
v 1.182001 0.040000 0.619086
v 1.264255 1.600232 0.648385
v 1.203521 1.600232 0.613320
v 1.278035 1.720155 0.699810
v 1.152096 1.720155 0.627099
v 1.224807 1.720155 0.501160
v 1.238586 1.960000 0.552585
v 1.203521 1.960000 0.613320
v 1.299320 1.960000 0.587650
v 1.264255 1.960000 0.648385
v 1.238586 1.600232 0.552585
v 1.299320 1.600232 0.587650
v 1.350746 1.720155 0.573871
v 0.700360 0.040000 0.745928
v 0.612339 0.040000 0.796747
v 0.678840 1.241310 0.740162
v 0.618105 1.241310 0.775226
v 0.583041 1.241310 0.714492
v 0.643775 1.241310 0.679427
v 0.531615 1.361233 0.700713
v 0.657554 1.361233 0.628002
v 0.730265 1.361233 0.753941
v 0.604326 1.361233 0.826652
v 0.561520 0.040000 0.708726
v 0.649541 0.040000 0.657907
v 0.643775 1.601078 0.679427
v 0.678840 1.601078 0.740162
v 0.583041 1.601078 0.714492
v 0.618105 1.601078 0.775226
v 1.810109 0.040000 0.491043
v 1.708472 0.040000 0.491043
v 1.794355 1.061850 0.475289
v 1.724225 1.061850 0.475289
v 1.708472 0.040000 0.389405
v 1.810109 0.040000 0.389405
v 1.724225 1.061850 0.405159
v 1.794355 1.061850 0.405159
v 1.832001 1.181772 0.367513
v 1.832001 1.181772 0.512935
v 1.794355 1.421618 0.405159
v 1.794355 1.421618 0.475289
v 1.724225 1.421618 0.405159
v 1.724225 1.421618 0.475289
v 1.686580 1.181772 0.367513
v 1.686580 1.181772 0.512935
f 3 2 1
f 2 3 4
f 7 6 5
f 6 7 8
f 11 10 9
f 10 11 12
f 15 14 13
f 14 15 16
f 13 8 4
f 8 13 14
f 14 11 9
f 11 14 16
f 2 5 1
f 5 2 7
f 4 7 2
f 7 4 8
f 12 13 10
f 13 12 15
f 9 3 6
f 3 9 10
f 6 14 9
f 14 6 8
f 11 15 12
f 15 11 16
f 13 3 10
f 3 13 4
f 6 1 5
f 1 6 3
f 19 18 17
f 18 19 20
f 23 22 21
f 22 23 19
f 18 25 24
f 25 18 20
f 22 17 26
f 17 22 19
f 28 27 23
f 27 28 29
f 30 23 21
f 23 30 28
f 31 28 30
f 28 31 29
f 23 20 19
f 20 23 27
f 25 27 32
f 27 25 20
f 25 26 24
f 26 25 22
f 32 22 25
f 22 32 21
f 17 24 26
f 24 17 18
f 27 31 32
f 31 27 29
f 31 21 32
f 21 31 30
f 35 34 33
f 34 35 36
f 39 38 37
f 38 39 40
f 35 42 41
f 42 35 38
f 38 43 42
f 43 38 40
f 39 36 40
f 36 39 34
f 33 38 35
f 38 33 37
f 44 34 39
f 34 44 45
f 46 37 33
f 37 46 47
f 47 39 37
f 39 47 44
f 48 42 43
f 42 48 41
f 46 44 47
f 44 46 45
f 48 35 41
f 35 48 36
f 34 46 33
f 46 34 45
f 40 48 43
f 48 40 36
f 51 50 49
f 50 51 52
f 55 54 53
f 54 55 56
f 57 56 55
f 56 57 58
f 50 53 59
f 53 50 55
f 60 58 57
f 58 60 61
f 58 62 51
f 62 58 61
f 62 52 51
f 52 62 63
f 63 61 60
f 61 63 62
f 63 57 52
f 57 63 60
f 57 50 52
f 50 57 55
f 49 58 51
f 58 49 56
f 54 59 53
f 59 54 64
f 54 49 64
f 49 54 56
f 49 59 64
f 59 49 50
f 67 66 65
f 66 67 68
f 71 70 69
f 70 71 72
f 75 74 73
f 74 75 76
f 77 67 65
f 67 77 78
f 68 75 66
f 75 68 76
f 75 65 66
f 65 75 77
f 79 76 78
f 76 79 74
f 69 79 80
f 79 69 70
f 79 77 80
f 77 79 78
f 74 71 73
f 71 74 72
f 73 77 75
f 77 73 80
f 71 80 73
f 80 71 69
f 78 68 67
f 68 78 76
f 70 74 79
f 74 70 72
f 83 82 81
f 82 83 84
f 83 86 85
f 86 83 81
f 88 87 82
f 87 88 89
f 82 86 81
f 86 82 87
f 90 87 89
f 87 90 91
f 92 90 89
f 90 92 93
f 91 83 85
f 83 91 84
f 93 94 90
f 94 93 95
f 94 96 88
f 96 94 95
f 96 93 92
f 93 96 95
f 82 94 88
f 94 82 84
f 90 84 91
f 84 90 94
f 96 89 88
f 89 96 92
f 87 85 86
f 85 87 91
f 99 98 97
f 98 99 100
f 100 101 98
f 101 100 102
f 105 104 103
f 104 105 106
f 109 108 107
f 108 109 110
f 107 99 111
f 99 107 103
f 108 103 107
f 103 108 105
f 111 97 112
f 97 111 99
f 111 109 107
f 109 111 102
f 106 109 104
f 109 106 110
f 98 112 97
f 112 98 101
f 101 111 112
f 111 101 102
f 108 106 105
f 106 108 110
f 104 102 100
f 102 104 109
f 104 99 103
f 99 104 100
f 115 114 113
f 114 115 116
f 119 118 117
f 118 119 120
f 123 122 121
f 122 123 117
f 119 123 114
f 123 119 117
f 125 121 124
f 121 125 123
f 126 120 119
f 120 126 127
f 120 115 113
f 115 120 127
f 122 124 121
f 124 122 128
f 116 119 114
f 119 116 126
f 125 120 113
f 120 125 118
f 113 123 125
f 123 113 114
f 115 126 116
f 126 115 127
f 117 128 122
f 128 117 118
f 128 125 124
f 125 128 118
f 131 130 129
f 130 131 132
f 129 134 133
f 134 129 130
f 137 136 135
f 136 137 138
f 138 133 136
f 133 138 129
f 137 132 139
f 132 137 130
f 141 140 139
f 140 141 142
f 131 138 140
f 138 131 129
f 142 131 140
f 131 142 143
f 139 138 137
f 138 139 140
f 132 141 139
f 141 132 144
f 134 137 135
f 137 134 130
f 143 132 131
f 132 143 144
f 133 135 136
f 135 133 134
f 141 143 142
f 143 141 144
f 147 146 145
f 146 147 148
f 151 150 149
f 150 151 152
f 152 154 153
f 154 152 155
f 154 157 156
f 157 154 155
f 153 159 158
f 159 153 160
f 148 158 146
f 158 148 150
f 158 145 146
f 145 158 159
f 149 148 147
f 148 149 150
f 159 147 145
f 147 159 149
f 158 152 153
f 152 158 150
f 157 152 151
f 152 157 155
f 156 151 160
f 151 156 157
f 151 159 160
f 159 151 149
f 154 160 153
f 160 154 156
f 163 162 161
f 162 163 164
f 167 166 165
f 166 167 168
f 169 164 163
f 164 169 170
f 165 172 171
f 172 165 166
f 165 170 167
f 170 165 164
f 173 169 168
f 169 173 174
f 162 172 161
f 172 162 171
f 170 175 167
f 175 170 176
f 162 165 171
f 165 162 164
f 169 166 168
f 166 169 163
f 173 176 174
f 176 173 175
f 166 161 172
f 161 166 163
f 174 170 169
f 170 174 176
f 175 168 167
f 168 175 173
f 179 178 177
f 178 179 180
f 183 182 181
f 182 183 184
f 178 182 177
f 182 178 181
f 186 184 185
f 184 186 179
f 189 188 187
f 188 189 190
f 183 192 191
f 192 183 180
f 184 177 182
f 177 184 179
f 189 185 191
f 185 189 187
f 186 180 179
f 180 186 192
f 192 189 191
f 189 192 190
f 178 183 181
f 183 178 180
f 191 184 183
f 184 191 185
f 188 192 186
f 192 188 190
f 187 186 185
f 186 187 188
f 9 13 10
f 13 9 14
f 32 23 21
f 23 32 27
f 33 39 37
f 39 33 34
f 52 58 57
f 58 52 51
f 73 79 80
f 79 73 74
f 88 90 89
f 90 88 94
f 107 104 103
f 104 107 109
f 113 119 114
f 119 113 120
f 139 131 140
f 131 139 132
f 153 151 160
f 151 153 152
f 168 170 169
f 170 168 167
f 191 186 185
f 186 191 192
