# City room prop — voxel footprint 2x6x2 (0.5 m cells)
o crossColumn
v 1.229115 5.140517 0.929439
v 1.229115 5.018321 0.929439
v 1.229115 5.140517 1.070561
v 1.229115 5.018321 1.070561
v 1.061097 5.308534 0.929439
v 1.061097 5.308534 1.070561
v 0.938903 5.308534 0.929439
v 0.938903 5.308534 1.070561
v 0.770885 5.018321 0.929439
v 0.770885 5.140517 0.929439
v 0.770885 5.018321 1.070561
v 0.770885 5.140517 1.070561
v 0.923628 5.003047 0.916987
v 1.076372 5.003047 0.916987
v 0.923628 5.155791 0.916987
v 1.076372 5.155791 0.916987
v 1.076372 5.003047 1.083013
v 1.076372 5.155791 1.083013
v 0.923628 5.155791 1.083013
v 0.923628 5.003047 1.083013
v 0.938903 4.627552 0.929439
v 0.938903 4.627552 1.070561
v 1.061097 4.627552 0.929439
v 1.061097 4.627552 1.070561
v 1.400501 3.498869 0.599499
v 1.400501 3.498869 1.400501
v 0.599499 3.498869 0.599499
v 0.599499 3.498869 1.400501
v 0.599499 3.207595 0.599499
v 0.599499 3.207595 1.400501
v 1.400501 3.207595 0.599499
v 1.400501 3.207595 1.400501
v 1.400501 2.843504 0.599499
v 1.400501 2.843504 1.400501
v 0.599499 2.843504 0.599499
v 0.599499 2.843504 1.400501
v 0.599499 1.059456 0.599499
v 0.599499 1.059456 1.400501
v 1.400501 1.059456 0.599499
v 1.400501 1.059456 1.400501
v 1.637160 0.040000 1.819206
v 0.362840 0.040000 1.819206
v 1.637160 0.404091 1.819206
v 0.362840 0.404091 1.819206
v 1.819206 0.404091 0.362840
v 1.819206 0.040000 0.362840
v 1.819206 0.404091 1.637160
v 1.819206 0.040000 1.637160
v 0.362840 0.040000 0.180794
v 1.637160 0.040000 0.180794
v 0.362840 0.404091 0.180794
v 1.637160 0.404091 0.180794
v 0.180794 0.040000 0.362840
v 0.180794 0.404091 0.362840
v 0.180794 0.040000 1.637160
v 0.180794 0.404091 1.637160
v 1.509728 1.059456 0.550596
v 1.509728 1.059456 1.449404
v 1.449404 1.059456 0.490272
v 1.449404 1.059456 1.509728
v 0.550596 1.059456 0.490272
v 0.550596 1.059456 1.509728
v 0.490272 1.059456 0.550596
v 0.490272 1.059456 1.449404
v 1.637160 0.404091 0.438246
v 1.637160 0.404091 1.561754
v 1.561754 0.404091 1.637160
v 0.438246 0.404091 1.637160
v 0.362840 0.404091 1.561754
v 0.438246 0.404091 0.362840
v 0.362840 0.404091 0.438246
v 1.561754 0.404091 0.362840
v 1.520651 3.207595 0.579474
v 1.520651 2.843504 0.579474
v 1.520651 3.207595 1.420526
v 1.520651 2.843504 1.420526
v 1.420526 2.843504 1.520651
v 0.579474 2.843504 1.520651
v 1.420526 3.207595 1.520651
v 0.579474 3.207595 1.520651
v 0.579474 2.843504 0.479349
v 1.420526 2.843504 0.479349
v 0.579474 3.207595 0.479349
v 1.420526 3.207595 0.479349
v 0.479349 2.843504 0.579474
v 0.479349 3.207595 0.579474
v 0.479349 2.843504 1.420526
v 0.479349 3.207595 1.420526
v 1.520651 3.644505 0.579474
v 1.520651 3.498868 0.579474
v 1.520651 3.644505 1.420526
v 1.520651 3.498868 1.420526
v 1.420526 3.498868 1.520651
v 0.579474 3.498868 1.520651
v 1.420526 3.644505 1.520651
v 0.579474 3.644505 1.520651
v 0.579474 3.498868 0.479349
v 1.420526 3.498868 0.479349
v 0.579474 3.644505 0.479349
v 1.420526 3.644505 0.479349
v 0.479349 3.498868 0.579474
v 0.479349 3.644505 0.579474
v 0.479349 3.498868 1.420526
v 0.479349 3.644505 1.420526
v 1.273200 4.627552 0.779339
v 1.273200 4.627552 1.220661
v 1.220661 4.627552 0.726800
v 1.220661 4.627552 1.273200
v 0.779339 4.627552 0.726800
v 0.779339 4.627552 1.273200
v 0.726800 4.627552 0.779339
v 0.726800 4.627552 1.220661
v 0.717101 3.972188 0.649744
v 1.282899 3.972188 0.649744
v 0.649744 3.972188 0.717101
v 1.282899 3.972188 1.350256
v 0.717101 3.972188 1.350256
v 1.350256 3.972188 1.282899
v 0.649744 3.972188 1.282899
v 1.350256 3.972188 0.717101
f 3 2 1
f 2 3 4
f 7 6 5
f 6 7 8
f 11 10 9
f 10 11 12
f 15 14 13
f 14 15 16
f 17 2 4
f 2 17 14
f 16 3 1
f 3 16 18
f 16 2 14
f 2 16 1
f 4 18 17
f 18 4 3
f 6 19 18
f 19 6 8
f 5 18 16
f 18 5 6
f 19 7 15
f 7 19 8
f 7 16 15
f 16 7 5
f 10 19 15
f 19 10 12
f 11 13 20
f 13 11 9
f 9 15 13
f 15 9 10
f 19 11 20
f 11 19 12
f 21 20 13
f 20 21 22
f 17 23 14
f 23 17 24
f 17 22 24
f 22 17 20
f 13 23 21
f 23 13 14
f 18 20 17
f 20 18 19
f 27 26 25
f 26 27 28
f 30 27 29
f 27 30 28
f 27 31 29
f 31 27 25
f 26 31 25
f 31 26 32
f 26 30 32
f 30 26 28
f 35 34 33
f 34 35 36
f 38 35 37
f 35 38 36
f 35 39 37
f 39 35 33
f 34 39 33
f 39 34 40
f 34 38 40
f 38 34 36
f 43 42 41
f 42 43 44
f 47 46 45
f 46 47 48
f 51 50 49
f 50 51 52
f 55 54 53
f 54 55 56
f 45 50 52
f 50 45 46
f 43 48 47
f 48 43 41
f 53 51 49
f 51 53 54
f 42 56 55
f 56 42 44
f 41 46 48
f 46 41 50
f 50 41 42
f 50 42 49
f 49 42 55
f 49 55 53
f 52 47 45
f 47 52 43
f 43 52 51
f 43 51 44
f 44 51 54
f 44 54 56
f 59 58 57
f 58 59 60
f 60 59 61
f 60 61 62
f 62 61 63
f 62 63 64
f 57 66 65
f 66 57 58
f 60 68 67
f 68 60 62
f 62 69 68
f 69 62 64
f 71 61 70
f 61 71 63
f 61 72 70
f 72 61 59
f 60 66 58
f 66 60 67
f 69 63 71
f 63 69 64
f 59 65 72
f 65 59 57
f 75 74 73
f 74 75 76
f 79 78 77
f 78 79 80
f 83 82 81
f 82 83 84
f 87 86 85
f 86 87 88
f 79 76 75
f 76 79 77
f 85 83 81
f 83 85 86
f 73 82 84
f 82 73 74
f 78 88 87
f 88 78 80
f 84 75 73
f 75 84 79
f 79 84 83
f 79 83 80
f 80 83 86
f 80 86 88
f 77 74 76
f 74 77 82
f 82 77 78
f 82 78 81
f 81 78 87
f 81 87 85
f 91 90 89
f 90 91 92
f 95 94 93
f 94 95 96
f 99 98 97
f 98 99 100
f 103 102 101
f 102 103 104
f 95 92 91
f 92 95 93
f 101 99 97
f 99 101 102
f 89 98 100
f 98 89 90
f 94 104 103
f 104 94 96
f 93 90 92
f 90 93 98
f 98 93 94
f 98 94 97
f 97 94 103
f 97 103 101
f 107 106 105
f 106 107 108
f 108 107 109
f 108 109 110
f 110 109 111
f 110 111 112
f 109 114 113
f 114 109 107
f 111 113 115
f 113 111 109
f 108 117 116
f 117 108 110
f 106 116 118
f 116 106 108
f 119 111 115
f 111 119 112
f 110 119 117
f 119 110 112
f 105 118 120
f 118 105 106
f 107 120 114
f 120 107 105
f 118 95 91
f 95 118 116
f 115 99 102
f 99 115 113
f 114 89 100
f 89 114 120
f 117 104 96
f 104 117 119
f 116 96 95
f 96 116 117
f 113 100 99
f 100 113 114
f 104 115 102
f 115 104 119
f 120 91 89
f 91 120 118
f 3 2 1
f 2 3 4
f 7 6 5
f 6 7 8
f 11 10 9
f 10 11 12
f 15 14 13
f 14 15 16
f 17 2 4
f 2 17 14
f 16 3 1
f 3 16 18
f 16 2 14
f 2 16 1
f 4 18 17
f 18 4 3
f 6 19 18
f 19 6 8
f 5 18 16
f 18 5 6
f 19 7 15
f 7 19 8
f 7 16 15
f 16 7 5
f 10 19 15
f 19 10 12
f 11 13 20
f 13 11 9
f 9 15 13
f 15 9 10
f 19 11 20
f 11 19 12
f 21 20 13
f 20 21 22
f 17 23 14
f 23 17 24
f 17 22 24
f 22 17 20
f 13 23 21
f 23 13 14
f 18 20 17
f 20 18 19
f 27 26 25
f 26 27 28
f 30 27 29
f 27 30 28
f 27 31 29
f 31 27 25
f 26 31 25
f 31 26 32
f 26 30 32
f 30 26 28
f 35 34 33
f 34 35 36
f 38 35 37
f 35 38 36
f 35 39 37
f 39 35 33
f 34 39 33
f 39 34 40
f 34 38 40
f 38 34 36
f 43 42 41
f 42 43 44
f 47 46 45
f 46 47 48
f 51 50 49
f 50 51 52
f 55 54 53
f 54 55 56
f 45 50 52
f 50 45 46
f 43 48 47
f 48 43 41
f 53 51 49
f 51 53 54
f 42 56 55
f 56 42 44
f 41 46 48
f 46 41 50
f 50 41 42
f 50 42 49
f 49 42 55
f 49 55 53
f 52 47 45
f 47 52 43
f 43 52 51
f 43 51 44
f 44 51 54
f 44 54 56
f 59 58 57
f 58 59 60
f 60 59 61
f 60 61 62
f 62 61 63
f 62 63 64
f 57 66 65
f 66 57 58
f 60 68 67
f 68 60 62
f 62 69 68
f 69 62 64
f 71 61 70
f 61 71 63
f 61 72 70
f 72 61 59
f 60 66 58
f 66 60 67
f 69 63 71
f 63 69 64
f 59 65 72
f 65 59 57
f 75 74 73
f 74 75 76
f 79 78 77
f 78 79 80
f 83 82 81
f 82 83 84
f 87 86 85
f 86 87 88
f 79 76 75
f 76 79 77
f 85 83 81
f 83 85 86
f 73 82 84
f 82 73 74
f 78 88 87
f 88 78 80
f 84 75 73
f 75 84 79
f 79 84 83
f 79 83 80
f 80 83 86
f 80 86 88
f 77 74 76
f 74 77 82
f 82 77 78
f 82 78 81
f 81 78 87
f 81 87 85
f 91 90 89
f 90 91 92
f 95 94 93
f 94 95 96
f 99 98 97
f 98 99 100
f 103 102 101
f 102 103 104
f 95 92 91
f 92 95 93
f 101 99 97
f 99 101 102
f 89 98 100
f 98 89 90
f 94 104 103
f 104 94 96
f 93 90 92
f 90 93 98
f 98 93 94
f 98 94 97
f 97 94 103
f 97 103 101
f 107 106 105
f 106 107 108
f 108 107 109
f 108 109 110
f 110 109 111
f 110 111 112
f 109 114 113
f 114 109 107
f 111 113 115
f 113 111 109
f 108 117 116
f 117 108 110
f 106 116 118
f 116 106 108
f 119 111 115
f 111 119 112
f 110 119 117
f 119 110 112
f 105 118 120
f 118 105 106
f 107 120 114
f 120 107 105
f 118 95 91
f 95 118 116
f 115 99 102
f 99 115 113
f 114 89 100
f 89 114 120
f 117 104 96
f 104 117 119
f 116 96 95
f 96 116 117
f 113 100 99
f 100 113 114
f 104 115 102
f 115 104 119
f 120 91 89
f 91 120 118
