# City room prop — voxel footprint 3x4x1 (0.5 m cells)
o cross
v 1.773069 2.445056 0.295199
v 1.745762 0.404091 0.295199
v 1.773069 2.445056 0.704801
v 1.745762 0.404091 0.704801
v 1.226931 2.445056 0.295199
v 1.226931 2.445056 0.704801
v 1.254238 0.404091 0.295199
v 1.254238 0.404091 0.704801
v 2.171941 2.472363 0.704801
v 2.171941 2.472363 0.295199
v 2.171941 2.963887 0.295199
v 2.171941 2.963887 0.704801
v 1.773069 2.991193 0.295199
v 1.773069 2.991193 0.704801
v 1.226931 2.991193 0.295199
v 1.226931 2.991193 0.704801
v 0.828059 2.963887 0.295199
v 0.828059 2.963887 0.704801
v 0.828059 2.472363 0.704801
v 0.828059 2.472363 0.295199
v 1.254238 3.315194 0.295199
v 1.254238 3.315194 0.704801
v 1.745762 3.315194 0.295199
v 1.745762 3.315194 0.704801
v 1.955114 0.404091 0.226931
v 1.955114 0.404091 0.773069
v 1.773069 0.404091 0.044886
v 1.773069 0.404091 0.955114
v 1.226931 0.404091 0.044886
v 1.226931 0.404091 0.955114
v 1.044886 0.404091 0.226931
v 1.044886 0.404091 0.773069
v 1.955114 0.040000 0.226931
v 1.955114 0.040000 0.773069
v 1.226931 0.040000 0.044886
v 1.773069 0.040000 0.044886
v 1.773069 0.040000 0.955114
v 1.226931 0.040000 0.955114
v 1.044886 0.040000 0.773069
v 1.044886 0.040000 0.226931
v 1.081295 3.369808 0.226931
v 1.081295 3.460831 0.226931
v 1.081295 3.369808 0.773069
v 1.081295 3.460831 0.773069
v 1.918705 3.460831 0.226931
v 1.918705 3.369808 0.226931
v 1.918705 3.460831 0.773069
v 1.918705 3.369808 0.773069
v 1.572818 3.861333 0.226931
v 1.572818 3.861333 0.773069
v 1.427182 3.861333 0.226931
v 1.427182 3.861333 0.773069
v 1.864091 3.315194 0.773069
v 1.864091 3.315194 0.226931
v 1.135909 3.315194 0.773069
v 1.135909 3.315194 0.226931
v 0.773446 2.299420 0.226931
v 0.682423 2.299420 0.226931
v 0.773446 2.299420 0.773069
v 0.682423 2.299420 0.773069
v 0.682423 3.136830 0.226931
v 0.773446 3.136830 0.226931
v 0.682423 3.136830 0.773069
v 0.773446 3.136830 0.773069
v 0.281922 2.790943 0.226931
v 0.281922 2.790943 0.773069
v 0.281922 2.645307 0.226931
v 0.281922 2.645307 0.773069
v 0.828059 3.082216 0.773069
v 0.828059 3.082216 0.226931
v 0.828059 2.354033 0.773069
v 0.828059 2.354033 0.226931
v 2.226554 3.136830 0.226931
v 2.317577 3.136830 0.226931
v 2.226554 3.136830 0.773069
v 2.317577 3.136830 0.773069
v 2.317577 2.299420 0.226931
v 2.226554 2.299420 0.226931
v 2.317577 2.299420 0.773069
v 2.226554 2.299420 0.773069
v 2.718078 2.645307 0.226931
v 2.718078 2.645307 0.773069
v 2.718078 2.790943 0.226931
v 2.718078 2.790943 0.773069
v 2.171941 2.354033 0.773069
v 2.171941 2.354033 0.226931
v 2.171941 3.082216 0.773069
v 2.171941 3.082216 0.226931
v 1.794914 2.718125 0.704801
v 1.500000 2.423211 0.704801
v 1.647457 2.718125 0.865002
v 1.500000 2.570668 0.865002
v 1.352543 2.718125 0.865002
v 1.205086 2.718125 0.704801
v 1.500000 2.865582 0.865002
v 1.500000 3.013039 0.704801
f 3 2 1
f 2 3 4
f 7 6 5
f 6 7 8
f 3 10 9
f 10 3 1
f 13 12 11
f 12 13 14
f 17 16 15
f 16 17 18
f 19 5 6
f 5 19 20
f 16 21 15
f 21 16 22
f 23 14 13
f 14 23 24
f 3 8 4
f 8 3 6
f 6 3 9
f 6 9 19
f 19 9 12
f 19 12 18
f 18 12 14
f 18 14 16
f 16 14 24
f 16 24 22
f 5 2 7
f 2 5 1
f 1 5 10
f 10 5 20
f 10 20 11
f 11 20 17
f 11 17 13
f 13 17 15
f 13 15 23
f 23 15 21
f 27 26 25
f 26 27 28
f 28 27 29
f 28 29 30
f 30 29 31
f 30 31 32
f 26 33 25
f 33 26 34
f 29 36 35
f 36 29 27
f 25 36 27
f 36 25 33
f 37 33 34
f 33 37 36
f 36 37 38
f 36 38 35
f 35 38 39
f 35 39 40
f 28 34 26
f 34 28 37
f 38 32 39
f 32 38 30
f 39 31 40
f 31 39 32
f 40 29 35
f 29 40 31
f 28 38 37
f 38 28 30
f 43 42 41
f 42 43 44
f 47 46 45
f 46 47 48
f 51 50 49
f 50 51 52
f 50 45 49
f 45 50 47
f 44 51 42
f 51 44 52
f 55 54 53
f 54 55 56
f 43 56 55
f 56 43 41
f 53 46 48
f 46 53 54
f 48 55 53
f 55 48 43
f 43 48 47
f 43 47 44
f 44 47 50
f 44 50 52
f 41 54 56
f 54 41 46
f 46 41 42
f 46 42 45
f 45 42 51
f 45 51 49
f 59 58 57
f 58 59 60
f 63 62 61
f 62 63 64
f 67 66 65
f 66 67 68
f 66 61 65
f 61 66 63
f 60 67 58
f 67 60 68
f 71 70 69
f 70 71 72
f 59 72 71
f 72 59 57
f 69 62 64
f 62 69 70
f 64 71 69
f 71 64 59
f 59 64 63
f 59 63 60
f 60 63 66
f 60 66 68
f 57 70 72
f 70 57 62
f 62 57 58
f 62 58 61
f 61 58 67
f 61 67 65
f 75 74 73
f 74 75 76
f 79 78 77
f 78 79 80
f 83 82 81
f 82 83 84
f 82 77 81
f 77 82 79
f 76 83 74
f 83 76 84
f 87 86 85
f 86 87 88
f 75 88 87
f 88 75 73
f 85 78 80
f 78 85 86
f 80 87 85
f 87 80 75
f 75 80 79
f 75 79 76
f 76 79 82
f 76 82 84
f 73 86 88
f 86 73 78
f 78 73 74
f 78 74 77
f 77 74 83
f 77 83 81
f 91 90 89
f 90 91 92
f 93 90 92
f 90 93 94
f 91 93 92
f 93 91 95
f 96 91 89
f 91 96 95
f 96 93 95
f 93 96 94
f 3 2 1
f 2 3 4
f 7 6 5
f 6 7 8
f 3 10 9
f 10 3 1
f 13 12 11
f 12 13 14
f 17 16 15
f 16 17 18
f 19 5 6
f 5 19 20
f 16 21 15
f 21 16 22
f 23 14 13
f 14 23 24
f 3 8 4
f 8 3 6
f 6 3 9
f 6 9 19
f 19 9 12
f 19 12 18
f 18 12 14
f 18 14 16
f 16 14 24
f 16 24 22
f 5 2 7
f 2 5 1
f 1 5 10
f 10 5 20
f 10 20 11
f 11 20 17
f 11 17 13
f 13 17 15
f 13 15 23
f 23 15 21
f 27 26 25
f 26 27 28
f 28 27 29
f 28 29 30
f 30 29 31
f 30 31 32
f 26 33 25
f 33 26 34
f 29 36 35
f 36 29 27
f 25 36 27
f 36 25 33
f 37 33 34
f 33 37 36
f 36 37 38
f 36 38 35
f 35 38 39
f 35 39 40
f 28 34 26
f 34 28 37
f 38 32 39
f 32 38 30
f 39 31 40
f 31 39 32
f 40 29 35
f 29 40 31
f 28 38 37
f 38 28 30
f 43 42 41
f 42 43 44
f 47 46 45
f 46 47 48
f 51 50 49
f 50 51 52
f 50 45 49
f 45 50 47
f 44 51 42
f 51 44 52
f 55 54 53
f 54 55 56
f 43 56 55
f 56 43 41
f 53 46 48
f 46 53 54
f 48 55 53
f 55 48 43
f 43 48 47
f 43 47 44
f 44 47 50
f 44 50 52
f 41 54 56
f 54 41 46
f 46 41 42
f 46 42 45
f 45 42 51
f 45 51 49
f 59 58 57
f 58 59 60
f 63 62 61
f 62 63 64
f 67 66 65
f 66 67 68
f 66 61 65
f 61 66 63
f 60 67 58
f 67 60 68
f 71 70 69
f 70 71 72
f 59 72 71
f 72 59 57
f 69 62 64
f 62 69 70
f 64 71 69
f 71 64 59
f 59 64 63
f 59 63 60
f 60 63 66
f 60 66 68
f 57 70 72
f 70 57 62
f 62 57 58
f 62 58 61
f 61 58 67
f 61 67 65
f 75 74 73
f 74 75 76
f 79 78 77
f 78 79 80
f 83 82 81
f 82 83 84
f 82 77 81
f 77 82 79
f 76 83 74
f 83 76 84
f 87 86 85
f 86 87 88
f 75 88 87
f 88 75 73
f 85 78 80
f 78 85 86
f 80 87 85
f 87 80 75
f 75 80 79
f 75 79 76
f 76 79 82
f 76 82 84
f 73 86 88
f 86 73 78
f 78 73 74
f 78 74 77
f 77 74 83
f 77 83 81
f 91 90 89
f 90 91 92
f 93 90 92
f 90 93 94
f 91 93 92
f 93 91 95
f 96 91 89
f 91 96 95
f 96 93 95
f 93 96 94
