# City room prop — unit cell 0..1
o deskCorner
v 0.096179 0.050000 0.096179
v 0.086943 0.050000 0.096179
v 0.096179 0.349614 0.096179
v 0.086943 0.349614 0.096179
v 0.068471 0.349614 0.903821
v 0.068471 0.349614 0.096179
v 0.059236 0.349614 0.903821
v 0.059236 0.349614 0.096179
v 0.068471 0.050000 0.096179
v 0.059236 0.050000 0.096179
v 0.086943 0.050000 0.903821
v 0.096179 0.050000 0.903821
v 0.086943 0.349614 0.903821
v 0.096179 0.349614 0.903821
v 0.885046 0.349614 0.731733
v 0.885046 0.349614 0.617817
v 0.740837 0.349614 0.731733
v 0.740837 0.349614 0.617817
v 0.722062 0.349614 0.750508
v 0.903821 0.349614 0.750508
v 0.903821 0.349614 0.599042
v 0.722062 0.349614 0.599042
v 0.096179 0.050000 0.059236
v 0.059236 0.050000 0.059236
v 0.068471 0.050000 0.903821
v 0.059236 0.050000 0.940764
v 0.096179 0.050000 0.913057
v 0.096179 0.050000 0.931529
v 0.096179 0.050000 0.940764
v 0.059236 0.050000 0.903821
v 0.903821 0.050000 0.913057
v 0.903821 0.050000 0.931529
v 0.364015 0.349614 0.068471
v 0.364015 0.349614 0.059236
v 0.096179 0.349614 0.068471
v 0.096179 0.349614 0.059236
v 0.950000 0.377321 0.589806
v 0.940764 0.377321 0.940764
v 0.950000 0.377321 0.950000
v 0.050000 0.377321 0.950000
v 0.059236 0.377321 0.940764
v 0.059236 0.377321 0.059236
v 0.940764 0.377321 0.599042
v 0.410194 0.377321 0.589806
v 0.400958 0.377321 0.599042
v 0.410194 0.377321 0.050000
v 0.400958 0.377321 0.059236
v 0.050000 0.377321 0.050000
v 0.940764 0.349614 0.903821
v 0.940764 0.349614 0.635985
v 0.931529 0.349614 0.903821
v 0.931529 0.349614 0.635985
v 0.940764 0.050000 0.940764
v 0.940764 0.050000 0.903821
v 0.903821 0.050000 0.940764
v 0.903821 0.050000 0.903821
v 0.950000 0.405029 0.589806
v 0.950000 0.405029 0.950000
v 0.364015 0.096179 0.086943
v 0.096179 0.096179 0.086943
v 0.364015 0.349614 0.086943
v 0.096179 0.349614 0.086943
v 0.903821 0.349614 0.940764
v 0.903821 0.349614 0.931529
v 0.096179 0.349614 0.940764
v 0.096179 0.349614 0.931529
v 0.913057 0.275728 0.778215
v 0.694355 0.275728 0.778215
v 0.913057 0.349614 0.778215
v 0.694355 0.349614 0.778215
v 0.903821 0.303436 0.599042
v 0.903821 0.303436 0.635985
v 0.722062 0.303436 0.599042
v 0.903821 0.303436 0.750508
v 0.722062 0.303436 0.750508
v 0.400958 0.050000 0.096179
v 0.400958 0.050000 0.059236
v 0.364015 0.050000 0.096179
v 0.364015 0.050000 0.059236
v 0.050000 0.405029 0.050000
v 0.050000 0.405029 0.950000
v 0.400958 0.349614 0.096179
v 0.364015 0.349614 0.096179
v 0.410194 0.405029 0.050000
v 0.096179 0.349614 0.913057
v 0.903821 0.050000 0.599042
v 0.903821 0.275728 0.599042
v 0.903821 0.050000 0.635985
v 0.903821 0.275728 0.635985
v 0.913057 0.275728 0.635985
v 0.694355 0.275728 0.599042
v 0.096179 0.096179 0.068471
v 0.410194 0.405029 0.589806
v 0.364015 0.096179 0.068471
v 0.940764 0.050000 0.635985
v 0.940764 0.050000 0.599042
v 0.931529 0.096179 0.635985
v 0.931529 0.096179 0.903821
v 0.913057 0.096179 0.635985
v 0.400958 0.349614 0.599042
v 0.694355 0.349614 0.599042
v 0.903821 0.349614 0.903821
v 0.903821 0.349614 0.913057
v 0.913057 0.349614 0.903821
v 0.913057 0.096179 0.903821
v 0.903821 0.303436 0.750508
v 0.722062 0.303436 0.750508
v 0.903821 0.349614 0.750508
v 0.722062 0.349614 0.750508
v 0.903821 0.303436 0.599042
v 0.791884 0.317058 0.599042
v 0.722062 0.303436 0.599042
v 0.722062 0.349614 0.599042
v 0.791884 0.335992 0.599042
v 0.833999 0.335992 0.599042
v 0.833999 0.317058 0.599042
v 0.903821 0.349614 0.599042
v 0.885046 0.349614 0.731733
v 0.885046 0.349614 0.617817
v 0.740837 0.349614 0.617817
v 0.740837 0.349614 0.731733
v 0.885046 0.312671 0.731733
v 0.740837 0.312671 0.731733
v 0.885046 0.312671 0.617817
v 0.740837 0.312671 0.617817
v 0.827940 0.318952 0.587682
v 0.827940 0.334098 0.587682
v 0.797943 0.318952 0.587682
v 0.797943 0.334098 0.587682
f 2 1 3
f 3 4 2
f 6 5 7
f 7 8 6
f 10 9 6
f 6 8 10
f 12 11 13
f 13 14 12
f 16 15 17
f 17 18 16
f 19 17 15
f 19 18 17
f 20 19 15
f 15 21 20
f 21 15 16
f 16 22 21
f 16 18 22
f 18 19 22
f 23 1 2
f 2 24 23
f 2 9 24
f 9 10 24
f 25 9 2
f 2 11 25
f 26 25 11
f 26 11 12
f 26 12 27
f 26 27 28
f 28 29 26
f 26 30 25
f 28 27 31
f 31 32 28
f 25 30 7
f 7 5 25
f 34 33 35
f 35 36 34
f 6 9 25
f 25 5 6
f 2 4 13
f 13 11 2
f 38 37 39
f 39 40 38
f 40 41 38
f 40 42 41
f 37 38 43
f 43 44 37
f 43 45 44
f 45 46 44
f 45 47 46
f 47 48 46
f 47 42 48
f 42 40 48
f 50 49 51
f 51 52 50
f 54 53 55
f 55 56 54
f 55 32 56
f 32 31 56
f 37 57 58
f 58 39 37
f 60 59 61
f 61 62 60
f 64 63 65
f 65 66 64
f 68 67 69
f 69 70 68
f 72 71 73
f 73 74 72
f 73 75 74
f 77 76 78
f 78 79 77
f 80 48 40
f 40 81 80
f 78 76 82
f 82 83 78
f 46 48 80
f 80 84 46
f 12 14 85
f 85 27 12
f 87 86 88
f 88 89 87
f 90 67 68
f 68 89 90
f 68 87 89
f 68 91 87
f 7 30 26
f 7 26 41
f 8 7 41
f 8 41 42
f 10 8 42
f 42 24 10
f 55 53 38
f 38 63 55
f 38 65 63
f 65 38 41
f 65 41 26
f 26 29 65
f 21 71 72
f 72 20 21
f 72 74 20
f 60 62 3
f 60 3 1
f 92 60 1
f 92 1 23
f 35 92 23
f 23 36 35
f 58 57 93
f 93 81 58
f 93 84 81
f 84 80 81
f 94 59 60
f 60 92 94
f 94 34 79
f 79 78 94
f 78 59 94
f 78 61 59
f 78 83 61
f 34 94 33
f 28 66 65
f 65 29 28
f 96 95 88
f 88 86 96
f 33 94 92
f 92 35 33
f 46 84 93
f 93 44 46
f 23 24 42
f 42 36 23
f 42 34 36
f 34 42 47
f 34 47 77
f 77 79 34
f 97 52 51
f 51 98 97
f 37 44 93
f 93 57 37
f 97 88 95
f 95 50 97
f 50 52 97
f 88 97 99
f 99 89 88
f 99 90 89
f 40 39 58
f 58 81 40
f 101 100 45
f 45 22 101
f 45 21 22
f 21 45 43
f 71 21 43
f 87 71 43
f 87 43 96
f 96 86 87
f 87 73 71
f 101 22 73
f 73 87 91
f 91 101 73
f 3 14 13
f 13 4 3
f 85 14 3
f 85 3 61
f 85 61 83
f 85 83 82
f 85 82 100
f 85 100 101
f 85 101 70
f 85 70 102
f 102 103 85
f 3 62 61
f 102 70 69
f 69 104 102
f 105 54 56
f 56 102 105
f 102 104 105
f 54 105 98
f 98 49 54
f 98 51 49
f 103 31 27
f 27 85 103
f 73 22 19
f 19 75 73
f 97 98 105
f 105 99 97
f 74 75 19
f 19 20 74
f 64 32 55
f 55 63 64
f 101 91 68
f 68 70 101
f 82 77 47
f 47 45 82
f 45 100 82
f 77 82 76
f 90 99 105
f 105 67 90
f 105 69 67
f 105 104 69
f 96 50 95
f 50 96 43
f 43 38 50
f 38 49 50
f 38 54 49
f 38 53 54
f 28 32 64
f 64 66 28
f 102 56 31
f 31 103 102
f 107 106 108
f 108 109 107
f 111 110 112
f 112 113 111
f 113 114 111
f 113 115 114
f 110 111 116
f 116 117 110
f 116 115 117
f 115 113 117
f 110 117 108
f 108 106 110
f 110 106 107
f 107 112 110
f 113 112 107
f 107 109 113
f 119 118 117
f 117 113 119
f 113 120 119
f 113 109 120
f 118 109 108
f 108 117 118
f 118 121 109
f 121 120 109
f 123 122 124
f 124 125 123
f 125 120 121
f 121 123 125
f 122 123 121
f 121 118 122
f 119 124 122
f 122 118 119
f 125 124 119
f 119 120 125
f 116 126 127
f 127 115 116
f 129 128 111
f 111 114 129
f 114 115 127
f 127 129 114
f 126 116 111
f 111 128 126
f 126 128 129
f 129 127 126
