# City room prop — unit cell 0..1
o desk
v 0.099014 0.111268 0.679087
v 0.099014 0.111268 0.323731
v 0.074507 0.111268 0.679087
v 0.074507 0.111268 0.323731
v 0.111268 0.050000 0.323731
v 0.111268 0.050000 0.274717
v 0.062254 0.050000 0.323731
v 0.062254 0.050000 0.274717
v 0.062254 0.050000 0.679087
v 0.062254 0.447518 0.679087
v 0.062254 0.050000 0.728102
v 0.062254 0.484278 0.728102
v 0.062254 0.447518 0.323731
v 0.062254 0.484278 0.274717
v 0.937746 0.447518 0.679087
v 0.937746 0.447518 0.323731
v 0.925493 0.447518 0.679087
v 0.925493 0.447518 0.323731
v 0.937746 0.050000 0.728102
v 0.937746 0.050000 0.679087
v 0.888732 0.050000 0.728102
v 0.888732 0.050000 0.679087
v 0.888732 0.050000 0.715848
v 0.888732 0.050000 0.691341
v 0.111268 0.050000 0.715848
v 0.111268 0.050000 0.691341
v 0.111268 0.050000 0.728102
v 0.111268 0.050000 0.679087
v 0.937746 0.050000 0.323731
v 0.937746 0.050000 0.274717
v 0.888732 0.050000 0.323731
v 0.888732 0.050000 0.274717
v 0.111268 0.447518 0.274717
v 0.111268 0.447518 0.323731
v 0.950000 0.521039 0.262463
v 0.950000 0.521039 0.740355
v 0.050000 0.521039 0.262463
v 0.050000 0.521039 0.740355
v 0.937746 0.484278 0.274717
v 0.937746 0.484278 0.728102
v 0.050000 0.484278 0.262463
v 0.950000 0.484278 0.262463
v 0.950000 0.484278 0.740355
v 0.050000 0.484278 0.740355
v 0.925493 0.111268 0.679087
v 0.925493 0.111268 0.323731
v 0.900985 0.111268 0.679087
v 0.900985 0.111268 0.323731
v 0.099014 0.447518 0.323731
v 0.099014 0.447518 0.679087
v 0.074507 0.447518 0.679087
v 0.111268 0.447518 0.679087
v 0.074507 0.447518 0.323731
v 0.888732 0.447518 0.728102
v 0.111268 0.447518 0.728102
v 0.888732 0.349488 0.274717
v 0.888732 0.349488 0.323731
v 0.888732 0.447518 0.679087
v 0.900985 0.447518 0.679087
v 0.900985 0.349488 0.323731
v 0.111268 0.447518 0.715848
v 0.888732 0.447518 0.715848
v 0.111268 0.447518 0.691341
v 0.888732 0.447518 0.691341
v 0.888732 0.447518 0.475677
v 0.888732 0.447518 0.274717
v 0.647580 0.447518 0.475677
v 0.647580 0.447518 0.274717
v 0.900985 0.349488 0.512437
v 0.900985 0.447518 0.512437
v 0.610819 0.447518 0.274717
v 0.610819 0.447518 0.512437
v 0.610819 0.349488 0.512437
v 0.610819 0.349488 0.274717
v 0.888732 0.386249 0.274717
v 0.888732 0.386249 0.323731
v 0.647580 0.386249 0.274717
v 0.888732 0.386249 0.475677
v 0.647580 0.386249 0.475677
v 0.888732 0.386249 0.475677
v 0.647580 0.386249 0.475677
v 0.888732 0.447518 0.475677
v 0.647580 0.447518 0.475677
v 0.888732 0.386249 0.274717
v 0.740218 0.404323 0.274717
v 0.647580 0.386249 0.274717
v 0.647580 0.447518 0.274717
v 0.740218 0.429443 0.274717
v 0.796094 0.429443 0.274717
v 0.796094 0.404323 0.274717
v 0.888732 0.447518 0.274717
v 0.863821 0.447518 0.450766
v 0.863821 0.447518 0.299627
v 0.672491 0.447518 0.299627
v 0.672491 0.447518 0.450766
v 0.863821 0.398503 0.450766
v 0.672491 0.398503 0.450766
v 0.863821 0.398503 0.299627
v 0.672491 0.398503 0.299627
v 0.788056 0.406835 0.259645
v 0.788056 0.426931 0.259645
v 0.748256 0.406835 0.259645
v 0.748256 0.426931 0.259645
f 2 1 3
f 3 4 2
f 6 5 7
f 7 8 6
f 10 9 11
f 10 11 12
f 13 10 12
f 13 12 14
f 7 13 14
f 14 8 7
f 16 15 17
f 17 18 16
f 20 19 21
f 21 22 20
f 21 23 22
f 23 24 22
f 24 23 25
f 25 26 24
f 11 26 25
f 25 27 11
f 11 28 26
f 11 9 28
f 30 29 31
f 31 32 30
f 6 33 34
f 34 5 6
f 36 35 37
f 37 38 36
f 30 16 29
f 16 30 39
f 39 40 16
f 40 15 16
f 40 20 15
f 40 19 20
f 42 41 37
f 37 35 42
f 42 35 36
f 36 43 42
f 40 42 43
f 43 44 40
f 44 12 40
f 44 14 12
f 42 40 39
f 39 41 42
f 39 14 41
f 14 44 41
f 37 41 44
f 44 38 37
f 44 43 36
f 36 38 44
f 46 45 47
f 47 48 46
f 2 49 50
f 50 1 2
f 3 28 9
f 9 10 3
f 10 51 3
f 28 3 1
f 1 52 28
f 1 50 52
f 53 4 3
f 3 51 53
f 2 7 5
f 5 34 2
f 34 49 2
f 7 2 4
f 4 13 7
f 4 53 13
f 21 19 40
f 40 54 21
f 40 55 54
f 55 40 12
f 55 12 11
f 11 27 55
f 56 32 31
f 31 57 56
f 47 20 22
f 22 58 47
f 58 59 47
f 20 47 45
f 45 15 20
f 45 17 15
f 46 18 17
f 17 45 46
f 46 31 29
f 29 16 46
f 16 18 46
f 31 46 48
f 48 57 31
f 48 60 57
f 25 61 55
f 55 27 25
f 62 23 21
f 21 54 62
f 62 54 55
f 55 61 62
f 25 23 62
f 62 61 25
f 24 26 63
f 63 64 24
f 28 52 63
f 63 26 28
f 58 22 24
f 24 64 58
f 66 65 67
f 67 68 66
f 53 51 10
f 10 13 53
f 60 48 47
f 47 69 60
f 47 70 69
f 47 59 70
f 34 52 50
f 50 49 34
f 52 34 33
f 63 52 33
f 63 33 71
f 63 71 72
f 63 72 58
f 58 64 63
f 58 72 70
f 70 59 58
f 73 69 70
f 70 72 73
f 71 74 73
f 73 72 71
f 76 75 77
f 77 78 76
f 77 79 78
f 60 69 73
f 73 57 60
f 73 56 57
f 73 74 56
f 66 75 76
f 76 65 66
f 76 78 65
f 77 68 67
f 67 79 77
f 78 79 67
f 67 65 78
f 6 8 14
f 14 33 6
f 14 68 33
f 14 66 68
f 66 14 39
f 75 66 39
f 56 75 39
f 56 39 30
f 30 32 56
f 56 77 75
f 77 56 74
f 74 71 77
f 71 68 77
f 71 33 68
f 81 80 82
f 82 83 81
f 85 84 86
f 86 87 85
f 87 88 85
f 87 89 88
f 84 85 90
f 90 91 84
f 90 89 91
f 89 87 91
f 84 91 82
f 82 80 84
f 84 80 81
f 81 86 84
f 87 86 81
f 81 83 87
f 93 92 91
f 91 87 93
f 87 94 93
f 87 83 94
f 92 83 82
f 82 91 92
f 92 95 83
f 95 94 83
f 97 96 98
f 98 99 97
f 99 94 95
f 95 97 99
f 96 97 95
f 95 92 96
f 93 98 96
f 96 92 93
f 99 98 93
f 93 94 99
f 90 100 101
f 101 89 90
f 103 102 85
f 85 88 103
f 88 89 101
f 101 103 88
f 100 90 85
f 85 102 100
f 100 102 103
f 103 101 100
