# City room prop — voxel footprint 4x2x1 (0.5 m cells)
o fence_simpleHigh
v 0.404124 1.172060 0.370103
v 0.404124 0.040000 0.370103
v 0.404124 1.172060 0.629897
v 0.404124 0.040000 0.629897
v 0.144330 0.040000 0.370103
v 0.144330 1.172060 0.370103
v 0.144330 0.040000 0.629897
v 3.855670 0.040000 0.629897
v 3.595876 0.040000 0.629897
v 3.855670 1.172060 0.629897
v 3.595876 1.172060 0.629897
v 3.932135 1.172060 0.706361
v 0.067865 1.172060 0.706361
v 3.932135 1.320514 0.706361
v 0.067865 1.320514 0.706361
v 3.932135 1.172060 0.293639
v 3.595876 1.172060 0.370103
v 0.144330 1.172060 0.629897
v 3.855670 1.172060 0.370103
v 0.067865 1.172060 0.293639
v 3.595876 0.040000 0.370103
v 3.855670 0.040000 0.370103
v 3.932135 1.320514 0.293639
v 0.067865 1.320514 0.293639
f 3 2 1
f 2 3 4
f 6 2 5
f 2 6 1
f 7 2 4
f 2 7 5
f 10 9 8
f 9 10 11
f 14 13 12
f 13 14 15
f 12 10 16
f 10 12 13
f 10 13 11
f 11 13 17
f 17 13 3
f 3 13 18
f 18 13 6
f 19 16 10
f 16 19 20
f 20 19 17
f 20 6 13
f 20 17 1
f 1 17 3
f 20 1 6
f 17 22 21
f 22 17 19
f 14 16 23
f 16 14 12
f 24 16 20
f 16 24 23
f 13 24 20
f 24 13 15
f 10 22 19
f 22 10 8
f 9 17 21
f 17 9 11
f 9 22 8
f 22 9 21
f 24 14 23
f 14 24 15
f 3 7 4
f 7 3 18
f 7 6 5
f 6 7 18
