# City room prop — voxel footprint 1x2x4 (0.5 m cells)
o fence_simpleHigh_z
v 0.370103 1.172060 3.595876
v 0.370103 0.040000 3.595876
v 0.629897 1.172060 3.595876
v 0.629897 0.040000 3.595876
v 0.370103 0.040000 3.855670
v 0.370103 1.172060 3.855670
v 0.629897 0.040000 3.855670
v 0.629897 0.040000 0.144330
v 0.629897 0.040000 0.404124
v 0.629897 1.172060 0.144330
v 0.629897 1.172060 0.404124
v 0.706361 1.172060 0.067865
v 0.706361 1.172060 3.932135
v 0.706361 1.320514 0.067865
v 0.706361 1.320514 3.932135
v 0.293639 1.172060 0.067865
v 0.370103 1.172060 0.404124
v 0.629897 1.172060 3.855670
v 0.370103 1.172060 0.144330
v 0.293639 1.172060 3.932135
v 0.370103 0.040000 0.404124
v 0.370103 0.040000 0.144330
v 0.293639 1.320514 0.067865
v 0.293639 1.320514 3.932135
f 3 2 1
f 2 3 4
f 6 2 5
f 2 6 1
f 7 2 4
f 2 7 5
f 10 9 8
f 9 10 11
f 14 13 12
f 13 14 15
f 12 10 16
f 10 12 13
f 10 13 11
f 11 13 17
f 17 13 3
f 3 13 18
f 18 13 6
f 19 16 10
f 16 19 20
f 20 19 17
f 20 6 13
f 20 17 1
f 1 17 3
f 20 1 6
f 17 22 21
f 22 17 19
f 14 16 23
f 16 14 12
f 24 16 20
f 16 24 23
f 13 24 20
f 24 13 15
f 10 22 19
f 22 10 8
f 9 17 21
f 17 9 11
f 9 22 8
f 22 9 21
f 24 14 23
f 14 24 15
f 3 7 4
f 7 3 18
f 7 6 5
f 6 7 18
