# City room prop — voxel footprint 4x1x1 (0.5 m cells)
o fence_simpleLow
v 3.595876 0.040000 0.629897
v 3.595876 0.615359 0.629897
v 3.855670 0.040000 0.629897
v 3.855670 0.615359 0.629897
v 3.855670 0.615359 0.370103
v 3.855670 0.040000 0.370103
v 3.932135 0.763813 0.293639
v 3.932135 0.615359 0.293639
v 3.932135 0.763813 0.706361
v 3.932135 0.615359 0.706361
v 0.067865 0.763813 0.293639
v 0.067865 0.763813 0.706361
v 3.595876 0.040000 0.370103
v 3.595876 0.615359 0.370103
v 0.404124 0.040000 0.629897
v 0.404124 0.040000 0.370103
v 0.144330 0.040000 0.629897
v 0.144330 0.040000 0.370103
v 0.404124 0.615359 0.629897
v 0.144330 0.615359 0.629897
v 0.144330 0.615359 0.370103
v 0.404124 0.615359 0.370103
v 0.067865 0.615359 0.293639
v 0.067865 0.615359 0.706361
f 3 2 1
f 2 3 4
f 4 6 5
f 6 4 3
f 9 8 7
f 8 9 10
f 11 9 7
f 9 11 12
f 1 14 13
f 14 1 2
f 14 6 13
f 6 14 5
f 17 16 15
f 16 17 18
f 19 17 15
f 17 19 20
f 21 16 18
f 16 21 22
f 19 16 22
f 16 19 15
f 1 6 3
f 6 1 13
f 24 11 23
f 11 24 12
f 11 8 23
f 8 11 7
f 9 24 10
f 24 9 12
f 17 21 18
f 21 17 20
f 10 4 8
f 4 10 24
f 4 24 2
f 2 24 14
f 14 24 19
f 19 24 20
f 20 24 21
f 5 8 4
f 8 5 23
f 23 5 14
f 23 21 24
f 23 14 22
f 22 14 19
f 23 22 21
