# City room prop — voxel footprint 1x2x4 (0.5 m cells)
o fence_simple_z
v 0.548062 0.859529 0.404124
v 0.451938 0.859529 0.404124
v 0.548062 0.859529 3.595876
v 0.451938 0.859529 3.595876
v 0.548062 0.270492 0.404124
v 0.451938 0.270492 0.404124
v 0.548062 0.270492 3.595876
v 0.451938 0.270492 3.595876
v 0.629897 0.040000 3.595876
v 0.629897 0.040000 3.855670
v 0.629897 1.320514 3.595876
v 0.629897 1.320514 3.855670
v 0.629897 0.040000 0.144330
v 0.629897 0.040000 0.404124
v 0.629897 1.320514 0.144330
v 0.629897 1.320514 0.404124
v 0.451938 0.500985 0.404124
v 0.548062 0.500985 0.404124
v 0.451938 0.500985 3.595876
v 0.548062 0.500985 3.595876
v 0.370103 0.040000 0.404124
v 0.370103 0.040000 0.144330
v 0.370103 1.320514 0.404124
v 0.370103 1.320514 0.144330
v 0.370103 1.320514 3.595876
v 0.370103 1.320514 3.855670
v 0.370103 0.040000 3.595876
v 0.370103 0.040000 3.855670
v 0.451938 1.090021 0.404124
v 0.548062 1.090021 0.404124
v 0.451938 1.090021 3.595876
v 0.548062 1.090021 3.595876
f 3 2 1
f 2 3 4
f 7 6 5
f 6 7 8
f 11 10 9
f 10 11 12
f 15 14 13
f 14 15 16
f 19 18 17
f 18 19 20
f 23 22 21
f 22 23 24
f 26 11 25
f 11 26 12
f 14 22 13
f 22 14 21
f 10 27 9
f 27 10 28
f 31 30 29
f 30 31 32
f 25 31 27
f 31 25 11
f 31 11 32
f 32 11 3
f 3 11 20
f 20 11 7
f 8 27 31
f 27 8 9
f 9 8 7
f 9 7 11
f 8 31 4
f 8 4 19
f 3 19 4
f 19 3 20
f 23 15 24
f 15 23 16
f 15 22 24
f 22 15 13
f 26 27 28
f 27 26 25
f 10 26 28
f 26 10 12
f 21 6 23
f 6 21 14
f 6 14 5
f 5 14 18
f 18 14 1
f 1 14 30
f 29 23 6
f 23 29 16
f 16 29 30
f 16 30 14
f 29 6 17
f 29 17 2
f 18 2 17
f 2 18 1
f 19 6 8
f 6 19 17
f 30 3 1
f 3 30 32
f 31 2 4
f 2 31 29
f 18 7 5
f 7 18 20
