# City room prop — voxel footprint 1x2x4 (0.5 m cells)
o fence_gate_z
v 0.629897 0.040000 3.595876
v 0.370103 0.040000 3.595876
v 0.629897 0.040000 3.855670
v 0.370103 0.040000 3.855670
v 0.370103 1.320514 0.404124
v 0.451938 0.270492 0.404124
v 0.370103 0.040000 0.404124
v 0.629897 0.040000 0.404124
v 0.548062 0.270492 0.404124
v 0.548062 0.500985 0.404124
v 0.548062 0.859529 0.404124
v 0.548062 1.090021 0.404124
v 0.451938 1.090021 0.404124
v 0.629897 1.320514 0.404124
v 0.451938 0.500985 0.404124
v 0.451938 0.859529 0.404124
v 0.629897 0.040000 0.144330
v 0.629897 1.320514 0.144330
v 0.370103 0.040000 1.443299
v 0.370103 1.320514 1.443299
v 0.629897 0.040000 1.443299
v 0.629897 1.320514 1.443299
v 0.629897 0.040000 1.183505
v 0.370103 0.040000 1.183505
v 0.548062 0.270492 2.816495
v 0.451938 0.270492 2.816495
v 0.548062 0.270492 3.595876
v 0.451938 0.270492 3.595876
v 0.629897 1.320514 3.595876
v 0.629897 1.320514 3.855670
v 0.370103 1.320514 2.556701
v 0.370103 0.040000 2.556701
v 0.629897 1.320514 2.556701
v 0.629897 0.040000 2.556701
v 0.370103 1.320514 2.816495
v 0.629897 1.320514 2.816495
v 0.370103 1.320514 1.183505
v 0.629897 1.320514 1.183505
v 0.370103 0.040000 0.144330
v 0.370103 1.320514 0.144330
v 0.451938 1.090021 3.595876
v 0.370103 1.320514 3.595876
v 0.548062 1.090021 3.595876
v 0.548062 0.859529 3.595876
v 0.548062 0.500985 3.595876
v 0.451938 0.859529 3.595876
v 0.451938 0.500985 3.595876
v 0.370103 1.320514 3.855670
v 0.629897 0.040000 2.816495
v 0.370103 0.040000 2.816495
v 0.451938 1.090021 1.183505
v 0.548062 1.090021 1.183505
v 0.548062 0.270492 1.183505
v 0.451938 0.270492 1.183505
v 0.451938 0.500985 2.816495
v 0.548062 0.500985 2.816495
v 0.451938 0.500985 1.183505
v 0.548062 0.500985 1.183505
v 0.451938 0.859529 1.183505
v 0.548062 0.859529 1.183505
v 0.548062 0.859529 2.816495
v 0.451938 0.859529 2.816495
v 0.451938 1.090021 2.816495
v 0.548062 1.090021 2.816495
v 0.629897 0.218013 1.538464
v 0.370103 0.218013 1.538464
v 0.629897 0.211531 1.557559
v 0.370103 0.211531 1.557559
v 0.629897 1.168351 1.702722
v 0.629897 1.198156 1.799423
v 0.370103 1.168351 1.702722
v 0.370103 1.198156 1.799423
v 0.629897 1.216211 2.101010
v 0.370103 1.216211 2.101010
v 0.629897 1.222258 2.000000
v 0.370103 1.222258 2.000000
v 0.629897 0.266591 2.524845
v 0.370103 0.266591 2.524845
v 0.629897 0.283358 2.536048
v 0.370103 0.283358 2.536048
v 0.629897 1.216211 1.898990
v 0.370103 1.216211 1.898990
v 0.370103 0.251431 1.488451
v 0.629897 0.251431 1.488451
v 0.370103 0.266591 1.475155
v 0.629897 0.266591 1.475155
v 0.629897 0.238135 1.503612
v 0.370103 0.238135 1.503612
v 0.629897 1.013495 1.443299
v 0.629897 0.943817 1.443299
v 0.629897 1.075356 1.523379
v 0.629897 0.943817 1.494814
v 0.629897 0.834222 1.494814
v 0.629897 0.526292 1.494814
v 0.629897 0.416696 1.494814
v 0.629897 0.226932 1.520379
v 0.629897 0.943817 1.585171
v 0.629897 1.127222 1.610266
v 0.629897 0.207597 1.577336
v 0.629897 0.957891 1.603388
v 0.629897 1.001050 1.675690
v 0.629897 1.035275 1.752625
v 0.629897 1.060076 1.833094
v 0.629897 1.075100 1.915947
v 0.629897 1.080132 2.000000
v 0.629897 1.075100 2.084054
v 0.629897 1.060076 2.166906
v 0.629897 1.198156 2.200577
v 0.629897 1.035275 2.247375
v 0.629897 1.168351 2.297279
v 0.629897 1.001050 2.324310
v 0.629897 1.127222 2.389734
v 0.629897 0.957891 2.396612
v 0.629897 1.075356 2.476621
v 0.629897 0.943817 2.414829
v 0.629897 0.365082 2.414829
v 0.629897 0.207597 2.422664
v 0.629897 0.211531 2.442441
v 0.629897 0.218013 2.461536
v 0.629897 0.226932 2.479621
v 0.629897 1.013495 2.556701
v 0.629897 0.238135 2.496388
v 0.629897 0.251431 2.511549
v 0.629897 0.301443 2.544967
v 0.629897 0.320538 2.551448
v 0.629897 0.340316 2.555382
v 0.629897 0.360437 2.556701
v 0.629897 0.358873 2.414422
v 0.629897 0.357336 2.414117
v 0.629897 0.355852 2.413613
v 0.629897 0.354446 2.412920
v 0.629897 0.353143 2.412049
v 0.629897 0.351964 2.411015
v 0.629897 0.350931 2.409837
v 0.629897 0.350060 2.408534
v 0.629897 0.349367 2.407128
v 0.629897 0.348863 2.405643
v 0.629897 0.348557 2.404106
v 0.629897 0.206278 2.402542
v 0.629897 0.348150 2.397898
v 0.629897 0.348150 1.602102
v 0.629897 0.206278 1.597458
v 0.629897 0.348557 1.595894
v 0.629897 0.348863 1.594357
v 0.629897 0.349367 1.592872
v 0.629897 0.350060 1.591466
v 0.629897 0.350931 1.590163
v 0.629897 0.351964 1.588985
v 0.629897 0.353143 1.587951
v 0.629897 0.354446 1.587080
v 0.629897 0.355852 1.586387
v 0.629897 0.357336 1.585883
v 0.629897 0.358873 1.585578
v 0.629897 0.365082 1.585171
v 0.629897 0.416696 1.443299
v 0.629897 0.360437 1.443299
v 0.629897 0.340316 1.444618
v 0.629897 0.320538 1.448552
v 0.629897 0.301443 1.455033
v 0.629897 0.283358 1.463952
v 0.629897 0.834222 1.443299
v 0.629897 0.526292 1.443299
v 0.370103 0.320538 2.551448
v 0.370103 0.340316 2.555382
v 0.370103 0.340316 1.444618
v 0.370103 0.360437 1.443299
v 0.370103 0.301443 2.544967
v 0.370103 0.251431 2.511549
v 0.370103 1.075356 2.476621
v 0.370103 1.013495 2.556701
v 0.370103 1.198156 2.200577
v 0.370103 0.301443 1.455033
v 0.370103 0.320538 1.448552
v 0.370103 0.226932 2.479621
v 0.370103 0.238135 2.496388
v 0.370103 0.416696 1.443299
v 0.370103 0.283358 1.463952
v 0.370103 0.360437 2.556701
v 0.370103 1.168351 2.297279
v 0.370103 1.127222 2.389734
v 0.370103 0.206278 2.402542
v 0.370103 0.206278 1.597458
v 0.370103 0.226932 1.520379
v 0.370103 1.075356 1.523379
v 0.370103 1.013495 1.443299
v 0.370103 0.943817 1.443299
v 0.370103 0.207597 1.577336
v 0.370103 0.218013 2.461536
v 0.370103 0.207597 2.422664
v 0.370103 0.526292 1.443299
v 0.370103 0.834222 1.443299
v 0.370103 0.211531 2.442441
v 0.370103 1.127222 1.610266
v 0.370103 0.416696 1.494814
v 0.370103 0.526292 1.494814
v 0.370103 0.834222 1.494814
v 0.370103 0.943817 1.494814
v 0.370103 0.943817 1.585171
v 0.370103 0.365082 1.585171
v 0.370103 0.358873 1.585578
v 0.370103 0.357336 1.585883
v 0.370103 0.355852 1.586387
v 0.370103 0.354446 1.587080
v 0.370103 0.353143 1.587951
v 0.370103 0.351964 1.588985
v 0.370103 0.350931 1.590163
v 0.370103 0.350060 1.591466
v 0.370103 0.349367 1.592872
v 0.370103 0.348863 1.594356
v 0.370103 0.348557 1.595894
v 0.370103 0.348150 1.602102
v 0.370103 0.348150 2.397898
v 0.370103 0.348557 2.404106
v 0.370103 0.348863 2.405643
v 0.370103 0.349367 2.407128
v 0.370103 0.350060 2.408534
v 0.370103 0.350931 2.409837
v 0.370103 0.351964 2.411015
v 0.370103 0.353143 2.412049
v 0.370103 0.354446 2.412920
v 0.370103 0.355852 2.413613
v 0.370103 0.357336 2.414117
v 0.370103 0.358873 2.414422
v 0.370103 0.365082 2.414829
v 0.370103 0.943817 2.414829
v 0.370103 0.957891 2.396612
v 0.370103 1.001050 2.324310
v 0.370103 1.035275 2.247375
v 0.370103 1.060076 2.166906
v 0.370103 1.075100 2.084054
v 0.370103 1.080132 2.000000
v 0.370103 1.075100 1.915947
v 0.370103 1.060076 1.833094
v 0.370103 1.035275 1.752625
v 0.370103 1.001050 1.675690
v 0.370103 0.957891 1.603388
v 0.629897 0.867623 1.725025
v 0.629897 0.488004 1.725025
v 0.629897 0.876672 1.740184
v 0.629897 0.488004 2.000000
v 0.629897 0.904090 1.801819
v 0.629897 0.923960 1.866285
v 0.629897 0.935996 1.932662
v 0.629897 0.940027 2.000000
v 0.629897 0.935996 2.067338
v 0.629897 0.488004 2.097014
v 0.629897 0.923960 2.133715
v 0.629897 0.488004 2.274975
v 0.629897 0.904090 2.198181
v 0.629897 0.876672 2.259816
v 0.629897 0.867623 2.274975
v 0.370103 0.488004 1.725025
v 0.370103 0.867623 1.725025
v 0.370103 0.488004 2.274975
v 0.370103 0.876672 1.740184
v 0.370103 0.904090 1.801819
v 0.370103 0.923960 1.866285
v 0.370103 0.935996 1.932662
v 0.370103 0.940027 2.000000
v 0.370103 0.935996 2.067338
v 0.370103 0.923960 2.133715
v 0.370103 0.904090 2.198181
v 0.370103 0.876672 2.259816
v 0.370103 0.867623 2.274975
f 3 2 1
f 2 3 4
f 7 6 5
f 6 7 8
f 6 8 9
f 9 8 10
f 10 8 11
f 11 8 12
f 13 5 6
f 5 13 14
f 14 13 12
f 14 12 8
f 13 6 15
f 13 15 16
f 10 16 15
f 16 10 11
f 18 8 17
f 8 18 14
f 21 20 19
f 20 21 22
f 21 24 23
f 24 21 19
f 27 26 25
f 26 27 28
f 29 3 1
f 3 29 30
f 33 32 31
f 32 33 34
f 35 33 31
f 33 35 36
f 20 38 37
f 38 20 22
f 20 24 19
f 24 20 37
f 38 21 23
f 21 38 22
f 8 39 17
f 39 8 7
f 5 39 7
f 39 5 40
f 42 41 2
f 41 42 29
f 41 29 43
f 43 29 44
f 44 29 45
f 45 29 27
f 28 2 41
f 2 28 1
f 1 28 27
f 1 27 29
f 28 41 46
f 28 46 47
f 44 47 46
f 47 44 45
f 48 2 4
f 2 48 42
f 49 32 34
f 32 49 50
f 5 18 40
f 18 5 14
f 51 12 13
f 12 51 52
f 3 48 4
f 48 3 30
f 53 6 9
f 6 53 54
f 47 56 55
f 56 47 45
f 57 10 15
f 10 57 58
f 35 32 50
f 32 35 31
f 60 57 59
f 57 60 58
f 60 38 58
f 52 38 60
f 51 38 52
f 51 37 38
f 37 51 24
f 58 38 53
f 54 24 51
f 54 51 59
f 54 59 57
f 24 54 23
f 23 54 53
f 23 53 38
f 60 16 11
f 16 60 59
f 48 29 42
f 29 48 30
f 44 62 61
f 62 44 46
f 18 39 40
f 39 18 17
f 41 64 63
f 64 41 43
f 33 49 34
f 49 33 36
f 41 62 46
f 62 41 63
f 64 44 61
f 44 64 43
f 56 27 25
f 27 56 45
f 10 53 9
f 53 10 58
f 47 26 28
f 26 47 55
f 57 6 54
f 6 57 15
f 12 60 11
f 60 12 52
f 50 26 35
f 26 50 49
f 26 49 25
f 25 49 56
f 56 49 61
f 61 49 64
f 63 35 26
f 35 63 36
f 36 63 64
f 36 64 49
f 63 26 55
f 63 55 62
f 56 62 55
f 62 56 61
f 51 16 59
f 16 51 13
f 67 66 65
f 66 67 68
f 71 70 69
f 70 71 72
f 75 74 73
f 74 75 76
f 79 78 77
f 78 79 80
f 70 82 81
f 82 70 72
f 85 84 83
f 84 85 86
f 88 84 87
f 84 88 83
f 91 90 89
f 90 91 92
f 92 91 93
f 93 91 94
f 94 91 95
f 95 91 87
f 87 91 96
f 96 91 65
f 65 91 97
f 97 91 98
f 65 97 67
f 67 97 99
f 97 98 100
f 100 98 101
f 101 98 69
f 101 69 102
f 102 69 70
f 102 70 103
f 103 70 81
f 103 81 104
f 104 81 75
f 104 75 105
f 105 75 73
f 105 73 106
f 106 73 107
f 107 73 108
f 107 108 109
f 109 108 110
f 109 110 111
f 111 110 112
f 111 112 113
f 113 112 114
f 113 114 115
f 115 114 116
f 116 114 117
f 117 114 118
f 118 114 119
f 119 114 120
f 120 114 121
f 120 121 122
f 122 121 123
f 123 121 77
f 77 121 79
f 79 121 124
f 124 121 125
f 125 121 126
f 126 121 127
f 117 128 116
f 117 129 128
f 117 130 129
f 117 131 130
f 117 132 131
f 117 133 132
f 117 134 133
f 117 135 134
f 117 136 135
f 117 137 136
f 117 138 137
f 139 138 117
f 139 140 138
f 139 141 140
f 142 141 139
f 142 143 141
f 142 144 143
f 142 145 144
f 142 146 145
f 142 147 146
f 142 148 147
f 142 149 148
f 142 150 149
f 142 151 150
f 142 152 151
f 142 153 152
f 99 153 142
f 153 99 154
f 154 99 97
f 95 156 155
f 156 95 157
f 157 95 158
f 158 95 159
f 159 95 160
f 160 95 86
f 86 95 84
f 84 95 87
f 93 162 161
f 162 93 94
f 126 163 125
f 163 126 164
f 166 157 165
f 157 166 156
f 125 167 124
f 167 125 163
f 77 168 123
f 168 77 78
f 169 121 114
f 121 169 170
f 74 108 73
f 108 74 171
f 173 159 172
f 159 173 158
f 122 174 120
f 174 122 175
f 176 156 166
f 156 176 155
f 177 86 85
f 86 177 160
f 165 158 173
f 158 165 157
f 127 164 126
f 164 127 178
f 168 122 123
f 122 168 175
f 179 112 110
f 112 179 180
f 181 142 139
f 142 181 182
f 172 160 177
f 160 172 159
f 66 96 65
f 96 66 183
f 108 179 110
f 179 108 171
f 89 184 91
f 184 89 185
f 185 90 186
f 90 185 89
f 182 99 142
f 99 182 187
f 112 169 114
f 169 112 180
f 174 119 120
f 119 174 188
f 96 88 87
f 88 96 183
f 117 181 139
f 181 117 189
f 124 80 79
f 80 124 167
f 191 162 190
f 162 191 161
f 192 117 118
f 117 192 189
f 99 68 67
f 68 99 187
f 121 178 127
f 178 121 170
f 184 98 91
f 98 184 193
f 165 176 166
f 176 165 194
f 194 165 173
f 194 173 172
f 194 172 177
f 194 177 85
f 194 85 83
f 194 83 88
f 194 88 195
f 195 88 196
f 196 88 197
f 184 197 88
f 185 197 184
f 197 185 186
f 184 88 183
f 184 183 66
f 184 66 198
f 184 198 193
f 198 66 68
f 198 68 187
f 198 187 199
f 187 200 199
f 200 187 182
f 200 182 201
f 201 182 202
f 202 182 203
f 203 182 204
f 204 182 205
f 205 182 206
f 206 182 207
f 207 182 208
f 208 182 209
f 209 182 210
f 210 182 211
f 211 182 181
f 211 181 212
f 212 181 213
f 213 181 189
f 213 189 214
f 214 189 215
f 215 189 216
f 216 189 217
f 217 189 218
f 218 189 219
f 219 189 220
f 220 189 221
f 221 189 222
f 222 189 223
f 223 189 224
f 224 189 225
f 169 225 189
f 169 226 225
f 180 226 169
f 180 227 226
f 179 227 180
f 179 228 227
f 171 228 179
f 171 229 228
f 74 229 171
f 74 230 229
f 76 230 74
f 76 231 230
f 76 232 231
f 82 232 76
f 82 233 232
f 72 233 82
f 72 234 233
f 71 234 72
f 71 235 234
f 193 235 71
f 193 236 235
f 193 198 236
f 169 189 192
f 169 192 188
f 169 188 174
f 169 174 170
f 170 174 175
f 170 175 168
f 170 168 78
f 170 78 80
f 170 80 167
f 170 167 163
f 170 163 164
f 170 164 178
f 195 191 190
f 191 195 196
f 82 75 81
f 75 82 76
f 98 71 69
f 71 98 193
f 119 192 118
f 192 119 188
f 239 238 237
f 238 239 240
f 240 239 241
f 240 241 242
f 240 242 243
f 240 243 244
f 240 244 245
f 240 245 246
f 246 245 247
f 246 247 248
f 248 247 249
f 248 249 250
f 248 250 251
f 254 253 252
f 253 254 255
f 255 254 256
f 256 254 257
f 257 254 258
f 258 254 259
f 259 254 260
f 260 254 261
f 261 254 262
f 262 254 263
f 263 254 264
f 194 190 176
f 190 194 195
f 186 161 191
f 161 186 90
f 94 155 162
f 155 94 95
f 196 186 191
f 186 196 197
f 92 161 90
f 161 92 93
f 190 155 176
f 155 190 162
f 102 237 101
f 237 102 239
f 239 102 241
f 241 102 103
f 241 103 242
f 242 103 104
f 242 104 243
f 243 104 105
f 243 105 244
f 244 105 245
f 245 105 106
f 245 106 247
f 247 106 107
f 247 107 249
f 249 107 109
f 249 109 250
f 250 109 111
f 250 111 251
f 251 111 248
f 140 248 111
f 140 246 248
f 140 240 246
f 140 238 240
f 141 238 140
f 141 100 238
f 143 100 141
f 144 100 143
f 145 100 144
f 146 100 145
f 147 100 146
f 148 100 147
f 149 100 148
f 150 100 149
f 151 100 150
f 152 100 151
f 153 100 152
f 154 100 153
f 100 154 97
f 238 100 101
f 238 101 237
f 140 111 113
f 140 113 115
f 140 115 138
f 138 115 137
f 137 115 136
f 136 115 135
f 135 115 134
f 134 115 133
f 133 115 132
f 132 115 131
f 131 115 130
f 130 115 129
f 129 115 128
f 128 115 116
f 200 198 199
f 198 200 236
f 236 200 201
f 236 201 202
f 236 202 203
f 236 203 204
f 236 204 205
f 236 205 206
f 236 206 207
f 236 207 208
f 236 208 209
f 236 209 210
f 236 210 211
f 236 211 252
f 252 211 212
f 236 252 235
f 252 212 254
f 254 212 264
f 264 212 227
f 227 212 226
f 226 212 225
f 225 212 213
f 225 213 214
f 225 214 215
f 225 215 216
f 225 216 217
f 225 217 218
f 225 218 219
f 225 219 220
f 225 220 221
f 225 221 222
f 225 222 223
f 225 223 224
f 227 263 264
f 228 263 227
f 228 262 263
f 229 262 228
f 229 261 262
f 230 261 229
f 230 260 261
f 231 260 230
f 231 259 260
f 231 258 259
f 232 258 231
f 232 257 258
f 233 257 232
f 233 256 257
f 234 256 233
f 234 255 256
f 234 253 255
f 235 253 234
f 253 235 252
