# City room prop — voxel footprint 4x2x4 (0.5 m cells)
o fence_corner
v 0.322289 1.090021 0.404124
v 0.322289 0.859529 0.404124
v 0.322289 1.090021 3.595876
v 0.322289 0.859529 3.595876
v 3.595876 0.270492 3.773835
v 0.404124 0.270492 3.773835
v 3.595876 0.500985 3.773835
v 0.404124 0.500985 3.773835
v 0.226165 0.270492 0.404124
v 0.226165 0.500985 0.404124
v 0.226165 0.270492 3.595876
v 0.226165 0.500985 3.595876
v 0.226165 0.859529 0.404124
v 0.226165 1.090021 0.404124
v 0.226165 0.859529 3.595876
v 0.226165 1.090021 3.595876
v 0.404124 0.859529 3.677711
v 3.595876 0.859529 3.677711
v 0.404124 1.090021 3.677711
v 3.595876 1.090021 3.677711
v 0.322289 0.500985 0.404124
v 0.322289 0.270492 0.404124
v 0.322289 0.500985 3.595876
v 0.322289 0.270492 3.595876
v 3.595876 0.859529 3.773835
v 0.404124 0.859529 3.773835
v 3.595876 1.090021 3.773835
v 0.404124 1.090021 3.773835
v 0.404124 0.270492 3.677711
v 3.595876 0.270492 3.677711
v 0.404124 0.500985 3.677711
v 3.595876 0.500985 3.677711
v 0.404124 0.040000 0.404124
v 0.404124 0.040000 0.144330
v 0.144330 0.040000 0.404124
v 0.144330 0.040000 0.144330
v 0.404124 0.040000 3.855670
v 0.144330 0.040000 3.855670
v 0.404124 1.320514 3.855670
v 0.144330 1.320514 3.855670
v 0.144330 1.320514 0.144330
v 0.404124 1.320514 0.144330
v 3.595876 0.040000 3.855670
v 3.595876 0.040000 3.595876
v 3.595876 1.320514 3.595876
v 3.595876 1.320514 3.855670
v 0.404124 1.320514 0.404124
v 0.144330 1.320514 0.404124
v 3.855670 0.040000 3.855670
v 3.855670 0.040000 3.595876
v 0.144330 0.040000 3.595876
v 0.144330 1.320514 3.595876
v 3.855670 1.320514 3.595876
v 3.855670 1.320514 3.855670
v 0.404124 1.320514 3.595876
v 0.404124 0.040000 3.595876
f 3 2 1
f 2 3 4
f 7 6 5
f 6 7 8
f 11 10 9
f 10 11 12
f 15 14 13
f 14 15 16
f 19 18 17
f 18 19 20
f 23 22 21
f 22 23 24
f 27 26 25
f 26 27 28
f 31 30 29
f 30 31 32
f 10 23 21
f 23 10 12
f 6 30 5
f 30 6 29
f 35 34 33
f 34 35 36
f 39 38 37
f 38 39 40
f 41 34 36
f 34 41 42
f 7 18 32
f 18 7 25
f 7 43 25
f 5 43 7
f 30 43 5
f 30 44 43
f 44 30 45
f 25 43 27
f 20 45 30
f 20 30 32
f 20 32 18
f 45 20 46
f 46 20 27
f 46 27 43
f 33 22 35
f 22 33 47
f 22 47 21
f 21 47 2
f 21 2 10
f 2 47 1
f 1 47 14
f 9 35 22
f 35 9 48
f 48 9 10
f 48 14 47
f 48 10 13
f 13 10 2
f 48 13 14
f 26 18 25
f 18 26 17
f 47 34 42
f 34 47 33
f 43 50 49
f 50 43 44
f 38 52 51
f 52 38 40
f 54 50 53
f 50 54 49
f 15 2 4
f 2 15 13
f 35 41 36
f 41 35 48
f 14 3 1
f 3 14 16
f 52 39 55
f 39 52 40
f 54 43 49
f 43 54 46
f 55 19 56
f 19 55 39
f 19 39 28
f 28 39 26
f 26 39 8
f 8 39 6
f 29 56 19
f 56 29 37
f 37 29 6
f 37 6 39
f 29 19 17
f 29 17 31
f 26 31 17
f 31 26 8
f 45 50 44
f 50 45 53
f 38 56 37
f 56 38 51
f 11 22 24
f 22 11 9
f 31 7 32
f 7 31 8
f 19 27 20
f 27 19 28
f 51 11 56
f 11 51 52
f 11 52 12
f 12 52 15
f 12 15 23
f 15 52 16
f 16 52 3
f 24 56 11
f 56 24 55
f 55 24 23
f 55 3 52
f 55 23 4
f 4 23 15
f 55 4 3
f 45 54 53
f 54 45 46
f 41 47 42
f 47 41 48
