# City room prop — voxel footprint 2x1x2 (0.5 m cells)
o fireBasket
v 1.182046 0.040000 1.182046
v 0.817954 0.040000 1.182046
v 1.182046 0.313069 1.182046
v 0.817954 0.313069 1.182046
v 1.182046 0.313069 0.817954
v 1.182046 0.040000 0.817954
v 0.817954 0.040000 0.817954
v 0.817954 0.313069 0.817954
v 0.772443 0.449603 0.772443
v 1.227557 0.449603 0.772443
v 1.227557 0.449603 1.227557
v 0.772443 0.449603 1.227557
v 0.817954 0.586137 0.817954
v 1.182046 0.586137 0.817954
v 1.182046 0.586137 1.182046
v 0.817954 0.586137 1.182046
v 0.417517 0.650942 1.136534
v 0.241674 0.603825 1.136534
v 0.417517 0.650942 0.863466
v 0.241674 0.603825 0.863466
v 0.865071 0.137226 1.136534
v 0.667492 0.272752 1.136534
v 0.817954 0.313069 1.136534
v 0.301229 0.381564 1.136534
v 0.613087 0.069707 1.136534
v 0.464447 0.475798 1.136534
v 0.613087 0.069707 0.863466
v 0.301229 0.381564 0.863466
v 0.667492 0.272752 0.863466
v 0.464447 0.475798 0.863466
v 0.865071 0.137226 0.863466
v 0.817954 0.313069 0.863466
v 1.582483 0.650942 0.863466
v 1.758326 0.603825 0.863466
v 1.582483 0.650942 1.136534
v 1.758326 0.603825 1.136534
v 1.134929 0.137226 0.863466
v 1.332508 0.272752 0.863466
v 1.182046 0.313069 0.863466
v 1.698771 0.381564 0.863466
v 1.386913 0.069707 0.863466
v 1.535553 0.475798 0.863466
v 1.386913 0.069707 1.136534
v 1.698771 0.381564 1.136534
v 1.332508 0.272752 1.136534
v 1.535553 0.475798 1.136534
v 1.134929 0.137226 1.136534
v 1.182046 0.313069 1.136534
v 0.863466 0.650942 0.417517
v 0.863466 0.603825 0.241674
v 1.136534 0.650942 0.417517
v 1.136534 0.603825 0.241674
v 0.863466 0.137226 0.865071
v 0.863466 0.272752 0.667492
v 0.863466 0.313069 0.817954
v 0.863466 0.381564 0.301229
v 0.863466 0.069707 0.613087
v 0.863466 0.475798 0.464447
v 1.136534 0.069707 0.613087
v 1.136534 0.381564 0.301229
v 1.136534 0.272752 0.667492
v 1.136534 0.475798 0.464447
v 1.136534 0.137226 0.865071
v 1.136534 0.313069 0.817954
v 1.136534 0.650942 1.582483
v 1.136534 0.603825 1.758326
v 0.863466 0.650942 1.582483
v 0.863466 0.603825 1.758326
v 1.136534 0.137226 1.134929
v 1.136534 0.272752 1.332508
v 1.136534 0.313069 1.182046
v 1.136534 0.381564 1.698771
v 1.136534 0.069707 1.386913
v 1.136534 0.475798 1.535553
v 0.863466 0.069707 1.386913
v 0.863466 0.381564 1.698771
v 0.863466 0.272752 1.332508
v 0.863466 0.475798 1.535553
v 0.863466 0.137226 1.134929
v 0.863466 0.313069 1.182046
v 0.306952 0.243764 1.000000
v 0.306952 0.382373 1.000000
v 0.509941 0.243764 1.490059
v 0.509941 0.382373 1.490059
v 1.693048 0.382373 1.000000
v 1.693048 0.243764 1.000000
v 1.490059 0.382373 1.490059
v 1.490059 0.243764 1.490059
v 0.470499 0.382373 1.000000
v 0.470499 0.243764 1.000000
v 0.625586 0.382373 1.374414
v 0.625586 0.243764 1.374414
v 0.509941 0.243764 0.509941
v 0.509941 0.382373 0.509941
v 1.490059 0.382373 0.509941
v 1.490059 0.243764 0.509941
v 1.000000 0.243764 1.693048
v 1.000000 0.382373 1.693048
v 0.625586 0.382373 0.625586
v 0.625586 0.243764 0.625586
v 1.000000 0.243764 1.529501
v 1.000000 0.382373 1.529501
v 1.000000 0.243764 0.306952
v 1.000000 0.382373 0.306952
v 1.374414 0.243764 1.374414
v 1.374414 0.382373 1.374414
v 1.374414 0.243764 0.625586
v 1.374414 0.382373 0.625586
v 1.529501 0.243764 1.000000
v 1.529501 0.382373 1.000000
v 1.000000 0.243764 0.470499
v 1.000000 0.382373 0.470499
f 3 2 1
f 2 3 4
f 3 6 5
f 6 3 1
f 2 8 7
f 8 2 4
f 8 6 7
f 6 8 5
f 2 6 1
f 6 2 7
f 9 5 8
f 5 9 10
f 11 4 3
f 4 11 12
f 8 12 9
f 12 8 4
f 13 10 9
f 10 13 14
f 13 15 14
f 15 13 16
f 12 13 9
f 13 12 16
f 15 12 11
f 12 15 16
f 11 5 10
f 5 11 3
f 14 11 10
f 11 14 15
f 19 18 17
f 18 19 20
f 23 22 21
f 24 21 22
f 21 24 25
f 24 22 26
f 24 26 18
f 18 26 17
f 24 27 25
f 27 24 28
f 24 20 28
f 20 24 18
f 29 26 22
f 26 29 30
f 25 31 21
f 31 25 27
f 28 31 27
f 31 28 29
f 32 31 29
f 29 28 30
f 30 28 20
f 30 20 19
f 19 26 30
f 26 19 17
f 32 22 23
f 22 32 29
f 35 34 33
f 34 35 36
f 39 38 37
f 40 37 38
f 37 40 41
f 40 38 42
f 40 42 34
f 34 42 33
f 40 43 41
f 43 40 44
f 40 36 44
f 36 40 34
f 45 42 38
f 42 45 46
f 41 47 37
f 47 41 43
f 44 47 43
f 47 44 45
f 48 47 45
f 45 44 46
f 46 44 36
f 46 36 35
f 35 42 46
f 42 35 33
f 48 38 39
f 38 48 45
f 51 50 49
f 50 51 52
f 55 54 53
f 56 53 54
f 53 56 57
f 56 54 58
f 56 58 50
f 50 58 49
f 56 59 57
f 59 56 60
f 56 52 60
f 52 56 50
f 61 58 54
f 58 61 62
f 57 63 53
f 63 57 59
f 60 63 59
f 63 60 61
f 64 63 61
f 61 60 62
f 62 60 52
f 62 52 51
f 51 58 62
f 58 51 49
f 64 54 55
f 54 64 61
f 67 66 65
f 66 67 68
f 71 70 69
f 72 69 70
f 69 72 73
f 72 70 74
f 72 74 66
f 66 74 65
f 72 75 73
f 75 72 76
f 72 68 76
f 68 72 66
f 77 74 70
f 74 77 78
f 73 79 69
f 79 73 75
f 76 79 75
f 79 76 77
f 80 79 77
f 77 76 78
f 78 76 68
f 78 68 67
f 67 74 78
f 74 67 65
f 80 70 71
f 70 80 77
f 83 82 81
f 82 83 84
f 87 86 85
f 86 87 88
f 91 90 89
f 90 91 92
f 81 94 93
f 94 81 82
f 85 96 95
f 96 85 86
f 87 97 88
f 97 87 98
f 98 83 97
f 83 98 84
f 89 100 99
f 100 89 90
f 91 101 92
f 101 91 102
f 104 96 103
f 96 104 95
f 102 105 101
f 105 102 106
f 109 108 107
f 108 109 110
f 108 111 107
f 111 108 112
f 112 100 111
f 100 112 99
f 94 103 93
f 103 94 104
f 105 110 109
f 110 105 106
f 84 102 91
f 84 91 89
f 98 102 84
f 84 89 82
f 98 106 102
f 89 94 82
f 87 106 98
f 99 94 89
f 87 110 106
f 110 87 85
f 95 110 85
f 110 95 108
f 99 104 94
f 108 95 104
f 112 104 99
f 108 104 112
f 103 107 111
f 103 111 100
f 96 107 103
f 103 100 93
f 96 109 107
f 109 96 86
f 88 109 86
f 109 88 105
f 105 88 97
f 105 97 101
f 93 100 90
f 93 90 81
f 101 97 83
f 90 83 81
f 101 83 92
f 92 83 90
f 3 2 1
f 2 3 4
f 3 6 5
f 6 3 1
f 2 8 7
f 8 2 4
f 8 6 7
f 6 8 5
f 2 6 1
f 6 2 7
f 9 5 8
f 5 9 10
f 11 4 3
f 4 11 12
f 8 12 9
f 12 8 4
f 13 10 9
f 10 13 14
f 13 15 14
f 15 13 16
f 12 13 9
f 13 12 16
f 15 12 11
f 12 15 16
f 11 5 10
f 5 11 3
f 14 11 10
f 11 14 15
f 19 18 17
f 18 19 20
f 23 22 21
f 24 21 22
f 21 24 25
f 24 22 26
f 24 26 18
f 18 26 17
f 24 27 25
f 27 24 28
f 24 20 28
f 20 24 18
f 29 26 22
f 26 29 30
f 25 31 21
f 31 25 27
f 28 31 27
f 31 28 29
f 32 31 29
f 29 28 30
f 30 28 20
f 30 20 19
f 19 26 30
f 26 19 17
f 32 22 23
f 22 32 29
f 35 34 33
f 34 35 36
f 39 38 37
f 40 37 38
f 37 40 41
f 40 38 42
f 40 42 34
f 34 42 33
f 40 43 41
f 43 40 44
f 40 36 44
f 36 40 34
f 45 42 38
f 42 45 46
f 41 47 37
f 47 41 43
f 44 47 43
f 47 44 45
f 48 47 45
f 45 44 46
f 46 44 36
f 46 36 35
f 35 42 46
f 42 35 33
f 48 38 39
f 38 48 45
f 51 50 49
f 50 51 52
f 55 54 53
f 56 53 54
f 53 56 57
f 56 54 58
f 56 58 50
f 50 58 49
f 56 59 57
f 59 56 60
f 56 52 60
f 52 56 50
f 61 58 54
f 58 61 62
f 57 63 53
f 63 57 59
f 60 63 59
f 63 60 61
f 64 63 61
f 61 60 62
f 62 60 52
f 62 52 51
f 51 58 62
f 58 51 49
f 64 54 55
f 54 64 61
f 67 66 65
f 66 67 68
f 71 70 69
f 72 69 70
f 69 72 73
f 72 70 74
f 72 74 66
f 66 74 65
f 72 75 73
f 75 72 76
f 72 68 76
f 68 72 66
f 77 74 70
f 74 77 78
f 73 79 69
f 79 73 75
f 76 79 75
f 79 76 77
f 80 79 77
f 77 76 78
f 78 76 68
f 78 68 67
f 67 74 78
f 74 67 65
f 80 70 71
f 70 80 77
f 83 82 81
f 82 83 84
f 87 86 85
f 86 87 88
f 91 90 89
f 90 91 92
f 81 94 93
f 94 81 82
f 85 96 95
f 96 85 86
f 87 97 88
f 97 87 98
f 98 83 97
f 83 98 84
f 89 100 99
f 100 89 90
f 91 101 92
f 101 91 102
f 104 96 103
f 96 104 95
f 102 105 101
f 105 102 106
f 109 108 107
f 108 109 110
f 108 111 107
f 111 108 112
f 112 100 111
f 100 112 99
f 94 103 93
f 103 94 104
f 105 110 109
f 110 105 106
f 84 102 91
f 84 91 89
f 98 102 84
f 84 89 82
f 98 106 102
f 89 94 82
f 87 106 98
f 99 94 89
f 87 110 106
f 110 87 85
f 95 110 85
f 110 95 108
f 99 104 94
f 108 95 104
f 112 104 99
f 108 104 112
f 103 107 111
f 103 111 100
f 96 107 103
f 103 100 93
f 96 109 107
f 109 96 86
f 88 109 86
f 109 88 105
f 105 88 97
f 105 97 101
f 93 100 90
f 93 90 81
f 101 97 83
f 90 83 81
f 101 83 92
f 92 83 90
