# City room prop — voxel footprint 1x1x1 (0.5 m cells)
o flower_purpleA
v 0.475001 0.040000 0.617315
v 0.475001 0.040000 0.500000
v 0.373403 0.040000 0.558658
v 0.475001 0.040000 0.382685
v 0.373403 0.040000 0.441342
v 0.271806 0.040000 0.500000
v 0.213288 0.363988 0.164014
v 0.407963 0.271735 0.266572
v 0.204767 0.271735 0.383887
v 0.204767 0.271735 0.616113
v 0.407963 0.271735 0.733428
v 0.609077 0.271735 0.382685
v 0.609077 0.271735 0.617315
v 0.213288 0.363988 0.835986
v 0.795233 0.363988 0.500000
v 0.322604 0.531753 0.500000
v 0.424202 0.531753 0.441342
v 0.373403 0.531753 0.470671
v 0.424202 0.531753 0.500000
v 0.424202 0.531753 0.558658
v 0.373403 0.531753 0.529329
v 0.297553 0.531753 0.407216
v 0.297553 0.940000 0.407216
v 0.297553 0.531753 0.592784
v 0.297553 0.940000 0.592784
v 0.238171 0.902887 0.347835
v 0.238171 0.902887 0.652165
v 0.483120 0.940000 0.407216
v 0.483120 0.940000 0.592784
v 0.483120 0.531753 0.592784
v 0.542501 0.902887 0.652165
v 0.483120 0.531753 0.407216
v 0.542501 0.902887 0.347835
f 3 2 1
f 2 3 4
f 4 3 5
f 5 3 6
f 9 8 7
f 7 8 9
f 10 3 6
f 3 10 1
f 1 10 11
f 6 3 10
f 1 10 3
f 11 10 1
f 8 5 4
f 5 8 6
f 6 8 9
f 4 5 8
f 6 8 5
f 9 8 6
f 2 12 4
f 12 2 13
f 13 2 1
f 4 12 2
f 13 2 12
f 1 2 13
f 10 14 11
f 11 14 10
f 13 15 12
f 12 15 13
f 16 5 6
f 5 16 4
f 4 16 17
f 17 16 18
f 17 2 4
f 2 17 19
f 2 19 1
f 1 19 20
f 20 3 1
f 3 20 6
f 6 20 16
f 16 20 21
f 24 23 22
f 23 24 25
f 22 27 26
f 27 22 24
f 26 27 22
f 24 22 27
f 23 29 28
f 29 23 25
f 31 24 30
f 24 31 27
f 30 24 31
f 27 31 24
f 29 24 30
f 24 29 25
f 29 32 28
f 32 29 30
f 30 20 32
f 20 30 24
f 20 24 21
f 21 24 16
f 17 32 20
f 32 17 22
f 22 16 24
f 17 20 19
f 22 17 18
f 22 18 16
f 31 32 33
f 32 31 30
f 33 32 31
f 30 31 32
f 26 32 22
f 32 26 33
f 22 32 26
f 33 26 32
f 23 32 22
f 32 23 28
