# City room prop — voxel footprint 1x1x1 (0.5 m cells)
o flower_redB
v 0.475765 0.040000 0.612500
v 0.475765 0.040000 0.500000
v 0.378337 0.040000 0.556250
v 0.475765 0.040000 0.387500
v 0.378337 0.040000 0.443750
v 0.280910 0.040000 0.500000
v 0.427051 0.689516 0.556250
v 0.329623 0.689516 0.500000
v 0.394575 0.689516 0.537500
v 0.378337 0.689516 0.528125
v 0.362099 0.689516 0.518750
v 0.427051 0.689516 0.443750
v 0.427051 0.689516 0.481250
v 0.427051 0.689516 0.500000
v 0.427051 0.689516 0.518750
v 0.362099 0.689516 0.481250
v 0.378337 0.689516 0.471875
v 0.394575 0.689516 0.462500
v 0.198569 0.331677 0.609818
v 0.421830 0.331677 0.738718
v 0.231731 0.260497 0.925619
v 0.131757 0.260497 0.867900
v 0.308719 0.367267 0.863451
v 0.147102 0.367267 0.770141
v 0.776618 0.367267 0.406690
v 0.868951 0.260497 0.442280
v 0.776618 0.367267 0.593310
v 0.868951 0.260497 0.557720
v 0.612040 0.331677 0.371100
v 0.612040 0.331677 0.628900
v 0.131757 0.260497 0.132100
v 0.231731 0.260497 0.074381
v 0.147102 0.367267 0.229859
v 0.308719 0.367267 0.136549
v 0.421830 0.331677 0.261282
v 0.198569 0.331677 0.390182
v 0.394575 0.824758 0.210921
v 0.658101 0.824758 0.667362
v 0.394575 0.960000 0.325031
v 0.526338 0.960000 0.553251
v 0.605396 0.689516 0.621718
v 0.499986 0.689516 0.439141
v 0.394575 0.689516 0.621718
v 0.183754 0.689516 0.621718
v 0.289165 0.689516 0.439141
v 0.394575 0.689516 0.256565
v 0.131049 0.824758 0.667362
v 0.262812 0.960000 0.553251
f 3 2 1
f 2 3 4
f 4 3 5
f 5 3 6
f 7 3 1
f 3 7 6
f 6 7 8
f 8 7 9
f 8 9 10
f 8 10 11
f 12 2 4
f 2 12 13
f 2 13 14
f 2 14 1
f 1 14 15
f 1 15 7
f 8 5 6
f 5 8 4
f 4 8 12
f 12 8 16
f 12 16 17
f 12 17 18
f 19 3 6
f 3 19 1
f 1 19 20
f 6 3 19
f 1 19 3
f 20 19 1
f 23 22 21
f 22 23 24
f 21 22 23
f 24 23 22
f 19 23 20
f 23 19 24
f 20 23 19
f 24 19 23
f 27 26 25
f 26 27 28
f 25 26 27
f 28 27 26
f 29 27 25
f 27 29 30
f 25 27 29
f 30 29 27
f 4 30 29
f 30 4 2
f 30 2 1
f 29 30 4
f 2 4 30
f 1 2 30
f 33 32 31
f 32 33 34
f 31 32 33
f 34 33 32
f 34 36 35
f 36 34 33
f 35 36 34
f 33 34 36
f 35 5 4
f 5 35 6
f 6 35 36
f 4 5 35
f 6 35 5
f 36 35 6
f 39 38 37
f 38 39 40
f 43 42 41
f 42 43 7
f 7 43 9
f 44 9 43
f 9 44 10
f 10 44 11
f 11 44 8
f 8 44 45
f 12 42 7
f 42 12 46
f 12 7 15
f 12 15 14
f 12 14 13
f 46 12 18
f 46 18 17
f 46 17 45
f 45 17 16
f 45 16 8
f 46 47 37
f 47 46 45
f 47 45 44
f 38 46 37
f 46 38 42
f 42 38 41
f 38 43 41
f 43 38 44
f 44 38 47
f 40 47 38
f 47 40 48
f 48 40 39
f 47 39 37
f 39 47 48
