# City room prop — voxel footprint 1x1x1 (0.5 m cells)
o flower_yellowB
v 0.474727 0.040000 0.617315
v 0.474727 0.040000 0.500000
v 0.373129 0.040000 0.558658
v 0.474727 0.040000 0.382685
v 0.373129 0.040000 0.441342
v 0.271531 0.040000 0.500000
v 0.423928 0.346186 0.558658
v 0.322330 0.346186 0.500000
v 0.390062 0.346186 0.539105
v 0.373129 0.346186 0.529329
v 0.356196 0.346186 0.519553
v 0.423928 0.346186 0.441342
v 0.423928 0.346186 0.480447
v 0.423928 0.346186 0.500000
v 0.423928 0.346186 0.519553
v 0.356196 0.346186 0.480447
v 0.373129 0.346186 0.470671
v 0.390062 0.346186 0.460895
v 0.185666 0.344163 0.614519
v 0.418483 0.344163 0.748936
v 0.220247 0.269936 0.943838
v 0.115994 0.269936 0.883648
v 0.300531 0.381276 0.879009
v 0.131996 0.381276 0.781705
v 0.788459 0.381276 0.402696
v 0.884745 0.269936 0.439809
v 0.788459 0.381276 0.597304
v 0.884745 0.269936 0.560191
v 0.616836 0.344163 0.365583
v 0.616836 0.344163 0.634417
v 0.115994 0.269936 0.116352
v 0.220247 0.269936 0.056162
v 0.131996 0.381276 0.218295
v 0.300531 0.381276 0.120991
v 0.418483 0.344163 0.251064
v 0.185666 0.344163 0.385481
v 0.390062 0.487216 0.198546
v 0.664869 0.487216 0.674526
v 0.390062 0.628247 0.317541
v 0.527466 0.628247 0.555531
v 0.609908 0.346186 0.626928
v 0.499985 0.346186 0.436536
v 0.390062 0.346186 0.626928
v 0.170217 0.346186 0.626928
v 0.280140 0.346186 0.436536
v 0.390062 0.346186 0.246144
v 0.115255 0.487216 0.674526
v 0.252659 0.628247 0.555531
f 3 2 1
f 2 3 4
f 4 3 5
f 5 3 6
f 7 3 1
f 3 7 6
f 6 7 8
f 8 7 9
f 8 9 10
f 8 10 11
f 12 2 4
f 2 12 13
f 2 13 14
f 2 14 1
f 1 14 15
f 1 15 7
f 8 5 6
f 5 8 4
f 4 8 12
f 12 8 16
f 12 16 17
f 12 17 18
f 19 3 6
f 3 19 1
f 1 19 20
f 6 3 19
f 1 19 3
f 20 19 1
f 23 22 21
f 22 23 24
f 21 22 23
f 24 23 22
f 19 23 20
f 23 19 24
f 20 23 19
f 24 19 23
f 27 26 25
f 26 27 28
f 25 26 27
f 28 27 26
f 29 27 25
f 27 29 30
f 25 27 29
f 30 29 27
f 4 30 29
f 30 4 2
f 30 2 1
f 29 30 4
f 2 4 30
f 1 2 30
f 33 32 31
f 32 33 34
f 31 32 33
f 34 33 32
f 34 36 35
f 36 34 33
f 35 36 34
f 33 34 36
f 35 5 4
f 5 35 6
f 6 35 36
f 4 5 35
f 6 35 5
f 36 35 6
f 1 2 3
f 4 3 2
f 5 3 4
f 6 3 5
f 1 3 7
f 6 7 3
f 8 7 6
f 9 7 8
f 10 9 8
f 11 10 8
f 4 2 12
f 13 12 2
f 14 13 2
f 1 14 2
f 15 14 1
f 7 15 1
f 6 5 8
f 4 8 5
f 12 8 4
f 16 8 12
f 17 16 12
f 18 17 12
f 39 38 37
f 38 39 40
f 37 38 39
f 40 39 38
f 43 42 41
f 42 43 7
f 7 43 9
f 44 9 43
f 9 44 10
f 10 44 11
f 11 44 8
f 8 44 45
f 12 42 7
f 42 12 46
f 12 7 15
f 12 15 14
f 12 14 13
f 46 12 18
f 46 18 17
f 46 17 45
f 45 17 16
f 45 16 8
f 41 42 43
f 7 43 42
f 9 43 7
f 43 9 44
f 10 44 9
f 11 44 10
f 8 44 11
f 45 44 8
f 7 42 12
f 46 12 42
f 15 7 12
f 14 15 12
f 13 14 12
f 18 12 46
f 17 18 46
f 45 17 46
f 16 17 45
f 8 16 45
f 46 47 37
f 47 46 45
f 47 45 44
f 37 47 46
f 45 46 47
f 44 45 47
f 38 46 37
f 46 38 42
f 42 38 41
f 37 46 38
f 42 38 46
f 41 38 42
f 38 43 41
f 43 38 44
f 44 38 47
f 41 43 38
f 44 38 43
f 47 38 44
f 40 47 38
f 47 40 48
f 38 47 40
f 48 40 47
f 48 40 39
f 39 40 48
f 47 39 37
f 39 47 48
f 37 39 47
f 48 47 39
