# City room prop — voxel footprint 1x2x1 (0.5 m cells)
o flower_redA
v 0.475001 0.040000 0.617315
v 0.475001 0.040000 0.500000
v 0.373403 0.040000 0.558658
v 0.475001 0.040000 0.382685
v 0.373403 0.040000 0.441342
v 0.271806 0.040000 0.500000
v 0.424202 0.717320 0.558658
v 0.322604 0.717320 0.500000
v 0.373403 0.717320 0.529329
v 0.213288 0.363988 0.164014
v 0.407963 0.271735 0.266572
v 0.204767 0.271735 0.383887
v 0.204767 0.271735 0.616113
v 0.407963 0.271735 0.733428
v 0.424202 0.717320 0.441342
v 0.424202 0.717320 0.500000
v 0.609077 0.271735 0.382685
v 0.609077 0.271735 0.617315
v 0.373403 0.717320 0.470671
v 0.213288 0.363988 0.835986
v 0.795233 0.363988 0.500000
v 0.297553 0.717320 0.407216
v 0.297553 1.125567 0.407216
v 0.297553 0.717320 0.592784
v 0.297553 1.125567 0.592784
v 0.238171 1.088454 0.347835
v 0.238171 1.088454 0.652165
v 0.483120 1.125567 0.407216
v 0.483120 1.125567 0.592784
v 0.483120 0.717320 0.592784
v 0.542501 1.088454 0.652165
v 0.483120 0.717320 0.407216
v 0.542501 1.088454 0.347835
f 3 2 1
f 2 3 4
f 4 3 5
f 5 3 6
f 7 3 1
f 3 7 6
f 6 7 8
f 8 7 9
f 12 11 10
f 10 11 12
f 13 3 6
f 3 13 1
f 1 13 14
f 6 3 13
f 1 13 3
f 14 13 1
f 11 5 4
f 5 11 6
f 6 11 12
f 4 5 11
f 6 11 5
f 12 11 6
f 15 2 4
f 2 15 16
f 2 16 1
f 1 16 7
f 2 17 4
f 17 2 18
f 18 2 1
f 4 17 2
f 18 2 17
f 1 2 18
f 8 5 6
f 5 8 4
f 4 8 15
f 15 8 19
f 13 20 14
f 14 20 13
f 18 21 17
f 17 21 18
f 24 23 22
f 23 24 25
f 22 27 26
f 27 22 24
f 26 27 22
f 24 22 27
f 23 29 28
f 29 23 25
f 31 24 30
f 24 31 27
f 30 24 31
f 27 31 24
f 29 24 30
f 24 29 25
f 29 32 28
f 32 29 30
f 30 7 32
f 7 30 24
f 7 24 9
f 9 24 8
f 15 32 7
f 32 15 22
f 22 8 24
f 15 7 16
f 22 15 19
f 22 19 8
f 31 32 33
f 32 31 30
f 33 32 31
f 30 31 32
f 26 32 22
f 32 26 33
f 22 32 26
f 33 26 32
f 23 32 22
f 32 23 28
