# City room prop — voxel footprint 1x1x1 (0.5 m cells)
o flower_yellowA
v 0.475001 0.040000 0.617315
v 0.475001 0.040000 0.500000
v 0.373403 0.040000 0.558658
v 0.475001 0.040000 0.382685
v 0.373403 0.040000 0.441342
v 0.271806 0.040000 0.500000
v 0.213288 0.363988 0.164014
v 0.407963 0.271735 0.266572
v 0.204767 0.271735 0.383887
v 0.204767 0.271735 0.616113
v 0.407963 0.271735 0.733428
v 0.609077 0.271735 0.382685
v 0.609077 0.271735 0.617315
v 0.213288 0.363988 0.835986
v 0.795233 0.363988 0.500000
v 0.424202 0.346186 0.558658
v 0.322604 0.346186 0.500000
v 0.373403 0.346186 0.529329
v 0.424202 0.346186 0.441342
v 0.373403 0.346186 0.470671
v 0.424202 0.346186 0.500000
v 0.297553 0.346186 0.407216
v 0.297553 0.754433 0.407216
v 0.297553 0.346186 0.592784
v 0.297553 0.754433 0.592784
v 0.238171 0.717320 0.347835
v 0.238171 0.717320 0.652165
v 0.483120 0.754433 0.407216
v 0.483120 0.754433 0.592784
v 0.483120 0.346186 0.592784
v 0.542501 0.717320 0.652165
v 0.483120 0.346186 0.407216
v 0.542501 0.717320 0.347835
f 3 2 1
f 2 3 4
f 4 3 5
f 5 3 6
f 9 8 7
f 7 8 9
f 10 3 6
f 3 10 1
f 1 10 11
f 6 3 10
f 1 10 3
f 11 10 1
f 8 5 4
f 5 8 6
f 6 8 9
f 4 5 8
f 6 8 5
f 9 8 6
f 2 12 4
f 12 2 13
f 13 2 1
f 4 12 2
f 13 2 12
f 1 2 13
f 10 14 11
f 11 14 10
f 13 15 12
f 12 15 13
f 16 3 1
f 3 16 6
f 6 16 17
f 17 16 18
f 17 5 6
f 5 17 4
f 4 17 19
f 19 17 20
f 19 2 4
f 2 19 21
f 2 21 1
f 1 21 16
f 24 23 22
f 23 24 25
f 22 27 26
f 27 22 24
f 26 27 22
f 24 22 27
f 23 29 28
f 29 23 25
f 31 24 30
f 24 31 27
f 30 24 31
f 27 31 24
f 29 24 30
f 24 29 25
f 29 32 28
f 32 29 30
f 30 16 32
f 16 30 24
f 16 24 18
f 18 24 17
f 19 32 16
f 32 19 22
f 22 17 24
f 19 16 21
f 22 19 20
f 22 20 17
f 31 32 33
f 32 31 30
f 33 32 31
f 30 31 32
f 26 32 22
f 32 26 33
f 22 32 26
f 33 26 32
f 23 32 22
f 32 23 28
