# City room prop — voxel footprint 2x1x2 (0.5 m cells)
o grass
v 0.505812 0.040000 1.213748
v 0.650694 0.040000 1.213748
v 0.505812 0.159120 1.184416
v 0.650694 0.159120 1.184416
v 1.234566 0.622324 1.067485
v 1.155237 0.386534 1.067485
v 1.234566 0.622324 1.212367
v 1.155237 0.386534 1.212367
v 1.067240 0.207534 1.212367
v 1.067240 0.207534 1.067485
v 0.908582 0.321528 1.212367
v 0.908582 0.321528 1.067485
v 1.409572 0.693200 0.728132
v 1.264690 0.693200 0.728132
v 1.409571 0.627880 0.800573
v 1.264690 0.627880 0.800573
v 1.264690 0.389840 0.879903
v 1.409571 0.389840 0.879903
v 1.130127 0.040000 0.470850
v 1.275009 0.040000 0.470850
v 1.130127 0.338744 0.441518
v 1.275009 0.338744 0.441518
v 1.275009 0.542016 0.362189
v 1.275009 0.597795 0.289748
v 1.130127 0.542016 0.362189
v 1.130127 0.597795 0.289748
v 0.946536 0.868000 0.570310
v 0.874095 0.960000 0.570310
v 0.946536 0.868000 0.715192
v 0.874095 0.960000 0.715192
v 1.272520 0.460192 0.570310
v 1.113862 0.290051 0.570310
v 1.272520 0.460192 0.715192
v 1.113862 0.290051 0.715192
v 1.264690 0.040000 0.909235
v 1.409571 0.040000 0.909235
v 1.050976 0.252108 1.558482
v 0.906094 0.252108 1.558482
v 1.050976 0.396431 1.637811
v 0.906094 0.396431 1.637811
v 1.125905 0.040000 1.067485
v 1.125905 0.040000 1.212367
v 1.055198 0.040000 0.570310
v 1.055198 0.040000 0.715192
v 0.505812 0.240172 1.105086
v 0.650694 0.240172 1.105086
v 1.025865 0.532733 0.570310
v 1.025865 0.532733 0.715192
v 1.050976 0.040000 1.529150
v 0.906094 0.040000 1.529150
v 0.382307 0.542016 0.798513
v 0.382307 0.542016 0.653631
v 0.309866 0.597795 0.798513
v 0.309866 0.597795 0.653631
v 1.050976 0.436035 1.710252
v 0.906094 0.436035 1.710252
v 1.617693 0.396431 0.984164
v 1.538364 0.252108 0.984164
v 1.617693 0.396431 1.129046
v 1.538364 0.252108 1.129046
v 0.461636 0.338744 0.653631
v 0.461636 0.338744 0.798513
v 0.916413 0.691969 0.982104
v 0.771531 0.691969 0.982104
v 0.916413 0.764409 1.054544
v 0.771531 0.764409 1.054544
v 0.650694 0.248331 1.368047
v 0.650694 0.163975 1.255400
v 0.505812 0.248331 1.368047
v 0.505812 0.163975 1.255400
v 0.650694 0.262413 1.032645
v 0.505812 0.262413 1.032645
v 1.307007 0.687027 1.212367
v 1.307007 0.687027 1.067485
v 1.690134 0.436035 1.129046
v 1.690134 0.436035 0.984164
v 0.490968 0.040000 0.653631
v 0.490968 0.040000 0.798513
v 1.509032 0.040000 0.984164
v 1.509032 0.040000 1.129046
v 0.916413 0.040000 0.873442
v 0.771531 0.040000 0.873442
v 0.916413 0.427978 0.902774
v 0.771531 0.427978 0.902774
f 3 2 1
f 2 3 4
f 1 2 3
f 4 3 2
f 7 6 5
f 6 7 8
f 5 6 7
f 8 7 6
f 11 10 9
f 10 11 12
f 9 10 11
f 12 11 10
f 15 14 13
f 14 15 16
f 13 14 15
f 16 15 14
f 16 18 17
f 18 16 15
f 17 18 16
f 15 16 18
f 21 20 19
f 20 21 22
f 19 20 21
f 22 21 20
f 25 24 23
f 24 25 26
f 23 24 25
f 26 25 24
f 29 28 27
f 28 29 30
f 27 28 29
f 30 29 28
f 33 32 31
f 32 33 34
f 31 32 33
f 34 33 32
f 17 36 35
f 36 17 18
f 35 36 17
f 18 17 36
f 39 38 37
f 38 39 40
f 37 38 39
f 40 39 38
f 8 41 6
f 41 8 42
f 6 41 8
f 42 8 41
f 34 43 32
f 43 34 44
f 32 43 34
f 44 34 43
f 45 4 3
f 4 45 46
f 3 4 45
f 46 45 4
f 48 27 47
f 27 48 29
f 47 27 48
f 29 48 27
f 44 47 43
f 47 44 48
f 43 47 44
f 48 44 47
f 37 50 49
f 50 37 38
f 49 50 37
f 38 37 50
f 53 52 51
f 52 53 54
f 51 52 53
f 54 53 52
f 56 39 55
f 39 56 40
f 55 39 56
f 40 56 39
f 59 58 57
f 58 59 60
f 57 58 59
f 60 59 58
f 62 52 61
f 52 62 51
f 61 52 62
f 51 62 52
f 65 64 63
f 64 65 66
f 63 64 65
f 66 65 64
f 69 68 67
f 68 69 70
f 67 68 69
f 70 69 68
f 45 71 46
f 71 45 72
f 46 71 45
f 72 45 71
f 68 1 2
f 1 68 70
f 2 1 68
f 70 68 1
f 25 22 21
f 22 25 23
f 21 22 25
f 23 25 22
f 7 74 73
f 74 7 5
f 73 74 7
f 5 7 74
f 59 76 75
f 76 59 57
f 75 76 59
f 57 59 76
f 42 10 41
f 10 42 9
f 41 10 42
f 9 42 10
f 78 61 77
f 61 78 62
f 77 61 78
f 62 78 61
f 60 79 58
f 79 60 80
f 58 79 60
f 80 60 79
f 83 82 81
f 82 83 84
f 81 82 83
f 84 83 82
f 63 84 83
f 84 63 64
f 83 84 63
f 64 63 84
