# City room prop — voxel footprint 2x1x2 (0.5 m cells)
o grass_large
v 0.786252 0.321932 0.415261
v 0.706923 0.207774 0.415261
v 0.786252 0.321932 0.560143
v 0.706923 0.207774 0.560143
v 0.858693 0.353258 0.560143
v 0.858693 0.353258 0.415261
v 1.322409 0.040000 1.439857
v 1.293077 0.159120 1.439857
v 1.322409 0.040000 1.584739
v 1.293077 0.159120 1.584739
v 1.176146 0.040000 0.964646
v 1.321028 0.040000 0.964646
v 1.176146 0.386534 0.935314
v 1.321028 0.386534 0.935314
v 1.529150 0.396431 1.039576
v 1.449821 0.252108 1.039576
v 1.529150 0.396431 1.184458
v 1.449821 0.252108 1.184458
v 1.237707 0.396431 0.472858
v 1.237707 0.436035 0.400417
v 1.092826 0.396431 0.472858
v 1.092826 0.436035 0.400417
v 0.362011 0.040000 1.320401
v 0.506893 0.040000 1.320401
v 0.362011 0.207774 1.291069
v 0.506893 0.207774 1.291069
v 0.553297 0.431572 1.738697
v 0.553297 0.431572 1.593815
v 0.480856 0.475080 1.738697
v 0.480856 0.475080 1.593815
v 0.362011 0.321932 1.211740
v 0.506893 0.321932 1.211740
v 0.823854 0.532733 1.064686
v 0.678972 0.532733 1.064686
v 0.823854 0.868000 1.144015
v 0.678972 0.868000 1.144015
v 1.090765 0.691969 1.174138
v 1.011436 0.427978 1.174138
v 1.090765 0.691969 1.319020
v 1.011436 0.427978 1.319020
v 0.907175 0.338744 1.447813
v 0.762293 0.338744 1.447813
v 0.907175 0.542016 1.527142
v 0.762293 0.542016 1.527142
v 0.506893 0.353258 1.139299
v 0.362011 0.353258 1.139299
v 1.321028 0.622324 0.855985
v 1.321028 0.687027 0.783544
v 1.176146 0.622324 0.855985
v 1.176146 0.687027 0.783544
v 0.661958 0.040000 1.593815
v 0.632626 0.273020 1.593815
v 0.661958 0.040000 1.738697
v 0.632626 0.273020 1.738697
v 0.907175 0.597795 1.599583
v 0.762293 0.597795 1.599583
v 0.982104 0.040000 1.174138
v 0.982104 0.040000 1.319020
v 0.579512 0.040000 0.815542
v 0.550180 0.338744 0.815542
v 0.579512 0.040000 0.960424
v 0.550180 0.338744 0.960424
v 1.213748 0.240172 1.584739
v 1.213748 0.240172 1.439857
v 1.141307 0.262413 1.584739
v 1.141307 0.262413 1.439857
v 0.907175 0.040000 1.418480
v 0.762293 0.040000 1.418480
v 1.446703 0.318016 0.261303
v 1.367374 0.205444 0.261303
v 1.446703 0.318016 0.406185
v 1.367374 0.205444 0.406185
v 0.677591 0.040000 0.415261
v 0.677591 0.040000 0.560143
v 1.740705 0.205444 1.314124
v 1.595823 0.205444 1.314124
v 1.740705 0.318016 1.393453
v 1.595823 0.318016 1.393453
v 0.988564 0.389840 0.680980
v 0.909235 0.627880 0.680980
v 0.988564 0.389840 0.825862
v 0.909235 0.627880 0.825862
v 0.470850 0.542016 0.815542
v 0.470850 0.542016 0.960424
v 1.092826 0.040000 0.581520
v 1.237707 0.040000 0.581520
v 1.092826 0.252108 0.552187
v 1.237707 0.252108 0.552187
v 0.259295 0.040000 0.715208
v 0.404177 0.040000 0.715208
v 0.259295 0.273020 0.685876
v 0.404177 0.273020 0.685876
v 0.259295 0.431572 0.606547
v 0.404177 0.431572 0.606547
v 1.637989 0.040000 0.679599
v 1.493107 0.040000 0.679599
v 1.637989 0.159120 0.708931
v 1.493107 0.159120 0.708931
v 0.823854 0.040000 1.035353
v 0.678972 0.040000 1.035353
v 0.398409 0.597795 0.960424
v 0.398409 0.597795 0.815542
v 1.364061 0.163975 1.439857
v 1.364061 0.163975 1.584739
v 1.017896 0.040000 0.680980
v 1.017896 0.040000 0.825862
v 0.823854 0.960000 1.216456
v 0.678972 0.960000 1.216456
v 0.404177 0.475080 0.534106
v 0.259295 0.475080 0.534106
v 1.740705 0.348907 1.465894
v 1.595823 0.348907 1.465894
v 0.678972 0.290051 0.976689
v 0.823854 0.290051 0.976689
v 0.678972 0.460192 0.818031
v 0.823854 0.460192 0.818031
v 1.637989 0.262413 0.860701
v 1.637989 0.240172 0.788260
v 1.493107 0.262413 0.860701
v 1.493107 0.240172 0.788260
v 0.648258 0.175897 0.415261
v 0.568929 0.268365 0.415261
v 0.648258 0.175897 0.560143
v 0.568929 0.268365 0.560143
v 0.836794 0.693200 0.825862
v 0.836794 0.693200 0.680980
v 1.420489 0.040000 1.039576
v 1.420489 0.040000 1.184458
v 1.338042 0.040000 0.261303
v 1.338042 0.040000 0.406185
v 1.321028 0.321528 1.181969
v 1.321028 0.207534 1.023311
v 1.176146 0.321528 1.181969
v 1.176146 0.207534 1.023311
v 1.519144 0.348907 0.406185
v 1.519144 0.348907 0.261303
v 1.601591 0.436035 1.184458
v 1.601591 0.436035 1.039576
v 1.163206 0.764409 1.174138
v 1.163206 0.764409 1.319020
v 1.740705 0.040000 1.284792
v 1.595823 0.040000 1.284792
v 1.476709 0.248331 1.584739
v 1.476709 0.248331 1.439857
f 3 2 1
f 2 3 4
f 1 2 3
f 4 3 2
f 3 6 5
f 6 3 1
f 5 6 3
f 1 3 6
f 9 8 7
f 8 9 10
f 7 8 9
f 10 9 8
f 13 12 11
f 12 13 14
f 11 12 13
f 14 13 12
f 17 16 15
f 16 17 18
f 15 16 17
f 18 17 16
f 21 20 19
f 20 21 22
f 19 20 21
f 22 21 20
f 25 24 23
f 24 25 26
f 23 24 25
f 26 25 24
f 29 28 27
f 28 29 30
f 27 28 29
f 30 29 28
f 31 26 25
f 26 31 32
f 25 26 31
f 32 31 26
f 35 34 33
f 34 35 36
f 33 34 35
f 36 35 34
f 39 38 37
f 38 39 40
f 37 38 39
f 40 39 38
f 43 42 41
f 42 43 44
f 41 42 43
f 44 43 42
f 31 45 32
f 45 31 46
f 32 45 31
f 46 31 45
f 49 48 47
f 48 49 50
f 47 48 49
f 50 49 48
f 53 52 51
f 52 53 54
f 51 52 53
f 54 53 52
f 56 43 55
f 43 56 44
f 55 43 56
f 44 56 43
f 54 28 52
f 28 54 27
f 52 28 54
f 27 54 28
f 49 14 13
f 14 49 47
f 13 14 49
f 47 49 14
f 40 57 38
f 57 40 58
f 38 57 40
f 58 40 57
f 61 60 59
f 60 61 62
f 59 60 61
f 62 61 60
f 65 64 63
f 64 65 66
f 63 64 65
f 66 65 64
f 41 68 67
f 68 41 42
f 67 68 41
f 42 41 68
f 71 70 69
f 70 71 72
f 69 70 71
f 72 71 70
f 4 73 2
f 73 4 74
f 2 73 4
f 74 4 73
f 77 76 75
f 76 77 78
f 75 76 77
f 78 77 76
f 81 80 79
f 80 81 82
f 79 80 81
f 82 81 80
f 62 83 60
f 83 62 84
f 60 83 62
f 84 62 83
f 87 86 85
f 86 87 88
f 85 86 87
f 88 87 86
f 10 64 8
f 64 10 63
f 8 64 10
f 63 10 64
f 91 90 89
f 90 91 92
f 89 90 91
f 92 91 90
f 93 92 91
f 92 93 94
f 91 92 93
f 94 93 92
f 97 96 95
f 96 97 98
f 95 96 97
f 98 97 96
f 21 88 87
f 88 21 19
f 87 88 21
f 19 21 88
f 33 100 99
f 100 33 34
f 99 100 33
f 34 33 100
f 101 83 84
f 83 101 102
f 84 83 101
f 102 101 83
f 104 7 103
f 7 104 9
f 103 7 104
f 9 104 7
f 106 79 105
f 79 106 81
f 105 79 106
f 81 106 79
f 107 36 35
f 36 107 108
f 35 36 107
f 108 107 36
f 93 109 94
f 109 93 110
f 94 109 93
f 110 93 109
f 112 77 111
f 77 112 78
f 111 77 112
f 78 112 77
f 115 114 113
f 114 115 116
f 113 114 115
f 116 115 114
f 119 118 117
f 118 119 120
f 117 118 119
f 120 119 118
f 123 122 121
f 122 123 124
f 121 122 123
f 124 123 122
f 125 80 82
f 80 125 126
f 82 80 125
f 126 125 80
f 18 127 16
f 127 18 128
f 16 127 18
f 128 18 127
f 72 129 70
f 129 72 130
f 70 129 72
f 130 72 129
f 74 121 73
f 121 74 123
f 73 121 74
f 123 74 121
f 133 132 131
f 132 133 134
f 131 132 133
f 134 133 132
f 71 136 135
f 136 71 69
f 135 136 71
f 69 71 136
f 17 138 137
f 138 17 15
f 137 138 17
f 15 17 138
f 132 11 12
f 11 132 134
f 12 11 132
f 134 132 11
f 113 99 100
f 99 113 114
f 100 99 113
f 114 113 99
f 118 98 97
f 98 118 120
f 97 98 118
f 120 118 98
f 140 37 139
f 37 140 39
f 139 37 140
f 39 140 37
f 75 142 141
f 142 75 76
f 141 142 75
f 76 75 142
f 104 144 143
f 144 104 103
f 143 144 104
f 103 104 144
