# City room prop — voxel footprint 4x3x2 (0.5 m cells)
o gravestoneWide
v 3.365343 0.404091 0.635909
v 3.365343 0.404091 1.364091
v 3.365343 0.615553 0.635909
v 3.365343 0.615553 1.364091
v 2.000000 2.116604 0.635909
v 1.616197 2.075438 0.635909
v 2.383803 2.075438 0.635909
v 2.750146 1.953815 0.635909
v 1.249854 1.953815 0.635909
v 0.917636 1.757268 0.635909
v 3.082364 1.757268 0.635909
v 2.000000 1.750424 0.635909
v 2.306147 1.717588 0.635909
v 1.693853 1.717588 0.635909
v 2.598366 1.620573 0.635909
v 1.401634 1.620573 0.635909
v 3.365343 1.494737 0.635909
v 2.863365 1.463794 0.635909
v 3.001251 1.335871 0.635909
v 3.365343 0.888622 0.635909
v 3.001251 0.768183 0.635909
v 3.288543 0.752087 0.635909
v 0.634657 1.494737 0.635909
v 1.136635 1.463794 0.635909
v 0.998749 0.768183 0.635909
v 0.998749 1.335871 0.635909
v 0.634657 1.222483 0.635909
v 0.711457 1.085949 0.635909
v 0.634657 0.949414 0.635909
v 0.634657 0.404091 0.635909
v 0.634657 1.222483 1.364091
v 0.634657 1.494737 1.364091
v 0.917636 1.757268 1.364091
v 1.249854 1.953815 1.364091
v 1.616197 2.075438 1.364091
v 2.000000 2.116604 1.364091
v 2.383803 2.075438 1.364091
v 2.750146 1.953815 1.364091
v 3.082364 1.757268 1.364091
v 3.365343 1.494737 1.364091
v 2.863365 1.463794 1.364091
v 2.863365 1.463794 1.254864
v 2.598366 1.620573 1.364091
v 2.598366 1.620573 1.254864
v 2.306147 1.717588 1.364091
v 2.306147 1.717588 1.254864
v 2.000000 1.750424 1.364091
v 2.000000 1.750424 1.254864
v 1.693853 1.717588 1.364091
v 1.693853 1.717588 1.254864
v 1.401634 1.620573 1.364091
v 1.401634 1.620573 1.254864
v 1.136635 1.463794 1.364091
v 1.136635 1.463794 1.254864
v 0.998749 1.335871 1.364091
v 0.998749 1.335871 1.254864
v 0.998749 0.768183 1.254864
v 0.998749 0.768183 1.364091
v 3.001251 0.768183 1.254864
v 3.001251 0.768183 1.364091
v 3.001251 1.335871 1.254864
v 3.001251 1.335871 1.364091
v 0.634657 0.404091 1.364091
v 0.634657 0.949414 1.364091
v 3.288543 0.752087 1.364091
v 3.365343 0.888622 1.364091
v 0.711457 1.085949 1.364091
v 2.306147 1.717588 0.745136
v 2.000000 1.750424 0.745136
v 0.998749 1.335871 0.745136
v 0.998749 0.768183 0.745136
v 1.136635 1.463794 0.745136
v 3.001251 1.335871 0.745136
v 2.863365 1.463794 0.745136
v 1.693853 1.717588 0.745136
v 1.401634 1.620573 0.745136
v 2.598366 1.620573 0.745136
v 3.001251 0.768183 0.745136
v 3.547389 0.404091 0.635909
v 3.547389 0.404091 1.364091
v 3.365343 0.404091 0.453863
v 3.365343 0.404091 1.546137
v 0.634657 0.404091 0.453863
v 0.634657 0.404091 1.546137
v 0.452611 0.404091 0.635909
v 0.452611 0.404091 1.364091
v 3.547389 0.040000 0.635909
v 3.547389 0.040000 1.364091
v 0.634657 0.040000 0.453863
v 3.365343 0.040000 0.453863
v 3.365343 0.040000 1.546137
v 0.634657 0.040000 1.546137
v 0.452611 0.040000 1.364091
v 0.452611 0.040000 0.635909
v 2.819206 0.950229 1.145637
v 1.180794 0.950229 1.145637
v 2.819206 1.256438 1.145637
v 1.180794 1.256438 1.145637
v 1.246135 1.317057 1.145637
v 2.753865 1.317057 1.145637
v 2.522476 1.453952 1.145637
v 1.477524 1.453952 1.145637
v 1.732682 1.538663 1.145637
v 2.267318 1.538663 1.145637
v 2.000000 1.567334 1.145637
v 2.522476 1.453952 1.254864
v 2.267318 1.538663 1.254864
v 2.000000 1.567334 1.254864
v 1.732682 1.538663 1.254864
v 1.477524 1.453952 1.254864
v 1.246135 1.317057 1.254864
v 1.180794 1.256438 1.254864
v 1.180794 0.950229 1.254864
v 2.819206 0.950229 1.254864
v 2.819206 1.256438 1.254864
v 2.753865 1.317057 1.254864
v 2.000000 1.567334 0.745136
v 1.732682 1.538663 0.745136
v 2.000000 1.567334 0.854363
v 1.732681 1.538663 0.854363
v 1.180794 1.256438 0.745136
v 1.180794 0.950229 0.745136
v 1.180794 1.256438 0.854363
v 1.180794 0.950229 0.854363
v 2.819206 0.950229 0.745136
v 2.819206 1.256438 0.745136
v 2.819206 0.950229 0.854363
v 2.819206 1.256438 0.854363
v 2.753865 1.317057 0.745136
v 2.753865 1.317057 0.854363
v 2.267318 1.538663 0.745136
v 2.522476 1.453952 0.745136
v 1.477524 1.453952 0.745136
v 1.246135 1.317057 0.745136
v 2.267318 1.538663 0.854363
v 2.522476 1.453952 0.854363
v 1.246135 1.317057 0.854363
v 1.477524 1.453952 0.854363
f 3 2 1
f 2 3 4
f 7 6 5
f 8 6 7
f 8 9 6
f 8 10 9
f 11 10 8
f 12 10 11
f 11 13 12
f 14 10 12
f 11 15 13
f 16 10 14
f 17 15 11
f 17 18 15
f 17 19 18
f 20 19 17
f 20 21 19
f 22 21 20
f 16 23 10
f 24 23 16
f 21 22 25
f 26 23 24
f 3 25 22
f 26 27 23
f 26 28 27
f 26 29 28
f 25 29 26
f 1 25 3
f 25 30 29
f 30 25 1
f 31 23 27
f 23 31 32
f 23 33 10
f 33 23 32
f 10 34 9
f 34 10 33
f 9 35 6
f 35 9 34
f 6 36 5
f 36 6 35
f 5 37 7
f 37 5 36
f 7 38 8
f 38 7 37
f 8 39 11
f 39 8 38
f 11 40 17
f 40 11 39
f 43 42 41
f 42 43 44
f 45 44 43
f 44 45 46
f 47 46 45
f 46 47 48
f 49 48 47
f 48 49 50
f 51 50 49
f 50 51 52
f 53 52 51
f 52 53 54
f 55 54 53
f 54 55 56
f 55 57 56
f 57 55 58
f 57 60 59
f 60 57 58
f 60 61 59
f 61 60 62
f 41 61 62
f 61 41 42
f 4 63 2
f 63 4 58
f 63 58 64
f 58 4 65
f 58 65 60
f 66 60 65
f 60 66 62
f 64 58 55
f 62 66 40
f 62 40 41
f 41 40 43
f 64 55 67
f 67 55 31
f 43 40 39
f 31 55 32
f 32 55 53
f 32 53 51
f 43 39 45
f 32 51 33
f 33 51 49
f 45 39 47
f 33 49 47
f 33 47 39
f 33 39 38
f 33 38 34
f 34 38 37
f 34 37 35
f 35 37 36
f 66 22 20
f 22 66 65
f 65 3 22
f 3 65 4
f 40 20 17
f 20 40 66
f 64 28 29
f 28 64 67
f 67 27 28
f 27 67 31
f 63 29 30
f 29 63 64
f 68 12 13
f 12 68 69
f 70 25 26
f 25 70 71
f 72 26 24
f 26 72 70
f 73 18 19
f 18 73 74
f 75 16 14
f 16 75 76
f 69 14 12
f 14 69 75
f 74 15 18
f 15 74 77
f 78 19 21
f 19 78 73
f 76 24 16
f 24 76 72
f 25 78 21
f 78 25 71
f 77 13 15
f 13 77 68
f 81 80 79
f 80 81 82
f 82 81 83
f 82 83 84
f 84 83 85
f 84 85 86
f 80 87 79
f 87 80 88
f 83 90 89
f 90 83 81
f 79 90 81
f 90 79 87
f 91 87 88
f 87 91 90
f 90 91 92
f 90 92 89
f 89 92 93
f 89 93 94
f 82 88 80
f 88 82 91
f 92 86 93
f 86 92 84
f 93 85 94
f 85 93 86
f 94 83 89
f 83 94 85
f 82 92 91
f 92 82 84
f 97 96 95
f 96 97 98
f 98 97 99
f 99 97 100
f 99 100 101
f 99 101 102
f 102 101 103
f 103 101 104
f 103 104 105
f 107 101 106
f 101 107 104
f 108 104 107
f 104 108 105
f 109 105 108
f 105 109 103
f 110 103 109
f 103 110 102
f 111 102 110
f 102 111 99
f 112 99 111
f 99 112 98
f 112 96 98
f 96 112 113
f 96 114 95
f 114 96 113
f 114 97 95
f 97 114 115
f 116 97 115
f 97 116 100
f 106 100 116
f 100 106 101
f 50 46 48
f 50 44 46
f 52 44 50
f 108 44 52
f 52 109 108
f 107 44 108
f 54 109 52
f 107 42 44
f 54 110 109
f 106 42 107
f 56 110 54
f 106 61 42
f 56 111 110
f 56 112 111
f 56 113 112
f 57 113 56
f 116 61 106
f 115 61 116
f 113 57 114
f 114 61 115
f 59 114 57
f 114 59 61
f 119 118 117
f 118 119 120
f 123 122 121
f 122 123 124
f 127 126 125
f 126 127 128
f 128 129 126
f 129 128 130
f 68 75 69
f 68 76 75
f 77 76 68
f 117 76 77
f 77 131 117
f 118 76 117
f 74 131 77
f 118 72 76
f 74 132 131
f 133 72 118
f 73 132 74
f 133 70 72
f 73 129 132
f 73 126 129
f 73 125 126
f 78 125 73
f 134 70 133
f 121 70 134
f 125 78 122
f 122 70 121
f 71 122 78
f 122 71 70
f 122 127 125
f 127 122 124
f 135 117 131
f 117 135 119
f 130 132 129
f 132 130 136
f 123 127 124
f 127 123 128
f 128 123 130
f 130 123 137
f 130 137 138
f 130 138 136
f 136 138 135
f 135 138 120
f 135 120 119
f 137 121 134
f 121 137 123
f 138 134 133
f 134 138 137
f 136 131 132
f 131 136 135
f 120 133 118
f 133 120 138
f 3 2 1
f 2 3 4
f 7 6 5
f 8 6 7
f 8 9 6
f 8 10 9
f 11 10 8
f 12 10 11
f 11 13 12
f 14 10 12
f 11 15 13
f 16 10 14
f 17 15 11
f 17 18 15
f 17 19 18
f 20 19 17
f 20 21 19
f 22 21 20
f 16 23 10
f 24 23 16
f 21 22 25
f 26 23 24
f 3 25 22
f 26 27 23
f 26 28 27
f 26 29 28
f 25 29 26
f 1 25 3
f 25 30 29
f 30 25 1
f 31 23 27
f 23 31 32
f 23 33 10
f 33 23 32
f 10 34 9
f 34 10 33
f 9 35 6
f 35 9 34
f 6 36 5
f 36 6 35
f 5 37 7
f 37 5 36
f 7 38 8
f 38 7 37
f 8 39 11
f 39 8 38
f 11 40 17
f 40 11 39
f 43 42 41
f 42 43 44
f 45 44 43
f 44 45 46
f 47 46 45
f 46 47 48
f 49 48 47
f 48 49 50
f 51 50 49
f 50 51 52
f 53 52 51
f 52 53 54
f 55 54 53
f 54 55 56
f 55 57 56
f 57 55 58
f 57 60 59
f 60 57 58
f 60 61 59
f 61 60 62
f 41 61 62
f 61 41 42
f 4 63 2
f 63 4 58
f 63 58 64
f 58 4 65
f 58 65 60
f 66 60 65
f 60 66 62
f 64 58 55
f 62 66 40
f 62 40 41
f 41 40 43
f 64 55 67
f 67 55 31
f 43 40 39
f 31 55 32
f 32 55 53
f 32 53 51
f 43 39 45
f 32 51 33
f 33 51 49
f 45 39 47
f 33 49 47
f 33 47 39
f 33 39 38
f 33 38 34
f 34 38 37
f 34 37 35
f 35 37 36
f 66 22 20
f 22 66 65
f 65 3 22
f 3 65 4
f 40 20 17
f 20 40 66
f 64 28 29
f 28 64 67
f 67 27 28
f 27 67 31
f 63 29 30
f 29 63 64
f 68 12 13
f 12 68 69
f 70 25 26
f 25 70 71
f 72 26 24
f 26 72 70
f 73 18 19
f 18 73 74
f 75 16 14
f 16 75 76
f 69 14 12
f 14 69 75
f 74 15 18
f 15 74 77
f 78 19 21
f 19 78 73
f 76 24 16
f 24 76 72
f 25 78 21
f 78 25 71
f 77 13 15
f 13 77 68
f 81 80 79
f 80 81 82
f 82 81 83
f 82 83 84
f 84 83 85
f 84 85 86
f 80 87 79
f 87 80 88
f 83 90 89
f 90 83 81
f 79 90 81
f 90 79 87
f 91 87 88
f 87 91 90
f 90 91 92
f 90 92 89
f 89 92 93
f 89 93 94
f 82 88 80
f 88 82 91
f 92 86 93
f 86 92 84
f 93 85 94
f 85 93 86
f 94 83 89
f 83 94 85
f 82 92 91
f 92 82 84
f 97 96 95
f 96 97 98
f 98 97 99
f 99 97 100
f 99 100 101
f 99 101 102
f 102 101 103
f 103 101 104
f 103 104 105
f 107 101 106
f 101 107 104
f 108 104 107
f 104 108 105
f 109 105 108
f 105 109 103
f 110 103 109
f 103 110 102
f 111 102 110
f 102 111 99
f 112 99 111
f 99 112 98
f 112 96 98
f 96 112 113
f 96 114 95
f 114 96 113
f 114 97 95
f 97 114 115
f 116 97 115
f 97 116 100
f 106 100 116
f 100 106 101
f 50 46 48
f 50 44 46
f 52 44 50
f 108 44 52
f 52 109 108
f 107 44 108
f 54 109 52
f 107 42 44
f 54 110 109
f 106 42 107
f 56 110 54
f 106 61 42
f 56 111 110
f 56 112 111
f 56 113 112
f 57 113 56
f 116 61 106
f 115 61 116
f 113 57 114
f 114 61 115
f 59 114 57
f 114 59 61
f 119 118 117
f 118 119 120
f 123 122 121
f 122 123 124
f 127 126 125
f 126 127 128
f 128 129 126
f 129 128 130
f 68 75 69
f 68 76 75
f 77 76 68
f 117 76 77
f 77 131 117
f 118 76 117
f 74 131 77
f 118 72 76
f 74 132 131
f 133 72 118
f 73 132 74
f 133 70 72
f 73 129 132
f 73 126 129
f 73 125 126
f 78 125 73
f 134 70 133
f 121 70 134
f 125 78 122
f 122 70 121
f 71 122 78
f 122 71 70
f 122 127 125
f 127 122 124
f 135 117 131
f 117 135 119
f 130 132 129
f 132 130 136
f 123 127 124
f 127 123 128
f 128 123 130
f 130 123 137
f 130 137 138
f 130 138 136
f 136 138 135
f 135 138 120
f 135 120 119
f 137 121 134
f 121 137 123
f 138 134 133
f 134 138 137
f 136 131 132
f 131 136 135
f 120 133 118
f 133 120 138
