# City room prop — voxel footprint 2x2x1 (0.5 m cells)
o gravestoneBevel
v 0.365203 0.402741 0.227944
v 1.634797 0.402741 0.227944
v 0.365203 0.673387 0.227944
v 0.593976 0.631252 0.227944
v 0.441719 0.809414 0.227944
v 1.406024 0.631252 0.227944
v 0.593976 1.372846 0.227944
v 0.365203 0.945442 0.227944
v 1.634797 1.526484 0.227944
v 0.365203 1.526484 0.227944
v 0.816491 1.372846 0.227944
v 1.406024 1.372846 0.227944
v 0.894164 1.662392 0.227944
v 0.640947 1.601358 0.227944
v 0.440163 1.601358 0.227944
v 0.689051 1.780679 0.227944
v 0.938895 1.707073 0.227944
v 1.000000 1.723427 0.227944
v 1.310949 1.780679 0.227944
v 1.061105 1.707073 0.227944
v 0.820474 1.911951 0.227944
v 1.105836 1.662392 0.227944
v 1.183509 1.372846 0.227944
v 1.179526 1.911951 0.227944
v 1.000000 1.960000 0.227944
v 1.359053 1.601358 0.227944
v 1.559837 1.601358 0.227944
v 0.640947 1.601358 0.772056
v 0.440163 1.601358 0.772056
v 0.365203 1.526484 0.772056
v 0.365203 0.945442 0.772056
v 1.559837 1.601358 0.772056
v 1.634797 1.526484 0.772056
v 1.359053 1.601358 0.772056
v 1.310949 1.780679 0.772056
v 1.179526 1.911951 0.772056
v 1.000000 1.960000 0.772056
v 0.820474 1.911951 0.772056
v 0.689051 1.780679 0.772056
v 0.816491 1.372846 0.409315
v 0.593976 1.372846 0.409315
v 0.894164 1.662392 0.409315
v 0.938895 1.707073 0.409315
v 1.000000 1.723427 0.409315
v 1.061105 1.707073 0.409315
v 1.105836 1.662392 0.409315
v 1.183509 1.372846 0.409315
v 1.406024 1.372846 0.409315
v 1.406024 0.631252 0.409315
v 0.593976 0.631252 0.409315
v 0.816491 1.372846 0.772056
v 0.816491 1.372846 0.590685
v 0.593976 1.372846 0.772056
v 0.593976 1.372846 0.590685
v 0.593976 0.631252 0.590685
v 0.593976 0.631252 0.772056
v 1.406024 0.631252 0.590685
v 1.406024 0.631252 0.772056
v 1.406024 1.372846 0.590685
v 1.406024 1.372846 0.772056
v 1.183509 1.372846 0.772056
v 1.183509 1.372846 0.590685
v 1.105836 1.662392 0.590685
v 1.105836 1.662392 0.772056
v 1.061105 1.707073 0.590685
v 1.061105 1.707073 0.772056
v 1.000000 1.723427 0.772056
v 1.000000 1.723427 0.590685
v 0.938895 1.707073 0.772056
v 0.938895 1.707073 0.590685
v 0.894164 1.662392 0.772056
v 0.894164 1.662392 0.590685
v 1.634797 0.402741 0.772056
v 0.365203 0.402741 0.772056
v 0.365203 0.673387 0.772056
v 0.441719 0.809414 0.772056
v 1.816167 0.402741 0.227944
v 1.816167 0.402741 0.772056
v 1.634797 0.402741 0.046574
v 1.634797 0.402741 0.953426
v 0.365203 0.402741 0.046574
v 0.365203 0.402741 0.953426
v 0.183833 0.402741 0.227944
v 0.183833 0.402741 0.772056
v 1.816167 0.040000 0.227944
v 1.816167 0.040000 0.772056
v 0.365203 0.040000 0.046574
v 1.634797 0.040000 0.046574
v 1.634797 0.040000 0.953426
v 0.365203 0.040000 0.953426
v 0.183833 0.040000 0.772056
v 0.183833 0.040000 0.227944
f 3 2 1
f 2 3 4
f 4 3 5
f 6 2 4
f 4 5 7
f 7 5 8
f 2 6 9
f 7 8 10
f 7 10 11
f 9 6 12
f 11 10 13
f 13 10 14
f 14 10 15
f 13 14 16
f 13 16 17
f 17 16 18
f 19 18 16
f 19 20 18
f 19 16 21
f 19 22 20
f 12 22 9
f 22 12 23
f 19 21 24
f 24 21 25
f 26 22 19
f 9 22 26
f 9 26 27
f 15 28 14
f 28 15 29
f 10 29 15
f 29 10 30
f 8 30 10
f 30 8 31
f 32 9 27
f 9 32 33
f 26 32 27
f 32 26 34
f 35 26 19
f 26 35 34
f 24 35 19
f 35 24 36
f 25 36 24
f 36 25 37
f 21 37 25
f 37 21 38
f 16 38 21
f 38 16 39
f 28 16 14
f 16 28 39
f 41 11 40
f 11 41 7
f 42 11 13
f 11 42 40
f 42 17 43
f 17 42 13
f 43 18 44
f 18 43 17
f 44 20 45
f 20 44 18
f 46 20 22
f 20 46 45
f 23 46 22
f 46 23 47
f 47 12 48
f 12 47 23
f 6 48 12
f 48 6 49
f 4 49 6
f 49 4 50
f 41 4 7
f 4 41 50
f 53 52 51
f 52 53 54
f 53 55 54
f 55 53 56
f 55 58 57
f 58 55 56
f 58 59 57
f 59 58 60
f 61 59 60
f 59 61 62
f 61 63 62
f 63 61 64
f 64 65 63
f 65 64 66
f 67 65 66
f 65 67 68
f 69 68 67
f 68 69 70
f 71 70 69
f 70 71 72
f 71 52 72
f 52 71 51
f 34 33 32
f 64 33 34
f 64 34 35
f 61 33 64
f 60 33 61
f 64 35 66
f 58 33 60
f 58 73 33
f 73 58 74
f 56 74 58
f 74 56 75
f 75 56 76
f 76 56 53
f 76 53 31
f 66 35 67
f 31 53 30
f 39 67 35
f 39 69 67
f 39 35 36
f 39 71 69
f 53 71 30
f 71 53 51
f 39 36 38
f 38 36 37
f 28 71 39
f 30 71 28
f 29 30 28
f 75 5 3
f 5 75 76
f 76 8 5
f 8 76 31
f 74 3 1
f 3 74 75
f 33 2 9
f 2 33 73
f 79 78 77
f 78 79 80
f 80 79 81
f 80 81 82
f 82 81 83
f 82 83 84
f 78 85 77
f 85 78 86
f 81 88 87
f 88 81 79
f 77 88 79
f 88 77 85
f 89 85 86
f 85 89 88
f 88 89 90
f 88 90 87
f 87 90 91
f 87 91 92
f 80 86 78
f 86 80 89
f 90 84 91
f 84 90 82
f 91 83 92
f 83 91 84
f 92 81 87
f 81 92 83
f 80 90 89
f 90 80 82
f 45 43 44
f 46 43 45
f 46 42 43
f 47 42 46
f 42 47 40
f 48 40 47
f 49 40 48
f 49 41 40
f 41 49 50
f 54 55 52
f 55 59 52
f 59 55 57
f 52 59 62
f 52 62 72
f 72 62 63
f 72 63 70
f 70 63 65
f 70 65 68
f 3 2 1
f 2 3 4
f 4 3 5
f 6 2 4
f 4 5 7
f 7 5 8
f 2 6 9
f 7 8 10
f 7 10 11
f 9 6 12
f 11 10 13
f 13 10 14
f 14 10 15
f 13 14 16
f 13 16 17
f 17 16 18
f 19 18 16
f 19 20 18
f 19 16 21
f 19 22 20
f 12 22 9
f 22 12 23
f 19 21 24
f 24 21 25
f 26 22 19
f 9 22 26
f 9 26 27
f 15 28 14
f 28 15 29
f 10 29 15
f 29 10 30
f 8 30 10
f 30 8 31
f 32 9 27
f 9 32 33
f 26 32 27
f 32 26 34
f 35 26 19
f 26 35 34
f 24 35 19
f 35 24 36
f 25 36 24
f 36 25 37
f 21 37 25
f 37 21 38
f 16 38 21
f 38 16 39
f 28 16 14
f 16 28 39
f 41 11 40
f 11 41 7
f 42 11 13
f 11 42 40
f 42 17 43
f 17 42 13
f 43 18 44
f 18 43 17
f 44 20 45
f 20 44 18
f 46 20 22
f 20 46 45
f 23 46 22
f 46 23 47
f 47 12 48
f 12 47 23
f 6 48 12
f 48 6 49
f 4 49 6
f 49 4 50
f 41 4 7
f 4 41 50
f 53 52 51
f 52 53 54
f 53 55 54
f 55 53 56
f 55 58 57
f 58 55 56
f 58 59 57
f 59 58 60
f 61 59 60
f 59 61 62
f 61 63 62
f 63 61 64
f 64 65 63
f 65 64 66
f 67 65 66
f 65 67 68
f 69 68 67
f 68 69 70
f 71 70 69
f 70 71 72
f 71 52 72
f 52 71 51
f 34 33 32
f 64 33 34
f 64 34 35
f 61 33 64
f 60 33 61
f 64 35 66
f 58 33 60
f 58 73 33
f 73 58 74
f 56 74 58
f 74 56 75
f 75 56 76
f 76 56 53
f 76 53 31
f 66 35 67
f 31 53 30
f 39 67 35
f 39 69 67
f 39 35 36
f 39 71 69
f 53 71 30
f 71 53 51
f 39 36 38
f 38 36 37
f 28 71 39
f 30 71 28
f 29 30 28
f 75 5 3
f 5 75 76
f 76 8 5
f 8 76 31
f 74 3 1
f 3 74 75
f 33 2 9
f 2 33 73
f 79 78 77
f 78 79 80
f 80 79 81
f 80 81 82
f 82 81 83
f 82 83 84
f 78 85 77
f 85 78 86
f 81 88 87
f 88 81 79
f 77 88 79
f 88 77 85
f 89 85 86
f 85 89 88
f 88 89 90
f 88 90 87
f 87 90 91
f 87 91 92
f 80 86 78
f 86 80 89
f 90 84 91
f 84 90 82
f 91 83 92
f 83 91 84
f 92 81 87
f 81 92 83
f 80 90 89
f 90 80 82
f 45 43 44
f 46 43 45
f 46 42 43
f 47 42 46
f 42 47 40
f 48 40 47
f 49 40 48
f 49 41 40
f 41 49 50
f 54 55 52
f 55 59 52
f 59 55 57
f 52 59 62
f 52 62 72
f 72 62 63
f 72 63 70
f 70 63 65
f 70 65 68
