# City room prop — voxel footprint 3x1x5 (0.5 m cells)
o grave
v 1.977319 0.040000 4.319892
v 2.280419 0.040000 4.513875
v 1.993763 0.040000 3.960407
v 2.599964 0.040000 4.348374
v 2.313308 0.040000 3.794905
v 2.616409 0.040000 3.988889
v 2.085964 0.332687 4.263621
v 2.096817 0.332687 4.026361
v 2.286011 0.332687 4.391651
v 2.496910 0.332687 4.282419
v 2.307717 0.332687 3.917131
v 2.507763 0.332687 4.045160
v 1.751158 0.040000 4.324900
v 1.661356 0.040000 4.562517
v 2.001840 0.040000 4.283862
v 1.822238 0.040000 4.759095
v 2.162721 0.040000 4.480441
v 2.072920 0.040000 4.718057
v 1.805857 0.246602 4.391737
v 1.971308 0.246602 4.364652
v 1.746588 0.246602 4.548564
v 1.852770 0.246602 4.678306
v 2.077489 0.246602 4.494394
v 2.018221 0.246602 4.651220
v 0.252334 0.040000 1.780100
v 0.182289 0.040000 1.965441
v 0.447866 0.040000 1.748090
v 0.307776 0.040000 2.118772
v 0.573354 0.040000 1.901421
v 0.503309 0.040000 2.086762
v 0.295000 0.201150 1.832233
v 0.424051 0.201150 1.811106
v 0.248770 0.201150 1.954558
v 0.331591 0.201150 2.055756
v 0.506873 0.201150 1.912305
v 0.460643 0.201150 2.034630
v 0.646779 0.040000 3.979008
v 0.998376 0.040000 4.204029
v 0.665854 0.040000 3.562006
v 1.369048 0.040000 4.012048
v 1.036527 0.040000 3.370025
v 1.388124 0.040000 3.595046
v 0.772808 0.277662 3.913735
v 0.785397 0.277662 3.638513
v 1.004861 0.277662 4.062249
v 1.249505 0.277662 3.935541
v 1.030041 0.277662 3.511805
v 1.262095 0.277662 3.660319
v 2.316419 0.040000 1.555083
v 2.246374 0.040000 1.740424
v 2.511951 0.040000 1.523073
v 2.371861 0.040000 1.893755
v 2.637439 0.040000 1.676405
v 2.567394 0.040000 1.861746
v 2.359084 0.201150 1.607216
v 2.488136 0.201150 1.586089
v 2.312855 0.201150 1.729541
v 2.395676 0.201150 1.830739
v 2.570958 0.201150 1.687288
v 2.524728 0.201150 1.809613
v 1.990557 0.040000 2.289361
v 2.139789 0.040000 2.616820
v 2.199529 0.040000 1.996393
v 2.497993 0.040000 2.651312
v 2.557733 0.040000 2.030884
v 2.706965 0.040000 2.358343
v 2.112346 0.332687 2.301088
v 2.250268 0.332687 2.107729
v 2.210839 0.332687 2.517211
v 2.447254 0.332687 2.539975
v 2.486683 0.332687 2.130493
v 2.585175 0.332687 2.346616
v 2.496692 0.040000 1.167492
v 2.426647 0.040000 1.352833
v 2.692224 0.040000 1.135482
v 2.552134 0.040000 1.506164
v 2.817711 0.040000 1.288813
v 2.747666 0.040000 1.474154
v 2.539357 0.201150 1.219624
v 2.668409 0.201150 1.198498
v 2.493128 0.201150 1.341949
v 2.575949 0.201150 1.443148
v 2.751230 0.201150 1.299696
v 2.705001 0.201150 1.422021
v 1.725028 0.040000 1.039518
v 2.076625 0.040000 1.264539
v 1.744104 0.040000 0.622516
v 2.447298 0.040000 1.072558
v 2.114776 0.040000 0.430534
v 2.466373 0.040000 0.655555
v 1.851057 0.277662 0.974244
v 1.863647 0.277662 0.699023
v 2.083111 0.277662 1.122758
v 2.327755 0.277662 0.996050
v 2.108291 0.277662 0.572315
v 2.340344 0.277662 0.720829
v 1.110843 0.455064 3.759200
v 0.695778 0.040000 3.800081
v 0.592012 0.040000 2.459423
v 1.007076 0.455064 2.459423
v 1.110843 0.455064 1.159646
v 0.695778 0.040000 1.118766
v 2.555266 0.040000 2.459423
v 2.140202 0.455064 2.459423
v 2.036436 0.455064 1.159646
v 2.451500 0.040000 3.800081
v 2.451500 0.040000 1.118766
v 2.036436 0.455064 3.759200
v 1.252142 0.455064 4.121577
v 0.952898 0.040000 4.420822
v 1.153584 0.455064 3.974073
v 0.762601 0.040000 4.136023
v 1.399646 0.455064 4.220137
v 1.237696 0.040000 4.611118
v 1.909582 0.040000 4.611118
v 1.573639 0.040000 4.677941
v 1.747632 0.455064 4.220137
v 1.573639 0.455064 4.254746
v 2.384677 0.040000 4.136023
v 2.194380 0.040000 4.420822
v 1.993695 0.455064 3.974073
v 1.895136 0.455064 4.121577
v 2.384677 0.040000 0.782823
v 1.993695 0.455064 0.944773
v 1.573639 0.040000 0.240905
v 1.573639 0.455064 0.664101
v 1.237696 0.040000 0.307728
v 1.399646 0.455064 0.698710
v 1.252142 0.455064 0.797269
v 0.952898 0.040000 0.498024
v 2.194380 0.040000 0.498024
v 1.895136 0.455064 0.797269
v 1.909582 0.040000 0.307728
v 1.747632 0.455064 0.698710
v 1.153584 0.455064 0.944773
v 0.762601 0.040000 0.782823
v 0.511334 0.040000 1.657309
v 0.814435 0.040000 1.851292
v 0.527778 0.040000 1.297824
v 1.133980 0.040000 1.685791
v 0.847324 0.040000 1.132323
v 1.150424 0.040000 1.326306
v 0.619980 0.332687 1.601038
v 0.630833 0.332687 1.363778
v 0.820026 0.332687 1.729067
v 1.030926 0.332687 1.619837
v 0.841732 0.332687 1.254547
v 1.041779 0.332687 1.382576
f 3 2 1
f 2 3 4
f 4 3 5
f 4 5 6
f 9 8 7
f 8 9 10
f 8 10 11
f 11 10 12
f 6 10 4
f 10 6 12
f 9 1 2
f 1 9 7
f 6 11 12
f 11 6 5
f 8 1 7
f 1 8 3
f 10 2 4
f 2 10 9
f 8 5 3
f 5 8 11
f 15 14 13
f 14 15 16
f 16 15 17
f 16 17 18
f 21 20 19
f 20 21 22
f 20 22 23
f 23 22 24
f 18 22 16
f 22 18 24
f 21 13 14
f 13 21 19
f 17 24 18
f 24 17 23
f 20 13 19
f 13 20 15
f 22 14 16
f 14 22 21
f 20 17 15
f 17 20 23
f 27 26 25
f 26 27 28
f 28 27 29
f 28 29 30
f 33 32 31
f 32 33 34
f 32 34 35
f 35 34 36
f 30 34 28
f 34 30 36
f 33 25 26
f 25 33 31
f 29 36 30
f 36 29 35
f 32 25 31
f 25 32 27
f 34 26 28
f 26 34 33
f 32 29 27
f 29 32 35
f 39 38 37
f 38 39 40
f 40 39 41
f 40 41 42
f 45 44 43
f 44 45 46
f 44 46 47
f 47 46 48
f 42 46 40
f 46 42 48
f 45 37 38
f 37 45 43
f 42 47 48
f 47 42 41
f 44 37 43
f 37 44 39
f 46 38 40
f 38 46 45
f 44 41 39
f 41 44 47
f 51 50 49
f 50 51 52
f 52 51 53
f 52 53 54
f 57 56 55
f 56 57 58
f 56 58 59
f 59 58 60
f 54 58 52
f 58 54 60
f 57 49 50
f 49 57 55
f 53 60 54
f 60 53 59
f 56 49 55
f 49 56 51
f 58 50 52
f 50 58 57
f 56 53 51
f 53 56 59
f 63 62 61
f 62 63 64
f 64 63 65
f 64 65 66
f 69 68 67
f 68 69 70
f 68 70 71
f 71 70 72
f 66 70 64
f 70 66 72
f 69 61 62
f 61 69 67
f 66 71 72
f 71 66 65
f 68 61 67
f 61 68 63
f 70 62 64
f 62 70 69
f 68 65 63
f 65 68 71
f 75 74 73
f 74 75 76
f 76 75 77
f 76 77 78
f 81 80 79
f 80 81 82
f 80 82 83
f 83 82 84
f 78 82 76
f 82 78 84
f 81 73 74
f 73 81 79
f 77 84 78
f 84 77 83
f 80 73 79
f 73 80 75
f 82 74 76
f 74 82 81
f 80 77 75
f 77 80 83
f 87 86 85
f 86 87 88
f 88 87 89
f 88 89 90
f 93 92 91
f 92 93 94
f 92 94 95
f 95 94 96
f 90 94 88
f 94 90 96
f 93 85 86
f 85 93 91
f 90 95 96
f 95 90 89
f 92 85 91
f 85 92 87
f 94 86 88
f 86 94 93
f 92 89 87
f 89 92 95
f 99 98 97
f 99 97 100
f 102 100 101
f 99 100 102
f 105 104 103
f 106 103 104
f 105 103 107
f 108 106 104
f 111 110 109
f 110 111 112
f 97 112 111
f 112 97 98
f 109 114 113
f 114 109 110
f 117 116 115
f 116 117 118
f 121 120 119
f 120 121 122
f 108 119 106
f 119 108 121
f 122 115 120
f 115 122 117
f 113 116 118
f 116 113 114
f 123 105 107
f 105 123 124
f 127 126 125
f 126 127 128
f 127 129 128
f 129 127 130
f 131 124 123
f 124 131 132
f 133 132 131
f 132 133 134
f 125 134 133
f 134 125 126
f 136 101 135
f 101 136 102
f 130 135 129
f 135 130 136
f 105 108 104
f 108 105 124
f 108 124 121
f 121 124 122
f 122 124 132
f 122 132 134
f 122 134 117
f 117 134 126
f 117 126 118
f 118 126 128
f 118 128 113
f 113 128 129
f 113 129 109
f 109 129 111
f 111 129 135
f 111 135 101
f 111 101 97
f 97 101 100
f 106 107 103
f 107 106 119
f 107 119 123
f 123 119 120
f 123 120 131
f 131 120 115
f 131 115 133
f 133 115 116
f 133 116 125
f 125 116 114
f 125 114 127
f 127 114 110
f 127 110 130
f 130 110 112
f 130 112 136
f 136 112 98
f 136 98 102
f 102 98 99
f 139 138 137
f 138 139 140
f 140 139 141
f 140 141 142
f 145 144 143
f 144 145 146
f 144 146 147
f 147 146 148
f 142 146 140
f 146 142 148
f 145 137 138
f 137 145 143
f 142 147 148
f 147 142 141
f 144 137 143
f 137 144 139
f 146 138 140
f 138 146 145
f 144 141 139
f 141 144 147
f 3 2 1
f 2 3 4
f 4 3 5
f 4 5 6
f 9 8 7
f 8 9 10
f 8 10 11
f 11 10 12
f 6 10 4
f 10 6 12
f 9 1 2
f 1 9 7
f 6 11 12
f 11 6 5
f 8 1 7
f 1 8 3
f 10 2 4
f 2 10 9
f 8 5 3
f 5 8 11
f 15 14 13
f 14 15 16
f 16 15 17
f 16 17 18
f 21 20 19
f 20 21 22
f 20 22 23
f 23 22 24
f 18 22 16
f 22 18 24
f 21 13 14
f 13 21 19
f 17 24 18
f 24 17 23
f 20 13 19
f 13 20 15
f 22 14 16
f 14 22 21
f 20 17 15
f 17 20 23
f 27 26 25
f 26 27 28
f 28 27 29
f 28 29 30
f 33 32 31
f 32 33 34
f 32 34 35
f 35 34 36
f 30 34 28
f 34 30 36
f 33 25 26
f 25 33 31
f 29 36 30
f 36 29 35
f 32 25 31
f 25 32 27
f 34 26 28
f 26 34 33
f 32 29 27
f 29 32 35
f 39 38 37
f 38 39 40
f 40 39 41
f 40 41 42
f 45 44 43
f 44 45 46
f 44 46 47
f 47 46 48
f 42 46 40
f 46 42 48
f 45 37 38
f 37 45 43
f 42 47 48
f 47 42 41
f 44 37 43
f 37 44 39
f 46 38 40
f 38 46 45
f 44 41 39
f 41 44 47
f 51 50 49
f 50 51 52
f 52 51 53
f 52 53 54
f 57 56 55
f 56 57 58
f 56 58 59
f 59 58 60
f 54 58 52
f 58 54 60
f 57 49 50
f 49 57 55
f 53 60 54
f 60 53 59
f 56 49 55
f 49 56 51
f 58 50 52
f 50 58 57
f 56 53 51
f 53 56 59
f 63 62 61
f 62 63 64
f 64 63 65
f 64 65 66
f 69 68 67
f 68 69 70
f 68 70 71
f 71 70 72
f 66 70 64
f 70 66 72
f 69 61 62
f 61 69 67
f 66 71 72
f 71 66 65
f 68 61 67
f 61 68 63
f 70 62 64
f 62 70 69
f 68 65 63
f 65 68 71
f 75 74 73
f 74 75 76
f 76 75 77
f 76 77 78
f 81 80 79
f 80 81 82
f 80 82 83
f 83 82 84
f 78 82 76
f 82 78 84
f 81 73 74
f 73 81 79
f 77 84 78
f 84 77 83
f 80 73 79
f 73 80 75
f 82 74 76
f 74 82 81
f 80 77 75
f 77 80 83
f 87 86 85
f 86 87 88
f 88 87 89
f 88 89 90
f 93 92 91
f 92 93 94
f 92 94 95
f 95 94 96
f 90 94 88
f 94 90 96
f 93 85 86
f 85 93 91
f 90 95 96
f 95 90 89
f 92 85 91
f 85 92 87
f 94 86 88
f 86 94 93
f 92 89 87
f 89 92 95
f 99 98 97
f 99 97 100
f 102 100 101
f 99 100 102
f 105 104 103
f 106 103 104
f 105 103 107
f 108 106 104
f 111 110 109
f 110 111 112
f 97 112 111
f 112 97 98
f 109 114 113
f 114 109 110
f 117 116 115
f 116 117 118
f 121 120 119
f 120 121 122
f 108 119 106
f 119 108 121
f 122 115 120
f 115 122 117
f 113 116 118
f 116 113 114
f 123 105 107
f 105 123 124
f 127 126 125
f 126 127 128
f 127 129 128
f 129 127 130
f 131 124 123
f 124 131 132
f 133 132 131
f 132 133 134
f 125 134 133
f 134 125 126
f 136 101 135
f 101 136 102
f 130 135 129
f 135 130 136
f 105 108 104
f 108 105 124
f 108 124 121
f 121 124 122
f 122 124 132
f 122 132 134
f 122 134 117
f 117 134 126
f 117 126 118
f 118 126 128
f 118 128 113
f 113 128 129
f 113 129 109
f 109 129 111
f 111 129 135
f 111 135 101
f 111 101 97
f 97 101 100
f 106 107 103
f 107 106 119
f 107 119 123
f 123 119 120
f 123 120 131
f 131 120 115
f 131 115 133
f 133 115 116
f 133 116 125
f 125 116 114
f 125 114 127
f 127 114 110
f 127 110 130
f 130 110 112
f 130 112 136
f 136 112 98
f 136 98 102
f 102 98 99
f 139 138 137
f 138 139 140
f 140 139 141
f 140 141 142
f 145 144 143
f 144 145 146
f 144 146 147
f 147 146 148
f 142 146 140
f 146 142 148
f 145 137 138
f 137 145 143
f 142 147 148
f 147 142 141
f 144 137 143
f 137 144 139
f 146 138 140
f 138 146 145
f 144 141 139
f 141 144 147
