# City room prop — voxel footprint 2x3x1 (0.5 m cells)
o gravestoneRound
v 0.362840 0.404091 0.226931
v 1.637160 0.404091 0.226931
v 0.362840 1.496366 0.226931
v 1.637160 1.496366 0.226931
v 0.411341 1.740196 0.226931
v 1.588659 1.740196 0.226931
v 0.549460 1.946906 0.226931
v 1.450540 1.946906 0.226931
v 0.756169 2.085025 0.226931
v 1.243831 2.085025 0.226931
v 1.000000 2.133526 0.226931
v 0.362840 0.404091 0.773069
v 0.362840 1.496366 0.773069
v 1.637160 0.404091 0.773069
v 1.455114 0.404091 0.773069
v 1.637160 1.496366 0.773069
v 1.455114 1.478436 0.773069
v 1.417176 1.669166 0.773069
v 1.588659 1.740196 0.773069
v 1.319293 1.815658 0.773069
v 1.450540 1.946906 0.773069
v 1.172800 1.913542 0.773069
v 1.000000 1.947913 0.773069
v 1.243831 2.085025 0.773069
v 0.756169 2.085025 0.773069
v 1.000000 2.133526 0.773069
v 0.549460 1.946906 0.773069
v 0.827200 1.913542 0.773069
v 0.680707 1.815658 0.773069
v 0.411341 1.740196 0.773069
v 0.582824 1.669166 0.773069
v 0.544886 1.478436 0.773069
v 0.544886 0.404091 0.773069
v 1.455114 0.404091 0.591023
v 0.544886 0.404091 0.591023
v 1.455114 1.478436 0.591023
v 0.544886 1.478436 0.591023
v 1.417176 1.669166 0.591023
v 0.582824 1.669166 0.591023
v 0.680707 1.815658 0.591023
v 1.319293 1.815658 0.591023
v 0.827200 1.913542 0.591023
v 1.172800 1.913542 0.591023
v 1.000000 1.947913 0.591023
v 1.819206 0.404091 0.226931
v 1.819206 0.040000 0.226931
v 1.819206 0.404091 0.773069
v 1.819206 0.040000 0.773069
v 0.362840 0.040000 0.044886
v 1.637160 0.040000 0.044886
v 0.362840 0.404091 0.044886
v 1.637160 0.404091 0.044886
v 0.726931 0.040000 0.955114
v 0.726931 0.040000 0.773069
v 0.362840 0.040000 0.955114
v 0.180794 0.040000 0.773069
v 0.180794 0.040000 0.226931
v 1.273069 0.040000 0.773069
v 1.273069 0.040000 0.955114
v 1.637160 0.040000 0.955114
v 1.637160 0.404091 0.955114
v 0.180794 0.404091 0.773069
v 0.362840 0.404091 0.955114
v 0.180794 0.404091 0.226931
v 0.726931 0.404091 0.955114
v 1.273069 0.404091 0.773069
v 1.273069 0.404091 0.955114
v 0.726931 0.404091 0.773069
v 1.360824 1.456833 0.126806
v 1.494647 1.590656 0.126806
v 1.360824 1.456833 0.873194
v 1.494647 1.590656 0.873194
v 1.731451 1.353852 0.126806
v 1.597627 1.220029 0.126806
v 1.731451 1.353852 0.873194
v 1.597627 1.220029 0.873194
v 1.494647 1.220029 0.873194
v 1.494647 1.220029 0.126806
v 1.360824 1.353852 0.873194
v 1.360824 1.353852 0.126806
v 1.731451 1.456833 0.126806
v 1.731451 1.456833 0.873194
v 1.597627 1.590656 0.126806
v 1.597627 1.590656 0.873194
v 0.268549 1.456833 0.126806
v 0.402373 1.590656 0.126806
v 0.268549 1.456833 0.873194
v 0.402373 1.590656 0.873194
v 0.639176 1.353852 0.126806
v 0.505353 1.220029 0.126806
v 0.639176 1.353852 0.873194
v 0.505353 1.220029 0.873194
v 0.402373 1.220029 0.873194
v 0.402373 1.220029 0.126806
v 0.268549 1.353852 0.873194
v 0.268549 1.353852 0.126806
v 0.639176 1.456833 0.126806
v 0.639176 1.456833 0.873194
v 0.505353 1.590656 0.126806
v 0.505353 1.590656 0.873194
f 3 2 1
f 2 3 4
f 4 3 5
f 4 5 6
f 6 5 7
f 6 7 8
f 8 7 9
f 8 9 10
f 10 9 11
f 12 3 1
f 3 12 13
f 16 15 14
f 15 16 17
f 17 16 18
f 18 16 19
f 18 19 20
f 20 19 21
f 20 21 22
f 22 21 23
f 23 21 24
f 25 23 24
f 25 24 26
f 27 23 25
f 27 28 23
f 27 29 28
f 30 29 27
f 30 31 29
f 13 31 30
f 13 32 31
f 12 32 13
f 32 12 33
f 16 2 4
f 2 16 14
f 13 5 3
f 5 13 30
f 30 7 5
f 7 30 27
f 7 25 9
f 25 7 27
f 9 26 11
f 26 9 25
f 11 24 10
f 24 11 26
f 10 21 8
f 21 10 24
f 21 6 8
f 6 21 19
f 19 4 6
f 4 19 16
f 36 35 34
f 35 36 37
f 37 36 38
f 37 38 39
f 39 38 40
f 40 38 41
f 40 41 42
f 42 41 43
f 42 43 44
f 18 41 38
f 41 18 20
f 22 41 20
f 41 22 43
f 23 43 22
f 43 23 44
f 28 44 23
f 44 28 42
f 29 42 28
f 42 29 40
f 29 39 40
f 39 29 31
f 31 37 39
f 37 31 32
f 32 35 37
f 35 32 33
f 15 36 34
f 36 15 17
f 17 38 36
f 38 17 18
f 47 46 45
f 46 47 48
f 51 50 49
f 50 51 52
f 45 50 52
f 50 45 46
f 55 54 53
f 49 54 55
f 49 55 56
f 49 56 57
f 49 58 54
f 50 58 49
f 50 59 58
f 50 60 59
f 46 60 50
f 60 46 48
f 61 48 47
f 48 61 60
f 55 62 56
f 62 55 63
f 56 64 57
f 64 56 62
f 57 51 49
f 51 57 64
f 65 55 53
f 55 65 63
f 67 61 66
f 61 51 66
f 66 51 68
f 68 51 65
f 65 51 63
f 63 51 64
f 63 64 62
f 61 52 51
f 47 52 61
f 52 47 45
f 59 66 58
f 66 59 67
f 66 54 58
f 54 66 68
f 65 54 68
f 54 65 53
f 61 59 60
f 59 61 67
f 71 70 69
f 70 71 72
f 75 74 73
f 74 75 76
f 79 78 77
f 78 79 80
f 83 82 81
f 82 83 84
f 70 84 83
f 84 70 72
f 82 73 81
f 73 82 75
f 77 74 76
f 74 77 78
f 79 69 80
f 69 79 71
f 80 74 78
f 74 80 73
f 73 80 69
f 73 69 81
f 81 69 70
f 81 70 83
f 76 79 77
f 79 76 75
f 79 75 71
f 71 75 82
f 71 82 72
f 72 82 84
f 87 86 85
f 86 87 88
f 91 90 89
f 90 91 92
f 95 94 93
f 94 95 96
f 99 98 97
f 98 99 100
f 86 100 99
f 100 86 88
f 98 89 97
f 89 98 91
f 93 90 92
f 90 93 94
f 95 85 96
f 85 95 87
f 96 90 94
f 90 96 89
f 89 96 85
f 89 85 97
f 97 85 86
f 97 86 99
f 92 95 93
f 95 92 91
f 95 91 87
f 87 91 98
f 87 98 88
f 88 98 100
f 3 2 1
f 2 3 4
f 4 3 5
f 4 5 6
f 6 5 7
f 6 7 8
f 8 7 9
f 8 9 10
f 10 9 11
f 12 3 1
f 3 12 13
f 16 15 14
f 15 16 17
f 17 16 18
f 18 16 19
f 18 19 20
f 20 19 21
f 20 21 22
f 22 21 23
f 23 21 24
f 25 23 24
f 25 24 26
f 27 23 25
f 27 28 23
f 27 29 28
f 30 29 27
f 30 31 29
f 13 31 30
f 13 32 31
f 12 32 13
f 32 12 33
f 16 2 4
f 2 16 14
f 13 5 3
f 5 13 30
f 30 7 5
f 7 30 27
f 7 25 9
f 25 7 27
f 9 26 11
f 26 9 25
f 11 24 10
f 24 11 26
f 10 21 8
f 21 10 24
f 21 6 8
f 6 21 19
f 19 4 6
f 4 19 16
f 36 35 34
f 35 36 37
f 37 36 38
f 37 38 39
f 39 38 40
f 40 38 41
f 40 41 42
f 42 41 43
f 42 43 44
f 18 41 38
f 41 18 20
f 22 41 20
f 41 22 43
f 23 43 22
f 43 23 44
f 28 44 23
f 44 28 42
f 29 42 28
f 42 29 40
f 29 39 40
f 39 29 31
f 31 37 39
f 37 31 32
f 32 35 37
f 35 32 33
f 15 36 34
f 36 15 17
f 17 38 36
f 38 17 18
f 47 46 45
f 46 47 48
f 51 50 49
f 50 51 52
f 45 50 52
f 50 45 46
f 55 54 53
f 49 54 55
f 49 55 56
f 49 56 57
f 49 58 54
f 50 58 49
f 50 59 58
f 50 60 59
f 46 60 50
f 60 46 48
f 61 48 47
f 48 61 60
f 55 62 56
f 62 55 63
f 56 64 57
f 64 56 62
f 57 51 49
f 51 57 64
f 65 55 53
f 55 65 63
f 67 61 66
f 61 51 66
f 66 51 68
f 68 51 65
f 65 51 63
f 63 51 64
f 63 64 62
f 61 52 51
f 47 52 61
f 52 47 45
f 59 66 58
f 66 59 67
f 66 54 58
f 54 66 68
f 65 54 68
f 54 65 53
f 61 59 60
f 59 61 67
f 71 70 69
f 70 71 72
f 75 74 73
f 74 75 76
f 79 78 77
f 78 79 80
f 83 82 81
f 82 83 84
f 70 84 83
f 84 70 72
f 82 73 81
f 73 82 75
f 77 74 76
f 74 77 78
f 79 69 80
f 69 79 71
f 80 74 78
f 74 80 73
f 73 80 69
f 73 69 81
f 81 69 70
f 81 70 83
f 76 79 77
f 79 76 75
f 79 75 71
f 71 75 82
f 71 82 72
f 72 82 84
f 87 86 85
f 86 87 88
f 91 90 89
f 90 91 92
f 95 94 93
f 94 95 96
f 99 98 97
f 98 99 100
f 86 100 99
f 100 86 88
f 98 89 97
f 89 98 91
f 93 90 92
f 90 93 94
f 95 85 96
f 85 95 87
f 96 90 94
f 90 96 89
f 89 96 85
f 89 85 97
f 97 85 86
f 97 86 99
f 92 95 93
f 95 92 91
f 95 91 87
f 87 91 98
f 87 98 88
f 88 98 100
