# City room prop — voxel footprint 2x4x2 (0.5 m cells)
o gravestoneCross
v 1.270481 2.151730 0.714188
v 1.270481 2.151730 1.285812
v 0.729519 2.151730 0.714188
v 0.729519 2.151730 1.285812
v 0.608913 0.695365 0.714188
v 1.391087 0.695365 0.714188
v 0.525117 0.786387 0.714188
v 1.474883 0.786387 0.714188
v 0.630646 2.060707 0.714188
v 1.369354 2.060707 0.714188
v 1.391087 0.695365 1.285812
v 0.608913 0.695365 1.285812
v 1.474883 0.786387 1.285812
v 0.525117 0.786387 1.285812
v 1.239009 0.877410 1.285812
v 1.280908 0.922922 1.285812
v 0.760991 0.877410 1.285812
v 0.719092 0.922922 1.285812
v 1.369354 2.060707 1.285812
v 0.630646 2.060707 1.285812
v 1.197992 1.924173 1.285812
v 0.802008 1.924173 1.285812
v 1.148555 1.969685 1.285812
v 0.851445 1.969685 1.285812
v 1.140521 2.151730 1.118785
v 1.140521 2.151730 0.881215
v 0.859479 2.151730 1.118785
v 0.859479 2.151730 0.881215
v 1.126686 3.371421 0.881215
v 1.126686 3.371421 1.118785
v 0.873314 3.371421 0.881215
v 0.873314 3.371421 1.118785
v 0.831756 3.316807 0.881215
v 0.831756 3.316807 1.118785
v 1.168244 3.316807 0.881215
v 1.168244 3.316807 1.118785
v 1.000000 3.332098 0.938115
v 1.000000 3.332098 1.061885
v 0.711425 3.215648 0.938115
v 0.711425 3.215648 1.061885
v 1.288575 3.215648 0.938115
v 1.288575 3.215648 1.061885
v 1.408106 2.934511 0.938115
v 1.408106 2.934511 1.061885
v 1.288575 2.653374 0.938115
v 1.288575 2.653374 1.061885
v 1.000000 2.536923 1.061885
v 1.000000 2.536923 0.938115
v 0.711425 2.653374 1.061885
v 0.711425 2.653374 0.938115
v 0.591894 2.934511 0.938115
v 0.591894 2.934511 1.061885
v 1.209913 2.733502 0.938115
v 1.295376 2.934511 0.938115
v 1.209913 2.733502 1.061885
v 1.295376 2.934511 1.061885
v 1.209913 3.135520 0.938115
v 1.209913 3.135520 1.061885
v 1.000000 3.220227 1.061885
v 1.000000 3.220227 0.938115
v 0.790087 3.135520 1.061885
v 0.790087 3.135520 0.938115
v 0.704624 2.934511 0.938115
v 0.704624 2.934511 1.061885
v 0.790087 2.733502 0.938115
v 0.790087 2.733502 1.061885
v 1.000000 2.648794 0.938115
v 1.000000 2.648794 1.061885
v 1.819206 0.404091 0.581295
v 1.819206 0.404091 1.418705
v 1.637160 0.404091 0.399249
v 1.637160 0.404091 1.600751
v 0.362840 0.404091 0.399249
v 0.362840 0.404091 1.600751
v 0.180794 0.404091 0.581295
v 0.180794 0.404091 1.418705
v 1.819206 0.040000 0.581295
v 1.819206 0.040000 1.418705
v 0.362840 0.040000 0.399249
v 1.637160 0.040000 0.399249
v 1.637160 0.040000 1.600751
v 0.362840 0.040000 1.600751
v 0.180794 0.040000 1.418705
v 0.180794 0.040000 0.581295
v 1.573444 0.695365 0.691031
v 1.573444 0.695365 1.308969
v 1.505579 0.695365 0.623165
v 1.505579 0.695365 1.376835
v 0.494421 0.695365 0.623165
v 0.494421 0.695365 1.376835
v 0.426556 0.695365 0.691031
v 0.426556 0.695365 1.308969
v 0.362840 0.404091 0.656701
v 0.362840 0.404091 1.343299
v 0.438246 0.404091 0.581295
v 1.561754 0.404091 0.581295
v 1.637160 0.404091 0.656701
v 1.637160 0.404091 1.343299
v 0.438246 0.404091 1.418705
v 1.561754 0.404091 1.418705
v 1.393855 3.065584 0.807528
v 1.393855 3.065584 1.192472
v 0.606145 3.065584 0.807528
v 0.606145 3.065584 1.192472
v 0.551531 2.858052 0.807528
v 0.551531 3.010970 0.807528
v 0.551531 2.858052 1.192472
v 0.551531 3.010970 1.192472
v 1.448469 3.010970 0.807528
v 1.448469 2.858052 0.807528
v 1.448469 3.010970 1.192472
v 1.448469 2.858052 1.192472
v 1.393855 2.803438 1.192472
v 1.393855 2.803438 0.807528
v 0.606145 2.803438 1.192472
v 0.606145 2.803438 0.807528
v 1.280908 0.922922 1.103766
v 1.197992 1.924173 1.103766
v 1.239009 0.877410 1.103766
v 0.760991 0.877410 1.103766
v 0.719092 0.922922 1.103766
v 0.802008 1.924173 1.103766
v 1.148555 1.969685 1.103766
v 0.851445 1.969685 1.103766
f 3 2 1
f 2 3 4
f 7 6 5
f 6 7 8
f 8 7 9
f 8 9 10
f 10 9 3
f 10 3 1
f 13 12 11
f 12 13 14
f 14 13 15
f 15 13 16
f 17 14 15
f 18 14 17
f 16 13 19
f 14 18 20
f 16 19 21
f 20 18 22
f 21 19 23
f 23 19 24
f 20 22 24
f 20 24 19
f 20 19 2
f 20 2 4
f 12 6 11
f 6 12 5
f 12 7 5
f 7 12 14
f 13 6 8
f 6 13 11
f 19 8 10
f 8 19 13
f 14 9 7
f 9 14 20
f 1 19 10
f 19 1 2
f 9 4 3
f 4 9 20
f 27 26 25
f 26 27 28
f 31 30 29
f 30 31 32
f 34 31 33
f 31 34 32
f 30 35 29
f 35 30 36
f 36 27 25
f 27 36 34
f 34 36 30
f 34 30 32
f 36 26 35
f 26 36 25
f 33 26 28
f 26 33 35
f 35 33 31
f 35 31 29
f 27 33 28
f 33 27 34
f 39 38 37
f 38 39 40
f 37 42 41
f 42 37 38
f 42 43 41
f 43 42 44
f 44 45 43
f 45 44 46
f 47 45 46
f 45 47 48
f 49 48 47
f 48 49 50
f 49 51 50
f 51 49 52
f 52 39 51
f 39 52 40
f 55 54 53
f 54 55 56
f 56 57 54
f 57 56 58
f 59 57 58
f 57 59 60
f 61 60 59
f 60 61 62
f 61 63 62
f 63 61 64
f 64 65 63
f 65 64 66
f 65 68 67
f 68 65 66
f 67 55 53
f 55 67 68
f 41 54 57
f 41 57 60
f 43 54 41
f 41 60 37
f 43 53 54
f 60 39 37
f 45 53 43
f 62 39 60
f 45 67 53
f 67 45 48
f 50 67 48
f 67 50 65
f 62 51 39
f 65 50 51
f 63 51 62
f 65 51 63
f 52 66 64
f 52 64 61
f 49 66 52
f 52 61 40
f 49 68 66
f 68 49 47
f 46 68 47
f 68 46 55
f 55 46 44
f 55 44 56
f 40 61 59
f 40 59 38
f 56 44 42
f 59 42 38
f 56 42 58
f 58 42 59
f 71 70 69
f 70 71 72
f 72 71 73
f 72 73 74
f 74 73 75
f 74 75 76
f 70 77 69
f 77 70 78
f 73 80 79
f 80 73 71
f 69 80 71
f 80 69 77
f 81 77 78
f 77 81 80
f 80 81 82
f 80 82 79
f 79 82 83
f 79 83 84
f 72 78 70
f 78 72 81
f 82 76 83
f 76 82 74
f 83 75 84
f 75 83 76
f 84 73 79
f 73 84 75
f 72 82 81
f 82 72 74
f 87 86 85
f 86 87 88
f 88 87 89
f 88 89 90
f 90 89 91
f 90 91 92
f 94 91 93
f 91 94 92
f 93 89 95
f 89 93 91
f 87 97 96
f 97 87 85
f 85 98 97
f 98 85 86
f 89 96 95
f 96 89 87
f 94 90 92
f 90 94 99
f 88 98 86
f 98 88 100
f 88 99 100
f 99 88 90
f 103 102 101
f 102 103 104
f 107 106 105
f 106 107 108
f 111 110 109
f 110 111 112
f 115 114 113
f 114 115 116
f 108 103 106
f 103 108 104
f 112 114 110
f 114 112 113
f 115 105 116
f 105 115 107
f 102 109 101
f 109 102 111
f 112 115 113
f 115 112 107
f 107 112 111
f 107 111 108
f 108 111 102
f 108 102 104
f 105 114 116
f 114 105 110
f 110 105 106
f 110 106 109
f 109 106 103
f 109 103 101
f 16 118 117
f 118 16 21
f 120 15 119
f 15 120 17
f 18 120 121
f 120 18 17
f 15 117 119
f 117 15 16
f 117 120 119
f 120 117 121
f 121 117 122
f 122 117 118
f 122 118 123
f 122 123 124
f 22 121 122
f 121 22 18
f 24 123 23
f 123 24 124
f 23 118 21
f 118 23 123
f 22 124 24
f 124 22 122
f 3 2 1
f 2 3 4
f 7 6 5
f 6 7 8
f 8 7 9
f 8 9 10
f 10 9 3
f 10 3 1
f 13 12 11
f 12 13 14
f 14 13 15
f 15 13 16
f 17 14 15
f 18 14 17
f 16 13 19
f 14 18 20
f 16 19 21
f 20 18 22
f 21 19 23
f 23 19 24
f 20 22 24
f 20 24 19
f 20 19 2
f 20 2 4
f 12 6 11
f 6 12 5
f 12 7 5
f 7 12 14
f 13 6 8
f 6 13 11
f 19 8 10
f 8 19 13
f 14 9 7
f 9 14 20
f 1 19 10
f 19 1 2
f 9 4 3
f 4 9 20
f 27 26 25
f 26 27 28
f 31 30 29
f 30 31 32
f 34 31 33
f 31 34 32
f 30 35 29
f 35 30 36
f 36 27 25
f 27 36 34
f 34 36 30
f 34 30 32
f 36 26 35
f 26 36 25
f 33 26 28
f 26 33 35
f 35 33 31
f 35 31 29
f 27 33 28
f 33 27 34
f 39 38 37
f 38 39 40
f 37 42 41
f 42 37 38
f 42 43 41
f 43 42 44
f 44 45 43
f 45 44 46
f 47 45 46
f 45 47 48
f 49 48 47
f 48 49 50
f 49 51 50
f 51 49 52
f 52 39 51
f 39 52 40
f 55 54 53
f 54 55 56
f 56 57 54
f 57 56 58
f 59 57 58
f 57 59 60
f 61 60 59
f 60 61 62
f 61 63 62
f 63 61 64
f 64 65 63
f 65 64 66
f 65 68 67
f 68 65 66
f 67 55 53
f 55 67 68
f 41 54 57
f 41 57 60
f 43 54 41
f 41 60 37
f 43 53 54
f 60 39 37
f 45 53 43
f 62 39 60
f 45 67 53
f 67 45 48
f 50 67 48
f 67 50 65
f 62 51 39
f 65 50 51
f 63 51 62
f 65 51 63
f 52 66 64
f 52 64 61
f 49 66 52
f 52 61 40
f 49 68 66
f 68 49 47
f 46 68 47
f 68 46 55
f 55 46 44
f 55 44 56
f 40 61 59
f 40 59 38
f 56 44 42
f 59 42 38
f 56 42 58
f 58 42 59
f 71 70 69
f 70 71 72
f 72 71 73
f 72 73 74
f 74 73 75
f 74 75 76
f 70 77 69
f 77 70 78
f 73 80 79
f 80 73 71
f 69 80 71
f 80 69 77
f 81 77 78
f 77 81 80
f 80 81 82
f 80 82 79
f 79 82 83
f 79 83 84
f 72 78 70
f 78 72 81
f 82 76 83
f 76 82 74
f 83 75 84
f 75 83 76
f 84 73 79
f 73 84 75
f 72 82 81
f 82 72 74
f 87 86 85
f 86 87 88
f 88 87 89
f 88 89 90
f 90 89 91
f 90 91 92
f 94 91 93
f 91 94 92
f 93 89 95
f 89 93 91
f 87 97 96
f 97 87 85
f 85 98 97
f 98 85 86
f 89 96 95
f 96 89 87
f 94 90 92
f 90 94 99
f 88 98 86
f 98 88 100
f 88 99 100
f 99 88 90
f 103 102 101
f 102 103 104
f 107 106 105
f 106 107 108
f 111 110 109
f 110 111 112
f 115 114 113
f 114 115 116
f 108 103 106
f 103 108 104
f 112 114 110
f 114 112 113
f 115 105 116
f 105 115 107
f 102 109 101
f 109 102 111
f 112 115 113
f 115 112 107
f 107 112 111
f 107 111 108
f 108 111 102
f 108 102 104
f 105 114 116
f 114 105 110
f 110 105 106
f 110 106 109
f 109 106 103
f 109 103 101
f 16 118 117
f 118 16 21
f 120 15 119
f 15 120 17
f 18 120 121
f 120 18 17
f 15 117 119
f 117 15 16
f 117 120 119
f 120 117 121
f 121 117 122
f 122 117 118
f 122 118 123
f 122 123 124
f 22 121 122
f 121 22 18
f 24 123 23
f 123 24 124
f 23 118 21
f 118 23 123
f 22 124 24
f 124 22 122
