# City room prop — voxel footprint 3x1x6 (0.5 m cells)
o graveBorder
v 1.138296 0.040000 0.889455
v 1.044870 0.040000 1.236977
v 1.485971 0.040000 0.796603
v 1.299120 0.040000 1.491647
v 1.740221 0.040000 1.051273
v 1.646796 0.040000 1.398794
v 1.224741 0.332687 0.976042
v 1.454207 0.332687 0.914760
v 1.163080 0.332687 1.205407
v 1.330885 0.332687 1.373489
v 1.622011 0.332687 1.082842
v 1.560351 0.332687 1.312207
v 1.839009 0.040000 1.185266
v 1.833442 0.040000 0.987209
v 1.670270 0.040000 1.289115
v 1.659136 0.040000 0.893001
v 1.495964 0.040000 1.194908
v 1.490397 0.040000 0.996851
v 1.779745 0.201150 1.153235
v 1.668377 0.201150 1.221776
v 1.776071 0.201150 1.022518
v 1.661029 0.201150 0.960341
v 1.553335 0.201150 1.159599
v 1.549661 0.201150 1.028881
v 2.240086 0.040000 1.458030
v 2.166344 0.040000 1.105806
v 1.971922 0.040000 1.698005
v 1.824438 0.040000 0.993556
v 1.630016 0.040000 1.585755
v 1.556274 0.040000 1.233531
v 2.123838 0.332687 1.419865
v 1.946850 0.332687 1.578248
v 2.075169 0.332687 1.187397
v 1.849510 0.332687 1.113313
v 1.721192 0.332687 1.504164
v 1.672522 0.332687 1.271696
v 2.433552 0.040000 1.458691
v 2.098467 0.040000 1.327474
v 2.487457 0.040000 1.814491
v 1.817288 0.040000 1.552058
v 2.206278 0.040000 2.039075
v 1.871193 0.040000 1.907858
v 2.337951 0.446835 1.535049
v 2.373529 0.446835 1.769878
v 2.116795 0.446835 1.448446
v 1.931217 0.446835 1.596672
v 2.187950 0.446835 1.918103
v 1.966794 0.446835 1.831500
v 2.516224 0.040000 2.403126
v 2.551309 0.040000 1.994388
v 2.144705 0.040000 2.577111
v 2.214873 0.040000 1.759635
v 1.808269 0.040000 2.342358
v 1.843353 0.040000 1.933620
v 2.401836 0.223515 2.323310
v 2.156633 0.223515 2.438140
v 2.424992 0.223515 2.053543
v 2.202945 0.223515 1.898606
v 1.934586 0.223515 2.283203
v 1.957741 0.223515 2.013436
v 1.000877 0.040000 1.582681
v 1.272547 0.040000 1.346684
v 0.660662 0.040000 1.465407
v 1.204002 0.040000 0.993411
v 0.592116 0.040000 1.112135
v 0.863786 0.040000 0.876137
v 0.977572 0.332687 1.462569
v 0.753029 0.332687 1.385168
v 1.156874 0.332687 1.306810
v 1.111634 0.332687 1.073651
v 0.707790 0.332687 1.152009
v 0.887092 0.332687 0.996250
v 0.431350 0.040000 1.620663
v 0.664556 0.040000 1.958173
v 0.607039 0.040000 1.249946
v 1.073451 0.040000 1.924966
v 1.015934 0.040000 1.216739
v 1.249140 0.040000 1.554248
v 0.570374 0.223515 1.609373
v 0.686329 0.223515 1.364700
v 0.724290 0.223515 1.832129
v 0.994161 0.223515 1.810212
v 0.956199 0.223515 1.342782
v 1.110115 0.223515 1.565539
v 0.485560 0.040000 1.902448
v 0.438951 0.040000 2.259277
v 0.817888 0.040000 1.764397
v 0.724671 0.040000 2.478057
v 1.103607 0.040000 1.983176
v 1.056998 0.040000 2.340006
v 0.582705 0.332687 1.976833
v 0.802041 0.332687 1.885719
v 0.551943 0.332687 2.212340
v 0.740517 0.332687 2.356734
v 0.990616 0.332687 2.030113
v 0.959854 0.332687 2.265621
v 0.489996 0.040000 2.157884
v 0.281894 0.040000 2.451472
v 0.848300 0.040000 2.191311
v 0.432099 0.040000 2.778486
v 0.998504 0.040000 2.518325
v 0.790403 0.040000 2.811913
v 0.541065 0.446835 2.269069
v 0.777546 0.446835 2.291131
v 0.403718 0.446835 2.462837
v 0.502853 0.446835 2.678667
v 0.876681 0.446835 2.506960
v 0.739334 0.446835 2.700728
v 0.579570 0.040000 3.019850
v 0.921144 0.040000 3.133104
v 0.506864 0.040000 2.667410
v 1.190013 0.040000 2.893919
v 0.775732 0.040000 2.428225
v 1.117307 0.040000 2.541480
v 0.670985 0.332687 2.938527
v 0.622999 0.332687 2.705917
v 0.896424 0.332687 3.013275
v 1.073877 0.332687 2.855413
v 0.800452 0.332687 2.548055
v 1.025891 0.332687 2.622803
v 0.901425 0.040000 2.813811
v 0.546031 0.040000 2.870336
v 1.128073 0.040000 3.093328
v 0.417286 0.040000 3.206378
v 0.999329 0.040000 3.429371
v 0.643935 0.040000 3.485896
v 0.857652 0.446835 2.928065
v 1.007240 0.446835 3.112547
v 0.623092 0.446835 2.965372
v 0.538120 0.446835 3.187160
v 0.922268 0.446835 3.334335
v 0.687708 0.446835 3.371641
v 2.658090 0.040000 2.102683
v 2.299687 0.040000 2.070321
v 2.809265 0.040000 2.429250
v 2.092460 0.040000 2.364526
v 2.602037 0.040000 2.723455
v 2.243634 0.040000 2.691092
v 2.587633 0.446835 2.202713
v 2.687408 0.446835 2.418247
v 2.351087 0.446835 2.181354
v 2.214317 0.446835 2.375529
v 2.550637 0.446835 2.612422
v 2.314092 0.446835 2.591063
v 2.282514 0.040000 2.465941
v 1.940582 0.040000 2.578113
v 2.550623 0.040000 2.705976
v 1.866761 0.040000 2.930320
v 2.476802 0.040000 3.058183
v 2.134870 0.040000 3.170355
v 2.257414 0.332687 2.585691
v 2.434367 0.332687 2.744114
v 2.031739 0.332687 2.659725
v 1.983017 0.332687 2.892182
v 2.385644 0.332687 2.976571
v 2.159970 0.332687 3.050605
v 2.552406 0.040000 3.310282
v 2.343654 0.040000 2.957125
v 2.350940 0.040000 3.667646
v 1.933434 0.040000 2.961332
v 1.940720 0.040000 3.671853
v 1.731967 0.040000 3.318695
v 2.412932 0.223515 3.311713
v 2.279964 0.223515 3.547573
v 2.275155 0.223515 3.078629
v 2.004410 0.223515 3.081405
v 2.009219 0.223515 3.550349
v 1.871442 0.223515 3.317265
v 2.458194 0.040000 3.611369
v 2.136021 0.040000 3.451045
v 2.480437 0.040000 3.970542
v 1.836089 0.040000 3.649894
v 2.180505 0.040000 4.169390
v 1.858331 0.040000 4.009066
v 2.356218 0.446835 3.678978
v 2.370897 0.446835 3.916031
v 2.143583 0.446835 3.573163
v 1.945628 0.446835 3.704404
v 2.172943 0.446835 4.047272
v 1.960308 0.446835 3.941458
v 0.448140 0.040000 3.345097
v 0.411011 0.040000 3.703037
v 0.776689 0.040000 3.198281
v 0.702432 0.040000 3.914162
v 1.068110 0.040000 3.409406
v 1.030982 0.040000 3.767346
v 0.547223 0.332687 3.416879
v 0.764065 0.332687 3.319981
v 0.522718 0.332687 3.653120
v 0.715055 0.332687 3.792462
v 0.956403 0.332687 3.459323
v 0.931898 0.332687 3.695564
v 1.211434 0.040000 3.600689
v 0.899800 0.040000 3.420733
v 1.211404 0.040000 3.960550
v 0.588137 0.040000 3.600638
v 0.899741 0.040000 4.140455
v 0.588107 0.040000 3.960499
v 1.105468 0.391224 3.661857
v 1.105449 0.391224 3.899365
v 0.899790 0.391224 3.543086
v 0.694092 0.391224 3.661823
v 0.899751 0.391224 4.018102
v 0.694073 0.391224 3.899331
v 0.440047 0.040000 4.283461
v 0.772753 0.040000 4.420599
v 0.392459 0.040000 3.926761
v 1.057870 0.040000 4.201037
v 0.677577 0.040000 3.707199
v 1.010282 0.040000 3.844336
v 0.536987 0.332687 4.208810
v 0.505579 0.332687 3.973388
v 0.756573 0.332687 4.299321
v 0.944750 0.332687 4.154410
v 0.693756 0.332687 3.828477
v 0.913342 0.332687 3.918988
v 2.202781 0.040000 4.444164
v 2.532189 0.040000 4.299283
v 1.912607 0.040000 4.231329
v 2.571422 0.040000 3.941567
v 1.951841 0.040000 3.873614
v 2.281248 0.040000 3.728732
v 2.216121 0.332687 4.322540
v 2.024606 0.332687 4.182070
v 2.433530 0.332687 4.226919
v 2.459424 0.332687 3.990827
v 2.050500 0.332687 3.945977
v 2.267909 0.332687 3.850356
v 2.417763 0.040000 4.270954
v 2.157578 0.040000 4.022350
v 2.332558 0.040000 4.620582
v 1.812189 0.040000 4.123375
v 1.987169 0.040000 4.721607
v 1.726985 0.040000 4.473003
v 2.300331 0.446835 4.305302
v 2.244096 0.446835 4.536057
v 2.128609 0.446835 4.141224
v 1.900652 0.446835 4.207900
v 2.016139 0.446835 4.602733
v 1.844417 0.446835 4.438655
v 1.697705 0.040000 4.999834
v 1.876824 0.040000 4.915134
v 1.681498 0.040000 5.197305
v 2.039735 0.040000 5.027906
v 1.844409 0.040000 5.310076
v 2.023528 0.040000 5.225377
v 1.753095 0.201150 5.038176
v 1.742398 0.201150 5.168507
v 1.871313 0.201150 4.982275
v 1.978835 0.201150 5.056704
v 1.849919 0.201150 5.242936
v 1.968138 0.201150 5.187034
v 1.664691 0.040000 4.750412
v 1.890708 0.040000 4.470383
v 1.794194 0.040000 5.086163
v 2.246228 0.040000 4.526105
v 2.149714 0.040000 5.141885
v 2.375731 0.040000 4.861856
v 1.785568 0.332687 4.769357
v 1.871040 0.332687 4.990953
v 1.934739 0.332687 4.584538
v 2.169382 0.332687 4.621315
v 2.105683 0.332687 5.027730
v 2.254854 0.332687 4.842911
v 1.874062 0.040000 5.344771
v 1.544580 0.040000 5.489482
v 1.913480 0.040000 4.987076
v 1.254515 0.040000 5.276497
v 1.623416 0.040000 4.774091
v 1.293934 0.040000 4.918801
v 1.775440 0.332687 5.272356
v 1.801456 0.332687 5.036277
v 1.557982 0.332687 5.367865
v 1.366539 0.332687 5.227295
v 1.610014 0.332687 4.895707
v 1.392555 0.332687 4.991216
v 0.814696 0.040000 4.973905
v 1.134586 0.040000 4.809070
v 0.797503 0.040000 5.333354
v 1.437281 0.040000 5.003686
v 1.100198 0.040000 5.527970
v 1.420088 0.040000 5.363135
v 0.917613 0.332687 5.040074
v 0.906265 0.332687 5.277311
v 1.128740 0.332687 4.931283
v 1.328519 0.332687 5.059729
v 1.106044 0.332687 5.405757
v 1.317171 0.332687 5.296966
v 1.334726 0.040000 4.942082
v 1.052480 0.040000 5.239798
v 1.218020 0.040000 4.548792
v 0.653527 0.040000 5.144223
v 0.819067 0.040000 4.453217
v 0.536821 0.040000 4.750933
v 1.199083 0.223515 4.909587
v 1.122057 0.223515 4.650015
v 1.012800 0.223515 5.106079
v 0.749491 0.223515 5.043000
v 0.858747 0.223515 4.586936
v 0.672465 0.223515 4.783428
v 1.042018 0.040000 4.529806
v 0.729734 0.040000 4.708632
v 1.043292 0.040000 4.169948
v 0.732282 0.040000 3.988915
v 0.418724 0.040000 4.527600
v 0.419998 0.040000 4.167741
v 0.936274 0.277076 4.468255
v 0.937115 0.277076 4.230749
v 0.730167 0.277076 4.586280
v 0.731849 0.277076 4.111267
v 0.524901 0.277076 4.466799
v 0.525742 0.277076 4.229292
v 2.886572 0.040000 2.935624
v 2.758835 0.040000 2.784162
v 2.819271 0.040000 3.121979
v 2.563796 0.040000 2.819055
v 2.624232 0.040000 3.156871
v 2.496495 0.040000 3.005409
v 2.820259 0.201150 2.947488
v 2.775840 0.201150 3.070482
v 2.735952 0.201150 2.847523
v 2.607227 0.201150 2.870552
v 2.647115 0.201150 3.093511
v 2.562808 0.201150 2.993546
v 1.651665 0.040000 0.504040
v 1.581620 0.040000 0.689381
v 1.847197 0.040000 0.472030
v 1.707107 0.040000 0.842712
v 1.972684 0.040000 0.625362
v 1.902640 0.040000 0.810702
v 1.694331 0.201150 0.556173
v 1.823382 0.201150 0.535046
v 1.648101 0.201150 0.678497
v 1.730923 0.201150 0.779696
v 1.906204 0.201150 0.636245
v 1.859974 0.201150 0.758570
v 0.502878 0.040000 4.740411
v 0.437212 0.040000 4.553474
v 0.373819 0.040000 4.890748
v 0.242487 0.040000 4.516874
v 0.179094 0.040000 4.854148
v 0.113428 0.040000 4.667211
v 0.436672 0.201150 4.727967
v 0.351493 0.201150 4.827190
v 0.393332 0.201150 4.604589
v 0.264813 0.201150 4.580433
v 0.222974 0.201150 4.803034
v 0.179634 0.201150 4.679655
v 0.592810 0.040000 5.219233
v 0.499868 0.040000 5.044249
v 0.487740 0.040000 5.387215
v 0.301856 0.040000 5.037248
v 0.289729 0.040000 5.380214
v 0.196787 0.040000 5.205230
v 0.525486 0.201150 5.216853
v 0.456140 0.201150 5.327721
v 0.464144 0.201150 5.101363
v 0.333457 0.201150 5.096742
v 0.325452 0.201150 5.323100
v 0.264111 0.201150 5.207610
f 3 2 1
f 2 3 4
f 4 3 5
f 4 5 6
f 9 8 7
f 8 9 10
f 8 10 11
f 11 10 12
f 6 10 4
f 10 6 12
f 9 1 2
f 1 9 7
f 6 11 12
f 11 6 5
f 8 1 7
f 1 8 3
f 10 2 4
f 2 10 9
f 8 5 3
f 5 8 11
f 15 14 13
f 14 15 16
f 16 15 17
f 16 17 18
f 21 20 19
f 20 21 22
f 20 22 23
f 23 22 24
f 18 22 16
f 22 18 24
f 21 13 14
f 13 21 19
f 17 24 18
f 24 17 23
f 20 13 19
f 13 20 15
f 22 14 16
f 14 22 21
f 20 17 15
f 17 20 23
f 27 26 25
f 26 27 28
f 28 27 29
f 28 29 30
f 33 32 31
f 32 33 34
f 32 34 35
f 35 34 36
f 30 34 28
f 34 30 36
f 33 25 26
f 25 33 31
f 30 35 36
f 35 30 29
f 32 25 31
f 25 32 27
f 34 26 28
f 26 34 33
f 32 29 27
f 29 32 35
f 39 38 37
f 38 39 40
f 40 39 41
f 40 41 42
f 45 44 43
f 44 45 46
f 44 46 47
f 47 46 48
f 42 46 40
f 46 42 48
f 45 37 38
f 37 45 43
f 42 47 48
f 47 42 41
f 44 37 43
f 37 44 39
f 46 38 40
f 38 46 45
f 44 41 39
f 41 44 47
f 51 50 49
f 50 51 52
f 52 51 53
f 52 53 54
f 57 56 55
f 56 57 58
f 56 58 59
f 59 58 60
f 54 58 52
f 58 54 60
f 57 49 50
f 49 57 55
f 54 59 60
f 59 54 53
f 56 49 55
f 49 56 51
f 58 50 52
f 50 58 57
f 56 53 51
f 53 56 59
f 63 62 61
f 62 63 64
f 64 63 65
f 64 65 66
f 69 68 67
f 68 69 70
f 68 70 71
f 71 70 72
f 66 70 64
f 70 66 72
f 69 61 62
f 61 69 67
f 66 71 72
f 71 66 65
f 68 61 67
f 61 68 63
f 70 62 64
f 62 70 69
f 68 65 63
f 65 68 71
f 75 74 73
f 74 75 76
f 76 75 77
f 76 77 78
f 81 80 79
f 80 81 82
f 80 82 83
f 83 82 84
f 78 82 76
f 82 78 84
f 81 73 74
f 73 81 79
f 78 83 84
f 83 78 77
f 80 73 79
f 73 80 75
f 82 74 76
f 74 82 81
f 80 77 75
f 77 80 83
f 87 86 85
f 86 87 88
f 88 87 89
f 88 89 90
f 93 92 91
f 92 93 94
f 92 94 95
f 95 94 96
f 90 94 88
f 94 90 96
f 93 85 86
f 85 93 91
f 90 95 96
f 95 90 89
f 92 85 91
f 85 92 87
f 94 86 88
f 86 94 93
f 92 89 87
f 89 92 95
f 99 98 97
f 98 99 100
f 100 99 101
f 100 101 102
f 105 104 103
f 104 105 106
f 104 106 107
f 107 106 108
f 102 106 100
f 106 102 108
f 105 97 98
f 97 105 103
f 102 107 108
f 107 102 101
f 104 97 103
f 97 104 99
f 106 98 100
f 98 106 105
f 104 101 99
f 101 104 107
f 111 110 109
f 110 111 112
f 112 111 113
f 112 113 114
f 117 116 115
f 116 117 118
f 116 118 119
f 119 118 120
f 114 118 112
f 118 114 120
f 117 109 110
f 109 117 115
f 114 119 120
f 119 114 113
f 116 109 115
f 109 116 111
f 118 110 112
f 110 118 117
f 116 113 111
f 113 116 119
f 123 122 121
f 122 123 124
f 124 123 125
f 124 125 126
f 129 128 127
f 128 129 130
f 128 130 131
f 131 130 132
f 126 130 124
f 130 126 132
f 129 121 122
f 121 129 127
f 126 131 132
f 131 126 125
f 128 121 127
f 121 128 123
f 130 122 124
f 122 130 129
f 128 125 123
f 125 128 131
f 135 134 133
f 134 135 136
f 136 135 137
f 136 137 138
f 141 140 139
f 140 141 142
f 140 142 143
f 143 142 144
f 138 142 136
f 142 138 144
f 141 133 134
f 133 141 139
f 138 143 144
f 143 138 137
f 140 133 139
f 133 140 135
f 142 134 136
f 134 142 141
f 140 137 135
f 137 140 143
f 147 146 145
f 146 147 148
f 148 147 149
f 148 149 150
f 153 152 151
f 152 153 154
f 152 154 155
f 155 154 156
f 150 154 148
f 154 150 156
f 153 145 146
f 145 153 151
f 150 155 156
f 155 150 149
f 152 145 151
f 145 152 147
f 154 146 148
f 146 154 153
f 152 149 147
f 149 152 155
f 159 158 157
f 158 159 160
f 160 159 161
f 160 161 162
f 165 164 163
f 164 165 166
f 164 166 167
f 167 166 168
f 162 166 160
f 166 162 168
f 165 157 158
f 157 165 163
f 162 167 168
f 167 162 161
f 164 157 163
f 157 164 159
f 166 158 160
f 158 166 165
f 164 161 159
f 161 164 167
f 171 170 169
f 170 171 172
f 172 171 173
f 172 173 174
f 177 176 175
f 176 177 178
f 176 178 179
f 179 178 180
f 174 178 172
f 178 174 180
f 177 169 170
f 169 177 175
f 174 179 180
f 179 174 173
f 176 169 175
f 169 176 171
f 178 170 172
f 170 178 177
f 176 173 171
f 173 176 179
f 183 182 181
f 182 183 184
f 184 183 185
f 184 185 186
f 189 188 187
f 188 189 190
f 188 190 191
f 191 190 192
f 186 190 184
f 190 186 192
f 189 181 182
f 181 189 187
f 186 191 192
f 191 186 185
f 188 181 187
f 181 188 183
f 190 182 184
f 182 190 189
f 188 185 183
f 185 188 191
f 195 194 193
f 194 195 196
f 196 195 197
f 196 197 198
f 201 200 199
f 200 201 202
f 200 202 203
f 203 202 204
f 198 202 196
f 202 198 204
f 201 193 194
f 193 201 199
f 198 203 204
f 203 198 197
f 200 193 199
f 193 200 195
f 202 194 196
f 194 202 201
f 200 197 195
f 197 200 203
f 207 206 205
f 206 207 208
f 208 207 209
f 208 209 210
f 213 212 211
f 212 213 214
f 212 214 215
f 215 214 216
f 210 214 208
f 214 210 216
f 213 205 206
f 205 213 211
f 210 215 216
f 215 210 209
f 212 205 211
f 205 212 207
f 214 206 208
f 206 214 213
f 212 209 207
f 209 212 215
f 219 218 217
f 218 219 220
f 220 219 221
f 220 221 222
f 225 224 223
f 224 225 226
f 224 226 227
f 227 226 228
f 222 226 220
f 226 222 228
f 225 217 218
f 217 225 223
f 222 227 228
f 227 222 221
f 224 217 223
f 217 224 219
f 226 218 220
f 218 226 225
f 224 221 219
f 221 224 227
f 231 230 229
f 230 231 232
f 232 231 233
f 232 233 234
f 237 236 235
f 236 237 238
f 236 238 239
f 239 238 240
f 234 238 232
f 238 234 240
f 237 229 230
f 229 237 235
f 234 239 240
f 239 234 233
f 236 229 235
f 229 236 231
f 238 230 232
f 230 238 237
f 236 233 231
f 233 236 239
f 251 248 245
f 243 245 248
f 249 250 242
f 244 242 250
f 243 248 241
f 247 241 248
f 251 245 252
f 246 252 245
f 247 249 241
f 242 241 249
f 252 246 250
f 244 250 246
f 252 250 251
f 251 250 248
f 250 249 248
f 247 248 249
f 246 245 244
f 245 243 244
f 244 243 242
f 241 242 243
f 263 260 257
f 255 257 260
f 261 262 254
f 256 254 262
f 255 260 253
f 259 253 260
f 257 258 263
f 264 263 258
f 259 261 253
f 254 253 261
f 264 258 262
f 256 262 258
f 264 262 263
f 263 262 260
f 262 261 260
f 259 260 261
f 258 257 256
f 257 255 256
f 256 255 254
f 253 254 255
f 275 272 269
f 267 269 272
f 273 274 266
f 268 266 274
f 267 272 265
f 271 265 272
f 269 270 275
f 276 275 270
f 271 273 265
f 266 265 273
f 276 270 274
f 268 274 270
f 276 274 275
f 275 274 272
f 274 273 272
f 271 272 273
f 270 269 268
f 269 267 268
f 268 267 266
f 265 266 267
f 287 284 281
f 279 281 284
f 285 286 278
f 280 278 286
f 279 284 277
f 283 277 284
f 281 282 287
f 288 287 282
f 283 285 277
f 278 277 285
f 288 282 286
f 280 286 282
f 288 286 287
f 287 286 284
f 286 285 284
f 283 284 285
f 282 281 280
f 281 279 280
f 280 279 278
f 277 278 279
f 299 296 293
f 291 293 296
f 297 298 290
f 292 290 298
f 291 296 289
f 295 289 296
f 293 294 299
f 300 299 294
f 295 297 289
f 290 289 297
f 300 294 298
f 292 298 294
f 300 298 299
f 299 298 296
f 298 297 296
f 295 296 297
f 294 293 292
f 293 291 292
f 292 291 290
f 289 290 291
f 310 308 304
f 303 304 308
f 309 311 302
f 305 302 311
f 303 308 301
f 307 301 308
f 310 304 312
f 306 312 304
f 307 309 301
f 302 301 309
f 312 306 311
f 305 311 306
f 312 311 310
f 311 309 310
f 310 309 308
f 307 308 309
f 306 304 305
f 305 304 302
f 304 303 302
f 301 302 303
f 315 314 313
f 314 315 316
f 316 315 317
f 316 317 318
f 321 320 319
f 320 321 322
f 320 322 323
f 323 322 324
f 318 322 316
f 322 318 324
f 321 313 314
f 313 321 319
f 317 324 318
f 324 317 323
f 320 313 319
f 313 320 315
f 322 314 316
f 314 322 321
f 320 317 315
f 317 320 323
f 327 326 325
f 326 327 328
f 328 327 329
f 328 329 330
f 333 332 331
f 332 333 334
f 332 334 335
f 335 334 336
f 330 334 328
f 334 330 336
f 333 325 326
f 325 333 331
f 329 336 330
f 336 329 335
f 332 325 331
f 325 332 327
f 334 326 328
f 326 334 333
f 332 329 327
f 329 332 335
f 339 338 337
f 338 339 340
f 340 339 341
f 340 341 342
f 345 344 343
f 344 345 346
f 344 346 347
f 347 346 348
f 342 346 340
f 346 342 348
f 345 337 338
f 337 345 343
f 341 348 342
f 348 341 347
f 344 337 343
f 337 344 339
f 346 338 340
f 338 346 345
f 344 341 339
f 341 344 347
f 351 350 349
f 350 351 352
f 352 351 353
f 352 353 354
f 357 356 355
f 356 357 358
f 356 358 359
f 359 358 360
f 354 358 352
f 358 354 360
f 357 349 350
f 349 357 355
f 353 360 354
f 360 353 359
f 356 349 355
f 349 356 351
f 358 350 352
f 350 358 357
f 356 353 351
f 353 356 359
f 3 2 1
f 2 3 4
f 4 3 5
f 4 5 6
f 9 8 7
f 8 9 10
f 8 10 11
f 11 10 12
f 6 10 4
f 10 6 12
f 9 1 2
f 1 9 7
f 6 11 12
f 11 6 5
f 8 1 7
f 1 8 3
f 10 2 4
f 2 10 9
f 8 5 3
f 5 8 11
f 15 14 13
f 14 15 16
f 16 15 17
f 16 17 18
f 21 20 19
f 20 21 22
f 20 22 23
f 23 22 24
f 18 22 16
f 22 18 24
f 21 13 14
f 13 21 19
f 17 24 18
f 24 17 23
f 20 13 19
f 13 20 15
f 22 14 16
f 14 22 21
f 20 17 15
f 17 20 23
f 27 26 25
f 26 27 28
f 28 27 29
f 28 29 30
f 33 32 31
f 32 33 34
f 32 34 35
f 35 34 36
f 30 34 28
f 34 30 36
f 33 25 26
f 25 33 31
f 30 35 36
f 35 30 29
f 32 25 31
f 25 32 27
f 34 26 28
f 26 34 33
f 32 29 27
f 29 32 35
f 39 38 37
f 38 39 40
f 40 39 41
f 40 41 42
f 45 44 43
f 44 45 46
f 44 46 47
f 47 46 48
f 42 46 40
f 46 42 48
f 45 37 38
f 37 45 43
f 42 47 48
f 47 42 41
f 44 37 43
f 37 44 39
f 46 38 40
f 38 46 45
f 44 41 39
f 41 44 47
f 51 50 49
f 50 51 52
f 52 51 53
f 52 53 54
f 57 56 55
f 56 57 58
f 56 58 59
f 59 58 60
f 54 58 52
f 58 54 60
f 57 49 50
f 49 57 55
f 54 59 60
f 59 54 53
f 56 49 55
f 49 56 51
f 58 50 52
f 50 58 57
f 56 53 51
f 53 56 59
f 63 62 61
f 62 63 64
f 64 63 65
f 64 65 66
f 69 68 67
f 68 69 70
f 68 70 71
f 71 70 72
f 66 70 64
f 70 66 72
f 69 61 62
f 61 69 67
f 66 71 72
f 71 66 65
f 68 61 67
f 61 68 63
f 70 62 64
f 62 70 69
f 68 65 63
f 65 68 71
f 75 74 73
f 74 75 76
f 76 75 77
f 76 77 78
f 81 80 79
f 80 81 82
f 80 82 83
f 83 82 84
f 78 82 76
f 82 78 84
f 81 73 74
f 73 81 79
f 78 83 84
f 83 78 77
f 80 73 79
f 73 80 75
f 82 74 76
f 74 82 81
f 80 77 75
f 77 80 83
f 87 86 85
f 86 87 88
f 88 87 89
f 88 89 90
f 93 92 91
f 92 93 94
f 92 94 95
f 95 94 96
f 90 94 88
f 94 90 96
f 93 85 86
f 85 93 91
f 90 95 96
f 95 90 89
f 92 85 91
f 85 92 87
f 94 86 88
f 86 94 93
f 92 89 87
f 89 92 95
f 99 98 97
f 98 99 100
f 100 99 101
f 100 101 102
f 105 104 103
f 104 105 106
f 104 106 107
f 107 106 108
f 102 106 100
f 106 102 108
f 105 97 98
f 97 105 103
f 102 107 108
f 107 102 101
f 104 97 103
f 97 104 99
f 106 98 100
f 98 106 105
f 104 101 99
f 101 104 107
f 111 110 109
f 110 111 112
f 112 111 113
f 112 113 114
f 117 116 115
f 116 117 118
f 116 118 119
f 119 118 120
f 114 118 112
f 118 114 120
f 117 109 110
f 109 117 115
f 114 119 120
f 119 114 113
f 116 109 115
f 109 116 111
f 118 110 112
f 110 118 117
f 116 113 111
f 113 116 119
f 123 122 121
f 122 123 124
f 124 123 125
f 124 125 126
f 129 128 127
f 128 129 130
f 128 130 131
f 131 130 132
f 126 130 124
f 130 126 132
f 129 121 122
f 121 129 127
f 126 131 132
f 131 126 125
f 128 121 127
f 121 128 123
f 130 122 124
f 122 130 129
f 128 125 123
f 125 128 131
f 135 134 133
f 134 135 136
f 136 135 137
f 136 137 138
f 141 140 139
f 140 141 142
f 140 142 143
f 143 142 144
f 138 142 136
f 142 138 144
f 141 133 134
f 133 141 139
f 138 143 144
f 143 138 137
f 140 133 139
f 133 140 135
f 142 134 136
f 134 142 141
f 140 137 135
f 137 140 143
f 147 146 145
f 146 147 148
f 148 147 149
f 148 149 150
f 153 152 151
f 152 153 154
f 152 154 155
f 155 154 156
f 150 154 148
f 154 150 156
f 153 145 146
f 145 153 151
f 150 155 156
f 155 150 149
f 152 145 151
f 145 152 147
f 154 146 148
f 146 154 153
f 152 149 147
f 149 152 155
f 159 158 157
f 158 159 160
f 160 159 161
f 160 161 162
f 165 164 163
f 164 165 166
f 164 166 167
f 167 166 168
f 162 166 160
f 166 162 168
f 165 157 158
f 157 165 163
f 162 167 168
f 167 162 161
f 164 157 163
f 157 164 159
f 166 158 160
f 158 166 165
f 164 161 159
f 161 164 167
f 171 170 169
f 170 171 172
f 172 171 173
f 172 173 174
f 177 176 175
f 176 177 178
f 176 178 179
f 179 178 180
f 174 178 172
f 178 174 180
f 177 169 170
f 169 177 175
f 174 179 180
f 179 174 173
f 176 169 175
f 169 176 171
f 178 170 172
f 170 178 177
f 176 173 171
f 173 176 179
f 183 182 181
f 182 183 184
f 184 183 185
f 184 185 186
f 189 188 187
f 188 189 190
f 188 190 191
f 191 190 192
f 186 190 184
f 190 186 192
f 189 181 182
f 181 189 187
f 186 191 192
f 191 186 185
f 188 181 187
f 181 188 183
f 190 182 184
f 182 190 189
f 188 185 183
f 185 188 191
f 195 194 193
f 194 195 196
f 196 195 197
f 196 197 198
f 201 200 199
f 200 201 202
f 200 202 203
f 203 202 204
f 198 202 196
f 202 198 204
f 201 193 194
f 193 201 199
f 198 203 204
f 203 198 197
f 200 193 199
f 193 200 195
f 202 194 196
f 194 202 201
f 200 197 195
f 197 200 203
f 207 206 205
f 206 207 208
f 208 207 209
f 208 209 210
f 213 212 211
f 212 213 214
f 212 214 215
f 215 214 216
f 210 214 208
f 214 210 216
f 213 205 206
f 205 213 211
f 210 215 216
f 215 210 209
f 212 205 211
f 205 212 207
f 214 206 208
f 206 214 213
f 212 209 207
f 209 212 215
f 219 218 217
f 218 219 220
f 220 219 221
f 220 221 222
f 225 224 223
f 224 225 226
f 224 226 227
f 227 226 228
f 222 226 220
f 226 222 228
f 225 217 218
f 217 225 223
f 222 227 228
f 227 222 221
f 224 217 223
f 217 224 219
f 226 218 220
f 218 226 225
f 224 221 219
f 221 224 227
f 231 230 229
f 230 231 232
f 232 231 233
f 232 233 234
f 237 236 235
f 236 237 238
f 236 238 239
f 239 238 240
f 234 238 232
f 238 234 240
f 237 229 230
f 229 237 235
f 234 239 240
f 239 234 233
f 236 229 235
f 229 236 231
f 238 230 232
f 230 238 237
f 236 233 231
f 233 236 239
f 251 248 245
f 243 245 248
f 249 250 242
f 244 242 250
f 243 248 241
f 247 241 248
f 251 245 252
f 246 252 245
f 247 249 241
f 242 241 249
f 252 246 250
f 244 250 246
f 252 250 251
f 251 250 248
f 250 249 248
f 247 248 249
f 246 245 244
f 245 243 244
f 244 243 242
f 241 242 243
f 263 260 257
f 255 257 260
f 261 262 254
f 256 254 262
f 255 260 253
f 259 253 260
f 257 258 263
f 264 263 258
f 259 261 253
f 254 253 261
f 264 258 262
f 256 262 258
f 264 262 263
f 263 262 260
f 262 261 260
f 259 260 261
f 258 257 256
f 257 255 256
f 256 255 254
f 253 254 255
f 275 272 269
f 267 269 272
f 273 274 266
f 268 266 274
f 267 272 265
f 271 265 272
f 269 270 275
f 276 275 270
f 271 273 265
f 266 265 273
f 276 270 274
f 268 274 270
f 276 274 275
f 275 274 272
f 274 273 272
f 271 272 273
f 270 269 268
f 269 267 268
f 268 267 266
f 265 266 267
f 287 284 281
f 279 281 284
f 285 286 278
f 280 278 286
f 279 284 277
f 283 277 284
f 281 282 287
f 288 287 282
f 283 285 277
f 278 277 285
f 288 282 286
f 280 286 282
f 288 286 287
f 287 286 284
f 286 285 284
f 283 284 285
f 282 281 280
f 281 279 280
f 280 279 278
f 277 278 279
f 299 296 293
f 291 293 296
f 297 298 290
f 292 290 298
f 291 296 289
f 295 289 296
f 293 294 299
f 300 299 294
f 295 297 289
f 290 289 297
f 300 294 298
f 292 298 294
f 300 298 299
f 299 298 296
f 298 297 296
f 295 296 297
f 294 293 292
f 293 291 292
f 292 291 290
f 289 290 291
f 310 308 304
f 303 304 308
f 309 311 302
f 305 302 311
f 303 308 301
f 307 301 308
f 310 304 312
f 306 312 304
f 307 309 301
f 302 301 309
f 312 306 311
f 305 311 306
f 312 311 310
f 311 309 310
f 310 309 308
f 307 308 309
f 306 304 305
f 305 304 302
f 304 303 302
f 301 302 303
f 315 314 313
f 314 315 316
f 316 315 317
f 316 317 318
f 321 320 319
f 320 321 322
f 320 322 323
f 323 322 324
f 318 322 316
f 322 318 324
f 321 313 314
f 313 321 319
f 317 324 318
f 324 317 323
f 320 313 319
f 313 320 315
f 322 314 316
f 314 322 321
f 320 317 315
f 317 320 323
f 327 326 325
f 326 327 328
f 328 327 329
f 328 329 330
f 333 332 331
f 332 333 334
f 332 334 335
f 335 334 336
f 330 334 328
f 334 330 336
f 333 325 326
f 325 333 331
f 329 336 330
f 336 329 335
f 332 325 331
f 325 332 327
f 334 326 328
f 326 334 333
f 332 329 327
f 329 332 335
f 339 338 337
f 338 339 340
f 340 339 341
f 340 341 342
f 345 344 343
f 344 345 346
f 344 346 347
f 347 346 348
f 342 346 340
f 346 342 348
f 345 337 338
f 337 345 343
f 341 348 342
f 348 341 347
f 344 337 343
f 337 344 339
f 346 338 340
f 338 346 345
f 344 341 339
f 341 344 347
f 351 350 349
f 350 351 352
f 352 351 353
f 352 353 354
f 357 356 355
f 356 357 358
f 356 358 359
f 359 358 360
f 354 358 352
f 358 354 360
f 357 349 350
f 349 357 355
f 353 360 354
f 360 353 359
f 356 349 355
f 349 356 351
f 358 350 352
f 350 358 357
f 356 353 351
f 353 356 359
