# City room prop — voxel footprint 4x3x1 (0.5 m cells)
o ironFenceBorderGate
v 3.703402 2.333776 0.500000
v 3.703402 0.950229 0.500000
v 3.666993 2.333776 0.749767
v 3.666993 0.950229 0.749767
v 3.417226 0.950229 0.786176
v 3.417226 2.333776 0.786176
v 3.131050 0.950229 0.500000
v 3.131050 2.333776 0.500000
v 3.167459 0.950229 0.749767
v 3.167459 2.333776 0.749767
v 3.167459 0.950229 0.250233
v 3.417226 0.950229 0.213824
v 3.167459 2.333776 0.250233
v 3.417226 2.333776 0.213824
v 3.666993 2.333776 0.250233
v 3.666993 0.950229 0.250233
v 0.868950 2.333776 0.500000
v 0.868950 0.950229 0.500000
v 0.832541 2.333776 0.749767
v 0.832541 0.950229 0.749767
v 0.582774 0.950229 0.786176
v 0.582774 2.333776 0.786176
v 0.296598 0.950229 0.500000
v 0.296598 2.333776 0.500000
v 0.333007 0.950229 0.749767
v 0.333007 2.333776 0.749767
v 0.333007 0.950229 0.250233
v 0.582774 0.950229 0.213824
v 0.333007 2.333776 0.250233
v 0.582774 2.333776 0.213824
v 0.832541 2.333776 0.250233
v 0.832541 0.950229 0.250233
v 3.124132 2.479413 0.096769
v 3.710320 2.479413 0.096769
v 3.124132 2.807095 0.096769
v 3.710320 2.807095 0.096769
v 3.013995 2.479413 0.206906
v 3.013995 2.807095 0.206906
v 3.710320 2.479413 0.903231
v 3.124132 2.479413 0.903231
v 3.710320 2.807095 0.903231
v 3.124132 2.807095 0.903231
v 3.013995 2.479413 0.793094
v 3.013995 2.807095 0.793094
v 3.820457 2.807095 0.206906
v 3.820457 2.479413 0.206906
v 3.820457 2.807095 0.793094
v 3.820457 2.479413 0.793094
v 3.094641 2.333776 0.265525
v 3.094641 2.333776 0.734475
v 3.182751 2.333776 0.822585
v 3.651701 2.333776 0.822585
v 3.651701 2.333776 0.177415
v 3.739811 2.333776 0.265525
v 3.739811 2.333776 0.734475
v 3.182751 2.333776 0.177415
v 3.124132 0.040000 0.096769
v 3.710320 0.040000 0.096769
v 3.124132 0.804592 0.096769
v 3.710320 0.804592 0.096769
v 3.710320 0.040000 0.903231
v 3.124132 0.040000 0.903231
v 3.710320 0.804592 0.903231
v 3.124132 0.804592 0.903231
v 3.013995 0.040000 0.206906
v 3.013995 0.804592 0.206906
v 3.013995 0.040000 0.793094
v 3.013995 0.804592 0.793094
v 3.820457 0.804592 0.206906
v 3.820457 0.040000 0.206906
v 3.820457 0.804592 0.793094
v 3.820457 0.040000 0.793094
v 3.739811 0.950229 0.265525
v 3.739811 0.950229 0.734475
v 3.651701 0.950229 0.177415
v 3.651701 0.950229 0.822585
v 3.182751 0.950229 0.177415
v 3.182751 0.950229 0.822585
v 3.094641 0.950229 0.265525
v 3.094641 0.950229 0.734475
v 0.289680 0.040000 0.096769
v 0.875868 0.040000 0.096769
v 0.289680 0.804592 0.096769
v 0.875868 0.804592 0.096769
v 0.875868 0.040000 0.903231
v 0.289680 0.040000 0.903231
v 0.875868 0.804592 0.903231
v 0.289680 0.804592 0.903231
v 0.179543 0.040000 0.206906
v 0.179543 0.804592 0.206906
v 0.179543 0.040000 0.793094
v 0.179543 0.804592 0.793094
v 0.986005 0.804592 0.206906
v 0.986005 0.040000 0.206906
v 0.986005 0.804592 0.793094
v 0.986005 0.040000 0.793094
v 0.905359 0.950229 0.265525
v 0.905359 0.950229 0.734475
v 0.817249 0.950229 0.177415
v 0.817249 0.950229 0.822585
v 0.348299 0.950229 0.177415
v 0.348299 0.950229 0.822585
v 0.260189 0.950229 0.265525
v 0.260189 0.950229 0.734475
v 0.289680 2.479413 0.096769
v 0.875868 2.479413 0.096769
v 0.289680 2.807095 0.096769
v 0.875868 2.807095 0.096769
v 0.179543 2.479413 0.206906
v 0.179543 2.807095 0.206906
v 0.875868 2.479413 0.903231
v 0.289680 2.479413 0.903231
v 0.875868 2.807095 0.903231
v 0.289680 2.807095 0.903231
v 0.179543 2.479413 0.793094
v 0.179543 2.807095 0.793094
v 0.986005 2.807095 0.206906
v 0.986005 2.479413 0.206906
v 0.986005 2.807095 0.793094
v 0.986005 2.479413 0.793094
v 0.260189 2.333776 0.265525
v 0.260189 2.333776 0.734475
v 0.348299 2.333776 0.822585
v 0.817249 2.333776 0.822585
v 0.817249 2.333776 0.177415
v 0.905359 2.333776 0.265525
v 0.905359 2.333776 0.734475
v 0.348299 2.333776 0.177415
v 0.179543 1.241502 0.700250
v 0.179543 1.241502 0.299750
v 0.333007 1.241502 0.700250
v 0.333007 1.241502 0.299750
v 0.179543 1.387138 0.299750
v 0.179543 1.387138 0.700250
v 0.333007 1.387138 0.299750
v 0.333007 1.387138 0.700250
v 0.179543 2.056702 0.700250
v 0.179543 2.056702 0.299750
v 0.333007 2.056702 0.700250
v 0.333007 2.056702 0.299750
v 0.179543 2.202339 0.299750
v 0.179543 2.202339 0.700250
v 0.333007 2.202339 0.299750
v 0.333007 2.202339 0.700250
v 3.666993 2.056702 0.700250
v 3.666993 2.056702 0.299750
v 3.820457 2.056702 0.700250
v 3.820457 2.056702 0.299750
v 3.666993 2.202339 0.299750
v 3.666993 2.202339 0.700250
v 3.820457 2.202339 0.299750
v 3.820457 2.202339 0.700250
v 3.666993 1.241502 0.700250
v 3.666993 1.241502 0.299750
v 3.820457 1.241502 0.700250
v 3.820457 1.241502 0.299750
v 3.666993 1.387138 0.299750
v 3.666993 1.387138 0.700250
v 3.820457 1.387138 0.299750
v 3.820457 1.387138 0.700250
f 3 2 1
f 2 3 4
f 3 5 4
f 5 3 6
f 9 8 7
f 8 9 10
f 13 12 11
f 12 13 14
f 6 9 5
f 9 6 10
f 1 16 15
f 16 1 2
f 14 16 12
f 16 14 15
f 7 13 11
f 13 7 8
f 19 18 17
f 18 19 20
f 19 21 20
f 21 19 22
f 25 24 23
f 24 25 26
f 29 28 27
f 28 29 30
f 22 25 21
f 25 22 26
f 17 32 31
f 32 17 18
f 30 32 28
f 32 30 31
f 23 29 27
f 29 23 24
f 35 34 33
f 34 35 36
f 38 33 37
f 33 38 35
f 41 40 39
f 40 41 42
f 42 43 40
f 43 42 44
f 47 46 45
f 46 47 48
f 36 46 34
f 46 36 45
f 47 39 48
f 39 47 41
f 36 47 45
f 47 36 41
f 41 36 35
f 41 35 42
f 42 35 38
f 42 38 44
f 43 38 37
f 38 43 44
f 49 43 37
f 43 49 50
f 40 50 51
f 50 40 43
f 39 51 52
f 51 39 40
f 46 53 34
f 53 46 54
f 48 54 46
f 54 48 55
f 33 53 56
f 53 33 34
f 37 56 49
f 56 37 33
f 48 52 55
f 52 48 39
f 52 54 55
f 54 52 53
f 53 52 51
f 53 51 56
f 56 51 50
f 56 50 49
f 59 58 57
f 58 59 60
f 63 62 61
f 62 63 64
f 67 66 65
f 66 67 68
f 71 70 69
f 70 71 72
f 64 67 62
f 67 64 68
f 71 61 72
f 61 71 63
f 60 70 58
f 70 60 69
f 66 57 65
f 57 66 59
f 61 70 72
f 70 61 58
f 58 61 62
f 58 62 57
f 57 62 67
f 57 67 65
f 75 74 73
f 74 75 76
f 76 75 77
f 76 77 78
f 78 77 79
f 78 79 80
f 66 77 59
f 77 66 79
f 68 79 66
f 79 68 80
f 75 69 60
f 69 75 73
f 74 63 71
f 63 74 76
f 73 71 69
f 71 73 74
f 68 78 80
f 78 68 64
f 77 60 59
f 60 77 75
f 76 64 63
f 64 76 78
f 83 82 81
f 82 83 84
f 87 86 85
f 86 87 88
f 91 90 89
f 90 91 92
f 95 94 93
f 94 95 96
f 88 91 86
f 91 88 92
f 95 85 96
f 85 95 87
f 84 94 82
f 94 84 93
f 90 81 89
f 81 90 83
f 85 94 96
f 94 85 82
f 82 85 86
f 82 86 81
f 81 86 91
f 81 91 89
f 99 98 97
f 98 99 100
f 100 99 101
f 100 101 102
f 102 101 103
f 102 103 104
f 90 101 83
f 101 90 103
f 92 103 90
f 103 92 104
f 99 93 84
f 93 99 97
f 98 87 95
f 87 98 100
f 97 95 93
f 95 97 98
f 92 102 104
f 102 92 88
f 101 84 83
f 84 101 99
f 100 88 87
f 88 100 102
f 107 106 105
f 106 107 108
f 110 105 109
f 105 110 107
f 113 112 111
f 112 113 114
f 114 115 112
f 115 114 116
f 119 118 117
f 118 119 120
f 108 118 106
f 118 108 117
f 119 111 120
f 111 119 113
f 108 119 117
f 119 108 113
f 113 108 107
f 113 107 114
f 114 107 110
f 114 110 116
f 115 110 109
f 110 115 116
f 121 115 109
f 115 121 122
f 112 122 123
f 122 112 115
f 111 123 124
f 123 111 112
f 118 125 106
f 125 118 126
f 120 126 118
f 126 120 127
f 105 125 128
f 125 105 106
f 109 128 121
f 128 109 105
f 120 124 127
f 124 120 111
f 124 126 127
f 126 124 125
f 125 124 123
f 125 123 128
f 128 123 122
f 128 122 121
f 136 134 131
f 129 131 134
f 136 131 135
f 132 135 131
f 133 135 130
f 132 130 135
f 129 134 130
f 133 130 134
f 136 135 134
f 133 134 135
f 132 131 130
f 129 130 131
f 144 142 139
f 137 139 142
f 144 139 143
f 140 143 139
f 141 143 138
f 140 138 143
f 137 142 138
f 141 138 142
f 144 143 142
f 141 142 143
f 140 139 138
f 137 138 139
f 152 150 147
f 145 147 150
f 152 147 151
f 148 151 147
f 149 151 146
f 148 146 151
f 145 150 146
f 149 146 150
f 152 151 150
f 149 150 151
f 148 147 146
f 145 146 147
f 160 158 155
f 153 155 158
f 160 155 159
f 156 159 155
f 157 159 154
f 156 154 159
f 153 158 154
f 157 154 158
f 160 159 158
f 157 158 159
f 156 155 154
f 153 154 155
f 3 2 1
f 2 3 4
f 3 5 4
f 5 3 6
f 9 8 7
f 8 9 10
f 13 12 11
f 12 13 14
f 6 9 5
f 9 6 10
f 1 16 15
f 16 1 2
f 14 16 12
f 16 14 15
f 7 13 11
f 13 7 8
f 19 18 17
f 18 19 20
f 19 21 20
f 21 19 22
f 25 24 23
f 24 25 26
f 29 28 27
f 28 29 30
f 22 25 21
f 25 22 26
f 17 32 31
f 32 17 18
f 30 32 28
f 32 30 31
f 23 29 27
f 29 23 24
f 35 34 33
f 34 35 36
f 38 33 37
f 33 38 35
f 41 40 39
f 40 41 42
f 42 43 40
f 43 42 44
f 47 46 45
f 46 47 48
f 36 46 34
f 46 36 45
f 47 39 48
f 39 47 41
f 36 47 45
f 47 36 41
f 41 36 35
f 41 35 42
f 42 35 38
f 42 38 44
f 43 38 37
f 38 43 44
f 49 43 37
f 43 49 50
f 40 50 51
f 50 40 43
f 39 51 52
f 51 39 40
f 46 53 34
f 53 46 54
f 48 54 46
f 54 48 55
f 33 53 56
f 53 33 34
f 37 56 49
f 56 37 33
f 48 52 55
f 52 48 39
f 52 54 55
f 54 52 53
f 53 52 51
f 53 51 56
f 56 51 50
f 56 50 49
f 59 58 57
f 58 59 60
f 63 62 61
f 62 63 64
f 67 66 65
f 66 67 68
f 71 70 69
f 70 71 72
f 64 67 62
f 67 64 68
f 71 61 72
f 61 71 63
f 60 70 58
f 70 60 69
f 66 57 65
f 57 66 59
f 61 70 72
f 70 61 58
f 58 61 62
f 58 62 57
f 57 62 67
f 57 67 65
f 75 74 73
f 74 75 76
f 76 75 77
f 76 77 78
f 78 77 79
f 78 79 80
f 66 77 59
f 77 66 79
f 68 79 66
f 79 68 80
f 75 69 60
f 69 75 73
f 74 63 71
f 63 74 76
f 73 71 69
f 71 73 74
f 68 78 80
f 78 68 64
f 77 60 59
f 60 77 75
f 76 64 63
f 64 76 78
f 83 82 81
f 82 83 84
f 87 86 85
f 86 87 88
f 91 90 89
f 90 91 92
f 95 94 93
f 94 95 96
f 88 91 86
f 91 88 92
f 95 85 96
f 85 95 87
f 84 94 82
f 94 84 93
f 90 81 89
f 81 90 83
f 85 94 96
f 94 85 82
f 82 85 86
f 82 86 81
f 81 86 91
f 81 91 89
f 99 98 97
f 98 99 100
f 100 99 101
f 100 101 102
f 102 101 103
f 102 103 104
f 90 101 83
f 101 90 103
f 92 103 90
f 103 92 104
f 99 93 84
f 93 99 97
f 98 87 95
f 87 98 100
f 97 95 93
f 95 97 98
f 92 102 104
f 102 92 88
f 101 84 83
f 84 101 99
f 100 88 87
f 88 100 102
f 107 106 105
f 106 107 108
f 110 105 109
f 105 110 107
f 113 112 111
f 112 113 114
f 114 115 112
f 115 114 116
f 119 118 117
f 118 119 120
f 108 118 106
f 118 108 117
f 119 111 120
f 111 119 113
f 108 119 117
f 119 108 113
f 113 108 107
f 113 107 114
f 114 107 110
f 114 110 116
f 115 110 109
f 110 115 116
f 121 115 109
f 115 121 122
f 112 122 123
f 122 112 115
f 111 123 124
f 123 111 112
f 118 125 106
f 125 118 126
f 120 126 118
f 126 120 127
f 105 125 128
f 125 105 106
f 109 128 121
f 128 109 105
f 120 124 127
f 124 120 111
f 124 126 127
f 126 124 125
f 125 124 123
f 125 123 128
f 128 123 122
f 128 122 121
f 136 134 131
f 129 131 134
f 136 131 135
f 132 135 131
f 133 135 130
f 132 130 135
f 129 134 130
f 133 130 134
f 136 135 134
f 133 134 135
f 132 131 130
f 129 130 131
f 144 142 139
f 137 139 142
f 144 139 143
f 140 143 139
f 141 143 138
f 140 138 143
f 137 142 138
f 141 138 142
f 144 143 142
f 141 142 143
f 140 139 138
f 137 138 139
f 152 150 147
f 145 147 150
f 152 147 151
f 148 151 147
f 149 151 146
f 148 146 151
f 145 150 146
f 149 146 150
f 152 151 150
f 149 150 151
f 148 147 146
f 145 146 147
f 160 158 155
f 153 155 158
f 160 155 159
f 156 159 155
f 157 159 154
f 156 154 159
f 153 158 154
f 157 154 158
f 160 159 158
f 157 158 159
f 156 155 154
f 153 154 155
