# City room prop — voxel footprint 4x4x1 (0.5 m cells)
o ironFenceBorderColumn
v 1.703484 2.821294 0.500000
v 1.624185 2.821294 0.637350
v 1.624185 2.821294 0.362650
v 1.465587 2.821294 0.362650
v 1.465587 2.821294 0.637350
v 1.386287 2.821294 0.500000
v 1.653525 2.712067 0.311830
v 1.762165 2.712067 0.500000
v 1.327606 2.712067 0.500000
v 1.436246 2.712067 0.688170
v 1.653525 2.712067 0.688170
v 1.436246 2.712067 0.311830
v 1.703484 2.639249 0.500000
v 1.624185 2.639249 0.362650
v 1.624185 2.639249 0.637350
v 1.465587 2.639249 0.637350
v 1.465587 2.639249 0.362650
v 1.386287 2.639249 0.500000
v 1.584535 3.240000 0.500000
v 1.564710 3.240000 0.534337
v 1.564710 3.240000 0.465663
v 1.525061 3.240000 0.465663
v 1.525061 3.240000 0.534337
v 1.505236 3.240000 0.500000
v 1.465587 2.966931 0.362650
v 1.386287 2.966931 0.500000
v 1.492020 2.830397 0.408433
v 1.439154 2.830397 0.500000
v 1.597752 2.830397 0.408433
v 1.624185 2.966931 0.362650
v 1.650618 2.830397 0.500000
v 1.597752 2.830397 0.591567
v 1.703484 2.966931 0.500000
v 1.624185 2.966931 0.637350
v 1.492020 2.830397 0.591567
v 1.465587 2.966931 0.637350
v 2.494764 3.240000 0.500000
v 2.474939 3.240000 0.534337
v 2.474939 3.240000 0.465663
v 2.435290 3.240000 0.465663
v 2.435290 3.240000 0.534337
v 2.415465 3.240000 0.500000
v 2.375815 2.966931 0.362650
v 2.296516 2.966931 0.500000
v 2.402248 2.830397 0.408433
v 2.349382 2.830397 0.500000
v 2.507980 2.830397 0.408433
v 2.534413 2.966931 0.362650
v 2.560846 2.830397 0.500000
v 2.507980 2.830397 0.591567
v 2.613713 2.966931 0.500000
v 2.534413 2.966931 0.637350
v 2.402248 2.830397 0.591567
v 2.375815 2.966931 0.637350
v 0.793255 2.821294 0.500000
v 0.713956 2.821294 0.637350
v 0.713956 2.821294 0.362650
v 0.555358 2.821294 0.362650
v 0.555358 2.821294 0.637350
v 0.476059 2.821294 0.500000
v 0.743297 2.712067 0.311830
v 0.851937 2.712067 0.500000
v 0.417378 2.712067 0.500000
v 0.526017 2.712067 0.688170
v 0.743297 2.712067 0.688170
v 0.526017 2.712067 0.311830
v 0.793255 2.639249 0.500000
v 0.713956 2.639249 0.362650
v 0.713956 2.639249 0.637350
v 0.555358 2.639249 0.637350
v 0.555358 2.639249 0.362650
v 0.476059 2.639249 0.500000
v 0.674307 3.240000 0.500000
v 0.654482 3.240000 0.534337
v 0.654482 3.240000 0.465663
v 0.614832 3.240000 0.465663
v 0.614832 3.240000 0.534337
v 0.595008 3.240000 0.500000
v 0.555358 2.966931 0.362650
v 0.476059 2.966931 0.500000
v 0.581791 2.830397 0.408433
v 0.528925 2.830397 0.500000
v 0.687523 2.830397 0.408433
v 0.713956 2.966931 0.362650
v 0.740389 2.830397 0.500000
v 0.687523 2.830397 0.591567
v 0.793255 2.966931 0.500000
v 0.713956 2.966931 0.637350
v 0.581791 2.830397 0.591567
v 0.555358 2.966931 0.637350
v 2.613713 2.821294 0.500000
v 2.534413 2.821294 0.637350
v 2.534413 2.821294 0.362650
v 2.375815 2.821294 0.362650
v 2.375815 2.821294 0.637350
v 2.296516 2.821294 0.500000
v 2.563754 2.712067 0.311830
v 2.672394 2.712067 0.500000
v 2.237835 2.712067 0.500000
v 2.346475 2.712067 0.688170
v 2.563754 2.712067 0.688170
v 2.346475 2.712067 0.311830
v 2.613713 2.639249 0.500000
v 2.534413 2.639249 0.362650
v 2.534413 2.639249 0.637350
v 2.375815 2.639249 0.637350
v 2.375815 2.639249 0.362650
v 2.296516 2.639249 0.500000
v 3.703402 2.333776 0.500000
v 3.703402 0.950229 0.500000
v 3.666993 2.333776 0.749767
v 3.666993 0.950229 0.749767
v 3.417226 0.950229 0.786176
v 3.417226 2.333776 0.786176
v 3.131050 0.950229 0.500000
v 3.131050 2.333776 0.500000
v 3.167459 0.950229 0.749767
v 3.167459 2.333776 0.749767
v 3.167459 0.950229 0.250233
v 3.417226 0.950229 0.213824
v 3.167459 2.333776 0.250233
v 3.417226 2.333776 0.213824
v 3.666993 2.333776 0.250233
v 3.666993 0.950229 0.250233
v 3.124132 0.040000 0.096769
v 3.710320 0.040000 0.096769
v 3.124132 0.804592 0.096769
v 3.710320 0.804592 0.096769
v 3.710320 0.040000 0.903231
v 3.124132 0.040000 0.903231
v 3.710320 0.804592 0.903231
v 3.124132 0.804592 0.903231
v 3.013995 0.040000 0.206906
v 3.013995 0.804592 0.206906
v 3.013995 0.040000 0.793094
v 3.013995 0.804592 0.793094
v 3.820457 0.804592 0.206906
v 3.820457 0.040000 0.206906
v 3.820457 0.804592 0.793094
v 3.820457 0.040000 0.793094
v 3.739811 0.950229 0.265525
v 3.739811 0.950229 0.734475
v 3.651701 0.950229 0.177415
v 3.651701 0.950229 0.822585
v 3.182751 0.950229 0.177415
v 3.182751 0.950229 0.822585
v 3.094641 0.950229 0.265525
v 3.094641 0.950229 0.734475
v 3.124132 2.479413 0.096769
v 3.710320 2.479413 0.096769
v 3.124132 2.807095 0.096769
v 3.710320 2.807095 0.096769
v 3.013995 2.479413 0.206906
v 3.013995 2.807095 0.206906
v 3.710320 2.479413 0.903231
v 3.124132 2.479413 0.903231
v 3.710320 2.807095 0.903231
v 3.124132 2.807095 0.903231
v 3.013995 2.479413 0.793094
v 3.013995 2.807095 0.793094
v 3.820457 2.807095 0.206906
v 3.820457 2.479413 0.206906
v 3.820457 2.807095 0.793094
v 3.820457 2.479413 0.793094
v 3.094641 2.333776 0.265525
v 3.094641 2.333776 0.734475
v 3.182751 2.333776 0.822585
v 3.651701 2.333776 0.822585
v 3.651701 2.333776 0.177415
v 3.739811 2.333776 0.265525
v 3.739811 2.333776 0.734475
v 3.182751 2.333776 0.177415
v 3.013995 0.040000 0.718455
v 3.013995 0.040000 0.281545
v 0.179543 0.040000 0.718455
v 0.179543 0.040000 0.281545
v 3.013995 0.804592 0.299750
v 3.013995 0.804592 0.700250
v 0.179543 0.804592 0.299750
v 0.179543 0.804592 0.700250
v 3.013995 0.731774 0.773069
v 0.179543 0.731774 0.773069
v 0.179543 0.731774 0.226931
v 3.013995 0.731774 0.226931
v 1.412721 0.804592 0.500000
v 1.373071 1.721920 0.500000
v 1.478803 0.804592 0.614458
v 1.458978 1.721920 0.648796
v 1.677051 0.804592 0.500000
v 1.610968 0.804592 0.614458
v 1.716700 1.721920 0.500000
v 1.630793 1.721920 0.648796
v 1.478803 0.804592 0.385542
v 1.610968 0.804592 0.385542
v 1.458978 1.721920 0.351204
v 1.630793 1.721920 0.351204
v 1.610968 2.639249 0.385542
v 1.677051 2.639249 0.500000
v 1.412721 2.639249 0.500000
v 1.478803 2.639249 0.614458
v 1.610968 2.639249 0.614458
v 1.478803 2.639249 0.385542
v 0.502492 0.804592 0.500000
v 0.462842 1.721920 0.500000
v 0.568575 0.804592 0.614458
v 0.548750 1.721920 0.648796
v 0.766822 0.804592 0.500000
v 0.700740 0.804592 0.614458
v 0.806472 1.721920 0.500000
v 0.720564 1.721920 0.648796
v 0.568575 0.804592 0.385542
v 0.700740 0.804592 0.385542
v 0.548750 1.721920 0.351204
v 0.720564 1.721920 0.351204
v 0.700740 2.639249 0.385542
v 0.766822 2.639249 0.500000
v 0.502492 2.639249 0.500000
v 0.568575 2.639249 0.614458
v 0.700740 2.639249 0.614458
v 0.568575 2.639249 0.385542
v 2.322949 0.804592 0.500000
v 2.283300 1.721920 0.500000
v 2.389032 0.804592 0.614458
v 2.369207 1.721920 0.648796
v 2.587279 0.804592 0.500000
v 2.521197 0.804592 0.614458
v 2.626929 1.721920 0.500000
v 2.541022 1.721920 0.648796
v 2.389032 0.804592 0.385542
v 2.521197 0.804592 0.385542
v 2.369207 1.721920 0.351204
v 2.541022 1.721920 0.351204
v 2.521197 2.639249 0.385542
v 2.587279 2.639249 0.500000
v 2.322949 2.639249 0.500000
v 2.389032 2.639249 0.614458
v 2.521197 2.639249 0.614458
v 2.389032 2.639249 0.385542
v 3.167459 1.241502 0.700250
v 3.167459 1.241502 0.299750
v 0.179543 1.241502 0.700250
v 0.179543 1.241502 0.299750
v 3.167459 1.387138 0.299750
v 3.167459 1.387138 0.700250
v 0.179543 1.387138 0.299750
v 0.179543 1.387138 0.700250
v 3.167459 2.056702 0.700250
v 3.167459 2.056702 0.299750
v 0.179543 2.056702 0.700250
v 0.179543 2.056702 0.299750
v 3.167459 2.202339 0.299750
v 3.167459 2.202339 0.700250
v 0.179543 2.202339 0.299750
v 0.179543 2.202339 0.700250
f 3 2 1
f 2 3 4
f 2 4 5
f 5 4 6
f 3 8 7
f 8 3 1
f 9 5 6
f 5 9 10
f 2 8 1
f 8 2 11
f 2 10 11
f 10 2 5
f 4 7 12
f 7 4 3
f 9 4 12
f 4 9 6
f 15 14 13
f 14 15 16
f 14 16 17
f 17 16 18
f 8 15 13
f 15 8 11
f 11 16 15
f 16 11 10
f 12 14 17
f 14 12 7
f 8 14 7
f 14 8 13
f 16 9 18
f 9 16 10
f 17 9 12
f 9 17 18
f 21 20 19
f 20 21 22
f 20 22 23
f 23 22 24
f 27 26 25
f 26 27 28
f 25 29 27
f 29 25 30
f 33 32 31
f 32 33 34
f 33 29 30
f 29 33 31
f 34 35 32
f 35 34 36
f 35 26 28
f 26 35 36
f 20 36 34
f 36 20 23
f 26 22 25
f 22 26 24
f 20 33 19
f 33 20 34
f 26 23 24
f 23 26 36
f 21 33 30
f 33 21 19
f 22 30 25
f 30 22 21
f 39 38 37
f 38 39 40
f 38 40 41
f 41 40 42
f 45 44 43
f 44 45 46
f 43 47 45
f 47 43 48
f 51 50 49
f 50 51 52
f 51 47 48
f 47 51 49
f 52 53 50
f 53 52 54
f 53 44 46
f 44 53 54
f 38 54 52
f 54 38 41
f 44 40 43
f 40 44 42
f 38 51 37
f 51 38 52
f 44 41 42
f 41 44 54
f 39 51 48
f 51 39 37
f 40 48 43
f 48 40 39
f 57 56 55
f 56 57 58
f 56 58 59
f 59 58 60
f 57 62 61
f 62 57 55
f 63 59 60
f 59 63 64
f 56 62 55
f 62 56 65
f 56 64 65
f 64 56 59
f 58 61 66
f 61 58 57
f 63 58 66
f 58 63 60
f 69 68 67
f 68 69 70
f 68 70 71
f 71 70 72
f 62 69 67
f 69 62 65
f 65 70 69
f 70 65 64
f 66 68 71
f 68 66 61
f 62 68 61
f 68 62 67
f 70 63 72
f 63 70 64
f 71 63 66
f 63 71 72
f 75 74 73
f 74 75 76
f 74 76 77
f 77 76 78
f 81 80 79
f 80 81 82
f 79 83 81
f 83 79 84
f 87 86 85
f 86 87 88
f 87 83 84
f 83 87 85
f 88 89 86
f 89 88 90
f 89 80 82
f 80 89 90
f 74 90 88
f 90 74 77
f 80 76 79
f 76 80 78
f 74 87 73
f 87 74 88
f 80 77 78
f 77 80 90
f 75 87 84
f 87 75 73
f 76 84 79
f 84 76 75
f 93 92 91
f 92 93 94
f 92 94 95
f 95 94 96
f 93 98 97
f 98 93 91
f 99 95 96
f 95 99 100
f 92 98 91
f 98 92 101
f 92 100 101
f 100 92 95
f 94 97 102
f 97 94 93
f 99 94 102
f 94 99 96
f 105 104 103
f 104 105 106
f 104 106 107
f 107 106 108
f 98 105 103
f 105 98 101
f 101 106 105
f 106 101 100
f 102 104 107
f 104 102 97
f 98 104 97
f 104 98 103
f 106 99 108
f 99 106 100
f 107 99 102
f 99 107 108
f 111 110 109
f 110 111 112
f 111 113 112
f 113 111 114
f 117 116 115
f 116 117 118
f 121 120 119
f 120 121 122
f 114 117 113
f 117 114 118
f 109 124 123
f 124 109 110
f 122 124 120
f 124 122 123
f 115 121 119
f 121 115 116
f 127 126 125
f 126 127 128
f 131 130 129
f 130 131 132
f 135 134 133
f 134 135 136
f 139 138 137
f 138 139 140
f 132 135 130
f 135 132 136
f 139 129 140
f 129 139 131
f 128 138 126
f 138 128 137
f 134 125 133
f 125 134 127
f 129 138 140
f 138 129 126
f 126 129 130
f 126 130 125
f 125 130 135
f 125 135 133
f 143 142 141
f 142 143 144
f 144 143 145
f 144 145 146
f 146 145 147
f 146 147 148
f 134 145 127
f 145 134 147
f 136 147 134
f 147 136 148
f 143 137 128
f 137 143 141
f 142 131 139
f 131 142 144
f 141 139 137
f 139 141 142
f 136 146 148
f 146 136 132
f 145 128 127
f 128 145 143
f 144 132 131
f 132 144 146
f 151 150 149
f 150 151 152
f 154 149 153
f 149 154 151
f 157 156 155
f 156 157 158
f 158 159 156
f 159 158 160
f 163 162 161
f 162 163 164
f 152 162 150
f 162 152 161
f 163 155 164
f 155 163 157
f 152 163 161
f 163 152 157
f 157 152 151
f 157 151 158
f 158 151 154
f 158 154 160
f 159 154 153
f 154 159 160
f 165 159 153
f 159 165 166
f 156 166 167
f 166 156 159
f 155 167 168
f 167 155 156
f 162 169 150
f 169 162 170
f 164 170 162
f 170 164 171
f 149 169 172
f 169 149 150
f 153 172 165
f 172 153 149
f 164 168 171
f 168 164 155
f 168 170 171
f 170 168 169
f 169 168 167
f 169 167 172
f 172 167 166
f 172 166 165
f 175 174 173
f 174 175 176
f 179 178 177
f 178 179 180
f 178 182 181
f 182 178 180
f 179 184 183
f 184 179 177
f 177 174 184
f 174 177 173
f 173 177 178
f 173 178 181
f 176 179 183
f 179 176 175
f 179 175 180
f 180 175 182
f 183 174 176
f 174 183 184
f 181 175 173
f 175 181 182
f 187 186 185
f 186 187 188
f 191 190 189
f 190 191 192
f 195 194 193
f 194 195 196
f 192 187 190
f 187 192 188
f 193 186 195
f 186 193 185
f 191 194 196
f 194 191 189
f 197 191 196
f 191 197 198
f 188 199 186
f 199 188 200
f 198 192 191
f 192 198 201
f 202 196 195
f 196 202 197
f 201 188 192
f 188 201 200
f 186 202 195
f 202 186 199
f 205 204 203
f 204 205 206
f 209 208 207
f 208 209 210
f 213 212 211
f 212 213 214
f 210 205 208
f 205 210 206
f 211 204 213
f 204 211 203
f 209 212 214
f 212 209 207
f 215 209 214
f 209 215 216
f 206 217 204
f 217 206 218
f 216 210 209
f 210 216 219
f 220 214 213
f 214 220 215
f 219 206 210
f 206 219 218
f 204 220 213
f 220 204 217
f 223 222 221
f 222 223 224
f 227 226 225
f 226 227 228
f 231 230 229
f 230 231 232
f 228 223 226
f 223 228 224
f 229 222 231
f 222 229 221
f 227 230 232
f 230 227 225
f 233 227 232
f 227 233 234
f 224 235 222
f 235 224 236
f 234 228 227
f 228 234 237
f 238 232 231
f 232 238 233
f 237 224 228
f 224 237 236
f 222 238 231
f 238 222 235
f 241 240 239
f 240 241 242
f 245 244 243
f 244 245 246
f 244 240 243
f 240 244 239
f 245 240 242
f 240 245 243
f 241 245 242
f 245 241 246
f 244 241 239
f 241 244 246
f 249 248 247
f 248 249 250
f 253 252 251
f 252 253 254
f 252 248 251
f 248 252 247
f 253 248 250
f 248 253 251
f 249 253 250
f 253 249 254
f 252 249 247
f 249 252 254
f 3 2 1
f 2 3 4
f 2 4 5
f 5 4 6
f 3 8 7
f 8 3 1
f 9 5 6
f 5 9 10
f 2 8 1
f 8 2 11
f 2 10 11
f 10 2 5
f 4 7 12
f 7 4 3
f 9 4 12
f 4 9 6
f 15 14 13
f 14 15 16
f 14 16 17
f 17 16 18
f 8 15 13
f 15 8 11
f 11 16 15
f 16 11 10
f 12 14 17
f 14 12 7
f 8 14 7
f 14 8 13
f 16 9 18
f 9 16 10
f 17 9 12
f 9 17 18
f 21 20 19
f 20 21 22
f 20 22 23
f 23 22 24
f 27 26 25
f 26 27 28
f 25 29 27
f 29 25 30
f 33 32 31
f 32 33 34
f 33 29 30
f 29 33 31
f 34 35 32
f 35 34 36
f 35 26 28
f 26 35 36
f 20 36 34
f 36 20 23
f 26 22 25
f 22 26 24
f 20 33 19
f 33 20 34
f 26 23 24
f 23 26 36
f 21 33 30
f 33 21 19
f 22 30 25
f 30 22 21
f 39 38 37
f 38 39 40
f 38 40 41
f 41 40 42
f 45 44 43
f 44 45 46
f 43 47 45
f 47 43 48
f 51 50 49
f 50 51 52
f 51 47 48
f 47 51 49
f 52 53 50
f 53 52 54
f 53 44 46
f 44 53 54
f 38 54 52
f 54 38 41
f 44 40 43
f 40 44 42
f 38 51 37
f 51 38 52
f 44 41 42
f 41 44 54
f 39 51 48
f 51 39 37
f 40 48 43
f 48 40 39
f 57 56 55
f 56 57 58
f 56 58 59
f 59 58 60
f 57 62 61
f 62 57 55
f 63 59 60
f 59 63 64
f 56 62 55
f 62 56 65
f 56 64 65
f 64 56 59
f 58 61 66
f 61 58 57
f 63 58 66
f 58 63 60
f 69 68 67
f 68 69 70
f 68 70 71
f 71 70 72
f 62 69 67
f 69 62 65
f 65 70 69
f 70 65 64
f 66 68 71
f 68 66 61
f 62 68 61
f 68 62 67
f 70 63 72
f 63 70 64
f 71 63 66
f 63 71 72
f 75 74 73
f 74 75 76
f 74 76 77
f 77 76 78
f 81 80 79
f 80 81 82
f 79 83 81
f 83 79 84
f 87 86 85
f 86 87 88
f 87 83 84
f 83 87 85
f 88 89 86
f 89 88 90
f 89 80 82
f 80 89 90
f 74 90 88
f 90 74 77
f 80 76 79
f 76 80 78
f 74 87 73
f 87 74 88
f 80 77 78
f 77 80 90
f 75 87 84
f 87 75 73
f 76 84 79
f 84 76 75
f 93 92 91
f 92 93 94
f 92 94 95
f 95 94 96
f 93 98 97
f 98 93 91
f 99 95 96
f 95 99 100
f 92 98 91
f 98 92 101
f 92 100 101
f 100 92 95
f 94 97 102
f 97 94 93
f 99 94 102
f 94 99 96
f 105 104 103
f 104 105 106
f 104 106 107
f 107 106 108
f 98 105 103
f 105 98 101
f 101 106 105
f 106 101 100
f 102 104 107
f 104 102 97
f 98 104 97
f 104 98 103
f 106 99 108
f 99 106 100
f 107 99 102
f 99 107 108
f 111 110 109
f 110 111 112
f 111 113 112
f 113 111 114
f 117 116 115
f 116 117 118
f 121 120 119
f 120 121 122
f 114 117 113
f 117 114 118
f 109 124 123
f 124 109 110
f 122 124 120
f 124 122 123
f 115 121 119
f 121 115 116
f 127 126 125
f 126 127 128
f 131 130 129
f 130 131 132
f 135 134 133
f 134 135 136
f 139 138 137
f 138 139 140
f 132 135 130
f 135 132 136
f 139 129 140
f 129 139 131
f 128 138 126
f 138 128 137
f 134 125 133
f 125 134 127
f 129 138 140
f 138 129 126
f 126 129 130
f 126 130 125
f 125 130 135
f 125 135 133
f 143 142 141
f 142 143 144
f 144 143 145
f 144 145 146
f 146 145 147
f 146 147 148
f 134 145 127
f 145 134 147
f 136 147 134
f 147 136 148
f 143 137 128
f 137 143 141
f 142 131 139
f 131 142 144
f 141 139 137
f 139 141 142
f 136 146 148
f 146 136 132
f 145 128 127
f 128 145 143
f 144 132 131
f 132 144 146
f 151 150 149
f 150 151 152
f 154 149 153
f 149 154 151
f 157 156 155
f 156 157 158
f 158 159 156
f 159 158 160
f 163 162 161
f 162 163 164
f 152 162 150
f 162 152 161
f 163 155 164
f 155 163 157
f 152 163 161
f 163 152 157
f 157 152 151
f 157 151 158
f 158 151 154
f 158 154 160
f 159 154 153
f 154 159 160
f 165 159 153
f 159 165 166
f 156 166 167
f 166 156 159
f 155 167 168
f 167 155 156
f 162 169 150
f 169 162 170
f 164 170 162
f 170 164 171
f 149 169 172
f 169 149 150
f 153 172 165
f 172 153 149
f 164 168 171
f 168 164 155
f 168 170 171
f 170 168 169
f 169 168 167
f 169 167 172
f 172 167 166
f 172 166 165
f 175 174 173
f 174 175 176
f 179 178 177
f 178 179 180
f 178 182 181
f 182 178 180
f 179 184 183
f 184 179 177
f 177 174 184
f 174 177 173
f 173 177 178
f 173 178 181
f 176 179 183
f 179 176 175
f 179 175 180
f 180 175 182
f 183 174 176
f 174 183 184
f 181 175 173
f 175 181 182
f 187 186 185
f 186 187 188
f 191 190 189
f 190 191 192
f 195 194 193
f 194 195 196
f 192 187 190
f 187 192 188
f 193 186 195
f 186 193 185
f 191 194 196
f 194 191 189
f 197 191 196
f 191 197 198
f 188 199 186
f 199 188 200
f 198 192 191
f 192 198 201
f 202 196 195
f 196 202 197
f 201 188 192
f 188 201 200
f 186 202 195
f 202 186 199
f 205 204 203
f 204 205 206
f 209 208 207
f 208 209 210
f 213 212 211
f 212 213 214
f 210 205 208
f 205 210 206
f 211 204 213
f 204 211 203
f 209 212 214
f 212 209 207
f 215 209 214
f 209 215 216
f 206 217 204
f 217 206 218
f 216 210 209
f 210 216 219
f 220 214 213
f 214 220 215
f 219 206 210
f 206 219 218
f 204 220 213
f 220 204 217
f 223 222 221
f 222 223 224
f 227 226 225
f 226 227 228
f 231 230 229
f 230 231 232
f 228 223 226
f 223 228 224
f 229 222 231
f 222 229 221
f 227 230 232
f 230 227 225
f 233 227 232
f 227 233 234
f 224 235 222
f 235 224 236
f 234 228 227
f 228 234 237
f 238 232 231
f 232 238 233
f 237 224 228
f 224 237 236
f 222 238 231
f 238 222 235
f 241 240 239
f 240 241 242
f 245 244 243
f 244 245 246
f 244 240 243
f 240 244 239
f 245 240 242
f 240 245 243
f 241 245 242
f 245 241 246
f 244 241 239
f 241 244 246
f 249 248 247
f 248 249 250
f 253 252 251
f 252 253 254
f 252 248 251
f 248 252 247
f 253 248 250
f 248 253 251
f 249 253 250
f 253 249 254
f 252 249 247
f 249 252 254
