# City room prop — voxel footprint 4x4x1 (0.5 m cells)
o ironFence
v 2.494764 3.240000 0.500000
v 2.474939 3.240000 0.534337
v 2.474939 3.240000 0.465663
v 2.435290 3.240000 0.465663
v 2.435290 3.240000 0.534337
v 2.415465 3.240000 0.500000
v 2.375815 2.966931 0.362650
v 2.296516 2.966931 0.500000
v 2.402248 2.830397 0.408433
v 2.349382 2.830397 0.500000
v 2.507980 2.830397 0.408433
v 2.534413 2.966931 0.362650
v 2.560846 2.830397 0.500000
v 2.507980 2.830397 0.591567
v 2.613713 2.966931 0.500000
v 2.534413 2.966931 0.637350
v 2.402248 2.830397 0.591567
v 2.375815 2.966931 0.637350
v 0.793255 2.821294 0.500000
v 0.713956 2.821294 0.637350
v 0.713956 2.821294 0.362650
v 0.555358 2.821294 0.362650
v 0.555358 2.821294 0.637350
v 0.476059 2.821294 0.500000
v 0.743297 2.712067 0.311830
v 0.851937 2.712067 0.500000
v 0.417378 2.712067 0.500000
v 0.526017 2.712067 0.688170
v 0.743297 2.712067 0.688170
v 0.526017 2.712067 0.311830
v 0.793255 2.639249 0.500000
v 0.713956 2.639249 0.362650
v 0.713956 2.639249 0.637350
v 0.555358 2.639249 0.637350
v 0.555358 2.639249 0.362650
v 0.476059 2.639249 0.500000
v 1.703484 2.821294 0.500000
v 1.624185 2.821294 0.637350
v 1.624185 2.821294 0.362650
v 1.465587 2.821294 0.362650
v 1.465587 2.821294 0.637350
v 1.386287 2.821294 0.500000
v 1.653525 2.712067 0.311830
v 1.762165 2.712067 0.500000
v 1.327606 2.712067 0.500000
v 1.436246 2.712067 0.688170
v 1.653525 2.712067 0.688170
v 1.436246 2.712067 0.311830
v 1.703484 2.639249 0.500000
v 1.624185 2.639249 0.362650
v 1.624185 2.639249 0.637350
v 1.465587 2.639249 0.637350
v 1.465587 2.639249 0.362650
v 1.386287 2.639249 0.500000
v 0.674307 3.240000 0.500000
v 0.654482 3.240000 0.534337
v 0.654482 3.240000 0.465663
v 0.614832 3.240000 0.465663
v 0.614832 3.240000 0.534337
v 0.595008 3.240000 0.500000
v 0.555358 2.966931 0.362650
v 0.476059 2.966931 0.500000
v 0.581791 2.830397 0.408433
v 0.528925 2.830397 0.500000
v 0.687523 2.830397 0.408433
v 0.713956 2.966931 0.362650
v 0.740389 2.830397 0.500000
v 0.687523 2.830397 0.591567
v 0.793255 2.966931 0.500000
v 0.713956 2.966931 0.637350
v 0.581791 2.830397 0.591567
v 0.555358 2.966931 0.637350
v 1.584535 3.240000 0.500000
v 1.564710 3.240000 0.534337
v 1.564710 3.240000 0.465663
v 1.525061 3.240000 0.465663
v 1.525061 3.240000 0.534337
v 1.505236 3.240000 0.500000
v 1.465587 2.966931 0.362650
v 1.386287 2.966931 0.500000
v 1.492020 2.830397 0.408433
v 1.439154 2.830397 0.500000
v 1.597752 2.830397 0.408433
v 1.624185 2.966931 0.362650
v 1.650618 2.830397 0.500000
v 1.597752 2.830397 0.591567
v 1.703484 2.966931 0.500000
v 1.624185 2.966931 0.637350
v 1.492020 2.830397 0.591567
v 1.465587 2.966931 0.637350
v 2.613713 2.821294 0.500000
v 2.534413 2.821294 0.637350
v 2.534413 2.821294 0.362650
v 2.375815 2.821294 0.362650
v 2.375815 2.821294 0.637350
v 2.296516 2.821294 0.500000
v 2.563754 2.712067 0.311830
v 2.672394 2.712067 0.500000
v 2.237835 2.712067 0.500000
v 2.346475 2.712067 0.688170
v 2.563754 2.712067 0.688170
v 2.346475 2.712067 0.311830
v 2.613713 2.639249 0.500000
v 2.534413 2.639249 0.362650
v 2.534413 2.639249 0.637350
v 2.375815 2.639249 0.637350
v 2.375815 2.639249 0.362650
v 2.296516 2.639249 0.500000
v 3.404992 3.240000 0.500000
v 3.385168 3.240000 0.534337
v 3.385168 3.240000 0.465663
v 3.345518 3.240000 0.465663
v 3.345518 3.240000 0.534337
v 3.325693 3.240000 0.500000
v 3.286044 2.966931 0.362650
v 3.206745 2.966931 0.500000
v 3.312477 2.830397 0.408433
v 3.259611 2.830397 0.500000
v 3.418209 2.830397 0.408433
v 3.444642 2.966931 0.362650
v 3.471075 2.830397 0.500000
v 3.418209 2.830397 0.591567
v 3.523941 2.966931 0.500000
v 3.444642 2.966931 0.637350
v 3.312477 2.830397 0.591567
v 3.286044 2.966931 0.637350
v 3.523941 2.821294 0.500000
v 3.444642 2.821294 0.637350
v 3.444642 2.821294 0.362650
v 3.286044 2.821294 0.362650
v 3.286044 2.821294 0.637350
v 3.206745 2.821294 0.500000
v 3.473983 2.712067 0.311830
v 3.582622 2.712067 0.500000
v 3.148063 2.712067 0.500000
v 3.256703 2.712067 0.688170
v 3.473983 2.712067 0.688170
v 3.256703 2.712067 0.311830
v 3.523941 2.639249 0.500000
v 3.444642 2.639249 0.362650
v 3.444642 2.639249 0.637350
v 3.286044 2.639249 0.637350
v 3.286044 2.639249 0.362650
v 3.206745 2.639249 0.500000
v 2.322949 0.040000 0.500000
v 2.283300 1.339624 0.500000
v 2.389032 0.040000 0.614458
v 2.369207 1.339624 0.648796
v 2.587279 0.040000 0.500000
v 2.521197 0.040000 0.614458
v 2.626929 1.339624 0.500000
v 2.541022 1.339624 0.648796
v 2.389032 0.040000 0.385542
v 2.521197 0.040000 0.385542
v 2.369207 1.339624 0.351204
v 2.541022 1.339624 0.351204
v 2.521197 2.639249 0.385542
v 2.587279 2.639249 0.500000
v 2.322949 2.639249 0.500000
v 2.389032 2.639249 0.614458
v 2.521197 2.639249 0.614458
v 2.389032 2.639249 0.385542
v 3.233178 0.040000 0.500000
v 3.193528 1.339624 0.500000
v 3.299260 0.040000 0.614458
v 3.279436 1.339624 0.648796
v 3.497508 0.040000 0.500000
v 3.431425 0.040000 0.614458
v 3.537158 1.339624 0.500000
v 3.451250 1.339624 0.648796
v 3.299260 0.040000 0.385542
v 3.431425 0.040000 0.385542
v 3.279436 1.339624 0.351204
v 3.451250 1.339624 0.351204
v 3.431425 2.639249 0.385542
v 3.497508 2.639249 0.500000
v 3.233178 2.639249 0.500000
v 3.299260 2.639249 0.614458
v 3.431425 2.639249 0.614458
v 3.299260 2.639249 0.385542
v 1.412721 0.040000 0.500000
v 1.373071 1.339624 0.500000
v 1.478803 0.040000 0.614458
v 1.458978 1.339624 0.648796
v 1.677051 0.040000 0.500000
v 1.610968 0.040000 0.614458
v 1.716700 1.339624 0.500000
v 1.630793 1.339624 0.648796
v 1.478803 0.040000 0.385542
v 1.610968 0.040000 0.385542
v 1.458978 1.339624 0.351204
v 1.630793 1.339624 0.351204
v 1.610968 2.639249 0.385542
v 1.677051 2.639249 0.500000
v 1.412721 2.639249 0.500000
v 1.478803 2.639249 0.614458
v 1.610968 2.639249 0.614458
v 1.478803 2.639249 0.385542
v 0.502492 0.040000 0.500000
v 0.462842 1.339624 0.500000
v 0.568575 0.040000 0.614458
v 0.548750 1.339624 0.648796
v 0.766822 0.040000 0.500000
v 0.700740 0.040000 0.614458
v 0.806472 1.339624 0.500000
v 0.720564 1.339624 0.648796
v 0.568575 0.040000 0.385542
v 0.700740 0.040000 0.385542
v 0.548750 1.339624 0.351204
v 0.720564 1.339624 0.351204
v 0.700740 2.639249 0.385542
v 0.766822 2.639249 0.500000
v 0.502492 2.639249 0.500000
v 0.568575 2.639249 0.614458
v 0.700740 2.639249 0.614458
v 0.568575 2.639249 0.385542
v 3.820457 2.056702 0.700250
v 3.820457 2.056702 0.299750
v 0.179543 2.056702 0.700250
v 0.179543 2.056702 0.299750
v 3.820457 2.202339 0.299750
v 3.820457 2.202339 0.700250
v 0.179543 2.202339 0.299750
v 0.179543 2.202339 0.700250
v 3.820457 0.476910 0.700250
v 3.820457 0.476910 0.299750
v 0.179543 0.476910 0.700250
v 0.179543 0.476910 0.299750
v 3.820457 0.622546 0.299750
v 3.820457 0.622546 0.700250
v 0.179543 0.622546 0.299750
v 0.179543 0.622546 0.700250
f 3 2 1
f 2 3 4
f 2 4 5
f 5 4 6
f 9 8 7
f 8 9 10
f 7 11 9
f 11 7 12
f 15 14 13
f 14 15 16
f 15 11 12
f 11 15 13
f 16 17 14
f 17 16 18
f 17 8 10
f 8 17 18
f 2 18 16
f 18 2 5
f 8 4 7
f 4 8 6
f 2 15 1
f 15 2 16
f 8 5 6
f 5 8 18
f 3 15 12
f 15 3 1
f 4 12 7
f 12 4 3
f 21 20 19
f 20 21 22
f 20 22 23
f 23 22 24
f 21 26 25
f 26 21 19
f 27 23 24
f 23 27 28
f 20 26 19
f 26 20 29
f 20 28 29
f 28 20 23
f 22 25 30
f 25 22 21
f 27 22 30
f 22 27 24
f 33 32 31
f 32 33 34
f 32 34 35
f 35 34 36
f 26 33 31
f 33 26 29
f 29 34 33
f 34 29 28
f 30 32 35
f 32 30 25
f 26 32 25
f 32 26 31
f 34 27 36
f 27 34 28
f 35 27 30
f 27 35 36
f 39 38 37
f 38 39 40
f 38 40 41
f 41 40 42
f 39 44 43
f 44 39 37
f 45 41 42
f 41 45 46
f 38 44 37
f 44 38 47
f 38 46 47
f 46 38 41
f 40 43 48
f 43 40 39
f 45 40 48
f 40 45 42
f 51 50 49
f 50 51 52
f 50 52 53
f 53 52 54
f 44 51 49
f 51 44 47
f 47 52 51
f 52 47 46
f 48 50 53
f 50 48 43
f 44 50 43
f 50 44 49
f 52 45 54
f 45 52 46
f 53 45 48
f 45 53 54
f 57 56 55
f 56 57 58
f 56 58 59
f 59 58 60
f 63 62 61
f 62 63 64
f 61 65 63
f 65 61 66
f 69 68 67
f 68 69 70
f 69 65 66
f 65 69 67
f 70 71 68
f 71 70 72
f 71 62 64
f 62 71 72
f 56 72 70
f 72 56 59
f 62 58 61
f 58 62 60
f 56 69 55
f 69 56 70
f 62 59 60
f 59 62 72
f 57 69 66
f 69 57 55
f 58 66 61
f 66 58 57
f 75 74 73
f 74 75 76
f 74 76 77
f 77 76 78
f 81 80 79
f 80 81 82
f 79 83 81
f 83 79 84
f 87 86 85
f 86 87 88
f 87 83 84
f 83 87 85
f 88 89 86
f 89 88 90
f 89 80 82
f 80 89 90
f 74 90 88
f 90 74 77
f 80 76 79
f 76 80 78
f 74 87 73
f 87 74 88
f 80 77 78
f 77 80 90
f 75 87 84
f 87 75 73
f 76 84 79
f 84 76 75
f 93 92 91
f 92 93 94
f 92 94 95
f 95 94 96
f 93 98 97
f 98 93 91
f 99 95 96
f 95 99 100
f 92 98 91
f 98 92 101
f 92 100 101
f 100 92 95
f 94 97 102
f 97 94 93
f 99 94 102
f 94 99 96
f 105 104 103
f 104 105 106
f 104 106 107
f 107 106 108
f 98 105 103
f 105 98 101
f 101 106 105
f 106 101 100
f 102 104 107
f 104 102 97
f 98 104 97
f 104 98 103
f 106 99 108
f 99 106 100
f 107 99 102
f 99 107 108
f 111 110 109
f 110 111 112
f 110 112 113
f 113 112 114
f 117 116 115
f 116 117 118
f 115 119 117
f 119 115 120
f 123 122 121
f 122 123 124
f 123 119 120
f 119 123 121
f 124 125 122
f 125 124 126
f 125 116 118
f 116 125 126
f 110 126 124
f 126 110 113
f 116 112 115
f 112 116 114
f 110 123 109
f 123 110 124
f 116 113 114
f 113 116 126
f 111 123 120
f 123 111 109
f 112 120 115
f 120 112 111
f 129 128 127
f 128 129 130
f 128 130 131
f 131 130 132
f 129 134 133
f 134 129 127
f 135 131 132
f 131 135 136
f 128 134 127
f 134 128 137
f 128 136 137
f 136 128 131
f 130 133 138
f 133 130 129
f 135 130 138
f 130 135 132
f 141 140 139
f 140 141 142
f 140 142 143
f 143 142 144
f 134 141 139
f 141 134 137
f 137 142 141
f 142 137 136
f 138 140 143
f 140 138 133
f 134 140 133
f 140 134 139
f 142 135 144
f 135 142 136
f 143 135 138
f 135 143 144
f 147 146 145
f 146 147 148
f 151 150 149
f 150 151 152
f 155 154 153
f 154 155 156
f 152 147 150
f 147 152 148
f 153 146 155
f 146 153 145
f 151 154 156
f 154 151 149
f 157 151 156
f 151 157 158
f 148 159 146
f 159 148 160
f 158 152 151
f 152 158 161
f 162 156 155
f 156 162 157
f 161 148 152
f 148 161 160
f 146 162 155
f 162 146 159
f 150 154 149
f 154 150 147
f 154 147 153
f 153 147 145
f 165 164 163
f 164 165 166
f 169 168 167
f 168 169 170
f 173 172 171
f 172 173 174
f 170 165 168
f 165 170 166
f 171 164 173
f 164 171 163
f 169 172 174
f 172 169 167
f 175 169 174
f 169 175 176
f 166 177 164
f 177 166 178
f 176 170 169
f 170 176 179
f 180 174 173
f 174 180 175
f 179 166 170
f 166 179 178
f 164 180 173
f 180 164 177
f 168 172 167
f 172 168 165
f 172 165 171
f 171 165 163
f 183 182 181
f 182 183 184
f 187 186 185
f 186 187 188
f 191 190 189
f 190 191 192
f 188 183 186
f 183 188 184
f 189 182 191
f 182 189 181
f 187 190 192
f 190 187 185
f 193 187 192
f 187 193 194
f 184 195 182
f 195 184 196
f 194 188 187
f 188 194 197
f 198 192 191
f 192 198 193
f 197 184 188
f 184 197 196
f 182 198 191
f 198 182 195
f 186 190 185
f 190 186 183
f 190 183 189
f 189 183 181
f 201 200 199
f 200 201 202
f 205 204 203
f 204 205 206
f 209 208 207
f 208 209 210
f 206 201 204
f 201 206 202
f 207 200 209
f 200 207 199
f 205 208 210
f 208 205 203
f 211 205 210
f 205 211 212
f 202 213 200
f 213 202 214
f 212 206 205
f 206 212 215
f 216 210 209
f 210 216 211
f 215 202 206
f 202 215 214
f 200 216 209
f 216 200 213
f 204 208 203
f 208 204 201
f 208 201 207
f 207 201 199
f 219 218 217
f 218 219 220
f 223 222 221
f 222 223 224
f 222 218 221
f 218 222 217
f 223 218 220
f 218 223 221
f 219 223 220
f 223 219 224
f 222 219 217
f 219 222 224
f 227 226 225
f 226 227 228
f 231 230 229
f 230 231 232
f 230 226 229
f 226 230 225
f 231 226 228
f 226 231 229
f 227 231 228
f 231 227 232
f 230 227 225
f 227 230 232
f 3 2 1
f 2 3 4
f 2 4 5
f 5 4 6
f 9 8 7
f 8 9 10
f 7 11 9
f 11 7 12
f 15 14 13
f 14 15 16
f 15 11 12
f 11 15 13
f 16 17 14
f 17 16 18
f 17 8 10
f 8 17 18
f 2 18 16
f 18 2 5
f 8 4 7
f 4 8 6
f 2 15 1
f 15 2 16
f 8 5 6
f 5 8 18
f 3 15 12
f 15 3 1
f 4 12 7
f 12 4 3
f 21 20 19
f 20 21 22
f 20 22 23
f 23 22 24
f 21 26 25
f 26 21 19
f 27 23 24
f 23 27 28
f 20 26 19
f 26 20 29
f 20 28 29
f 28 20 23
f 22 25 30
f 25 22 21
f 27 22 30
f 22 27 24
f 33 32 31
f 32 33 34
f 32 34 35
f 35 34 36
f 26 33 31
f 33 26 29
f 29 34 33
f 34 29 28
f 30 32 35
f 32 30 25
f 26 32 25
f 32 26 31
f 34 27 36
f 27 34 28
f 35 27 30
f 27 35 36
f 39 38 37
f 38 39 40
f 38 40 41
f 41 40 42
f 39 44 43
f 44 39 37
f 45 41 42
f 41 45 46
f 38 44 37
f 44 38 47
f 38 46 47
f 46 38 41
f 40 43 48
f 43 40 39
f 45 40 48
f 40 45 42
f 51 50 49
f 50 51 52
f 50 52 53
f 53 52 54
f 44 51 49
f 51 44 47
f 47 52 51
f 52 47 46
f 48 50 53
f 50 48 43
f 44 50 43
f 50 44 49
f 52 45 54
f 45 52 46
f 53 45 48
f 45 53 54
f 57 56 55
f 56 57 58
f 56 58 59
f 59 58 60
f 63 62 61
f 62 63 64
f 61 65 63
f 65 61 66
f 69 68 67
f 68 69 70
f 69 65 66
f 65 69 67
f 70 71 68
f 71 70 72
f 71 62 64
f 62 71 72
f 56 72 70
f 72 56 59
f 62 58 61
f 58 62 60
f 56 69 55
f 69 56 70
f 62 59 60
f 59 62 72
f 57 69 66
f 69 57 55
f 58 66 61
f 66 58 57
f 75 74 73
f 74 75 76
f 74 76 77
f 77 76 78
f 81 80 79
f 80 81 82
f 79 83 81
f 83 79 84
f 87 86 85
f 86 87 88
f 87 83 84
f 83 87 85
f 88 89 86
f 89 88 90
f 89 80 82
f 80 89 90
f 74 90 88
f 90 74 77
f 80 76 79
f 76 80 78
f 74 87 73
f 87 74 88
f 80 77 78
f 77 80 90
f 75 87 84
f 87 75 73
f 76 84 79
f 84 76 75
f 93 92 91
f 92 93 94
f 92 94 95
f 95 94 96
f 93 98 97
f 98 93 91
f 99 95 96
f 95 99 100
f 92 98 91
f 98 92 101
f 92 100 101
f 100 92 95
f 94 97 102
f 97 94 93
f 99 94 102
f 94 99 96
f 105 104 103
f 104 105 106
f 104 106 107
f 107 106 108
f 98 105 103
f 105 98 101
f 101 106 105
f 106 101 100
f 102 104 107
f 104 102 97
f 98 104 97
f 104 98 103
f 106 99 108
f 99 106 100
f 107 99 102
f 99 107 108
f 111 110 109
f 110 111 112
f 110 112 113
f 113 112 114
f 117 116 115
f 116 117 118
f 115 119 117
f 119 115 120
f 123 122 121
f 122 123 124
f 123 119 120
f 119 123 121
f 124 125 122
f 125 124 126
f 125 116 118
f 116 125 126
f 110 126 124
f 126 110 113
f 116 112 115
f 112 116 114
f 110 123 109
f 123 110 124
f 116 113 114
f 113 116 126
f 111 123 120
f 123 111 109
f 112 120 115
f 120 112 111
f 129 128 127
f 128 129 130
f 128 130 131
f 131 130 132
f 129 134 133
f 134 129 127
f 135 131 132
f 131 135 136
f 128 134 127
f 134 128 137
f 128 136 137
f 136 128 131
f 130 133 138
f 133 130 129
f 135 130 138
f 130 135 132
f 141 140 139
f 140 141 142
f 140 142 143
f 143 142 144
f 134 141 139
f 141 134 137
f 137 142 141
f 142 137 136
f 138 140 143
f 140 138 133
f 134 140 133
f 140 134 139
f 142 135 144
f 135 142 136
f 143 135 138
f 135 143 144
f 147 146 145
f 146 147 148
f 151 150 149
f 150 151 152
f 155 154 153
f 154 155 156
f 152 147 150
f 147 152 148
f 153 146 155
f 146 153 145
f 151 154 156
f 154 151 149
f 157 151 156
f 151 157 158
f 148 159 146
f 159 148 160
f 158 152 151
f 152 158 161
f 162 156 155
f 156 162 157
f 161 148 152
f 148 161 160
f 146 162 155
f 162 146 159
f 150 154 149
f 154 150 147
f 154 147 153
f 153 147 145
f 165 164 163
f 164 165 166
f 169 168 167
f 168 169 170
f 173 172 171
f 172 173 174
f 170 165 168
f 165 170 166
f 171 164 173
f 164 171 163
f 169 172 174
f 172 169 167
f 175 169 174
f 169 175 176
f 166 177 164
f 177 166 178
f 176 170 169
f 170 176 179
f 180 174 173
f 174 180 175
f 179 166 170
f 166 179 178
f 164 180 173
f 180 164 177
f 168 172 167
f 172 168 165
f 172 165 171
f 171 165 163
f 183 182 181
f 182 183 184
f 187 186 185
f 186 187 188
f 191 190 189
f 190 191 192
f 188 183 186
f 183 188 184
f 189 182 191
f 182 189 181
f 187 190 192
f 190 187 185
f 193 187 192
f 187 193 194
f 184 195 182
f 195 184 196
f 194 188 187
f 188 194 197
f 198 192 191
f 192 198 193
f 197 184 188
f 184 197 196
f 182 198 191
f 198 182 195
f 186 190 185
f 190 186 183
f 190 183 189
f 189 183 181
f 201 200 199
f 200 201 202
f 205 204 203
f 204 205 206
f 209 208 207
f 208 209 210
f 206 201 204
f 201 206 202
f 207 200 209
f 200 207 199
f 205 208 210
f 208 205 203
f 211 205 210
f 205 211 212
f 202 213 200
f 213 202 214
f 212 206 205
f 206 212 215
f 216 210 209
f 210 216 211
f 215 202 206
f 202 215 214
f 200 216 209
f 216 200 213
f 204 208 203
f 208 204 201
f 208 201 207
f 207 201 199
f 219 218 217
f 218 219 220
f 223 222 221
f 222 223 224
f 222 218 221
f 218 222 217
f 223 218 220
f 218 223 221
f 219 223 220
f 223 219 224
f 222 219 217
f 219 222 224
f 227 226 225
f 226 227 228
f 231 230 229
f 230 231 232
f 230 226 229
f 226 230 225
f 231 226 228
f 226 231 229
f 227 231 228
f 231 227 232
f 230 227 225
f 227 230 232
