# City room prop — voxel footprint 1x4x4 (0.5 m cells)
o ironFenceBorder_z
v 0.500000 3.240000 3.325693
v 0.534337 3.240000 3.345518
v 0.465663 3.240000 3.345518
v 0.465663 3.240000 3.385168
v 0.534337 3.240000 3.385168
v 0.500000 3.240000 3.404992
v 0.362650 2.966931 3.444642
v 0.500000 2.966931 3.523941
v 0.408433 2.830397 3.418209
v 0.500000 2.830397 3.471075
v 0.408433 2.830397 3.312477
v 0.362650 2.966931 3.286044
v 0.500000 2.830397 3.259611
v 0.591567 2.830397 3.312477
v 0.500000 2.966931 3.206745
v 0.637350 2.966931 3.286044
v 0.591567 2.830397 3.418209
v 0.637350 2.966931 3.444642
v 0.500000 3.240000 0.595008
v 0.534337 3.240000 0.614832
v 0.465663 3.240000 0.614832
v 0.465663 3.240000 0.654482
v 0.534337 3.240000 0.654482
v 0.500000 3.240000 0.674307
v 0.362650 2.966931 0.713956
v 0.500000 2.966931 0.793255
v 0.408433 2.830397 0.687523
v 0.500000 2.830397 0.740389
v 0.408433 2.830397 0.581791
v 0.362650 2.966931 0.555358
v 0.500000 2.830397 0.528925
v 0.591567 2.830397 0.581791
v 0.500000 2.966931 0.476059
v 0.637350 2.966931 0.555358
v 0.591567 2.830397 0.687523
v 0.637350 2.966931 0.713956
v 0.500000 3.240000 2.415465
v 0.534337 3.240000 2.435290
v 0.465663 3.240000 2.435290
v 0.465663 3.240000 2.474939
v 0.534337 3.240000 2.474939
v 0.500000 3.240000 2.494764
v 0.362650 2.966931 2.534413
v 0.500000 2.966931 2.613713
v 0.408433 2.830397 2.507980
v 0.500000 2.830397 2.560846
v 0.408433 2.830397 2.402248
v 0.362650 2.966931 2.375815
v 0.500000 2.830397 2.349382
v 0.591567 2.830397 2.402248
v 0.500000 2.966931 2.296516
v 0.637350 2.966931 2.375815
v 0.591567 2.830397 2.507980
v 0.637350 2.966931 2.534413
v 0.500000 3.240000 1.505236
v 0.534337 3.240000 1.525061
v 0.465663 3.240000 1.525061
v 0.465663 3.240000 1.564710
v 0.534337 3.240000 1.564710
v 0.500000 3.240000 1.584535
v 0.362650 2.966931 1.624185
v 0.500000 2.966931 1.703484
v 0.408433 2.830397 1.597752
v 0.500000 2.830397 1.650618
v 0.408433 2.830397 1.492020
v 0.362650 2.966931 1.465587
v 0.500000 2.830397 1.439154
v 0.591567 2.830397 1.492020
v 0.500000 2.966931 1.386287
v 0.637350 2.966931 1.465587
v 0.591567 2.830397 1.597752
v 0.637350 2.966931 1.624185
v 0.500000 2.821294 1.386287
v 0.637350 2.821294 1.465587
v 0.362650 2.821294 1.465587
v 0.362650 2.821294 1.624185
v 0.637350 2.821294 1.624185
v 0.500000 2.821294 1.703484
v 0.311830 2.712067 1.436246
v 0.500000 2.712067 1.327606
v 0.500000 2.712067 1.762165
v 0.688170 2.712067 1.653525
v 0.688170 2.712067 1.436246
v 0.311830 2.712067 1.653525
v 0.500000 2.639249 1.386287
v 0.362650 2.639249 1.465587
v 0.637350 2.639249 1.465587
v 0.637350 2.639249 1.624185
v 0.362650 2.639249 1.624185
v 0.500000 2.639249 1.703484
v 0.500000 2.821294 3.206745
v 0.637350 2.821294 3.286044
v 0.362650 2.821294 3.286044
v 0.362650 2.821294 3.444642
v 0.637350 2.821294 3.444642
v 0.500000 2.821294 3.523941
v 0.311830 2.712067 3.256703
v 0.500000 2.712067 3.148063
v 0.500000 2.712067 3.582622
v 0.688170 2.712067 3.473983
v 0.688170 2.712067 3.256703
v 0.311830 2.712067 3.473983
v 0.500000 2.639249 3.206745
v 0.362650 2.639249 3.286044
v 0.637350 2.639249 3.286044
v 0.637350 2.639249 3.444642
v 0.362650 2.639249 3.444642
v 0.500000 2.639249 3.523941
v 0.500000 2.821294 0.476059
v 0.637350 2.821294 0.555358
v 0.362650 2.821294 0.555358
v 0.362650 2.821294 0.713956
v 0.637350 2.821294 0.713956
v 0.500000 2.821294 0.793255
v 0.311830 2.712067 0.526017
v 0.500000 2.712067 0.417378
v 0.500000 2.712067 0.851937
v 0.688170 2.712067 0.743297
v 0.688170 2.712067 0.526017
v 0.311830 2.712067 0.743297
v 0.500000 2.639249 0.476059
v 0.362650 2.639249 0.555358
v 0.637350 2.639249 0.555358
v 0.637350 2.639249 0.713956
v 0.362650 2.639249 0.713956
v 0.500000 2.639249 0.793255
v 0.500000 2.821294 2.296516
v 0.637350 2.821294 2.375815
v 0.362650 2.821294 2.375815
v 0.362650 2.821294 2.534413
v 0.637350 2.821294 2.534413
v 0.500000 2.821294 2.613713
v 0.311830 2.712067 2.346475
v 0.500000 2.712067 2.237835
v 0.500000 2.712067 2.672394
v 0.688170 2.712067 2.563754
v 0.688170 2.712067 2.346475
v 0.311830 2.712067 2.563754
v 0.500000 2.639249 2.296516
v 0.362650 2.639249 2.375815
v 0.637350 2.639249 2.375815
v 0.637350 2.639249 2.534413
v 0.362650 2.639249 2.534413
v 0.500000 2.639249 2.613713
v 0.718455 0.040000 0.179543
v 0.281545 0.040000 0.179543
v 0.718455 0.040000 3.820457
v 0.281545 0.040000 3.820457
v 0.299750 0.804592 0.179543
v 0.700250 0.804592 0.179543
v 0.299750 0.804592 3.820457
v 0.700250 0.804592 3.820457
v 0.773069 0.731774 0.179543
v 0.773069 0.731774 3.820457
v 0.226931 0.731774 3.820457
v 0.226931 0.731774 0.179543
v 0.500000 0.804592 1.677051
v 0.500000 1.721920 1.716700
v 0.614458 0.804592 1.610968
v 0.648796 1.721920 1.630793
v 0.500000 0.804592 1.412721
v 0.614458 0.804592 1.478803
v 0.500000 1.721920 1.373071
v 0.648796 1.721920 1.458978
v 0.385542 0.804592 1.610968
v 0.385542 0.804592 1.478803
v 0.351204 1.721920 1.630793
v 0.351204 1.721920 1.458978
v 0.385542 2.639249 1.478803
v 0.500000 2.639249 1.412721
v 0.500000 2.639249 1.677051
v 0.614458 2.639249 1.610968
v 0.614458 2.639249 1.478803
v 0.385542 2.639249 1.610968
v 0.500000 0.804592 2.587279
v 0.500000 1.721920 2.626929
v 0.614458 0.804592 2.521197
v 0.648796 1.721920 2.541022
v 0.500000 0.804592 2.322949
v 0.614458 0.804592 2.389032
v 0.500000 1.721920 2.283300
v 0.648796 1.721920 2.369207
v 0.385542 0.804592 2.521197
v 0.385542 0.804592 2.389032
v 0.351204 1.721920 2.541022
v 0.351204 1.721920 2.369207
v 0.385542 2.639249 2.389032
v 0.500000 2.639249 2.322949
v 0.500000 2.639249 2.587279
v 0.614458 2.639249 2.521197
v 0.614458 2.639249 2.389032
v 0.385542 2.639249 2.521197
v 0.500000 0.804592 3.497508
v 0.500000 1.721920 3.537158
v 0.614458 0.804592 3.431425
v 0.648796 1.721920 3.451250
v 0.500000 0.804592 3.233178
v 0.614458 0.804592 3.299260
v 0.500000 1.721920 3.193528
v 0.648796 1.721920 3.279436
v 0.385542 0.804592 3.431425
v 0.385542 0.804592 3.299260
v 0.351204 1.721920 3.451250
v 0.351204 1.721920 3.279436
v 0.385542 2.639249 3.299260
v 0.500000 2.639249 3.233178
v 0.500000 2.639249 3.497508
v 0.614458 2.639249 3.431425
v 0.614458 2.639249 3.299260
v 0.385542 2.639249 3.431425
v 0.500000 0.804592 0.766822
v 0.500000 1.721920 0.806472
v 0.614458 0.804592 0.700740
v 0.648796 1.721920 0.720564
v 0.500000 0.804592 0.502492
v 0.614458 0.804592 0.568575
v 0.500000 1.721920 0.462842
v 0.648796 1.721920 0.548750
v 0.385542 0.804592 0.700740
v 0.385542 0.804592 0.568575
v 0.351204 1.721920 0.720564
v 0.351204 1.721920 0.548750
v 0.385542 2.639249 0.568575
v 0.500000 2.639249 0.502492
v 0.500000 2.639249 0.766822
v 0.614458 2.639249 0.700740
v 0.614458 2.639249 0.568575
v 0.385542 2.639249 0.700740
v 0.700250 2.056702 0.179543
v 0.299750 2.056702 0.179543
v 0.700250 2.056702 3.820457
v 0.299750 2.056702 3.820457
v 0.299750 2.202339 0.179543
v 0.700250 2.202339 0.179543
v 0.299750 2.202339 3.820457
v 0.700250 2.202339 3.820457
v 0.700250 1.241502 0.179543
v 0.299750 1.241502 0.179543
v 0.700250 1.241502 3.820457
v 0.299750 1.241502 3.820457
v 0.299750 1.387138 0.179543
v 0.700250 1.387138 0.179543
v 0.299750 1.387138 3.820457
v 0.700250 1.387138 3.820457
f 3 2 1
f 2 3 4
f 2 4 5
f 5 4 6
f 9 8 7
f 8 9 10
f 7 11 9
f 11 7 12
f 15 14 13
f 14 15 16
f 15 11 12
f 11 15 13
f 16 17 14
f 17 16 18
f 17 8 10
f 8 17 18
f 2 18 16
f 18 2 5
f 8 4 7
f 4 8 6
f 2 15 1
f 15 2 16
f 8 5 6
f 5 8 18
f 3 15 12
f 15 3 1
f 4 12 7
f 12 4 3
f 21 20 19
f 20 21 22
f 20 22 23
f 23 22 24
f 27 26 25
f 26 27 28
f 25 29 27
f 29 25 30
f 33 32 31
f 32 33 34
f 33 29 30
f 29 33 31
f 34 35 32
f 35 34 36
f 35 26 28
f 26 35 36
f 20 36 34
f 36 20 23
f 26 22 25
f 22 26 24
f 20 33 19
f 33 20 34
f 26 23 24
f 23 26 36
f 21 33 30
f 33 21 19
f 22 30 25
f 30 22 21
f 39 38 37
f 38 39 40
f 38 40 41
f 41 40 42
f 45 44 43
f 44 45 46
f 43 47 45
f 47 43 48
f 51 50 49
f 50 51 52
f 51 47 48
f 47 51 49
f 52 53 50
f 53 52 54
f 53 44 46
f 44 53 54
f 38 54 52
f 54 38 41
f 44 40 43
f 40 44 42
f 38 51 37
f 51 38 52
f 44 41 42
f 41 44 54
f 39 51 48
f 51 39 37
f 40 48 43
f 48 40 39
f 57 56 55
f 56 57 58
f 56 58 59
f 59 58 60
f 63 62 61
f 62 63 64
f 61 65 63
f 65 61 66
f 69 68 67
f 68 69 70
f 69 65 66
f 65 69 67
f 70 71 68
f 71 70 72
f 71 62 64
f 62 71 72
f 56 72 70
f 72 56 59
f 62 58 61
f 58 62 60
f 56 69 55
f 69 56 70
f 62 59 60
f 59 62 72
f 57 69 66
f 69 57 55
f 58 66 61
f 66 58 57
f 75 74 73
f 74 75 76
f 74 76 77
f 77 76 78
f 75 80 79
f 80 75 73
f 81 77 78
f 77 81 82
f 74 80 73
f 80 74 83
f 74 82 83
f 82 74 77
f 76 79 84
f 79 76 75
f 81 76 84
f 76 81 78
f 87 86 85
f 86 87 88
f 86 88 89
f 89 88 90
f 80 87 85
f 87 80 83
f 83 88 87
f 88 83 82
f 84 86 89
f 86 84 79
f 80 86 79
f 86 80 85
f 88 81 90
f 81 88 82
f 89 81 84
f 81 89 90
f 93 92 91
f 92 93 94
f 92 94 95
f 95 94 96
f 93 98 97
f 98 93 91
f 99 95 96
f 95 99 100
f 92 98 91
f 98 92 101
f 92 100 101
f 100 92 95
f 94 97 102
f 97 94 93
f 99 94 102
f 94 99 96
f 105 104 103
f 104 105 106
f 104 106 107
f 107 106 108
f 98 105 103
f 105 98 101
f 101 106 105
f 106 101 100
f 102 104 107
f 104 102 97
f 98 104 97
f 104 98 103
f 106 99 108
f 99 106 100
f 107 99 102
f 99 107 108
f 111 110 109
f 110 111 112
f 110 112 113
f 113 112 114
f 111 116 115
f 116 111 109
f 117 113 114
f 113 117 118
f 110 116 109
f 116 110 119
f 110 118 119
f 118 110 113
f 112 115 120
f 115 112 111
f 117 112 120
f 112 117 114
f 123 122 121
f 122 123 124
f 122 124 125
f 125 124 126
f 116 123 121
f 123 116 119
f 119 124 123
f 124 119 118
f 120 122 125
f 122 120 115
f 116 122 115
f 122 116 121
f 124 117 126
f 117 124 118
f 125 117 120
f 117 125 126
f 129 128 127
f 128 129 130
f 128 130 131
f 131 130 132
f 129 134 133
f 134 129 127
f 135 131 132
f 131 135 136
f 128 134 127
f 134 128 137
f 128 136 137
f 136 128 131
f 130 133 138
f 133 130 129
f 135 130 138
f 130 135 132
f 141 140 139
f 140 141 142
f 140 142 143
f 143 142 144
f 134 141 139
f 141 134 137
f 137 142 141
f 142 137 136
f 138 140 143
f 140 138 133
f 134 140 133
f 140 134 139
f 142 135 144
f 135 142 136
f 143 135 138
f 135 143 144
f 147 146 145
f 146 147 148
f 151 150 149
f 150 151 152
f 150 154 153
f 154 150 152
f 151 156 155
f 156 151 149
f 149 146 156
f 146 149 145
f 145 149 150
f 145 150 153
f 148 151 155
f 151 148 147
f 151 147 152
f 152 147 154
f 155 146 148
f 146 155 156
f 153 147 145
f 147 153 154
f 159 158 157
f 158 159 160
f 163 162 161
f 162 163 164
f 167 166 165
f 166 167 168
f 164 159 162
f 159 164 160
f 165 158 167
f 158 165 157
f 163 166 168
f 166 163 161
f 169 163 168
f 163 169 170
f 160 171 158
f 171 160 172
f 170 164 163
f 164 170 173
f 174 168 167
f 168 174 169
f 173 160 164
f 160 173 172
f 158 174 167
f 174 158 171
f 177 176 175
f 176 177 178
f 181 180 179
f 180 181 182
f 185 184 183
f 184 185 186
f 182 177 180
f 177 182 178
f 183 176 185
f 176 183 175
f 181 184 186
f 184 181 179
f 187 181 186
f 181 187 188
f 178 189 176
f 189 178 190
f 188 182 181
f 182 188 191
f 192 186 185
f 186 192 187
f 191 178 182
f 178 191 190
f 176 192 185
f 192 176 189
f 195 194 193
f 194 195 196
f 199 198 197
f 198 199 200
f 203 202 201
f 202 203 204
f 200 195 198
f 195 200 196
f 201 194 203
f 194 201 193
f 199 202 204
f 202 199 197
f 205 199 204
f 199 205 206
f 196 207 194
f 207 196 208
f 206 200 199
f 200 206 209
f 210 204 203
f 204 210 205
f 209 196 200
f 196 209 208
f 194 210 203
f 210 194 207
f 213 212 211
f 212 213 214
f 217 216 215
f 216 217 218
f 221 220 219
f 220 221 222
f 218 213 216
f 213 218 214
f 219 212 221
f 212 219 211
f 217 220 222
f 220 217 215
f 223 217 222
f 217 223 224
f 214 225 212
f 225 214 226
f 224 218 217
f 218 224 227
f 228 222 221
f 222 228 223
f 227 214 218
f 214 227 226
f 212 228 221
f 228 212 225
f 231 230 229
f 230 231 232
f 235 234 233
f 234 235 236
f 234 230 233
f 230 234 229
f 235 230 232
f 230 235 233
f 231 235 232
f 235 231 236
f 234 231 229
f 231 234 236
f 239 238 237
f 238 239 240
f 243 242 241
f 242 243 244
f 242 238 241
f 238 242 237
f 243 238 240
f 238 243 241
f 239 243 240
f 243 239 244
f 242 239 237
f 239 242 244
f 3 2 1
f 2 3 4
f 2 4 5
f 5 4 6
f 9 8 7
f 8 9 10
f 7 11 9
f 11 7 12
f 15 14 13
f 14 15 16
f 15 11 12
f 11 15 13
f 16 17 14
f 17 16 18
f 17 8 10
f 8 17 18
f 2 18 16
f 18 2 5
f 8 4 7
f 4 8 6
f 2 15 1
f 15 2 16
f 8 5 6
f 5 8 18
f 3 15 12
f 15 3 1
f 4 12 7
f 12 4 3
f 21 20 19
f 20 21 22
f 20 22 23
f 23 22 24
f 27 26 25
f 26 27 28
f 25 29 27
f 29 25 30
f 33 32 31
f 32 33 34
f 33 29 30
f 29 33 31
f 34 35 32
f 35 34 36
f 35 26 28
f 26 35 36
f 20 36 34
f 36 20 23
f 26 22 25
f 22 26 24
f 20 33 19
f 33 20 34
f 26 23 24
f 23 26 36
f 21 33 30
f 33 21 19
f 22 30 25
f 30 22 21
f 39 38 37
f 38 39 40
f 38 40 41
f 41 40 42
f 45 44 43
f 44 45 46
f 43 47 45
f 47 43 48
f 51 50 49
f 50 51 52
f 51 47 48
f 47 51 49
f 52 53 50
f 53 52 54
f 53 44 46
f 44 53 54
f 38 54 52
f 54 38 41
f 44 40 43
f 40 44 42
f 38 51 37
f 51 38 52
f 44 41 42
f 41 44 54
f 39 51 48
f 51 39 37
f 40 48 43
f 48 40 39
f 57 56 55
f 56 57 58
f 56 58 59
f 59 58 60
f 63 62 61
f 62 63 64
f 61 65 63
f 65 61 66
f 69 68 67
f 68 69 70
f 69 65 66
f 65 69 67
f 70 71 68
f 71 70 72
f 71 62 64
f 62 71 72
f 56 72 70
f 72 56 59
f 62 58 61
f 58 62 60
f 56 69 55
f 69 56 70
f 62 59 60
f 59 62 72
f 57 69 66
f 69 57 55
f 58 66 61
f 66 58 57
f 75 74 73
f 74 75 76
f 74 76 77
f 77 76 78
f 75 80 79
f 80 75 73
f 81 77 78
f 77 81 82
f 74 80 73
f 80 74 83
f 74 82 83
f 82 74 77
f 76 79 84
f 79 76 75
f 81 76 84
f 76 81 78
f 87 86 85
f 86 87 88
f 86 88 89
f 89 88 90
f 80 87 85
f 87 80 83
f 83 88 87
f 88 83 82
f 84 86 89
f 86 84 79
f 80 86 79
f 86 80 85
f 88 81 90
f 81 88 82
f 89 81 84
f 81 89 90
f 93 92 91
f 92 93 94
f 92 94 95
f 95 94 96
f 93 98 97
f 98 93 91
f 99 95 96
f 95 99 100
f 92 98 91
f 98 92 101
f 92 100 101
f 100 92 95
f 94 97 102
f 97 94 93
f 99 94 102
f 94 99 96
f 105 104 103
f 104 105 106
f 104 106 107
f 107 106 108
f 98 105 103
f 105 98 101
f 101 106 105
f 106 101 100
f 102 104 107
f 104 102 97
f 98 104 97
f 104 98 103
f 106 99 108
f 99 106 100
f 107 99 102
f 99 107 108
f 111 110 109
f 110 111 112
f 110 112 113
f 113 112 114
f 111 116 115
f 116 111 109
f 117 113 114
f 113 117 118
f 110 116 109
f 116 110 119
f 110 118 119
f 118 110 113
f 112 115 120
f 115 112 111
f 117 112 120
f 112 117 114
f 123 122 121
f 122 123 124
f 122 124 125
f 125 124 126
f 116 123 121
f 123 116 119
f 119 124 123
f 124 119 118
f 120 122 125
f 122 120 115
f 116 122 115
f 122 116 121
f 124 117 126
f 117 124 118
f 125 117 120
f 117 125 126
f 129 128 127
f 128 129 130
f 128 130 131
f 131 130 132
f 129 134 133
f 134 129 127
f 135 131 132
f 131 135 136
f 128 134 127
f 134 128 137
f 128 136 137
f 136 128 131
f 130 133 138
f 133 130 129
f 135 130 138
f 130 135 132
f 141 140 139
f 140 141 142
f 140 142 143
f 143 142 144
f 134 141 139
f 141 134 137
f 137 142 141
f 142 137 136
f 138 140 143
f 140 138 133
f 134 140 133
f 140 134 139
f 142 135 144
f 135 142 136
f 143 135 138
f 135 143 144
f 147 146 145
f 146 147 148
f 151 150 149
f 150 151 152
f 150 154 153
f 154 150 152
f 151 156 155
f 156 151 149
f 149 146 156
f 146 149 145
f 145 149 150
f 145 150 153
f 148 151 155
f 151 148 147
f 151 147 152
f 152 147 154
f 155 146 148
f 146 155 156
f 153 147 145
f 147 153 154
f 159 158 157
f 158 159 160
f 163 162 161
f 162 163 164
f 167 166 165
f 166 167 168
f 164 159 162
f 159 164 160
f 165 158 167
f 158 165 157
f 163 166 168
f 166 163 161
f 169 163 168
f 163 169 170
f 160 171 158
f 171 160 172
f 170 164 163
f 164 170 173
f 174 168 167
f 168 174 169
f 173 160 164
f 160 173 172
f 158 174 167
f 174 158 171
f 177 176 175
f 176 177 178
f 181 180 179
f 180 181 182
f 185 184 183
f 184 185 186
f 182 177 180
f 177 182 178
f 183 176 185
f 176 183 175
f 181 184 186
f 184 181 179
f 187 181 186
f 181 187 188
f 178 189 176
f 189 178 190
f 188 182 181
f 182 188 191
f 192 186 185
f 186 192 187
f 191 178 182
f 178 191 190
f 176 192 185
f 192 176 189
f 195 194 193
f 194 195 196
f 199 198 197
f 198 199 200
f 203 202 201
f 202 203 204
f 200 195 198
f 195 200 196
f 201 194 203
f 194 201 193
f 199 202 204
f 202 199 197
f 205 199 204
f 199 205 206
f 196 207 194
f 207 196 208
f 206 200 199
f 200 206 209
f 210 204 203
f 204 210 205
f 209 196 200
f 196 209 208
f 194 210 203
f 210 194 207
f 213 212 211
f 212 213 214
f 217 216 215
f 216 217 218
f 221 220 219
f 220 221 222
f 218 213 216
f 213 218 214
f 219 212 221
f 212 219 211
f 217 220 222
f 220 217 215
f 223 217 222
f 217 223 224
f 214 225 212
f 225 214 226
f 224 218 217
f 218 224 227
f 228 222 221
f 222 228 223
f 227 214 218
f 214 227 226
f 212 228 221
f 228 212 225
f 231 230 229
f 230 231 232
f 235 234 233
f 234 235 236
f 234 230 233
f 230 234 229
f 235 230 232
f 230 235 233
f 231 235 232
f 235 231 236
f 234 231 229
f 231 234 236
f 239 238 237
f 238 239 240
f 243 242 241
f 242 243 244
f 242 238 241
f 238 242 237
f 243 238 240
f 238 243 241
f 239 243 240
f 243 239 244
f 242 239 237
f 239 242 244
