# City room prop — voxel footprint 2x2x2 (0.5 m cells)
o kitchenStoveElectric
v 1.914894 1.954894 1.829787
v 1.914894 1.954894 1.957447
v 0.085106 1.954894 1.829787
v 0.085106 1.954894 1.957447
v 1.914894 1.699574 1.957447
v 0.085106 1.699574 1.957447
v 1.914894 1.827234 1.829787
v 1.914894 1.699574 0.127660
v 1.914894 1.699574 0.042553
v 1.914894 1.827234 0.042553
v 0.085106 1.699574 0.042553
v 0.085106 1.827234 0.042553
v 0.085106 1.699574 0.127660
v 0.085106 1.827234 1.829787
v 1.786266 1.827234 0.255319
v 0.213734 1.827234 0.255319
v 0.213734 1.827234 1.778300
v 1.786266 1.827234 1.778300
v 1.800663 0.402068 0.127660
v 0.392281 0.581960 0.127660
v 0.199337 0.402068 0.127660
v 0.199337 1.585344 0.127660
v 0.392281 1.267650 0.127660
v 0.392281 1.372578 0.127660
v 1.626324 1.267650 0.127660
v 0.392281 1.457684 0.127660
v 1.626324 1.457684 0.127660
v 1.626324 0.581960 0.127660
v 1.800663 1.585344 0.127660
v 1.626324 1.372578 0.127660
v 1.626324 1.372578 0.042553
v 0.392281 1.372578 0.042553
v 1.800663 0.402068 0.212766
v 1.800663 1.585344 0.212766
v 1.626324 0.581960 0.212766
v 0.392281 0.581960 0.212766
v 0.199337 0.402068 0.212766
v 1.626324 1.267650 0.212766
v 0.392281 1.267650 0.212766
v 0.199337 1.585344 0.212766
v 0.392281 1.415131 0.042553
v 0.392281 1.457684 0.085106
v 1.626324 1.415131 0.042553
v 1.626324 1.457684 0.085106
v 1.914894 0.040000 1.957447
v 1.914894 0.040000 0.212766
v 0.085106 0.040000 1.957447
v 0.085106 0.040000 0.212766
v 1.914894 0.287838 0.212766
v 1.914894 0.287838 0.127660
v 0.085106 0.287838 0.212766
v 0.085106 0.287838 0.127660
v 1.800663 0.402068 1.744681
v 0.199337 0.402068 1.744681
v 1.800663 1.585344 1.744681
v 0.199337 1.585344 1.744681
v 0.342576 0.908600 1.744681
v 0.199337 0.993706 1.744681
v 0.342576 0.993706 1.744681
v 1.657424 0.908600 1.744681
v 1.800663 0.993706 1.744681
v 1.657424 0.993706 1.744681
v 0.260543 1.848511 0.517306
v 0.260543 1.848511 1.726951
v 0.260543 1.848511 0.302128
v 1.739457 1.848511 1.726951
v 1.739457 1.848511 0.302128
v 1.739457 1.848511 0.517306
v 0.342576 0.993706 0.297872
v 0.199337 0.993706 0.297872
v 0.199337 1.059332 1.744681
v 0.408202 1.059332 1.744681
v 1.591799 1.059332 1.744681
v 1.800663 1.059332 1.744681
v 1.591799 0.974226 1.744681
v 0.408202 0.974226 1.744681
v 0.408202 1.059332 0.297872
v 0.199337 1.059332 0.297872
v 0.408202 0.974226 0.297872
v 1.591799 0.974226 0.297872
v 1.591799 1.059332 0.297872
v 1.800663 1.059332 0.297872
v 1.800663 0.993706 0.297872
v 1.657424 0.993706 0.297872
v 1.657424 0.908600 0.297872
v 0.342576 0.908600 0.297872
v 0.795213 1.848511 0.407447
v 0.765957 1.848511 0.458119
v 0.765957 1.848511 0.356775
v 0.707447 1.848511 0.356775
v 0.707447 1.848511 0.458119
v 0.678191 1.848511 0.407447
v 0.502660 1.848511 0.407447
v 0.473404 1.848511 0.458119
v 0.473404 1.848511 0.356775
v 0.414894 1.848511 0.356775
v 0.414894 1.848511 0.458119
v 0.385638 1.848511 0.407447
v 1.046809 1.848511 0.407447
v 1.023404 1.848511 0.447984
v 1.023404 1.848511 0.366909
v 0.976596 1.848511 0.447984
v 0.976596 1.848511 0.366909
v 0.953191 1.848511 0.407447
v 1.321809 1.848511 0.407447
v 1.292553 1.848511 0.458119
v 1.292553 1.848511 0.356775
v 1.234043 1.848511 0.356775
v 1.234043 1.848511 0.458119
v 1.204787 1.848511 0.407447
v 1.614362 1.848511 0.407447
v 1.585106 1.848511 0.458119
v 1.585106 1.848511 0.356775
v 1.526596 1.848511 0.356775
v 1.526596 1.848511 0.458119
v 1.497340 1.848511 0.407447
v 1.589447 1.848511 0.830442
v 1.464936 1.848511 0.614783
v 1.215915 1.848511 0.614783
v 0.784085 1.848511 0.614783
v 1.091404 1.848511 0.830442
v 0.908596 1.848511 0.830442
v 1.091404 1.848511 1.383633
v 0.535064 1.848511 0.614783
v 0.410553 1.848511 0.830442
v 0.410553 1.848511 1.383633
v 1.589447 1.848511 1.383633
v 1.464936 1.848511 1.599292
v 1.215915 1.848511 1.599292
v 0.784085 1.848511 1.599292
v 0.908596 1.848511 1.383633
v 0.535064 1.848511 1.599292
v 0.784085 1.848511 1.046100
v 0.784085 1.848511 1.167974
v 0.535064 1.848511 1.046100
v 0.535064 1.848511 1.167974
v 1.464936 1.848511 1.046100
v 1.464936 1.848511 1.167974
v 1.215915 1.848511 1.046100
v 1.215915 1.848511 1.167974
v 1.517561 1.848511 1.383633
v 1.428993 1.848511 1.537037
v 1.428993 1.848511 1.230230
v 1.251858 1.848511 1.230230
v 1.251858 1.848511 1.537037
v 1.163291 1.848511 1.383633
v 0.836709 1.848511 1.383633
v 0.748142 1.848511 1.537037
v 0.748142 1.848511 1.230230
v 0.571007 1.848511 1.230230
v 0.571007 1.848511 1.537037
v 0.482440 1.848511 1.383633
v 0.836709 1.848511 0.830442
v 0.748142 1.848511 0.983845
v 0.748142 1.848511 0.677038
v 0.571007 1.848511 0.677038
v 0.571007 1.848511 0.983845
v 0.482440 1.848511 0.830442
v 1.517561 1.848511 0.830442
v 1.428993 1.848511 0.983845
v 1.428993 1.848511 0.677038
v 1.251858 1.848511 0.677038
v 1.251858 1.848511 0.983845
v 1.163291 1.848511 0.830442
f 2 1 3
f 3 4 2
f 6 5 2
f 2 4 6
f 7 1 2
f 7 2 5
f 7 5 8
f 7 8 9
f 9 10 7
f 12 11 13
f 13 14 12
f 13 6 14
f 6 3 14
f 6 4 3
f 7 14 3
f 3 1 7
f 15 7 10
f 10 12 15
f 12 16 15
f 12 17 16
f 7 15 18
f 18 14 7
f 18 17 14
f 17 12 14
f 9 11 12
f 12 10 9
f 9 8 13
f 13 11 9
f 20 19 21
f 21 22 20
f 22 23 20
f 22 24 23
f 24 25 23
f 22 26 24
f 22 27 26
f 19 20 28
f 28 29 19
f 28 25 29
f 27 22 29
f 25 30 29
f 25 24 30
f 30 27 29
f 31 30 24
f 24 32 31
f 29 19 33
f 33 34 29
f 35 28 20
f 20 36 35
f 35 37 33
f 33 34 35
f 34 38 35
f 34 39 38
f 37 35 36
f 36 40 37
f 36 39 40
f 39 34 40
f 33 19 21
f 21 37 33
f 29 34 40
f 40 22 29
f 41 32 24
f 24 42 41
f 24 26 42
f 31 43 44
f 44 30 31
f 44 27 30
f 43 41 42
f 42 44 43
f 21 22 40
f 40 37 21
f 25 28 35
f 35 38 25
f 20 23 39
f 39 36 20
f 25 38 39
f 39 23 25
f 27 44 42
f 42 26 27
f 31 32 41
f 41 43 31
f 46 45 47
f 47 48 46
f 50 49 51
f 51 52 50
f 46 48 51
f 51 49 46
f 51 48 47
f 51 47 6
f 51 6 13
f 13 52 51
f 50 8 5
f 5 49 50
f 5 46 49
f 5 45 46
f 5 8 13
f 13 6 5
f 47 45 5
f 5 6 47
f 21 50 52
f 52 13 21
f 13 22 21
f 13 29 22
f 50 21 19
f 19 8 50
f 19 29 8
f 29 13 8
f 53 33 37
f 37 54 53
f 34 55 56
f 56 40 34
f 57 53 54
f 54 58 57
f 58 59 57
f 53 57 60
f 60 61 53
f 60 62 61
f 64 63 65
f 65 16 64
f 16 17 64
f 17 18 66
f 66 64 17
f 18 15 67
f 67 66 18
f 67 68 66
f 67 15 16
f 16 65 67
f 69 59 58
f 58 70 69
f 72 71 56
f 56 73 72
f 56 74 73
f 56 55 74
f 72 73 75
f 75 76 72
f 72 77 78
f 78 71 72
f 79 77 72
f 72 76 79
f 75 80 79
f 79 76 75
f 81 80 75
f 75 73 81
f 74 82 81
f 81 73 74
f 83 61 62
f 62 84 83
f 85 84 62
f 62 60 85
f 85 60 57
f 57 86 85
f 69 86 57
f 57 59 69
f 69 70 78
f 69 78 77
f 69 77 79
f 86 69 79
f 79 85 86
f 85 79 80
f 80 84 85
f 80 81 84
f 81 83 84
f 81 82 83
f 78 37 40
f 40 56 78
f 56 71 78
f 37 78 70
f 70 54 37
f 70 58 54
f 83 34 33
f 33 53 83
f 53 61 83
f 34 83 82
f 82 55 34
f 82 74 55
f 88 87 89
f 89 90 88
f 90 91 88
f 90 92 91
f 94 93 95
f 95 96 94
f 96 97 94
f 96 98 97
f 100 99 101
f 101 102 100
f 101 103 102
f 103 104 102
f 106 105 107
f 107 108 106
f 108 109 106
f 108 110 109
f 112 111 113
f 113 114 112
f 114 115 112
f 114 116 115
f 117 66 68
f 68 118 117
f 68 63 118
f 63 119 118
f 63 120 119
f 120 121 119
f 120 122 121
f 122 123 121
f 63 124 120
f 63 125 124
f 63 126 125
f 66 117 127
f 66 127 128
f 128 64 66
f 126 63 64
f 128 129 64
f 129 130 64
f 129 123 130
f 123 131 130
f 123 122 131
f 130 132 64
f 132 126 64
f 131 122 133
f 133 134 131
f 133 135 134
f 135 136 134
f 135 125 136
f 125 126 136
f 127 117 137
f 137 138 127
f 137 139 138
f 139 140 138
f 139 121 140
f 121 123 140
f 142 141 143
f 143 144 142
f 144 145 142
f 144 146 145
f 148 147 149
f 149 150 148
f 150 151 148
f 150 152 151
f 154 153 155
f 155 156 154
f 156 157 154
f 156 158 157
f 160 159 161
f 161 162 160
f 162 163 160
f 162 164 163
f 113 68 67
f 67 65 113
f 113 111 68
f 65 114 113
f 65 107 114
f 107 116 114
f 107 105 116
f 65 108 107
f 65 101 108
f 101 110 108
f 101 99 110
f 65 103 101
f 65 89 103
f 89 104 103
f 89 87 104
f 65 90 89
f 65 92 90
f 65 95 92
f 95 93 92
f 65 96 95
f 65 98 96
f 65 63 98
f 110 99 100
f 109 100 63
f 109 110 100
f 106 109 63
f 115 106 63
f 112 115 63
f 112 63 68
f 68 111 112
f 115 116 106
f 116 105 106
f 100 102 63
f 102 88 63
f 102 104 88
f 104 87 88
f 88 91 63
f 91 92 63
f 92 94 63
f 92 93 94
f 94 97 63
f 97 98 63
f 36 35 38
f 38 39 36
f 36 38 35
f 38 36 39
f 141 127 138
f 138 143 141
f 138 140 143
f 140 144 143
f 140 146 144
f 140 123 146
f 128 127 141
f 141 142 128
f 142 129 128
f 146 123 129
f 142 145 129
f 145 146 129
f 159 117 118
f 118 161 159
f 118 119 161
f 119 162 161
f 119 164 162
f 119 121 164
f 137 117 159
f 159 160 137
f 160 139 137
f 164 121 139
f 160 163 139
f 163 164 139
f 153 122 120
f 120 155 153
f 120 124 155
f 124 156 155
f 124 158 156
f 124 125 158
f 133 122 153
f 153 154 133
f 154 135 133
f 158 125 135
f 154 157 135
f 157 158 135
f 147 131 134
f 134 149 147
f 134 136 149
f 136 150 149
f 136 152 150
f 136 126 152
f 130 131 147
f 147 148 130
f 148 132 130
f 152 126 132
f 148 151 132
f 151 152 132
