# City room prop — voxel footprint 2x1x1 (0.5 m cells)
o kitchenCabinetUpperLow
v 1.899091 0.040000 0.960000
v 1.899091 0.040000 0.081818
v 0.100909 0.040000 0.960000
v 0.100909 0.040000 0.081818
v 1.899091 0.855455 0.081818
v 1.899091 0.855455 0.960000
v 0.100909 0.855455 0.081818
v 0.100909 0.855455 0.960000
v 0.213167 0.152257 0.081818
v 0.213167 0.743197 0.081818
v 1.786833 0.743197 0.081818
v 1.786833 0.152257 0.081818
v 1.786833 0.152257 0.876364
v 0.213167 0.152257 0.876364
v 1.786833 0.743197 0.876364
v 0.213167 0.743197 0.876364
v 1.786833 0.152258 0.165455
v 0.213167 0.152258 0.165455
v 1.786833 0.743197 0.165455
v 0.213167 0.743197 0.165455
v 0.213167 0.152258 0.081818
v 1.786833 0.152258 0.081818
v 1.701767 0.237324 0.081818
v 0.832727 0.320960 0.081818
v 0.298233 0.237324 0.081818
v 0.298233 0.658131 0.081818
v 0.832727 0.404597 0.081818
v 1.167273 0.404597 0.081818
v 1.167273 0.320960 0.081818
v 1.701767 0.658131 0.081818
v 1.167273 0.404597 0.040000
v 0.832727 0.404597 0.040000
v 0.832727 0.320960 0.040000
v 1.167273 0.320960 0.040000
f 2 1 3
f 3 4 2
f 6 5 7
f 7 8 6
f 2 5 6
f 6 1 2
f 3 1 6
f 6 8 3
f 7 4 3
f 3 8 7
f 9 2 4
f 4 7 9
f 7 10 9
f 7 11 10
f 2 9 12
f 12 5 2
f 12 11 5
f 11 7 5
f 13 12 9
f 9 14 13
f 11 15 16
f 16 10 11
f 13 14 16
f 16 15 13
f 9 10 16
f 16 14 9
f 11 12 13
f 13 15 11
f 18 17 19
f 19 20 18
f 10 21 18
f 18 20 10
f 19 11 10
f 10 20 19
f 22 11 19
f 19 17 22
f 22 17 18
f 18 21 22
f 24 23 25
f 25 26 24
f 26 27 24
f 26 28 27
f 23 24 29
f 29 30 23
f 29 28 30
f 28 26 30
f 25 22 21
f 21 10 25
f 10 26 25
f 10 30 26
f 22 25 23
f 23 11 22
f 23 30 11
f 30 10 11
f 27 28 31
f 31 32 27
f 32 33 24
f 24 27 32
f 34 33 32
f 32 31 34
f 34 31 28
f 28 29 34
f 34 29 24
f 24 33 34
