# City room prop — voxel footprint 2x3x2 (0.5 m cells)
o kitchenFridgeSmall
v 1.914894 0.040000 1.621136
v 1.914894 0.040000 0.591630
v 0.085106 0.040000 1.621136
v 0.085106 0.040000 0.591630
v 1.914894 2.594240 0.506524
v 1.914894 2.594240 1.621136
v 0.085106 2.594240 0.506524
v 0.085106 2.594240 1.621136
v 1.914894 0.295234 0.506524
v 1.914894 0.295234 0.591630
v 1.583280 0.371613 1.621136
v 1.583280 1.468394 1.621136
v 0.416720 1.468394 1.621136
v 0.416720 0.371613 1.621136
v 0.085106 0.295234 0.591630
v 0.085106 0.295234 0.506524
v 0.199337 0.409465 1.485247
v 1.800663 0.409465 1.485247
v 0.199337 2.480009 1.485247
v 1.800663 2.480009 1.485247
v 1.800663 2.480009 0.506524
v 0.199337 2.480009 0.506524
v 1.800663 0.409465 0.506524
v 0.199337 0.409465 0.506524
v 1.800663 0.409465 0.421417
v 0.369550 1.969371 0.421417
v 0.199337 0.409465 0.421417
v 0.199337 2.480009 0.421417
v 0.369550 2.309796 0.421417
v 0.454656 2.309796 0.421417
v 0.454656 1.969371 0.421417
v 1.800663 2.480009 0.421417
v 1.800663 2.480009 0.634183
v 0.199337 2.480009 0.634183
v 0.199337 0.409465 0.634183
v 1.626324 0.583804 0.634183
v 1.800663 0.409465 0.634183
v 1.626324 0.892447 0.634183
v 1.626324 1.103409 0.634183
v 1.626324 1.615851 0.634183
v 1.626324 1.826814 0.634183
v 1.626324 2.305670 0.634183
v 0.373676 2.305670 0.634183
v 0.373676 0.583804 0.634183
v 0.373676 0.892447 0.634183
v 0.373676 1.103409 0.634183
v 0.373676 1.615851 0.634183
v 0.373676 1.826814 0.634183
v 1.626324 0.583804 0.549077
v 0.373676 0.583804 0.549077
v 0.373676 0.892447 0.549077
v 0.373676 1.615851 0.549077
v 0.373676 2.305670 0.549077
v 1.626324 2.305670 0.549077
v 1.626324 0.892447 0.549077
v 1.626324 1.615851 0.549077
v 1.626324 0.892447 0.804396
v 0.373676 0.892447 0.804396
v 1.626324 1.103409 0.804396
v 0.373676 1.103409 0.804396
v 0.373676 1.615851 0.804396
v 0.373676 1.826814 0.804396
v 1.626324 1.615851 0.804396
v 1.626324 1.826814 0.804396
v 0.369550 1.969371 0.378864
v 0.454656 1.969371 0.378864
v 0.369550 2.309796 0.378864
v 0.454656 2.309796 0.378864
f 2 1 3
f 3 4 2
f 6 5 7
f 7 8 6
f 9 5 6
f 6 10 9
f 6 2 10
f 6 1 2
f 11 3 1
f 1 6 11
f 6 12 11
f 6 13 12
f 3 11 14
f 14 8 3
f 14 13 8
f 13 6 8
f 15 4 3
f 15 3 8
f 15 8 7
f 7 16 15
f 2 4 15
f 15 10 2
f 9 10 15
f 15 16 9
f 18 17 19
f 19 20 18
f 21 20 19
f 19 22 21
f 18 23 24
f 24 17 18
f 24 9 16
f 16 7 24
f 7 22 24
f 7 21 22
f 9 24 23
f 23 5 9
f 23 21 5
f 21 7 5
f 24 22 19
f 19 17 24
f 21 23 18
f 18 20 21
f 14 11 12
f 12 13 14
f 26 25 27
f 27 28 26
f 28 29 26
f 28 30 29
f 25 26 31
f 31 32 25
f 31 30 32
f 30 28 32
f 33 32 28
f 28 34 33
f 36 35 37
f 37 33 36
f 33 38 36
f 33 39 38
f 33 40 39
f 33 41 40
f 33 42 41
f 33 43 42
f 35 36 44
f 44 34 35
f 43 33 34
f 44 45 34
f 45 46 34
f 46 47 34
f 47 48 34
f 48 43 34
f 25 37 35
f 35 27 25
f 25 32 33
f 33 37 25
f 28 27 35
f 35 34 28
f 36 49 50
f 50 44 36
f 50 51 45
f 45 44 50
f 47 45 51
f 51 52 47
f 47 46 45
f 43 47 52
f 52 53 43
f 43 48 47
f 54 42 43
f 43 53 54
f 50 49 55
f 55 51 50
f 51 55 56
f 56 52 51
f 52 56 54
f 54 53 52
f 55 49 36
f 36 38 55
f 56 55 38
f 38 40 56
f 54 56 40
f 40 42 54
f 40 41 42
f 38 39 40
f 58 57 59
f 59 60 58
f 58 59 57
f 59 58 60
f 38 57 58
f 58 55 38
f 58 51 55
f 58 45 51
f 38 58 57
f 58 38 55
f 58 55 51
f 58 51 45
f 38 39 59
f 59 57 38
f 38 59 39
f 59 38 57
f 46 45 58
f 58 60 46
f 46 58 45
f 58 46 60
f 48 47 61
f 61 62 48
f 48 61 47
f 61 48 62
f 61 63 64
f 64 62 61
f 61 64 63
f 64 61 62
f 40 63 61
f 61 56 40
f 61 52 56
f 61 47 52
f 40 61 63
f 61 40 56
f 61 56 52
f 61 52 47
f 40 41 64
f 64 63 40
f 40 64 41
f 64 40 63
f 66 65 67
f 67 68 66
f 67 65 26
f 26 29 67
f 66 31 26
f 26 65 66
f 30 68 67
f 67 29 30
f 31 66 68
f 68 30 31
