# City room prop — unit cell 0..1
o kitchenSink
v 0.154408 0.206280 0.123469
v 0.154408 0.486303 0.160204
v 0.154408 0.717021 0.123469
v 0.154408 0.717021 0.821429
v 0.154408 0.486303 0.821429
v 0.154408 0.436998 0.160204
v 0.154408 0.206280 0.821429
v 0.154408 0.436998 0.821429
v 0.105102 0.050000 0.160204
v 0.894898 0.050000 0.160204
v 0.105102 0.156975 0.160204
v 0.894898 0.156975 0.160204
v 0.105102 0.050000 0.913265
v 0.105102 0.766327 0.913265
v 0.105102 0.766327 0.123469
v 0.105102 0.156975 0.123469
v 0.845592 0.206280 0.821429
v 0.845592 0.436998 0.821429
v 0.845592 0.486303 0.160204
v 0.845592 0.486303 0.821429
v 0.845592 0.206280 0.123469
v 0.894898 0.050000 0.913265
v 0.894898 0.766327 0.913265
v 0.894898 0.156975 0.123469
v 0.845592 0.436998 0.160204
v 0.845592 0.717021 0.123469
v 0.845592 0.717021 0.821429
v 0.894898 0.766327 0.123469
v 0.796065 0.717021 0.685870
v 0.796065 0.717021 0.259028
v 0.203935 0.717021 0.685870
v 0.203935 0.717021 0.259028
v 0.894898 0.766327 0.086735
v 0.105102 0.766327 0.086735
v 0.105102 0.821429 0.086735
v 0.105102 0.821429 0.858163
v 0.105102 0.876531 0.858163
v 0.105102 0.876531 0.913265
v 0.894898 0.876531 0.913265
v 0.894898 0.876531 0.858163
v 0.894898 0.821429 0.086735
v 0.894898 0.821429 0.858163
v 0.769419 0.637755 0.259028
v 0.769419 0.637755 0.685870
v 0.203935 0.821429 0.685870
v 0.796065 0.821429 0.685870
v 0.230581 0.637755 0.685870
v 0.230581 0.637755 0.259028
v 0.796065 0.821429 0.259028
v 0.203935 0.821429 0.259028
v 0.500000 0.637755 0.417347
v 0.547720 0.637755 0.500000
v 0.547720 0.637755 0.444898
v 0.500000 0.637755 0.527551
v 0.452280 0.637755 0.444898
v 0.452280 0.637755 0.500000
v 0.521651 0.821429 0.751016
v 0.466549 0.821429 0.751016
v 0.466549 0.821429 0.806118
v 0.521651 0.821429 0.806118
v 0.521651 0.933861 0.789979
v 0.466549 0.933861 0.789979
v 0.521651 0.938613 0.784560
v 0.466549 0.938613 0.784560
v 0.521651 0.942618 0.778567
v 0.466549 0.942618 0.778567
v 0.466549 0.858163 0.751016
v 0.466549 0.858163 0.806118
v 0.466549 0.894898 0.585710
v 0.466549 0.902090 0.586182
v 0.466549 0.894898 0.751016
v 0.466549 0.909159 0.587588
v 0.466549 0.915985 0.589905
v 0.466549 0.922449 0.593093
v 0.466549 0.928442 0.597097
v 0.466549 0.933861 0.601849
v 0.466549 0.938613 0.607268
v 0.466549 0.942618 0.613261
v 0.466549 0.945806 0.619726
v 0.466549 0.948122 0.626551
v 0.466549 0.949529 0.633620
v 0.466549 0.950000 0.640812
v 0.466549 0.950000 0.751016
v 0.466549 0.894898 0.806118
v 0.466549 0.949529 0.758209
v 0.466549 0.948122 0.765278
v 0.466549 0.945806 0.772103
v 0.466549 0.928442 0.794732
v 0.466549 0.922449 0.798736
v 0.466549 0.915985 0.801924
v 0.466549 0.909159 0.804241
v 0.466549 0.902090 0.805647
v 0.521651 0.948122 0.765278
v 0.521651 0.949529 0.758209
v 0.521651 0.902090 0.805647
v 0.521651 0.909159 0.804241
v 0.521651 0.945806 0.772103
v 0.521651 0.858163 0.806118
v 0.411447 0.894898 0.806118
v 0.411447 0.858163 0.806118
v 0.576753 0.858163 0.806118
v 0.576753 0.894898 0.806118
v 0.521651 0.894898 0.806118
v 0.521651 0.894898 0.585710
v 0.521651 0.894898 0.751016
v 0.521651 0.950000 0.640812
v 0.521651 0.950000 0.751016
v 0.521651 0.915985 0.801924
v 0.521651 0.922449 0.798736
v 0.521651 0.928442 0.794732
v 0.521651 0.902090 0.586182
v 0.521651 0.909159 0.587588
v 0.521651 0.915985 0.589905
v 0.521651 0.922449 0.593093
v 0.521651 0.928442 0.597097
v 0.521651 0.933861 0.601849
v 0.521651 0.938613 0.607268
v 0.521651 0.942618 0.613261
v 0.521651 0.945806 0.619726
v 0.521651 0.948122 0.626551
v 0.521651 0.949529 0.633620
v 0.411447 0.894898 0.751016
v 0.411447 0.858163 0.751016
v 0.576753 0.858163 0.751016
v 0.576753 0.894898 0.751016
v 0.521651 0.858163 0.751016
v 0.845592 0.206280 0.160204
v 0.154408 0.206280 0.160204
v 0.845592 0.717021 0.160204
v 0.154408 0.717021 0.160204
v 0.845592 0.206280 0.123469
v 0.154408 0.206280 0.123469
v 0.845592 0.717021 0.123469
v 0.154408 0.717021 0.123469
v 0.808230 0.243643 0.123469
v 0.237689 0.606189 0.123469
v 0.191770 0.243643 0.123469
v 0.191770 0.679658 0.123469
v 0.237689 0.642923 0.123469
v 0.384628 0.642923 0.123469
v 0.384628 0.606189 0.123469
v 0.808230 0.679658 0.123469
v 0.237689 0.606189 0.086735
v 0.384628 0.606189 0.086735
v 0.237689 0.624556 0.086735
v 0.384628 0.624556 0.086735
v 0.237689 0.642923 0.105102
v 0.384628 0.642923 0.105102
f 2 1 3
f 3 4 2
f 4 5 2
f 1 2 6
f 6 7 1
f 6 8 7
f 10 9 11
f 11 12 10
f 11 9 13
f 11 13 14
f 11 14 15
f 15 16 11
f 17 7 8
f 8 18 17
f 20 19 2
f 2 5 20
f 17 21 1
f 1 7 17
f 13 22 23
f 23 14 13
f 24 12 11
f 11 16 24
f 25 6 2
f 2 19 25
f 25 18 8
f 8 6 25
f 25 26 21
f 21 17 25
f 17 18 25
f 26 25 19
f 19 27 26
f 19 20 27
f 10 22 13
f 13 9 10
f 20 5 4
f 4 27 20
f 24 28 23
f 23 12 24
f 23 10 12
f 23 22 10
f 1 24 16
f 16 15 1
f 15 3 1
f 15 26 3
f 24 1 21
f 21 28 24
f 21 26 28
f 26 15 28
f 29 26 27
f 27 4 29
f 29 30 26
f 4 31 29
f 4 32 31
f 4 3 32
f 3 26 30
f 30 32 3
f 34 33 28
f 28 15 34
f 35 34 15
f 15 36 35
f 15 14 36
f 14 37 36
f 14 38 37
f 14 23 39
f 39 38 14
f 38 39 40
f 40 37 38
f 33 34 35
f 35 41 33
f 42 40 39
f 42 39 23
f 42 23 28
f 42 28 33
f 33 41 42
f 30 43 44
f 44 29 30
f 30 44 43
f 44 30 29
f 29 31 45
f 45 46 29
f 31 29 44
f 44 47 31
f 42 36 37
f 37 40 42
f 48 43 30
f 30 32 48
f 32 30 49
f 49 50 32
f 48 30 43
f 30 48 32
f 52 51 53
f 51 52 54
f 51 54 55
f 55 54 56
f 48 53 51
f 48 51 55
f 48 55 56
f 43 53 48
f 53 43 44
f 44 52 53
f 52 44 47
f 52 47 54
f 54 47 56
f 56 47 48
f 57 46 45
f 45 58 57
f 45 59 58
f 46 57 60
f 42 46 60
f 60 36 42
f 60 59 36
f 59 45 36
f 42 49 46
f 49 42 41
f 41 35 49
f 45 35 36
f 35 50 49
f 35 45 50
f 44 31 47
f 31 44 29
f 32 50 45
f 45 31 32
f 49 30 29
f 29 46 49
f 48 32 31
f 31 47 48
f 48 31 32
f 31 48 47
f 53 44 43
f 43 48 53
f 48 51 53
f 48 55 51
f 48 56 55
f 44 53 52
f 52 47 44
f 56 48 47
f 52 54 47
f 54 56 47
f 52 53 51
f 51 54 52
f 51 55 54
f 55 56 54
f 62 61 63
f 63 64 62
f 63 65 66
f 66 64 63
f 68 67 58
f 58 59 68
f 70 69 71
f 71 72 70
f 71 73 72
f 71 74 73
f 71 75 74
f 71 76 75
f 71 77 76
f 71 78 77
f 71 79 78
f 71 80 79
f 71 81 80
f 71 82 81
f 71 83 82
f 71 84 83
f 84 85 83
f 84 86 85
f 84 87 86
f 84 66 87
f 84 64 66
f 84 62 64
f 84 88 62
f 84 89 88
f 84 90 89
f 84 91 90
f 84 92 91
f 86 93 94
f 94 85 86
f 91 92 95
f 95 96 91
f 97 93 86
f 86 87 97
f 59 60 98
f 98 68 59
f 68 98 99
f 99 100 68
f 98 101 99
f 101 84 99
f 101 102 84
f 102 103 84
f 69 104 105
f 105 71 69
f 107 106 82
f 82 83 107
f 90 91 96
f 96 108 90
f 88 89 109
f 109 110 88
f 85 94 107
f 107 83 85
f 105 104 111
f 111 112 105
f 112 113 105
f 113 114 105
f 114 115 105
f 115 116 105
f 116 117 105
f 117 118 105
f 118 119 105
f 119 120 105
f 120 121 105
f 121 106 105
f 106 107 105
f 107 94 105
f 94 103 105
f 94 93 103
f 93 97 103
f 97 65 103
f 65 63 103
f 63 61 103
f 61 110 103
f 110 109 103
f 109 108 103
f 108 96 103
f 96 95 103
f 89 90 108
f 108 109 89
f 99 84 71
f 71 122 99
f 122 123 100
f 100 99 122
f 92 84 103
f 103 95 92
f 67 68 100
f 100 123 67
f 66 65 97
f 97 87 66
f 101 124 125
f 125 102 101
f 103 102 125
f 125 105 103
f 124 101 98
f 98 126 124
f 67 123 122
f 122 126 67
f 122 124 126
f 122 105 124
f 105 125 124
f 122 71 105
f 67 126 57
f 57 58 67
f 57 126 98
f 98 60 57
f 62 88 110
f 110 61 62
f 115 114 74
f 74 75 115
f 121 120 80
f 80 81 121
f 114 113 73
f 73 74 114
f 106 121 81
f 81 82 106
f 120 119 79
f 79 80 120
f 119 118 78
f 78 79 119
f 118 117 77
f 77 78 118
f 117 116 76
f 76 77 117
f 116 115 75
f 75 76 116
f 113 112 72
f 72 73 113
f 112 111 70
f 70 72 112
f 104 69 70
f 70 111 104
f 105 103 84
f 84 71 105
f 128 127 129
f 129 130 128
f 131 127 128
f 128 132 131
f 129 133 134
f 134 130 129
f 134 132 128
f 128 130 134
f 131 133 129
f 129 127 131
f 136 135 137
f 137 138 136
f 138 139 136
f 138 140 139
f 135 136 141
f 141 142 135
f 141 140 142
f 140 138 142
f 137 131 132
f 132 134 137
f 134 138 137
f 134 142 138
f 131 137 135
f 135 133 131
f 135 142 133
f 142 134 133
f 144 143 145
f 145 146 144
f 144 141 136
f 136 143 144
f 145 143 136
f 136 147 145
f 136 139 147
f 140 148 147
f 147 139 140
f 144 146 148
f 148 141 144
f 148 140 141
f 146 145 147
f 147 148 146
