# City room prop — voxel footprint 2x2x1 (0.5 m cells)
o kitchenCabinetUpper
v 1.899091 0.040000 0.960000
v 1.899091 0.040000 0.081818
v 0.100909 0.040000 0.960000
v 0.100909 0.040000 0.081818
v 1.899091 1.670909 0.081818
v 1.899091 1.670909 0.960000
v 0.100909 1.670909 0.081818
v 0.100909 1.670909 0.960000
v 0.213167 0.152257 0.081818
v 0.213167 1.558652 0.081818
v 1.786833 1.558652 0.081818
v 1.786833 0.152257 0.081818
v 0.213167 0.911583 0.876364
v 1.786833 0.911583 0.876364
v 0.213167 1.558652 0.876364
v 1.786833 1.558652 0.876364
v 1.786833 0.152257 0.876364
v 0.213167 0.152257 0.876364
v 1.786833 0.799326 0.876364
v 1.786833 0.799326 0.165455
v 0.213167 0.799326 0.876364
v 0.213167 0.799326 0.165455
v 1.786833 0.911583 0.165455
v 0.213167 0.911583 0.165455
v 1.786833 0.152257 0.165455
v 0.213167 0.152257 0.165455
v 1.786833 1.558652 0.165455
v 0.213167 1.558652 0.165455
v 1.701767 0.237324 0.081818
v 0.381869 0.320960 0.081818
v 0.298233 0.237324 0.081818
v 0.298233 1.473585 0.081818
v 0.381869 0.404596 0.081818
v 0.716415 0.404596 0.081818
v 0.716415 0.320960 0.081818
v 1.701767 1.473585 0.081818
v 0.716415 0.404596 0.040000
v 0.381869 0.404596 0.040000
v 0.381869 0.320960 0.040000
v 0.716415 0.320960 0.040000
f 2 1 3
f 3 4 2
f 6 5 7
f 7 8 6
f 2 5 6
f 6 1 2
f 3 1 6
f 6 8 3
f 7 4 3
f 3 8 7
f 9 2 4
f 4 7 9
f 7 10 9
f 7 11 10
f 2 9 12
f 12 5 2
f 12 11 5
f 11 7 5
f 14 13 15
f 15 16 14
f 17 12 9
f 9 18 17
f 11 16 15
f 15 10 11
f 20 19 21
f 21 22 20
f 14 23 24
f 24 13 14
f 17 18 21
f 21 19 17
f 20 22 24
f 24 23 20
f 22 18 9
f 9 24 22
f 22 21 18
f 24 9 10
f 10 15 24
f 15 13 24
f 23 16 11
f 11 20 23
f 23 14 16
f 20 11 12
f 12 17 20
f 17 19 20
f 26 25 27
f 27 28 26
f 10 9 26
f 26 28 10
f 27 11 10
f 10 28 27
f 12 11 27
f 27 25 12
f 12 25 26
f 26 9 12
f 30 29 31
f 31 32 30
f 32 33 30
f 32 34 33
f 29 30 35
f 35 36 29
f 35 34 36
f 34 32 36
f 31 12 9
f 9 10 31
f 10 32 31
f 10 36 32
f 12 31 29
f 29 11 12
f 29 36 11
f 36 10 11
f 33 34 37
f 37 38 33
f 38 39 30
f 30 33 38
f 40 37 34
f 34 35 40
f 40 39 38
f 38 37 40
f 40 35 30
f 30 39 40
