# City room prop — voxel footprint 2x2x2 (0.5 m cells)
o kitchenCabinetDrawer1
v 1.914894 1.954894 1.829787
v 1.914894 1.954894 1.957447
v 0.085106 1.954894 1.829787
v 0.085106 1.954894 1.957447
v 1.914894 1.699574 1.957447
v 0.085106 1.699574 1.957447
v 1.914894 1.699574 0.127660
v 1.914894 1.699574 0.042553
v 0.085106 1.699574 0.127660
v 0.085106 1.699574 0.042553
v 1.914894 1.827234 1.829787
v 1.914894 1.827234 0.042553
v 0.085106 1.827234 0.042553
v 0.085106 1.827234 1.829787
v 1.914894 0.040000 1.957447
v 1.914894 0.040000 0.212766
v 0.085106 0.040000 1.957447
v 0.085106 0.040000 0.212766
v 1.800663 1.221034 0.212766
v 1.800663 1.221034 1.744681
v 0.199337 1.221034 0.212766
v 0.199337 1.221034 1.744681
v 1.800663 0.402068 0.127660
v 1.800663 0.402068 1.744681
v 0.199337 0.402068 0.127660
v 0.199337 0.402068 1.744681
v 1.800663 1.585344 1.744681
v 1.800663 1.585344 0.127660
v 0.199337 1.585344 1.744681
v 0.199337 1.585344 0.127660
v 1.914894 0.287838 0.212766
v 1.914894 0.287838 0.127660
v 0.085106 0.287838 0.212766
v 0.085106 0.287838 0.127660
v 0.199337 1.221034 0.127660
v 0.199337 1.106803 0.212766
v 0.199337 1.106803 1.744681
v 1.800663 1.106803 1.744681
v 1.800663 1.106803 0.212766
v 1.800663 1.221034 0.127660
v 1.800663 0.402068 0.212766
v 0.199337 0.402068 0.212766
v 1.800663 0.402068 0.127660
v 0.199337 0.402068 0.127660
v 1.800663 1.221034 0.127660
v 0.199337 1.221034 0.127660
v 1.714102 0.488630 0.127660
v 0.392281 0.964260 0.127660
v 0.285898 0.488630 0.127660
v 0.285898 1.134473 0.127660
v 0.392281 1.049366 0.127660
v 0.732707 1.049366 0.127660
v 0.732707 0.964260 0.127660
v 1.714102 1.134473 0.127660
v 0.392281 0.964260 0.042553
v 0.732707 0.964260 0.042553
v 0.392281 1.006813 0.042553
v 0.732707 1.006813 0.042553
v 0.392281 1.049366 0.085106
v 0.732707 1.049366 0.085106
v 0.285898 1.307595 0.127660
v 0.199337 1.585344 0.127660
v 0.285898 1.498782 0.127660
v 1.714102 1.498782 0.127660
v 1.714102 1.307595 0.127660
v 1.800663 1.585344 0.127660
v 1.800663 1.585344 1.744681
v 0.199337 1.585344 1.744681
v 1.714102 1.585344 0.214221
v 0.285898 1.585344 0.214221
v 0.285898 1.585344 1.658120
v 1.714102 1.585344 1.658120
v 0.829787 1.360636 0.127660
v 0.829787 1.445742 0.127660
v 1.170213 1.445742 0.127660
v 1.170213 1.360636 0.127660
v 1.714102 1.287471 0.214221
v 1.714102 1.287471 1.658120
v 0.285898 1.287471 0.214221
v 0.285898 1.287471 1.658120
v 0.829787 1.403189 0.042553
v 1.170213 1.403189 0.042553
v 0.829787 1.445742 0.085106
v 1.170213 1.445742 0.085106
v 0.829787 1.360636 0.042553
v 1.170213 1.360636 0.042553
f 2 1 3
f 3 4 2
f 6 5 2
f 2 4 6
f 8 7 9
f 9 10 8
f 11 1 2
f 11 2 5
f 11 5 7
f 11 7 8
f 8 12 11
f 13 10 9
f 9 14 13
f 9 6 14
f 6 3 14
f 6 4 3
f 8 10 13
f 13 12 8
f 11 14 3
f 3 1 11
f 11 12 13
f 13 14 11
f 16 15 17
f 17 18 16
f 20 19 21
f 21 22 20
f 24 23 25
f 25 26 24
f 28 27 29
f 29 30 28
f 32 31 33
f 33 34 32
f 35 30 29
f 29 21 35
f 21 25 35
f 29 22 21
f 25 21 36
f 36 26 25
f 36 37 26
f 16 18 33
f 33 31 16
f 33 18 17
f 33 17 6
f 33 6 9
f 9 34 33
f 32 7 5
f 5 31 32
f 5 16 31
f 5 15 16
f 24 26 37
f 37 38 24
f 5 7 9
f 9 6 5
f 17 15 5
f 5 6 17
f 39 38 37
f 37 36 39
f 39 36 21
f 21 19 39
f 39 40 23
f 23 24 39
f 39 28 40
f 24 38 39
f 28 39 19
f 19 27 28
f 19 20 27
f 25 32 34
f 34 9 25
f 9 35 25
f 9 30 35
f 9 28 30
f 32 25 23
f 23 7 32
f 28 9 7
f 23 40 7
f 40 28 7
f 20 22 29
f 29 27 20
f 42 41 19
f 19 21 42
f 43 41 42
f 42 44 43
f 19 45 46
f 46 21 19
f 46 44 42
f 42 21 46
f 43 45 19
f 19 41 43
f 48 47 49
f 49 50 48
f 50 51 48
f 50 52 51
f 47 48 53
f 53 54 47
f 53 52 54
f 52 50 54
f 49 43 44
f 44 46 49
f 46 50 49
f 46 54 50
f 43 49 47
f 47 45 43
f 47 54 45
f 54 46 45
f 56 55 57
f 57 58 56
f 56 53 48
f 48 55 56
f 57 55 48
f 48 59 57
f 48 51 59
f 52 60 59
f 59 51 52
f 56 58 60
f 60 53 56
f 60 52 53
f 58 57 59
f 59 60 58
f 61 40 35
f 35 62 61
f 62 63 61
f 62 64 63
f 40 61 65
f 65 66 40
f 65 64 66
f 64 62 66
f 22 20 67
f 67 68 22
f 69 67 66
f 66 62 69
f 62 70 69
f 62 71 70
f 67 69 72
f 72 68 67
f 72 71 68
f 71 62 68
f 40 66 67
f 67 20 40
f 40 20 22
f 22 35 40
f 62 35 22
f 22 68 62
f 73 65 61
f 61 63 73
f 63 74 73
f 63 75 74
f 65 73 76
f 76 64 65
f 76 75 64
f 75 63 64
f 78 77 79
f 79 80 78
f 79 70 71
f 71 80 79
f 78 80 71
f 71 72 78
f 69 77 78
f 78 72 69
f 79 77 69
f 69 70 79
f 82 81 83
f 83 84 82
f 81 85 73
f 73 83 81
f 73 74 83
f 75 84 83
f 83 74 75
f 86 85 81
f 81 82 86
f 86 76 73
f 73 85 86
f 86 82 84
f 84 76 86
f 84 75 76
