# City room prop — unit cell 0..1
o kitchenBar
v 0.950000 0.050000 0.636047
v 0.950000 0.050000 0.363953
v 0.050000 0.050000 0.636047
v 0.050000 0.050000 0.363953
v 0.050000 0.171902 0.363953
v 0.950000 0.171902 0.363953
v 0.050000 0.171902 0.636047
v 0.050000 0.866279 0.677907
v 0.050000 0.866279 0.322093
v 0.050000 0.171902 0.322093
v 0.050000 0.171902 0.677907
v 0.950000 0.866279 0.322093
v 0.950000 0.171902 0.322093
v 0.950000 0.866279 0.677907
v 0.950000 0.171902 0.636047
v 0.950000 0.171902 0.677907
v 0.106186 0.228087 0.322093
v 0.106186 0.810094 0.322093
v 0.893815 0.810094 0.322093
v 0.893815 0.228087 0.322093
v 0.893815 0.228087 0.677907
v 0.893815 0.810094 0.677907
v 0.106186 0.810094 0.677907
v 0.106186 0.228087 0.677907
v 0.148762 0.270663 0.322093
v 0.851238 0.270663 0.322093
v 0.148762 0.767517 0.322093
v 0.851238 0.767517 0.322093
v 0.851238 0.270663 0.677907
v 0.148762 0.270663 0.677907
v 0.851238 0.767517 0.677907
v 0.148762 0.767517 0.677907
v 0.950000 0.929070 0.280233
v 0.950000 0.866279 0.280233
v 0.950000 0.929070 0.719767
v 0.950000 0.866279 0.719767
v 0.050000 0.866279 0.280233
v 0.050000 0.929070 0.280233
v 0.050000 0.929070 0.719767
v 0.050000 0.866279 0.719767
f 2 1 3
f 3 4 2
f 2 4 5
f 5 6 2
f 5 4 3
f 5 3 7
f 5 7 8
f 5 8 9
f 9 10 5
f 7 11 8
f 13 12 14
f 14 6 13
f 14 2 6
f 14 15 2
f 14 16 15
f 2 15 1
f 17 13 10
f 10 9 17
f 9 18 17
f 9 19 18
f 13 17 20
f 20 12 13
f 20 19 12
f 19 9 12
f 13 6 5
f 5 10 13
f 3 1 15
f 15 7 3
f 15 16 11
f 11 7 15
f 21 11 16
f 16 14 21
f 14 22 21
f 14 23 22
f 11 21 24
f 24 8 11
f 24 23 8
f 23 14 8
f 26 25 27
f 27 28 26
f 30 29 31
f 31 32 30
f 34 33 35
f 35 12 34
f 35 14 12
f 35 36 14
f 38 37 9
f 9 39 38
f 9 8 39
f 8 40 39
f 34 37 38
f 38 33 34
f 35 33 38
f 38 39 35
f 34 12 9
f 9 37 34
f 40 36 35
f 35 39 40
f 14 36 40
f 40 8 14
f 25 20 17
f 17 18 25
f 18 27 25
f 18 28 27
f 20 25 26
f 26 19 20
f 26 28 19
f 28 18 19
f 29 24 21
f 21 22 29
f 22 31 29
f 22 32 31
f 24 29 30
f 30 23 24
f 30 32 23
f 32 22 23
