# City room prop — unit cell 0..1
o kitchenMicrowave
v 0.278836 0.546637 0.174138
v 0.278836 0.111984 0.174138
v 0.278836 0.546637 0.670690
v 0.278836 0.111984 0.670690
v 0.888016 0.546637 0.670690
v 0.888016 0.546637 0.174138
v 0.888016 0.111984 0.670690
v 0.744686 0.111984 0.329310
v 0.888016 0.111984 0.174138
v 0.715095 0.111984 0.290746
v 0.676530 0.111984 0.261154
v 0.631620 0.111984 0.242552
v 0.763288 0.111984 0.374220
v 0.769633 0.111984 0.422414
v 0.583426 0.111984 0.236207
v 0.535233 0.111984 0.242552
v 0.490323 0.111984 0.261154
v 0.451758 0.111984 0.290746
v 0.422166 0.111984 0.329310
v 0.403564 0.111984 0.374220
v 0.397219 0.111984 0.422414
v 0.763288 0.111984 0.470608
v 0.403564 0.111984 0.470608
v 0.422166 0.111984 0.515517
v 0.451758 0.111984 0.554082
v 0.490323 0.111984 0.583674
v 0.535233 0.111984 0.602276
v 0.583426 0.111984 0.608621
v 0.631620 0.111984 0.602276
v 0.676530 0.111984 0.583674
v 0.715095 0.111984 0.554082
v 0.744686 0.111984 0.515517
v 0.050000 0.050000 0.205172
v 0.216853 0.050000 0.205172
v 0.050000 0.495944 0.205172
v 0.216853 0.495944 0.205172
v 0.050000 0.050000 0.794828
v 0.869036 0.130964 0.794828
v 0.950000 0.050000 0.794828
v 0.950000 0.608621 0.794828
v 0.869036 0.527657 0.794828
v 0.130964 0.527657 0.794828
v 0.130964 0.130964 0.794828
v 0.050000 0.608621 0.794828
v 0.835823 0.509806 0.856897
v 0.835823 0.148815 0.856897
v 0.164177 0.148815 0.856897
v 0.164177 0.509806 0.856897
v 0.216853 0.050000 0.174138
v 0.216853 0.608621 0.174138
v 0.216853 0.608621 0.205172
v 0.950000 0.050000 0.174138
v 0.950000 0.608621 0.174138
v 0.050000 0.608621 0.205172
v 0.888016 0.546637 0.143103
v 0.888016 0.111984 0.143103
v 0.888016 0.546637 0.205172
v 0.888016 0.111984 0.205172
v 0.278836 0.546637 0.143103
v 0.278836 0.546637 0.205172
v 0.278836 0.111984 0.205172
v 0.278836 0.111984 0.143103
v 0.278836 0.218043 0.143103
v 0.278836 0.218043 0.174138
v 0.278836 0.440578 0.174138
v 0.278836 0.440578 0.143103
v 0.834987 0.165013 0.205172
v 0.834987 0.493608 0.205172
v 0.331866 0.493608 0.205172
v 0.331866 0.165013 0.205172
v 0.834987 0.493608 0.143103
v 0.331866 0.493608 0.143103
v 0.834987 0.165013 0.143103
v 0.331866 0.165013 0.143103
v 0.331866 0.440578 0.143103
v 0.331866 0.218043 0.143103
f 2 1 3
f 3 4 2
f 6 5 3
f 3 1 6
f 7 4 3
f 3 5 7
f 8 7 9
f 9 10 8
f 9 11 10
f 9 12 11
f 9 2 12
f 8 13 7
f 13 14 7
f 2 15 12
f 2 16 15
f 2 17 16
f 2 18 17
f 2 19 18
f 2 20 19
f 2 21 20
f 7 14 22
f 21 2 4
f 23 21 4
f 24 23 4
f 25 24 4
f 26 25 4
f 27 26 4
f 28 27 4
f 29 28 4
f 29 4 7
f 7 30 29
f 7 31 30
f 7 32 31
f 7 22 32
f 34 33 35
f 35 36 34
f 6 9 7
f 7 5 6
f 38 37 39
f 39 40 38
f 40 41 38
f 40 42 41
f 37 38 43
f 43 44 37
f 43 42 44
f 42 40 44
f 38 41 45
f 45 46 38
f 43 38 46
f 46 47 43
f 42 43 47
f 47 48 42
f 45 41 42
f 42 48 45
f 47 46 45
f 45 48 47
f 50 49 34
f 34 51 50
f 34 36 51
f 52 39 37
f 37 34 52
f 37 33 34
f 52 34 49
f 40 53 50
f 50 51 40
f 51 44 40
f 51 54 44
f 52 53 40
f 40 39 52
f 35 33 37
f 37 54 35
f 37 44 54
f 2 52 49
f 49 50 2
f 50 1 2
f 50 6 1
f 52 2 9
f 9 53 52
f 9 6 53
f 6 50 53
f 36 35 54
f 54 51 36
f 22 14 13
f 13 8 22
f 8 32 22
f 8 31 32
f 8 10 31
f 10 11 31
f 11 30 31
f 11 12 30
f 12 29 30
f 12 15 29
f 15 28 29
f 15 16 28
f 16 27 28
f 16 17 27
f 17 26 27
f 17 18 26
f 18 25 26
f 18 19 25
f 19 24 25
f 19 23 24
f 19 20 23
f 20 21 23
f 56 55 57
f 57 58 56
f 57 55 59
f 59 60 57
f 56 58 61
f 61 62 56
f 63 62 61
f 61 64 63
f 61 65 64
f 65 61 60
f 65 60 59
f 59 66 65
f 67 61 58
f 58 57 67
f 57 68 67
f 57 69 68
f 61 67 70
f 70 60 61
f 70 69 60
f 69 57 60
f 71 68 69
f 69 72 71
f 71 73 67
f 67 68 71
f 67 73 74
f 74 70 67
f 75 72 69
f 69 76 75
f 69 74 76
f 69 70 74
f 74 56 62
f 62 63 74
f 63 76 74
f 56 74 73
f 73 55 56
f 73 71 55
f 71 59 55
f 59 71 72
f 59 72 75
f 75 66 59
f 73 74 76
f 76 71 73
f 76 75 71
f 75 72 71
f 76 63 66
f 66 75 76
f 66 63 64
f 64 65 66
