# City room prop — voxel footprint 1x1x2 (0.5 m cells)
o kitchenCoffeeMachine
v 0.903277 0.040000 0.838254
v 0.701638 0.040000 0.489006
v 0.701638 0.040000 1.187502
v 0.298362 0.040000 1.187502
v 0.298362 0.040000 0.489006
v 0.096723 0.040000 0.838254
v 0.298362 0.040000 1.461206
v 0.701638 0.040000 1.461206
v 0.874485 0.089787 0.838254
v 0.687242 0.089787 1.162567
v 0.687242 0.089787 0.513941
v 0.312758 0.089787 0.513941
v 0.312758 0.089787 1.162567
v 0.125515 0.089787 0.838254
v 0.324575 0.189362 0.534409
v 0.149149 0.189362 0.838254
v 0.324575 0.189362 1.142100
v 0.675425 0.189362 0.534409
v 0.850851 0.189362 0.838254
v 0.675425 0.189362 1.142100
v 0.298362 0.125161 1.187502
v 0.298362 0.234136 1.187502
v 0.298362 0.288936 1.262057
v 0.298362 0.574921 1.187502
v 0.298362 0.288936 1.461206
v 0.298362 0.795272 1.262057
v 0.298362 0.795272 0.789079
v 0.298362 0.640340 0.739417
v 0.298362 0.574921 0.739417
v 0.298362 0.705758 0.689630
v 0.298362 0.640340 0.689630
v 0.701638 0.234136 1.187502
v 0.701638 0.574921 1.187502
v 0.701638 0.125161 1.187502
v 0.701638 0.288936 1.461206
v 0.701638 0.288936 1.262057
v 0.701638 0.574921 0.739417
v 0.701638 0.705758 0.689630
v 0.701638 0.640340 0.689630
v 0.701638 0.795272 0.789079
v 0.701638 0.640340 0.739417
v 0.701638 0.795272 1.262057
v 0.637809 0.795272 1.262057
v 0.362191 0.795272 1.262057
v 0.701638 0.288936 1.510994
v 0.298362 0.288936 1.510994
v 0.701638 0.795272 1.510994
v 0.298362 0.795272 1.510994
v 0.627660 0.423404 0.815178
v 0.588140 0.423404 0.815178
v 0.563830 0.423404 0.704621
v 0.544070 0.423404 0.738847
v 0.436170 0.423404 0.704621
v 0.455930 0.423404 0.738847
v 0.411860 0.423404 0.815178
v 0.372340 0.423404 0.815178
v 0.563830 0.423404 0.925734
v 0.544070 0.423404 0.891509
v 0.436170 0.423404 0.925734
v 0.455930 0.423404 0.891509
v 0.563830 0.189362 0.704621
v 0.586493 0.378079 0.743874
v 0.604997 0.378079 0.775925
v 0.604997 0.234687 0.775925
v 0.586493 0.234687 0.743874
v 0.627660 0.189362 0.815178
v 0.436170 0.189362 0.704621
v 0.372340 0.189362 0.815178
v 0.455930 0.359574 0.738847
v 0.411860 0.359574 0.815178
v 0.563830 0.189362 0.925734
v 0.455930 0.359574 0.891509
v 0.660275 0.234687 0.744010
v 0.641771 0.234687 0.711959
v 0.436170 0.189362 0.925734
v 0.660275 0.378079 0.744010
v 0.544070 0.359574 0.738847
v 0.588140 0.359574 0.815178
v 0.641771 0.378079 0.711959
v 0.544070 0.359574 0.891509
f 2 1 3
f 3 4 2
f 4 5 2
f 4 6 5
f 7 4 3
f 3 8 7
f 10 9 11
f 11 12 10
f 12 13 10
f 12 14 13
f 1 9 10
f 10 3 1
f 12 5 6
f 6 14 12
f 2 5 12
f 12 11 2
f 14 6 4
f 4 13 14
f 1 2 11
f 11 9 1
f 4 3 10
f 10 13 4
f 15 12 14
f 14 16 15
f 16 14 13
f 13 17 16
f 9 11 18
f 18 19 9
f 9 19 20
f 20 10 9
f 13 10 20
f 20 17 13
f 21 4 7
f 7 22 21
f 7 23 22
f 23 24 22
f 7 25 23
f 24 23 26
f 24 26 27
f 24 27 28
f 28 29 24
f 28 27 30
f 30 31 28
f 32 22 24
f 24 33 32
f 22 32 34
f 34 21 22
f 21 34 3
f 3 4 21
f 7 8 35
f 35 25 7
f 10 20 32
f 32 3 10
f 32 34 3
f 22 17 13
f 13 4 22
f 4 21 22
f 20 17 22
f 22 32 20
f 36 35 25
f 25 23 36
f 37 33 24
f 24 29 37
f 39 38 40
f 40 41 39
f 40 37 41
f 40 33 37
f 40 42 33
f 42 32 33
f 42 34 32
f 42 3 34
f 42 36 3
f 36 8 3
f 36 35 8
f 38 30 27
f 27 40 38
f 39 31 30
f 30 38 39
f 37 29 28
f 28 41 37
f 39 41 28
f 28 31 39
f 11 12 15
f 15 18 11
f 42 40 27
f 27 43 42
f 27 44 43
f 27 26 44
f 20 19 18
f 18 17 20
f 18 15 17
f 15 16 17
f 46 45 47
f 47 48 46
f 35 45 46
f 46 25 35
f 36 42 47
f 47 35 36
f 47 45 35
f 26 23 25
f 25 48 26
f 25 46 48
f 47 42 43
f 43 48 47
f 43 44 48
f 44 26 48
f 50 49 51
f 51 52 50
f 51 53 52
f 53 54 52
f 53 55 54
f 53 56 55
f 57 49 50
f 50 58 57
f 58 59 57
f 55 56 59
f 58 60 59
f 60 55 59
f 62 61 51
f 51 49 62
f 49 63 62
f 49 64 63
f 61 62 65
f 65 66 61
f 65 64 66
f 64 49 66
f 53 67 68
f 68 56 53
f 69 54 55
f 55 70 69
f 66 49 57
f 57 71 66
f 70 55 60
f 60 72 70
f 74 73 64
f 64 65 74
f 61 66 71
f 71 75 61
f 75 67 61
f 75 68 67
f 64 73 76
f 76 63 64
f 69 77 52
f 52 54 69
f 52 77 78
f 78 50 52
f 63 76 79
f 79 62 63
f 75 71 57
f 57 59 75
f 74 79 76
f 76 73 74
f 56 68 75
f 75 59 56
f 80 78 77
f 77 72 80
f 77 69 72
f 69 70 72
f 74 65 62
f 62 79 74
f 50 78 80
f 80 58 50
f 61 67 53
f 53 51 61
f 80 72 60
f 60 58 80
