# City room prop — voxel footprint 2x2x2 (0.5 m cells)
o kitchenStove
v 1.914894 1.954894 1.829787
v 1.914894 1.954894 1.957447
v 0.085106 1.954894 1.829787
v 0.085106 1.954894 1.957447
v 1.914894 1.699574 1.957447
v 0.085106 1.699574 1.957447
v 1.914894 1.827234 1.829787
v 1.914894 1.699574 0.127660
v 1.914894 1.699574 0.042553
v 1.914894 1.827234 0.042553
v 0.085106 1.699574 0.042553
v 0.085106 1.827234 0.042553
v 0.085106 1.699574 0.127660
v 0.085106 1.827234 1.829787
v 1.786266 1.827234 0.255319
v 0.213734 1.827234 0.255319
v 0.213734 1.827234 1.778300
v 1.786266 1.827234 1.778300
v 1.914894 0.040000 1.957447
v 1.914894 0.040000 0.212766
v 0.085106 0.040000 1.957447
v 0.085106 0.040000 0.212766
v 1.914894 0.287838 0.212766
v 1.914894 0.287838 0.127660
v 0.085106 0.287838 0.212766
v 0.085106 0.287838 0.127660
v 0.199337 0.402068 0.127660
v 0.199337 1.585344 0.127660
v 1.800663 1.585344 0.127660
v 1.800663 0.402068 0.127660
v 1.800663 0.402068 1.744681
v 0.199337 0.402068 1.744681
v 1.800663 1.585344 1.744681
v 0.199337 1.585344 1.744681
v 0.342576 0.908600 1.744681
v 0.199337 0.993706 1.744681
v 0.342576 0.993706 1.744681
v 1.657424 0.908600 1.744681
v 1.800663 0.993706 1.744681
v 1.657424 0.993706 1.744681
v 0.835058 1.891064 1.406987
v 0.781009 1.891064 1.406987
v 0.741442 1.891064 1.244837
v 0.714417 1.891064 1.291646
v 0.554207 1.891064 1.244837
v 0.581232 1.891064 1.291646
v 0.514640 1.891064 1.406987
v 0.460590 1.891064 1.406987
v 0.741442 1.891064 1.569136
v 0.714417 1.891064 1.522328
v 0.554207 1.891064 1.569136
v 0.581232 1.891064 1.522328
v 0.835058 1.869787 1.406987
v 0.741442 1.869787 1.569136
v 0.788250 1.891064 0.837271
v 0.788250 1.869787 0.837271
v 0.718037 1.891064 0.958883
v 0.718037 1.869787 0.958883
v 1.310106 1.891064 0.407447
v 1.286702 1.891064 0.447984
v 1.286702 1.891064 0.366909
v 1.239894 1.891064 0.447984
v 1.239894 1.891064 0.366909
v 1.216489 1.891064 0.407447
v 0.554207 1.869787 1.569136
v 1.509043 1.891064 0.407447
v 1.532447 1.891064 0.447984
v 1.497340 1.848511 0.407447
v 1.526596 1.848511 0.458119
v 1.585106 1.848511 0.458119
v 1.579255 1.891064 0.447984
v 0.460590 1.869787 1.406987
v 1.602660 1.891064 0.407447
v 1.579255 1.891064 0.366909
v 1.532447 1.891064 0.366909
v 1.039787 1.869787 0.407447
v 1.019894 1.869787 0.441904
v 1.019894 1.869787 0.372990
v 0.980106 1.869787 0.441904
v 0.980106 1.869787 0.372990
v 0.960213 1.869787 0.407447
v 1.234043 1.848511 0.356775
v 1.204787 1.848511 0.407447
v 0.554207 1.869787 1.244837
v 0.783511 1.891064 0.407447
v 0.760106 1.891064 0.447984
v 0.760106 1.891064 0.366909
v 0.713298 1.891064 0.447984
v 0.713298 1.891064 0.366909
v 0.689894 1.891064 0.407447
v 0.490957 1.891064 0.407447
v 0.467553 1.891064 0.447984
v 0.467553 1.891064 0.366909
v 0.420745 1.891064 0.447984
v 0.420745 1.891064 0.366909
v 0.397340 1.891064 0.407447
v 1.614362 1.848511 0.407447
v 0.795213 1.848511 0.407447
v 0.765957 1.848511 0.458119
v 1.526596 1.848511 0.356775
v 0.473404 1.848511 0.458119
v 0.414894 1.848511 0.458119
v 1.585106 1.848511 0.356775
v 1.292553 1.848511 0.356775
v 1.321809 1.848511 0.407447
v 0.671229 1.891064 1.215746
v 0.624420 1.891064 1.215746
v 0.671229 1.912340 1.215746
v 0.624420 1.912340 1.215746
v 0.953191 1.848511 0.407447
v 0.976596 1.848511 0.447984
v 0.624420 1.891064 0.993406
v 0.671229 1.891064 0.993406
v 0.624420 1.912340 0.993406
v 0.671229 1.912340 0.993406
v 0.624420 1.891064 1.598228
v 0.671229 1.891064 1.598228
v 0.624420 1.912340 1.598228
v 0.671229 1.912340 1.598228
v 0.741442 1.869787 1.244837
v 1.234043 1.848511 0.458119
v 0.964894 1.891064 1.430391
v 0.964894 1.891064 1.383583
v 0.847872 1.891064 1.430391
v 0.847872 1.891064 1.383583
v 1.292553 1.848511 0.458119
v 1.669245 1.891064 1.430391
v 1.669245 1.891064 1.383798
v 1.552223 1.891064 1.430391
v 1.552223 1.891064 1.383798
v 1.375580 1.912340 1.598228
v 1.375580 1.891064 1.598228
v 1.375580 1.912340 1.656739
v 1.375580 1.891064 1.656739
v 1.258559 1.869787 1.244837
v 1.258559 1.891064 1.244837
v 1.164941 1.869787 1.406987
v 1.164941 1.891064 1.406987
v 1.539410 1.891064 1.406987
v 1.539410 1.869787 1.406987
v 1.445792 1.891064 1.569136
v 1.445792 1.869787 1.569136
v 0.801064 1.891064 0.813867
v 0.801064 1.912340 0.813867
v 0.801064 1.891064 0.860675
v 0.801064 1.912340 0.860675
v 1.152128 1.891064 1.430391
v 1.152128 1.891064 1.383583
v 1.035106 1.891064 1.430391
v 1.035106 1.891064 1.383583
v 1.258559 1.869787 1.569136
v 1.258559 1.891064 1.569136
v 0.414894 1.848511 0.356775
v 0.385638 1.848511 0.407447
v 0.707447 1.848511 0.458119
v 1.023404 1.848511 0.366909
v 1.046809 1.848511 0.407447
v 0.473404 1.848511 0.356775
v 0.734200 1.891064 0.837271
v 0.718037 1.891064 0.715659
v 0.691012 1.891064 0.762467
v 0.577612 1.891064 0.715659
v 0.604637 1.891064 0.762467
v 0.561449 1.891064 0.837271
v 0.507399 1.891064 0.837271
v 0.691012 1.891064 0.912074
v 0.577612 1.891064 0.958883
v 0.604637 1.891064 0.912074
v 0.718037 1.869787 0.715659
v 0.577612 1.869787 0.715659
v 0.507399 1.869787 0.837271
v 1.023404 1.848511 0.447984
v 0.765957 1.848511 0.356775
v 1.211750 1.869787 0.837271
v 1.211750 1.891064 0.837271
v 1.281963 1.869787 0.958883
v 1.281963 1.891064 0.958883
v 0.577612 1.869787 0.958883
v 1.492601 1.891064 0.837271
v 1.492601 1.869787 0.837271
v 1.422389 1.891064 0.958883
v 1.422389 1.869787 0.958883
v 0.707447 1.848511 0.356775
v 0.502660 1.848511 0.407447
v 0.976596 1.848511 0.366909
v 1.422389 1.891064 0.715659
v 1.422389 1.869787 0.715659
v 1.198936 1.912340 0.813867
v 1.198936 1.891064 0.813867
v 1.198936 1.912340 0.860675
v 1.198936 1.891064 0.860675
v 1.505415 1.891064 0.813867
v 1.505415 1.912340 0.813867
v 1.505415 1.891064 0.860675
v 1.505415 1.912340 0.860675
v 1.669245 1.912340 0.587519
v 1.669245 1.912340 0.860675
v 1.669245 1.912340 0.813867
v 1.669245 1.912340 1.157235
v 1.669245 1.912340 1.087023
v 1.375580 1.912340 1.157235
v 1.375580 1.912340 1.087023
v 1.375580 1.912340 1.215746
v 1.328771 1.912340 1.215746
v 1.328771 1.912340 0.993406
v 1.375580 1.912340 0.993406
v 1.328771 1.912340 1.157235
v 1.328771 1.912340 1.087023
v 1.035106 1.912340 1.157235
v 1.035106 1.912340 1.087023
v 1.035106 1.912340 1.383583
v 0.964894 1.912340 0.587519
v 1.035106 1.912340 0.860675
v 1.035106 1.912340 0.813867
v 1.035106 1.912340 0.587519
v 0.283947 1.912340 0.540711
v 1.328771 1.912340 0.587519
v 1.375580 1.912340 0.587519
v 1.716053 1.912340 0.540711
v 1.328771 1.912340 0.681136
v 1.375580 1.912340 0.681136
v 0.671229 1.912340 0.587519
v 0.624420 1.912340 0.587519
v 0.624420 1.912340 0.681136
v 0.671229 1.912340 0.681136
v 0.330755 1.912340 0.587519
v 0.330755 1.912340 0.813867
v 0.330755 1.912340 0.860675
v 0.330755 1.912340 1.087023
v 0.330755 1.912340 1.383583
v 0.283947 1.912340 1.703547
v 1.669245 1.912340 1.656739
v 1.716053 1.912340 1.703547
v 1.328771 1.912340 1.656739
v 1.328771 1.912340 1.598228
v 1.035106 1.912340 1.656739
v 0.964894 1.912340 1.656739
v 1.035106 1.912340 1.430391
v 1.152128 1.912340 1.383583
v 1.152128 1.912340 1.430391
v 0.964894 1.912340 1.430391
v 0.964894 1.912340 1.157235
v 0.964894 1.912340 1.383583
v 0.847872 1.912340 1.430391
v 0.847872 1.912340 1.383583
v 0.964894 1.912340 0.813867
v 0.964894 1.912340 0.860675
v 0.964894 1.912340 1.087023
v 0.671229 1.912340 1.157235
v 0.671229 1.912340 1.087023
v 0.624420 1.912340 1.157235
v 0.624420 1.912340 1.087023
v 0.330755 1.912340 1.157235
v 0.447777 1.912340 1.383583
v 0.330755 1.912340 1.430391
v 0.447777 1.912340 1.430391
v 0.330755 1.912340 1.656739
v 0.624420 1.912340 1.656739
v 0.671229 1.912340 1.656739
v 1.669245 1.912340 1.430391
v 1.669245 1.912340 1.383798
v 1.552223 1.912340 1.430391
v 1.552223 1.912340 1.383798
v 0.494585 1.912340 0.813867
v 0.494585 1.912340 0.860675
v 1.445792 1.869787 1.244837
v 1.445792 1.891064 1.244837
v 0.678191 1.848511 0.407447
v 1.281963 1.869787 0.715659
v 1.281963 1.891064 0.715659
v 1.438551 1.891064 0.837271
v 1.395363 1.891064 0.762467
v 1.308988 1.891064 0.762467
v 1.265800 1.891064 0.837271
v 1.395363 1.891064 0.912074
v 1.308988 1.891064 0.912074
v 0.330755 1.891064 0.813867
v 0.494585 1.891064 0.813867
v 0.330755 1.891064 1.430391
v 0.330755 1.869787 1.656739
v 0.330755 1.891064 1.383583
v 0.330755 1.869787 1.157235
v 0.671229 1.891064 1.656739
v 0.624420 1.891064 1.656739
v 0.671229 1.891064 1.157235
v 0.964894 1.869787 1.157235
v 0.624420 1.891064 1.157235
v 1.669245 1.869787 1.087023
v 1.328771 1.891064 1.087023
v 1.035106 1.869787 1.087023
v 1.375580 1.891064 1.087023
v 0.671229 1.891064 0.681136
v 0.671229 1.891064 0.587519
v 0.624420 1.891064 0.681136
v 0.624420 1.891064 0.587519
v 0.494585 1.891064 0.860675
v 0.330755 1.891064 0.860675
v 0.330755 1.869787 0.587519
v 0.964894 1.869787 0.587519
v 0.624420 1.891064 1.087023
v 1.375580 1.891064 0.587519
v 1.375580 1.891064 0.681136
v 1.035106 1.869787 1.157235
v 1.375580 1.891064 1.157235
v 1.669245 1.869787 1.157235
v 1.328771 1.891064 1.157235
v 1.328771 1.891064 1.598228
v 1.669245 1.869787 1.656739
v 1.328771 1.891064 1.656739
v 1.035106 1.869787 1.656739
v 0.330755 1.869787 1.087023
v 1.035106 1.891064 0.813867
v 0.671229 1.891064 1.087023
v 0.964894 1.891064 0.860675
v 0.964894 1.891064 0.813867
v 1.285583 1.891064 1.291646
v 1.418768 1.891064 1.291646
v 1.285583 1.912340 1.291646
v 1.418768 1.912340 1.291646
v 1.375580 1.891064 0.993406
v 1.328771 1.891064 0.993406
v 0.447777 1.891064 1.383583
v 1.328771 1.891064 0.681136
v 1.375580 1.891064 1.215746
v 1.328771 1.891064 1.215746
v 0.964894 1.869787 1.656739
v 1.035106 1.891064 0.860675
v 0.447777 1.891064 1.430391
v 1.328771 1.891064 0.587519
v 0.964894 1.869787 1.087023
v 1.485360 1.891064 1.406987
v 1.218991 1.891064 1.406987
v 1.418768 1.891064 1.522328
v 1.285583 1.891064 1.522328
v 1.669245 1.891064 0.813867
v 1.669245 1.869787 0.587519
v 1.669245 1.891064 0.860675
v 1.035106 1.869787 0.587519
v 0.781009 1.912340 1.406987
v 0.714417 1.912340 1.522328
v 1.395363 1.912340 0.912074
v 1.308988 1.912340 0.912074
v 1.739457 1.848511 1.726951
v 0.260543 1.848511 1.726951
v 0.714417 1.912340 1.291646
v 0.581232 1.912340 1.522328
v 0.581232 1.912340 1.291646
v 0.514640 1.912340 1.406987
v 0.260543 1.848511 0.517306
v 1.739457 1.848511 0.517306
v 1.308988 1.912340 0.762467
v 1.395363 1.912340 0.762467
v 0.691012 1.912340 0.912074
v 0.604637 1.912340 0.912074
v 0.561449 1.912340 0.837271
v 1.485360 1.912340 1.406987
v 1.418768 1.912340 1.522328
v 1.285583 1.912340 1.522328
v 1.218991 1.912340 1.406987
v 1.438551 1.912340 0.837271
v 1.265800 1.912340 0.837271
v 0.604637 1.912340 0.762467
v 0.691012 1.912340 0.762467
v 0.734200 1.912340 0.837271
v 0.342576 0.993706 0.297872
v 0.199337 0.993706 0.297872
v 0.199337 1.059332 1.744681
v 0.408202 1.059332 1.744681
v 1.591799 1.059332 1.744681
v 1.800663 1.059332 1.744681
v 1.591799 0.974226 1.744681
v 0.408202 0.974226 1.744681
v 0.408202 1.059332 0.297872
v 0.199337 1.059332 0.297872
v 0.408202 0.974226 0.297872
v 1.591799 0.974226 0.297872
v 1.591799 1.059332 0.297872
v 1.800663 1.059332 0.297872
v 1.800663 0.993706 0.297872
v 1.657424 0.993706 0.297872
v 1.657424 0.908600 0.297872
v 0.342576 0.908600 0.297872
v 0.260543 1.848511 0.302128
v 1.739457 1.848511 0.302128
v 1.626324 1.267650 0.212766
v 1.626324 1.267650 0.127660
v 0.392281 1.267650 0.212766
v 0.392281 1.267650 0.127660
v 1.626324 0.581960 0.127660
v 1.626324 0.581960 0.212766
v 0.392281 0.581960 0.127660
v 0.392281 0.581960 0.212766
v 0.392281 1.372578 0.042553
v 1.626324 1.372578 0.042553
v 0.392281 1.415131 0.042553
v 1.626324 1.415131 0.042553
v 1.626324 1.457684 0.085106
v 1.626324 1.457684 0.127660
v 0.392281 1.457684 0.085106
v 0.392281 1.457684 0.127660
v 0.199337 0.402068 0.212766
v 1.800663 0.402068 0.212766
v 1.800663 1.585344 0.212766
v 0.199337 1.585344 0.212766
v 1.800663 0.402068 0.127660
v 0.199337 0.402068 0.127660
v 0.199337 1.585344 0.127660
v 0.392281 1.372578 0.127660
v 1.800663 1.585344 0.127660
v 1.626324 1.372578 0.127660
f 2 1 3
f 3 4 2
f 6 5 2
f 2 4 6
f 7 1 2
f 7 2 5
f 7 5 8
f 7 8 9
f 9 10 7
f 12 11 13
f 13 14 12
f 13 6 14
f 6 3 14
f 6 4 3
f 7 14 3
f 3 1 7
f 15 7 10
f 10 12 15
f 12 16 15
f 12 17 16
f 7 15 18
f 18 14 7
f 18 17 14
f 17 12 14
f 9 11 12
f 12 10 9
f 9 8 13
f 13 11 9
f 20 19 21
f 21 22 20
f 24 23 25
f 25 26 24
f 20 22 25
f 25 23 20
f 25 22 21
f 25 21 6
f 25 6 13
f 13 26 25
f 24 8 5
f 5 23 24
f 5 20 23
f 5 19 20
f 5 8 13
f 13 6 5
f 21 19 5
f 5 6 21
f 27 24 26
f 26 13 27
f 13 28 27
f 13 29 28
f 24 27 30
f 30 8 24
f 30 29 8
f 29 13 8
f 31 30 27
f 27 32 31
f 29 33 34
f 34 28 29
f 35 31 32
f 32 36 35
f 36 37 35
f 31 35 38
f 38 39 31
f 38 40 39
f 42 41 43
f 43 44 42
f 43 45 44
f 45 46 44
f 45 47 46
f 45 48 47
f 49 41 42
f 42 50 49
f 50 51 49
f 47 48 51
f 50 52 51
f 52 47 51
f 53 41 49
f 49 54 53
f 56 55 57
f 57 58 56
f 60 59 61
f 61 62 60
f 61 63 62
f 63 64 62
f 65 54 49
f 49 51 65
f 67 66 68
f 68 69 67
f 69 70 71
f 71 67 69
f 48 72 65
f 65 51 48
f 71 73 74
f 74 67 71
f 74 75 67
f 75 66 67
f 77 76 78
f 78 79 77
f 78 80 79
f 80 81 79
f 63 82 83
f 83 64 63
f 45 84 72
f 72 48 45
f 86 85 87
f 87 88 86
f 87 89 88
f 89 90 88
f 92 91 93
f 93 94 92
f 93 95 94
f 95 96 94
f 70 97 73
f 73 71 70
f 98 85 86
f 86 99 98
f 75 100 68
f 68 66 75
f 102 101 92
f 92 94 102
f 97 103 74
f 74 73 97
f 105 104 61
f 61 59 105
f 107 106 108
f 108 109 107
f 81 110 111
f 111 79 81
f 113 112 114
f 114 115 113
f 117 116 118
f 118 119 117
f 120 43 41
f 41 53 120
f 62 64 83
f 83 121 62
f 103 100 75
f 75 74 103
f 123 122 124
f 124 125 123
f 121 126 60
f 60 62 121
f 128 127 129
f 129 130 128
f 120 84 45
f 45 43 120
f 132 131 133
f 133 134 132
f 136 135 137
f 137 138 136
f 140 139 141
f 141 142 140
f 144 143 145
f 145 146 144
f 148 147 149
f 149 150 148
f 138 137 151
f 151 152 138
f 95 153 154
f 154 96 95
f 151 142 141
f 141 152 151
f 155 99 86
f 86 88 155
f 157 156 78
f 78 76 157
f 158 153 95
f 95 93 158
f 159 55 160
f 160 161 159
f 160 162 161
f 162 163 161
f 162 164 163
f 162 165 164
f 57 55 159
f 159 166 57
f 166 167 57
f 164 165 167
f 166 168 167
f 168 164 167
f 169 160 55
f 55 56 169
f 162 170 171
f 171 165 162
f 172 157 76
f 76 77 172
f 98 173 87
f 87 85 98
f 175 174 176
f 176 177 175
f 178 58 57
f 57 167 178
f 180 179 181
f 181 182 180
f 173 183 89
f 89 87 173
f 104 82 63
f 63 61 104
f 94 96 154
f 154 102 94
f 184 158 93
f 93 91 184
f 184 91 92
f 92 101 184
f 80 185 110
f 110 81 80
f 187 186 179
f 179 180 187
f 165 171 178
f 178 167 165
f 189 188 190
f 190 191 189
f 193 192 194
f 194 195 193
f 197 196 198
f 198 195 197
f 198 193 195
f 199 196 197
f 199 197 200
f 200 201 199
f 200 202 201
f 202 203 201
f 202 204 203
f 205 204 202
f 202 206 205
f 205 207 204
f 205 208 207
f 208 209 207
f 208 210 209
f 210 211 209
f 212 211 210
f 212 210 213
f 212 213 214
f 214 213 190
f 190 188 214
f 212 214 215
f 216 212 215
f 216 215 217
f 216 217 218
f 216 218 196
f 219 216 196
f 196 199 219
f 217 220 218
f 221 218 220
f 216 222 212
f 216 223 222
f 223 224 222
f 225 222 224
f 216 226 223
f 216 227 226
f 216 228 227
f 216 229 228
f 216 230 229
f 216 231 230
f 219 199 232
f 232 231 233
f 233 219 232
f 232 133 231
f 133 234 231
f 133 131 234
f 234 131 235
f 234 236 231
f 236 237 231
f 236 211 237
f 211 236 238
f 239 211 238
f 238 240 239
f 211 241 237
f 211 242 241
f 241 242 243
f 243 244 241
f 243 245 244
f 211 212 242
f 212 246 242
f 246 247 242
f 247 246 144
f 144 146 247
f 242 247 248
f 248 249 242
f 248 250 249
f 250 108 249
f 250 109 108
f 250 114 109
f 250 115 114
f 114 251 109
f 251 114 252
f 252 253 251
f 252 229 253
f 229 230 253
f 254 230 255
f 255 256 254
f 230 257 255
f 257 230 231
f 258 257 231
f 259 258 231
f 237 259 231
f 259 119 258
f 258 119 118
f 260 199 261
f 261 262 260
f 261 263 262
f 199 260 232
f 265 264 227
f 227 228 265
f 266 135 136
f 136 267 266
f 89 183 268
f 268 90 89
f 270 269 174
f 174 175 270
f 187 269 270
f 270 186 187
f 90 268 155
f 155 88 90
f 156 185 80
f 80 78 156
f 271 179 186
f 186 272 271
f 186 270 272
f 270 273 272
f 270 274 273
f 270 175 274
f 181 179 271
f 271 275 181
f 275 177 181
f 274 175 177
f 275 276 177
f 276 274 177
f 176 182 181
f 181 177 176
f 105 59 60
f 60 126 105
f 169 170 162
f 162 160 169
f 111 172 77
f 77 79 111
f 278 277 227
f 227 264 278
f 279 255 257
f 279 257 280
f 281 279 280
f 281 280 282
f 230 281 282
f 282 253 230
f 117 283 284
f 284 116 117
f 285 282 286
f 286 242 285
f 242 249 285
f 282 285 287
f 287 253 282
f 287 251 253
f 289 288 290
f 290 210 289
f 210 208 289
f 288 289 291
f 291 200 288
f 291 202 200
f 293 292 294
f 294 295 293
f 277 278 296
f 296 297 277
f 293 298 299
f 299 212 293
f 212 222 293
f 298 293 295
f 295 226 298
f 295 223 226
f 114 112 300
f 300 252 114
f 301 218 221
f 221 302 301
f 223 295 294
f 294 224 223
f 304 303 305
f 305 199 304
f 199 201 304
f 303 304 306
f 306 209 303
f 306 207 209
f 132 307 235
f 235 131 132
f 309 308 310
f 310 236 309
f 236 234 309
f 308 309 134
f 134 232 308
f 134 133 232
f 297 228 229
f 297 229 311
f 277 297 311
f 277 311 298
f 227 277 298
f 298 226 227
f 149 238 236
f 149 236 310
f 150 149 310
f 150 310 303
f 211 150 303
f 303 209 211
f 189 312 214
f 214 188 189
f 112 113 313
f 313 300 112
f 315 314 145
f 145 143 315
f 317 316 318
f 318 319 317
f 321 320 291
f 291 289 321
f 148 239 240
f 240 147 148
f 322 281 230
f 230 254 322
f 129 127 260
f 260 262 129
f 323 302 221
f 221 220 323
f 325 324 203
f 203 204 325
f 284 326 280
f 280 257 284
f 257 258 284
f 326 284 283
f 283 237 326
f 283 259 237
f 266 267 139
f 139 140 266
f 189 191 327
f 327 312 189
f 128 199 305
f 305 308 128
f 308 127 128
f 308 260 127
f 308 232 260
f 199 128 261
f 263 130 129
f 129 262 263
f 245 125 124
f 124 244 245
f 320 321 205
f 205 206 320
f 294 292 225
f 225 224 294
f 278 264 265
f 265 296 278
f 322 328 279
f 279 281 322
f 287 285 313
f 313 300 287
f 285 106 107
f 107 287 285
f 123 242 286
f 286 326 123
f 326 122 123
f 326 241 122
f 326 237 241
f 242 123 243
f 279 328 256
f 256 255 279
f 285 249 108
f 108 106 285
f 301 302 323
f 323 329 301
f 118 116 284
f 284 258 118
f 300 330 311
f 311 229 300
f 229 252 300
f 330 300 313
f 313 248 330
f 313 250 248
f 331 139 267
f 267 317 331
f 267 136 317
f 136 316 317
f 136 332 316
f 136 138 332
f 141 139 331
f 331 333 141
f 333 152 141
f 332 138 152
f 333 334 152
f 334 332 152
f 335 196 336
f 336 288 335
f 288 337 335
f 288 197 337
f 288 200 197
f 196 335 198
f 148 150 211
f 211 239 148
f 293 222 225
f 225 292 293
f 322 254 256
f 256 328 322
f 117 119 259
f 259 283 117
f 217 329 323
f 323 220 217
f 327 312 315
f 315 314 327
f 145 314 247
f 247 146 145
f 335 337 194
f 194 192 335
f 124 122 241
f 241 244 124
f 306 304 291
f 291 289 306
f 297 296 265
f 265 228 297
f 327 213 210
f 327 210 290
f 312 327 290
f 312 290 338
f 214 312 338
f 338 215 214
f 315 212 299
f 299 330 315
f 330 314 315
f 330 247 314
f 330 248 247
f 212 315 246
f 122 149 150
f 150 123 122
f 42 339 340
f 340 50 42
f 315 143 144
f 144 246 315
f 276 275 341
f 341 342 276
f 344 343 233
f 233 231 344
f 44 345 339
f 339 42 44
f 301 338 336
f 336 196 301
f 196 218 301
f 338 301 329
f 329 215 338
f 329 217 215
f 340 339 345
f 345 346 340
f 345 347 346
f 347 348 346
f 350 349 216
f 216 219 350
f 272 273 351
f 351 352 272
f 343 350 219
f 219 233 343
f 168 166 353
f 353 354 168
f 348 47 52
f 52 346 348
f 149 147 240
f 240 238 149
f 327 191 190
f 190 213 327
f 355 164 168
f 168 354 355
f 357 356 319
f 319 318 357
f 318 358 357
f 318 359 358
f 341 360 352
f 352 342 341
f 352 351 342
f 351 361 342
f 317 319 356
f 356 331 317
f 351 273 274
f 274 361 351
f 207 306 325
f 325 204 207
f 216 349 344
f 344 231 216
f 304 201 203
f 203 324 304
f 331 356 357
f 357 333 331
f 359 332 334
f 334 358 359
f 304 324 325
f 325 306 304
f 161 163 362
f 362 363 161
f 318 316 332
f 332 359 318
f 205 321 289
f 289 208 205
f 335 192 193
f 193 198 335
f 271 360 341
f 341 275 271
f 347 46 47
f 47 348 347
f 52 50 340
f 340 346 52
f 159 364 353
f 353 166 159
f 123 125 245
f 245 243 123
f 272 352 360
f 360 271 272
f 128 130 263
f 263 261 128
f 361 274 276
f 276 342 361
f 320 206 202
f 202 291 320
f 161 363 364
f 364 159 161
f 334 333 357
f 357 358 334
f 194 337 197
f 197 195 194
f 113 115 250
f 250 313 113
f 362 163 164
f 164 355 362
f 44 46 347
f 347 345 44
f 353 364 363
f 363 354 353
f 363 362 354
f 362 355 354
f 132 134 309
f 309 307 132
f 251 287 107
f 107 109 251
f 235 307 309
f 309 234 235
f 365 37 36
f 36 366 365
f 368 367 34
f 34 369 368
f 34 370 369
f 34 33 370
f 368 369 371
f 371 372 368
f 368 373 374
f 374 367 368
f 375 373 368
f 368 372 375
f 371 376 375
f 375 372 371
f 377 376 371
f 371 369 377
f 370 378 377
f 377 369 370
f 379 39 40
f 40 380 379
f 381 380 40
f 40 38 381
f 381 38 35
f 35 382 381
f 365 382 35
f 35 37 365
f 365 366 374
f 365 374 373
f 365 373 375
f 382 365 375
f 375 381 382
f 381 375 376
f 376 380 381
f 376 377 380
f 377 379 380
f 377 378 379
f 374 27 28
f 28 34 374
f 34 367 374
f 27 374 366
f 366 32 27
f 366 36 32
f 379 29 30
f 30 31 379
f 31 39 379
f 29 379 378
f 378 33 29
f 378 370 33
f 344 349 383
f 383 16 344
f 16 17 344
f 17 18 343
f 343 344 17
f 169 330 299
f 299 298 169
f 169 56 330
f 298 170 169
f 298 171 170
f 330 56 58
f 58 311 330
f 171 298 311
f 58 178 311
f 178 171 311
f 18 15 384
f 384 343 18
f 384 350 343
f 103 350 384
f 384 383 103
f 103 97 350
f 383 100 103
f 383 104 100
f 104 68 100
f 104 105 68
f 383 82 104
f 383 156 82
f 156 83 82
f 156 157 83
f 383 185 156
f 383 173 185
f 173 110 185
f 173 98 110
f 383 183 173
f 383 268 183
f 383 158 268
f 158 184 268
f 383 153 158
f 383 154 153
f 383 349 154
f 83 157 172
f 121 172 349
f 121 83 172
f 126 121 349
f 69 126 349
f 70 69 349
f 70 349 350
f 350 97 70
f 69 68 126
f 68 105 126
f 172 111 349
f 111 99 349
f 111 110 99
f 110 98 99
f 99 155 349
f 155 268 349
f 268 101 349
f 268 184 101
f 101 102 349
f 102 154 349
f 187 288 336
f 336 338 187
f 187 180 288
f 338 269 187
f 338 174 269
f 288 180 182
f 182 290 288
f 174 338 290
f 182 176 290
f 176 174 290
f 384 15 16
f 16 383 384
f 140 308 305
f 305 266 140
f 305 303 266
f 303 135 266
f 303 137 135
f 308 140 142
f 142 310 308
f 137 303 310
f 142 151 310
f 151 137 310
f 53 326 286
f 286 120 53
f 286 282 120
f 282 84 120
f 282 72 84
f 326 53 54
f 54 280 326
f 72 282 280
f 54 65 280
f 65 72 280
f 386 385 387
f 387 388 386
f 390 389 391
f 391 392 390
f 391 388 387
f 387 392 391
f 386 389 390
f 390 385 386
f 394 393 395
f 395 396 394
f 398 397 399
f 399 400 398
f 390 401 402
f 402 403 390
f 403 385 390
f 403 387 385
f 401 390 392
f 392 404 401
f 392 387 404
f 387 403 404
f 405 402 401
f 401 406 405
f 391 405 406
f 406 407 391
f 407 388 391
f 407 408 388
f 408 386 388
f 407 400 408
f 407 398 400
f 405 391 389
f 389 409 405
f 389 386 409
f 398 407 409
f 386 410 409
f 386 408 410
f 410 398 409
f 394 410 408
f 408 393 394
f 403 409 407
f 407 404 403
f 405 409 403
f 403 402 405
f 395 393 408
f 408 399 395
f 408 400 399
f 394 396 397
f 397 410 394
f 397 398 410
f 396 395 399
f 399 397 396
f 407 406 401
f 401 404 407
f 392 390 385
f 385 387 392
f 392 385 390
f 385 392 387
