# City room prop — voxel footprint 1x2x1 (0.5 m cells)
o kitchenBarEnd
v 0.422207 0.040000 0.260461
v 0.479492 0.040000 0.304417
v 0.422207 0.287838 0.260461
v 0.479492 0.287838 0.304417
v 0.355498 0.040000 0.232829
v 0.355498 0.287838 0.232829
v 0.551081 0.287838 0.428412
v 0.551081 0.040000 0.428412
v 0.560505 0.287838 0.500000
v 0.560505 0.040000 0.500000
v 0.283910 0.040000 0.223404
v 0.283910 0.287838 0.223404
v 0.551081 0.287838 0.571588
v 0.551081 0.040000 0.571588
v 0.523449 0.287838 0.638298
v 0.523449 0.040000 0.638298
v 0.479492 0.287838 0.695583
v 0.479492 0.040000 0.695583
v 0.355498 0.040000 0.767171
v 0.283910 0.040000 0.776596
v 0.355498 0.287838 0.767171
v 0.283910 0.287838 0.776596
v 0.422207 0.040000 0.739539
v 0.422207 0.287838 0.739539
v 0.523449 0.287838 0.361702
v 0.523449 0.040000 0.361702
v 0.617873 1.699574 0.406385
v 0.617873 0.287838 0.406385
v 0.629654 1.699574 0.500000
v 0.629654 0.287838 0.500000
v 0.617873 1.699574 0.593615
v 0.617873 0.287838 0.593615
v 0.583333 1.699574 0.680851
v 0.583333 0.287838 0.680851
v 0.528388 1.699574 0.755762
v 0.528388 0.287838 0.755762
v 0.456782 0.287838 0.813243
v 0.456782 1.699574 0.813243
v 0.373395 0.287838 0.849377
v 0.373395 1.699574 0.849377
v 0.373395 0.287838 0.150623
v 0.456782 0.287838 0.186757
v 0.373395 1.699574 0.150623
v 0.456782 1.699574 0.186757
v 0.528388 0.287838 0.244238
v 0.528388 1.699574 0.244238
v 0.583333 1.699574 0.319149
v 0.583333 0.287838 0.319149
v 0.283910 0.287838 0.861702
v 0.283910 1.699574 0.861702
v 0.283910 0.287838 0.138298
v 0.283910 1.699574 0.138298
v 0.283910 1.827234 0.946809
v 0.283910 1.827234 0.053191
v 0.283910 1.699574 0.053191
v 0.283910 1.699574 0.946809
v 0.701364 1.827234 0.384357
v 0.701364 1.699574 0.384357
v 0.716090 1.827234 0.500000
v 0.716090 1.699574 0.500000
v 0.701364 1.827234 0.615643
v 0.701364 1.699574 0.615643
v 0.658189 1.827234 0.723404
v 0.658189 1.699574 0.723404
v 0.589508 1.827234 0.815941
v 0.589508 1.699574 0.815941
v 0.500000 1.699574 0.886948
v 0.500000 1.827234 0.886948
v 0.395766 1.699574 0.931584
v 0.395766 1.827234 0.931584
v 0.500000 1.699574 0.113052
v 0.589508 1.699574 0.184059
v 0.500000 1.827234 0.113052
v 0.589508 1.827234 0.184059
v 0.658189 1.827234 0.276596
v 0.395766 1.827234 0.068416
v 0.395766 1.699574 0.068416
v 0.658189 1.699574 0.276596
f 2 1 3
f 3 4 2
f 1 5 6
f 6 3 1
f 8 7 9
f 9 10 8
f 5 11 12
f 12 6 5
f 10 9 13
f 13 14 10
f 16 15 17
f 17 18 16
f 20 19 21
f 21 22 20
f 23 18 17
f 17 24 23
f 14 13 15
f 15 16 14
f 2 4 25
f 25 26 2
f 8 10 14
f 14 16 8
f 16 26 8
f 16 18 26
f 18 2 26
f 18 23 2
f 23 1 2
f 23 19 1
f 19 5 1
f 19 20 5
f 20 11 5
f 19 23 24
f 24 21 19
f 26 25 7
f 7 8 26
f 28 27 29
f 29 30 28
f 30 29 31
f 31 32 30
f 34 33 35
f 35 36 34
f 37 36 35
f 35 38 37
f 39 37 38
f 38 40 39
f 42 41 43
f 43 44 42
f 45 42 44
f 44 46 45
f 32 31 33
f 33 34 32
f 45 46 47
f 47 48 45
f 49 39 40
f 40 50 49
f 28 30 32
f 32 34 28
f 34 48 28
f 34 36 48
f 36 9 48
f 36 13 9
f 36 15 13
f 36 37 15
f 37 17 15
f 37 24 17
f 37 39 24
f 39 21 24
f 39 49 21
f 49 22 21
f 45 48 9
f 9 7 45
f 7 25 45
f 25 42 45
f 25 4 42
f 4 3 42
f 3 41 42
f 3 6 41
f 6 51 41
f 6 12 51
f 48 47 27
f 27 28 48
f 41 51 52
f 52 43 41
f 52 51 12
f 52 12 50
f 52 50 53
f 52 53 54
f 54 55 52
f 12 22 50
f 12 20 22
f 12 11 20
f 22 49 50
f 50 56 53
f 58 57 59
f 59 60 58
f 60 59 61
f 61 62 60
f 64 63 65
f 65 66 64
f 67 66 65
f 65 68 67
f 69 67 68
f 68 70 69
f 56 69 70
f 70 53 56
f 72 71 73
f 73 74 72
f 62 61 63
f 63 64 62
f 61 59 57
f 57 75 61
f 75 63 61
f 75 74 63
f 74 65 63
f 74 73 65
f 73 68 65
f 73 76 68
f 76 70 68
f 76 54 70
f 54 53 70
f 77 55 54
f 54 76 77
f 71 77 76
f 76 73 71
f 72 74 75
f 75 78 72
f 78 75 57
f 57 58 78
f 58 60 62
f 62 64 58
f 64 78 58
f 64 31 78
f 64 66 31
f 31 29 78
f 66 33 31
f 66 67 33
f 67 35 33
f 67 38 35
f 67 69 38
f 69 40 38
f 69 56 40
f 56 50 40
f 78 29 27
f 27 72 78
f 27 47 72
f 47 71 72
f 47 46 71
f 46 44 71
f 44 77 71
f 44 43 77
f 43 55 77
f 43 52 55
