# City room prop — voxel footprint 2x2x2 (0.5 m cells)
o kitchenCabinetCornerInner
v 1.960000 0.283096 0.248696
v 1.960000 0.283096 0.165217
v 1.751304 0.283096 0.248696
v 1.834783 0.283096 0.040000
v 1.751304 0.283096 0.040000
v 1.960000 1.667826 0.165217
v 1.960000 1.667826 1.960000
v 1.960000 0.040000 0.248696
v 1.960000 0.040000 1.960000
v 0.040000 0.040000 0.040000
v 0.040000 1.667826 0.040000
v 0.040000 0.040000 1.960000
v 0.040000 1.667826 1.960000
v 1.751304 0.040000 0.040000
v 1.834783 1.667826 0.040000
v 1.751304 0.040000 0.248696
v 0.165217 1.793043 1.834783
v 1.960000 1.793043 1.834783
v 0.165217 1.918261 1.834783
v 1.960000 1.918261 1.834783
v 1.960000 1.793043 0.081739
v 1.918261 1.793043 0.040000
v 0.165217 1.793043 0.040000
v 0.040000 1.918261 0.040000
v 1.918261 1.667826 0.040000
v 0.165217 1.918261 0.040000
v 1.960000 1.918261 1.960000
v 1.960000 1.667826 0.081739
v 0.040000 1.918261 1.960000
f 2 1 3
f 3 4 2
f 3 5 4
f 2 6 7
f 7 1 2
f 7 8 1
f 7 9 8
f 11 10 12
f 12 13 11
f 12 9 7
f 7 13 12
f 14 10 11
f 11 5 14
f 11 4 5
f 11 15 4
f 8 16 3
f 3 1 8
f 14 5 3
f 3 16 14
f 8 9 12
f 12 16 8
f 12 14 16
f 12 10 14
f 2 4 15
f 15 6 2
f 18 17 19
f 19 20 18
f 17 18 21
f 21 22 17
f 22 23 17
f 23 15 11
f 11 24 23
f 23 25 15
f 24 26 23
f 25 23 22
f 18 20 27
f 18 27 7
f 18 7 6
f 18 6 28
f 28 21 18
f 23 26 19
f 19 17 23
f 24 11 13
f 13 29 24
f 28 6 15
f 15 25 28
f 28 25 22
f 22 21 28
f 13 7 27
f 27 29 13
f 29 27 20
f 20 19 29
f 19 26 29
f 26 24 29
