# City room prop — voxel footprint 1x1x1 (0.5 m cells)
o kitchenBlender
v 0.627385 0.040000 0.318116
v 0.501234 0.114639 0.330059
v 0.428199 0.040000 0.318116
v 0.474675 0.160062 0.337326
v 0.460069 0.385000 0.373316
v 0.501234 0.205484 0.344594
v 0.527792 0.205484 0.344594
v 0.554350 0.205484 0.344594
v 0.554350 0.114639 0.330059
v 0.580908 0.160062 0.337326
v 0.595515 0.385000 0.373316
v 0.527792 0.114639 0.330059
v 0.726978 0.040000 0.375616
v 0.663238 0.385000 0.412416
v 0.328606 0.040000 0.375616
v 0.392345 0.385000 0.412416
v 0.328606 0.040000 0.605616
v 0.392345 0.385000 0.568816
v 0.726978 0.040000 0.605616
v 0.527792 0.040000 0.720616
v 0.663238 0.385000 0.568816
v 0.527792 0.385000 0.647016
v 0.527792 0.385000 0.490616
v 0.389468 0.385000 0.410755
v 0.527792 0.385000 0.330894
v 0.368720 0.480833 0.398776
v 0.527792 0.480833 0.306936
v 0.686864 0.480833 0.398776
v 0.666115 0.385000 0.410755
v 0.686864 0.480833 0.582457
v 0.666115 0.385000 0.570478
v 0.527792 0.385000 0.650339
v 0.389468 0.385000 0.570478
v 0.527792 0.480833 0.674297
v 0.368720 0.480833 0.582457
v 0.363644 0.555583 0.459950
v 0.363644 0.555583 0.521283
v 0.360880 0.596295 0.521283
v 0.348361 0.780649 0.521283
v 0.345596 0.821361 0.521283
v 0.345596 0.821361 0.459950
v 0.344859 0.832222 0.385000
v 0.344859 0.832222 0.596233
v 0.360880 0.596295 0.459950
v 0.348361 0.780649 0.459950
v 0.527792 0.832222 0.279384
v 0.527792 0.832222 0.701849
v 0.527792 0.896111 0.701849
v 0.344859 0.896111 0.596233
v 0.710725 0.832222 0.385000
v 0.527792 0.896111 0.279384
v 0.710725 0.896111 0.385000
v 0.344859 0.896111 0.385000
v 0.710725 0.832222 0.490616
v 0.710725 0.832222 0.596233
v 0.710725 0.896111 0.596233
v 0.527792 0.385000 0.647016
v 0.392345 0.385000 0.568816
v 0.392345 0.385000 0.412416
v 0.663238 0.385000 0.412416
v 0.595515 0.385000 0.373316
v 0.460069 0.385000 0.373316
v 0.774613 0.896111 0.490616
v 0.266098 0.596295 0.459950
v 0.225387 0.555583 0.459950
v 0.225387 0.821361 0.459950
v 0.266098 0.780649 0.459950
v 0.266098 0.780649 0.521283
v 0.266098 0.596295 0.521283
v 0.225387 0.555583 0.521283
v 0.225387 0.821361 0.521283
v 0.679626 0.960000 0.402955
v 0.679626 0.960000 0.578278
v 0.527792 0.960000 0.315293
v 0.527792 0.960000 0.665940
v 0.375957 0.960000 0.402955
v 0.375957 0.960000 0.578278
f 2 1 3
f 3 4 2
f 3 5 4
f 5 6 4
f 5 7 6
f 5 8 7
f 1 2 9
f 1 9 10
f 10 11 1
f 10 8 11
f 8 5 11
f 2 12 9
f 13 1 11
f 11 14 13
f 16 15 17
f 17 18 16
f 13 19 20
f 20 1 13
f 20 3 1
f 20 17 3
f 17 15 3
f 20 19 21
f 21 22 20
f 21 14 23
f 22 21 23
f 23 18 22
f 23 14 11
f 11 5 23
f 5 16 23
f 23 16 18
f 3 15 16
f 16 5 3
f 17 20 22
f 22 18 17
f 19 13 14
f 14 21 19
f 12 2 4
f 4 9 12
f 4 10 9
f 4 6 10
f 6 7 10
f 7 8 10
f 25 24 26
f 26 27 25
f 25 26 24
f 26 25 27
f 29 28 30
f 30 31 29
f 29 30 28
f 30 29 31
f 29 25 27
f 27 28 29
f 29 27 25
f 27 29 28
f 33 32 34
f 34 35 33
f 33 34 32
f 34 33 35
f 35 26 24
f 24 33 35
f 35 24 26
f 24 35 33
f 32 31 30
f 30 34 32
f 32 30 31
f 30 32 34
f 36 26 35
f 35 37 36
f 35 38 37
f 35 39 38
f 35 40 39
f 26 36 41
f 42 26 41
f 41 43 42
f 41 40 43
f 40 35 43
f 36 44 41
f 44 45 41
f 45 44 38
f 38 39 45
f 36 35 26
f 35 36 37
f 35 37 38
f 35 38 39
f 35 39 40
f 26 41 36
f 42 41 26
f 41 42 43
f 41 43 40
f 40 43 35
f 36 41 44
f 44 41 45
f 45 38 44
f 38 45 39
f 27 26 42
f 42 46 27
f 27 42 26
f 42 27 46
f 43 47 48
f 48 49 43
f 43 48 47
f 48 43 49
f 28 27 46
f 46 50 28
f 28 46 27
f 46 28 50
f 50 46 51
f 51 52 50
f 50 51 46
f 51 50 52
f 35 34 47
f 47 43 35
f 35 47 34
f 47 35 43
f 53 42 43
f 43 49 53
f 53 43 42
f 43 53 49
f 28 50 54
f 54 30 28
f 54 55 30
f 28 54 50
f 54 28 30
f 54 30 55
f 46 42 53
f 53 51 46
f 46 53 42
f 53 46 51
f 34 30 55
f 55 47 34
f 34 55 30
f 55 34 47
f 47 55 56
f 56 48 47
f 47 56 55
f 56 47 48
f 54 56 55
f 50 52 54
f 54 55 56
f 50 54 52
f 21 29 31
f 31 32 21
f 32 57 21
f 32 58 57
f 32 33 58
f 33 59 58
f 29 21 60
f 60 21 57
f 60 25 29
f 60 61 25
f 57 61 60
f 61 62 25
f 57 62 61
f 57 58 62
f 58 59 62
f 62 24 25
f 62 59 24
f 59 33 24
f 21 31 29
f 31 21 32
f 32 21 57
f 32 57 58
f 32 58 33
f 33 58 59
f 29 60 21
f 60 57 21
f 60 29 25
f 60 25 61
f 57 60 61
f 61 25 62
f 57 61 62
f 57 62 58
f 58 62 59
f 62 25 24
f 62 24 59
f 59 24 33
f 63 54 52
f 63 52 54
f 63 56 54
f 63 54 56
f 36 64 44
f 64 36 65
f 65 66 64
f 66 67 64
f 66 45 67
f 66 41 45
f 36 44 64
f 64 65 36
f 65 64 66
f 66 64 67
f 66 67 45
f 66 45 41
f 45 39 68
f 68 67 45
f 45 68 39
f 68 45 67
f 64 67 68
f 68 69 64
f 64 68 67
f 68 64 69
f 66 65 70
f 70 71 66
f 66 70 65
f 70 66 71
f 69 37 38
f 70 37 69
f 69 71 70
f 69 68 71
f 40 71 68
f 68 39 40
f 69 38 37
f 70 69 37
f 69 70 71
f 69 71 68
f 40 68 71
f 68 40 39
f 38 44 64
f 64 69 38
f 38 64 44
f 64 38 69
f 36 37 70
f 70 65 36
f 36 70 37
f 70 36 65
f 40 41 66
f 66 71 40
f 40 66 41
f 66 40 71
f 52 56 48
f 48 51 52
f 48 49 51
f 49 53 51
f 73 72 74
f 74 75 73
f 74 76 75
f 76 77 75
f 56 52 72
f 72 73 56
f 76 53 49
f 49 77 76
f 49 48 75
f 75 77 49
f 48 56 73
f 73 75 48
f 51 53 76
f 76 74 51
f 52 51 74
f 74 72 52
