# City room prop — unit cell 0..1
o kitchenCabinetCornerRound
v 0.950000 0.830000 0.950000
v 0.950000 0.830000 0.708457
v 0.910000 0.830000 0.950000
v 0.944367 0.830000 0.622511
v 0.927564 0.830000 0.538036
v 0.910000 0.830000 0.719192
v 0.899878 0.830000 0.456476
v 0.904617 0.830000 0.637066
v 0.888561 0.830000 0.556345
v 0.861784 0.830000 0.379228
v 0.862106 0.830000 0.478411
v 0.825704 0.830000 0.404596
v 0.813932 0.830000 0.307614
v 0.779980 0.830000 0.336164
v 0.757142 0.830000 0.242858
v 0.725714 0.830000 0.274286
v 0.692386 0.830000 0.186068
v 0.663836 0.830000 0.220020
v 0.620772 0.830000 0.138216
v 0.595404 0.830000 0.174296
v 0.543524 0.830000 0.100122
v 0.521589 0.830000 0.137894
v 0.461964 0.830000 0.072436
v 0.443655 0.830000 0.111439
v 0.377489 0.830000 0.055633
v 0.362934 0.830000 0.095383
v 0.291543 0.830000 0.050000
v 0.280808 0.830000 0.090000
v 0.050000 0.830000 0.050000
v 0.050000 0.830000 0.090000
v 0.757142 0.890000 0.242858
v 0.813932 0.890000 0.307614
v 0.692386 0.890000 0.186068
v 0.050000 0.890000 0.050000
v 0.050000 0.890000 0.890000
v 0.050000 0.830000 0.950000
v 0.050000 0.950000 0.890000
v 0.050000 0.950000 0.950000
v 0.291543 0.890000 0.050000
v 0.377489 0.890000 0.055633
v 0.461964 0.890000 0.072436
v 0.899878 0.890000 0.456476
v 0.927564 0.890000 0.538036
v 0.543524 0.890000 0.100122
v 0.861784 0.890000 0.379228
v 0.944367 0.890000 0.622511
v 0.950000 0.890000 0.708457
v 0.620772 0.890000 0.138216
v 0.950000 0.890000 0.950000
v 0.110000 0.890000 0.950000
v 0.110000 0.950000 0.950000
v 0.110000 0.950000 0.890000
v 0.110000 0.890000 0.890000
v 0.050000 0.166484 0.090000
v 0.280808 0.166484 0.090000
v 0.888561 0.166484 0.556345
v 0.904617 0.166484 0.637066
v 0.779980 0.166484 0.336164
v 0.825704 0.166484 0.404596
v 0.595404 0.166484 0.174296
v 0.663836 0.166484 0.220020
v 0.910000 0.166484 0.950000
v 0.870000 0.166484 0.950000
v 0.050000 0.050000 0.950000
v 0.870000 0.050000 0.950000
v 0.862106 0.166484 0.478411
v 0.725714 0.166484 0.274286
v 0.362934 0.166484 0.095383
v 0.443655 0.166484 0.111439
v 0.910000 0.166484 0.719192
v 0.870000 0.166484 0.729927
v 0.864868 0.166484 0.651621
v 0.849558 0.166484 0.574655
v 0.824333 0.166484 0.500345
v 0.789625 0.166484 0.429964
v 0.746027 0.166484 0.364715
v 0.694285 0.166484 0.305715
v 0.635285 0.166484 0.253973
v 0.570036 0.166484 0.210375
v 0.521589 0.166484 0.137894
v 0.499655 0.166484 0.175667
v 0.425345 0.166484 0.150442
v 0.348379 0.166484 0.135132
v 0.270073 0.166484 0.130000
v 0.050000 0.166484 0.130000
v 0.050000 0.050000 0.130000
v 0.824333 0.050000 0.500345
v 0.849558 0.050000 0.574655
v 0.425345 0.050000 0.150442
v 0.499655 0.050000 0.175667
v 0.746027 0.050000 0.364715
v 0.789625 0.050000 0.429964
v 0.864868 0.050000 0.651621
v 0.870000 0.050000 0.729927
v 0.270073 0.050000 0.130000
v 0.348379 0.050000 0.135132
v 0.570036 0.050000 0.210375
v 0.694285 0.050000 0.305715
v 0.635285 0.050000 0.253973
f 2 1 3
f 3 4 2
f 3 5 4
f 3 6 5
f 6 7 5
f 6 8 7
f 8 9 7
f 9 10 7
f 9 11 10
f 11 12 10
f 12 13 10
f 12 14 13
f 14 15 13
f 14 16 15
f 16 17 15
f 16 18 17
f 18 19 17
f 18 20 19
f 20 21 19
f 20 22 21
f 22 23 21
f 22 24 23
f 24 25 23
f 24 26 25
f 26 27 25
f 26 28 27
f 28 29 27
f 28 30 29
f 15 31 32
f 32 13 15
f 15 17 33
f 33 31 15
f 34 29 30
f 30 35 34
f 30 36 35
f 36 37 35
f 36 38 37
f 27 29 34
f 34 39 27
f 23 25 40
f 40 41 23
f 7 42 43
f 43 5 7
f 21 23 41
f 41 44 21
f 10 45 42
f 42 7 10
f 13 32 45
f 45 10 13
f 5 43 46
f 46 4 5
f 4 46 47
f 47 2 4
f 25 27 39
f 39 40 25
f 17 19 48
f 48 33 17
f 19 21 44
f 44 48 19
f 2 47 49
f 49 1 2
f 3 1 49
f 49 36 3
f 49 50 36
f 38 36 50
f 50 51 38
f 53 52 51
f 51 50 53
f 53 35 37
f 37 52 53
f 53 39 34
f 34 35 53
f 39 53 50
f 40 39 50
f 41 40 50
f 44 41 50
f 48 44 50
f 33 48 50
f 31 33 50
f 32 31 50
f 45 32 50
f 42 45 50
f 43 42 50
f 46 43 50
f 46 50 49
f 49 47 46
f 51 52 37
f 37 38 51
f 55 54 30
f 30 28 55
f 56 9 8
f 8 57 56
f 58 14 12
f 12 59 58
f 61 60 20
f 20 18 61
f 63 62 3
f 63 3 36
f 63 36 64
f 64 65 63
f 59 12 11
f 11 66 59
f 67 16 14
f 14 58 67
f 69 68 26
f 26 24 69
f 67 61 18
f 18 16 67
f 57 8 6
f 6 70 57
f 70 62 63
f 63 57 70
f 63 56 57
f 63 71 56
f 71 66 56
f 71 72 66
f 72 73 66
f 73 59 66
f 73 74 59
f 74 58 59
f 74 75 58
f 75 76 58
f 76 67 58
f 76 77 67
f 77 61 67
f 77 78 61
f 78 60 61
f 78 79 60
f 79 80 60
f 79 81 80
f 81 69 80
f 81 82 69
f 82 68 69
f 82 83 68
f 83 55 68
f 83 84 55
f 84 54 55
f 84 85 54
f 85 86 64
f 64 36 85
f 85 36 30
f 30 54 85
f 66 11 9
f 9 56 66
f 70 6 3
f 3 62 70
f 68 55 28
f 28 26 68
f 80 69 24
f 24 22 80
f 60 80 22
f 22 20 60
f 87 74 73
f 73 88 87
f 90 89 82
f 82 81 90
f 91 76 75
f 75 92 91
f 93 72 71
f 71 94 93
f 96 95 84
f 84 83 96
f 95 86 85
f 85 84 95
f 97 90 81
f 81 79 97
f 94 71 63
f 63 65 94
f 98 77 76
f 76 91 98
f 88 73 72
f 72 93 88
f 92 75 74
f 74 87 92
f 89 96 83
f 83 82 89
f 94 65 64
f 64 93 94
f 64 88 93
f 64 87 88
f 64 92 87
f 64 91 92
f 64 98 91
f 64 99 98
f 64 97 99
f 64 90 97
f 64 89 90
f 64 96 89
f 64 95 96
f 64 86 95
f 99 97 79
f 79 78 99
f 98 99 78
f 78 77 98
