# City room prop — unit cell 0..1
o kitchenCabinet
v 0.930000 0.950000 0.890000
v 0.930000 0.950000 0.950000
v 0.070000 0.950000 0.890000
v 0.070000 0.950000 0.950000
v 0.930000 0.830000 0.950000
v 0.070000 0.830000 0.950000
v 0.930000 0.830000 0.090000
v 0.930000 0.830000 0.050000
v 0.070000 0.830000 0.090000
v 0.070000 0.830000 0.050000
v 0.930000 0.890000 0.890000
v 0.930000 0.890000 0.050000
v 0.070000 0.890000 0.050000
v 0.070000 0.890000 0.890000
v 0.930000 0.050000 0.950000
v 0.930000 0.050000 0.130000
v 0.070000 0.050000 0.950000
v 0.070000 0.050000 0.130000
v 0.876312 0.525086 0.130000
v 0.876312 0.525086 0.850000
v 0.123688 0.525086 0.130000
v 0.123688 0.525086 0.850000
v 0.876312 0.220172 0.090000
v 0.876312 0.220172 0.850000
v 0.123688 0.220172 0.090000
v 0.123688 0.220172 0.850000
v 0.123688 0.776312 0.850000
v 0.876312 0.776312 0.850000
v 0.876312 0.776312 0.090000
v 0.123688 0.776312 0.090000
v 0.930000 0.166484 0.130000
v 0.930000 0.166484 0.090000
v 0.070000 0.166484 0.130000
v 0.070000 0.166484 0.090000
v 0.123688 0.471398 0.130000
v 0.123688 0.471398 0.850000
v 0.876312 0.471398 0.850000
v 0.876312 0.471398 0.130000
v 0.876312 0.220172 0.130000
v 0.123688 0.220172 0.130000
v 0.876312 0.776312 0.130000
v 0.123688 0.776312 0.130000
v 0.876312 0.220172 0.090000
v 0.123688 0.220172 0.090000
v 0.876312 0.776312 0.090000
v 0.123688 0.776312 0.090000
v 0.835628 0.260856 0.090000
v 0.214372 0.655628 0.090000
v 0.164372 0.260856 0.090000
v 0.164372 0.735628 0.090000
v 0.214372 0.695628 0.090000
v 0.374372 0.695628 0.090000
v 0.374372 0.655628 0.090000
v 0.835628 0.735628 0.090000
v 0.214372 0.655628 0.050000
v 0.374372 0.655628 0.050000
v 0.214372 0.675628 0.050000
v 0.374372 0.675628 0.050000
v 0.214372 0.695628 0.070000
v 0.374372 0.695628 0.070000
f 2 1 3
f 3 4 2
f 6 5 2
f 2 4 6
f 8 7 9
f 9 10 8
f 11 1 2
f 11 2 5
f 11 5 7
f 11 7 8
f 8 12 11
f 13 10 9
f 9 14 13
f 9 6 14
f 6 3 14
f 6 4 3
f 8 10 13
f 13 12 8
f 11 14 3
f 3 1 11
f 11 12 13
f 13 14 11
f 16 15 17
f 17 18 16
f 20 19 21
f 21 22 20
f 24 23 25
f 25 26 24
f 20 22 27
f 27 28 20
f 29 28 27
f 27 30 29
f 32 31 33
f 33 34 32
f 21 25 30
f 30 27 21
f 27 22 21
f 25 21 35
f 35 26 25
f 35 36 26
f 16 18 33
f 33 31 16
f 33 18 17
f 33 17 6
f 33 6 9
f 9 34 33
f 32 7 5
f 5 31 32
f 5 16 31
f 5 15 16
f 24 26 36
f 36 37 24
f 5 7 9
f 9 6 5
f 17 15 5
f 5 6 17
f 38 37 36
f 36 35 38
f 38 35 21
f 21 19 38
f 38 29 23
f 23 24 38
f 24 37 38
f 29 38 19
f 19 28 29
f 19 20 28
f 25 32 34
f 34 9 25
f 9 30 25
f 9 29 30
f 32 25 23
f 23 7 32
f 23 29 7
f 29 9 7
f 40 39 41
f 41 42 40
f 43 39 40
f 40 44 43
f 41 45 46
f 46 42 41
f 46 44 40
f 40 42 46
f 43 45 41
f 41 39 43
f 48 47 49
f 49 50 48
f 50 51 48
f 50 52 51
f 47 48 53
f 53 54 47
f 53 52 54
f 52 50 54
f 49 43 44
f 44 46 49
f 46 50 49
f 46 54 50
f 43 49 47
f 47 45 43
f 47 54 45
f 54 46 45
f 56 55 57
f 57 58 56
f 56 53 48
f 48 55 56
f 57 55 48
f 48 59 57
f 48 51 59
f 52 60 59
f 59 51 52
f 56 58 60
f 60 53 56
f 60 52 53
f 58 57 59
f 59 60 58
