# City room prop — unit cell 0..1
o lampSquareCeiling
v 0.346684 0.636957 0.346684
v 0.346684 0.050000 0.346684
v 0.346684 0.636957 0.653316
v 0.346684 0.050000 0.653316
v 0.653316 0.050000 0.653316
v 0.653316 0.636957 0.653316
v 0.653316 0.050000 0.346684
v 0.653316 0.636957 0.346684
v 0.734783 0.636957 0.734783
v 0.734783 0.636957 0.265217
v 0.265217 0.636957 0.265217
v 0.265217 0.636957 0.734783
v 0.734783 0.050000 0.265217
v 0.734783 0.050000 0.734783
v 0.265217 0.050000 0.265217
v 0.265217 0.050000 0.734783
v 0.464496 0.147826 0.464496
v 0.535504 0.147826 0.464496
v 0.464496 0.871739 0.464496
v 0.535504 0.871739 0.464496
v 0.535504 0.871739 0.535504
v 0.535504 0.147826 0.535504
v 0.464496 0.147826 0.535504
v 0.653316 0.950000 0.346684
v 0.653316 0.871739 0.346684
v 0.653316 0.950000 0.653316
v 0.653316 0.871739 0.653316
v 0.346684 0.871739 0.346684
v 0.346684 0.950000 0.346684
v 0.346684 0.950000 0.653316
v 0.346684 0.871739 0.653316
v 0.464496 0.871739 0.535504
f 2 1 3
f 3 4 2
f 5 4 3
f 3 6 5
f 2 7 8
f 8 1 2
f 8 9 10
f 10 11 8
f 11 1 8
f 11 3 1
f 9 8 6
f 6 12 9
f 6 3 12
f 3 11 12
f 13 10 9
f 9 14 13
f 13 15 11
f 11 10 13
f 16 14 9
f 9 12 16
f 5 13 14
f 14 16 5
f 16 4 5
f 16 2 4
f 13 5 7
f 7 15 13
f 7 2 15
f 2 16 15
f 11 15 16
f 16 12 11
f 8 7 5
f 5 6 8
f 18 17 19
f 19 20 18
f 18 20 21
f 21 22 18
f 18 22 23
f 23 17 18
f 25 24 26
f 26 27 25
f 25 28 29
f 29 24 25
f 26 24 29
f 29 30 26
f 21 25 27
f 27 31 21
f 31 32 21
f 31 19 32
f 25 21 20
f 20 28 25
f 20 19 28
f 19 31 28
f 23 22 21
f 21 32 23
f 31 27 26
f 26 30 31
f 29 28 31
f 31 30 29
f 19 17 23
f 23 32 19
