# City room prop — unit cell 0..1
o lampRoundTable
v 0.525985 0.107279 0.525985
v 0.474015 0.107279 0.525985
v 0.525985 0.665752 0.525985
v 0.474015 0.665752 0.525985
v 0.474015 0.107279 0.474015
v 0.525985 0.107279 0.474015
v 0.474015 0.665752 0.474015
v 0.525985 0.665752 0.474015
v 0.328162 0.050000 0.328162
v 0.671838 0.050000 0.328162
v 0.328162 0.107279 0.328162
v 0.671838 0.107279 0.328162
v 0.671838 0.050000 0.671838
v 0.328162 0.050000 0.671838
v 0.671838 0.107279 0.671838
v 0.328162 0.107279 0.671838
v 0.388880 0.438783 0.564155
v 0.500000 0.438783 0.628310
v 0.388880 0.950000 0.564155
v 0.500000 0.950000 0.628310
v 0.611120 0.438783 0.435845
v 0.611120 0.950000 0.435845
v 0.611120 0.438783 0.564155
v 0.611120 0.950000 0.564155
v 0.388880 0.950000 0.435845
v 0.388880 0.438783 0.435845
v 0.500000 0.438783 0.371690
v 0.500000 0.950000 0.371690
v 0.717718 0.438783 0.625699
v 0.500000 0.438783 0.751399
v 0.282282 0.438783 0.625699
v 0.717718 0.438783 0.374301
v 0.500000 0.438783 0.248601
v 0.282282 0.438783 0.374301
v 0.654579 0.950000 0.589246
v 0.654579 0.950000 0.410754
v 0.500000 0.950000 0.321507
v 0.345421 0.950000 0.410754
v 0.500000 0.950000 0.678493
v 0.345421 0.950000 0.589246
f 2 1 3
f 3 4 2
f 6 5 7
f 7 8 6
f 10 9 11
f 11 12 10
f 14 13 15
f 15 16 14
f 10 13 14
f 14 9 10
f 7 5 2
f 2 4 7
f 6 15 12
f 12 11 6
f 11 5 6
f 11 2 5
f 15 6 1
f 1 16 15
f 1 2 16
f 2 11 16
f 11 9 14
f 14 16 11
f 10 12 15
f 15 13 10
f 6 8 3
f 3 1 6
f 3 8 7
f 7 4 3
f 18 17 19
f 19 20 18
f 22 21 23
f 23 24 22
f 26 25 19
f 19 17 26
f 23 18 20
f 20 24 23
f 26 27 28
f 28 25 26
f 27 21 22
f 22 28 27
f 23 29 30
f 30 18 23
f 30 31 18
f 31 17 18
f 31 26 17
f 29 23 21
f 32 29 21
f 21 33 32
f 21 27 33
f 27 34 33
f 27 26 34
f 26 31 34
f 22 35 36
f 36 37 22
f 37 28 22
f 37 38 28
f 38 25 28
f 38 19 25
f 35 22 24
f 24 39 35
f 24 20 39
f 20 19 39
f 19 40 39
f 19 38 40
f 32 33 37
f 37 36 32
f 29 32 36
f 36 35 29
f 38 34 31
f 31 40 38
f 31 30 39
f 39 40 31
f 33 34 38
f 38 37 33
f 30 29 35
f 35 39 30
