# City room prop — unit cell 0..1
o lampSquareFloor
v 0.437209 0.196512 0.437209
v 0.437209 0.950000 0.437209
v 0.437209 0.196512 0.562791
v 0.437209 0.950000 0.562791
v 0.562791 0.196512 0.562791
v 0.562791 0.950000 0.562791
v 0.562791 0.196512 0.437209
v 0.562791 0.950000 0.437209
v 0.541003 0.950000 0.458997
v 0.458997 0.950000 0.458997
v 0.458997 0.950000 0.541003
v 0.541003 0.950000 0.541003
v 0.541003 0.196512 0.541003
v 0.458997 0.196512 0.541003
v 0.458997 0.196512 0.458997
v 0.541003 0.196512 0.458997
v 0.509495 0.070930 0.509495
v 0.490505 0.070930 0.509495
v 0.509495 0.855814 0.509495
v 0.490505 0.855814 0.509495
v 0.490505 0.070930 0.490505
v 0.509495 0.070930 0.490505
v 0.490505 0.855814 0.490505
v 0.509495 0.855814 0.490505
v 0.437209 0.050000 0.437209
v 0.562791 0.050000 0.437209
v 0.437209 0.070930 0.437209
v 0.562791 0.070930 0.437209
v 0.562791 0.050000 0.562791
v 0.437209 0.050000 0.562791
v 0.562791 0.070930 0.562791
v 0.437209 0.070930 0.562791
f 2 1 3
f 3 4 2
f 3 5 6
f 6 4 3
f 7 1 2
f 2 8 7
f 9 6 8
f 8 2 9
f 2 10 9
f 2 11 10
f 6 9 12
f 12 4 6
f 12 11 4
f 11 2 4
f 7 8 6
f 6 5 7
f 13 7 5
f 5 3 13
f 3 14 13
f 3 15 14
f 7 13 16
f 16 1 7
f 16 15 1
f 15 3 1
f 9 16 13
f 13 12 9
f 15 16 9
f 9 10 15
f 13 14 11
f 11 12 13
f 15 10 11
f 11 14 15
f 18 17 19
f 19 20 18
f 22 21 23
f 23 24 22
f 26 25 27
f 27 28 26
f 30 29 31
f 31 32 30
f 26 29 30
f 30 25 26
f 23 21 18
f 18 20 23
f 22 31 28
f 28 27 22
f 27 21 22
f 27 18 21
f 31 22 17
f 17 32 31
f 17 18 32
f 18 27 32
f 27 25 30
f 30 32 27
f 26 28 31
f 31 29 26
f 22 24 19
f 19 17 22
f 19 24 23
f 23 20 19
