# City room prop — voxel footprint 1x2x1 (0.5 m cells)
o lanternGlass
v 0.500000 1.087410 0.591023
v 0.500000 1.087410 0.408977
v 0.371274 1.140730 0.591023
v 0.371274 1.140730 0.408977
v 0.682046 1.269456 0.408977
v 0.628726 1.140730 0.408977
v 0.682046 1.269456 0.591023
v 0.628726 1.140730 0.591023
v 0.317954 1.269456 0.408977
v 0.371274 1.398181 0.408977
v 0.317954 1.269456 0.591023
v 0.371274 1.398181 0.591023
v 0.500000 1.451501 0.408977
v 0.500000 1.451501 0.591023
v 0.628726 1.398181 0.408977
v 0.628726 1.398181 0.591023
v 0.263341 0.222046 0.263341
v 0.263341 0.841001 0.263341
v 0.226931 0.222046 0.500000
v 0.226931 0.841001 0.500000
v 0.736659 0.222046 0.736659
v 0.500000 0.222046 0.773069
v 0.736659 0.841001 0.736659
v 0.500000 0.841001 0.773069
v 0.736659 0.841001 0.263341
v 0.736659 0.222046 0.263341
v 0.773069 0.841001 0.500000
v 0.773069 0.222046 0.500000
v 0.500000 0.222046 0.226931
v 0.500000 0.841001 0.226931
v 0.263341 0.222046 0.736659
v 0.263341 0.841001 0.736659
v 0.727557 0.222046 0.856283
v 0.598831 0.222046 0.727557
v 0.727557 0.841001 0.856283
v 0.598831 0.841001 0.727557
v 0.727557 0.222046 0.598831
v 0.727557 0.841001 0.598831
v 0.856283 0.222046 0.727557
v 0.856283 0.841001 0.727557
v 0.401169 0.222046 0.727557
v 0.272443 0.222046 0.856283
v 0.401169 0.841001 0.727557
v 0.272443 0.841001 0.856283
v 0.143717 0.222046 0.727557
v 0.143717 0.841001 0.727557
v 0.272443 0.222046 0.598831
v 0.272443 0.841001 0.598831
v 0.856283 0.222046 0.272443
v 0.727557 0.222046 0.401169
v 0.856283 0.841001 0.272443
v 0.727557 0.841001 0.401169
v 0.598831 0.222046 0.272443
v 0.598831 0.841001 0.272443
v 0.727557 0.222046 0.143717
v 0.727557 0.841001 0.143717
v 0.272443 0.222046 0.401169
v 0.143717 0.222046 0.272443
v 0.272443 0.841001 0.401169
v 0.143717 0.841001 0.272443
v 0.272443 0.222046 0.143717
v 0.272443 0.841001 0.143717
v 0.401169 0.222046 0.272443
v 0.401169 0.841001 0.272443
v 0.809478 0.040000 0.900501
v 0.500000 0.040000 0.936910
v 0.809478 0.222046 0.900501
v 0.500000 0.222046 0.936910
v 0.190522 0.040000 0.099499
v 0.500000 0.040000 0.063090
v 0.190522 0.222046 0.099499
v 0.500000 0.222046 0.063090
v 0.900501 0.222046 0.190522
v 0.900501 0.040000 0.190522
v 0.936910 0.222046 0.500000
v 0.936910 0.040000 0.500000
v 0.063090 0.040000 0.500000
v 0.063090 0.222046 0.500000
v 0.099499 0.040000 0.809478
v 0.099499 0.222046 0.809478
v 0.099499 0.040000 0.190522
v 0.099499 0.222046 0.190522
v 0.900501 0.222046 0.809478
v 0.900501 0.040000 0.809478
v 0.190522 0.040000 0.900501
v 0.190522 0.222046 0.900501
v 0.809478 0.222046 0.099499
v 0.809478 0.040000 0.099499
v 0.818580 1.205093 0.500000
v 0.773069 1.205093 0.773069
v 0.773069 1.205093 0.226931
v 0.500000 1.205093 0.181420
v 0.500000 1.205093 0.818580
v 0.226931 1.205093 0.226931
v 0.226931 1.205093 0.773069
v 0.181420 1.205093 0.500000
v 0.500000 1.023047 0.818580
v 0.226931 1.023047 0.773069
v 0.773069 1.023047 0.226931
v 0.818580 1.023047 0.500000
v 0.226931 1.023047 0.226931
v 0.500000 1.023047 0.181420
v 0.181420 1.023047 0.500000
v 0.773069 1.023047 0.773069
v 0.809478 0.841001 0.900501
v 0.500000 0.841001 0.936910
v 0.809478 1.023047 0.900501
v 0.500000 1.023047 0.936910
v 0.190522 0.841001 0.099499
v 0.500000 0.841001 0.063090
v 0.190522 1.023047 0.099499
v 0.500000 1.023047 0.063090
v 0.900501 1.023047 0.190522
v 0.900501 0.841001 0.190522
v 0.936910 1.023047 0.500000
v 0.936910 0.841001 0.500000
v 0.063090 0.841001 0.500000
v 0.063090 1.023047 0.500000
v 0.099499 0.841001 0.809478
v 0.099499 1.023047 0.809478
v 0.099499 0.841001 0.190522
v 0.099499 1.023047 0.190522
v 0.900501 1.023047 0.809478
v 0.900501 0.841001 0.809478
v 0.190522 0.841001 0.900501
v 0.190522 1.023047 0.900501
v 0.809478 1.023047 0.099499
v 0.809478 0.841001 0.099499
f 3 2 1
f 2 3 4
f 7 6 5
f 6 7 8
f 11 10 9
f 10 11 12
f 10 14 13
f 14 10 12
f 15 7 5
f 7 15 16
f 1 6 8
f 6 1 2
f 13 16 15
f 16 13 14
f 3 9 4
f 9 3 11
f 4 6 2
f 6 4 9
f 6 9 5
f 5 9 10
f 5 10 15
f 15 10 13
f 8 3 1
f 3 8 7
f 3 7 11
f 11 7 16
f 11 16 12
f 12 16 14
f 19 18 17
f 18 19 20
f 23 22 21
f 22 23 24
f 27 26 25
f 26 27 28
f 18 29 17
f 29 18 30
f 31 20 19
f 20 31 32
f 24 31 22
f 31 24 32
f 23 28 27
f 28 23 21
f 30 26 29
f 26 30 25
f 35 34 33
f 34 35 36
f 34 38 37
f 38 34 36
f 38 39 37
f 39 38 40
f 35 39 40
f 39 35 33
f 43 42 41
f 42 43 44
f 42 46 45
f 46 42 44
f 46 47 45
f 47 46 48
f 43 47 48
f 47 43 41
f 51 50 49
f 50 51 52
f 50 54 53
f 54 50 52
f 54 55 53
f 55 54 56
f 51 55 56
f 55 51 49
f 59 58 57
f 58 59 60
f 58 62 61
f 62 58 60
f 62 63 61
f 63 62 64
f 59 63 64
f 63 59 57
f 67 66 65
f 66 67 68
f 71 70 69
f 70 71 72
f 75 74 73
f 74 75 76
f 79 78 77
f 78 79 80
f 81 71 69
f 71 81 82
f 67 84 83
f 84 67 65
f 85 80 79
f 80 85 86
f 73 88 87
f 88 73 74
f 73 83 75
f 83 73 87
f 83 87 67
f 67 87 72
f 67 72 68
f 68 72 71
f 68 71 86
f 86 71 82
f 86 82 80
f 80 82 78
f 84 74 76
f 74 84 65
f 74 65 88
f 88 65 66
f 88 66 70
f 70 66 85
f 70 85 69
f 69 85 79
f 69 79 81
f 81 79 77
f 68 85 66
f 85 68 86
f 83 76 75
f 76 83 84
f 77 82 81
f 82 77 78
f 72 88 70
f 88 72 87
f 91 90 89
f 90 91 92
f 90 92 93
f 93 92 94
f 93 94 95
f 95 94 96
f 93 98 97
f 98 93 95
f 89 99 91
f 99 89 100
f 94 102 101
f 102 94 92
f 103 94 101
f 94 103 96
f 98 96 103
f 96 98 95
f 90 97 104
f 97 90 93
f 90 100 89
f 100 90 104
f 92 99 102
f 99 92 91
f 107 106 105
f 106 107 108
f 111 110 109
f 110 111 112
f 115 114 113
f 114 115 116
f 119 118 117
f 118 119 120
f 121 111 109
f 111 121 122
f 107 124 123
f 124 107 105
f 125 120 119
f 120 125 126
f 113 128 127
f 128 113 114
f 113 123 115
f 123 113 127
f 123 127 107
f 107 127 112
f 107 112 108
f 108 112 111
f 108 111 126
f 126 111 122
f 126 122 120
f 120 122 118
f 124 114 116
f 114 124 105
f 114 105 128
f 128 105 106
f 128 106 110
f 110 106 125
f 110 125 109
f 109 125 119
f 109 119 121
f 121 119 117
f 108 125 106
f 125 108 126
f 123 116 115
f 116 123 124
f 117 122 121
f 122 117 118
f 112 128 110
f 128 112 127
f 3 2 1
f 2 3 4
f 7 6 5
f 6 7 8
f 11 10 9
f 10 11 12
f 10 14 13
f 14 10 12
f 15 7 5
f 7 15 16
f 1 6 8
f 6 1 2
f 13 16 15
f 16 13 14
f 3 9 4
f 9 3 11
f 4 6 2
f 6 4 9
f 6 9 5
f 5 9 10
f 5 10 15
f 15 10 13
f 8 3 1
f 3 8 7
f 3 7 11
f 11 7 16
f 11 16 12
f 12 16 14
f 19 18 17
f 18 19 20
f 23 22 21
f 22 23 24
f 27 26 25
f 26 27 28
f 18 29 17
f 29 18 30
f 31 20 19
f 20 31 32
f 24 31 22
f 31 24 32
f 23 28 27
f 28 23 21
f 30 26 29
f 26 30 25
f 35 34 33
f 34 35 36
f 34 38 37
f 38 34 36
f 38 39 37
f 39 38 40
f 35 39 40
f 39 35 33
f 43 42 41
f 42 43 44
f 42 46 45
f 46 42 44
f 46 47 45
f 47 46 48
f 43 47 48
f 47 43 41
f 51 50 49
f 50 51 52
f 50 54 53
f 54 50 52
f 54 55 53
f 55 54 56
f 51 55 56
f 55 51 49
f 59 58 57
f 58 59 60
f 58 62 61
f 62 58 60
f 62 63 61
f 63 62 64
f 59 63 64
f 63 59 57
f 67 66 65
f 66 67 68
f 71 70 69
f 70 71 72
f 75 74 73
f 74 75 76
f 79 78 77
f 78 79 80
f 81 71 69
f 71 81 82
f 67 84 83
f 84 67 65
f 85 80 79
f 80 85 86
f 73 88 87
f 88 73 74
f 73 83 75
f 83 73 87
f 83 87 67
f 67 87 72
f 67 72 68
f 68 72 71
f 68 71 86
f 86 71 82
f 86 82 80
f 80 82 78
f 84 74 76
f 74 84 65
f 74 65 88
f 88 65 66
f 88 66 70
f 70 66 85
f 70 85 69
f 69 85 79
f 69 79 81
f 81 79 77
f 68 85 66
f 85 68 86
f 83 76 75
f 76 83 84
f 77 82 81
f 82 77 78
f 72 88 70
f 88 72 87
f 91 90 89
f 90 91 92
f 90 92 93
f 93 92 94
f 93 94 95
f 95 94 96
f 93 98 97
f 98 93 95
f 89 99 91
f 99 89 100
f 94 102 101
f 102 94 92
f 103 94 101
f 94 103 96
f 98 96 103
f 96 98 95
f 90 97 104
f 97 90 93
f 90 100 89
f 100 90 104
f 92 99 102
f 99 92 91
f 107 106 105
f 106 107 108
f 111 110 109
f 110 111 112
f 115 114 113
f 114 115 116
f 119 118 117
f 118 119 120
f 121 111 109
f 111 121 122
f 107 124 123
f 124 107 105
f 125 120 119
f 120 125 126
f 113 128 127
f 128 113 114
f 113 123 115
f 123 113 127
f 123 127 107
f 107 127 112
f 107 112 108
f 108 112 111
f 108 111 126
f 126 111 122
f 126 122 120
f 120 122 118
f 124 114 116
f 114 124 105
f 114 105 128
f 128 105 106
f 128 106 110
f 110 106 125
f 110 125 109
f 109 125 119
f 109 119 121
f 121 119 117
f 108 125 106
f 125 108 126
f 123 116 115
f 116 123 124
f 117 122 121
f 122 117 118
f 112 128 110
f 128 112 127
