# City room prop — voxel footprint 2x1x2 (0.5 m cells)
o laptop
v 1.561702 0.040000 1.213033
v 1.561702 0.040000 0.526670
v 0.438298 0.040000 1.213033
v 1.524255 0.040000 0.489223
v 0.475745 0.040000 0.489223
v 0.438298 0.040000 0.526670
v 1.524255 0.096170 0.489223
v 1.561702 0.096170 0.526670
v 0.438298 0.096170 0.526670
v 0.475745 0.096170 0.489223
v 1.561702 0.694368 1.444212
v 1.561702 0.671432 1.495486
v 1.524255 0.728551 1.459503
v 1.524255 0.705614 1.510777
v 1.561702 0.096170 1.176625
v 0.513766 0.165060 1.207441
v 0.438298 0.096170 1.176625
v 0.438298 0.694368 1.444212
v 0.513766 0.659661 1.428687
v 1.486234 0.659661 1.428687
v 1.486234 0.165060 1.207441
v 0.475745 0.728551 1.459503
v 0.438298 0.671432 1.495486
v 0.475745 0.705614 1.510777
v 1.452510 0.096170 0.779683
v 1.221755 0.096170 0.570037
v 1.015798 0.096170 0.570037
v 1.015798 0.096170 0.682664
v 0.806804 0.096170 0.779683
v 0.751494 0.096170 0.779683
v 0.806804 0.096170 1.077930
v 0.530591 0.096170 0.779683
v 0.530591 0.096170 1.077930
v 1.452510 0.096170 1.077930
v 0.751494 0.096170 1.077930
v 1.221755 0.096170 0.682664
f 2 1 3
f 3 4 2
f 3 5 4
f 3 6 5
f 2 4 7
f 7 8 2
f 5 6 9
f 9 10 5
f 4 5 10
f 10 7 4
f 12 11 13
f 13 14 12
f 16 15 17
f 17 18 16
f 18 19 16
f 18 20 19
f 15 16 21
f 21 11 15
f 21 20 11
f 20 18 11
f 18 22 11
f 22 13 11
f 2 8 15
f 15 1 2
f 15 11 1
f 11 12 1
f 22 18 23
f 23 24 22
f 14 13 22
f 22 24 14
f 3 1 12
f 12 23 3
f 12 14 23
f 14 24 23
f 26 25 7
f 7 10 26
f 10 27 26
f 10 28 27
f 10 29 28
f 10 30 29
f 30 31 29
f 10 32 30
f 10 33 32
f 7 25 34
f 7 34 15
f 15 8 7
f 34 17 15
f 34 31 17
f 33 10 17
f 31 35 17
f 31 30 35
f 35 33 17
f 10 9 17
f 36 28 29
f 36 29 25
f 25 26 36
f 9 6 3
f 3 17 9
f 3 18 17
f 3 23 18
f 21 16 19
f 19 20 21
f 36 26 27
f 27 28 36
f 34 25 29
f 29 31 34
f 35 30 32
f 32 33 35
