# City room prop — voxel footprint 1x5x2 (0.5 m cells)
o lightpostSingle
v 0.702478 4.639818 0.523580
v 0.601233 4.639818 0.698924
v 0.601233 4.639818 0.348237
v 0.398766 4.639818 0.348237
v 0.398766 4.639818 0.698924
v 0.297520 4.639818 0.523580
v 0.731963 4.114070 0.523580
v 0.615974 4.114070 0.322704
v 0.615974 4.114070 0.724457
v 0.384024 4.114070 0.724457
v 0.384024 4.114070 0.322704
v 0.268035 4.114070 0.523580
v 0.360270 4.259707 0.281561
v 0.639728 4.259707 0.281561
v 0.779474 4.259707 0.523580
v 0.639728 4.259707 0.765600
v 0.220525 4.259707 0.523580
v 0.360270 4.259707 0.765600
v 0.387131 4.317962 0.676053
v 0.387131 4.543698 0.676053
v 0.398418 4.374396 0.837455
v 0.409705 4.402613 0.998856
v 0.420991 4.402613 1.160258
v 0.432278 4.374396 1.321660
v 0.443565 4.543698 1.483061
v 0.443565 4.317962 1.483061
v 0.398418 4.600132 0.837455
v 0.432278 4.600132 1.321660
v 0.409705 4.628349 0.998856
v 0.420991 4.628349 1.160258
v 0.567720 4.600132 1.321660
v 0.556433 4.543698 1.483061
v 0.612868 4.317962 0.676053
v 0.601581 4.374396 0.837455
v 0.601581 4.600132 0.837455
v 0.590294 4.628349 0.998856
v 0.579007 4.628349 1.160258
v 0.590294 4.402613 0.998856
v 0.579007 4.402613 1.160258
v 0.567720 4.374396 1.321660
v 0.612868 4.543698 0.676053
v 0.556433 4.317962 1.483061
v 0.243944 1.377615 0.523580
v 0.243944 1.475424 0.523580
v 0.371975 1.377615 0.745330
v 0.371975 1.475424 0.745330
v 0.371975 1.377615 0.301831
v 0.371975 1.475424 0.301831
v 0.756054 1.475424 0.523580
v 0.756054 1.377615 0.523580
v 0.628023 1.475424 0.745330
v 0.628023 1.377615 0.745330
v 0.430417 1.655405 0.403062
v 0.360834 1.655405 0.523580
v 0.628023 1.475424 0.301831
v 0.569582 1.655405 0.403062
v 0.628023 1.377615 0.301831
v 0.569582 1.655405 0.644099
v 0.430417 1.655405 0.644099
v 0.639164 1.655405 0.523580
v 0.619272 0.369007 0.730168
v 0.380727 0.369007 0.730168
v 0.645202 1.140339 0.775075
v 0.354797 1.140339 0.775075
v 0.354797 1.140339 0.272086
v 0.209599 1.140339 0.523580
v 0.380727 0.369007 0.316993
v 0.261455 0.369007 0.523580
v 0.619272 0.369007 0.316993
v 0.645202 1.140339 0.272086
v 0.790399 1.140339 0.523580
v 0.738544 0.369007 0.523580
v 0.601371 1.304797 0.347996
v 0.702742 1.304797 0.523580
v 0.398628 1.304797 0.347996
v 0.297257 1.304797 0.523580
v 0.601371 1.304797 0.699164
v 0.398628 1.304797 0.699164
v 0.414012 4.114070 0.374645
v 0.585986 4.114070 0.374645
v 0.671984 4.114070 0.523580
v 0.639164 1.655405 0.523580
v 0.585986 4.114070 0.672516
v 0.414012 4.114070 0.672516
v 0.360834 1.655405 0.523580
v 0.328015 4.114070 0.523580
v 0.697975 3.580585 1.776097
v 0.585983 3.580585 1.664106
v 0.697975 4.119077 1.776097
v 0.585983 4.119077 1.664106
v 0.697975 3.580585 1.552115
v 0.697975 4.119077 1.552115
v 0.809966 3.580585 1.664106
v 0.809966 4.119077 1.664106
v 0.414016 3.580585 1.664106
v 0.302025 3.580585 1.776097
v 0.414016 4.119077 1.664106
v 0.302025 4.119077 1.776097
v 0.190033 3.580585 1.664106
v 0.190033 4.119077 1.664106
v 0.302025 3.580585 1.552115
v 0.302025 4.119077 1.552115
v 0.809966 3.580585 1.268156
v 0.697975 3.580585 1.380148
v 0.809966 4.119077 1.268156
v 0.697975 4.119077 1.380148
v 0.585983 3.580585 1.268156
v 0.585983 4.119077 1.268156
v 0.697975 3.580585 1.156165
v 0.697975 4.119077 1.156165
v 0.302025 3.580585 1.380148
v 0.190033 3.580585 1.268156
v 0.302025 4.119077 1.380148
v 0.190033 4.119077 1.268156
v 0.302025 3.580585 1.156165
v 0.302025 4.119077 1.156165
v 0.414016 3.580585 1.268156
v 0.414016 4.119077 1.268156
v 0.769246 3.422205 1.814567
v 0.500000 3.422205 1.846243
v 0.769246 3.580585 1.814567
v 0.500000 3.580585 1.846243
v 0.230755 3.422205 1.117696
v 0.500000 3.422205 1.086020
v 0.230755 3.580585 1.117696
v 0.500000 3.580585 1.086020
v 0.848436 3.580585 1.196886
v 0.848436 3.422205 1.196886
v 0.880111 3.580585 1.466131
v 0.880111 3.422205 1.466131
v 0.119889 3.422205 1.466131
v 0.119889 3.580585 1.466131
v 0.151565 3.422205 1.735377
v 0.151565 3.580585 1.735377
v 0.151565 3.422205 1.196886
v 0.151565 3.580585 1.196886
v 0.848436 3.580585 1.735377
v 0.848436 3.422205 1.735377
v 0.230755 3.422205 1.814567
v 0.230755 3.580585 1.814567
v 0.769246 3.580585 1.117696
v 0.769246 3.422205 1.117696
v 0.777165 4.435836 1.466131
v 0.737570 4.435836 1.703701
v 0.737570 4.435836 1.228561
v 0.500000 4.435836 1.188967
v 0.500000 4.435836 1.743296
v 0.262430 4.435836 1.228561
v 0.262430 4.435836 1.703701
v 0.222836 4.435836 1.466131
v 0.500000 4.277456 1.743296
v 0.262430 4.277456 1.703701
v 0.737570 4.277456 1.228561
v 0.777165 4.277456 1.466131
v 0.262430 4.277456 1.228561
v 0.500000 4.277456 1.188967
v 0.222836 4.277456 1.466131
v 0.737570 4.277456 1.703701
v 0.769246 4.119077 1.814567
v 0.500000 4.119077 1.846243
v 0.769246 4.277456 1.814567
v 0.500000 4.277456 1.846243
v 0.230755 4.119077 1.117696
v 0.500000 4.119077 1.086020
v 0.230755 4.277456 1.117696
v 0.500000 4.277456 1.086020
v 0.848436 4.277456 1.196886
v 0.848436 4.119077 1.196886
v 0.880111 4.277456 1.466131
v 0.880111 4.119077 1.466131
v 0.119889 4.119077 1.466131
v 0.119889 4.277456 1.466131
v 0.151565 4.119077 1.735377
v 0.151565 4.277456 1.735377
v 0.151565 4.119077 1.196886
v 0.151565 4.277456 1.196886
v 0.848436 4.277456 1.735377
v 0.848436 4.119077 1.735377
v 0.230755 4.119077 1.814567
v 0.230755 4.277456 1.814567
v 0.769246 4.277456 1.117696
v 0.769246 4.119077 1.117696
v 0.377118 4.435836 1.343250
v 0.499999 4.435836 1.322770
v 0.399237 4.651560 1.365369
v 0.499999 4.651560 1.348575
v 0.356638 4.435836 1.466131
v 0.382443 4.651560 1.466131
v 0.377118 4.435836 1.589012
v 0.399237 4.651560 1.566893
v 0.499999 4.435836 1.609492
v 0.499999 4.651560 1.583687
v 0.622880 4.435836 1.343250
v 0.600762 4.651560 1.365369
v 0.622880 4.435836 1.589012
v 0.600762 4.651560 1.566893
v 0.643360 4.435836 1.466131
v 0.617555 4.651560 1.466131
v 0.778272 0.040000 0.893403
v 0.221727 0.040000 0.893403
v 0.748685 0.369007 0.863817
v 0.251314 0.369007 0.863817
v 0.221727 0.040000 0.153757
v 0.778272 0.040000 0.153757
v 0.251314 0.369007 0.183344
v 0.748685 0.369007 0.183344
v 0.130176 0.040000 0.245308
v 0.159763 0.369007 0.274895
v 0.130176 0.040000 0.801853
v 0.159763 0.369007 0.772266
v 0.869822 0.040000 0.245308
v 0.869822 0.040000 0.801853
v 0.840235 0.369007 0.274895
v 0.840235 0.369007 0.772266
v 0.294106 3.580585 1.260237
v 0.294106 4.119077 1.260237
v 0.262430 3.580585 1.466131
v 0.262430 4.119077 1.466131
v 0.705894 3.580585 1.672025
v 0.500000 3.580585 1.703701
v 0.705894 4.119077 1.672025
v 0.500000 4.119077 1.703701
v 0.705894 4.119077 1.260237
v 0.705894 3.580585 1.260237
v 0.737570 4.119077 1.466131
v 0.737570 3.580585 1.466131
v 0.500000 3.580585 1.228561
v 0.500000 4.119077 1.228561
v 0.294106 3.580585 1.672025
v 0.294106 4.119077 1.672025
f 3 2 1
f 2 3 4
f 2 4 5
f 5 4 6
f 9 8 7
f 8 9 10
f 8 10 11
f 11 10 12
f 13 8 11
f 8 13 14
f 16 7 15
f 7 16 9
f 12 18 17
f 18 12 10
f 11 17 13
f 17 11 12
f 15 8 14
f 8 15 7
f 16 10 9
f 10 16 18
f 2 18 16
f 18 2 5
f 3 15 14
f 15 3 1
f 4 14 13
f 14 4 3
f 17 4 13
f 4 17 6
f 2 15 1
f 15 2 16
f 18 6 17
f 6 18 5
f 21 20 19
f 22 20 21
f 20 22 23
f 24 20 23
f 25 20 24
f 25 24 26
f 25 27 20
f 28 27 25
f 28 29 27
f 29 28 30
f 25 31 28
f 31 25 32
f 34 19 33
f 19 34 21
f 29 35 27
f 35 29 36
f 30 36 29
f 36 30 37
f 28 37 30
f 37 28 31
f 39 22 38
f 22 39 23
f 40 23 39
f 23 40 24
f 31 36 37
f 36 31 35
f 35 31 32
f 35 32 41
f 41 32 40
f 40 32 42
f 41 40 39
f 38 41 39
f 34 41 38
f 41 34 33
f 42 24 40
f 24 42 26
f 27 41 20
f 41 27 35
f 38 21 34
f 21 38 22
f 45 44 43
f 44 45 46
f 43 48 47
f 48 43 44
f 51 50 49
f 50 51 52
f 51 45 52
f 45 51 46
f 44 53 48
f 53 44 54
f 53 55 48
f 55 53 56
f 48 57 47
f 57 48 55
f 58 46 51
f 46 58 59
f 56 49 55
f 49 56 60
f 58 49 60
f 49 58 51
f 46 54 44
f 54 46 59
f 49 57 55
f 57 49 50
f 63 62 61
f 62 63 64
f 67 66 65
f 66 67 68
f 65 69 67
f 69 65 70
f 62 66 68
f 66 62 64
f 71 69 70
f 69 71 72
f 63 72 71
f 72 63 61
f 73 71 70
f 71 73 74
f 75 70 65
f 70 75 73
f 66 75 65
f 75 66 76
f 77 64 63
f 64 77 78
f 77 71 74
f 71 77 63
f 64 76 66
f 76 64 78
f 47 73 75
f 73 47 57
f 50 73 57
f 73 50 74
f 52 74 50
f 74 52 77
f 52 78 77
f 78 52 45
f 78 43 76
f 43 78 45
f 75 43 47
f 43 75 76
f 79 56 53
f 56 79 80
f 81 56 80
f 56 81 82
f 83 59 58
f 59 83 84
f 59 86 85
f 86 59 84
f 53 86 79
f 86 53 85
f 83 82 81
f 82 83 58
f 89 88 87
f 88 89 90
f 88 92 91
f 92 88 90
f 92 93 91
f 93 92 94
f 89 93 94
f 93 89 87
f 97 96 95
f 96 97 98
f 96 100 99
f 100 96 98
f 100 101 99
f 101 100 102
f 97 101 102
f 101 97 95
f 105 104 103
f 104 105 106
f 104 108 107
f 108 104 106
f 108 109 107
f 109 108 110
f 105 109 110
f 109 105 103
f 113 112 111
f 112 113 114
f 112 116 115
f 116 112 114
f 116 117 115
f 117 116 118
f 113 117 118
f 117 113 111
f 121 120 119
f 120 121 122
f 125 124 123
f 124 125 126
f 129 128 127
f 128 129 130
f 133 132 131
f 132 133 134
f 135 125 123
f 125 135 136
f 121 138 137
f 138 121 119
f 139 134 133
f 134 139 140
f 127 142 141
f 142 127 128
f 127 137 129
f 137 127 141
f 137 141 121
f 121 141 126
f 121 126 122
f 122 126 125
f 122 125 140
f 140 125 136
f 140 136 134
f 134 136 132
f 138 128 130
f 128 138 119
f 128 119 142
f 142 119 120
f 142 120 124
f 124 120 139
f 124 139 123
f 123 139 133
f 123 133 135
f 135 133 131
f 122 139 120
f 139 122 140
f 137 130 129
f 130 137 138
f 131 136 135
f 136 131 132
f 126 142 124
f 142 126 141
f 145 144 143
f 144 145 146
f 144 146 147
f 147 146 148
f 147 148 149
f 149 148 150
f 147 152 151
f 152 147 149
f 143 153 145
f 153 143 154
f 148 156 155
f 156 148 146
f 157 148 155
f 148 157 150
f 152 150 157
f 150 152 149
f 144 151 158
f 151 144 147
f 144 154 143
f 154 144 158
f 146 153 156
f 153 146 145
f 161 160 159
f 160 161 162
f 165 164 163
f 164 165 166
f 169 168 167
f 168 169 170
f 173 172 171
f 172 173 174
f 175 165 163
f 165 175 176
f 161 178 177
f 178 161 159
f 179 174 173
f 174 179 180
f 167 182 181
f 182 167 168
f 167 177 169
f 177 167 181
f 177 181 161
f 161 181 166
f 161 166 162
f 162 166 165
f 162 165 180
f 180 165 176
f 180 176 174
f 174 176 172
f 178 168 170
f 168 178 159
f 168 159 182
f 182 159 160
f 182 160 164
f 164 160 179
f 164 179 163
f 163 179 173
f 163 173 175
f 175 173 171
f 162 179 160
f 179 162 180
f 177 170 169
f 170 177 178
f 171 176 175
f 176 171 172
f 166 182 164
f 182 166 181
f 185 184 183
f 184 185 186
f 189 188 187
f 188 189 190
f 192 189 191
f 189 192 190
f 186 193 184
f 193 186 194
f 196 191 195
f 191 196 192
f 187 185 183
f 185 187 188
f 194 197 193
f 197 194 198
f 198 195 197
f 195 198 196
f 194 196 198
f 196 194 186
f 196 186 192
f 192 186 185
f 192 185 190
f 190 185 188
f 201 200 199
f 200 201 202
f 205 204 203
f 204 205 206
f 209 208 207
f 208 209 210
f 213 212 211
f 212 213 214
f 206 211 204
f 211 206 213
f 207 205 203
f 205 207 208
f 206 214 213
f 214 206 201
f 201 206 205
f 201 205 202
f 202 205 208
f 202 208 210
f 212 204 211
f 204 212 199
f 204 199 203
f 203 199 200
f 203 200 207
f 207 200 209
f 209 202 210
f 202 209 200
f 212 201 199
f 201 212 214
f 217 216 215
f 216 217 218
f 221 220 219
f 220 221 222
f 225 224 223
f 224 225 226
f 216 227 215
f 227 216 228
f 229 218 217
f 218 229 230
f 222 229 220
f 229 222 230
f 221 226 225
f 226 221 219
f 228 224 227
f 224 228 223
f 3 2 1
f 2 3 4
f 2 4 5
f 5 4 6
f 9 8 7
f 8 9 10
f 8 10 11
f 11 10 12
f 13 8 11
f 8 13 14
f 16 7 15
f 7 16 9
f 12 18 17
f 18 12 10
f 11 17 13
f 17 11 12
f 15 8 14
f 8 15 7
f 16 10 9
f 10 16 18
f 2 18 16
f 18 2 5
f 3 15 14
f 15 3 1
f 4 14 13
f 14 4 3
f 17 4 13
f 4 17 6
f 2 15 1
f 15 2 16
f 18 6 17
f 6 18 5
f 21 20 19
f 22 20 21
f 20 22 23
f 24 20 23
f 25 20 24
f 25 24 26
f 25 27 20
f 28 27 25
f 28 29 27
f 29 28 30
f 25 31 28
f 31 25 32
f 34 19 33
f 19 34 21
f 29 35 27
f 35 29 36
f 30 36 29
f 36 30 37
f 28 37 30
f 37 28 31
f 39 22 38
f 22 39 23
f 40 23 39
f 23 40 24
f 31 36 37
f 36 31 35
f 35 31 32
f 35 32 41
f 41 32 40
f 40 32 42
f 41 40 39
f 38 41 39
f 34 41 38
f 41 34 33
f 42 24 40
f 24 42 26
f 27 41 20
f 41 27 35
f 38 21 34
f 21 38 22
f 45 44 43
f 44 45 46
f 43 48 47
f 48 43 44
f 51 50 49
f 50 51 52
f 51 45 52
f 45 51 46
f 44 53 48
f 53 44 54
f 53 55 48
f 55 53 56
f 48 57 47
f 57 48 55
f 58 46 51
f 46 58 59
f 56 49 55
f 49 56 60
f 58 49 60
f 49 58 51
f 46 54 44
f 54 46 59
f 49 57 55
f 57 49 50
f 63 62 61
f 62 63 64
f 67 66 65
f 66 67 68
f 65 69 67
f 69 65 70
f 62 66 68
f 66 62 64
f 71 69 70
f 69 71 72
f 63 72 71
f 72 63 61
f 73 71 70
f 71 73 74
f 75 70 65
f 70 75 73
f 66 75 65
f 75 66 76
f 77 64 63
f 64 77 78
f 77 71 74
f 71 77 63
f 64 76 66
f 76 64 78
f 47 73 75
f 73 47 57
f 50 73 57
f 73 50 74
f 52 74 50
f 74 52 77
f 52 78 77
f 78 52 45
f 78 43 76
f 43 78 45
f 75 43 47
f 43 75 76
f 79 56 53
f 56 79 80
f 81 56 80
f 56 81 82
f 83 59 58
f 59 83 84
f 59 86 85
f 86 59 84
f 53 86 79
f 86 53 85
f 83 82 81
f 82 83 58
f 89 88 87
f 88 89 90
f 88 92 91
f 92 88 90
f 92 93 91
f 93 92 94
f 89 93 94
f 93 89 87
f 97 96 95
f 96 97 98
f 96 100 99
f 100 96 98
f 100 101 99
f 101 100 102
f 97 101 102
f 101 97 95
f 105 104 103
f 104 105 106
f 104 108 107
f 108 104 106
f 108 109 107
f 109 108 110
f 105 109 110
f 109 105 103
f 113 112 111
f 112 113 114
f 112 116 115
f 116 112 114
f 116 117 115
f 117 116 118
f 113 117 118
f 117 113 111
f 121 120 119
f 120 121 122
f 125 124 123
f 124 125 126
f 129 128 127
f 128 129 130
f 133 132 131
f 132 133 134
f 135 125 123
f 125 135 136
f 121 138 137
f 138 121 119
f 139 134 133
f 134 139 140
f 127 142 141
f 142 127 128
f 127 137 129
f 137 127 141
f 137 141 121
f 121 141 126
f 121 126 122
f 122 126 125
f 122 125 140
f 140 125 136
f 140 136 134
f 134 136 132
f 138 128 130
f 128 138 119
f 128 119 142
f 142 119 120
f 142 120 124
f 124 120 139
f 124 139 123
f 123 139 133
f 123 133 135
f 135 133 131
f 122 139 120
f 139 122 140
f 137 130 129
f 130 137 138
f 131 136 135
f 136 131 132
f 126 142 124
f 142 126 141
f 145 144 143
f 144 145 146
f 144 146 147
f 147 146 148
f 147 148 149
f 149 148 150
f 147 152 151
f 152 147 149
f 143 153 145
f 153 143 154
f 148 156 155
f 156 148 146
f 157 148 155
f 148 157 150
f 152 150 157
f 150 152 149
f 144 151 158
f 151 144 147
f 144 154 143
f 154 144 158
f 146 153 156
f 153 146 145
f 161 160 159
f 160 161 162
f 165 164 163
f 164 165 166
f 169 168 167
f 168 169 170
f 173 172 171
f 172 173 174
f 175 165 163
f 165 175 176
f 161 178 177
f 178 161 159
f 179 174 173
f 174 179 180
f 167 182 181
f 182 167 168
f 167 177 169
f 177 167 181
f 177 181 161
f 161 181 166
f 161 166 162
f 162 166 165
f 162 165 180
f 180 165 176
f 180 176 174
f 174 176 172
f 178 168 170
f 168 178 159
f 168 159 182
f 182 159 160
f 182 160 164
f 164 160 179
f 164 179 163
f 163 179 173
f 163 173 175
f 175 173 171
f 162 179 160
f 179 162 180
f 177 170 169
f 170 177 178
f 171 176 175
f 176 171 172
f 166 182 164
f 182 166 181
f 185 184 183
f 184 185 186
f 189 188 187
f 188 189 190
f 192 189 191
f 189 192 190
f 186 193 184
f 193 186 194
f 196 191 195
f 191 196 192
f 187 185 183
f 185 187 188
f 194 197 193
f 197 194 198
f 198 195 197
f 195 198 196
f 194 196 198
f 196 194 186
f 196 186 192
f 192 186 185
f 192 185 190
f 190 185 188
f 201 200 199
f 200 201 202
f 205 204 203
f 204 205 206
f 209 208 207
f 208 209 210
f 213 212 211
f 212 213 214
f 206 211 204
f 211 206 213
f 207 205 203
f 205 207 208
f 206 214 213
f 214 206 201
f 201 206 205
f 201 205 202
f 202 205 208
f 202 208 210
f 212 204 211
f 204 212 199
f 204 199 203
f 203 199 200
f 203 200 207
f 207 200 209
f 209 202 210
f 202 209 200
f 212 201 199
f 201 212 214
f 217 216 215
f 216 217 218
f 221 220 219
f 220 221 222
f 225 224 223
f 224 225 226
f 216 227 215
f 227 216 228
f 229 218 217
f 218 229 230
f 222 229 220
f 229 222 230
f 221 226 225
f 226 221 219
f 228 224 227
f 224 228 223
