# City room prop — voxel footprint 3x2x2 (0.5 m cells)
o log_stack_z
v 0.256701 0.361411 0.303599
v 0.256701 0.040000 0.489166
v 2.743299 0.361411 0.303599
v 2.743299 0.040000 0.489166
v 2.743299 0.040000 0.860300
v 0.256701 0.040000 0.860300
v 0.743086 0.454506 0.357347
v 0.773533 0.573658 0.211865
v 0.743086 0.589728 0.435418
v 0.773533 0.656144 0.259488
v 0.868779 0.573658 0.211865
v 0.899227 0.454506 0.357347
v 2.743299 0.150811 0.553143
v 2.743299 0.361411 0.431552
v 2.743299 0.682823 0.489166
v 2.743299 0.572012 0.553143
v 2.743299 0.572012 0.796323
v 2.743299 0.150811 0.796323
v 2.743299 0.361411 1.045867
v 2.743299 0.361411 0.917913
v 2.743299 0.682823 0.860300
v 2.113620 1.167493 0.500054
v 1.993677 1.167493 0.525768
v 2.156779 1.089058 0.575974
v 1.985431 1.089058 0.612708
v 0.899227 0.589728 0.435418
v 0.868779 0.656144 0.259488
v 0.256701 0.149227 0.797238
v 0.256701 0.361411 1.045867
v 0.256701 0.361411 0.919743
v 0.256701 0.682823 0.860300
v 0.256701 0.573596 0.797238
v 0.256701 0.573596 0.552228
v 0.256701 0.149227 0.552228
v 0.256701 0.361411 0.429723
v 0.256701 0.682823 0.489166
v 2.003798 1.240822 0.698382
v 2.006533 1.273727 0.585740
v 2.735444 0.682823 0.860300
v 2.693785 0.793634 0.665978
v 2.680374 0.682823 0.603423
v 2.641476 1.004234 0.421979
v 2.668297 1.004234 0.547089
v 2.680374 1.325646 0.603423
v 2.693785 1.214835 0.665978
v 2.744760 1.214835 0.903756
v 2.744760 0.793634 0.903756
v 2.797069 1.004234 1.147756
v 2.758171 0.682823 0.966311
v 2.770248 1.004234 1.022645
v 2.758171 1.325646 0.966311
v 0.271911 0.682823 1.231434
v 0.249020 0.682823 1.124660
v 0.326817 0.682823 1.487549
v 0.313598 0.792050 1.425888
v 0.365715 1.004234 1.668993
v 0.339277 1.004234 1.545671
v 0.326817 1.325646 1.487549
v 0.313598 1.216419 1.425888
v 0.262239 1.216419 1.186321
v 0.262239 0.792050 1.186321
v 0.210122 1.004234 0.943216
v 0.236560 1.004234 1.066537
v 0.249020 1.325646 1.124660
v 2.126477 1.273727 0.560026
v 0.182474 0.040000 1.231434
v 0.182474 0.149227 1.539506
v 0.182474 0.040000 1.602568
v 0.182474 0.361412 1.788135
v 0.182474 0.361412 1.662010
v 0.182474 0.682823 1.602568
v 0.182474 0.573596 1.539506
v 0.182474 0.573596 1.294496
v 0.182474 0.149227 1.294496
v 0.182474 0.361412 1.045867
v 0.182474 0.361412 1.171991
v 0.182474 0.682823 1.231434
v 2.817526 0.040000 1.231434
v 2.817526 0.361412 1.045867
v 2.175146 1.240822 0.661648
v 2.817526 0.040000 1.602568
v 2.817526 0.361412 1.788135
v 1.482150 0.682823 0.860300
v 1.521486 0.682823 1.231434
v 2.817526 0.150811 1.295411
v 2.817526 0.361412 1.173820
v 2.817526 0.682823 1.231434
v 2.817526 0.572012 1.295411
v 2.817526 0.572012 1.538591
v 2.817526 0.150811 1.538591
v 2.817526 0.361412 1.660181
v 2.817526 0.682823 1.602568
f 3 2 1
f 2 3 4
f 5 2 4
f 2 5 6
f 9 8 7
f 8 9 10
f 12 8 11
f 8 12 7
f 4 13 5
f 13 4 3
f 13 3 14
f 14 3 15
f 14 15 16
f 16 15 17
f 18 5 13
f 5 18 19
f 19 18 20
f 19 20 17
f 19 17 21
f 21 17 15
f 24 23 22
f 23 24 25
f 11 26 12
f 26 11 27
f 9 27 10
f 27 9 26
f 6 28 2
f 28 6 29
f 28 29 30
f 30 29 31
f 30 31 32
f 32 31 33
f 34 2 28
f 2 34 1
f 1 34 35
f 1 35 33
f 1 33 36
f 36 33 31
f 37 23 25
f 23 37 38
f 41 40 39
f 40 41 42
f 40 42 43
f 43 42 44
f 43 44 45
f 45 44 46
f 47 39 40
f 48 39 47
f 39 48 49
f 48 47 50
f 48 50 46
f 48 46 51
f 51 46 44
f 54 53 52
f 53 54 55
f 55 54 56
f 55 56 57
f 57 56 58
f 57 58 59
f 59 58 60
f 61 53 55
f 53 61 62
f 62 61 63
f 62 63 60
f 62 60 64
f 64 60 58
f 38 22 23
f 22 38 65
f 68 67 66
f 67 68 69
f 67 69 70
f 70 69 71
f 70 71 72
f 72 71 73
f 74 66 67
f 66 74 75
f 75 74 76
f 75 76 73
f 75 73 77
f 77 73 71
f 29 66 75
f 66 29 78
f 78 29 19
f 78 19 79
f 64 51 44
f 51 64 58
f 38 80 65
f 80 38 37
f 81 69 68
f 69 81 82
f 49 83 39
f 83 49 53
f 53 49 84
f 53 84 52
f 42 53 62
f 53 42 83
f 83 42 41
f 22 80 24
f 80 22 65
f 78 85 81
f 85 78 79
f 85 79 86
f 86 79 87
f 86 87 88
f 88 87 89
f 90 81 85
f 81 90 82
f 82 90 91
f 82 91 89
f 82 89 92
f 92 89 87
f 56 51 58
f 51 56 48
f 82 71 69
f 71 82 92
f 77 54 52
f 54 77 71
f 92 54 71
f 87 54 92
f 54 87 84
f 52 75 77
f 75 52 29
f 29 52 19
f 19 52 84
f 19 84 87
f 19 87 79
f 64 37 25
f 37 64 44
f 37 44 80
f 80 44 42
f 62 25 42
f 25 62 64
f 42 25 24
f 42 24 80
f 81 66 78
f 66 81 68
f 84 56 54
f 56 84 48
f 48 84 49
f 5 29 6
f 29 5 19
f 19 31 29
f 31 19 83
f 83 19 39
f 39 19 21
f 31 15 36
f 15 31 41
f 41 31 83
f 41 21 15
f 21 41 39
f 27 8 10
f 8 27 11
f 36 9 1
f 9 36 15
f 9 15 26
f 26 15 12
f 7 1 9
f 1 7 3
f 3 7 12
f 3 12 15
f 70 74 67
f 74 70 76
f 76 70 72
f 76 72 73
f 43 47 40
f 47 43 50
f 50 43 45
f 50 45 46
f 57 61 55
f 61 57 63
f 63 57 59
f 63 59 60
f 86 90 85
f 90 86 91
f 91 86 88
f 91 88 89
f 30 34 28
f 34 30 35
f 35 30 32
f 35 32 33
f 14 18 13
f 18 14 20
f 20 14 16
f 20 16 17
