# City room prop — voxel footprint 2x2x3 (0.5 m cells)
o log_stack
v 1.696401 0.361411 0.256701
v 1.510834 0.040000 0.256701
v 1.696401 0.361411 2.743299
v 1.510834 0.040000 2.743299
v 1.139700 0.040000 2.743299
v 1.139700 0.040000 0.256701
v 1.642653 0.454506 0.743086
v 1.788135 0.573658 0.773533
v 1.564582 0.589728 0.743086
v 1.740512 0.656144 0.773533
v 1.788135 0.573658 0.868779
v 1.642653 0.454506 0.899227
v 1.446857 0.150811 2.743299
v 1.568448 0.361411 2.743299
v 1.510834 0.682823 2.743299
v 1.446857 0.572012 2.743299
v 1.203677 0.572012 2.743299
v 1.203677 0.150811 2.743299
v 0.954133 0.361411 2.743299
v 1.082087 0.361411 2.743299
v 1.139700 0.682823 2.743299
v 1.499946 1.167493 2.113620
v 1.474232 1.167493 1.993677
v 1.424026 1.089058 2.156779
v 1.387292 1.089058 1.985431
v 1.564582 0.589728 0.899227
v 1.740512 0.656144 0.868779
v 1.202762 0.149227 0.256701
v 0.954133 0.361411 0.256701
v 1.080257 0.361411 0.256701
v 1.139700 0.682823 0.256701
v 1.202762 0.573596 0.256701
v 1.447772 0.573596 0.256701
v 1.447772 0.149227 0.256701
v 1.570277 0.361411 0.256701
v 1.510834 0.682823 0.256701
v 1.301618 1.240822 2.003798
v 1.414260 1.273727 2.006533
v 1.139700 0.682823 2.735444
v 1.334022 0.793634 2.693785
v 1.396577 0.682823 2.680374
v 1.578021 1.004234 2.641476
v 1.452911 1.004234 2.668297
v 1.396577 1.325646 2.680374
v 1.334022 1.214835 2.693785
v 1.096244 1.214835 2.744760
v 1.096244 0.793634 2.744760
v 0.852244 1.004234 2.797069
v 1.033689 0.682823 2.758171
v 0.977355 1.004234 2.770248
v 1.033689 1.325646 2.758171
v 0.768566 0.682823 0.271911
v 0.875340 0.682823 0.249020
v 0.512451 0.682823 0.326817
v 0.574112 0.792050 0.313598
v 0.331007 1.004234 0.365715
v 0.454329 1.004234 0.339277
v 0.512451 1.325646 0.326817
v 0.574112 1.216419 0.313598
v 0.813679 1.216419 0.262239
v 0.813679 0.792050 0.262239
v 1.056784 1.004234 0.210122
v 0.933463 1.004234 0.236560
v 0.875340 1.325646 0.249020
v 1.439974 1.273727 2.126477
v 0.768566 0.040000 0.182474
v 0.460494 0.149227 0.182474
v 0.397432 0.040000 0.182474
v 0.211865 0.361412 0.182474
v 0.337990 0.361412 0.182474
v 0.397432 0.682823 0.182474
v 0.460494 0.573596 0.182474
v 0.705504 0.573596 0.182474
v 0.705504 0.149227 0.182474
v 0.954133 0.361412 0.182474
v 0.828009 0.361412 0.182474
v 0.768566 0.682823 0.182474
v 0.768566 0.040000 2.817526
v 0.954133 0.361412 2.817526
v 1.338352 1.240822 2.175146
v 0.397432 0.040000 2.817526
v 0.211865 0.361412 2.817526
v 1.139700 0.682823 1.482150
v 0.768566 0.682823 1.521486
v 0.704589 0.150811 2.817526
v 0.826180 0.361412 2.817526
v 0.768566 0.682823 2.817526
v 0.704589 0.572012 2.817526
v 0.461409 0.572012 2.817526
v 0.461409 0.150811 2.817526
v 0.339819 0.361412 2.817526
v 0.397432 0.682823 2.817526
f 3 2 1
f 2 3 4
f 5 2 4
f 2 5 6
f 9 8 7
f 8 9 10
f 12 8 11
f 8 12 7
f 4 13 5
f 13 4 3
f 13 3 14
f 14 3 15
f 14 15 16
f 16 15 17
f 18 5 13
f 5 18 19
f 19 18 20
f 19 20 17
f 19 17 21
f 21 17 15
f 24 23 22
f 23 24 25
f 11 26 12
f 26 11 27
f 9 27 10
f 27 9 26
f 6 28 2
f 28 6 29
f 28 29 30
f 30 29 31
f 30 31 32
f 32 31 33
f 34 2 28
f 2 34 1
f 1 34 35
f 1 35 33
f 1 33 36
f 36 33 31
f 37 23 25
f 23 37 38
f 41 40 39
f 40 41 42
f 40 42 43
f 43 42 44
f 43 44 45
f 45 44 46
f 47 39 40
f 48 39 47
f 39 48 49
f 48 47 50
f 48 50 46
f 48 46 51
f 51 46 44
f 54 53 52
f 53 54 55
f 55 54 56
f 55 56 57
f 57 56 58
f 57 58 59
f 59 58 60
f 61 53 55
f 53 61 62
f 62 61 63
f 62 63 60
f 62 60 64
f 64 60 58
f 38 22 23
f 22 38 65
f 68 67 66
f 67 68 69
f 67 69 70
f 70 69 71
f 70 71 72
f 72 71 73
f 74 66 67
f 66 74 75
f 75 74 76
f 75 76 73
f 75 73 77
f 77 73 71
f 29 66 75
f 66 29 78
f 78 29 19
f 78 19 79
f 64 51 44
f 51 64 58
f 38 80 65
f 80 38 37
f 81 69 68
f 69 81 82
f 49 83 39
f 83 49 53
f 53 49 84
f 53 84 52
f 42 53 62
f 53 42 83
f 83 42 41
f 22 80 24
f 80 22 65
f 78 85 81
f 85 78 79
f 85 79 86
f 86 79 87
f 86 87 88
f 88 87 89
f 90 81 85
f 81 90 82
f 82 90 91
f 82 91 89
f 82 89 92
f 92 89 87
f 56 51 58
f 51 56 48
f 82 71 69
f 71 82 92
f 77 54 52
f 54 77 71
f 92 54 71
f 87 54 92
f 54 87 84
f 52 75 77
f 75 52 29
f 29 52 19
f 19 52 84
f 19 84 87
f 19 87 79
f 64 37 25
f 37 64 44
f 37 44 80
f 80 44 42
f 62 25 42
f 25 62 64
f 42 25 24
f 42 24 80
f 81 66 78
f 66 81 68
f 84 56 54
f 56 84 48
f 48 84 49
f 5 29 6
f 29 5 19
f 19 31 29
f 31 19 83
f 83 19 39
f 39 19 21
f 31 15 36
f 15 31 41
f 41 31 83
f 41 21 15
f 21 41 39
f 27 8 10
f 8 27 11
f 36 9 1
f 9 36 15
f 9 15 26
f 26 15 12
f 7 1 9
f 1 7 3
f 3 7 12
f 3 12 15
f 70 74 67
f 74 70 76
f 76 70 72
f 76 72 73
f 43 47 40
f 47 43 50
f 50 43 45
f 50 45 46
f 57 61 55
f 61 57 63
f 63 57 59
f 63 59 60
f 86 90 85
f 90 86 91
f 91 86 88
f 91 88 89
f 30 34 28
f 34 30 35
f 35 30 32
f 35 32 33
f 14 18 13
f 18 14 20
f 20 14 16
f 20 16 17
