# City room prop — unit cell 0..1
o loungeSofaOttoman
v 0.819829 0.050000 0.090000
v 0.899829 0.050000 0.090000
v 0.819829 0.150000 0.090000
v 0.899829 0.150000 0.090000
v 0.899829 0.150000 0.170000
v 0.899829 0.050000 0.170000
v 0.819829 0.050000 0.170000
v 0.819829 0.150000 0.170000
v 0.100172 0.050000 0.090000
v 0.180172 0.050000 0.090000
v 0.100172 0.150000 0.090000
v 0.180172 0.150000 0.090000
v 0.180172 0.150000 0.170000
v 0.180172 0.050000 0.170000
v 0.100172 0.050000 0.170000
v 0.100172 0.150000 0.170000
v 0.100172 0.050000 0.830000
v 0.180172 0.050000 0.830000
v 0.100172 0.150000 0.830000
v 0.180172 0.150000 0.830000
v 0.100172 0.050000 0.910000
v 0.100172 0.150000 0.910000
v 0.180172 0.150000 0.910000
v 0.180172 0.050000 0.910000
v 0.899829 0.150000 0.830000
v 0.899829 0.050000 0.830000
v 0.899829 0.150000 0.910000
v 0.899829 0.050000 0.910000
v 0.819829 0.050000 0.830000
v 0.819829 0.150000 0.830000
v 0.819829 0.050000 0.910000
v 0.819829 0.150000 0.910000
v 0.100172 0.330000 0.090000
v 0.899829 0.330000 0.090000
v 0.100172 0.330000 0.910000
v 0.899829 0.330000 0.910000
v 0.939829 0.510000 0.050000
v 0.939829 0.510000 0.950000
v 0.060171 0.510000 0.050000
v 0.060171 0.510000 0.950000
v 0.060171 0.330000 0.050000
v 0.939829 0.330000 0.050000
v 0.939829 0.330000 0.950000
v 0.060171 0.330000 0.950000
f 2 1 3
f 3 4 2
f 2 4 5
f 5 6 2
f 2 6 7
f 7 1 2
f 7 6 5
f 5 8 7
f 3 1 7
f 7 8 3
f 10 9 11
f 11 12 10
f 10 12 13
f 13 14 10
f 10 14 15
f 15 9 10
f 15 14 13
f 13 16 15
f 11 9 15
f 15 16 11
f 18 17 19
f 19 20 18
f 19 17 21
f 21 22 19
f 18 20 23
f 23 24 18
f 26 25 27
f 27 28 26
f 18 24 21
f 21 17 18
f 26 29 30
f 30 25 26
f 30 29 31
f 31 32 30
f 31 28 27
f 27 32 31
f 21 24 23
f 23 22 21
f 26 28 31
f 31 29 26
f 12 11 33
f 33 3 12
f 33 4 3
f 33 34 4
f 33 11 16
f 16 35 33
f 16 19 35
f 19 22 35
f 32 27 36
f 36 23 32
f 36 22 23
f 36 35 22
f 13 20 19
f 19 16 13
f 20 13 12
f 23 20 12
f 23 12 3
f 23 3 8
f 23 8 30
f 30 32 23
f 30 8 5
f 5 25 30
f 38 37 39
f 39 40 38
f 42 41 39
f 39 37 42
f 4 34 36
f 36 5 4
f 36 25 5
f 36 27 25
f 42 37 38
f 38 43 42
f 40 44 43
f 43 38 40
f 39 41 44
f 44 40 39
f 36 42 43
f 43 44 36
f 44 35 36
f 44 33 35
f 42 36 34
f 34 41 42
f 34 33 41
f 33 44 41
