# City room prop — voxel footprint 5x2x5 (0.5 m cells)
o loungeSofaCorner
v 4.378261 0.248696 4.545217
v 4.378261 0.248696 4.378261
v 2.082608 0.248696 4.545217
v 2.082608 0.248696 2.917392
v 4.378261 0.248696 2.917392
v 4.378261 0.248696 3.084348
v 4.545217 0.248696 4.378261
v 4.545217 0.248696 3.084348
v 2.082608 0.248696 4.378261
v 1.915652 0.248696 4.378261
v 2.082608 0.248696 0.621739
v 1.915652 0.248696 0.621739
v 0.621739 0.248696 4.545217
v 1.915652 0.248696 4.545217
v 1.915652 0.248696 0.454783
v 0.621739 0.248696 3.084348
v 0.621739 0.248696 2.917392
v 0.621739 0.248696 0.454783
v 0.621739 0.248696 0.621739
v 0.454783 0.248696 2.917392
v 0.454783 0.248696 0.621739
v 0.621739 0.248696 4.378261
v 0.454783 0.248696 3.084348
v 0.454783 0.248696 4.378261
v 0.454783 1.793043 0.684706
v 0.831150 1.793043 0.684706
v 0.454783 1.960000 0.851662
v 0.831150 1.960000 0.851662
v 1.915652 1.584348 0.831151
v 0.831150 1.584348 0.831151
v 1.915652 1.584348 0.454783
v 0.831150 1.584348 0.684706
v 0.454783 1.584348 0.454783
v 0.454783 1.584348 0.684706
v 4.148338 1.960000 4.168850
v 4.148338 1.960000 4.545217
v 0.831150 1.960000 4.168850
v 0.454783 1.960000 4.545217
v 0.454783 0.248696 0.454783
v 2.082608 1.417391 0.454783
v 2.082608 0.248696 0.454783
v 2.082608 0.644442 0.831151
v 2.166087 0.644442 0.831151
v 2.082608 1.000000 0.831151
v 2.166087 1.000000 0.831151
v 0.831150 1.000000 0.831151
v 2.082608 1.417391 0.831151
v 4.168849 1.000000 2.833913
v 4.168849 1.000000 2.917392
v 2.166087 1.000000 2.833913
v 4.168849 1.000000 4.168850
v 0.831150 1.000000 4.168850
v 2.082608 0.644442 2.917392
v 2.166087 0.644442 2.833913
v 4.315294 1.793043 4.168850
v 4.315294 1.584348 4.168850
v 4.315294 1.793043 4.545217
v 4.315294 1.584348 4.545217
v 4.545217 1.417391 2.917392
v 4.545217 0.248696 2.917392
v 4.545217 1.584348 3.084348
v 4.545217 1.584348 4.545217
v 4.545217 0.248696 4.545217
v 4.168849 1.417391 2.917392
v 4.168849 1.584348 3.084348
v 4.168849 1.584348 4.168850
v 4.168849 0.644442 2.917392
v 4.168849 0.644442 2.833913
v 0.454783 0.248696 4.545217
v 4.545217 0.040000 4.545217
v 4.378261 0.040000 4.545217
v 4.378261 0.040000 4.378261
v 4.545217 0.040000 4.378261
v 4.378261 0.040000 2.917392
v 4.545217 0.040000 2.917392
v 0.621739 0.040000 0.621739
v 0.454783 0.040000 0.621739
v 0.454783 0.040000 0.454783
v 0.621739 0.040000 0.454783
v 0.454783 0.040000 2.917392
v 0.621739 0.040000 2.917392
v 4.545217 0.040000 3.084348
v 4.378261 0.040000 3.084348
v 0.454783 0.040000 3.084348
v 0.621739 0.040000 3.084348
v 2.082608 0.040000 4.545217
v 1.915652 0.040000 4.545217
v 0.454783 0.040000 4.378261
v 0.454783 0.040000 4.545217
v 1.915652 0.040000 4.378261
v 2.082608 0.040000 4.378261
v 1.915652 0.040000 0.454783
v 1.915652 0.040000 0.621739
v 2.082608 0.040000 0.454783
v 2.082608 0.040000 0.621739
v 0.621739 0.040000 4.378261
v 0.621739 0.040000 4.545217
f 2 1 3
f 2 3 4
f 2 4 5
f 2 5 6
f 7 2 6
f 6 8 7
f 3 9 4
f 9 10 4
f 10 11 4
f 10 12 11
f 13 12 10
f 10 14 13
f 13 15 12
f 13 16 15
f 15 16 17
f 17 18 15
f 17 19 18
f 19 17 20
f 20 21 19
f 13 22 16
f 22 23 16
f 22 24 23
f 26 25 27
f 27 28 26
f 30 29 31
f 31 32 30
f 31 33 32
f 33 34 32
f 36 35 37
f 37 38 36
f 37 28 38
f 28 27 38
f 18 39 33
f 33 40 18
f 33 31 40
f 18 40 41
f 41 15 18
f 43 42 44
f 44 45 43
f 46 44 47
f 47 30 46
f 47 29 30
f 47 40 31
f 31 29 47
f 49 48 50
f 50 51 49
f 50 52 51
f 50 45 52
f 45 44 52
f 44 46 52
f 41 40 47
f 47 11 41
f 47 42 11
f 42 4 11
f 47 44 42
f 42 53 4
f 43 45 50
f 50 54 43
f 56 55 57
f 57 58 56
f 60 59 61
f 61 8 60
f 61 62 8
f 62 7 8
f 62 63 7
f 64 49 51
f 51 65 64
f 51 66 65
f 68 67 53
f 53 54 68
f 53 43 54
f 53 42 43
f 62 61 65
f 65 56 62
f 65 66 56
f 62 56 58
f 68 54 50
f 50 48 68
f 5 4 53
f 53 60 5
f 53 67 60
f 67 59 60
f 67 49 59
f 49 64 59
f 59 64 65
f 65 61 59
f 55 35 36
f 36 57 55
f 68 48 49
f 49 67 68
f 32 34 25
f 25 26 32
f 32 26 28
f 28 30 32
f 28 46 30
f 28 52 46
f 28 37 52
f 51 52 37
f 37 66 51
f 37 56 66
f 37 55 56
f 37 35 55
f 33 39 21
f 21 34 33
f 21 20 34
f 20 25 34
f 20 27 25
f 20 38 27
f 20 23 38
f 23 24 38
f 24 69 38
f 1 63 62
f 62 13 1
f 62 58 13
f 13 58 38
f 38 69 13
f 58 57 38
f 57 36 38
f 1 13 14
f 14 3 1
f 71 70 63
f 63 1 71
f 2 72 71
f 71 1 2
f 73 70 71
f 71 72 73
f 75 74 5
f 5 60 75
f 77 76 19
f 19 21 77
f 79 78 39
f 39 18 79
f 79 76 77
f 77 78 79
f 39 78 77
f 77 21 39
f 79 18 19
f 19 76 79
f 81 80 20
f 20 17 81
f 73 7 63
f 63 70 73
f 83 82 8
f 8 6 83
f 20 80 84
f 84 23 20
f 81 85 84
f 84 80 81
f 75 82 83
f 83 74 75
f 75 60 8
f 8 82 75
f 73 72 2
f 2 7 73
f 81 17 16
f 16 85 81
f 84 85 16
f 16 23 84
f 5 74 83
f 83 6 5
f 87 86 3
f 3 14 87
f 24 88 89
f 89 69 24
f 91 90 10
f 10 9 91
f 15 92 93
f 93 12 15
f 94 92 15
f 15 41 94
f 93 95 11
f 11 12 93
f 10 90 87
f 87 14 10
f 94 95 93
f 93 92 94
f 96 88 24
f 24 22 96
f 96 97 89
f 89 88 96
f 91 9 3
f 3 86 91
f 94 41 11
f 11 95 94
f 96 22 13
f 13 97 96
f 91 86 87
f 87 90 91
f 89 97 13
f 13 69 89
