# City room prop — voxel footprint 2x1x1 (0.5 m cells)
o mushroom_redGroup
v 0.930223 0.197673 0.212443
v 0.849424 0.197673 0.425634
v 0.930223 0.197673 0.419375
v 0.751014 0.197673 0.522842
v 0.657617 0.197673 0.425634
v 0.571806 0.197673 0.419375
v 0.657617 0.197673 0.233827
v 0.849424 0.197673 0.233827
v 0.751014 0.197673 0.108977
v 0.571806 0.197673 0.212443
v 1.215695 0.750153 0.572854
v 1.159816 0.678202 0.605117
v 1.215695 0.750153 0.830952
v 1.159816 0.678202 0.798689
v 1.028301 0.373849 0.212386
v 1.028301 0.373849 0.477753
v 1.085754 0.299872 0.245557
v 1.085754 0.299872 0.444582
v 0.870615 0.040000 0.211152
v 0.870615 0.040000 0.445796
v 1.060908 0.678202 0.781219
v 0.992177 0.678202 0.895476
v 0.928134 0.678202 0.781219
v 0.824538 0.678202 0.798689
v 0.928134 0.678202 0.648445
v 0.992177 0.678202 0.508330
v 1.060908 0.678202 0.648445
v 0.824538 0.678202 0.605117
v 1.082649 0.040000 0.802960
v 0.906393 0.040000 0.802960
v 0.512070 0.258437 0.177955
v 0.512070 0.258437 0.453864
v 1.487930 0.373849 0.212386
v 1.430477 0.299872 0.245557
v 1.487930 0.373849 0.477753
v 1.430477 0.299872 0.444582
v 1.384649 0.040000 0.482486
v 1.136402 0.040000 0.482486
v 1.352765 0.299872 0.450602
v 1.168287 0.299872 0.450602
v 1.258116 0.299872 0.146044
v 1.258116 0.373849 0.079702
v 1.082649 0.040000 0.626704
v 1.258116 0.299872 0.544095
v 1.258116 0.373849 0.610437
v 0.906393 0.040000 0.626704
v 0.992177 0.750153 0.960000
v 0.768658 0.750153 0.830952
v 1.136402 0.040000 0.234239
v 1.384649 0.040000 0.234239
v 1.168287 0.299872 0.266124
v 1.352765 0.299872 0.266124
v 0.989959 0.258437 0.453864
v 0.751014 0.258437 0.591819
v 0.635970 0.040000 0.211152
v 0.989959 0.258437 0.177955
v 0.635970 0.040000 0.445796
v 0.751014 0.258437 0.040000
v 0.768658 0.750153 0.572854
v 0.992177 0.750153 0.443806
v 0.808110 0.424322 0.282945
v 0.808110 0.424322 0.348874
v 0.751014 0.424322 0.381838
v 1.313030 0.575808 0.313365
v 1.313030 0.575808 0.376774
v 1.258116 0.575808 0.281661
v 1.258116 0.575808 0.408479
v 1.203202 0.575808 0.313365
v 1.203202 0.575808 0.376774
v 0.751014 0.424322 0.249981
v 0.693919 0.424322 0.282945
v 0.693919 0.424322 0.348874
v 0.992177 0.946578 0.763575
v 0.938767 0.946578 0.732739
v 1.045586 0.946578 0.732739
v 1.045586 0.946578 0.671067
v 0.992177 0.946578 0.640231
v 0.938767 0.946578 0.671067
f 3 2 1
f 2 3 4
f 2 4 5
f 5 4 6
f 5 6 7
f 8 1 2
f 1 8 9
f 9 8 7
f 9 7 10
f 10 7 6
f 13 12 11
f 12 13 14
f 17 16 15
f 16 17 18
f 8 20 19
f 20 8 2
f 14 21 12
f 21 14 22
f 21 22 23
f 23 22 24
f 23 24 25
f 12 27 26
f 27 12 21
f 26 27 25
f 26 25 28
f 28 25 24
f 21 30 29
f 30 21 23
f 10 32 31
f 32 10 6
f 35 34 33
f 34 35 36
f 39 38 37
f 38 39 40
f 15 41 17
f 41 15 42
f 27 29 43
f 29 27 21
f 45 18 44
f 18 45 16
f 30 25 46
f 25 30 23
f 25 43 46
f 43 25 27
f 47 24 22
f 24 47 48
f 42 34 41
f 34 42 33
f 51 50 49
f 50 51 52
f 54 3 53
f 3 54 4
f 7 19 55
f 19 7 8
f 53 1 56
f 1 53 3
f 2 57 20
f 57 2 5
f 13 22 14
f 22 13 47
f 10 58 9
f 58 10 31
f 57 7 55
f 7 57 5
f 32 4 54
f 4 32 6
f 52 37 50
f 37 52 39
f 59 26 28
f 26 59 60
f 38 51 49
f 51 38 40
f 35 44 36
f 44 35 45
f 28 48 59
f 48 28 24
f 1 58 56
f 58 1 9
f 38 50 37
f 50 38 49
f 57 19 20
f 19 57 55
f 60 12 26
f 12 60 11
f 36 39 34
f 39 36 44
f 39 44 40
f 40 44 18
f 40 18 51
f 34 52 41
f 52 34 39
f 41 52 51
f 41 51 17
f 17 51 18
f 30 43 29
f 43 30 46
f 61 53 56
f 53 61 62
f 62 54 53
f 54 62 63
f 66 65 64
f 65 66 67
f 67 66 68
f 67 68 69
f 70 62 61
f 62 70 63
f 63 70 71
f 63 71 72
f 15 66 42
f 66 15 68
f 31 72 71
f 72 31 32
f 42 64 33
f 64 42 66
f 58 61 56
f 61 58 70
f 31 70 58
f 70 31 71
f 72 54 63
f 54 72 32
f 69 45 67
f 45 69 16
f 64 35 33
f 35 64 65
f 16 68 15
f 68 16 69
f 74 47 73
f 47 74 48
f 75 47 13
f 47 75 73
f 65 45 35
f 45 65 67
f 77 75 76
f 75 77 73
f 73 77 78
f 73 78 74
f 60 76 11
f 76 60 77
f 76 13 11
f 13 76 75
f 48 78 59
f 78 48 74
f 59 77 60
f 77 59 78
