# City room prop — voxel footprint 1x1x1 (0.5 m cells)
o mushroom_red
v 0.677745 0.040000 0.344314
v 0.677745 0.040000 0.693032
v 0.632956 0.405047 0.389103
v 0.632956 0.405047 0.648243
v 0.742119 0.405047 0.639788
v 0.500000 0.405047 0.779575
v 0.822826 0.508965 0.686384
v 0.500000 0.508965 0.872767
v 0.822826 0.508965 0.313617
v 0.742119 0.405047 0.360212
v 0.373816 0.405047 0.648243
v 0.257881 0.405047 0.639788
v 0.373816 0.405047 0.389103
v 0.500000 0.405047 0.220425
v 0.257881 0.405047 0.360212
v 0.329027 0.040000 0.344314
v 0.329027 0.040000 0.693032
v 0.177174 0.508965 0.686384
v 0.177174 0.508965 0.313617
v 0.500000 0.508965 0.127233
v 0.500000 0.792660 0.589072
v 0.422861 0.792660 0.544536
v 0.577139 0.792660 0.544536
v 0.422861 0.792660 0.455464
v 0.577139 0.792660 0.455464
v 0.500000 0.792660 0.410928
f 3 2 1
f 2 3 4
f 7 6 5
f 6 7 8
f 7 10 9
f 10 7 5
f 5 4 10
f 4 5 6
f 4 6 11
f 11 6 12
f 11 12 13
f 10 3 14
f 3 10 4
f 14 3 13
f 14 13 15
f 15 13 12
f 17 13 16
f 13 17 11
f 8 12 6
f 12 8 18
f 15 18 19
f 18 15 12
f 13 1 16
f 1 13 3
f 20 10 14
f 10 20 9
f 19 14 15
f 14 19 20
f 4 17 2
f 17 4 11
f 17 1 2
f 1 17 16
f 21 18 8
f 18 21 22
f 23 8 7
f 8 23 21
f 18 24 19
f 24 18 22
f 26 23 25
f 23 26 21
f 21 26 24
f 21 24 22
f 26 9 20
f 9 26 25
f 24 20 19
f 20 24 26
f 25 7 9
f 7 25 23
