# City room prop — voxel footprint 1x3x1 (0.5 m cells)
o pillarSmall
v 0.720275 0.700826 0.720275
v 0.720275 0.700826 0.279725
v 0.279725 0.700826 0.720275
v 0.279725 0.700826 0.279725
v 0.668246 1.696616 0.331754
v 0.668246 1.696616 0.668246
v 0.331754 1.696616 0.331754
v 0.331754 1.696616 0.668246
v 0.279725 0.040000 0.169587
v 0.720275 0.040000 0.169587
v 0.279725 0.700826 0.169587
v 0.720275 0.700826 0.169587
v 0.720275 0.040000 0.830413
v 0.279725 0.040000 0.830413
v 0.720275 0.700826 0.830413
v 0.279725 0.700826 0.830413
v 0.169587 0.040000 0.279725
v 0.169587 0.700826 0.279725
v 0.169587 0.040000 0.720275
v 0.169587 0.700826 0.720275
v 0.830413 0.700826 0.279725
v 0.830413 0.040000 0.279725
v 0.830413 0.700826 0.720275
v 0.830413 0.040000 0.720275
v 0.279725 1.806754 0.169587
v 0.720275 1.806754 0.169587
v 0.279725 2.137167 0.169587
v 0.720275 2.137167 0.169587
v 0.720275 1.806754 0.830413
v 0.279725 1.806754 0.830413
v 0.720275 2.137167 0.830413
v 0.279725 2.137167 0.830413
v 0.169587 1.806754 0.279725
v 0.169587 2.137167 0.279725
v 0.169587 1.806754 0.720275
v 0.169587 2.137167 0.720275
v 0.830413 2.137167 0.279725
v 0.830413 1.806754 0.279725
v 0.830413 2.137167 0.720275
v 0.830413 1.806754 0.720275
v 0.720275 1.696616 0.674655
v 0.720275 1.696616 0.325345
v 0.674655 1.696616 0.720275
v 0.674655 1.696616 0.279725
v 0.325345 1.696616 0.720275
v 0.325345 1.696616 0.279725
v 0.279725 1.696616 0.674655
v 0.279725 1.696616 0.325345
v 0.717117 2.324841 0.717117
v 0.282883 2.324841 0.717117
v 0.500000 2.794028 0.500000
v 0.282883 2.324841 0.282883
v 0.717117 2.324841 0.282883
v 0.644745 2.137167 0.644745
v 0.355255 2.137167 0.644745
v 0.644745 2.137167 0.355255
v 0.355255 2.137167 0.355255
f 3 2 1
f 2 3 4
f 7 6 5
f 6 7 8
f 7 2 4
f 2 7 5
f 5 1 2
f 1 5 6
f 3 7 4
f 7 3 8
f 6 3 1
f 3 6 8
f 11 10 9
f 10 11 12
f 15 14 13
f 14 15 16
f 19 18 17
f 18 19 20
f 23 22 21
f 22 23 24
f 16 19 14
f 19 16 20
f 23 13 24
f 13 23 15
f 12 22 10
f 22 12 21
f 18 9 17
f 9 18 11
f 13 22 24
f 22 13 10
f 10 13 14
f 10 14 9
f 9 14 19
f 9 19 17
f 12 23 21
f 23 12 15
f 15 12 11
f 15 11 16
f 16 11 18
f 16 18 20
f 27 26 25
f 26 27 28
f 31 30 29
f 30 31 32
f 35 34 33
f 34 35 36
f 39 38 37
f 38 39 40
f 32 35 30
f 35 32 36
f 39 29 40
f 29 39 31
f 34 25 33
f 25 34 27
f 28 39 37
f 39 28 31
f 31 28 27
f 31 27 32
f 32 27 34
f 32 34 36
f 28 38 26
f 38 28 37
f 43 42 41
f 42 43 44
f 44 43 45
f 44 45 46
f 46 45 47
f 46 47 48
f 41 38 40
f 38 41 42
f 48 25 46
f 25 48 33
f 29 41 40
f 41 29 43
f 25 44 46
f 44 25 26
f 30 47 45
f 47 30 35
f 42 26 38
f 26 42 44
f 29 45 43
f 45 29 30
f 35 48 47
f 48 35 33
f 51 50 49
f 51 53 52
f 50 51 52
f 49 53 51
f 49 55 54
f 55 49 50
f 49 56 53
f 56 49 54
f 57 50 52
f 50 57 55
f 52 56 57
f 56 52 53
f 3 2 1
f 2 3 4
f 7 6 5
f 6 7 8
f 7 2 4
f 2 7 5
f 5 1 2
f 1 5 6
f 3 7 4
f 7 3 8
f 6 3 1
f 3 6 8
f 11 10 9
f 10 11 12
f 15 14 13
f 14 15 16
f 19 18 17
f 18 19 20
f 23 22 21
f 22 23 24
f 16 19 14
f 19 16 20
f 23 13 24
f 13 23 15
f 12 22 10
f 22 12 21
f 18 9 17
f 9 18 11
f 13 22 24
f 22 13 10
f 10 13 14
f 10 14 9
f 9 14 19
f 9 19 17
f 12 23 21
f 23 12 15
f 15 12 11
f 15 11 16
f 16 11 18
f 16 18 20
f 27 26 25
f 26 27 28
f 31 30 29
f 30 31 32
f 35 34 33
f 34 35 36
f 39 38 37
f 38 39 40
f 32 35 30
f 35 32 36
f 39 29 40
f 29 39 31
f 34 25 33
f 25 34 27
f 28 39 37
f 39 28 31
f 31 28 27
f 31 27 32
f 32 27 34
f 32 34 36
f 28 38 26
f 38 28 37
f 43 42 41
f 42 43 44
f 44 43 45
f 44 45 46
f 46 45 47
f 46 47 48
f 41 38 40
f 38 41 42
f 48 25 46
f 25 48 33
f 29 41 40
f 41 29 43
f 25 44 46
f 44 25 26
f 30 47 45
f 47 30 35
f 42 26 38
f 26 42 44
f 29 45 43
f 45 29 30
f 35 48 47
f 48 35 33
f 51 50 49
f 51 53 52
f 50 51 52
f 49 53 51
f 49 55 54
f 55 49 50
f 49 56 53
f 56 49 54
f 57 50 52
f 50 57 55
f 52 56 57
f 56 52 53
