# City room prop — voxel footprint 1x5x1 (0.5 m cells)
o pillarLarge
v 0.500000 4.137121 0.500000
v 0.612675 4.063899 0.695159
v 0.387325 4.063899 0.695159
v 0.612675 3.443565 0.695159
v 0.725350 3.443565 0.500000
v 0.500000 3.370344 0.500000
v 0.274650 4.063899 0.500000
v 0.725350 4.063899 0.500000
v 0.387325 3.443565 0.695159
v 0.612675 3.443565 0.304841
v 0.387325 3.443565 0.304841
v 0.274650 3.443565 0.500000
v 0.612675 4.063899 0.304841
v 0.387325 4.063899 0.304841
v 0.317688 3.635259 0.184226
v 0.135376 3.635259 0.500000
v 0.682312 3.635259 0.184226
v 0.864624 3.635259 0.500000
v 0.682312 3.872204 0.184226
v 0.864624 3.872204 0.500000
v 0.317688 3.872204 0.184226
v 0.135376 3.872204 0.500000
v 0.682312 3.872204 0.815774
v 0.317688 3.872204 0.815774
v 0.682312 3.635259 0.815774
v 0.317688 3.635259 0.815774
v 0.206906 3.171187 0.096769
v 0.793094 3.171187 0.096769
v 0.206906 3.498869 0.096769
v 0.793094 3.498869 0.096769
v 0.096769 3.171187 0.206906
v 0.096769 3.498869 0.206906
v 0.793094 3.171187 0.903231
v 0.206906 3.171187 0.903231
v 0.793094 3.498869 0.903231
v 0.206906 3.498869 0.903231
v 0.096769 3.171187 0.793094
v 0.096769 3.498869 0.793094
v 0.903231 3.498869 0.206906
v 0.903231 3.171187 0.206906
v 0.903231 3.498869 0.793094
v 0.903231 3.171187 0.793094
v 0.177415 3.025550 0.265525
v 0.177415 3.025550 0.734475
v 0.265525 3.025550 0.822585
v 0.734475 3.025550 0.822585
v 0.734475 3.025550 0.177415
v 0.822585 3.025550 0.265525
v 0.822585 3.025550 0.734475
v 0.265525 3.025550 0.177415
v 0.206906 0.040000 0.096769
v 0.793094 0.040000 0.096769
v 0.206906 0.804592 0.096769
v 0.793094 0.804592 0.096769
v 0.793094 0.040000 0.903231
v 0.206906 0.040000 0.903231
v 0.793094 0.804592 0.903231
v 0.206906 0.804592 0.903231
v 0.096769 0.040000 0.206906
v 0.096769 0.804592 0.206906
v 0.096769 0.040000 0.793094
v 0.096769 0.804592 0.793094
v 0.903231 0.804592 0.206906
v 0.903231 0.040000 0.206906
v 0.903231 0.804592 0.793094
v 0.903231 0.040000 0.793094
v 0.822585 0.950229 0.265525
v 0.822585 0.950229 0.734475
v 0.734475 0.950229 0.177415
v 0.734475 0.950229 0.822585
v 0.265525 0.950229 0.177415
v 0.265525 0.950229 0.822585
v 0.177415 0.950229 0.265525
v 0.177415 0.950229 0.734475
v 0.786176 3.025550 0.500000
v 0.786176 0.950229 0.500000
v 0.749767 3.025550 0.749767
v 0.749767 0.950229 0.749767
v 0.500000 0.950229 0.786176
v 0.500000 3.025550 0.786176
v 0.213824 0.950229 0.500000
v 0.213824 3.025550 0.500000
v 0.250233 0.950229 0.749767
v 0.250233 3.025550 0.749767
v 0.250233 0.950229 0.250233
v 0.500000 0.950229 0.213824
v 0.250233 3.025550 0.250233
v 0.500000 3.025550 0.213824
v 0.749767 3.025550 0.250233
v 0.749767 0.950229 0.250233
f 3 2 1
f 6 5 4
f 7 3 1
f 1 2 8
f 9 6 4
f 11 10 6
f 6 10 5
f 12 11 6
f 1 8 13
f 7 1 14
f 12 6 9
f 14 1 13
f 11 16 15
f 16 11 12
f 19 18 17
f 18 19 20
f 14 19 21
f 19 14 13
f 22 14 21
f 14 22 7
f 16 21 15
f 21 16 22
f 2 24 23
f 24 2 3
f 21 17 15
f 17 21 19
f 18 10 17
f 10 18 5
f 2 20 8
f 20 2 23
f 15 10 11
f 10 15 17
f 13 20 19
f 20 13 8
f 25 9 4
f 9 25 26
f 23 26 25
f 26 23 24
f 23 18 20
f 18 23 25
f 25 5 18
f 5 25 4
f 24 7 22
f 7 24 3
f 26 22 16
f 22 26 24
f 9 16 12
f 16 9 26
f 29 28 27
f 28 29 30
f 32 27 31
f 27 32 29
f 35 34 33
f 34 35 36
f 36 37 34
f 37 36 38
f 41 40 39
f 40 41 42
f 30 40 28
f 40 30 39
f 41 33 42
f 33 41 35
f 30 41 39
f 41 30 35
f 35 30 29
f 35 29 36
f 36 29 32
f 36 32 38
f 37 32 31
f 32 37 38
f 43 37 31
f 37 43 44
f 34 44 45
f 44 34 37
f 33 45 46
f 45 33 34
f 40 47 28
f 47 40 48
f 42 48 40
f 48 42 49
f 27 47 50
f 47 27 28
f 31 50 43
f 50 31 27
f 42 46 49
f 46 42 33
f 46 48 49
f 48 46 47
f 47 46 45
f 47 45 50
f 50 45 44
f 50 44 43
f 53 52 51
f 52 53 54
f 57 56 55
f 56 57 58
f 61 60 59
f 60 61 62
f 65 64 63
f 64 65 66
f 58 61 56
f 61 58 62
f 65 55 66
f 55 65 57
f 54 64 52
f 64 54 63
f 60 51 59
f 51 60 53
f 55 64 66
f 64 55 52
f 52 55 56
f 52 56 51
f 51 56 61
f 51 61 59
f 69 68 67
f 68 69 70
f 70 69 71
f 70 71 72
f 72 71 73
f 72 73 74
f 60 71 53
f 71 60 73
f 62 73 60
f 73 62 74
f 69 63 54
f 63 69 67
f 68 57 65
f 57 68 70
f 67 65 63
f 65 67 68
f 62 72 74
f 72 62 58
f 71 54 53
f 54 71 69
f 70 58 57
f 58 70 72
f 77 76 75
f 76 77 78
f 77 79 78
f 79 77 80
f 83 82 81
f 82 83 84
f 87 86 85
f 86 87 88
f 80 83 79
f 83 80 84
f 75 90 89
f 90 75 76
f 88 90 86
f 90 88 89
f 81 87 85
f 87 81 82
f 3 2 1
f 6 5 4
f 7 3 1
f 1 2 8
f 9 6 4
f 11 10 6
f 6 10 5
f 12 11 6
f 1 8 13
f 7 1 14
f 12 6 9
f 14 1 13
f 11 16 15
f 16 11 12
f 19 18 17
f 18 19 20
f 14 19 21
f 19 14 13
f 22 14 21
f 14 22 7
f 16 21 15
f 21 16 22
f 2 24 23
f 24 2 3
f 21 17 15
f 17 21 19
f 18 10 17
f 10 18 5
f 2 20 8
f 20 2 23
f 15 10 11
f 10 15 17
f 13 20 19
f 20 13 8
f 25 9 4
f 9 25 26
f 23 26 25
f 26 23 24
f 23 18 20
f 18 23 25
f 25 5 18
f 5 25 4
f 24 7 22
f 7 24 3
f 26 22 16
f 22 26 24
f 9 16 12
f 16 9 26
f 29 28 27
f 28 29 30
f 32 27 31
f 27 32 29
f 35 34 33
f 34 35 36
f 36 37 34
f 37 36 38
f 41 40 39
f 40 41 42
f 30 40 28
f 40 30 39
f 41 33 42
f 33 41 35
f 30 41 39
f 41 30 35
f 35 30 29
f 35 29 36
f 36 29 32
f 36 32 38
f 37 32 31
f 32 37 38
f 43 37 31
f 37 43 44
f 34 44 45
f 44 34 37
f 33 45 46
f 45 33 34
f 40 47 28
f 47 40 48
f 42 48 40
f 48 42 49
f 27 47 50
f 47 27 28
f 31 50 43
f 50 31 27
f 42 46 49
f 46 42 33
f 46 48 49
f 48 46 47
f 47 46 45
f 47 45 50
f 50 45 44
f 50 44 43
f 53 52 51
f 52 53 54
f 57 56 55
f 56 57 58
f 61 60 59
f 60 61 62
f 65 64 63
f 64 65 66
f 58 61 56
f 61 58 62
f 65 55 66
f 55 65 57
f 54 64 52
f 64 54 63
f 60 51 59
f 51 60 53
f 55 64 66
f 64 55 52
f 52 55 56
f 52 56 51
f 51 56 61
f 51 61 59
f 69 68 67
f 68 69 70
f 70 69 71
f 70 71 72
f 72 71 73
f 72 73 74
f 60 71 53
f 71 60 73
f 62 73 60
f 73 62 74
f 69 63 54
f 63 69 67
f 68 57 65
f 57 68 70
f 67 65 63
f 65 67 68
f 62 72 74
f 72 62 58
f 71 54 53
f 54 71 69
f 70 58 57
f 58 70 72
f 77 76 75
f 76 77 78
f 77 79 78
f 79 77 80
f 83 82 81
f 82 83 84
f 87 86 85
f 86 87 88
f 80 83 79
f 83 80 84
f 75 90 89
f 90 75 76
f 88 90 86
f 90 88 89
f 81 87 85
f 87 81 82
