# City room prop — unit cell 0..1
o pillowLong
v 0.119611 0.131098 0.396999
v 0.119611 0.513845 0.499556
v 0.119611 0.050000 0.430705
v 0.119611 0.103380 0.500444
v 0.119611 0.567225 0.569295
v 0.119611 0.486127 0.603001
v 0.050000 0.499986 0.551278
v 0.950000 0.117239 0.448722
v 0.880389 0.050000 0.430705
v 0.880389 0.103380 0.500444
v 0.050000 0.117239 0.448722
v 0.950000 0.499986 0.551278
v 0.880389 0.567225 0.569295
v 0.880389 0.131098 0.396999
v 0.880389 0.513845 0.499556
v 0.880389 0.486127 0.603001
f 2 1 3
f 3 4 2
f 4 5 2
f 4 6 5
f 5 2 7
f 9 8 10
f 11 4 6
f 6 7 11
f 11 3 9
f 9 8 11
f 8 7 11
f 8 12 7
f 12 5 7
f 12 13 5
f 14 1 2
f 2 15 14
f 9 14 15
f 15 10 9
f 15 13 10
f 13 16 10
f 14 8 10
f 10 4 14
f 4 1 14
f 4 11 1
f 3 4 11
f 12 8 14
f 14 15 12
f 16 12 13
f 16 12 15
f 15 6 16
f 15 2 6
f 2 7 6
f 16 10 8
f 8 12 16
f 6 4 10
f 10 16 6
f 9 3 1
f 1 14 9
f 3 9 10
f 10 4 3
f 3 11 1
f 1 11 7
f 7 2 1
f 5 13 15
f 15 2 5
f 13 12 15
f 8 9 14
f 5 6 16
f 16 13 5
f 7 6 5
