# City room prop — voxel footprint 2x4x2 (0.5 m cells)
o pillarObelisk
v 1.455114 0.040000 1.637160
v 0.544886 0.040000 1.637160
v 1.455114 0.404091 1.637160
v 0.544886 0.404091 1.637160
v 1.637160 0.404091 0.544886
v 1.637160 0.040000 0.544886
v 1.637160 0.404091 1.455114
v 1.637160 0.040000 1.455114
v 0.544886 0.040000 0.362840
v 1.455114 0.040000 0.362840
v 0.544886 0.404091 0.362840
v 1.455114 0.404091 0.362840
v 0.362840 0.040000 0.544886
v 0.362840 0.404091 0.544886
v 0.362840 0.040000 1.455114
v 0.362840 0.404091 1.455114
v 1.455114 0.404091 1.455114
v 1.455114 0.404091 0.544886
v 0.544886 0.404091 1.455114
v 0.544886 0.404091 0.544886
v 1.053556 3.724605 0.946444
v 1.053556 3.724605 1.053556
v 0.946444 3.724605 0.946444
v 0.946444 3.724605 1.053556
v 1.282171 3.146313 1.282171
v 0.717829 3.146313 1.282171
v 0.717829 3.146313 0.717829
v 1.282171 3.146313 0.717829
v 1.546137 1.132274 0.544886
v 1.546137 0.768183 0.544886
v 1.546137 1.132274 1.455114
v 1.546137 0.768183 1.455114
v 1.455114 0.768183 1.546137
v 0.544886 0.768183 1.546137
v 1.455114 1.132274 1.546137
v 0.544886 1.132274 1.546137
v 0.544886 0.768183 0.453863
v 1.455114 0.768183 0.453863
v 0.544886 1.132274 0.453863
v 1.455114 1.132274 0.453863
v 0.453863 0.768183 0.544886
v 0.453863 1.132274 0.544886
v 0.453863 0.768183 1.455114
v 0.453863 1.132274 1.455114
f 3 2 1
f 2 3 4
f 7 6 5
f 6 7 8
f 11 10 9
f 10 11 12
f 15 14 13
f 14 15 16
f 5 10 12
f 10 5 6
f 3 8 7
f 8 3 1
f 13 11 9
f 11 13 14
f 2 16 15
f 16 2 4
f 1 6 8
f 6 1 10
f 10 1 2
f 10 2 9
f 9 2 15
f 9 15 13
f 12 7 5
f 7 12 3
f 3 12 11
f 3 11 4
f 4 11 14
f 4 14 16
f 19 18 17
f 18 19 20
f 23 22 21
f 22 23 24
f 25 19 17
f 19 25 26
f 19 27 20
f 27 19 26
f 27 18 20
f 18 27 28
f 28 17 18
f 17 28 25
f 23 28 27
f 28 23 21
f 26 23 27
f 23 26 24
f 22 26 25
f 26 22 24
f 21 25 28
f 25 21 22
f 31 30 29
f 30 31 32
f 35 34 33
f 34 35 36
f 39 38 37
f 38 39 40
f 43 42 41
f 42 43 44
f 35 32 31
f 32 35 33
f 41 39 37
f 39 41 42
f 29 38 40
f 38 29 30
f 34 44 43
f 44 34 36
f 40 31 29
f 31 40 35
f 35 40 39
f 35 39 36
f 36 39 42
f 36 42 44
f 33 30 32
f 30 33 38
f 38 33 34
f 38 34 37
f 37 34 43
f 37 43 41
f 3 2 1
f 2 3 4
f 7 6 5
f 6 7 8
f 11 10 9
f 10 11 12
f 15 14 13
f 14 15 16
f 5 10 12
f 10 5 6
f 3 8 7
f 8 3 1
f 13 11 9
f 11 13 14
f 2 16 15
f 16 2 4
f 1 6 8
f 6 1 10
f 10 1 2
f 10 2 9
f 9 2 15
f 9 15 13
f 12 7 5
f 7 12 3
f 3 12 11
f 3 11 4
f 4 11 14
f 4 14 16
f 19 18 17
f 18 19 20
f 23 22 21
f 22 23 24
f 25 19 17
f 19 25 26
f 19 27 20
f 27 19 26
f 27 18 20
f 18 27 28
f 28 17 18
f 17 28 25
f 23 28 27
f 28 23 21
f 26 23 27
f 23 26 24
f 22 26 25
f 26 22 24
f 21 25 28
f 25 21 22
f 31 30 29
f 30 31 32
f 35 34 33
f 34 35 36
f 39 38 37
f 38 39 40
f 43 42 41
f 42 43 44
f 35 32 31
f 32 35 33
f 41 39 37
f 39 41 42
f 29 38 40
f 38 29 30
f 34 44 43
f 44 34 36
f 40 31 29
f 31 40 35
f 35 40 39
f 35 39 36
f 36 39 42
f 36 42 44
f 33 30 32
f 30 33 38
f 38 33 34
f 38 34 37
f 37 34 43
f 37 43 41
