# City room prop — voxel footprint 2x1x2 (0.5 m cells)
o plant_bush
v 1.267216 0.620617 1.520122
v 1.000000 0.591773 1.734845
v 0.732784 0.620617 1.520122
v 1.267216 0.620617 0.479878
v 1.267216 0.476555 0.726660
v 0.732784 0.620617 0.479878
v 0.732784 0.476555 0.726660
v 1.000000 0.040000 1.000000
v 1.267216 0.476555 1.273340
v 0.732784 0.476555 1.273340
v 1.520122 0.947213 0.732784
v 1.520122 0.947213 1.267216
v 1.273340 0.722116 0.732784
v 1.273340 0.722116 1.267216
v 0.479878 0.947213 0.732784
v 0.479878 0.947213 1.267216
v 0.265155 0.902147 1.000000
v 0.726660 0.722116 0.732784
v 0.726660 0.722116 1.267216
v 1.734845 0.902147 1.000000
v 1.000000 0.591773 0.265155
f 3 2 1
f 1 2 3
f 6 5 4
f 5 6 7
f 4 5 6
f 7 6 5
f 7 8 5
f 5 8 7
f 10 1 9
f 1 10 3
f 9 1 10
f 3 10 1
f 13 12 11
f 12 13 14
f 11 12 13
f 14 13 12
f 9 8 10
f 10 8 9
f 17 16 15
f 15 16 17
f 15 19 18
f 19 15 16
f 18 19 15
f 16 15 19
f 19 8 18
f 18 8 19
f 12 20 11
f 11 20 12
f 6 4 21
f 21 4 6
f 14 13 8
f 8 13 14
