# City room prop — voxel footprint 2x1x2 (0.5 m cells)
o plant_bushSmall
v 1.000000 0.040000 1.000000
v 0.711629 0.376990 1.134462
v 1.000000 0.809333 1.624140
v 0.846894 0.289622 1.351813
v 0.289321 0.609876 1.000000
v 1.288371 0.376990 0.865538
v 1.000000 0.809333 0.375860
v 0.711629 0.376990 0.865538
v 1.153106 0.289622 1.351813
v 1.710679 0.609876 1.000000
v 1.153106 0.289622 0.648187
v 0.846894 0.289622 0.648187
v 1.288371 0.376990 1.134462
f 3 2 1
f 1 2 3
f 5 1 4
f 4 1 5
f 7 6 1
f 1 6 7
f 7 1 8
f 8 1 7
f 1 10 9
f 9 10 1
f 1 11 10
f 10 11 1
f 5 12 1
f 1 12 5
f 3 1 13
f 13 1 3
