# City room prop — voxel footprint 2x1x2 (0.5 m cells)
o plant_bushLarge
v 1.000000 0.040000 1.267350
v 1.000000 0.269961 1.401025
v 1.231532 0.040000 1.133675
v 1.347298 0.269961 1.200513
v 0.652702 0.426172 0.799487
v 1.000000 0.426172 0.598975
v 0.460530 0.856903 0.688537
v 1.000000 0.856903 0.377074
v 1.539470 0.526456 0.688537
v 1.347298 0.542067 0.398462
v 1.000000 0.526456 0.377074
v 0.652702 0.909318 0.398462
v 1.000000 0.040000 0.732650
v 0.768468 0.040000 0.866325
v 1.347298 0.542067 1.601538
v 1.539470 0.526456 1.311463
v 1.000000 0.526456 1.622926
v 1.000000 0.269961 0.598975
v 1.347298 0.269961 0.799487
v 1.347298 0.426172 0.799487
v 1.231532 0.040000 0.866325
v 1.347298 0.426172 1.200513
v 1.539470 0.856903 0.688537
v 1.539470 0.856903 1.311463
v 1.000000 0.426172 1.401025
v 0.652702 0.426172 1.200513
v 1.000000 0.856903 1.622926
v 0.460530 0.856903 1.311463
v 0.652702 0.269961 0.799487
v 0.652702 0.269961 1.200513
v 0.768468 0.040000 1.133675
v 0.460530 0.526456 0.688537
v 0.460530 0.526456 1.311463
v 1.694596 0.920081 1.000000
v 0.652702 0.941607 1.601538
v 0.305404 0.499016 1.000000
f 3 2 1
f 2 3 4
f 1 2 3
f 4 3 2
f 7 6 5
f 6 7 8
f 5 6 7
f 8 7 6
f 11 10 9
f 9 10 11
f 7 12 8
f 8 12 7
f 14 6 13
f 6 14 5
f 13 6 14
f 5 14 6
f 17 16 15
f 15 16 17
f 11 19 18
f 19 11 9
f 18 19 11
f 9 11 19
f 22 21 20
f 21 22 3
f 20 21 22
f 3 22 21
f 24 20 23
f 20 24 22
f 23 20 24
f 22 24 20
f 27 26 25
f 26 27 28
f 25 26 27
f 28 27 26
f 18 21 13
f 21 18 19
f 13 21 18
f 19 18 21
f 14 30 29
f 30 14 31
f 29 30 14
f 31 14 30
f 29 33 32
f 33 29 30
f 32 33 29
f 30 29 33
f 23 34 24
f 24 34 23
f 28 27 35
f 35 27 28
f 1 26 31
f 26 1 25
f 31 26 1
f 25 1 26
f 16 2 4
f 2 16 17
f 4 2 16
f 17 16 2
f 36 32 33
f 33 32 36
