# City room prop — voxel footprint 1x1x1 (0.5 m cells)
o plantSmall2
v 0.461453 0.040000 0.643861
v 0.356139 0.040000 0.538548
v 0.446033 0.316596 0.701406
v 0.298594 0.316596 0.553967
v 0.605314 0.040000 0.605314
v 0.643861 0.040000 0.461453
v 0.394686 0.040000 0.394686
v 0.538548 0.040000 0.356139
v 0.388504 0.146383 0.388504
v 0.347694 0.146383 0.540810
v 0.388504 0.316596 0.388504
v 0.347694 0.316596 0.540810
v 0.553967 0.316596 0.298594
v 0.701406 0.316596 0.446033
v 0.352561 0.316596 0.352561
v 0.647439 0.316596 0.647439
v 0.459190 0.146383 0.652306
v 0.459190 0.316596 0.652306
v 0.652306 0.146383 0.459190
v 0.540810 0.146383 0.347694
v 0.652306 0.316596 0.459190
v 0.540810 0.316596 0.347694
v 0.611496 0.146383 0.611496
v 0.553192 0.146383 0.553192
v 0.553192 0.146383 0.446809
v 0.446809 0.146383 0.446809
v 0.446809 0.146383 0.553191
v 0.611496 0.316596 0.611496
v 0.540957 0.337872 0.459043
v 0.459043 0.337872 0.459043
v 0.540957 0.337872 0.540957
v 0.459043 0.337872 0.540957
v 0.455638 0.337872 0.576838
v 0.444722 0.337872 0.531915
v 0.444104 0.380426 0.596815
v 0.430349 0.380426 0.540213
v 0.444722 0.337872 0.468085
v 0.430349 0.380426 0.459787
v 0.411276 0.337872 0.500000
v 0.388207 0.380426 0.500000
v 0.611793 0.380426 0.500000
v 0.569651 0.380426 0.459787
v 0.588724 0.337872 0.500000
v 0.555278 0.337872 0.468085
v 0.569651 0.380426 0.540213
v 0.555278 0.337872 0.531915
v 0.544362 0.337872 0.576838
v 0.555896 0.380426 0.596815
v 0.500000 0.614468 0.456454
v 0.500000 0.635745 0.500000
v 0.469735 0.614468 0.447580
v 0.439470 0.614468 0.500000
v 0.462288 0.614468 0.478227
v 0.462288 0.614468 0.521773
v 0.469735 0.614468 0.552420
v 0.537712 0.614468 0.521773
v 0.530265 0.614468 0.552420
v 0.555896 0.380426 0.403185
v 0.500000 0.380426 0.419574
v 0.544362 0.337872 0.423162
v 0.500000 0.337872 0.436170
v 0.530265 0.614468 0.447580
v 0.560530 0.614468 0.500000
v 0.500000 0.380426 0.580426
v 0.500000 0.337872 0.563830
v 0.455638 0.337872 0.423162
v 0.444104 0.380426 0.403185
v 0.500000 0.614468 0.543546
v 0.537712 0.614468 0.478227
v 0.549608 0.571915 0.414076
v 0.500000 0.571915 0.428622
v 0.549608 0.571915 0.585924
v 0.500000 0.571915 0.571378
v 0.438185 0.571915 0.464311
v 0.450392 0.571915 0.414076
v 0.450392 0.571915 0.585924
v 0.438185 0.571915 0.535689
v 0.599216 0.571915 0.500000
v 0.561815 0.571915 0.535689
v 0.561815 0.571915 0.464311
v 0.400784 0.571915 0.500000
f 2 1 3
f 3 4 2
f 5 1 2
f 2 6 5
f 2 7 6
f 7 8 6
f 10 9 11
f 11 12 10
f 6 8 13
f 13 14 6
f 15 13 8
f 8 7 15
f 5 6 14
f 14 16 5
f 17 10 12
f 12 18 17
f 20 19 21
f 21 22 20
f 7 2 4
f 4 15 7
f 20 22 11
f 11 9 20
f 24 23 19
f 19 25 24
f 19 20 25
f 20 26 25
f 20 9 26
f 23 24 27
f 23 27 10
f 27 26 10
f 26 9 10
f 10 17 23
f 5 16 3
f 3 1 5
f 18 3 16
f 16 28 18
f 16 14 28
f 14 21 28
f 14 22 21
f 14 13 22
f 4 3 18
f 18 12 4
f 12 15 4
f 22 13 15
f 12 11 15
f 11 22 15
f 19 23 28
f 28 21 19
f 28 23 17
f 17 18 28
f 29 25 26
f 26 30 29
f 24 25 29
f 29 31 24
f 27 24 31
f 31 32 27
f 26 27 32
f 32 30 26
f 34 33 35
f 35 36 34
f 38 37 39
f 39 40 38
f 42 41 43
f 43 44 42
f 43 41 45
f 45 46 43
f 47 46 45
f 45 48 47
f 50 49 51
f 52 50 53
f 52 54 50
f 54 55 50
f 57 56 50
f 59 58 60
f 60 61 59
f 49 50 62
f 56 63 50
f 53 50 51
f 47 48 64
f 64 65 47
f 32 65 33
f 33 34 32
f 34 30 32
f 34 39 30
f 39 37 30
f 37 66 30
f 66 29 30
f 66 61 29
f 65 32 31
f 47 65 31
f 31 46 47
f 31 29 46
f 29 43 46
f 29 44 43
f 29 60 44
f 29 61 60
f 39 34 36
f 36 40 39
f 59 61 66
f 66 67 59
f 44 60 58
f 58 42 44
f 55 68 50
f 68 57 50
f 50 63 69
f 50 69 62
f 65 64 35
f 35 33 65
f 66 37 38
f 38 67 66
f 70 58 59
f 59 71 70
f 64 48 72
f 72 73 64
f 73 72 57
f 57 68 73
f 67 38 74
f 74 75 67
f 71 59 67
f 67 75 71
f 36 35 76
f 76 77 36
f 79 78 63
f 63 56 79
f 63 78 80
f 80 69 63
f 42 58 70
f 70 80 42
f 45 41 78
f 78 79 45
f 80 70 62
f 62 69 80
f 81 74 38
f 38 40 81
f 49 71 75
f 75 51 49
f 78 41 42
f 42 80 78
f 48 45 79
f 79 72 48
f 73 68 55
f 55 76 73
f 77 54 52
f 52 81 77
f 75 74 53
f 53 51 75
f 72 79 56
f 56 57 72
f 77 76 55
f 55 54 77
f 36 77 81
f 81 40 36
f 35 64 73
f 73 76 35
f 52 53 74
f 74 81 52
f 62 70 71
f 71 49 62
