# City room prop — unit cell 0..1
o plantSmall3
v 0.652069 0.453448 0.763391
v 0.608621 0.050000 0.688137
v 0.347931 0.453448 0.763391
v 0.391379 0.050000 0.688137
v 0.385003 0.205172 0.300820
v 0.270006 0.205172 0.500000
v 0.385003 0.453448 0.300820
v 0.270006 0.453448 0.500000
v 0.614997 0.205172 0.699180
v 0.385003 0.205172 0.699180
v 0.729994 0.205172 0.500000
v 0.577586 0.205172 0.577586
v 0.422414 0.205172 0.577586
v 0.577586 0.205172 0.422414
v 0.614997 0.205172 0.300820
v 0.422414 0.205172 0.422414
v 0.652069 0.453448 0.236609
v 0.347931 0.453448 0.236609
v 0.608621 0.050000 0.311863
v 0.391379 0.050000 0.311863
v 0.282759 0.050000 0.500000
v 0.195862 0.453448 0.500000
v 0.717241 0.050000 0.500000
v 0.804138 0.453448 0.500000
v 0.614997 0.453448 0.300820
v 0.614997 0.453448 0.699180
v 0.729994 0.453448 0.500000
v 0.385003 0.453448 0.699180
v 0.559741 0.484483 0.440259
v 0.440259 0.484483 0.440259
v 0.559741 0.484483 0.559741
v 0.440259 0.484483 0.559741
v 0.431749 0.484483 0.618215
v 0.363497 0.484483 0.500000
v 0.403766 0.577586 0.666683
v 0.307531 0.577586 0.500000
v 0.636503 0.484483 0.500000
v 0.568251 0.484483 0.618215
v 0.692469 0.577586 0.500000
v 0.596234 0.577586 0.666683
v 0.403766 0.577586 0.333317
v 0.386443 0.887931 0.500000
v 0.443222 0.887931 0.401657
v 0.613557 0.887931 0.500000
v 0.556778 0.887931 0.598343
v 0.500000 0.950000 0.500000
v 0.443222 0.887931 0.598343
v 0.596234 0.577586 0.333317
v 0.556778 0.887931 0.401657
v 0.568251 0.484483 0.381785
v 0.431749 0.484483 0.381785
f 2 1 3
f 3 4 2
f 6 5 7
f 7 8 6
f 10 9 11
f 11 12 10
f 12 13 10
f 11 14 12
f 11 15 14
f 15 5 14
f 6 10 13
f 13 16 6
f 16 5 6
f 16 14 5
f 18 17 19
f 19 20 18
f 20 21 22
f 22 18 20
f 23 2 4
f 4 21 23
f 21 20 23
f 20 19 23
f 2 23 24
f 24 1 2
f 15 25 7
f 7 5 15
f 23 19 17
f 17 24 23
f 26 3 1
f 1 24 26
f 24 27 26
f 24 25 27
f 24 17 25
f 3 26 28
f 28 22 3
f 28 8 22
f 8 7 22
f 7 18 22
f 7 25 18
f 25 17 18
f 26 9 10
f 10 28 26
f 11 9 26
f 26 27 11
f 21 4 3
f 3 22 21
f 10 6 8
f 8 28 10
f 15 11 27
f 27 25 15
f 29 14 16
f 16 30 29
f 13 12 31
f 31 32 13
f 16 13 32
f 32 30 16
f 12 14 29
f 29 31 12
f 34 33 35
f 35 36 34
f 38 37 39
f 39 40 38
f 41 36 42
f 42 43 41
f 40 39 44
f 44 45 40
f 47 46 42
f 47 45 46
f 38 40 35
f 35 33 38
f 49 48 41
f 41 43 49
f 46 49 43
f 36 35 47
f 47 42 36
f 41 48 50
f 50 51 41
f 35 40 45
f 45 47 35
f 42 46 43
f 39 48 49
f 49 44 39
f 37 50 48
f 48 39 37
f 46 44 49
f 51 34 36
f 36 41 51
f 46 45 44
f 32 38 33
f 33 34 32
f 34 30 32
f 34 51 30
f 51 29 30
f 38 32 31
f 31 37 38
f 31 29 37
f 29 50 37
f 29 51 50
