# City room prop — unit cell 0..1
o plantSmall1
v 0.441766 0.050000 0.717333
v 0.659099 0.050000 0.659099
v 0.282667 0.050000 0.558234
v 0.717333 0.050000 0.441766
v 0.340901 0.050000 0.340901
v 0.558234 0.050000 0.282667
v 0.418472 0.467857 0.804267
v 0.438347 0.467857 0.730091
v 0.722739 0.467857 0.722739
v 0.668438 0.467857 0.668438
v 0.804267 0.467857 0.418472
v 0.730091 0.467857 0.438347
v 0.561653 0.467857 0.269909
v 0.581528 0.467857 0.195733
v 0.195733 0.467857 0.581528
v 0.269909 0.467857 0.561653
v 0.277261 0.467857 0.277261
v 0.331562 0.467857 0.331562
v 0.419643 0.210714 0.580357
v 0.580357 0.210714 0.580357
v 0.668438 0.210714 0.668438
v 0.730091 0.210714 0.438347
v 0.580357 0.210714 0.419643
v 0.561653 0.210714 0.269909
v 0.331562 0.210714 0.331562
v 0.269909 0.210714 0.561653
v 0.438347 0.210714 0.730091
v 0.419643 0.210714 0.419643
v 0.438125 0.500000 0.561875
v 0.438125 0.500000 0.438125
v 0.561875 0.500000 0.561875
v 0.561875 0.500000 0.438125
v 0.640861 0.628571 0.642604
v 0.357396 0.628571 0.642604
v 0.573963 0.757143 0.575707
v 0.424293 0.757143 0.575707
v 0.640861 0.628571 0.359139
v 0.573963 0.757143 0.426037
v 0.357396 0.628571 0.359139
v 0.424293 0.757143 0.426037
v 0.615943 0.757143 0.617686
v 0.382314 0.757143 0.617686
v 0.382314 0.757143 0.384057
v 0.615943 0.757143 0.384057
v 0.657981 0.500000 0.342019
v 0.589187 0.628571 0.410813
v 0.340276 0.500000 0.342019
v 0.409070 0.628571 0.410813
v 0.499128 0.950000 0.500872
v 0.409070 0.628571 0.590930
v 0.589187 0.628571 0.590930
v 0.340276 0.500000 0.659724
v 0.657981 0.500000 0.659724
f 2 1 3
f 3 4 2
f 3 5 4
f 5 6 4
f 8 7 9
f 9 10 8
f 9 11 10
f 11 12 10
f 11 13 12
f 11 14 13
f 15 7 8
f 8 16 15
f 16 17 15
f 13 14 17
f 16 18 17
f 18 13 17
f 20 19 21
f 21 22 20
f 22 23 20
f 22 24 23
f 24 25 23
f 21 19 26
f 26 27 21
f 19 28 26
f 28 25 26
f 28 23 25
f 2 4 11
f 11 9 2
f 2 9 7
f 7 1 2
f 22 21 10
f 10 12 22
f 27 26 16
f 16 8 27
f 10 21 27
f 27 8 10
f 24 22 12
f 12 13 24
f 26 25 18
f 18 16 26
f 5 3 15
f 15 17 5
f 17 14 6
f 6 5 17
f 24 13 18
f 18 25 24
f 3 1 7
f 7 15 3
f 4 6 14
f 14 11 4
f 28 19 29
f 29 30 28
f 19 20 31
f 31 29 19
f 20 23 32
f 32 31 20
f 32 23 28
f 28 30 32
f 34 33 35
f 35 36 34
f 38 37 39
f 39 40 38
f 33 37 38
f 38 35 33
f 36 41 42
f 42 43 36
f 36 35 41
f 43 40 36
f 43 38 40
f 44 41 35
f 35 38 44
f 38 43 44
f 46 45 47
f 47 48 46
f 41 44 49
f 43 42 49
f 50 33 34
f 34 39 50
f 39 48 50
f 33 50 51
f 51 37 33
f 48 39 37
f 51 46 37
f 46 48 37
f 47 52 50
f 50 48 47
f 52 53 51
f 51 50 52
f 39 34 36
f 36 40 39
f 29 53 52
f 52 47 29
f 47 30 29
f 47 32 30
f 53 29 31
f 31 45 53
f 31 32 45
f 32 47 45
f 49 44 43
f 53 45 46
f 46 51 53
f 41 49 42
