# City room prop — voxel footprint 2x1x2 (0.5 m cells)
o pot_small
v 1.343284 0.040000 1.000000
v 1.171642 0.040000 1.297292
v 1.442836 0.616716 1.000000
v 1.221418 0.616716 1.383507
v 0.778582 0.616716 0.616493
v 0.557164 0.616716 1.000000
v 0.828358 0.040000 0.702708
v 0.656716 0.040000 1.000000
v 0.828358 0.040000 1.297292
v 0.778582 0.616716 1.383507
v 1.221418 0.616716 0.616493
v 1.171642 0.040000 0.702708
v 0.778582 0.960000 0.616493
v 0.778582 0.788358 0.616493
v 0.557164 0.960000 1.000000
v 0.557164 0.788358 1.000000
v 0.778582 0.960000 1.383507
v 0.778582 0.788358 1.383507
v 1.442836 0.788358 1.000000
v 1.442836 0.960000 1.000000
v 1.221418 0.788358 1.383507
v 1.221418 0.960000 1.383507
v 1.221418 0.788358 0.616493
v 1.221418 0.960000 0.616493
v 0.444825 0.616716 1.000000
v 0.444825 0.960000 1.000000
v 0.722413 0.616716 1.480795
v 0.722413 0.960000 1.480795
v 0.722413 0.616716 0.519205
v 1.277587 0.616716 0.519205
v 0.722413 0.960000 0.519205
v 1.277587 0.960000 0.519205
v 1.555175 0.960000 1.000000
v 1.555175 0.616716 1.000000
v 1.277587 0.960000 1.480795
v 1.277587 0.616716 1.480795
f 3 2 1
f 2 3 4
f 7 6 5
f 6 7 8
f 4 9 2
f 9 4 10
f 3 12 11
f 12 3 1
f 2 12 1
f 12 2 9
f 12 9 7
f 7 9 8
f 15 14 13
f 14 15 16
f 17 16 15
f 16 17 18
f 21 20 19
f 20 21 22
f 24 14 23
f 14 24 13
f 9 6 8
f 6 9 10
f 27 26 25
f 26 27 28
f 19 24 23
f 24 19 20
f 31 30 29
f 30 31 32
f 35 34 33
f 34 35 36
f 32 20 33
f 20 32 24
f 24 32 31
f 24 31 13
f 13 31 15
f 15 31 26
f 20 35 33
f 35 20 22
f 35 22 28
f 28 15 26
f 28 22 17
f 28 17 15
f 36 3 34
f 3 36 4
f 4 36 27
f 4 27 10
f 10 27 6
f 6 27 25
f 3 30 34
f 30 3 11
f 30 11 29
f 29 6 25
f 29 11 5
f 29 5 6
f 5 12 7
f 12 5 11
f 17 21 18
f 21 17 22
f 33 30 32
f 30 33 34
f 35 27 36
f 27 35 28
f 25 31 29
f 31 25 26
f 23 21 19
f 21 23 14
f 21 14 18
f 18 14 16
f 4 11 3
f 11 4 10
f 11 10 5
f 5 10 6
