# City room prop — voxel footprint 3x1x2 (0.5 m cells)
o pot_large
v 1.871134 0.040000 1.642823
v 1.128866 0.040000 1.642823
v 1.915670 0.411134 1.719962
v 1.084330 0.411134 1.719962
v 1.084330 0.411134 0.280038
v 0.668660 0.411134 1.000000
v 1.128866 0.040000 0.357177
v 0.757732 0.040000 1.000000
v 0.454151 0.411134 1.000000
v 0.454151 0.782268 1.000000
v 0.977076 0.411134 1.905732
v 0.977076 0.782268 1.905732
v 1.084330 0.596701 1.719962
v 1.915670 0.596701 1.719962
v 1.084330 0.782268 1.719962
v 1.915670 0.782268 1.719962
v 1.084330 0.782268 0.280038
v 1.084330 0.596701 0.280038
v 0.668660 0.782268 1.000000
v 0.668660 0.596701 1.000000
v 2.545849 0.411134 1.000000
v 2.331340 0.411134 1.000000
v 2.022924 0.411134 1.905732
v 2.022924 0.411134 0.094268
v 1.915670 0.411134 0.280038
v 0.977076 0.411134 0.094268
v 2.242268 0.040000 1.000000
v 2.545849 0.782268 1.000000
v 2.331340 0.782268 1.000000
v 2.022924 0.782268 0.094268
v 1.915670 0.782268 0.280038
v 0.977076 0.782268 0.094268
v 2.022924 0.782268 1.905732
v 1.871134 0.040000 0.357177
v 1.915670 0.596701 0.280038
v 2.331340 0.596701 1.000000
f 3 2 1
f 2 3 4
f 7 6 5
f 6 7 8
f 11 10 9
f 10 11 12
f 15 14 13
f 14 15 16
f 19 18 17
f 18 19 20
f 23 22 21
f 22 23 3
f 3 23 11
f 3 11 4
f 4 11 6
f 6 11 9
f 22 24 21
f 24 22 25
f 24 25 26
f 26 6 9
f 26 25 5
f 26 5 6
f 3 27 22
f 27 3 1
f 2 6 8
f 6 2 4
f 30 29 28
f 29 30 31
f 31 30 32
f 31 32 17
f 17 32 19
f 19 32 10
f 29 33 28
f 33 29 16
f 33 16 12
f 12 19 10
f 12 16 15
f 12 15 19
f 5 34 7
f 34 5 25
f 31 18 35
f 18 31 17
f 33 11 23
f 11 33 12
f 9 32 26
f 32 9 10
f 36 31 35
f 31 36 29
f 1 34 27
f 34 1 7
f 7 1 2
f 7 2 8
f 22 34 25
f 34 22 27
f 32 24 26
f 24 32 30
f 33 21 28
f 21 33 23
f 15 20 19
f 20 15 13
f 14 29 36
f 29 14 16
f 28 24 30
f 24 28 21
f 35 14 36
f 14 35 18
f 14 18 13
f 13 18 20
