# City room prop — unit cell 0..1
o pottedPlant
v 0.381945 0.384450 0.431841
v 0.381945 0.384450 0.568159
v 0.407044 0.050000 0.446332
v 0.407044 0.050000 0.553668
v 0.411173 0.384450 0.448716
v 0.411173 0.350323 0.448716
v 0.411173 0.384450 0.551284
v 0.411173 0.350323 0.551284
v 0.500000 0.350323 0.602568
v 0.500000 0.384450 0.602568
v 0.500000 0.350323 0.397432
v 0.500000 0.384450 0.397432
v 0.588827 0.350323 0.551284
v 0.588827 0.384450 0.551284
v 0.588827 0.384450 0.448716
v 0.618054 0.384450 0.431841
v 0.500000 0.384450 0.363682
v 0.618054 0.384450 0.568159
v 0.500000 0.384450 0.636318
v 0.500000 0.050000 0.607337
v 0.500000 0.050000 0.392663
v 0.592956 0.050000 0.446332
v 0.588827 0.350323 0.448716
v 0.592956 0.050000 0.553668
v 0.645909 0.950000 0.500000
v 0.500000 0.212711 0.500000
v 0.531434 0.535665 0.567414
v 0.417755 0.451936 0.535792
v 0.500000 0.758851 0.666139
v 0.582245 0.451936 0.464208
v 0.500000 0.758851 0.333861
v 0.468566 0.535665 0.432586
v 0.354091 0.950000 0.500000
v 0.417755 0.451936 0.464208
v 0.468566 0.535665 0.567414
v 0.531434 0.535665 0.432586
v 0.582245 0.451936 0.535792
f 2 1 3
f 3 4 2
f 6 5 7
f 7 8 6
f 9 8 7
f 7 10 9
f 6 11 12
f 12 5 6
f 13 9 10
f 10 14 13
f 15 14 16
f 16 17 15
f 17 12 15
f 17 5 12
f 17 1 5
f 1 2 5
f 18 16 14
f 14 19 18
f 14 10 19
f 10 2 19
f 10 7 2
f 7 5 2
f 4 20 19
f 19 2 4
f 22 21 17
f 17 16 22
f 15 23 13
f 13 14 15
f 22 24 20
f 20 21 22
f 20 4 21
f 4 3 21
f 21 3 1
f 1 17 21
f 11 23 15
f 15 12 11
f 20 24 18
f 18 19 20
f 22 16 18
f 18 24 22
f 9 13 23
f 23 11 9
f 11 8 9
f 11 6 8
f 26 25 27
f 26 27 25
f 28 26 29
f 28 29 26
f 30 26 31
f 30 31 26
f 32 26 33
f 32 33 26
f 26 34 31
f 26 31 34
f 33 26 35
f 33 35 26
f 36 25 26
f 36 26 25
f 26 37 29
f 26 29 37
