# City room prop — voxel footprint 2x1x1 (0.5 m cells)
o radio
v 1.011702 0.795945 0.553228
v 0.588373 0.795945 0.553228
v 1.011702 0.795945 0.462514
v 0.588373 0.795945 0.462514
v 0.588373 0.765708 0.462514
v 0.588373 0.765708 0.553228
v 0.365006 0.506433 0.454643
v 0.365006 0.960000 0.454643
v 0.365006 0.506433 0.545357
v 0.365006 0.960000 0.545357
v 1.011702 0.765708 0.462514
v 1.011702 0.765708 0.553228
v 1.634994 0.960000 0.545357
v 1.634994 0.960000 0.454643
v 0.474686 0.088712 0.303454
v 1.525314 0.088712 0.303454
v 0.469303 0.089065 0.303454
v 1.530698 0.089065 0.303454
v 0.465578 0.089806 0.303454
v 1.534422 0.089806 0.303454
v 0.461982 0.091027 0.303454
v 1.538018 0.091027 0.303454
v 1.541424 0.092706 0.303454
v 0.458576 0.092706 0.303454
v 0.455419 0.094816 0.303454
v 1.544581 0.094816 0.303454
v 0.452563 0.097320 0.303454
v 1.547437 0.097320 0.303454
v 1.549940 0.100175 0.303454
v 0.450060 0.100175 0.303454
v 0.447950 0.103332 0.303454
v 1.552050 0.103332 0.303454
v 0.446270 0.106738 0.303454
v 1.553730 0.106738 0.303454
v 0.445050 0.110334 0.303454
v 1.554950 0.110334 0.303454
v 1.555691 0.114059 0.303454
v 0.444309 0.114059 0.303454
v 1.556044 0.119443 0.303454
v 0.443956 0.119443 0.303454
v 0.482627 0.402854 0.303454
v 0.443956 0.686265 0.303454
v 1.517374 0.402854 0.303454
v 0.482627 0.678325 0.303454
v 1.556044 0.686265 0.303454
v 1.517374 0.678325 0.303454
v 0.444309 0.691649 0.303454
v 1.555691 0.691649 0.303454
v 0.445050 0.695374 0.303454
v 1.554950 0.695374 0.303454
v 0.446270 0.698969 0.303454
v 1.553730 0.698969 0.303454
v 1.552050 0.702375 0.303454
v 0.447950 0.702375 0.303454
v 1.549940 0.705533 0.303454
v 0.450060 0.705533 0.303454
v 0.452563 0.708388 0.303454
v 1.547437 0.708388 0.303454
v 0.455419 0.710892 0.303454
v 1.544581 0.710892 0.303454
v 0.458576 0.713001 0.303454
v 1.541424 0.713001 0.303454
v 0.461982 0.714681 0.303454
v 1.538018 0.714681 0.303454
v 0.465578 0.715902 0.303454
v 1.534422 0.715902 0.303454
v 1.530698 0.716642 0.303454
v 0.469303 0.716642 0.303454
v 0.474686 0.716995 0.303454
v 1.525314 0.716995 0.303454
v 1.604756 0.687860 0.454643
v 1.604756 0.917384 0.454643
v 1.604756 0.687860 0.545357
v 1.604756 0.917384 0.545357
v 0.395244 0.917384 0.545357
v 0.395244 0.917384 0.454643
v 0.395244 0.687860 0.454643
v 0.395244 0.687860 0.545357
v 0.395244 0.506433 0.454643
v 1.634994 0.506433 0.454643
v 1.604756 0.506433 0.454643
v 1.634994 0.506433 0.545357
v 1.604756 0.506433 0.545357
v 0.395244 0.506433 0.545357
v 1.400895 0.480507 0.303454
v 1.453269 0.510745 0.303454
v 1.348522 0.510745 0.303454
v 1.453269 0.571221 0.303454
v 1.348522 0.571221 0.303454
v 1.400895 0.601459 0.303454
v 0.614712 0.480507 0.303454
v 0.667085 0.510745 0.303454
v 0.562339 0.510745 0.303454
v 0.667085 0.571221 0.303454
v 0.562339 0.571221 0.303454
v 0.614712 0.601459 0.303454
v 1.581955 0.742907 0.696546
v 1.574299 0.749621 0.696546
v 1.581955 0.742907 0.303454
v 1.574299 0.749621 0.303454
v 1.588669 0.735250 0.303454
v 1.588669 0.735250 0.696546
v 0.443300 0.759782 0.696546
v 0.434167 0.755278 0.696546
v 0.443300 0.759782 0.303454
v 0.434167 0.755278 0.303454
v 0.473092 0.765708 0.696546
v 0.462930 0.765041 0.696546
v 0.473092 0.765708 0.303454
v 0.462930 0.765041 0.303454
v 0.452943 0.763055 0.696546
v 0.452943 0.763055 0.303454
v 1.537070 0.040666 0.696546
v 1.537070 0.040666 0.303454
v 1.526908 0.040000 0.696546
v 1.526908 0.040000 0.303454
v 0.452943 0.042653 0.696546
v 0.452943 0.042653 0.303454
v 0.443300 0.045926 0.696546
v 0.443300 0.045926 0.303454
v 0.434167 0.050430 0.696546
v 0.434167 0.050430 0.303454
v 1.581955 0.062801 0.696546
v 1.581955 0.062801 0.303454
v 1.574299 0.056087 0.696546
v 1.574299 0.056087 0.303454
v 0.473092 0.040000 0.696546
v 0.462930 0.040666 0.696546
v 1.547057 0.042653 0.696546
v 1.556699 0.045926 0.696546
v 1.565832 0.050430 0.696546
v 0.425701 0.056087 0.696546
v 0.418045 0.062801 0.696546
v 1.588669 0.070457 0.696546
v 0.411331 0.070457 0.696546
v 1.594327 0.078924 0.696546
v 0.405673 0.078924 0.696546
v 1.598830 0.088057 0.696546
v 0.401170 0.088057 0.696546
v 1.602104 0.097699 0.696546
v 0.397896 0.097699 0.696546
v 1.604090 0.107687 0.696546
v 0.395910 0.107687 0.696546
v 1.604756 0.117848 0.696546
v 0.395244 0.117848 0.696546
v 1.604756 0.687860 0.696546
v 0.395244 0.687860 0.696546
v 1.604090 0.698021 0.696546
v 0.395910 0.698021 0.696546
v 1.602104 0.708008 0.696546
v 0.397896 0.708008 0.696546
v 1.598830 0.717651 0.696546
v 0.401170 0.717651 0.696546
v 1.594327 0.726783 0.696546
v 0.405673 0.726783 0.696546
v 0.411331 0.735250 0.696546
v 0.418045 0.742907 0.696546
v 0.425701 0.749621 0.696546
v 1.565832 0.755278 0.696546
v 1.556699 0.759782 0.696546
v 1.547057 0.763055 0.696546
v 1.537070 0.765041 0.696546
v 1.526908 0.765708 0.696546
v 0.425701 0.749621 0.303454
v 0.405673 0.726783 0.303454
v 0.411331 0.735250 0.303454
v 0.395244 0.117848 0.303454
v 0.395244 0.687860 0.303454
v 0.395910 0.698021 0.303454
v 0.397896 0.708008 0.303454
v 0.473092 0.040000 0.303454
v 0.462930 0.040666 0.303454
v 1.547057 0.042653 0.303454
v 1.556699 0.045926 0.303454
v 1.565832 0.050430 0.303454
v 0.425701 0.056087 0.303454
v 0.418045 0.062801 0.303454
v 0.411331 0.070457 0.303454
v 1.588669 0.070457 0.303454
v 0.405673 0.078924 0.303454
v 1.594327 0.078924 0.303454
v 0.401170 0.088057 0.303454
v 1.598830 0.088057 0.303454
v 0.397896 0.097699 0.303454
v 0.395910 0.107687 0.303454
v 0.401170 0.717651 0.303454
v 1.598830 0.717651 0.303454
v 1.602104 0.708008 0.303454
v 1.604090 0.698021 0.303454
v 1.604756 0.687860 0.303454
v 1.604756 0.117848 0.303454
v 1.604090 0.107687 0.303454
v 1.602104 0.097699 0.303454
v 1.594327 0.726783 0.303454
v 0.418045 0.742907 0.303454
v 1.565832 0.755278 0.303454
v 1.556699 0.759782 0.303454
v 1.547057 0.763055 0.303454
v 1.537070 0.765041 0.303454
v 1.526908 0.765708 0.303454
v 0.562339 0.510745 0.363930
v 0.562339 0.571221 0.363930
v 1.400895 0.601459 0.363930
v 1.348522 0.571221 0.363930
v 1.453269 0.510745 0.363930
v 1.400895 0.480507 0.363930
v 0.667085 0.571221 0.363930
v 0.614712 0.601459 0.363930
v 1.453269 0.571221 0.363930
v 1.348522 0.510745 0.363930
v 0.667085 0.510745 0.363930
v 0.614712 0.480507 0.363930
v 1.517374 0.678325 0.363930
v 0.482627 0.678325 0.363930
v 0.482627 0.402854 0.363930
v 1.517374 0.402854 0.363930
f 2 1 3
f 3 4 2
f 4 5 6
f 6 2 4
f 8 7 9
f 9 10 8
f 11 3 1
f 1 12 11
f 10 13 14
f 14 8 10
f 16 15 17
f 17 18 16
f 17 19 18
f 19 20 18
f 19 21 20
f 21 22 20
f 21 23 22
f 21 24 23
f 24 25 23
f 25 26 23
f 25 27 26
f 27 28 26
f 27 29 28
f 27 30 29
f 30 31 29
f 31 32 29
f 31 33 32
f 33 34 32
f 33 35 34
f 35 36 34
f 35 37 36
f 35 38 37
f 38 39 37
f 38 40 39
f 40 41 39
f 40 42 41
f 41 43 39
f 42 44 41
f 45 39 43
f 44 42 45
f 43 46 45
f 46 44 45
f 42 47 45
f 47 48 45
f 47 49 48
f 49 50 48
f 49 51 50
f 51 52 50
f 51 53 52
f 51 54 53
f 54 55 53
f 54 56 55
f 56 57 55
f 57 58 55
f 57 59 58
f 59 60 58
f 59 61 60
f 61 62 60
f 61 63 62
f 63 64 62
f 63 65 64
f 65 66 64
f 65 67 66
f 65 68 67
f 68 69 67
f 69 70 67
f 72 71 73
f 73 74 72
f 72 74 75
f 75 76 72
f 77 76 75
f 75 78 77
f 79 7 8
f 8 77 79
f 8 76 77
f 8 72 76
f 72 8 14
f 71 72 14
f 71 14 80
f 80 81 71
f 80 14 13
f 13 82 80
f 83 82 13
f 13 73 83
f 13 74 73
f 13 75 74
f 75 13 10
f 78 75 10
f 78 10 9
f 9 84 78
f 11 5 4
f 4 3 11
f 6 12 1
f 1 2 6
f 86 85 87
f 87 88 86
f 87 89 88
f 89 90 88
f 92 91 93
f 93 94 92
f 93 95 94
f 95 96 94
f 98 97 99
f 99 100 98
f 101 99 97
f 97 102 101
f 104 103 105
f 105 106 104
f 108 107 109
f 109 110 108
f 111 108 110
f 110 112 111
f 114 113 115
f 115 116 114
f 103 111 112
f 112 105 103
f 118 117 119
f 119 120 118
f 120 119 121
f 121 122 120
f 124 123 125
f 125 126 124
f 127 115 113
f 113 128 127
f 113 129 128
f 129 117 128
f 129 130 117
f 130 119 117
f 130 131 119
f 131 121 119
f 131 125 121
f 125 132 121
f 125 123 132
f 123 133 132
f 123 134 133
f 134 135 133
f 134 136 135
f 136 137 135
f 136 138 137
f 138 139 137
f 138 140 139
f 140 141 139
f 140 142 141
f 142 143 141
f 142 144 143
f 144 145 143
f 144 146 145
f 146 147 145
f 146 148 147
f 148 149 147
f 148 150 149
f 150 151 149
f 150 152 151
f 152 153 151
f 152 154 153
f 154 155 153
f 154 102 155
f 102 156 155
f 102 97 156
f 97 157 156
f 97 98 157
f 98 158 157
f 98 159 158
f 159 104 158
f 159 160 104
f 160 103 104
f 160 161 103
f 161 111 103
f 161 162 111
f 162 108 111
f 162 163 108
f 163 107 108
f 158 104 106
f 106 164 158
f 166 165 155
f 155 156 166
f 168 167 145
f 145 79 168
f 145 84 79
f 145 78 84
f 145 147 78
f 168 79 77
f 170 169 149
f 149 151 170
f 116 171 172
f 172 114 116
f 172 118 114
f 118 173 114
f 118 120 173
f 120 174 173
f 120 122 174
f 122 175 174
f 122 176 175
f 176 126 175
f 176 177 126
f 177 124 126
f 177 178 124
f 178 179 124
f 178 180 179
f 180 181 179
f 180 182 181
f 182 183 181
f 182 15 183
f 182 17 15
f 182 184 17
f 184 19 17
f 184 21 19
f 184 24 21
f 184 25 24
f 184 27 25
f 184 30 27
f 184 185 30
f 185 31 30
f 185 33 31
f 185 35 33
f 185 167 35
f 167 38 35
f 167 40 38
f 167 168 40
f 168 42 40
f 168 47 42
f 168 169 47
f 169 49 47
f 169 51 49
f 169 170 51
f 170 54 51
f 170 56 54
f 170 57 56
f 170 186 57
f 186 59 57
f 186 61 59
f 186 63 61
f 186 65 63
f 186 68 65
f 186 69 68
f 186 70 69
f 70 186 187
f 67 70 187
f 66 67 187
f 64 66 187
f 62 64 187
f 60 62 187
f 58 60 187
f 58 187 188
f 55 58 188
f 53 55 188
f 52 53 188
f 52 188 189
f 50 52 189
f 48 50 189
f 48 189 190
f 45 48 190
f 39 45 190
f 39 190 191
f 37 39 191
f 36 37 191
f 36 191 192
f 34 36 192
f 32 34 192
f 29 32 192
f 29 192 193
f 28 29 193
f 26 28 193
f 23 26 193
f 22 23 193
f 20 22 193
f 18 20 193
f 18 193 183
f 183 16 18
f 183 15 16
f 186 165 187
f 165 194 187
f 165 166 194
f 166 101 194
f 166 195 101
f 195 99 101
f 195 164 99
f 164 100 99
f 164 106 100
f 106 196 100
f 106 105 196
f 105 197 196
f 105 112 197
f 112 198 197
f 112 110 198
f 110 199 198
f 110 109 199
f 109 200 199
f 173 129 113
f 113 114 173
f 80 82 83
f 83 81 80
f 192 191 144
f 144 142 192
f 184 182 139
f 139 141 184
f 95 93 201
f 201 202 95
f 204 203 90
f 90 89 204
f 194 101 102
f 102 154 194
f 195 166 156
f 156 157 195
f 86 205 206
f 206 85 86
f 126 125 131
f 131 175 126
f 79 84 9
f 9 7 79
f 165 186 153
f 153 155 165
f 208 207 94
f 94 96 208
f 150 188 187
f 187 152 150
f 157 158 164
f 164 195 157
f 182 180 137
f 137 139 182
f 172 128 117
f 117 118 172
f 86 88 209
f 209 205 86
f 176 132 133
f 133 177 176
f 167 185 143
f 143 145 167
f 179 181 136
f 136 134 179
f 124 179 134
f 134 123 124
f 183 193 140
f 140 138 183
f 190 189 148
f 148 71 190
f 148 73 71
f 148 146 73
f 153 186 170
f 170 151 153
f 193 192 142
f 142 140 193
f 83 73 146
f 83 146 144
f 81 83 144
f 81 144 191
f 71 81 191
f 191 190 71
f 181 183 138
f 138 136 181
f 85 206 210
f 210 87 85
f 203 209 88
f 88 90 203
f 116 115 127
f 127 171 116
f 185 184 141
f 141 143 185
f 89 87 210
f 210 204 89
f 11 12 200
f 200 109 11
f 109 5 11
f 109 107 5
f 12 107 163
f 163 200 12
f 12 6 107
f 6 5 107
f 159 98 100
f 100 196 159
f 171 127 128
f 128 172 171
f 180 178 135
f 135 137 180
f 122 121 132
f 132 176 122
f 174 130 129
f 129 173 174
f 92 211 212
f 212 91 92
f 189 188 150
f 150 148 189
f 92 94 207
f 207 211 92
f 202 208 96
f 96 95 202
f 91 212 201
f 201 93 91
f 169 168 77
f 77 149 169
f 77 78 149
f 78 147 149
f 175 131 130
f 130 174 175
f 187 194 154
f 154 152 187
f 178 177 133
f 133 135 178
f 162 161 198
f 198 199 162
f 160 159 196
f 196 197 160
f 163 162 199
f 199 200 163
f 161 160 197
f 197 198 161
f 46 213 214
f 214 44 46
f 201 212 215
f 215 214 201
f 214 202 201
f 214 208 202
f 214 203 208
f 214 213 203
f 215 212 206
f 216 215 206
f 205 213 216
f 216 206 205
f 205 209 213
f 209 203 213
f 206 212 211
f 211 210 206
f 211 207 210
f 207 204 210
f 207 208 204
f 208 203 204
f 215 216 43
f 43 41 215
f 46 43 216
f 216 213 46
f 41 44 214
f 214 215 41
