# City room prop — voxel footprint 2x1x2 (0.5 m cells)
o rock_smallB
v 1.315053 0.696135 1.118946
v 1.315053 0.696135 1.315053
v 0.986831 0.696135 0.684947
v 1.213358 0.696135 1.315053
v 0.684947 0.696135 1.162400
v 0.878393 0.696135 0.684947
v 0.684947 0.696135 1.081795
v 1.669526 0.040000 1.000000
v 1.669526 0.040000 1.669526
v 1.163182 0.040000 0.330474
v 1.163182 0.040000 1.669526
v 0.656838 0.040000 0.330474
v 0.330474 0.040000 1.428965
v 0.330474 0.040000 1.000000
f 3 2 1
f 2 3 4
f 4 3 5
f 5 3 6
f 5 6 7
f 1 9 8
f 9 1 2
f 3 8 10
f 8 3 1
f 2 11 9
f 11 2 4
f 6 10 12
f 10 6 3
f 11 8 9
f 8 11 10
f 10 11 13
f 10 13 12
f 12 13 14
f 14 6 12
f 6 14 7
f 13 7 14
f 7 13 5
f 4 13 11
f 13 4 5
