# City room prop — voxel footprint 2x1x2 (0.5 m cells)
o rock_smallFlatA
v 0.079978 0.040000 0.823808
v 0.190380 0.281029 0.844951
v 0.494279 0.040000 1.797154
v 0.554965 0.281029 1.701495
v 1.809620 0.281029 1.065349
v 1.920022 0.040000 1.074261
v 1.426956 0.281029 1.701495
v 1.485177 0.040000 1.797154
v 0.589620 0.040000 0.454550
v 1.320285 0.040000 0.202846
v 0.638866 0.281029 0.520004
v 1.281851 0.281029 0.298505
f 3 2 1
f 2 3 4
f 7 6 5
f 6 7 8
f 11 10 9
f 10 11 12
f 7 3 8
f 3 7 4
f 8 10 6
f 10 8 3
f 10 3 9
f 9 3 1
f 12 6 10
f 6 12 5
f 2 9 1
f 9 2 11
f 12 7 5
f 7 12 4
f 4 12 11
f 4 11 2
