# City room prop — voxel footprint 6x1x4 (0.5 m cells)
o rugRectangle
v 5.960000 0.040000 3.734522
v 5.960000 0.040000 0.265478
v 0.040000 0.040000 3.734522
v 0.040000 0.040000 0.265478
v 5.960000 0.077707 3.734522
v 0.040000 0.077707 3.734522
v 5.531477 0.077707 0.694001
v 5.960000 0.077707 0.265478
v 0.040000 0.077707 0.265478
v 0.468521 0.077707 0.694001
v 0.468521 0.077707 3.305999
v 5.531477 0.077707 3.305999
v 5.342326 0.077707 0.883152
v 5.342326 0.077707 3.116848
v 0.657675 0.077707 0.883152
v 0.657675 0.077707 3.116848
f 2 1 3
f 3 4 2
f 3 1 5
f 5 6 3
f 7 5 8
f 8 9 7
f 9 10 7
f 9 11 10
f 5 7 12
f 12 6 5
f 12 11 6
f 11 9 6
f 2 8 5
f 5 1 2
f 2 4 9
f 9 8 2
f 9 4 3
f 3 6 9
f 14 13 15
f 15 16 14
f 13 12 7
f 7 10 13
f 10 15 13
f 10 16 15
f 12 13 14
f 14 11 12
f 14 16 11
f 16 10 11
