# City room prop — unit cell 0..1
o rugRound
v 0.950000 0.059783 0.500000
v 0.950000 0.050000 0.500000
v 0.934667 0.059783 0.616469
v 0.934667 0.050000 0.616469
v 0.934667 0.050000 0.383531
v 0.934667 0.059783 0.383531
v 0.181802 0.050000 0.181802
v 0.275000 0.050000 0.110289
v 0.181802 0.059783 0.181802
v 0.275000 0.059783 0.110289
v 0.889711 0.059783 0.725000
v 0.889711 0.050000 0.725000
v 0.818198 0.059783 0.818198
v 0.818198 0.050000 0.818198
v 0.725000 0.050000 0.110289
v 0.818198 0.050000 0.181802
v 0.725000 0.059783 0.110289
v 0.818198 0.059783 0.181802
v 0.065333 0.050000 0.383531
v 0.065333 0.059783 0.383531
v 0.050000 0.050000 0.500000
v 0.050000 0.059783 0.500000
v 0.065333 0.050000 0.616469
v 0.065333 0.059783 0.616469
v 0.110289 0.050000 0.725000
v 0.110289 0.059783 0.725000
v 0.181802 0.050000 0.818198
v 0.181802 0.059783 0.818198
v 0.500000 0.050000 0.050000
v 0.616469 0.050000 0.065333
v 0.500000 0.059783 0.050000
v 0.616469 0.059783 0.065333
v 0.383531 0.050000 0.934667
v 0.275000 0.050000 0.889711
v 0.383531 0.059783 0.934667
v 0.275000 0.059783 0.889711
v 0.725000 0.050000 0.889711
v 0.616469 0.050000 0.934667
v 0.725000 0.059783 0.889711
v 0.616469 0.059783 0.934667
v 0.383531 0.050000 0.065333
v 0.383531 0.059783 0.065333
v 0.500000 0.050000 0.950000
v 0.500000 0.059783 0.950000
v 0.889711 0.059783 0.275000
v 0.889711 0.050000 0.275000
v 0.110289 0.050000 0.275000
v 0.110289 0.059783 0.275000
v 0.850778 0.059783 0.500000
v 0.838825 0.059783 0.409212
v 0.803782 0.059783 0.324611
v 0.748037 0.059783 0.251963
v 0.675389 0.059783 0.196218
v 0.590788 0.059783 0.161175
v 0.500000 0.059783 0.149222
v 0.409212 0.059783 0.161175
v 0.324611 0.059783 0.196218
v 0.251963 0.059783 0.251963
v 0.196218 0.059783 0.324611
v 0.161175 0.059783 0.409212
v 0.149222 0.059783 0.500000
v 0.161175 0.059783 0.590788
v 0.196218 0.059783 0.675389
v 0.251963 0.059783 0.748037
v 0.324611 0.059783 0.803782
v 0.409212 0.059783 0.838825
v 0.500000 0.059783 0.850778
v 0.590788 0.059783 0.838825
v 0.675389 0.059783 0.803782
v 0.748037 0.059783 0.748037
v 0.803782 0.059783 0.675389
v 0.838825 0.059783 0.590788
v 0.800609 0.059783 0.500000
v 0.790366 0.059783 0.577803
v 0.790366 0.059783 0.422197
v 0.760335 0.059783 0.349695
v 0.760335 0.059783 0.650305
v 0.712563 0.059783 0.287437
v 0.712563 0.059783 0.712563
v 0.650305 0.059783 0.239665
v 0.650305 0.059783 0.760335
v 0.577803 0.059783 0.209634
v 0.577803 0.059783 0.790366
v 0.500000 0.059783 0.800609
v 0.500000 0.059783 0.199391
v 0.422197 0.059783 0.790366
v 0.422197 0.059783 0.209634
v 0.349695 0.059783 0.760335
v 0.349695 0.059783 0.239665
v 0.287437 0.059783 0.712563
v 0.287437 0.059783 0.287437
v 0.239665 0.059783 0.650305
v 0.239665 0.059783 0.349695
v 0.209634 0.059783 0.577803
v 0.209634 0.059783 0.422197
v 0.199391 0.059783 0.500000
f 2 1 3
f 3 4 2
f 1 2 5
f 5 6 1
f 8 7 9
f 9 10 8
f 12 11 13
f 13 14 12
f 4 3 11
f 11 12 4
f 16 15 17
f 17 18 16
f 20 19 21
f 21 22 20
f 22 21 23
f 23 24 22
f 26 25 27
f 27 28 26
f 30 29 31
f 31 32 30
f 34 33 35
f 35 36 34
f 38 37 39
f 39 40 38
f 29 41 42
f 42 31 29
f 27 34 36
f 36 28 27
f 33 43 44
f 44 35 33
f 46 45 6
f 6 5 46
f 16 18 45
f 45 46 16
f 48 47 19
f 19 20 48
f 24 23 25
f 25 26 24
f 9 7 47
f 47 48 9
f 41 8 10
f 10 42 41
f 37 14 13
f 13 39 37
f 15 30 32
f 32 17 15
f 43 38 40
f 40 44 43
f 3 1 6
f 6 45 3
f 45 11 3
f 45 18 11
f 18 49 11
f 18 50 49
f 18 51 50
f 18 17 51
f 17 52 51
f 17 53 52
f 17 32 53
f 32 54 53
f 32 31 54
f 31 55 54
f 31 42 55
f 42 56 55
f 42 57 56
f 42 10 57
f 10 58 57
f 10 9 58
f 9 59 58
f 9 60 59
f 9 48 60
f 48 61 60
f 61 48 26
f 62 61 26
f 62 26 28
f 63 62 28
f 64 63 28
f 64 28 36
f 65 64 36
f 65 36 35
f 66 65 35
f 66 35 44
f 67 66 44
f 68 67 44
f 68 44 40
f 69 68 40
f 69 40 39
f 70 69 39
f 71 70 39
f 71 39 13
f 72 71 13
f 49 72 13
f 13 11 49
f 48 20 26
f 20 24 26
f 20 22 24
f 5 2 4
f 4 46 5
f 4 12 46
f 12 16 46
f 12 14 16
f 14 37 16
f 37 15 16
f 37 38 15
f 38 30 15
f 38 43 30
f 43 29 30
f 43 33 29
f 33 41 29
f 33 34 41
f 34 8 41
f 34 27 8
f 27 7 8
f 27 25 7
f 25 47 7
f 25 23 47
f 23 19 47
f 23 21 19
f 74 73 75
f 75 76 74
f 76 77 74
f 76 78 77
f 78 79 77
f 78 80 79
f 80 81 79
f 80 82 81
f 82 83 81
f 82 84 83
f 82 85 84
f 85 86 84
f 85 87 86
f 87 88 86
f 87 89 88
f 89 90 88
f 89 91 90
f 91 92 90
f 91 93 92
f 93 94 92
f 93 95 94
f 95 96 94
f 72 49 50
f 50 51 72
f 51 71 72
f 51 73 71
f 51 75 73
f 51 52 75
f 52 76 75
f 52 78 76
f 52 53 78
f 53 80 78
f 53 54 80
f 54 82 80
f 54 55 82
f 55 85 82
f 55 87 85
f 55 56 87
f 56 89 87
f 56 57 89
f 57 91 89
f 57 58 91
f 58 93 91
f 58 59 93
f 59 95 93
f 59 96 95
f 59 63 96
f 59 62 63
f 59 60 62
f 60 61 62
f 94 96 63
f 92 94 63
f 92 63 64
f 90 92 64
f 90 64 65
f 88 90 65
f 88 65 66
f 86 88 66
f 84 86 66
f 84 66 67
f 83 84 67
f 83 67 68
f 81 83 68
f 81 68 69
f 79 81 69
f 79 69 70
f 77 79 70
f 74 77 70
f 74 70 71
f 71 73 74
