# City room prop — unit cell 0..1
o rugRounded
v 0.891857 0.055732 0.500000
v 0.884853 0.055732 0.553201
v 0.884853 0.055732 0.446799
v 0.864318 0.055732 0.397224
v 0.864318 0.055732 0.602776
v 0.862902 0.055732 0.500000
v 0.856885 0.055732 0.454293
v 0.831652 0.055732 0.354653
v 0.839243 0.055732 0.411702
v 0.811178 0.055732 0.375128
v 0.789081 0.055732 0.321988
v 0.774604 0.055732 0.347063
v 0.739506 0.055732 0.301453
v 0.732012 0.055732 0.329421
v 0.682527 0.055732 0.293951
v 0.680646 0.055732 0.322658
v 0.317473 0.055732 0.293951
v 0.319354 0.055732 0.322658
v 0.267988 0.055732 0.329421
v 0.260494 0.055732 0.301453
v 0.225396 0.055732 0.347063
v 0.210919 0.055732 0.321988
v 0.188822 0.055732 0.375128
v 0.168348 0.055732 0.354653
v 0.160757 0.055732 0.411702
v 0.135682 0.055732 0.397224
v 0.143116 0.055732 0.454293
v 0.137098 0.055732 0.500000
v 0.135682 0.055732 0.602776
v 0.115147 0.055732 0.553201
v 0.115147 0.055732 0.446799
v 0.108143 0.055732 0.500000
v 0.143116 0.055732 0.545707
v 0.160757 0.055732 0.588298
v 0.168348 0.055732 0.645347
v 0.188822 0.055732 0.624872
v 0.210919 0.055732 0.678013
v 0.225396 0.055732 0.652937
v 0.260494 0.055732 0.698547
v 0.267988 0.055732 0.670579
v 0.317473 0.055732 0.706049
v 0.319354 0.055732 0.677342
v 0.680646 0.055732 0.677342
v 0.682527 0.055732 0.706049
v 0.732012 0.055732 0.670579
v 0.739506 0.055732 0.698547
v 0.774604 0.055732 0.652937
v 0.789081 0.055732 0.678013
v 0.811178 0.055732 0.624872
v 0.831652 0.055732 0.645347
v 0.839243 0.055732 0.588298
v 0.856885 0.055732 0.545707
v 0.950000 0.050000 0.500000
v 0.941015 0.050000 0.431751
v 0.941015 0.050000 0.568249
v 0.914672 0.050000 0.368153
v 0.914672 0.050000 0.631847
v 0.872766 0.050000 0.313540
v 0.872766 0.050000 0.686460
v 0.818153 0.050000 0.728366
v 0.818153 0.050000 0.271634
v 0.754555 0.050000 0.754709
v 0.754555 0.050000 0.245291
v 0.686306 0.050000 0.763694
v 0.686306 0.050000 0.236306
v 0.313694 0.050000 0.763694
v 0.313694 0.050000 0.236306
v 0.245445 0.050000 0.754709
v 0.245445 0.050000 0.245291
v 0.181847 0.050000 0.728366
v 0.181847 0.050000 0.271634
v 0.127234 0.050000 0.686460
v 0.127234 0.050000 0.313540
v 0.085328 0.050000 0.631847
v 0.085328 0.050000 0.368153
v 0.058985 0.050000 0.568249
v 0.058985 0.050000 0.431751
v 0.050000 0.050000 0.500000
v 0.950000 0.055732 0.500000
v 0.941015 0.055732 0.568249
v 0.941015 0.055732 0.431751
v 0.127234 0.055732 0.313540
v 0.181847 0.055732 0.271634
v 0.914672 0.055732 0.631847
v 0.872766 0.055732 0.686460
v 0.313694 0.055732 0.236306
v 0.686306 0.055732 0.236306
v 0.818153 0.055732 0.271634
v 0.872766 0.055732 0.313540
v 0.058985 0.055732 0.431751
v 0.050000 0.055732 0.500000
v 0.058985 0.055732 0.568249
v 0.085328 0.055732 0.631847
v 0.127234 0.055732 0.686460
v 0.754555 0.055732 0.245291
v 0.245445 0.055732 0.754709
v 0.181847 0.055732 0.728366
v 0.818153 0.055732 0.728366
v 0.754555 0.055732 0.754709
v 0.245445 0.055732 0.245291
v 0.313694 0.055732 0.763694
v 0.914672 0.055732 0.368153
v 0.085328 0.055732 0.368153
v 0.686306 0.055732 0.763694
f 2 1 3
f 3 4 2
f 4 5 2
f 4 6 5
f 4 7 6
f 4 8 7
f 8 9 7
f 8 10 9
f 8 11 10
f 11 12 10
f 11 13 12
f 13 14 12
f 13 15 14
f 15 16 14
f 15 17 16
f 17 18 16
f 17 19 18
f 17 20 19
f 20 21 19
f 20 22 21
f 22 23 21
f 22 24 23
f 24 25 23
f 24 26 25
f 26 27 25
f 26 28 27
f 26 29 28
f 26 30 29
f 26 31 30
f 31 32 30
f 33 28 29
f 34 33 29
f 34 29 35
f 36 34 35
f 36 35 37
f 38 36 37
f 38 37 39
f 40 38 39
f 40 39 41
f 42 40 41
f 43 42 41
f 43 41 44
f 45 43 44
f 45 44 46
f 47 45 46
f 47 46 48
f 49 47 48
f 49 48 50
f 51 49 50
f 52 51 50
f 52 50 5
f 5 6 52
f 54 53 55
f 55 56 54
f 55 57 56
f 57 58 56
f 57 59 58
f 59 60 58
f 60 61 58
f 60 62 61
f 62 63 61
f 62 64 63
f 64 65 63
f 64 66 65
f 66 67 65
f 66 68 67
f 68 69 67
f 68 70 69
f 70 71 69
f 70 72 71
f 72 73 71
f 72 74 73
f 74 75 73
f 74 76 75
f 76 77 75
f 76 78 77
f 53 79 80
f 80 55 53
f 79 53 54
f 54 81 79
f 71 73 82
f 82 83 71
f 57 84 85
f 85 59 57
f 55 80 84
f 84 57 55
f 65 67 86
f 86 87 65
f 58 61 88
f 88 89 58
f 90 77 78
f 78 91 90
f 91 78 76
f 76 92 91
f 93 74 72
f 72 94 93
f 63 65 87
f 87 95 63
f 70 68 96
f 96 97 70
f 62 60 98
f 98 99 62
f 67 69 100
f 100 86 67
f 72 70 97
f 97 94 72
f 68 66 101
f 101 96 68
f 56 102 81
f 81 54 56
f 58 89 102
f 102 56 58
f 103 75 77
f 77 90 103
f 92 76 74
f 74 93 92
f 82 73 75
f 75 103 82
f 69 71 83
f 83 100 69
f 60 59 85
f 85 98 60
f 61 63 95
f 95 88 61
f 64 62 99
f 99 104 64
f 80 79 81
f 81 102 80
f 102 84 80
f 102 89 84
f 89 1 84
f 89 3 1
f 89 4 3
f 89 88 4
f 88 8 4
f 88 11 8
f 88 95 11
f 95 13 11
f 95 87 13
f 87 15 13
f 87 86 15
f 86 17 15
f 86 20 17
f 86 100 20
f 100 22 20
f 100 83 22
f 83 24 22
f 83 82 24
f 82 26 24
f 82 31 26
f 82 103 31
f 103 32 31
f 32 103 93
f 30 32 93
f 30 93 94
f 29 30 94
f 35 29 94
f 35 94 97
f 37 35 97
f 37 97 96
f 39 37 96
f 39 96 101
f 41 39 101
f 44 41 101
f 44 101 104
f 46 44 104
f 46 104 99
f 48 46 99
f 48 99 98
f 50 48 98
f 5 50 98
f 5 98 85
f 2 5 85
f 1 2 85
f 85 84 1
f 103 90 93
f 90 92 93
f 90 91 92
f 66 64 104
f 104 101 66
f 52 6 7
f 7 9 52
f 9 51 52
f 9 49 51
f 9 10 49
f 10 47 49
f 10 12 47
f 12 14 47
f 14 45 47
f 14 43 45
f 14 16 43
f 16 18 43
f 18 42 43
f 18 19 42
f 19 40 42
f 19 38 40
f 19 21 38
f 21 23 38
f 23 36 38
f 23 34 36
f 23 25 34
f 25 33 34
f 25 27 33
f 27 28 33
