# City room prop — unit cell 0..1
o rugSquare
v 0.942333 0.050000 0.950000
v 0.942333 0.050000 0.050000
v 0.057667 0.050000 0.950000
v 0.057667 0.050000 0.050000
v 0.942333 0.059783 0.950000
v 0.057667 0.059783 0.950000
v 0.831158 0.059783 0.161175
v 0.942333 0.059783 0.050000
v 0.057667 0.059783 0.050000
v 0.168842 0.059783 0.161175
v 0.168842 0.059783 0.838825
v 0.831158 0.059783 0.838825
v 0.782085 0.059783 0.210248
v 0.782085 0.059783 0.789752
v 0.217915 0.059783 0.210248
v 0.217915 0.059783 0.789752
f 2 1 3
f 3 4 2
f 3 1 5
f 5 6 3
f 7 5 8
f 8 9 7
f 9 10 7
f 9 11 10
f 5 7 12
f 12 6 5
f 12 11 6
f 11 9 6
f 2 8 5
f 5 1 2
f 2 4 9
f 9 8 2
f 9 4 3
f 3 6 9
f 14 13 15
f 15 16 14
f 13 12 7
f 7 10 13
f 10 15 13
f 10 16 15
f 12 13 14
f 14 11 12
f 14 16 11
f 16 10 11
