# City room prop — unit cell 0..1
o shower
v 0.290810 0.151096 0.277149
v 0.500000 0.151096 0.277149
v 0.290810 0.151096 0.299036
v 0.709190 0.151096 0.299036
v 0.312697 0.151096 0.320923
v 0.268923 0.151096 0.717417
v 0.268922 0.151096 0.299036
v 0.312697 0.151096 0.594322
v 0.413904 0.151096 0.695530
v 0.687303 0.151096 0.695530
v 0.687303 0.151096 0.320923
v 0.731078 0.151096 0.717417
v 0.731077 0.151096 0.299036
v 0.290810 0.151096 0.717417
v 0.709190 0.151096 0.717417
v 0.290810 0.151096 0.728360
v 0.709190 0.151096 0.728360
v 0.709190 0.151096 0.277149
v 0.674192 0.114991 0.682418
v 0.674192 0.114991 0.334035
v 0.268922 0.050000 0.277149
v 0.268923 0.050000 0.739304
v 0.268923 0.950000 0.739304
v 0.268923 0.921115 0.717417
v 0.268922 0.921115 0.299036
v 0.268922 0.950000 0.277149
v 0.731078 0.050000 0.739304
v 0.731077 0.050000 0.277149
v 0.731077 0.950000 0.277149
v 0.731077 0.921115 0.299036
v 0.731078 0.921115 0.717417
v 0.731078 0.950000 0.739304
v 0.290810 0.921115 0.277149
v 0.500000 0.921115 0.277149
v 0.709190 0.921115 0.277149
v 0.419931 0.114991 0.682418
v 0.325808 0.114991 0.588295
v 0.551432 0.114991 0.422623
v 0.325808 0.114991 0.334035
v 0.573095 0.114991 0.410116
v 0.551432 0.114991 0.447638
v 0.573096 0.114991 0.460146
v 0.594759 0.114991 0.422623
v 0.594759 0.114991 0.435131
v 0.594759 0.114991 0.447638
v 0.709190 0.921115 0.728360
v 0.709190 0.921115 0.717417
v 0.709190 0.921115 0.299036
v 0.709190 0.950000 0.717417
v 0.709190 0.950000 0.299036
v 0.290810 0.921115 0.717417
v 0.290810 0.950000 0.717417
v 0.290810 0.921115 0.299036
v 0.290810 0.950000 0.299036
v 0.290810 0.921115 0.728360
v 0.486948 0.434142 0.728360
v 0.486198 0.493518 0.728360
v 0.473517 0.434142 0.728360
v 0.486198 0.797719 0.728360
v 0.486198 0.785975 0.728360
v 0.486198 0.505261 0.728360
v 0.513802 0.493518 0.728360
v 0.486948 0.416233 0.728360
v 0.513802 0.797719 0.728360
v 0.513802 0.785975 0.728360
v 0.513802 0.505261 0.728360
v 0.513811 0.434142 0.728360
v 0.527242 0.434142 0.728360
v 0.527242 0.416233 0.728360
v 0.473517 0.416233 0.728360
v 0.513811 0.416233 0.728360
v 0.558582 0.409518 0.681423
v 0.558582 0.413984 0.703819
v 0.558582 0.409518 0.708285
v 0.558582 0.440858 0.708285
v 0.558582 0.436391 0.703819
v 0.558582 0.436391 0.685889
v 0.558582 0.413984 0.685889
v 0.558582 0.440858 0.681423
v 0.569775 0.409518 0.681423
v 0.569775 0.409518 0.708285
v 0.569775 0.440858 0.681423
v 0.569775 0.440858 0.708285
v 0.554105 0.413984 0.685889
v 0.554105 0.413984 0.703819
v 0.554105 0.436391 0.685889
v 0.554105 0.436391 0.703819
v 0.446654 0.440858 0.681423
v 0.446654 0.409518 0.681423
v 0.554105 0.440858 0.681423
v 0.554105 0.409518 0.681423
v 0.513811 0.416233 0.708285
v 0.513811 0.434142 0.708285
v 0.527242 0.416233 0.708285
v 0.527242 0.434142 0.708285
v 0.554105 0.409518 0.708285
v 0.486948 0.416233 0.708285
v 0.473517 0.416233 0.708285
v 0.446654 0.409518 0.708285
v 0.446654 0.440858 0.708285
v 0.486948 0.434142 0.708285
v 0.473517 0.434142 0.708285
v 0.554105 0.440858 0.708285
v 0.446654 0.413984 0.703819
v 0.446654 0.436391 0.703819
v 0.446654 0.436391 0.685889
v 0.446654 0.413984 0.685889
v 0.442177 0.413984 0.685889
v 0.442177 0.413984 0.703819
v 0.529842 0.730544 0.617556
v 0.527890 0.741676 0.621671
v 0.529842 0.761148 0.564548
v 0.527890 0.770278 0.572131
v 0.486839 0.754106 0.611840
v 0.513161 0.754106 0.611840
v 0.486839 0.749040 0.608915
v 0.513161 0.749040 0.608915
v 0.430984 0.409518 0.708285
v 0.430984 0.409518 0.681423
v 0.430984 0.440858 0.708285
v 0.430984 0.440858 0.681423
v 0.513802 0.493518 0.658916
v 0.513802 0.505261 0.658916
v 0.486198 0.505261 0.658916
v 0.486198 0.493518 0.658916
v 0.442177 0.436391 0.703819
v 0.486839 0.732282 0.702282
v 0.513161 0.732282 0.702282
v 0.486839 0.709487 0.689122
v 0.513161 0.709487 0.689122
v 0.520430 0.735250 0.609404
v 0.520430 0.756442 0.572699
v 0.520430 0.737782 0.610867
v 0.520430 0.758974 0.574161
v 0.503177 0.493518 0.664640
v 0.508487 0.493518 0.669949
v 0.508487 0.493518 0.677610
v 0.503177 0.493518 0.682920
v 0.496823 0.493518 0.664640
v 0.491514 0.493518 0.669949
v 0.491514 0.493518 0.677610
v 0.496823 0.493518 0.682920
v 0.486839 0.784218 0.612327
v 0.486839 0.762913 0.584887
v 0.486839 0.779419 0.594417
v 0.470158 0.730544 0.617556
v 0.470158 0.761148 0.564548
v 0.472110 0.741676 0.621671
v 0.472110 0.770278 0.572131
v 0.479570 0.737782 0.610867
v 0.479570 0.735250 0.609405
v 0.442177 0.409518 0.708285
v 0.442177 0.440858 0.708285
v 0.442177 0.436391 0.685889
v 0.442177 0.440858 0.681423
v 0.503177 0.505261 0.664640
v 0.496823 0.505261 0.664640
v 0.491514 0.505261 0.669949
v 0.491514 0.505261 0.677610
v 0.496823 0.505261 0.682920
v 0.503177 0.505261 0.682920
v 0.508487 0.505261 0.669949
v 0.508487 0.505261 0.677610
v 0.513161 0.779419 0.594417
v 0.513161 0.784218 0.612327
v 0.442177 0.409518 0.681423
v 0.479570 0.756442 0.572699
v 0.479570 0.758974 0.574161
v 0.513161 0.762913 0.584887
v 0.503177 0.754015 0.664640
v 0.496823 0.754015 0.664640
v 0.491514 0.750949 0.669949
v 0.491514 0.746526 0.677610
v 0.496823 0.743461 0.682920
v 0.503177 0.743461 0.682920
v 0.508487 0.750949 0.669949
v 0.508487 0.746526 0.677610
v 0.496823 0.797719 0.664640
v 0.503177 0.797719 0.664640
v 0.496823 0.813510 0.664640
v 0.503177 0.813510 0.664640
v 0.503177 0.474115 0.682920
v 0.508487 0.474115 0.677610
v 0.491514 0.474115 0.669949
v 0.496823 0.474115 0.664640
v 0.486198 0.785975 0.658916
v 0.503177 0.785975 0.664640
v 0.513802 0.785975 0.658916
v 0.508487 0.785975 0.669949
v 0.508487 0.785975 0.677610
v 0.503177 0.785975 0.682920
v 0.496823 0.785975 0.664640
v 0.491514 0.785975 0.669949
v 0.491514 0.785975 0.677610
v 0.496823 0.785975 0.682920
v 0.503177 0.713068 0.682920
v 0.508487 0.716133 0.677610
v 0.486198 0.797719 0.658916
v 0.491514 0.797719 0.669949
v 0.491514 0.797719 0.677610
v 0.496823 0.797719 0.682920
v 0.503177 0.797719 0.682920
v 0.513802 0.797719 0.658916
v 0.508487 0.797719 0.669949
v 0.508487 0.797719 0.677610
v 0.503177 0.723622 0.664640
v 0.508487 0.720556 0.669949
v 0.496823 0.723622 0.664640
v 0.491514 0.720556 0.669949
v 0.491514 0.716133 0.677610
v 0.496823 0.713068 0.682920
v 0.508487 0.813510 0.669949
v 0.508487 0.813510 0.677610
v 0.491514 0.813510 0.669949
v 0.503177 0.813510 0.682920
v 0.508487 0.474115 0.669949
v 0.503177 0.474115 0.664640
v 0.491514 0.813510 0.677610
v 0.491514 0.474115 0.677610
v 0.496823 0.474115 0.682920
v 0.496823 0.813510 0.682920
v 0.500000 0.921115 0.277149
v 0.709190 0.921115 0.277149
v 0.290810 0.921115 0.277149
v 0.463350 0.573365 0.277149
v 0.479803 0.573365 0.277149
v 0.479803 0.484075 0.277149
v 0.463350 0.484075 0.277149
v 0.476224 0.489865 0.260696
v 0.476224 0.567575 0.260696
v 0.466928 0.489865 0.260696
v 0.466928 0.567575 0.260696
f 2 1 3
f 2 3 4
f 5 4 3
f 6 5 3
f 3 7 6
f 6 8 5
f 6 9 8
f 6 10 9
f 4 5 11
f 4 11 12
f 11 10 12
f 10 6 12
f 12 13 4
f 6 14 12
f 14 15 12
f 15 14 16
f 16 17 15
f 4 18 2
f 20 19 10
f 10 11 20
f 6 21 22
f 22 23 6
f 23 24 6
f 23 25 24
f 21 6 7
f 7 26 21
f 7 25 26
f 25 23 26
f 13 27 28
f 28 29 13
f 29 30 13
f 29 31 30
f 27 13 12
f 12 32 27
f 12 31 32
f 31 29 32
f 33 21 26
f 26 29 33
f 29 34 33
f 29 35 34
f 29 18 35
f 21 33 1
f 1 28 21
f 18 29 28
f 1 2 28
f 2 18 28
f 23 22 27
f 27 32 23
f 36 9 10
f 10 19 36
f 21 28 27
f 27 22 21
f 37 8 9
f 9 36 37
f 38 20 39
f 39 37 38
f 38 40 20
f 37 41 38
f 37 42 41
f 20 40 43
f 43 19 20
f 42 37 19
f 43 44 19
f 44 45 19
f 45 42 19
f 37 36 19
f 37 39 5
f 5 8 37
f 11 5 39
f 39 20 11
f 15 17 46
f 46 47 15
f 48 47 49
f 49 50 48
f 18 4 48
f 48 35 18
f 15 47 31
f 31 12 15
f 49 47 51
f 51 52 49
f 6 24 51
f 51 14 6
f 25 7 3
f 3 53 25
f 54 53 48
f 48 50 54
f 48 4 13
f 13 30 48
f 51 53 54
f 54 52 51
f 16 14 51
f 51 55 16
f 33 53 3
f 3 1 33
f 34 35 48
f 48 53 34
f 33 34 53
f 48 30 31
f 31 47 48
f 51 47 46
f 46 55 51
f 25 53 51
f 51 24 25
f 54 26 23
f 23 52 54
f 23 49 52
f 26 54 50
f 29 26 50
f 50 32 29
f 50 49 32
f 49 23 32
f 57 56 58
f 58 59 57
f 59 60 57
f 60 61 57
f 57 62 56
f 62 63 56
f 59 58 16
f 59 16 55
f 55 46 59
f 46 64 59
f 46 65 64
f 61 60 65
f 46 66 65
f 46 62 66
f 65 66 61
f 46 67 62
f 46 68 67
f 46 69 68
f 16 58 70
f 70 17 16
f 70 63 17
f 69 46 17
f 63 71 17
f 63 62 71
f 62 67 71
f 71 69 17
f 73 72 74
f 74 75 73
f 75 76 73
f 75 77 76
f 72 73 78
f 78 79 72
f 78 77 79
f 77 75 79
f 73 74 72
f 74 73 75
f 75 73 76
f 75 76 77
f 72 78 73
f 78 72 79
f 78 79 77
f 77 79 75
f 81 80 82
f 82 83 81
f 81 82 80
f 82 81 83
f 75 74 81
f 81 83 75
f 75 81 74
f 81 75 83
f 82 79 75
f 75 83 82
f 82 75 79
f 75 82 83
f 72 79 82
f 82 80 72
f 72 82 79
f 82 72 80
f 84 78 73
f 73 85 84
f 84 73 78
f 73 84 85
f 77 86 87
f 87 76 77
f 77 87 86
f 87 77 76
f 87 85 73
f 73 76 87
f 87 73 85
f 73 87 76
f 72 80 81
f 81 74 72
f 72 81 80
f 81 72 74
f 84 86 77
f 77 78 84
f 84 77 86
f 77 84 78
f 89 88 90
f 90 91 89
f 89 90 88
f 90 89 91
f 93 92 94
f 94 95 93
f 96 94 92
f 96 95 94
f 96 92 97
f 96 97 98
f 99 96 98
f 98 100 99
f 92 101 97
f 101 92 93
f 100 98 102
f 102 98 97
f 97 101 102
f 102 103 100
f 102 101 103
f 101 93 103
f 93 95 103
f 95 96 103
f 93 94 92
f 94 93 95
f 96 92 94
f 96 94 95
f 96 97 92
f 96 98 97
f 99 98 96
f 98 99 100
f 92 97 101
f 101 93 92
f 100 102 98
f 102 97 98
f 97 102 101
f 102 100 103
f 102 103 101
f 101 103 93
f 93 103 95
f 95 103 96
f 92 71 67
f 67 93 92
f 92 67 71
f 67 92 93
f 89 91 96
f 96 99 89
f 89 96 91
f 96 89 99
f 104 89 99
f 99 100 104
f 100 105 104
f 100 106 105
f 89 104 107
f 107 88 89
f 107 106 88
f 106 100 88
f 104 99 89
f 99 104 100
f 100 104 105
f 100 105 106
f 89 107 104
f 107 89 88
f 107 88 106
f 106 88 100
f 84 96 91
f 91 90 84
f 90 86 84
f 90 87 86
f 96 84 85
f 85 103 96
f 85 87 103
f 87 90 103
f 84 91 96
f 91 84 90
f 90 84 86
f 90 86 87
f 96 85 84
f 85 96 103
f 85 103 87
f 87 103 90
f 108 107 104
f 104 109 108
f 108 104 107
f 104 108 109
f 63 97 101
f 101 56 63
f 63 101 97
f 101 63 56
f 95 93 67
f 67 68 95
f 95 67 93
f 67 95 68
f 56 101 102
f 102 58 56
f 56 102 101
f 102 56 58
f 69 94 95
f 95 68 69
f 69 95 94
f 95 69 68
f 98 70 58
f 58 102 98
f 98 58 70
f 58 98 102
f 90 88 100
f 100 103 90
f 90 100 88
f 100 90 103
f 111 110 112
f 112 113 111
f 111 112 110
f 112 111 113
f 115 114 116
f 116 117 115
f 115 116 114
f 116 115 117
f 119 118 120
f 120 121 119
f 119 120 118
f 120 119 121
f 98 97 63
f 63 70 98
f 98 63 97
f 63 98 70
f 62 122 123
f 123 66 62
f 62 123 122
f 123 62 66
f 92 94 69
f 69 71 92
f 92 69 94
f 69 92 71
f 125 124 123
f 123 122 125
f 125 123 124
f 123 125 122
f 125 57 61
f 61 124 125
f 125 61 57
f 61 125 124
f 126 109 104
f 104 105 126
f 126 104 109
f 104 126 105
f 128 127 129
f 129 130 128
f 128 129 127
f 129 128 130
f 132 131 133
f 133 134 132
f 132 133 131
f 133 132 134
f 135 125 122
f 122 136 135
f 122 62 136
f 62 137 136
f 62 138 137
f 125 135 139
f 125 139 140
f 140 57 125
f 138 62 57
f 140 141 57
f 141 142 57
f 142 138 57
f 135 122 125
f 122 135 136
f 122 136 62
f 62 136 137
f 62 137 138
f 125 139 135
f 125 140 139
f 140 125 57
f 138 57 62
f 140 57 141
f 141 57 142
f 142 57 138
f 114 129 127
f 127 143 114
f 143 144 114
f 143 145 144
f 116 114 144
f 114 127 129
f 127 114 143
f 143 114 144
f 143 144 145
f 116 144 114
f 147 146 148
f 148 149 147
f 147 148 146
f 148 147 149
f 148 146 110
f 110 111 148
f 148 110 146
f 110 148 111
f 151 150 133
f 133 131 151
f 151 133 150
f 133 151 131
f 120 118 152
f 152 153 120
f 120 152 118
f 152 120 153
f 106 154 126
f 126 105 106
f 106 126 154
f 126 106 105
f 153 155 121
f 121 120 153
f 153 121 155
f 121 153 120
f 157 156 124
f 124 158 157
f 124 61 158
f 61 159 158
f 61 160 159
f 61 161 160
f 123 124 156
f 123 156 162
f 162 66 123
f 161 61 66
f 162 163 66
f 163 161 66
f 157 124 156
f 124 157 158
f 124 158 61
f 61 158 159
f 61 159 160
f 61 160 161
f 123 156 124
f 123 162 156
f 162 123 66
f 161 66 61
f 162 66 163
f 163 66 161
f 165 164 145
f 145 143 165
f 165 145 164
f 145 165 143
f 108 154 106
f 106 107 108
f 108 106 154
f 106 108 107
f 108 152 166
f 166 155 108
f 155 154 108
f 155 126 154
f 152 108 109
f 109 153 152
f 109 126 153
f 126 155 153
f 108 166 152
f 166 108 155
f 155 108 154
f 155 154 126
f 152 109 108
f 109 152 153
f 109 153 126
f 126 153 155
f 150 151 167
f 167 168 150
f 150 167 151
f 167 150 168
f 144 145 164
f 164 169 144
f 144 164 145
f 164 144 169
f 112 147 149
f 149 113 112
f 112 149 147
f 149 112 113
f 119 166 152
f 152 118 119
f 119 152 166
f 152 119 118
f 119 121 155
f 155 166 119
f 119 155 121
f 155 119 166
f 171 170 143
f 143 172 171
f 143 127 172
f 127 173 172
f 127 174 173
f 127 175 174
f 127 128 175
f 143 170 176
f 176 128 165
f 165 143 176
f 176 177 128
f 177 175 128
f 171 143 170
f 143 171 172
f 143 172 127
f 127 172 173
f 127 173 174
f 127 174 175
f 127 175 128
f 143 176 170
f 176 165 128
f 165 176 143
f 176 128 177
f 177 128 175
f 179 178 180
f 180 181 179
f 179 180 178
f 180 179 181
f 138 182 183
f 183 137 138
f 138 183 182
f 183 138 137
f 184 140 139
f 139 185 184
f 184 139 140
f 139 184 185
f 187 186 188
f 188 189 187
f 188 65 189
f 65 190 189
f 65 191 190
f 186 187 192
f 186 192 193
f 193 60 186
f 191 65 60
f 193 194 60
f 194 195 60
f 195 191 60
f 187 188 186
f 188 187 189
f 188 189 65
f 65 189 190
f 65 190 191
f 186 192 187
f 186 193 192
f 193 186 60
f 191 60 65
f 193 60 194
f 194 60 195
f 195 60 191
f 194 173 174
f 174 195 194
f 194 174 173
f 174 194 195
f 196 161 163
f 163 197 196
f 196 163 161
f 163 196 197
f 172 193 192
f 192 171 172
f 172 192 193
f 192 172 171
f 170 187 189
f 189 176 170
f 170 189 187
f 189 170 176
f 178 179 198
f 198 199 178
f 198 59 199
f 59 200 199
f 59 201 200
f 59 202 201
f 203 198 179
f 203 179 204
f 204 64 203
f 202 59 64
f 204 205 64
f 205 202 64
f 178 198 179
f 198 178 199
f 198 199 59
f 59 199 200
f 59 200 201
f 59 201 202
f 203 179 198
f 203 204 179
f 204 203 64
f 202 64 59
f 204 64 205
f 205 64 202
f 156 206 207
f 207 162 156
f 156 207 206
f 207 156 162
f 207 114 115
f 115 130 207
f 207 206 114
f 130 197 207
f 130 196 197
f 114 206 208
f 114 208 209
f 209 129 114
f 196 130 129
f 209 210 129
f 210 211 129
f 211 196 129
f 207 115 114
f 115 207 130
f 207 114 206
f 130 207 197
f 130 197 196
f 114 208 206
f 114 209 208
f 209 114 129
f 196 129 130
f 209 129 210
f 210 129 211
f 211 129 196
f 168 167 132
f 132 134 168
f 168 132 167
f 132 168 134
f 163 162 207
f 207 197 163
f 163 207 162
f 207 163 197
f 172 173 194
f 194 193 172
f 172 194 173
f 194 172 193
f 205 204 212
f 212 213 205
f 205 212 204
f 212 205 213
f 178 199 214
f 214 180 178
f 178 214 199
f 214 178 180
f 215 202 205
f 205 213 215
f 215 205 202
f 205 215 213
f 183 216 136
f 136 137 183
f 183 136 216
f 136 183 137
f 186 60 59
f 59 198 186
f 186 59 60
f 59 186 198
f 216 217 135
f 135 136 216
f 216 135 217
f 135 216 136
f 199 200 218
f 218 214 199
f 199 218 200
f 218 199 214
f 185 139 135
f 135 217 185
f 185 135 139
f 135 185 217
f 191 175 177
f 177 190 191
f 191 177 175
f 177 191 190
f 141 219 220
f 220 142 141
f 141 220 219
f 220 141 142
f 115 117 169
f 115 169 165
f 115 165 128
f 128 130 115
f 169 164 165
f 115 169 117
f 115 165 169
f 115 128 165
f 128 115 130
f 169 165 164
f 186 198 203
f 203 188 186
f 186 203 198
f 203 186 188
f 210 159 160
f 160 211 210
f 210 160 159
f 160 210 211
f 132 112 110
f 110 131 132
f 112 132 167
f 147 112 167
f 167 146 147
f 131 110 146
f 167 151 146
f 151 131 146
f 132 110 112
f 110 132 131
f 112 167 132
f 147 167 112
f 167 147 146
f 131 146 110
f 167 146 151
f 151 146 131
f 195 174 175
f 175 191 195
f 195 175 174
f 175 195 191
f 168 134 133
f 133 150 168
f 168 133 134
f 133 168 150
f 190 177 176
f 176 189 190
f 190 176 177
f 176 190 189
f 157 158 209
f 209 208 157
f 157 209 158
f 209 157 208
f 158 159 210
f 210 209 158
f 158 210 159
f 210 158 209
f 211 160 161
f 161 196 211
f 211 161 160
f 161 211 196
f 185 217 216
f 216 184 185
f 216 219 184
f 216 183 219
f 183 182 219
f 182 220 219
f 185 216 217
f 216 185 184
f 216 184 219
f 216 219 183
f 183 219 182
f 182 219 220
f 171 192 187
f 187 170 171
f 171 187 192
f 187 171 170
f 156 157 208
f 208 206 156
f 156 208 157
f 208 156 206
f 142 220 182
f 182 138 142
f 142 182 220
f 182 142 138
f 179 181 212
f 212 204 179
f 179 212 181
f 212 179 204
f 144 113 149
f 149 148 144
f 148 116 144
f 148 111 116
f 169 111 113
f 113 144 169
f 169 117 111
f 117 116 111
f 144 149 113
f 149 144 148
f 148 144 116
f 148 116 111
f 169 113 111
f 113 169 144
f 169 111 117
f 117 111 116
f 221 201 202
f 202 215 221
f 221 202 201
f 202 221 215
f 65 188 203
f 203 64 65
f 65 203 188
f 203 65 64
f 181 180 214
f 214 212 181
f 214 218 212
f 218 213 212
f 218 221 213
f 221 215 213
f 181 214 180
f 214 181 212
f 214 212 218
f 218 212 213
f 218 213 221
f 221 213 215
f 184 219 141
f 141 140 184
f 184 141 219
f 141 184 140
f 218 200 201
f 201 221 218
f 218 201 200
f 201 218 221
f 43 40 38
f 38 41 43
f 41 44 43
f 41 45 44
f 41 42 45
f 7 6 24
f 24 25 7
f 7 24 6
f 24 7 25
f 13 12 31
f 31 30 13
f 13 31 12
f 31 13 30
f 2 222 223
f 223 18 2
f 1 224 222
f 222 225 1
f 222 226 225
f 222 227 226
f 1 225 228
f 228 2 1
f 228 227 2
f 227 222 2
f 226 227 229
f 229 230 226
f 231 228 225
f 225 232 231
f 231 232 230
f 230 229 231
f 228 231 229
f 229 227 228
f 230 232 225
f 225 226 230
