# City room prop — voxel footprint 1x2x1 (0.5 m cells)
o speakerSmall
v 0.185106 0.040000 0.783404
v 0.702694 0.152199 0.783404
v 0.814894 0.040000 0.783404
v 0.814894 1.307998 0.783404
v 0.702694 1.195799 0.783404
v 0.297306 1.195799 0.783404
v 0.297306 0.152199 0.783404
v 0.185106 1.307998 0.783404
v 0.185106 0.040000 0.216596
v 0.185106 1.307998 0.216596
v 0.814894 1.307998 0.216596
v 0.814894 0.040000 0.216596
v 0.594468 0.554569 0.216596
v 0.548900 0.573444 0.216596
v 0.547234 0.472757 0.342553
v 0.524450 0.482195 0.342553
v 0.688936 0.390946 0.216596
v 0.682498 0.439846 0.216596
v 0.594468 0.390946 0.342553
v 0.591249 0.415396 0.342553
v 0.663624 0.296477 0.216596
v 0.682498 0.342045 0.216596
v 0.581812 0.343712 0.342553
v 0.591249 0.366495 0.342553
v 0.452766 0.309134 0.342553
v 0.433201 0.324147 0.342553
v 0.405532 0.227322 0.216596
v 0.366402 0.257348 0.216596
v 0.663624 0.485414 0.216596
v 0.633598 0.524544 0.216596
v 0.581812 0.438180 0.342553
v 0.566799 0.457745 0.342553
v 0.475550 0.299696 0.342553
v 0.451100 0.208447 0.216596
v 0.311064 0.390946 0.216596
v 0.317502 0.342045 0.216596
v 0.405532 0.390946 0.342553
v 0.408751 0.366495 0.342553
v 0.336377 0.296477 0.216596
v 0.418188 0.343712 0.342553
v 0.500000 0.202009 0.216596
v 0.317502 0.439846 0.216596
v 0.336377 0.485414 0.216596
v 0.366402 0.524544 0.216596
v 0.287085 0.871535 0.216596
v 0.405532 0.554569 0.216596
v 0.309106 0.818372 0.216596
v 0.451100 0.573444 0.216596
v 0.344136 0.772721 0.216596
v 0.500000 0.579882 0.216596
v 0.389787 0.737691 0.216596
v 0.442950 0.715670 0.216596
v 0.500000 0.708160 0.216596
v 0.279574 0.928585 0.216596
v 0.287085 0.985635 0.216596
v 0.309106 1.038798 0.216596
v 0.344136 1.084449 0.216596
v 0.389787 1.119479 0.216596
v 0.442950 1.141500 0.216596
v 0.500000 1.149011 0.216596
v 0.557050 0.715670 0.216596
v 0.610213 0.737691 0.216596
v 0.655864 0.772721 0.216596
v 0.690894 0.818372 0.216596
v 0.712915 0.871535 0.216596
v 0.633598 0.257348 0.216596
v 0.594468 0.227322 0.216596
v 0.548900 0.208447 0.216596
v 0.720426 0.928585 0.216596
v 0.712915 0.985635 0.216596
v 0.690894 1.038798 0.216596
v 0.655864 1.084449 0.216596
v 0.610213 1.119479 0.216596
v 0.557050 1.141500 0.216596
v 0.500000 0.787513 0.342553
v 0.536512 0.792320 0.342553
v 0.463488 0.792320 0.342553
v 0.429464 0.806413 0.342553
v 0.570536 0.806413 0.342553
v 0.400247 0.828832 0.342553
v 0.599753 0.828832 0.342553
v 0.377828 0.858049 0.342553
v 0.622172 0.858049 0.342553
v 0.363734 0.892073 0.342553
v 0.636265 0.892073 0.342553
v 0.641072 0.928585 0.342553
v 0.358928 0.928585 0.342553
v 0.363734 0.965097 0.342553
v 0.636265 0.965097 0.342553
v 0.377828 0.999121 0.342553
v 0.622172 0.999121 0.342553
v 0.400247 1.028338 0.342553
v 0.599753 1.028338 0.342553
v 0.429464 1.050757 0.342553
v 0.570536 1.050757 0.342553
v 0.536512 1.064851 0.342553
v 0.463488 1.064851 0.342553
v 0.500000 1.069657 0.342553
v 0.500000 0.296477 0.342553
v 0.524450 0.299696 0.342553
v 0.547234 0.309134 0.342553
v 0.566799 0.324147 0.342553
v 0.408751 0.415396 0.342553
v 0.418188 0.438180 0.342553
v 0.433201 0.457745 0.342553
v 0.452766 0.472757 0.342553
v 0.475550 0.482195 0.342553
v 0.500000 0.485414 0.342553
v 0.702694 0.152199 0.698298
v 0.297306 0.152199 0.698298
v 0.702694 1.195799 0.698298
v 0.297306 1.195799 0.698298
f 2 1 3
f 3 4 2
f 4 5 2
f 4 6 5
f 1 2 7
f 7 8 1
f 7 6 8
f 6 4 8
f 10 9 1
f 1 8 10
f 4 11 10
f 10 8 4
f 12 11 4
f 4 3 12
f 14 13 15
f 15 16 14
f 18 17 19
f 19 20 18
f 22 21 23
f 23 24 22
f 26 25 27
f 27 28 26
f 30 29 31
f 31 32 30
f 25 33 34
f 34 27 25
f 36 35 37
f 37 38 36
f 28 39 40
f 40 26 28
f 39 36 38
f 38 40 39
f 27 12 9
f 9 28 27
f 9 39 28
f 9 36 39
f 9 10 36
f 27 34 12
f 34 41 12
f 10 35 36
f 10 42 35
f 10 43 42
f 10 44 43
f 10 45 44
f 45 46 44
f 45 47 46
f 47 48 46
f 47 49 48
f 49 50 48
f 49 51 50
f 51 52 50
f 52 53 50
f 10 54 45
f 10 55 54
f 10 56 55
f 10 57 56
f 10 58 57
f 10 59 58
f 10 60 59
f 50 53 61
f 50 61 62
f 50 62 63
f 14 50 63
f 14 63 64
f 13 14 64
f 13 64 65
f 30 13 65
f 30 65 11
f 60 10 11
f 29 30 11
f 18 29 11
f 17 18 11
f 22 17 11
f 22 11 12
f 12 21 22
f 12 66 21
f 12 67 66
f 12 68 67
f 12 41 68
f 65 69 11
f 69 70 11
f 70 71 11
f 71 72 11
f 72 73 11
f 73 74 11
f 74 60 11
f 12 3 1
f 1 9 12
f 76 75 77
f 77 78 76
f 78 79 76
f 78 80 79
f 80 81 79
f 80 82 81
f 82 83 81
f 82 84 83
f 84 85 83
f 84 86 85
f 84 87 86
f 87 88 86
f 88 89 86
f 88 90 89
f 90 91 89
f 90 92 91
f 92 93 91
f 92 94 93
f 94 95 93
f 94 96 95
f 94 97 96
f 97 98 96
f 100 99 33
f 33 25 100
f 25 101 100
f 25 26 101
f 26 102 101
f 26 23 102
f 26 40 23
f 40 38 23
f 38 24 23
f 38 19 24
f 38 37 19
f 37 103 19
f 103 20 19
f 103 104 20
f 104 31 20
f 104 105 31
f 105 32 31
f 105 106 32
f 106 15 32
f 106 107 15
f 107 16 15
f 107 108 16
f 71 70 89
f 89 91 71
f 72 71 91
f 91 93 72
f 59 97 94
f 94 58 59
f 60 74 96
f 96 98 60
f 74 73 95
f 95 96 74
f 70 69 86
f 86 89 70
f 79 62 61
f 61 76 79
f 69 65 85
f 85 86 69
f 64 63 81
f 81 83 64
f 65 64 83
f 83 85 65
f 81 63 62
f 62 79 81
f 73 72 93
f 93 95 73
f 78 77 52
f 52 51 78
f 75 53 52
f 52 77 75
f 50 108 107
f 107 48 50
f 49 47 82
f 82 80 49
f 21 66 102
f 102 23 21
f 45 54 87
f 87 84 45
f 76 61 53
f 53 75 76
f 80 78 51
f 51 49 80
f 42 43 104
f 104 103 42
f 102 66 67
f 67 101 102
f 56 57 92
f 92 90 56
f 58 94 92
f 92 57 58
f 35 42 103
f 103 37 35
f 101 67 68
f 68 100 101
f 47 45 84
f 84 82 47
f 59 60 98
f 98 97 59
f 54 55 88
f 88 87 54
f 55 56 90
f 90 88 55
f 48 107 106
f 106 46 48
f 100 68 41
f 41 99 100
f 50 14 16
f 16 108 50
f 29 18 20
f 20 31 29
f 46 106 105
f 105 44 46
f 99 41 34
f 34 33 99
f 13 30 32
f 32 15 13
f 17 22 24
f 24 19 17
f 43 44 105
f 105 104 43
f 110 109 111
f 111 112 110
f 7 110 112
f 112 6 7
f 2 109 110
f 110 7 2
f 111 109 2
f 2 5 111
f 111 5 6
f 6 112 111
