# City room prop — voxel footprint 1x3x1 (0.5 m cells)
o speaker
v 0.185106 0.040000 0.814894
v 0.627086 0.227807 0.814894
v 0.814894 0.040000 0.814894
v 0.814894 2.748085 0.814894
v 0.627086 0.812248 0.814894
v 0.372914 0.812248 0.814894
v 0.372914 0.227807 0.814894
v 0.185106 2.748085 0.814894
v 0.185106 0.040000 0.185106
v 0.185106 1.054554 0.185106
v 0.185106 1.054554 0.248085
v 0.185106 2.748085 0.248085
v 0.814894 2.748085 0.248085
v 0.814894 1.054554 0.248085
v 0.814894 0.040000 0.185106
v 0.814894 1.054554 0.185106
v 0.594468 1.611677 0.248085
v 0.548900 1.630552 0.248085
v 0.547234 1.529865 0.374043
v 0.524450 1.539303 0.374043
v 0.688936 1.448053 0.248085
v 0.682498 1.496954 0.248085
v 0.594468 1.448053 0.374043
v 0.591249 1.472503 0.374043
v 0.663624 1.353586 0.248085
v 0.682498 1.399153 0.248085
v 0.581812 1.400819 0.374043
v 0.591249 1.423603 0.374043
v 0.452766 1.366242 0.374043
v 0.433201 1.381254 0.374043
v 0.405532 1.284430 0.248085
v 0.366402 1.314455 0.248085
v 0.663624 1.542522 0.248085
v 0.633598 1.581651 0.248085
v 0.581812 1.495287 0.374043
v 0.566799 1.514852 0.374043
v 0.475550 1.356804 0.374043
v 0.451100 1.265555 0.248085
v 0.311064 1.448053 0.248085
v 0.317502 1.399153 0.248085
v 0.405532 1.448053 0.374043
v 0.408751 1.423603 0.374043
v 0.336377 1.353586 0.248085
v 0.418188 1.400819 0.374043
v 0.500000 1.259117 0.248085
v 0.317502 1.496954 0.248085
v 0.336377 1.542522 0.248085
v 0.366402 1.581651 0.248085
v 0.287085 2.141409 0.248085
v 0.405532 1.611677 0.248085
v 0.451100 1.630552 0.248085
v 0.309106 2.088246 0.248085
v 0.500000 1.636989 0.248085
v 0.344136 2.042594 0.248085
v 0.389787 2.007565 0.248085
v 0.442950 1.985544 0.248085
v 0.500000 1.978034 0.248085
v 0.279574 2.198459 0.248085
v 0.287085 2.255509 0.248085
v 0.309106 2.308671 0.248085
v 0.344136 2.354323 0.248085
v 0.389787 2.389353 0.248085
v 0.442950 2.411373 0.248085
v 0.500000 2.418884 0.248085
v 0.557050 1.985544 0.248085
v 0.610213 2.007565 0.248085
v 0.655864 2.042594 0.248085
v 0.690894 2.088246 0.248085
v 0.557050 2.411373 0.248085
v 0.610213 2.389353 0.248085
v 0.655864 2.354323 0.248085
v 0.690894 2.308671 0.248085
v 0.712915 2.255509 0.248085
v 0.720426 2.198459 0.248085
v 0.712915 2.141409 0.248085
v 0.633598 1.314455 0.248085
v 0.594468 1.284430 0.248085
v 0.548900 1.265555 0.248085
v 0.500000 2.057387 0.374043
v 0.536512 2.062194 0.374043
v 0.463488 2.062194 0.374043
v 0.429464 2.076287 0.374043
v 0.570536 2.076287 0.374043
v 0.400247 2.098706 0.374043
v 0.599753 2.098706 0.374043
v 0.377828 2.127923 0.374043
v 0.622172 2.127923 0.374043
v 0.363734 2.161946 0.374043
v 0.636265 2.161946 0.374043
v 0.641072 2.198459 0.374043
v 0.358928 2.198459 0.374043
v 0.363734 2.234971 0.374043
v 0.636265 2.234971 0.374043
v 0.377828 2.268995 0.374043
v 0.622172 2.268995 0.374043
v 0.400247 2.298212 0.374043
v 0.599753 2.298212 0.374043
v 0.429464 2.320631 0.374043
v 0.570536 2.320631 0.374043
v 0.536512 2.334724 0.374043
v 0.463488 2.334724 0.374043
v 0.500000 2.339531 0.374043
v 0.500000 1.353586 0.374043
v 0.524450 1.356804 0.374043
v 0.547234 1.366242 0.374043
v 0.566799 1.381254 0.374043
v 0.408751 1.472503 0.374043
v 0.418188 1.495287 0.374043
v 0.433201 1.514852 0.374043
v 0.452766 1.529865 0.374043
v 0.475550 1.539303 0.374043
v 0.500000 1.542522 0.374043
v 0.627086 0.227807 0.751915
v 0.372914 0.227807 0.751915
v 0.627086 0.812248 0.751915
v 0.372914 0.812248 0.751915
f 2 1 3
f 3 4 2
f 4 5 2
f 4 6 5
f 1 2 7
f 7 8 1
f 7 6 8
f 6 4 8
f 10 9 1
f 1 11 10
f 1 12 11
f 1 8 12
f 4 13 12
f 12 8 4
f 14 13 4
f 14 4 3
f 14 3 15
f 15 16 14
f 15 9 10
f 10 16 15
f 18 17 19
f 19 20 18
f 22 21 23
f 23 24 22
f 26 25 27
f 27 28 26
f 30 29 31
f 31 32 30
f 34 33 35
f 35 36 34
f 29 37 38
f 38 31 29
f 40 39 41
f 41 42 40
f 32 43 44
f 44 30 32
f 43 40 42
f 42 44 43
f 31 14 11
f 11 32 31
f 11 43 32
f 11 40 43
f 11 39 40
f 11 12 39
f 31 38 14
f 38 45 14
f 12 46 39
f 12 47 46
f 12 48 47
f 12 49 48
f 49 50 48
f 49 51 50
f 49 52 51
f 52 53 51
f 52 54 53
f 54 55 53
f 55 56 53
f 56 57 53
f 12 58 49
f 12 59 58
f 12 60 59
f 12 61 60
f 12 62 61
f 12 63 62
f 12 64 63
f 53 57 65
f 53 65 66
f 53 66 67
f 53 67 68
f 64 12 13
f 69 64 13
f 70 69 13
f 71 70 13
f 72 71 13
f 73 72 13
f 74 73 13
f 75 74 13
f 34 75 13
f 33 34 13
f 22 33 13
f 21 22 13
f 21 13 14
f 14 26 21
f 14 25 26
f 14 76 25
f 14 77 76
f 14 78 77
f 14 45 78
f 34 17 75
f 17 18 75
f 18 68 75
f 18 53 68
f 14 16 10
f 10 11 14
f 80 79 81
f 81 82 80
f 82 83 80
f 82 84 83
f 84 85 83
f 84 86 85
f 86 87 85
f 86 88 87
f 88 89 87
f 88 90 89
f 88 91 90
f 91 92 90
f 92 93 90
f 92 94 93
f 94 95 93
f 94 96 95
f 96 97 95
f 96 98 97
f 98 99 97
f 98 100 99
f 98 101 100
f 101 102 100
f 104 103 37
f 37 29 104
f 29 105 104
f 29 30 105
f 30 106 105
f 30 27 106
f 30 44 27
f 44 42 27
f 42 28 27
f 42 23 28
f 42 41 23
f 41 107 23
f 107 24 23
f 107 108 24
f 108 35 24
f 108 109 35
f 109 36 35
f 109 110 36
f 110 19 36
f 110 111 19
f 111 20 19
f 111 112 20
f 72 73 93
f 93 95 72
f 71 72 95
f 95 97 71
f 63 101 98
f 98 62 63
f 64 69 100
f 100 102 64
f 69 70 99
f 99 100 69
f 73 74 90
f 90 93 73
f 83 66 65
f 65 80 83
f 15 3 1
f 1 9 15
f 74 75 89
f 89 90 74
f 68 67 85
f 85 87 68
f 75 68 87
f 87 89 75
f 85 67 66
f 66 83 85
f 70 71 97
f 97 99 70
f 82 81 56
f 56 55 82
f 79 57 56
f 56 81 79
f 53 112 111
f 111 51 53
f 54 52 86
f 86 84 54
f 25 76 106
f 106 27 25
f 49 58 91
f 91 88 49
f 80 65 57
f 57 79 80
f 84 82 55
f 55 54 84
f 46 47 108
f 108 107 46
f 106 76 77
f 77 105 106
f 60 61 96
f 96 94 60
f 62 98 96
f 96 61 62
f 39 46 107
f 107 41 39
f 105 77 78
f 78 104 105
f 52 49 88
f 88 86 52
f 63 64 102
f 102 101 63
f 58 59 92
f 92 91 58
f 59 60 94
f 94 92 59
f 51 111 110
f 110 50 51
f 104 78 45
f 45 103 104
f 53 18 20
f 20 112 53
f 33 22 24
f 24 35 33
f 50 110 109
f 109 48 50
f 103 45 38
f 38 37 103
f 17 34 36
f 36 19 17
f 21 26 28
f 28 23 21
f 47 48 109
f 109 108 47
f 114 113 115
f 115 116 114
f 115 5 6
f 6 116 115
f 114 116 6
f 6 7 114
f 2 113 114
f 114 7 2
f 115 113 2
f 2 5 115
