# City room prop — voxel footprint 3x4x3 (0.5 m cells)
o statue_head
v 1.897893 1.301149 2.528821
v 1.102107 1.301149 2.343254
v 1.102107 1.301149 2.528821
v 0.903160 1.301149 1.972120
v 1.897893 1.301149 2.343254
v 2.096840 1.301149 2.157687
v 2.096840 1.301149 1.972120
v 0.903160 1.301149 2.157687
v 1.837350 2.436330 2.036601
v 1.162650 2.436330 2.036601
v 2.242268 0.040000 2.104169
v 0.757732 0.040000 2.104169
v 2.390722 0.411134 2.252622
v 0.609278 0.411134 2.252622
v 1.179903 0.894696 1.972120
v 1.179903 1.043150 1.972120
v 1.179903 0.894696 2.201042
v 1.179903 1.043150 2.201042
v 0.697163 1.235052 1.506810
v 0.364330 1.235052 1.506810
v 0.719728 1.446598 1.506810
v 0.451955 1.446598 1.506810
v 0.152784 1.446598 1.506810
v 0.364330 1.534223 1.506810
v 0.152784 1.869691 1.506810
v 0.364330 1.782065 1.506810
v 0.451955 1.869691 1.506810
v 0.364330 2.081237 1.506810
v 0.764858 1.869691 1.506810
v 0.787423 2.081237 1.506810
v 2.034433 3.751340 0.827467
v 2.212577 2.081237 1.216991
v 2.034433 3.751340 1.525199
v 2.212577 2.081237 1.506810
v 2.235142 1.869691 1.506810
v 2.280272 1.446598 1.506810
v 2.302837 1.235052 1.506810
v 2.302837 1.235052 1.216991
v 2.390722 0.411134 0.471179
v 2.220108 2.010637 1.822215
v 2.174700 2.436330 1.822215
v 2.174700 2.436330 2.036601
v 2.220108 2.010637 2.082008
v 2.280272 1.446598 1.361900
v 2.235142 1.869691 1.361900
v 2.242268 0.040000 0.619632
v 0.965567 3.751340 1.525199
v 1.336701 3.751340 1.896333
v 0.825300 2.436330 2.036601
v 1.871134 1.043150 1.972120
v 1.871134 1.043150 2.201042
v 1.663299 3.751340 1.896333
v 2.635670 1.235052 1.506810
v 2.847216 1.446598 1.506810
v 2.548045 1.446598 1.506810
v 2.635670 1.534223 1.506810
v 2.847216 1.869691 1.506810
v 2.635670 1.782065 1.506810
v 2.548045 1.869691 1.506810
v 2.635670 2.081237 1.506810
v 1.871134 0.894696 1.972120
v 1.871134 0.894696 2.201042
v 2.635670 1.235052 1.216991
v 2.847216 1.446598 1.216991
v 2.847216 1.869691 1.216991
v 2.635670 2.081237 1.216991
v 1.139946 2.010637 2.082008
v 1.121027 1.655893 2.119848
v 0.609278 0.411134 0.471179
v 0.965567 3.751340 0.827467
v 1.860054 2.010637 2.082008
v 1.878973 1.655893 2.119848
v 0.787423 2.081237 1.216991
v 0.697163 1.235052 1.216991
v 0.764858 1.869691 1.361900
v 0.719728 1.446598 1.361900
v 0.779892 2.010637 1.822215
v 0.779892 2.010637 2.082008
v 0.825300 2.436330 1.822215
v 0.757732 0.040000 0.619632
v 0.364330 1.235052 1.216991
v 0.152784 1.446598 1.216991
v 0.152784 1.869691 1.216991
v 0.364330 2.081237 1.216991
v 2.140195 0.894696 2.201042
v 0.859805 0.894696 2.201042
v 1.837350 2.436330 1.822215
v 1.860054 2.010637 1.822215
v 2.548045 1.869691 1.361900
v 2.140195 0.894696 1.972120
v 0.859805 0.894696 1.972120
v 2.635670 1.534223 1.361900
v 2.635670 1.782065 1.361900
v 0.364330 1.782065 1.361900
v 0.364330 1.534223 1.361900
v 0.451955 1.446598 1.361900
v 0.451955 1.869691 1.361900
v 2.548045 1.446598 1.361900
v 1.139946 2.010637 1.822215
v 1.162650 2.436330 1.822215
f 3 2 1
f 4 1 2
f 4 5 1
f 4 6 5
f 6 4 7
f 4 2 8
f 9 3 1
f 3 9 10
f 13 12 11
f 12 13 14
f 17 16 15
f 16 17 18
f 21 20 19
f 20 21 22
f 22 23 20
f 23 22 24
f 23 24 25
f 25 24 26
f 25 26 27
f 25 27 28
f 28 27 29
f 28 29 30
f 33 32 31
f 32 33 34
f 34 33 35
f 35 33 36
f 36 33 37
f 38 31 32
f 38 39 31
f 39 38 13
f 13 38 37
f 13 37 40
f 40 37 33
f 40 33 41
f 42 41 33
f 13 40 43
f 44 35 36
f 35 44 45
f 13 46 39
f 46 13 11
f 49 48 47
f 16 51 50
f 51 16 18
f 42 10 9
f 10 42 49
f 49 42 48
f 48 42 52
f 54 37 53
f 37 54 55
f 37 55 36
f 55 54 56
f 56 54 57
f 56 57 58
f 58 57 59
f 59 57 60
f 59 60 35
f 35 60 34
f 51 61 50
f 61 51 62
f 32 63 38
f 63 32 64
f 64 32 65
f 65 32 66
f 67 3 10
f 3 67 68
f 3 68 2
f 70 39 69
f 39 70 31
f 1 71 9
f 71 1 72
f 72 1 5
f 70 73 47
f 73 70 74
f 47 73 30
f 69 74 70
f 74 69 14
f 74 14 19
f 19 14 21
f 21 14 29
f 29 14 30
f 75 21 29
f 21 75 76
f 30 14 77
f 30 77 47
f 77 14 78
f 79 47 77
f 47 79 49
f 69 46 80
f 46 69 39
f 70 33 31
f 33 70 52
f 52 70 48
f 48 70 47
f 52 42 33
f 80 14 69
f 14 80 12
f 32 60 66
f 60 32 34
f 82 74 81
f 74 82 73
f 73 82 83
f 73 83 84
f 68 8 2
f 81 23 82
f 23 81 20
f 23 83 82
f 83 23 25
f 57 64 65
f 64 57 54
f 19 81 74
f 81 19 20
f 72 5 6
f 53 38 63
f 38 53 37
f 84 30 73
f 30 84 28
f 13 85 14
f 85 13 43
f 85 43 6
f 6 43 72
f 72 43 71
f 86 14 85
f 14 86 78
f 86 85 62
f 86 62 17
f 78 86 8
f 78 8 68
f 78 68 67
f 60 65 66
f 65 60 57
f 64 53 63
f 53 64 54
f 25 84 83
f 84 25 28
f 51 17 62
f 17 51 18
f 9 88 87
f 88 9 71
f 59 45 89
f 45 59 35
f 90 6 7
f 6 90 85
f 42 87 41
f 87 42 9
f 88 43 40
f 43 88 71
f 91 17 15
f 17 91 86
f 7 61 90
f 61 7 50
f 50 7 16
f 4 16 7
f 91 16 4
f 16 91 15
f 56 93 92
f 93 56 58
f 26 95 94
f 95 26 24
f 96 21 76
f 21 96 22
f 61 85 90
f 85 61 62
f 29 97 75
f 97 29 27
f 24 96 95
f 96 24 22
f 55 92 98
f 92 55 56
f 77 67 99
f 67 77 78
f 41 88 40
f 88 41 87
f 100 77 99
f 77 100 79
f 76 95 96
f 95 76 75
f 95 75 94
f 94 75 97
f 97 26 94
f 26 97 27
f 92 44 98
f 44 92 45
f 45 92 93
f 45 93 89
f 4 86 91
f 86 4 8
f 44 55 98
f 55 44 36
f 67 100 99
f 100 67 10
f 93 59 89
f 59 93 58
f 10 79 100
f 79 10 49
f 11 80 46
f 80 11 12
