# City room prop — voxel footprint 2x4x2 (0.5 m cells)
o statue_obelisk
v 1.484266 0.389881 1.484266
v 1.339199 0.389881 0.660801
v 1.484266 0.389881 0.515734
v 0.515734 0.389881 0.515734
v 0.660801 0.389881 0.660801
v 0.660801 0.389881 1.339199
v 1.339199 0.389881 1.339199
v 0.515734 0.389881 1.484266
v 1.271359 1.685275 1.271359
v 0.728641 1.685275 1.271359
v 0.728641 1.685275 0.728641
v 1.271359 1.685275 0.728641
v 0.796480 2.980668 0.796480
v 0.796480 2.980668 1.203520
v 1.203520 2.980668 0.796480
v 1.000000 3.288896 1.000000
v 1.203520 2.980668 1.203520
v 0.430275 0.040000 0.430275
v 1.569725 0.040000 0.430275
v 1.569725 0.040000 1.569725
v 0.430275 0.040000 1.569725
f 3 2 1
f 2 3 4
f 2 4 5
f 5 4 6
f 7 1 2
f 1 7 8
f 8 7 6
f 8 6 4
f 9 6 7
f 6 9 10
f 11 2 5
f 2 11 12
f 6 11 5
f 11 6 10
f 12 7 2
f 7 12 9
f 10 13 11
f 13 10 14
f 16 15 13
f 13 12 11
f 12 13 15
f 16 14 17
f 4 19 18
f 19 4 3
f 17 15 16
f 1 21 20
f 21 1 8
f 17 10 9
f 10 17 14
f 21 19 20
f 19 21 18
f 14 16 13
f 3 20 19
f 20 3 1
f 21 4 18
f 4 21 8
f 15 9 12
f 9 15 17
