# City room prop — voxel footprint 2x4x2 (0.5 m cells)
o statue_column
v 1.556701 0.633814 0.443299
v 1.408247 0.782268 0.591753
v 0.443299 0.633814 0.443299
v 0.591753 0.782268 0.591753
v 1.556701 3.602887 1.556701
v 0.443299 3.602887 1.556701
v 1.408247 3.751340 1.408247
v 0.591753 3.751340 1.408247
v 1.556701 3.602887 0.443299
v 1.408247 3.751340 0.591753
v 1.556701 3.157526 0.443299
v 1.408247 3.009072 0.591753
v 1.556701 3.157526 1.556701
v 1.408247 3.009072 1.408247
v 1.222680 0.967835 0.591753
v 1.222680 0.967835 0.703093
v 0.777320 0.967835 0.591753
v 0.777320 0.967835 0.703093
v 1.556701 0.633814 1.556701
v 0.443299 0.633814 1.556701
v 1.408247 0.782268 1.408247
v 0.591753 0.782268 1.408247
v 0.443299 3.602887 0.443299
v 0.591753 3.751340 0.591753
v 1.408247 0.967835 0.777320
v 1.296907 0.967835 0.777320
v 1.408247 2.036127 0.777320
v 1.296907 2.036127 0.777320
v 1.408247 2.823505 0.777320
v 1.296907 2.823505 0.777320
v 0.777320 2.823505 0.703093
v 1.222680 2.823505 0.703093
v 1.222680 2.823505 0.591753
v 0.777320 2.823505 0.591753
v 0.703093 0.967835 0.777320
v 0.703093 2.823505 0.777320
v 0.703093 0.967835 1.222680
v 0.703093 2.823505 1.222680
v 0.443299 3.157526 1.556701
v 0.591753 3.009072 1.408247
v 1.296907 2.823505 1.222680
v 1.296907 0.967835 1.222680
v 0.591753 0.967835 0.777320
v 0.591753 2.823505 0.777320
v 0.591753 0.967835 1.222680
v 0.591753 2.823505 1.222680
v 1.222680 0.967835 1.296907
v 0.777320 0.967835 1.296907
v 1.222680 2.823505 1.296907
v 0.777320 2.823505 1.296907
v 1.222680 2.823505 1.408247
v 0.777320 2.823505 1.408247
v 0.443299 3.157526 0.443299
v 0.591753 3.009072 0.591753
v 1.408247 0.967835 1.222680
v 1.408247 2.823505 1.222680
v 0.777320 0.967835 1.408247
v 1.222680 0.967835 1.408247
v 0.443299 0.040000 0.443299
v 1.556701 0.040000 0.443299
v 0.443299 0.040000 1.556701
v 1.556701 0.040000 1.556701
f 3 2 1
f 2 3 4
f 7 6 5
f 6 7 8
f 10 5 9
f 5 10 7
f 13 12 11
f 12 13 14
f 17 16 15
f 16 17 18
f 21 20 19
f 20 21 22
f 23 10 9
f 10 23 24
f 27 26 25
f 26 27 28
f 29 28 27
f 28 29 30
f 31 16 18
f 16 31 32
f 16 33 15
f 33 16 32
f 31 17 34
f 17 31 18
f 37 36 35
f 36 37 38
f 39 14 13
f 14 39 40
f 31 33 32
f 33 31 34
f 41 28 30
f 28 41 26
f 26 41 42
f 36 43 35
f 43 36 44
f 43 37 35
f 37 43 45
f 46 37 45
f 37 46 38
f 2 19 1
f 19 2 21
f 49 48 47
f 48 49 50
f 52 49 51
f 49 52 50
f 46 36 38
f 36 46 44
f 54 39 53
f 39 54 40
f 26 55 25
f 55 26 42
f 6 24 23
f 24 6 8
f 20 4 3
f 4 20 22
f 12 53 11
f 53 12 54
f 41 29 56
f 29 41 30
f 41 55 42
f 55 41 56
f 52 48 50
f 48 52 57
f 58 49 47
f 49 58 51
f 48 58 47
f 58 48 57
f 5 39 13
f 39 5 6
f 24 7 10
f 7 24 8
f 4 43 54
f 43 4 22
f 43 22 45
f 45 22 46
f 44 54 43
f 54 44 40
f 40 44 46
f 40 46 22
f 21 58 22
f 58 21 14
f 58 14 51
f 51 14 52
f 57 22 58
f 22 57 40
f 40 57 52
f 40 52 14
f 39 23 53
f 23 39 6
f 4 17 2
f 17 4 54
f 17 54 34
f 34 54 33
f 15 2 17
f 2 15 12
f 12 15 33
f 12 33 54
f 3 60 59
f 60 3 1
f 5 11 9
f 11 5 13
f 61 3 59
f 3 61 20
f 23 11 53
f 11 23 9
f 61 60 62
f 60 61 59
f 12 29 2
f 29 12 14
f 29 14 56
f 56 14 55
f 25 2 29
f 2 25 21
f 21 25 55
f 21 55 14
f 25 29 27
f 19 61 62
f 61 19 20
f 19 60 1
f 60 19 62
f 54 14 12
f 14 54 40
