# City room prop — voxel footprint 2x4x4 (0.5 m cells)
o stoneWallColumn_z
v 1.637160 2.770686 1.544886
v 1.637160 2.770686 2.455114
v 1.637160 3.134777 1.544886
v 1.637160 3.134777 2.455114
v 0.544886 3.134777 1.362840
v 0.544886 2.770686 1.362840
v 1.455114 3.134777 1.362840
v 1.455114 2.770686 1.362840
v 0.362840 2.770686 2.455114
v 0.362840 2.770686 1.544886
v 0.362840 3.134777 2.455114
v 0.362840 3.134777 1.544886
v 0.544886 2.770686 2.637160
v 0.544886 3.134777 2.637160
v 1.455114 2.770686 2.637160
v 1.455114 3.134777 2.637160
v 1.637160 0.040000 1.544886
v 1.637160 0.040000 2.455114
v 1.637160 0.404091 1.544886
v 1.637160 0.404091 2.455114
v 0.544886 0.404091 1.362840
v 0.544886 0.040000 1.362840
v 1.455114 0.404091 1.362840
v 1.455114 0.040000 1.362840
v 0.362840 0.040000 2.455114
v 0.362840 0.040000 1.544886
v 0.362840 0.404091 2.455114
v 0.362840 0.404091 1.544886
v 0.544886 0.040000 2.637160
v 0.544886 0.404091 2.637160
v 1.455114 0.040000 2.637160
v 1.455114 0.404091 2.637160
v 0.635909 2.770686 1.544886
v 0.635909 0.404091 1.544886
v 1.364091 2.770686 1.544886
v 1.364091 0.404091 1.544886
v 1.455114 0.404091 1.635909
v 1.455114 0.404091 2.364091
v 1.455114 2.770686 1.635909
v 1.455114 2.770686 2.364091
v 1.364091 0.404091 2.455114
v 1.364091 2.770686 2.455114
v 0.635909 0.404091 2.455114
v 0.635909 2.770686 2.455114
v 0.544886 0.404091 2.364091
v 0.544886 0.404091 1.635909
v 0.544886 2.770686 2.364091
v 0.544886 2.770686 1.635909
v 1.243941 2.042503 0.179543
v 0.756059 2.042503 0.179543
v 1.243941 2.042503 3.820457
v 0.756059 2.042503 3.820457
v 0.683240 2.115321 3.820457
v 0.683240 2.115321 0.179543
v 0.635909 2.515822 3.820457
v 0.635909 2.515822 0.179543
v 1.316760 2.115321 0.179543
v 1.316760 2.115321 3.820457
v 1.364091 2.515822 0.179543
v 1.364091 2.515822 3.820457
v 0.708727 2.588640 0.179543
v 1.000000 2.679663 0.179543
v 0.708727 2.588640 3.820457
v 1.000000 2.679663 3.820457
v 1.291273 2.588640 0.179543
v 1.291273 2.588640 3.820457
v 1.364091 0.040000 0.179543
v 0.635909 0.040000 0.179543
v 1.364091 0.040000 3.820457
v 0.635909 0.040000 3.820457
v 0.708727 0.768183 0.179543
v 1.291273 0.768183 0.179543
v 0.708727 0.768183 3.820457
v 1.291273 0.768183 3.820457
v 1.364091 0.695365 0.179543
v 1.364091 0.695365 3.820457
v 0.635909 0.695365 3.820457
v 0.635909 0.695365 0.179543
f 3 2 1
f 2 3 4
f 7 6 5
f 6 7 8
f 11 10 9
f 10 11 12
f 15 14 13
f 14 15 16
f 5 10 12
f 10 5 6
f 3 8 7
f 8 3 1
f 13 11 9
f 11 13 14
f 2 16 15
f 16 2 4
f 1 6 8
f 6 1 10
f 10 1 2
f 10 2 9
f 9 2 15
f 9 15 13
f 12 7 5
f 7 12 3
f 3 12 11
f 3 11 4
f 4 11 14
f 4 14 16
f 19 18 17
f 18 19 20
f 23 22 21
f 22 23 24
f 27 26 25
f 26 27 28
f 31 30 29
f 30 31 32
f 21 26 28
f 26 21 22
f 19 24 23
f 24 19 17
f 29 27 25
f 27 29 30
f 18 32 31
f 32 18 20
f 17 22 24
f 22 17 26
f 26 17 18
f 26 18 25
f 25 18 31
f 25 31 29
f 28 23 21
f 23 28 19
f 19 28 27
f 19 27 20
f 20 27 30
f 20 30 32
f 35 34 33
f 34 35 36
f 39 38 37
f 38 39 40
f 40 41 38
f 41 40 42
f 35 37 36
f 37 35 39
f 41 44 43
f 44 41 42
f 47 46 45
f 46 47 48
f 44 45 43
f 45 44 47
f 48 34 46
f 34 48 33
f 37 34 36
f 34 37 46
f 46 37 38
f 46 38 45
f 45 38 41
f 45 41 43
f 51 50 49
f 50 51 52
f 55 54 53
f 54 55 56
f 59 58 57
f 58 59 60
f 63 62 61
f 62 63 64
f 53 50 52
f 50 53 54
f 57 51 49
f 51 57 58
f 65 60 59
f 60 65 66
f 63 56 55
f 56 63 61
f 53 63 55
f 63 53 52
f 63 52 64
f 64 52 51
f 64 51 66
f 66 51 58
f 66 58 60
f 61 54 56
f 54 61 50
f 50 61 62
f 50 62 49
f 49 62 65
f 49 65 57
f 57 65 59
f 64 65 62
f 65 64 66
f 69 68 67
f 68 69 70
f 73 72 71
f 72 73 74
f 72 76 75
f 76 72 74
f 73 78 77
f 78 73 71
f 75 69 67
f 69 75 76
f 77 68 70
f 68 77 78
f 71 68 78
f 68 71 67
f 67 71 72
f 67 72 75
f 69 77 70
f 77 69 73
f 73 69 74
f 74 69 76
f 74 52 73
f 52 74 51
f 49 74 72
f 74 49 51
f 50 72 71
f 72 50 49
f 52 71 73
f 71 52 50
f 3 2 1
f 2 3 4
f 7 6 5
f 6 7 8
f 11 10 9
f 10 11 12
f 15 14 13
f 14 15 16
f 5 10 12
f 10 5 6
f 3 8 7
f 8 3 1
f 13 11 9
f 11 13 14
f 2 16 15
f 16 2 4
f 1 6 8
f 6 1 10
f 10 1 2
f 10 2 9
f 9 2 15
f 9 15 13
f 12 7 5
f 7 12 3
f 3 12 11
f 3 11 4
f 4 11 14
f 4 14 16
f 19 18 17
f 18 19 20
f 23 22 21
f 22 23 24
f 27 26 25
f 26 27 28
f 31 30 29
f 30 31 32
f 21 26 28
f 26 21 22
f 19 24 23
f 24 19 17
f 29 27 25
f 27 29 30
f 18 32 31
f 32 18 20
f 17 22 24
f 22 17 26
f 26 17 18
f 26 18 25
f 25 18 31
f 25 31 29
f 28 23 21
f 23 28 19
f 19 28 27
f 19 27 20
f 20 27 30
f 20 30 32
f 35 34 33
f 34 35 36
f 39 38 37
f 38 39 40
f 40 41 38
f 41 40 42
f 35 37 36
f 37 35 39
f 41 44 43
f 44 41 42
f 47 46 45
f 46 47 48
f 44 45 43
f 45 44 47
f 48 34 46
f 34 48 33
f 37 34 36
f 34 37 46
f 46 37 38
f 46 38 45
f 45 38 41
f 45 41 43
f 51 50 49
f 50 51 52
f 55 54 53
f 54 55 56
f 59 58 57
f 58 59 60
f 63 62 61
f 62 63 64
f 53 50 52
f 50 53 54
f 57 51 49
f 51 57 58
f 65 60 59
f 60 65 66
f 63 56 55
f 56 63 61
f 53 63 55
f 63 53 52
f 63 52 64
f 64 52 51
f 64 51 66
f 66 51 58
f 66 58 60
f 61 54 56
f 54 61 50
f 50 61 62
f 50 62 49
f 49 62 65
f 49 65 57
f 57 65 59
f 64 65 62
f 65 64 66
f 69 68 67
f 68 69 70
f 73 72 71
f 72 73 74
f 72 76 75
f 76 72 74
f 73 78 77
f 78 73 71
f 75 69 67
f 69 75 76
f 77 68 70
f 68 77 78
f 71 68 78
f 68 71 67
f 67 71 72
f 67 72 75
f 69 77 70
f 77 69 73
f 73 69 74
f 74 69 76
f 74 52 73
f 52 74 51
f 49 74 72
f 74 49 51
f 50 72 71
f 72 50 49
f 52 71 73
f 71 52 50
