# City room prop — voxel footprint 1x3x4 (0.5 m cells)
o stoneWall_z
v 0.208727 0.768183 3.820457
v 0.256059 2.042503 3.820457
v 0.791273 0.768183 3.820457
v 0.743941 2.042503 3.820457
v 0.791273 0.768183 0.179543
v 0.743941 2.042503 0.179543
v 0.208727 0.768183 0.179543
v 0.256059 2.042503 0.179543
v 0.864091 0.040000 0.179543
v 0.135909 0.040000 0.179543
v 0.864091 0.040000 3.820457
v 0.135909 0.040000 3.820457
v 0.864091 0.695365 0.179543
v 0.864091 0.695365 3.820457
v 0.135909 0.695365 3.820457
v 0.135909 0.695365 0.179543
v 0.183240 2.115321 3.820457
v 0.183240 2.115321 0.179543
v 0.135909 2.515822 3.820457
v 0.135909 2.515822 0.179543
v 0.816760 2.115321 0.179543
v 0.816760 2.115321 3.820457
v 0.864091 2.515822 0.179543
v 0.864091 2.515822 3.820457
v 0.208727 2.588640 0.179543
v 0.500000 2.679663 0.179543
v 0.208727 2.588640 3.820457
v 0.500000 2.679663 3.820457
v 0.791273 2.588640 0.179543
v 0.791273 2.588640 3.820457
f 3 2 1
f 2 3 4
f 6 3 5
f 3 6 4
f 8 5 7
f 5 8 6
f 2 7 1
f 7 2 8
f 11 10 9
f 10 11 12
f 1 5 7
f 5 1 3
f 5 14 13
f 14 5 3
f 1 16 15
f 16 1 7
f 13 11 9
f 11 13 14
f 15 10 12
f 10 15 16
f 7 10 16
f 10 7 9
f 9 7 5
f 9 5 13
f 11 15 12
f 15 11 1
f 1 11 3
f 3 11 14
f 4 8 6
f 8 4 2
f 19 18 17
f 18 19 20
f 23 22 21
f 22 23 24
f 27 26 25
f 26 27 28
f 17 8 2
f 8 17 18
f 21 4 6
f 4 21 22
f 29 24 23
f 24 29 30
f 27 20 19
f 20 27 25
f 17 27 19
f 27 17 2
f 27 2 28
f 28 2 4
f 28 4 30
f 30 4 22
f 30 22 24
f 25 18 20
f 18 25 8
f 8 25 26
f 8 26 6
f 6 26 29
f 6 29 21
f 21 29 23
f 28 29 26
f 29 28 30
f 3 2 1
f 2 3 4
f 6 3 5
f 3 6 4
f 8 5 7
f 5 8 6
f 2 7 1
f 7 2 8
f 11 10 9
f 10 11 12
f 1 5 7
f 5 1 3
f 5 14 13
f 14 5 3
f 1 16 15
f 16 1 7
f 13 11 9
f 11 13 14
f 15 10 12
f 10 15 16
f 7 10 16
f 10 7 9
f 9 7 5
f 9 5 13
f 11 15 12
f 15 11 1
f 1 11 3
f 3 11 14
f 4 8 6
f 8 4 2
f 19 18 17
f 18 19 20
f 23 22 21
f 22 23 24
f 27 26 25
f 26 27 28
f 17 8 2
f 8 17 18
f 21 4 6
f 4 21 22
f 29 24 23
f 24 29 30
f 27 20 19
f 20 27 25
f 17 27 19
f 27 17 2
f 27 2 28
f 28 2 4
f 28 4 30
f 30 4 22
f 30 22 24
f 25 18 20
f 18 25 8
f 8 25 26
f 8 26 6
f 6 26 29
f 6 29 21
f 21 29 23
f 28 29 26
f 29 28 30
