# City room prop — voxel footprint 2x1x2 (0.5 m cells)
o stump_old
v 0.768526 0.683827 1.168752
v 0.650422 0.683827 1.236939
v 0.768526 0.960000 1.168752
v 0.650422 0.960000 1.236939
v 0.768526 0.207430 1.168752
v 1.060813 0.207430 1.337504
v 1.060813 0.683827 1.337504
v 0.650422 0.821914 0.763061
v 0.768526 0.821914 0.831248
v 0.650422 0.960000 0.763061
v 0.768526 0.960000 0.831248
v 1.353099 0.207430 1.168752
v 1.353099 0.545741 1.168752
v 1.353099 0.821914 1.168752
v 1.060813 0.821914 1.337504
v 1.060813 0.293734 1.473878
v 0.650422 0.293734 1.236939
v 1.060813 0.683827 1.473878
v 1.471203 0.545741 0.763061
v 1.471203 0.545741 1.236939
v 1.353099 0.545741 0.831248
v 1.060813 0.821914 0.526122
v 1.060813 0.683827 0.526122
v 1.060813 0.821914 0.662496
v 1.060813 0.683827 0.662496
v 0.650422 0.643887 0.872045
v 0.650422 0.643887 1.127955
v 0.517514 0.617358 0.900195
v 0.517514 0.617358 1.099805
v 0.384606 0.617358 0.900195
v 0.384606 0.617358 1.099805
v 0.650422 0.293734 0.763061
v 1.060813 0.293734 0.526122
v 1.471203 0.683827 0.763061
v 1.353099 0.683827 0.831248
v 1.615394 0.040000 0.679812
v 1.615394 0.040000 1.320188
v 1.471203 0.293734 0.763061
v 1.471203 0.293734 1.236939
v 1.478769 0.386227 0.530250
v 1.377689 0.386227 0.471892
v 1.398774 0.360008 0.721245
v 1.252281 0.360008 0.636667
v 1.377689 0.502944 0.471892
v 1.252281 0.529163 0.636667
v 1.060813 0.040000 1.640375
v 1.478769 0.502944 0.530250
v 1.398774 0.529163 0.721245
v 0.506231 0.040000 0.679812
v 0.506231 0.040000 1.320188
v 1.471203 0.821914 1.236939
v 1.060813 0.821914 1.473878
v 1.060813 0.040000 0.359625
v 0.650422 0.402717 0.872045
v 0.517514 0.429246 0.900195
v 0.517514 0.429246 1.099805
v 0.384606 0.429246 1.099805
v 0.384606 0.429246 0.900195
v 0.650422 0.402717 1.127955
v 1.060813 0.207430 0.662496
v 0.768526 0.207430 0.831248
v 1.353099 0.207430 0.831248
f 3 2 1
f 2 3 4
f 1 6 5
f 6 1 7
f 10 9 8
f 9 10 11
f 10 3 11
f 3 10 4
f 7 12 6
f 12 7 13
f 13 7 14
f 14 7 15
f 18 17 16
f 17 18 2
f 21 20 19
f 20 21 13
f 1 18 7
f 18 1 2
f 24 23 22
f 23 24 25
f 28 27 26
f 27 28 29
f 30 29 28
f 29 30 31
f 8 33 32
f 33 8 23
f 23 8 22
f 23 35 34
f 35 23 25
f 38 37 36
f 37 38 39
f 42 41 40
f 41 42 43
f 8 24 22
f 24 8 9
f 43 44 41
f 44 43 45
f 39 46 37
f 46 39 16
f 48 40 47
f 40 48 42
f 44 40 41
f 40 44 47
f 50 32 49
f 32 50 17
f 14 52 51
f 52 14 15
f 32 53 49
f 53 32 33
f 55 26 54
f 26 55 28
f 14 20 13
f 20 14 51
f 46 36 37
f 36 46 53
f 53 46 50
f 53 50 49
f 34 21 19
f 21 34 35
f 33 43 38
f 43 33 23
f 43 23 45
f 45 23 48
f 48 23 19
f 19 23 34
f 38 42 19
f 42 38 43
f 19 42 48
f 16 50 46
f 50 16 17
f 57 55 56
f 55 57 58
f 27 56 59
f 56 27 29
f 32 54 8
f 54 32 17
f 8 54 10
f 54 17 59
f 59 17 27
f 26 10 54
f 10 26 4
f 4 26 27
f 4 27 17
f 4 17 2
f 57 30 58
f 30 57 31
f 33 36 53
f 36 33 38
f 30 55 58
f 55 30 28
f 29 57 56
f 57 29 31
f 25 61 60
f 61 25 9
f 9 25 24
f 20 38 19
f 38 20 39
f 44 48 47
f 48 44 45
f 60 12 62
f 12 60 6
f 6 60 61
f 6 61 5
f 20 16 39
f 16 20 18
f 18 20 51
f 18 51 52
f 12 21 62
f 21 12 13
f 56 54 59
f 54 56 55
f 21 60 62
f 60 21 25
f 25 21 35
f 3 9 11
f 9 3 61
f 61 3 5
f 5 3 1
f 18 15 7
f 15 18 52
