# City room prop — voxel footprint 3x1x2 (0.5 m cells)
o tableCoffee
v 0.338008 0.320000 0.360000
v 0.178008 0.320000 0.360000
v 0.338008 0.760000 0.360000
v 0.178008 0.760000 0.360000
v 2.661992 0.320000 0.360000
v 0.338008 0.240000 0.360000
v 2.661992 0.240000 0.360000
v 0.338008 0.040000 0.360000
v 0.178008 0.040000 0.360000
v 0.178008 0.240000 0.360000
v 2.821992 0.240000 0.360000
v 2.661992 0.040000 0.360000
v 2.821992 0.040000 0.360000
v 2.821992 0.320000 0.360000
v 2.821992 0.760000 0.360000
v 2.661992 0.760000 0.360000
v 0.338008 0.240000 1.640000
v 0.178008 0.240000 1.640000
v 2.661992 0.240000 1.640000
v 2.661992 0.240000 1.800000
v 0.338008 0.240000 1.800000
v 2.661992 0.240000 0.200000
v 0.338008 0.240000 0.200000
v 2.821992 0.240000 1.640000
v 2.661992 0.040000 1.640000
v 2.821992 0.040000 1.640000
v 0.338008 0.320000 1.640000
v 2.661992 0.320000 1.640000
v 2.821992 0.320000 1.640000
v 2.661992 0.760000 1.640000
v 2.821992 0.760000 1.640000
v 0.338008 0.040000 1.640000
v 0.178008 0.040000 1.640000
v 0.178008 0.320000 1.640000
v 0.178008 0.760000 1.640000
v 0.338008 0.760000 1.640000
v 0.338008 0.040000 0.200000
v 0.178008 0.040000 0.200000
v 2.821992 0.960000 0.200000
v 2.821992 0.960000 1.800000
v 0.178008 0.960000 0.200000
v 0.178008 0.960000 1.800000
v 0.178008 0.040000 1.800000
v 2.821992 0.040000 0.200000
v 2.821992 0.040000 1.800000
v 0.338008 0.760000 0.200000
v 0.338008 0.760000 1.800000
v 2.661992 0.760000 0.200000
v 2.661992 0.760000 1.800000
v 0.338008 0.320000 0.200000
v 2.661992 0.320000 0.200000
v 2.661992 0.040000 0.200000
v 2.661992 0.040000 1.800000
v 2.661992 0.320000 1.800000
v 0.338008 0.320000 1.800000
v 0.338008 0.040000 1.800000
f 2 1 3
f 3 4 2
f 5 1 6
f 6 7 5
f 9 8 6
f 6 10 9
f 11 7 12
f 12 13 11
f 5 14 15
f 15 16 5
f 6 17 18
f 18 10 6
f 17 19 20
f 20 21 17
f 22 7 6
f 6 23 22
f 19 7 11
f 11 24 19
f 26 25 19
f 19 24 26
f 19 17 27
f 27 28 19
f 29 28 30
f 30 31 29
f 18 17 32
f 32 33 18
f 27 34 35
f 35 36 27
f 37 8 9
f 9 38 37
f 40 39 41
f 41 42 40
f 2 4 9
f 9 10 2
f 10 34 2
f 10 18 34
f 18 35 34
f 9 4 41
f 41 38 9
f 4 42 41
f 4 35 42
f 35 18 42
f 18 43 42
f 18 33 43
f 15 44 39
f 39 40 15
f 40 31 15
f 40 24 31
f 40 26 24
f 40 45 26
f 13 44 15
f 15 14 13
f 14 11 13
f 14 29 11
f 29 24 11
f 29 31 24
f 3 36 35
f 35 4 3
f 36 3 46
f 47 36 46
f 47 46 48
f 47 48 16
f 47 16 30
f 30 49 47
f 30 16 15
f 15 31 30
f 37 38 41
f 41 23 37
f 41 50 23
f 50 22 23
f 41 46 50
f 41 48 46
f 22 50 51
f 22 51 39
f 51 48 39
f 48 41 39
f 22 39 44
f 44 52 22
f 26 45 53
f 53 25 26
f 44 13 12
f 12 52 44
f 28 5 7
f 7 19 28
f 19 25 53
f 53 20 19
f 30 28 54
f 54 49 30
f 48 51 5
f 5 16 48
f 12 7 22
f 22 52 12
f 6 1 27
f 27 17 6
f 3 1 50
f 50 46 3
f 37 23 6
f 6 8 37
f 27 36 47
f 47 55 27
f 56 32 17
f 17 21 56
f 32 56 43
f 43 33 32
f 27 1 2
f 2 34 27
f 54 28 27
f 27 55 54
f 1 5 51
f 51 50 1
f 5 28 29
f 29 14 5
f 53 45 40
f 40 20 53
f 40 54 20
f 54 21 20
f 40 49 54
f 40 47 49
f 21 54 55
f 21 55 42
f 55 47 42
f 47 40 42
f 21 42 43
f 43 56 21
