# City room prop — voxel footprint 3x2x4 (0.5 m cells)
o tableRound
v 2.960000 1.368294 2.842931
v 1.668586 1.368294 2.168586
v 1.500000 1.368294 3.685863
v 1.331414 1.368294 2.168586
v 0.040000 1.368294 2.842931
v 1.331414 1.368294 1.831414
v 1.668586 1.368294 1.831414
v 1.500000 1.368294 0.314137
v 2.960000 1.368294 1.157069
v 2.960000 1.368294 2.000000
v 0.040000 1.368294 1.157069
v 0.040000 1.368294 2.000000
v 2.960000 1.585658 1.157069
v 2.960000 1.585658 2.842931
v 1.500000 1.585658 0.314137
v 1.500000 1.585658 3.685863
v 0.040000 1.585658 1.157069
v 0.040000 1.585658 2.842931
v 1.331414 0.335026 1.831414
v 1.668586 0.335026 1.831414
v 1.668586 0.335026 2.168586
v 1.331414 0.335026 2.168586
v 1.247120 0.250733 1.747121
v 1.752880 0.250733 1.747121
v 1.247120 0.335026 1.747121
v 1.752880 0.335026 1.747121
v 1.752880 0.335026 2.252879
v 1.752880 0.250733 2.252879
v 1.247120 0.250733 2.252879
v 1.247120 0.335026 2.252879
v 1.921465 0.250733 1.578534
v 1.921465 0.124293 1.578534
v 1.921465 0.250733 2.421466
v 1.921465 0.124293 2.421466
v 1.078535 0.124293 2.421466
v 1.078535 0.250733 2.421466
v 1.078535 0.124293 1.578534
v 1.078535 0.250733 1.578534
v 1.963612 0.040000 2.463612
v 1.963612 0.040000 1.536388
v 1.036388 0.040000 2.463612
v 1.036388 0.040000 1.536388
f 2 1 3
f 3 4 2
f 3 5 4
f 5 6 4
f 1 2 7
f 1 7 8
f 7 6 8
f 1 8 9
f 9 10 1
f 6 11 8
f 6 5 11
f 5 12 11
f 14 13 15
f 15 16 14
f 15 17 16
f 17 18 16
f 5 3 16
f 16 18 5
f 17 11 12
f 12 18 17
f 12 5 18
f 8 11 17
f 17 15 8
f 9 8 15
f 15 13 9
f 9 13 14
f 14 10 9
f 14 1 10
f 3 1 14
f 14 16 3
f 20 19 6
f 6 7 20
f 20 7 2
f 2 21 20
f 22 21 2
f 2 4 22
f 6 19 22
f 22 4 6
f 24 23 25
f 25 26 24
f 24 26 27
f 27 28 24
f 25 23 29
f 29 30 25
f 20 27 26
f 26 25 20
f 25 19 20
f 25 22 19
f 27 20 21
f 21 30 27
f 21 22 30
f 22 25 30
f 32 31 33
f 33 34 32
f 35 34 33
f 33 36 35
f 32 37 38
f 38 31 32
f 38 37 35
f 35 36 38
f 24 33 31
f 31 38 24
f 38 23 24
f 38 29 23
f 33 24 28
f 28 36 33
f 28 29 36
f 29 38 36
f 40 39 41
f 41 42 40
f 41 39 34
f 34 35 41
f 37 42 41
f 41 35 37
f 40 42 37
f 37 32 40
f 39 40 32
f 32 34 39
f 29 28 27
f 27 30 29
