# City room prop — voxel footprint 2x1x1 (0.5 m cells)
o televisionAntenna
v 0.852591 0.040000 0.414894
v 0.895679 0.103830 0.439770
v 0.852591 0.040000 0.585106
v 0.895679 0.103830 0.560230
v 0.437175 0.413337 0.560230
v 0.938766 0.167660 0.535353
v 0.480263 0.477167 0.535353
v 1.562825 0.413337 0.560230
v 1.562825 0.413337 0.439770
v 1.104321 0.103830 0.560230
v 1.104321 0.103830 0.439770
v 1.061234 0.167660 0.464647
v 1.519737 0.477167 0.464647
v 1.519737 0.477167 0.535353
v 1.061234 0.167660 0.535353
v 0.437175 0.413337 0.439770
v 0.480263 0.477167 0.464647
v 0.938766 0.167660 0.464647
v 1.000000 0.040000 0.329787
v 1.147409 0.040000 0.414894
v 1.000000 0.167660 0.429294
v 1.000000 0.040000 0.670213
v 1.000000 0.167660 0.570706
v 1.147409 0.040000 0.585106
f 2 1 3
f 3 4 2
f 5 4 6
f 6 7 5
f 9 8 10
f 10 11 9
f 9 11 12
f 12 13 9
f 14 13 12
f 12 15 14
f 15 10 8
f 8 14 15
f 17 16 5
f 5 7 17
f 18 2 16
f 16 17 18
f 2 4 5
f 5 16 2
f 8 9 13
f 13 14 8
f 6 18 17
f 17 7 6
f 20 19 21
f 21 11 20
f 21 12 11
f 19 1 2
f 2 21 19
f 2 18 21
f 3 22 23
f 23 4 3
f 23 6 4
f 24 20 11
f 11 10 24
f 22 24 10
f 10 23 22
f 10 15 23
f 20 24 22
f 22 19 20
f 22 3 19
f 3 1 19
f 15 12 21
f 21 23 15
f 21 18 23
f 18 6 23
