# City room prop — voxel footprint 3x2x1 (0.5 m cells)
o televisionModern
v 1.646824 1.039793 0.517061
v 1.646824 1.039793 0.596120
v 1.353176 1.039793 0.517061
v 1.353176 1.039793 0.596120
v 2.945647 1.960000 0.387059
v 2.945647 0.333647 0.387059
v 2.945647 1.960000 0.517061
v 2.945647 0.333647 0.517061
v 0.754588 0.040000 0.228941
v 2.245412 0.040000 0.228941
v 0.822353 0.130353 0.296706
v 2.177647 0.130353 0.296706
v 2.245412 0.040000 0.771059
v 2.177647 0.130353 0.748471
v 2.910329 0.368965 0.387059
v 2.910329 0.368965 0.409647
v 0.089671 0.368965 0.387059
v 0.089671 0.368965 0.409647
v 0.754588 0.040000 0.771059
v 0.054353 0.333647 0.387059
v 0.054353 1.960000 0.387059
v 0.089671 1.924682 0.387059
v 2.910329 1.924682 0.387059
v 0.054353 0.333647 0.517061
v 1.646824 0.898353 0.517061
v 1.353176 0.898353 0.517061
v 0.054353 1.960000 0.517061
v 2.910329 1.924682 0.409647
v 1.646824 0.130353 0.675179
v 1.353176 0.130353 0.675179
v 1.646824 0.960734 0.675179
v 1.353176 0.960734 0.675179
v 1.646824 0.130353 0.562238
v 1.353176 0.130353 0.562238
v 0.822353 0.130353 0.748471
v 1.646824 0.898353 0.562238
v 1.353176 0.898353 0.562238
v 0.089671 1.924682 0.409647
f 2 1 3
f 3 4 2
f 6 5 7
f 7 8 6
f 10 9 11
f 11 12 10
f 13 10 12
f 12 14 13
f 16 15 17
f 17 18 16
f 10 13 19
f 19 9 10
f 17 6 20
f 20 21 17
f 21 22 17
f 21 23 22
f 6 17 15
f 15 5 6
f 15 23 5
f 23 21 5
f 25 24 8
f 8 7 25
f 7 1 25
f 7 3 1
f 24 25 26
f 26 27 24
f 26 3 27
f 3 7 27
f 21 20 24
f 24 27 21
f 23 15 16
f 16 28 23
f 30 29 31
f 31 32 30
f 33 14 12
f 12 11 33
f 11 34 33
f 11 30 34
f 14 33 29
f 29 35 14
f 29 30 35
f 30 11 35
f 25 36 37
f 37 26 25
f 11 9 19
f 19 35 11
f 6 8 24
f 24 20 6
f 25 1 2
f 2 36 25
f 2 33 36
f 2 29 33
f 2 31 29
f 23 28 38
f 38 22 23
f 19 13 14
f 14 35 19
f 7 5 21
f 21 27 7
f 17 22 38
f 38 18 17
f 33 34 37
f 37 36 33
f 37 34 30
f 30 4 37
f 30 32 4
f 37 4 3
f 3 26 37
f 32 31 2
f 2 4 32
f 16 18 38
f 38 28 16
