# City room prop — voxel footprint 2x2x2 (0.5 m cells)
o televisionVintage
v 0.243040 0.155381 0.468085
v 0.471963 0.155381 0.468085
v 0.243040 0.692761 0.468085
v 0.471963 0.692761 0.468085
v 0.854351 0.182926 0.510638
v 1.605332 0.182926 0.510638
v 0.838688 0.183953 0.510638
v 1.620996 0.183953 0.510638
v 0.823293 0.187015 0.510638
v 1.636391 0.187015 0.510638
v 0.808429 0.192061 0.510638
v 1.651254 0.192061 0.510638
v 0.794351 0.199003 0.510638
v 1.665332 0.199003 0.510638
v 0.781300 0.207724 0.510638
v 1.678384 0.207724 0.510638
v 0.769498 0.218073 0.510638
v 1.690185 0.218073 0.510638
v 0.759149 0.229875 0.510638
v 1.700535 0.229875 0.510638
v 0.750428 0.242926 0.510638
v 1.709255 0.242926 0.510638
v 0.743486 0.257004 0.510638
v 1.716198 0.257004 0.510638
v 0.738440 0.271868 0.510638
v 1.721244 0.271868 0.510638
v 0.735378 0.287263 0.510638
v 1.724306 0.287263 0.510638
v 0.734351 0.302926 0.510638
v 1.725332 0.302926 0.510638
v 0.734351 0.926010 0.510638
v 1.725332 0.926010 0.510638
v 0.735378 0.941673 0.510638
v 1.724306 0.941673 0.510638
v 0.738440 0.957068 0.510638
v 1.721244 0.957068 0.510638
v 0.743486 0.971932 0.510638
v 1.716198 0.971932 0.510638
v 0.750428 0.986010 0.510638
v 1.709255 0.986010 0.510638
v 0.759149 0.999061 0.510638
v 1.700535 0.999061 0.510638
v 0.769498 1.010863 0.510638
v 1.690185 1.010863 0.510638
v 0.781300 1.021212 0.510638
v 1.678384 1.021212 0.510638
v 0.794351 1.029933 0.510638
v 1.665332 1.029933 0.510638
v 0.808429 1.036876 0.510638
v 1.651254 1.036876 0.510638
v 0.823293 1.041921 0.510638
v 1.636391 1.041921 0.510638
v 0.838688 1.044983 0.510638
v 1.620996 1.044983 0.510638
v 0.854351 1.046010 0.510638
v 1.605332 1.046010 0.510638
v 1.872340 0.040000 1.276596
v 1.872340 0.040000 0.425532
v 0.127660 0.040000 1.276596
v 0.587343 0.040000 0.468085
v 0.127660 0.040000 0.468085
v 0.587343 0.040000 0.425532
v 1.872340 1.188936 0.425532
v 1.872340 1.188936 1.276596
v 0.587343 1.188936 0.425532
v 0.127660 1.188936 1.276596
v 0.127660 1.188936 0.425532
v 0.127660 0.808143 0.468085
v 0.127660 1.021691 0.468085
v 0.127660 1.021691 0.425532
v 0.813721 0.156473 0.425532
v 0.797343 0.159731 0.425532
v 0.781531 0.165098 0.425532
v 0.766554 0.172484 0.425532
v 0.752669 0.181761 0.425532
v 0.740115 0.192772 0.425532
v 0.729105 0.205326 0.425532
v 0.719828 0.219211 0.425532
v 0.712442 0.234187 0.425532
v 0.707074 0.250000 0.425532
v 0.587343 0.808143 0.425532
v 0.830384 0.155381 0.425532
v 0.703816 0.266378 0.425532
v 0.702724 0.283041 0.425532
v 0.702724 0.945896 0.425532
v 0.587343 1.021691 0.425532
v 0.703816 0.962559 0.425532
v 0.707074 0.978937 0.425532
v 0.712442 0.994749 0.425532
v 0.719828 1.009726 0.425532
v 0.729105 1.023610 0.425532
v 0.740115 1.036165 0.425532
v 0.752669 1.047175 0.425532
v 0.766554 1.056452 0.425532
v 0.781531 1.063837 0.425532
v 0.797343 1.069205 0.425532
v 0.813721 1.072463 0.425532
v 0.830384 1.073555 0.425532
v 1.629300 1.073555 0.425532
v 1.645963 1.072463 0.425532
v 1.662341 1.069205 0.425532
v 1.678153 1.063837 0.425532
v 1.693130 1.056452 0.425532
v 1.707014 1.047175 0.425532
v 1.719569 1.036165 0.425532
v 1.730579 1.023610 0.425532
v 1.739856 1.009726 0.425532
v 1.747242 0.994749 0.425532
v 1.752610 0.978937 0.425532
v 1.755867 0.962559 0.425532
v 1.756959 0.945896 0.425532
v 1.756959 0.283041 0.425532
v 1.755867 0.266378 0.425532
v 1.752610 0.250000 0.425532
v 1.747242 0.234187 0.425532
v 1.739856 0.219211 0.425532
v 1.730579 0.205326 0.425532
v 1.719569 0.192772 0.425532
v 1.707014 0.181761 0.425532
v 1.693130 0.172484 0.425532
v 1.678153 0.165098 0.425532
v 1.662341 0.159731 0.425532
v 1.645963 0.156473 0.425532
v 1.629300 0.155381 0.425532
v 0.587343 0.808143 0.468085
v 0.587343 1.021691 0.468085
v 1.632410 0.202024 1.276596
v 1.632410 1.026912 1.276596
v 0.367590 1.026912 1.276596
v 0.367590 0.202024 1.276596
v 0.449803 0.202024 1.489362
v 1.209523 0.500145 1.489362
v 1.550197 0.202024 1.489362
v 1.550197 1.026912 1.489362
v 1.209523 1.026912 1.489362
v 0.790477 0.500145 1.489362
v 0.449803 1.026912 1.489362
v 0.790477 1.026912 1.489362
v 1.209523 1.026912 1.574468
v 0.790477 1.026912 1.574468
v 1.209523 0.500145 1.574468
v 0.790477 0.500145 1.574468
f 2 1 3
f 3 4 2
f 6 5 7
f 7 8 6
f 7 9 8
f 9 10 8
f 9 11 10
f 11 12 10
f 11 13 12
f 13 14 12
f 13 15 14
f 15 16 14
f 15 17 16
f 17 18 16
f 17 19 18
f 19 20 18
f 19 21 20
f 21 22 20
f 21 23 22
f 23 24 22
f 23 25 24
f 25 26 24
f 25 27 26
f 27 28 26
f 27 29 28
f 29 30 28
f 29 31 30
f 31 32 30
f 31 33 32
f 33 34 32
f 33 35 34
f 35 36 34
f 35 37 36
f 37 38 36
f 37 39 38
f 39 40 38
f 39 41 40
f 41 42 40
f 41 43 42
f 43 44 42
f 43 45 44
f 45 46 44
f 45 47 46
f 47 48 46
f 47 49 48
f 49 50 48
f 49 51 50
f 51 52 50
f 51 53 52
f 53 54 52
f 53 55 54
f 55 56 54
f 58 57 59
f 59 60 58
f 59 61 60
f 58 60 62
f 64 63 65
f 65 66 64
f 65 67 66
f 58 63 64
f 64 57 58
f 68 61 59
f 59 69 68
f 69 59 66
f 69 66 67
f 67 70 69
f 71 58 62
f 62 72 71
f 62 73 72
f 62 74 73
f 62 75 74
f 62 76 75
f 62 77 76
f 62 78 77
f 62 79 78
f 62 80 79
f 62 81 80
f 71 82 58
f 81 83 80
f 81 84 83
f 81 85 84
f 81 86 85
f 86 87 85
f 86 88 87
f 86 89 88
f 86 90 89
f 86 91 90
f 86 65 91
f 65 92 91
f 65 93 92
f 65 94 93
f 65 95 94
f 65 96 95
f 65 97 96
f 65 98 97
f 65 99 98
f 99 65 63
f 100 99 63
f 101 100 63
f 102 101 63
f 103 102 63
f 104 103 63
f 105 104 63
f 106 105 63
f 107 106 63
f 108 107 63
f 109 108 63
f 110 109 63
f 111 110 63
f 112 111 63
f 113 112 63
f 113 63 58
f 58 114 113
f 58 115 114
f 58 116 115
f 58 117 116
f 58 118 117
f 58 119 118
f 58 120 119
f 58 121 120
f 58 122 121
f 58 123 122
f 58 124 123
f 58 82 124
f 125 68 69
f 69 126 125
f 86 81 125
f 125 126 86
f 86 126 69
f 69 70 86
f 1 60 61
f 61 68 1
f 68 3 1
f 68 4 3
f 60 1 2
f 2 125 60
f 2 4 125
f 4 68 125
f 81 62 60
f 60 125 81
f 86 70 67
f 67 65 86
f 94 47 45
f 45 93 94
f 100 101 52
f 52 54 100
f 101 102 50
f 50 52 101
f 103 104 46
f 46 48 103
f 96 51 49
f 49 95 96
f 98 55 53
f 53 97 98
f 98 99 56
f 56 55 98
f 102 103 48
f 48 50 102
f 90 91 41
f 41 39 90
f 89 90 39
f 39 37 89
f 91 92 43
f 43 41 91
f 93 45 43
f 43 92 93
f 95 49 47
f 47 94 95
f 97 53 51
f 51 96 97
f 99 100 54
f 54 56 99
f 104 105 44
f 44 46 104
f 107 108 38
f 38 40 107
f 106 107 40
f 40 42 106
f 114 115 24
f 24 26 114
f 105 106 42
f 42 44 105
f 110 111 32
f 32 34 110
f 113 114 26
f 26 28 113
f 109 110 34
f 34 36 109
f 111 112 30
f 30 32 111
f 112 113 28
f 28 30 112
f 108 109 36
f 36 38 108
f 115 116 22
f 22 24 115
f 18 118 119
f 119 16 18
f 12 121 122
f 122 10 12
f 116 117 20
f 20 22 116
f 16 119 120
f 120 14 16
f 117 118 18
f 18 20 117
f 14 120 121
f 121 12 14
f 10 122 123
f 123 8 10
f 8 123 124
f 124 6 8
f 6 124 82
f 82 5 6
f 7 5 82
f 82 71 7
f 13 11 73
f 73 74 13
f 76 77 19
f 19 17 76
f 78 79 23
f 23 21 78
f 79 80 25
f 25 23 79
f 85 87 33
f 33 31 85
f 17 15 75
f 75 76 17
f 83 84 29
f 29 27 83
f 15 13 74
f 74 75 15
f 88 89 37
f 37 35 88
f 80 83 27
f 27 25 80
f 77 78 21
f 21 19 77
f 84 85 31
f 31 29 84
f 11 9 72
f 72 73 11
f 87 88 35
f 35 33 87
f 9 7 71
f 71 72 9
f 127 59 57
f 57 64 127
f 64 128 127
f 64 129 128
f 59 127 130
f 130 66 59
f 130 129 66
f 129 64 66
f 132 131 133
f 133 134 132
f 134 135 132
f 131 132 136
f 136 137 131
f 136 138 137
f 134 128 129
f 129 135 134
f 129 139 135
f 129 138 139
f 129 137 138
f 139 138 140
f 130 127 133
f 133 131 130
f 127 128 134
f 134 133 127
f 129 130 131
f 131 137 129
f 142 141 139
f 139 140 142
f 132 135 139
f 139 141 132
f 138 136 142
f 142 140 138
f 132 141 142
f 142 136 132
