# City room prop — unit cell 0..1
o toilet
v 0.373545 0.117371 0.747275
v 0.589729 0.117371 0.697473
v 0.626455 0.117371 0.747275
v 0.731588 0.117371 0.407365
v 0.679458 0.117371 0.407365
v 0.626455 0.117371 0.067454
v 0.589729 0.117371 0.117256
v 0.410271 0.117371 0.117256
v 0.410271 0.117371 0.697473
v 0.268412 0.117371 0.407365
v 0.320542 0.117371 0.407365
v 0.373545 0.117371 0.067454
v 0.598793 0.327906 0.087952
v 0.697585 0.327906 0.407365
v 0.647375 0.395278 0.050000
v 0.336856 0.193164 0.407365
v 0.418428 0.193164 0.143629
v 0.336856 0.260535 0.407365
v 0.418428 0.260535 0.143629
v 0.598793 0.327906 0.726777
v 0.794749 0.395278 0.407365
v 0.205251 0.395278 0.407365
v 0.401208 0.327906 0.087952
v 0.352625 0.395278 0.050000
v 0.647375 0.395278 0.764729
v 0.630532 0.412120 0.933157
v 0.630532 0.412120 0.764729
v 0.369468 0.412120 0.933157
v 0.369468 0.412120 0.764729
v 0.581572 0.193164 0.143629
v 0.769485 0.816348 0.933157
v 0.727378 0.479492 0.933157
v 0.647375 0.816348 0.933157
v 0.630532 0.479492 0.933157
v 0.352625 0.816348 0.933157
v 0.369468 0.479492 0.933157
v 0.272622 0.479492 0.933157
v 0.230515 0.816348 0.933157
v 0.369468 0.479492 0.764729
v 0.352625 0.479492 0.764729
v 0.352625 0.395278 0.764729
v 0.630532 0.479492 0.764729
v 0.647375 0.479492 0.764729
v 0.630532 0.479492 0.806836
v 0.731588 0.050000 0.407365
v 0.626455 0.050000 0.747275
v 0.373545 0.050000 0.747275
v 0.268412 0.050000 0.407365
v 0.626455 0.050000 0.067454
v 0.373545 0.050000 0.067454
v 0.581572 0.260535 0.143629
v 0.663144 0.193164 0.407365
v 0.663144 0.260535 0.407365
v 0.581572 0.193164 0.671100
v 0.581572 0.260535 0.671100
v 0.401207 0.327906 0.726777
v 0.302415 0.327906 0.407365
v 0.418428 0.260535 0.671099
v 0.418428 0.193164 0.671099
v 0.369468 0.479492 0.806836
v 0.272622 0.479492 0.806836
v 0.727378 0.479492 0.806836
v 0.794749 0.479492 0.407365
v 0.381295 0.479492 0.721893
v 0.205251 0.479492 0.407365
v 0.618705 0.479492 0.721893
v 0.748414 0.479492 0.407365
v 0.647375 0.479492 0.050000
v 0.618705 0.479492 0.092836
v 0.381295 0.479492 0.092836
v 0.352625 0.479492 0.050000
v 0.251586 0.479492 0.407365
v 0.551043 0.252557 0.542612
v 0.448957 0.252557 0.542612
v 0.606818 0.252557 0.407365
v 0.393182 0.252557 0.407365
v 0.213672 0.816348 0.950000
v 0.213672 0.816348 0.789993
v 0.213672 0.900562 0.950000
v 0.213672 0.900562 0.789993
v 0.786328 0.900562 0.950000
v 0.786328 0.816348 0.950000
v 0.647375 0.900562 0.950000
v 0.647375 0.816348 0.950000
v 0.352625 0.900562 0.950000
v 0.352625 0.816348 0.950000
v 0.786328 0.816348 0.789993
v 0.786328 0.900562 0.789993
v 0.769485 0.816348 0.806836
v 0.230515 0.816348 0.806836
v 0.695524 0.761159 0.806836
v 0.661838 0.761159 0.806836
v 0.661838 0.794844 0.806836
v 0.695524 0.794844 0.806836
v 0.551043 0.252557 0.272117
v 0.448957 0.252557 0.272117
v 0.746052 0.794844 0.798415
v 0.746052 0.778002 0.798415
v 0.695524 0.794844 0.798415
v 0.695524 0.769580 0.798415
v 0.746052 0.778002 0.773150
v 0.746052 0.794844 0.773150
v 0.695524 0.769580 0.773150
v 0.661838 0.794844 0.773150
v 0.695524 0.761159 0.773150
v 0.661838 0.761159 0.773150
v 0.381295 0.479492 0.721893
v 0.251586 0.479492 0.407365
v 0.748414 0.479492 0.407365
v 0.381295 0.479492 0.092836
v 0.610395 0.517214 0.699876
v 0.389605 0.517214 0.699876
v 0.731025 0.517214 0.407365
v 0.268975 0.517214 0.407365
v 0.610395 0.517214 0.114853
v 0.389605 0.517214 0.114853
f 2 1 3
f 3 4 2
f 4 5 2
f 4 6 5
f 6 7 5
f 6 8 7
f 1 2 9
f 9 10 1
f 9 11 10
f 11 8 10
f 8 12 10
f 8 6 12
f 14 13 15
f 17 16 18
f 18 19 17
f 21 20 14
f 23 22 24
f 21 14 15
f 20 21 25
f 27 26 28
f 28 29 27
f 30 7 8
f 8 17 30
f 32 31 33
f 33 34 32
f 33 35 34
f 35 36 34
f 35 37 36
f 35 38 37
f 26 34 36
f 36 28 26
f 29 39 40
f 29 40 41
f 27 29 41
f 39 29 27
f 27 41 25
f 42 27 25
f 27 42 39
f 25 43 42
f 26 27 42
f 42 34 26
f 42 44 34
f 46 45 4
f 4 3 46
f 46 3 1
f 1 47 46
f 8 11 16
f 16 17 8
f 46 47 48
f 48 45 46
f 48 49 45
f 48 50 49
f 50 48 10
f 10 12 50
f 6 49 50
f 50 12 6
f 51 30 17
f 17 19 51
f 52 30 51
f 51 53 52
f 54 52 53
f 53 55 54
f 57 56 41
f 54 55 58
f 58 59 54
f 5 7 30
f 30 52 5
f 9 2 54
f 54 59 9
f 2 5 52
f 52 54 2
f 48 47 1
f 1 10 48
f 29 28 36
f 36 39 29
f 36 60 39
f 16 59 58
f 58 18 16
f 57 41 22
f 11 9 59
f 59 16 11
f 44 34 36
f 36 60 44
f 60 36 37
f 37 61 60
f 32 34 44
f 44 62 32
f 57 22 23
f 45 49 6
f 6 4 45
f 25 21 63
f 63 43 25
f 39 42 43
f 39 43 64
f 39 64 65
f 65 40 39
f 43 66 64
f 66 43 63
f 63 67 66
f 63 68 67
f 68 69 67
f 68 70 69
f 68 71 70
f 70 71 65
f 64 72 65
f 72 70 65
f 42 39 60
f 60 44 42
f 24 22 65
f 65 71 24
f 21 15 68
f 68 63 21
f 74 73 75
f 75 76 74
f 55 53 14
f 14 20 55
f 20 25 41
f 41 56 20
f 24 15 13
f 13 23 24
f 53 51 13
f 13 14 53
f 55 20 56
f 56 58 55
f 18 58 56
f 56 57 18
f 78 77 79
f 79 80 78
f 82 81 83
f 83 84 82
f 83 85 84
f 85 86 84
f 85 79 86
f 79 77 86
f 88 87 78
f 78 80 88
f 32 62 89
f 89 31 32
f 68 15 24
f 24 71 68
f 61 37 38
f 38 90 61
f 22 41 40
f 40 65 22
f 19 18 57
f 57 23 19
f 91 62 44
f 44 92 91
f 44 93 92
f 62 91 94
f 89 62 94
f 94 90 89
f 94 93 90
f 93 44 90
f 44 60 90
f 60 61 90
f 79 85 83
f 83 81 79
f 81 88 79
f 88 80 79
f 23 13 51
f 51 19 23
f 82 87 88
f 88 81 82
f 35 33 77
f 77 38 35
f 77 78 38
f 78 90 38
f 78 89 90
f 78 87 89
f 77 33 31
f 31 89 87
f 77 31 82
f 31 87 82
f 77 82 84
f 84 86 77
f 95 69 70
f 70 96 95
f 75 73 66
f 66 67 75
f 74 76 72
f 72 64 74
f 64 66 73
f 73 74 64
f 95 75 67
f 67 69 95
f 76 96 70
f 70 72 76
f 98 97 99
f 99 100 98
f 98 101 102
f 102 97 98
f 98 100 103
f 103 101 98
f 104 93 94
f 94 99 104
f 99 97 104
f 97 102 104
f 103 105 106
f 103 106 104
f 103 104 102
f 102 101 103
f 91 105 103
f 103 100 91
f 100 94 91
f 100 99 94
f 91 92 106
f 106 105 91
f 106 92 93
f 93 104 106
f 76 75 95
f 95 96 76
f 66 107 108
f 108 109 66
f 108 110 109
f 110 69 109
f 112 111 113
f 113 114 112
f 113 115 114
f 115 116 114
f 66 109 113
f 109 69 115
f 115 69 110
f 115 113 109
f 113 111 66
f 107 66 111
f 111 112 107
f 108 107 112
f 110 108 114
f 110 116 115
f 114 116 110
f 112 114 108
