# City room prop — voxel footprint 1x2x1 (0.5 m cells)
o trashcan
v 0.295965 0.040000 0.874719
v 0.091930 0.040000 0.521320
v 0.295965 1.380191 0.874719
v 0.091930 1.486792 0.521320
v 0.295965 1.486792 0.874719
v 0.295965 0.040000 0.167922
v 0.295965 0.167922 0.167922
v 0.295965 1.486792 0.167922
v 0.704035 1.486792 0.167922
v 0.704035 0.167922 0.167922
v 0.908070 0.040000 0.521320
v 0.908070 1.486792 0.521320
v 0.704035 0.040000 0.167922
v 0.704035 0.040000 0.874719
v 0.704035 1.380191 0.874719
v 0.704035 1.486792 0.874719
v 0.317285 0.040000 0.040000
v 0.682715 0.040000 0.040000
v 0.295965 1.593393 0.874719
v 0.704035 1.593393 0.874719
v 0.908070 1.593393 0.521320
v 0.704035 1.593393 0.167922
v 0.295965 1.593393 0.167922
v 0.091930 1.593393 0.521320
v 0.638744 1.721315 0.281009
v 0.777487 1.721315 0.521320
v 0.361256 1.721315 0.281009
v 0.222513 1.721315 0.521320
v 0.638744 1.721315 0.761631
v 0.361256 1.721315 0.761631
v 0.317285 0.146601 0.040000
v 0.682715 0.146601 0.040000
v 0.324530 1.387653 0.960000
v 0.324530 1.479330 0.960000
v 0.675470 1.387653 0.960000
v 0.675470 1.479330 0.960000
f 2 1 3
f 3 4 2
f 3 5 4
f 6 2 4
f 4 7 6
f 4 8 7
f 7 8 9
f 9 10 7
f 12 11 13
f 13 10 12
f 10 9 12
f 14 11 12
f 12 15 14
f 12 16 15
f 6 17 18
f 18 13 6
f 13 2 6
f 13 11 2
f 11 14 2
f 14 1 2
f 3 1 14
f 14 15 3
f 19 5 16
f 16 20 19
f 16 12 21
f 21 20 16
f 12 9 22
f 22 21 12
f 8 23 22
f 22 9 8
f 8 4 24
f 24 23 8
f 4 5 19
f 19 24 4
f 26 25 27
f 27 28 26
f 28 29 26
f 28 30 29
f 22 23 27
f 27 25 22
f 27 23 24
f 24 28 27
f 30 28 24
f 24 19 30
f 30 19 20
f 20 29 30
f 21 26 29
f 29 20 21
f 21 22 25
f 25 26 21
f 17 6 7
f 7 31 17
f 13 18 32
f 32 10 13
f 32 31 7
f 7 10 32
f 17 31 32
f 32 18 17
f 34 33 35
f 35 36 34
f 5 3 33
f 33 34 5
f 3 15 35
f 35 33 3
f 35 15 16
f 16 36 35
f 36 16 5
f 5 34 36
