# City room prop — voxel footprint 2x5x2 (0.5 m cells)
o tree_small
v 1.150251 0.040000 1.150251
v 0.849749 0.040000 1.150251
v 1.095410 1.100515 1.095410
v 0.904590 1.100515 1.095410
v 1.150251 0.040000 0.849749
v 0.849749 0.040000 0.849749
v 1.095410 1.100515 0.904590
v 0.904590 1.100515 0.904590
v 1.658090 2.392340 0.620052
v 1.658090 1.320552 0.620052
v 1.658090 2.392340 1.379948
v 1.658090 1.320552 1.379948
v 1.000000 4.159725 1.000000
v 1.381692 3.804832 1.220370
v 1.000000 3.804832 1.440740
v 1.000000 2.392340 1.759897
v 0.341910 2.392340 1.379948
v 0.618308 3.804832 1.220370
v 1.368530 1.100515 1.212771
v 1.368530 1.100515 0.787229
v 1.000000 1.100515 1.425542
v 0.631470 1.100515 1.212771
v 1.000000 1.100515 0.574458
v 0.631470 1.100515 0.787229
v 1.000000 3.804832 0.559260
v 1.381692 3.804832 0.779630
v 0.618308 3.804832 0.779630
v 1.000000 1.320552 0.240103
v 0.341910 1.320552 0.620052
v 1.000000 1.320552 1.759897
v 1.000000 2.392340 0.240103
v 0.341910 2.392340 0.620052
v 0.341910 1.320552 1.379948
f 3 2 1
f 2 3 4
f 2 5 1
f 5 2 6
f 7 1 5
f 1 7 3
f 8 5 6
f 5 8 7
f 2 8 6
f 8 2 4
f 11 10 9
f 10 11 12
f 15 14 13
f 15 17 16
f 17 15 18
f 18 15 13
f 21 20 19
f 20 21 3
f 3 21 4
f 4 21 22
f 4 22 8
f 7 20 3
f 20 7 23
f 23 7 8
f 23 8 24
f 24 8 22
f 13 26 25
f 18 13 27
f 24 28 23
f 28 24 29
f 27 13 25
f 26 11 9
f 11 26 14
f 13 14 26
f 11 30 12
f 30 11 16
f 25 9 31
f 9 25 26
f 33 32 29
f 32 33 17
f 19 10 12
f 10 19 20
f 16 33 30
f 33 16 17
f 33 24 22
f 24 33 29
f 17 27 32
f 27 17 18
f 14 16 11
f 16 14 15
f 30 19 12
f 19 30 21
f 31 10 28
f 10 31 9
f 27 31 32
f 31 27 25
f 20 28 10
f 28 20 23
f 33 21 30
f 21 33 22
f 32 28 29
f 28 32 31
