# City room prop — voxel footprint 2x6x2 (0.5 m cells)
o tree_cone
v 1.272039 0.040000 1.272039
v 0.727961 0.040000 1.272039
v 1.176825 0.372660 1.176825
v 0.823175 0.372660 1.176825
v 0.727961 0.040000 0.727961
v 0.823175 0.372660 0.823175
v 1.272039 0.040000 0.727961
v 1.176825 0.372660 0.823175
v 0.655955 0.688910 0.972479
v 0.660064 0.782314 0.972479
v 0.655955 0.688910 1.047275
v 0.660064 0.782314 1.047275
v 0.842105 0.802985 0.949558
v 0.842105 0.802985 1.070196
v 0.835478 0.652333 1.070196
v 0.835478 0.652333 0.949558
v 0.895231 2.010623 0.895231
v 0.895231 2.010623 1.104769
v 0.935054 1.453933 1.129259
v 0.959182 1.439107 1.341232
v 0.935054 1.333412 1.134560
v 0.959182 1.366794 1.344413
v 1.055692 1.453933 1.129259
v 1.055692 1.333412 1.134560
v 1.031564 1.439107 1.341232
v 1.031564 1.366794 1.344413
v 1.104769 2.010623 1.104769
v 1.104769 2.010623 0.895231
v 1.249068 5.050703 0.750932
v 1.111191 5.224875 0.888809
v 1.000000 5.050703 0.647764
v 1.000000 5.224875 0.842752
v 1.000000 2.564804 1.960000
v 0.321177 2.564804 1.678823
v 1.000000 4.211515 1.698880
v 0.505817 4.211515 1.494183
v 1.678823 2.564804 0.321177
v 1.960000 2.564804 1.000000
v 1.494183 4.211515 0.505817
v 1.698880 4.211515 1.000000
v 0.321177 2.564804 0.321177
v 0.040000 2.564804 1.000000
v 0.473781 2.010623 0.473781
v 0.255814 2.010623 1.000000
v 1.000000 5.050703 1.352236
v 0.750932 5.050703 1.249068
v 1.000000 4.211515 0.301120
v 1.494183 4.211515 1.494183
v 1.249068 5.050703 1.249068
v 0.473781 2.010623 1.526219
v 1.000000 2.564804 0.040000
v 1.000000 2.010623 1.744186
v 1.111191 5.224875 1.111191
v 1.000000 5.224875 1.157248
v 1.000000 2.010623 0.255814
v 1.526219 2.010623 0.473781
v 1.744186 2.010623 1.000000
v 1.678823 2.564804 1.678823
v 1.526219 2.010623 1.526219
v 0.301120 4.211515 1.000000
v 0.505817 4.211515 0.505817
v 0.750932 5.050703 0.750932
v 0.888809 5.224875 0.888809
v 1.352236 5.050703 1.000000
v 0.842752 5.224875 1.000000
v 0.647764 5.050703 1.000000
v 0.888809 5.224875 1.111191
v 1.157248 5.224875 1.000000
f 3 2 1
f 2 3 4
f 2 6 5
f 6 2 4
f 6 7 5
f 7 6 8
f 8 1 7
f 1 8 3
f 11 10 9
f 10 11 12
f 10 14 13
f 14 10 12
f 14 11 15
f 11 14 12
f 2 7 1
f 7 2 5
f 9 13 16
f 13 9 10
f 11 16 15
f 16 11 9
f 6 16 17
f 16 6 4
f 16 4 15
f 15 4 14
f 14 4 18
f 17 13 18
f 13 17 16
f 18 13 14
f 21 20 19
f 20 21 22
f 25 24 23
f 24 25 26
f 3 24 4
f 24 3 27
f 24 27 23
f 23 27 19
f 21 4 24
f 4 21 18
f 18 21 19
f 18 19 27
f 26 21 24
f 21 26 22
f 17 8 6
f 8 17 28
f 28 3 8
f 3 28 27
f 25 22 26
f 22 25 20
f 19 25 23
f 25 19 20
f 31 30 29
f 30 31 32
f 35 34 33
f 34 35 36
f 39 38 37
f 38 39 40
f 43 42 41
f 42 43 44
f 45 36 35
f 36 45 46
f 31 39 47
f 39 31 29
f 49 35 48
f 35 49 45
f 44 34 42
f 34 44 50
f 47 37 51
f 37 47 39
f 33 50 52
f 50 33 34
f 53 45 49
f 45 53 54
f 51 56 55
f 56 51 37
f 41 55 43
f 55 41 51
f 58 57 38
f 57 58 59
f 58 52 59
f 52 58 33
f 38 56 37
f 56 38 57
f 42 36 60
f 36 42 34
f 59 56 57
f 56 59 52
f 56 52 27
f 27 52 18
f 18 52 50
f 18 50 17
f 28 56 27
f 56 28 55
f 55 28 17
f 55 17 43
f 43 17 50
f 43 50 44
f 62 47 61
f 47 62 31
f 42 61 41
f 61 42 60
f 62 32 31
f 32 62 63
f 49 40 64
f 40 49 48
f 62 65 63
f 65 62 66
f 65 46 67
f 46 65 66
f 61 51 41
f 51 61 47
f 48 33 58
f 33 48 35
f 68 49 64
f 49 68 53
f 67 45 54
f 45 67 46
f 60 62 61
f 62 60 66
f 29 68 64
f 68 29 30
f 29 40 39
f 40 29 64
f 30 53 68
f 53 30 32
f 53 32 54
f 54 32 63
f 54 63 67
f 67 63 65
f 48 38 40
f 38 48 58
f 60 46 66
f 46 60 36
