# City room prop — voxel footprint 1x2x1 (0.5 m cells)
o urnRound
v 0.847931 0.040000 0.500000
v 0.746025 0.040000 0.253975
v 0.746025 0.040000 0.746025
v 0.500000 0.040000 0.847931
v 0.500000 0.040000 0.152069
v 0.253975 0.040000 0.746025
v 0.253975 0.040000 0.253975
v 0.152069 0.040000 0.500000
v 0.760948 0.300948 0.500000
v 0.684518 0.300948 0.684518
v 0.684518 0.300948 0.315482
v 0.500000 0.300948 0.239052
v 0.500000 0.300948 0.760948
v 0.315482 0.300948 0.315482
v 0.315482 0.300948 0.684518
v 0.239052 0.300948 0.500000
v 0.847931 0.213966 0.500000
v 0.746025 0.213966 0.253975
v 0.152069 0.213966 0.500000
v 0.253975 0.213966 0.746025
v 0.500000 0.213966 0.152069
v 0.253975 0.213966 0.253975
v 0.500000 0.213966 0.847931
v 0.746025 0.213966 0.746025
v 0.673966 0.300948 0.500000
v 0.623012 0.300948 0.376988
v 0.623012 0.300948 0.623012
v 0.500000 0.300948 0.673966
v 0.500000 0.300948 0.326034
v 0.376988 0.300948 0.623012
v 0.376988 0.300948 0.376988
v 0.326034 0.300948 0.500000
v 0.703540 0.474914 0.500000
v 0.643924 0.474914 0.643924
v 0.643924 0.474914 0.356076
v 0.500000 0.474914 0.296460
v 0.500000 0.474914 0.703540
v 0.356076 0.474914 0.356076
v 0.356076 0.474914 0.643924
v 0.296460 0.474914 0.500000
v 0.500000 0.474914 0.767907
v 0.310561 0.474914 0.689439
v 0.500000 0.648880 0.847931
v 0.253975 0.648880 0.746025
v 0.746025 0.648880 0.253975
v 0.689439 0.474914 0.310561
v 0.847931 0.648880 0.500000
v 0.767907 0.474914 0.500000
v 0.253975 0.648880 0.253975
v 0.152069 0.648880 0.500000
v 0.310561 0.474914 0.310561
v 0.232093 0.474914 0.500000
v 0.500000 0.474914 0.232093
v 0.500000 0.648880 0.152069
v 0.689439 0.474914 0.689439
v 0.746025 0.648880 0.746025
v 0.787849 0.996811 0.212151
v 0.907080 0.996811 0.500000
v 0.500000 0.996811 0.907080
v 0.212151 0.996811 0.787849
v 0.212151 0.996811 0.212151
v 0.500000 0.996811 0.092920
v 0.787849 0.996811 0.787849
v 0.092920 0.996811 0.500000
v 0.500000 0.996811 0.812930
v 0.721275 0.996811 0.721275
v 0.278725 0.996811 0.721275
v 0.812930 0.996811 0.500000
v 0.721275 0.996811 0.278725
v 0.500000 0.996811 0.187070
v 0.187070 0.996811 0.500000
v 0.278725 0.996811 0.278725
v 0.762861 0.648880 0.500000
v 0.685871 0.648880 0.685871
v 0.685871 0.648880 0.314129
v 0.500000 0.648880 0.762861
v 0.500000 0.648880 0.237139
v 0.314129 0.648880 0.314129
v 0.314129 0.648880 0.685871
v 0.237139 0.648880 0.500000
v 0.602640 1.376056 0.500000
v 0.572577 1.376056 0.572577
v 0.572577 1.376056 0.427423
v 0.500000 1.376056 0.397360
v 0.500000 1.376056 0.602640
v 0.427423 1.376056 0.427423
v 0.427423 1.376056 0.572577
v 0.397360 1.376056 0.500000
v 0.653960 1.273417 0.500000
v 0.602640 1.170777 0.500000
v 0.608866 1.273417 0.608866
v 0.572577 1.170777 0.572577
v 0.427423 1.170777 0.427423
v 0.500000 1.170777 0.397360
v 0.391134 1.273417 0.391134
v 0.500000 1.273417 0.346040
v 0.346040 1.273417 0.500000
v 0.391134 1.273417 0.608866
v 0.397360 1.170777 0.500000
v 0.427423 1.170777 0.572577
v 0.572577 1.170777 0.427423
v 0.608866 1.273417 0.391134
v 0.500000 1.170777 0.602640
v 0.500000 1.273417 0.653960
v 0.825269 0.996811 0.825269
v 0.500000 0.996811 0.960000
v 0.825269 1.083794 0.825269
v 0.500000 1.083794 0.960000
v 0.960000 1.083794 0.500000
v 0.960000 0.996811 0.500000
v 0.174731 0.996811 0.174731
v 0.500000 0.996811 0.040000
v 0.174731 1.083794 0.174731
v 0.500000 1.083794 0.040000
v 0.825269 1.083794 0.174731
v 0.825269 0.996811 0.174731
v 0.174731 0.996811 0.825269
v 0.174731 1.083794 0.825269
v 0.040000 0.996811 0.500000
v 0.040000 1.083794 0.500000
v 0.865850 1.170777 0.500000
v 0.758695 1.170777 0.758695
v 0.241305 1.170777 0.241305
v 0.134150 1.170777 0.500000
v 0.500000 1.170777 0.134150
v 0.758695 1.170777 0.241305
v 0.241305 1.170777 0.758695
v 0.500000 1.170777 0.865850
f 3 2 1
f 2 3 4
f 2 4 5
f 5 4 6
f 5 6 7
f 7 6 8
f 11 10 9
f 10 11 12
f 10 12 13
f 13 12 14
f 13 14 15
f 15 14 16
f 18 9 17
f 9 18 11
f 20 16 19
f 16 20 15
f 21 11 18
f 11 21 12
f 22 16 14
f 16 22 19
f 13 20 23
f 20 13 15
f 9 24 17
f 24 9 10
f 10 23 24
f 23 10 13
f 22 12 21
f 12 22 14
f 6 19 8
f 19 6 20
f 24 4 3
f 4 24 23
f 24 1 17
f 1 24 3
f 21 2 5
f 2 21 18
f 8 22 7
f 22 8 19
f 17 2 18
f 2 17 1
f 23 6 4
f 6 23 20
f 22 5 7
f 5 22 21
f 27 26 25
f 26 27 28
f 26 28 29
f 29 28 30
f 29 30 31
f 31 30 32
f 35 34 33
f 34 35 36
f 34 36 37
f 37 36 38
f 37 38 39
f 39 38 40
f 33 27 25
f 27 33 34
f 38 29 31
f 29 38 36
f 30 40 32
f 40 30 39
f 33 26 35
f 26 33 25
f 31 40 38
f 40 31 32
f 36 26 29
f 26 36 35
f 34 28 27
f 28 34 37
f 37 30 28
f 30 37 39
f 43 42 41
f 42 43 44
f 47 46 45
f 46 47 48
f 51 50 49
f 50 51 52
f 49 53 51
f 53 49 54
f 54 46 53
f 46 54 45
f 42 50 52
f 50 42 44
f 55 46 48
f 46 55 41
f 46 41 53
f 53 41 42
f 53 42 51
f 51 42 52
f 47 55 48
f 55 47 56
f 56 41 55
f 41 56 43
f 58 45 57
f 45 58 47
f 59 44 43
f 44 59 60
f 61 54 49
f 54 61 62
f 62 45 54
f 45 62 57
f 63 47 58
f 47 63 56
f 49 64 61
f 64 49 50
f 63 43 56
f 43 63 59
f 44 64 50
f 64 44 60
f 59 66 65
f 59 65 67
f 63 66 59
f 59 67 60
f 63 68 66
f 68 63 58
f 57 68 58
f 68 57 69
f 69 57 62
f 69 62 70
f 60 67 71
f 60 71 64
f 70 62 61
f 71 61 64
f 70 61 72
f 72 61 71
f 75 74 73
f 74 75 76
f 76 75 77
f 76 77 78
f 76 78 79
f 79 78 80
f 67 76 79
f 76 67 65
f 70 78 77
f 78 70 72
f 75 68 69
f 68 75 73
f 74 68 73
f 68 74 66
f 69 77 75
f 77 69 70
f 71 78 72
f 78 71 80
f 65 74 76
f 74 65 66
f 67 80 71
f 80 67 79
f 3 2 1
f 2 3 4
f 2 4 5
f 5 4 6
f 5 6 7
f 7 6 8
f 11 10 9
f 10 11 12
f 10 12 13
f 13 12 14
f 13 14 15
f 15 14 16
f 18 9 17
f 9 18 11
f 20 16 19
f 16 20 15
f 21 11 18
f 11 21 12
f 22 16 14
f 16 22 19
f 13 20 23
f 20 13 15
f 9 24 17
f 24 9 10
f 10 23 24
f 23 10 13
f 22 12 21
f 12 22 14
f 6 19 8
f 19 6 20
f 24 4 3
f 4 24 23
f 24 1 17
f 1 24 3
f 21 2 5
f 2 21 18
f 8 22 7
f 22 8 19
f 17 2 18
f 2 17 1
f 23 6 4
f 6 23 20
f 22 5 7
f 5 22 21
f 27 26 25
f 26 27 28
f 26 28 29
f 29 28 30
f 29 30 31
f 31 30 32
f 35 34 33
f 34 35 36
f 34 36 37
f 37 36 38
f 37 38 39
f 39 38 40
f 33 27 25
f 27 33 34
f 38 29 31
f 29 38 36
f 30 40 32
f 40 30 39
f 33 26 35
f 26 33 25
f 31 40 38
f 40 31 32
f 36 26 29
f 26 36 35
f 34 28 27
f 28 34 37
f 37 30 28
f 30 37 39
f 43 42 41
f 42 43 44
f 47 46 45
f 46 47 48
f 51 50 49
f 50 51 52
f 49 53 51
f 53 49 54
f 54 46 53
f 46 54 45
f 42 50 52
f 50 42 44
f 55 46 48
f 46 55 41
f 46 41 53
f 53 41 42
f 53 42 51
f 51 42 52
f 47 55 48
f 55 47 56
f 56 41 55
f 41 56 43
f 58 45 57
f 45 58 47
f 59 44 43
f 44 59 60
f 61 54 49
f 54 61 62
f 62 45 54
f 45 62 57
f 63 47 58
f 47 63 56
f 49 64 61
f 64 49 50
f 63 43 56
f 43 63 59
f 44 64 50
f 64 44 60
f 59 66 65
f 59 65 67
f 63 66 59
f 59 67 60
f 63 68 66
f 68 63 58
f 57 68 58
f 68 57 69
f 69 57 62
f 69 62 70
f 60 67 71
f 60 71 64
f 70 62 61
f 71 61 64
f 70 61 72
f 72 61 71
f 75 74 73
f 74 75 76
f 76 75 77
f 76 77 78
f 76 78 79
f 79 78 80
f 67 76 79
f 76 67 65
f 70 78 77
f 78 70 72
f 75 68 69
f 68 75 73
f 74 68 73
f 68 74 66
f 69 77 75
f 77 69 70
f 71 78 72
f 78 71 80
f 65 74 76
f 74 65 66
f 67 80 71
f 80 67 79
f 83 82 81
f 82 83 84
f 82 84 85
f 85 84 86
f 85 86 87
f 87 86 88
f 91 90 89
f 90 91 92
f 95 94 93
f 94 95 96
f 99 98 97
f 98 99 100
f 96 101 94
f 101 96 102
f 91 103 92
f 103 91 104
f 89 101 102
f 101 89 90
f 104 100 103
f 100 104 98
f 93 97 95
f 97 93 99
f 98 88 97
f 88 98 87
f 97 86 95
f 86 97 88
f 84 102 96
f 102 84 83
f 83 89 102
f 89 83 81
f 82 104 91
f 104 82 85
f 86 96 95
f 96 86 84
f 81 91 89
f 91 81 82
f 85 98 104
f 98 85 87
f 107 106 105
f 106 107 108
f 107 110 109
f 110 107 105
f 113 112 111
f 112 113 114
f 109 116 115
f 116 109 110
f 108 117 106
f 117 108 118
f 117 120 119
f 120 117 118
f 114 116 112
f 116 114 115
f 119 113 111
f 113 119 120
f 121 107 109
f 107 121 122
f 113 124 123
f 124 113 120
f 113 125 114
f 125 113 123
f 114 126 115
f 126 114 125
f 115 121 109
f 121 115 126
f 124 118 127
f 118 124 120
f 122 108 107
f 108 122 128
f 126 122 121
f 122 126 128
f 128 126 125
f 128 125 123
f 128 123 127
f 127 123 124
f 127 108 128
f 108 127 118
f 105 116 110
f 116 105 106
f 116 106 112
f 112 106 117
f 112 117 111
f 111 117 119
