# City room prop — voxel footprint 1x2x1 (0.5 m cells)
o urnSquare
v 0.847931 0.040000 0.500000
v 0.806998 0.040000 0.193002
v 0.806998 0.040000 0.806998
v 0.500000 0.040000 0.847931
v 0.500000 0.040000 0.152069
v 0.193002 0.040000 0.806998
v 0.193002 0.040000 0.193002
v 0.152069 0.040000 0.500000
v 0.152069 0.213966 0.500000
v 0.193002 0.213966 0.806998
v 0.193002 0.213966 0.193002
v 0.500000 0.213966 0.152069
v 0.806998 0.213966 0.193002
v 0.847931 0.213966 0.500000
v 0.806998 0.213966 0.806998
v 0.500000 0.213966 0.847931
v 0.760948 0.300948 0.500000
v 0.730249 0.300948 0.730249
v 0.730249 0.300948 0.269751
v 0.500000 0.300948 0.239052
v 0.500000 0.300948 0.760948
v 0.269751 0.300948 0.269751
v 0.269751 0.300948 0.730249
v 0.239052 0.300948 0.500000
v 0.703540 0.474914 0.500000
v 0.673966 0.300948 0.500000
v 0.679594 0.474914 0.679594
v 0.653499 0.300948 0.653499
v 0.346501 0.300948 0.346501
v 0.500000 0.300948 0.326034
v 0.320406 0.474914 0.320406
v 0.500000 0.474914 0.296460
v 0.500000 0.300948 0.673966
v 0.500000 0.474914 0.703540
v 0.296460 0.474914 0.500000
v 0.326034 0.300948 0.500000
v 0.653499 0.300948 0.346501
v 0.679594 0.474914 0.320406
v 0.320406 0.474914 0.679594
v 0.346501 0.300948 0.653499
v 0.767907 0.474914 0.500000
v 0.736389 0.474914 0.263611
v 0.736389 0.474914 0.736389
v 0.500000 0.474914 0.767907
v 0.500000 0.474914 0.232093
v 0.263611 0.474914 0.736389
v 0.263611 0.474914 0.263611
v 0.232093 0.474914 0.500000
v 0.152069 0.648880 0.500000
v 0.193002 0.648880 0.806998
v 0.193002 0.648880 0.193002
v 0.806998 0.648880 0.806998
v 0.500000 0.648880 0.847931
v 0.847931 0.648880 0.500000
v 0.500000 0.648880 0.152069
v 0.806998 0.648880 0.193002
v 0.907080 0.996811 0.500000
v 0.859188 0.996811 0.859188
v 0.859188 0.996811 0.140812
v 0.819327 0.996811 0.500000
v 0.781759 0.996811 0.218241
v 0.781759 0.996811 0.781759
v 0.500000 0.996811 0.092920
v 0.500000 0.996811 0.180673
v 0.500000 0.996811 0.907080
v 0.500000 0.996811 0.819327
v 0.218241 0.996811 0.781759
v 0.140812 0.996811 0.140812
v 0.140812 0.996811 0.859188
v 0.218241 0.996811 0.218241
v 0.180673 0.996811 0.500000
v 0.092920 0.996811 0.500000
v 0.765041 0.648880 0.500000
v 0.733860 0.648880 0.733860
v 0.733860 0.648880 0.266140
v 0.500000 0.648880 0.765041
v 0.500000 0.648880 0.234959
v 0.266140 0.648880 0.733860
v 0.266140 0.648880 0.266140
v 0.234959 0.648880 0.500000
v 0.602640 1.376056 0.500000
v 0.572577 1.376056 0.572577
v 0.572577 1.376056 0.427423
v 0.500000 1.376056 0.397360
v 0.500000 1.376056 0.602640
v 0.427423 1.376056 0.427423
v 0.427423 1.376056 0.572577
v 0.397360 1.376056 0.500000
v 0.653960 1.273417 0.500000
v 0.602640 1.170777 0.500000
v 0.608866 1.273417 0.608866
v 0.572577 1.170777 0.572577
v 0.427423 1.170777 0.427423
v 0.500000 1.170777 0.397360
v 0.391134 1.273417 0.391134
v 0.500000 1.273417 0.346040
v 0.346040 1.273417 0.500000
v 0.391134 1.273417 0.608866
v 0.397360 1.170777 0.500000
v 0.427423 1.170777 0.572577
v 0.572577 1.170777 0.427423
v 0.608866 1.273417 0.391134
v 0.500000 1.170777 0.602640
v 0.500000 1.273417 0.653960
v 0.905882 0.996811 0.905882
v 0.500000 0.996811 0.960000
v 0.905882 1.083794 0.905882
v 0.500000 1.083794 0.960000
v 0.960000 1.083794 0.500000
v 0.865850 1.170777 0.500000
v 0.822809 1.170777 0.822809
v 0.177191 1.170777 0.822809
v 0.094118 1.083794 0.905882
v 0.134150 1.170777 0.500000
v 0.040000 1.083794 0.500000
v 0.177191 1.170777 0.177191
v 0.094118 1.083794 0.094118
v 0.094118 0.996811 0.094118
v 0.500000 0.996811 0.040000
v 0.500000 1.083794 0.040000
v 0.960000 0.996811 0.500000
v 0.905882 0.996811 0.094118
v 0.094118 0.996811 0.905882
v 0.040000 0.996811 0.500000
v 0.822809 1.170777 0.177191
v 0.500000 1.170777 0.134150
v 0.500000 1.170777 0.865850
v 0.905882 1.083794 0.094118
f 3 2 1
f 2 3 4
f 2 4 5
f 5 4 6
f 5 6 7
f 7 6 8
f 6 9 8
f 9 6 10
f 8 11 7
f 11 8 9
f 11 5 7
f 5 11 12
f 12 2 5
f 2 12 13
f 14 2 13
f 2 14 1
f 15 1 14
f 1 15 3
f 15 4 3
f 4 15 16
f 16 6 4
f 6 16 10
f 19 18 17
f 18 19 20
f 18 20 21
f 21 20 22
f 21 22 23
f 23 22 24
f 9 23 24
f 23 9 10
f 9 22 11
f 22 9 24
f 21 10 16
f 10 21 23
f 22 12 11
f 12 22 20
f 18 14 17
f 14 18 15
f 18 16 15
f 16 18 21
f 19 14 13
f 14 19 17
f 20 13 12
f 13 20 19
f 27 26 25
f 26 27 28
f 31 30 29
f 30 31 32
f 27 33 28
f 33 27 34
f 29 35 31
f 35 29 36
f 32 37 30
f 37 32 38
f 25 37 38
f 37 25 26
f 36 39 35
f 39 36 40
f 34 40 33
f 40 34 39
f 43 42 41
f 42 43 44
f 42 44 45
f 45 44 46
f 45 46 47
f 47 46 48
f 46 49 48
f 49 46 50
f 47 49 51
f 49 47 48
f 52 44 43
f 44 52 53
f 54 43 41
f 43 54 52
f 51 45 47
f 45 51 55
f 54 42 56
f 42 54 41
f 53 46 44
f 46 53 50
f 55 42 45
f 42 55 56
f 59 58 57
f 58 59 60
f 60 59 61
f 62 58 60
f 61 59 63
f 61 63 64
f 58 62 65
f 65 62 66
f 65 66 67
f 64 63 68
f 65 67 69
f 64 68 70
f 69 67 71
f 70 68 71
f 69 71 68
f 69 68 72
f 49 69 72
f 69 49 50
f 57 56 59
f 56 57 54
f 65 50 53
f 50 65 69
f 58 53 52
f 53 58 65
f 63 56 55
f 56 63 59
f 58 54 57
f 54 58 52
f 68 55 51
f 55 68 63
f 51 72 68
f 72 51 49
f 75 74 73
f 74 75 76
f 76 75 77
f 76 77 78
f 78 77 79
f 78 79 80
f 74 60 73
f 60 74 62
f 71 79 70
f 79 71 80
f 64 79 77
f 79 64 70
f 61 77 75
f 77 61 64
f 67 76 78
f 76 67 66
f 75 60 61
f 60 75 73
f 66 74 76
f 74 66 62
f 71 78 80
f 78 71 67
f 3 2 1
f 2 3 4
f 2 4 5
f 5 4 6
f 5 6 7
f 7 6 8
f 6 9 8
f 9 6 10
f 8 11 7
f 11 8 9
f 11 5 7
f 5 11 12
f 12 2 5
f 2 12 13
f 14 2 13
f 2 14 1
f 15 1 14
f 1 15 3
f 15 4 3
f 4 15 16
f 16 6 4
f 6 16 10
f 19 18 17
f 18 19 20
f 18 20 21
f 21 20 22
f 21 22 23
f 23 22 24
f 9 23 24
f 23 9 10
f 9 22 11
f 22 9 24
f 21 10 16
f 10 21 23
f 22 12 11
f 12 22 20
f 18 14 17
f 14 18 15
f 18 16 15
f 16 18 21
f 19 14 13
f 14 19 17
f 20 13 12
f 13 20 19
f 27 26 25
f 26 27 28
f 31 30 29
f 30 31 32
f 27 33 28
f 33 27 34
f 29 35 31
f 35 29 36
f 32 37 30
f 37 32 38
f 25 37 38
f 37 25 26
f 36 39 35
f 39 36 40
f 34 40 33
f 40 34 39
f 43 42 41
f 42 43 44
f 42 44 45
f 45 44 46
f 45 46 47
f 47 46 48
f 46 49 48
f 49 46 50
f 47 49 51
f 49 47 48
f 52 44 43
f 44 52 53
f 54 43 41
f 43 54 52
f 51 45 47
f 45 51 55
f 54 42 56
f 42 54 41
f 53 46 44
f 46 53 50
f 55 42 45
f 42 55 56
f 59 58 57
f 58 59 60
f 60 59 61
f 62 58 60
f 61 59 63
f 61 63 64
f 58 62 65
f 65 62 66
f 65 66 67
f 64 63 68
f 65 67 69
f 64 68 70
f 69 67 71
f 70 68 71
f 69 71 68
f 69 68 72
f 49 69 72
f 69 49 50
f 57 56 59
f 56 57 54
f 65 50 53
f 50 65 69
f 58 53 52
f 53 58 65
f 63 56 55
f 56 63 59
f 58 54 57
f 54 58 52
f 68 55 51
f 55 68 63
f 51 72 68
f 72 51 49
f 75 74 73
f 74 75 76
f 76 75 77
f 76 77 78
f 78 77 79
f 78 79 80
f 74 60 73
f 60 74 62
f 71 79 70
f 79 71 80
f 64 79 77
f 79 64 70
f 61 77 75
f 77 61 64
f 67 76 78
f 76 67 66
f 75 60 61
f 60 75 73
f 66 74 76
f 74 66 62
f 71 78 80
f 78 71 67
f 83 82 81
f 82 83 84
f 82 84 85
f 85 84 86
f 85 86 87
f 87 86 88
f 91 90 89
f 90 91 92
f 95 94 93
f 94 95 96
f 99 98 97
f 98 99 100
f 96 101 94
f 101 96 102
f 91 103 92
f 103 91 104
f 89 101 102
f 101 89 90
f 104 100 103
f 100 104 98
f 93 97 95
f 97 93 99
f 98 88 97
f 88 98 87
f 97 86 95
f 86 97 88
f 84 102 96
f 102 84 83
f 83 89 102
f 89 83 81
f 82 104 91
f 104 82 85
f 86 96 95
f 96 86 84
f 81 91 89
f 91 81 82
f 85 98 104
f 98 85 87
f 107 106 105
f 106 107 108
f 110 107 109
f 107 110 111
f 114 113 112
f 113 114 115
f 117 114 116
f 114 117 115
f 117 119 118
f 119 117 120
f 105 122 121
f 122 105 106
f 122 106 119
f 119 106 123
f 119 123 118
f 118 123 124
f 125 111 110
f 111 125 126
f 111 126 127
f 127 126 116
f 127 116 112
f 112 116 114
f 124 117 118
f 117 124 115
f 117 126 120
f 126 117 116
f 111 108 107
f 108 111 127
f 120 122 119
f 122 120 128
f 109 122 128
f 122 109 121
f 127 113 108
f 113 127 112
f 120 125 128
f 125 120 126
f 128 110 109
f 110 128 125
f 123 115 124
f 115 123 113
f 107 121 109
f 121 107 105
f 108 123 106
f 123 108 113
