# City room prop — voxel footprint 2x2x2 (0.5 m cells)
o washer
v 0.203404 0.040000 1.796596
v 1.578007 0.258589 1.796596
v 1.796596 0.040000 1.796596
v 1.796596 1.960000 1.796596
v 1.578007 1.741411 1.796596
v 0.421993 1.741411 1.796596
v 0.421993 0.258589 1.796596
v 0.203404 1.960000 1.796596
v 1.417946 0.544695 0.366809
v 1.137450 0.449346 0.366809
v 1.417946 0.381291 0.366809
v 1.000000 0.431250 0.366809
v 1.265532 0.502399 0.366809
v 1.375519 0.586795 0.366809
v 1.703903 0.544695 0.366809
v 1.796596 0.295535 0.366809
v 0.862550 0.449346 0.366809
v 0.203404 0.295535 0.366809
v 0.734468 0.502399 0.366809
v 0.624481 0.586795 0.366809
v 0.540085 0.696782 0.366809
v 0.487032 0.824865 0.366809
v 0.203404 1.629093 0.366809
v 0.468936 0.962314 0.366809
v 0.487032 1.099764 0.366809
v 0.540085 1.227846 0.366809
v 0.624481 1.337833 0.366809
v 0.734468 1.422229 0.366809
v 0.862550 1.475283 0.366809
v 1.000000 1.493378 0.366809
v 1.796596 1.629093 0.366809
v 1.703903 0.381291 0.366809
v 1.512968 0.824865 0.366809
v 1.459915 0.696782 0.366809
v 1.531064 0.962314 0.366809
v 1.512968 1.099764 0.366809
v 1.459915 1.227846 0.366809
v 1.375519 1.337833 0.366809
v 1.265532 1.422229 0.366809
v 1.137450 1.475283 0.366809
v 0.203404 0.040000 0.448511
v 1.796596 0.040000 0.448511
v 0.203404 0.295535 0.448511
v 1.796596 0.295535 0.448511
v 1.417946 0.381291 0.407660
v 1.703903 0.381291 0.407660
v 1.417946 0.544695 0.407660
v 1.703903 0.544695 0.407660
v 1.497086 0.362387 1.714894
v 0.502914 0.362387 1.714894
v 1.497086 1.637613 1.714894
v 0.502914 1.637613 1.714894
v 1.796596 1.960000 0.540470
v 0.203404 1.960000 0.540470
v 1.796596 1.960000 0.445223
v 0.203404 1.960000 0.445223
v 0.272583 1.696407 0.382760
v 0.272583 1.892686 0.429272
v 0.778589 1.892686 0.429272
v 0.847767 1.892686 0.429272
v 1.727418 1.892686 0.429272
v 1.727418 1.696407 0.382760
v 0.778589 1.696407 0.382760
v 0.847767 1.696407 0.382760
v 1.000000 0.431250 1.469787
v 1.137450 0.449346 1.469787
v 0.862550 0.449346 1.469787
v 1.265532 0.502399 1.469787
v 0.734468 0.502399 1.469787
v 1.375519 0.586795 1.469787
v 0.624481 0.586795 1.469787
v 1.459915 0.696782 1.469787
v 0.540085 0.696782 1.469787
v 1.512968 0.824865 1.469787
v 0.487032 0.824865 1.469787
v 1.531064 0.962314 1.469787
v 0.468936 0.962314 1.469787
v 0.487032 1.099764 1.469787
v 1.512968 1.099764 1.469787
v 1.459915 1.227846 1.469787
v 0.540085 1.227846 1.469787
v 1.375519 1.337833 1.469787
v 0.624481 1.337833 1.469787
v 1.265532 1.422229 1.469787
v 0.734468 1.422229 1.469787
v 0.862550 1.475283 1.469787
v 1.137450 1.475283 1.469787
v 1.000000 1.493378 1.469787
v 1.090041 1.298353 0.448511
v 1.000000 1.310207 0.448511
v 1.090041 1.298353 0.244255
v 1.000000 1.310207 0.244255
v 1.173946 1.263598 0.448511
v 1.173946 1.263598 0.244255
v 0.663961 0.872273 0.203404
v 0.663961 1.052356 0.203404
v 0.582259 0.872273 0.244255
v 0.582259 1.052356 0.244255
v 0.909959 1.298353 0.448511
v 0.909959 1.298353 0.244255
v 0.698716 1.136260 0.448511
v 0.698716 1.136260 0.244255
v 0.754003 1.208311 0.448511
v 0.754003 1.208311 0.244255
v 0.826054 1.263598 0.448511
v 0.826054 1.263598 0.244255
v 0.734468 0.502399 0.325958
v 0.862550 0.449346 0.325958
v 0.766332 0.557589 0.244255
v 0.879044 0.510902 0.244255
v 1.265532 1.422229 0.325957
v 1.137450 1.475283 0.325957
v 1.233668 1.367039 0.244255
v 1.120956 1.413726 0.244255
v 0.734468 1.422229 0.325957
v 0.624481 1.337833 0.325957
v 0.766332 1.367039 0.244255
v 0.669543 1.292771 0.244255
v 0.548588 1.083270 0.244255
v 0.595275 1.195982 0.244255
v 0.487032 1.099764 0.325957
v 0.540085 1.227846 0.325957
v 1.000000 1.493378 0.325957
v 0.862550 1.475283 0.325957
v 1.000000 1.429650 0.244255
v 0.879044 1.413726 0.244255
v 1.000000 0.431250 0.325958
v 1.137450 0.449346 0.325958
v 1.000000 0.494978 0.244255
v 1.120956 0.510902 0.244255
v 1.451412 1.083270 0.244255
v 1.512968 1.099764 0.325957
v 1.404725 1.195982 0.244255
v 1.459915 1.227846 0.325957
v 0.624481 0.586795 0.325957
v 0.669543 0.631858 0.244255
v 0.540085 0.696782 0.325957
v 0.595275 0.728646 0.244255
v 0.815511 0.872273 0.244255
v 0.663961 0.872273 0.244255
v 0.815511 0.872273 0.203404
v 0.815511 1.052356 0.244255
v 0.815511 1.052356 0.203404
v 1.375519 0.586795 0.325957
v 1.459915 0.696782 0.325957
v 1.330457 0.631858 0.244255
v 1.404725 0.728646 0.244255
v 0.487032 0.824865 0.325957
v 0.548588 0.841359 0.244255
v 0.754003 0.716317 0.448511
v 0.826054 0.661030 0.448511
v 0.754003 0.716317 0.244255
v 0.826054 0.661030 0.244255
v 1.245997 1.208311 0.448511
v 1.245997 1.208311 0.244255
v 1.090041 0.626275 0.448511
v 1.173946 0.661030 0.448511
v 1.090041 0.626275 0.244255
v 1.173946 0.661030 0.244255
v 1.301284 0.788368 0.244255
v 1.301284 0.788368 0.448511
v 1.336039 0.872273 0.244255
v 1.336039 0.872273 0.448511
v 0.532664 0.962314 0.244255
v 0.468936 0.962314 0.325957
v 1.336039 1.052356 0.244255
v 1.336039 1.052356 0.448511
v 1.301284 1.136260 0.244255
v 1.301284 1.136260 0.448511
v 1.347893 0.962314 0.244255
v 1.347893 0.962314 0.448511
v 1.512968 0.824865 0.325957
v 1.451412 0.841359 0.244255
v 0.698716 0.788368 0.448511
v 0.698716 0.788368 0.244255
v 0.663961 0.872273 0.448511
v 1.245997 0.716317 0.244255
v 1.245997 0.716317 0.448511
v 1.467336 0.962314 0.244255
v 1.233668 0.557589 0.244255
v 1.000000 0.614422 0.244255
v 0.909959 0.626275 0.244255
v 0.663961 1.052356 0.244255
v 1.330457 1.292771 0.244255
v 1.531064 0.962314 0.325957
v 0.909959 0.626275 0.448511
v 1.000000 0.614422 0.448511
v 1.375519 1.337833 0.325957
v 1.265532 0.502399 0.325958
v 0.663961 1.052356 0.448511
v 1.531064 0.962314 0.448511
v 1.512968 0.824865 0.448511
v 1.512968 1.099764 0.448511
v 1.459915 1.227846 0.448511
v 1.459915 0.696782 0.448511
v 1.375519 1.337833 0.448511
v 1.375519 0.586795 0.448511
v 1.265532 1.422229 0.448511
v 1.137450 1.475283 0.448511
v 1.000000 1.493378 0.448511
v 0.862550 1.475283 0.448511
v 0.734468 1.422229 0.448511
v 0.624481 1.337833 0.448511
v 0.624481 0.586795 0.448511
v 0.734468 0.502399 0.448511
v 0.862550 0.449346 0.448511
v 1.000000 0.431250 0.448511
v 1.137450 0.449346 0.448511
v 1.265532 0.502399 0.448511
v 0.540085 1.227846 0.448511
v 0.540085 0.696782 0.448511
v 0.487032 1.099764 0.448511
v 0.487032 0.824865 0.448511
v 0.468936 0.962314 0.448511
f 2 1 3
f 3 4 2
f 4 5 2
f 4 6 5
f 1 2 7
f 7 8 1
f 7 6 8
f 6 4 8
f 10 9 11
f 11 12 10
f 10 13 9
f 13 14 9
f 14 15 9
f 12 11 16
f 17 12 16
f 17 16 18
f 18 19 17
f 18 20 19
f 18 21 20
f 18 22 21
f 18 23 22
f 23 24 22
f 23 25 24
f 23 26 25
f 23 27 26
f 23 28 27
f 23 29 28
f 23 30 29
f 30 23 31
f 32 31 16
f 16 11 32
f 32 15 31
f 15 33 31
f 15 34 33
f 15 14 34
f 33 35 31
f 35 36 31
f 36 37 31
f 37 38 31
f 38 39 31
f 39 40 31
f 40 30 31
f 42 41 43
f 43 44 42
f 16 44 43
f 43 18 16
f 42 3 1
f 1 41 42
f 46 45 47
f 47 48 46
f 46 32 11
f 11 45 46
f 11 9 47
f 47 45 11
f 15 48 47
f 47 9 15
f 15 32 46
f 46 48 15
f 50 49 51
f 51 52 50
f 7 2 49
f 49 50 7
f 51 49 2
f 2 5 51
f 52 51 5
f 5 6 52
f 50 52 6
f 6 7 50
f 4 53 54
f 54 8 4
f 16 31 53
f 53 44 16
f 53 42 44
f 53 3 42
f 53 4 3
f 43 41 1
f 1 54 43
f 1 8 54
f 43 54 23
f 23 18 43
f 53 55 56
f 56 54 53
f 56 23 54
f 31 55 53
f 57 31 23
f 23 56 57
f 56 58 57
f 56 59 58
f 56 60 59
f 56 61 60
f 31 57 62
f 62 55 31
f 62 61 55
f 61 56 55
f 57 63 62
f 63 64 62
f 64 63 59
f 59 60 64
f 66 65 67
f 67 68 66
f 67 69 68
f 69 70 68
f 69 71 70
f 71 72 70
f 71 73 72
f 73 74 72
f 73 75 74
f 75 76 74
f 75 77 76
f 77 78 76
f 78 79 76
f 78 80 79
f 78 81 80
f 81 82 80
f 81 83 82
f 83 84 82
f 83 85 84
f 85 86 84
f 86 87 84
f 86 88 87
f 26 27 83
f 83 81 26
f 28 85 83
f 83 27 28
f 29 86 85
f 85 28 29
f 30 88 86
f 86 29 30
f 40 87 88
f 88 30 40
f 39 84 87
f 87 40 39
f 38 82 84
f 84 39 38
f 38 37 80
f 80 82 38
f 37 36 79
f 79 80 37
f 76 79 36
f 36 35 76
f 35 33 74
f 74 76 35
f 33 34 72
f 72 74 33
f 34 14 70
f 70 72 34
f 70 14 13
f 13 68 70
f 68 13 10
f 10 66 68
f 66 10 12
f 12 65 66
f 65 12 17
f 17 67 65
f 67 17 19
f 19 69 67
f 69 19 20
f 20 71 69
f 20 21 73
f 73 71 20
f 21 22 75
f 75 73 21
f 22 24 77
f 77 75 22
f 24 25 78
f 78 77 24
f 25 26 81
f 81 78 25
f 62 64 60
f 60 61 62
f 63 57 58
f 58 59 63
f 90 89 91
f 91 92 90
f 90 91 89
f 91 90 92
f 89 93 94
f 94 91 89
f 89 94 93
f 94 89 91
f 96 95 97
f 97 98 96
f 99 90 92
f 92 100 99
f 99 92 90
f 92 99 100
f 102 101 103
f 103 104 102
f 102 103 101
f 103 102 104
f 103 105 106
f 106 104 103
f 103 106 105
f 106 103 104
f 108 107 109
f 109 110 108
f 108 109 107
f 109 108 110
f 112 111 113
f 113 114 112
f 112 113 111
f 113 112 114
f 116 115 117
f 117 118 116
f 116 117 115
f 117 116 118
f 120 119 121
f 121 122 120
f 120 121 119
f 121 120 122
f 124 123 125
f 125 126 124
f 124 125 123
f 125 124 126
f 123 112 114
f 114 125 123
f 123 114 112
f 114 123 125
f 128 127 129
f 129 130 128
f 128 129 127
f 129 128 130
f 132 131 133
f 133 134 132
f 132 133 131
f 133 132 134
f 136 135 137
f 137 138 136
f 136 137 135
f 137 136 138
f 140 139 141
f 141 97 140
f 141 95 97
f 140 141 139
f 141 140 97
f 141 97 95
f 141 139 142
f 142 143 141
f 141 142 139
f 142 141 143
f 145 144 146
f 146 147 145
f 145 146 144
f 146 145 147
f 138 137 148
f 148 149 138
f 138 148 137
f 148 138 149
f 151 150 152
f 152 153 151
f 151 152 150
f 152 151 153
f 93 154 155
f 155 94 93
f 93 155 154
f 155 93 94
f 157 156 158
f 158 159 157
f 157 158 156
f 158 157 159
f 161 160 162
f 162 163 161
f 161 162 160
f 162 161 163
f 119 164 165
f 165 121 119
f 119 165 164
f 165 119 121
f 167 166 168
f 168 169 167
f 167 168 166
f 168 167 169
f 171 170 166
f 166 167 171
f 171 166 170
f 166 171 167
f 172 145 147
f 147 173 172
f 172 147 145
f 147 172 173
f 115 124 126
f 126 117 115
f 115 126 124
f 126 115 117
f 163 162 170
f 170 171 163
f 163 170 162
f 170 163 171
f 175 174 176
f 176 140 175
f 175 176 174
f 176 175 140
f 178 177 160
f 160 161 178
f 178 160 177
f 160 178 161
f 131 179 173
f 173 147 131
f 147 133 131
f 147 146 133
f 146 170 133
f 146 162 170
f 146 160 162
f 146 180 160
f 180 177 160
f 180 159 177
f 180 130 159
f 130 158 159
f 130 129 158
f 129 181 158
f 129 110 181
f 110 182 181
f 110 153 182
f 110 109 153
f 109 152 153
f 109 136 152
f 136 175 152
f 136 140 175
f 136 138 140
f 138 97 140
f 138 149 97
f 149 98 97
f 98 149 119
f 98 119 120
f 183 98 120
f 183 120 118
f 102 183 118
f 104 102 118
f 104 118 117
f 106 104 117
f 106 117 126
f 100 106 126
f 100 126 125
f 92 100 125
f 91 92 125
f 91 125 114
f 94 91 114
f 94 114 113
f 155 94 113
f 168 155 113
f 168 113 184
f 166 168 184
f 170 166 184
f 184 133 170
f 131 173 179
f 173 131 147
f 147 131 133
f 147 133 146
f 146 133 170
f 146 170 162
f 146 162 160
f 146 160 180
f 180 160 177
f 180 177 159
f 180 159 130
f 130 159 158
f 130 158 129
f 129 158 181
f 129 181 110
f 110 181 182
f 110 182 153
f 110 153 109
f 109 153 152
f 109 152 136
f 136 152 175
f 136 175 140
f 136 140 138
f 138 140 97
f 138 97 149
f 149 97 98
f 98 119 149
f 98 120 119
f 183 120 98
f 183 118 120
f 102 118 183
f 104 118 102
f 104 117 118
f 106 117 104
f 106 126 117
f 100 126 106
f 100 125 126
f 92 125 100
f 91 125 92
f 91 114 125
f 94 114 91
f 94 113 114
f 155 113 94
f 168 113 155
f 168 184 113
f 166 184 168
f 170 184 166
f 184 170 133
f 149 164 119
f 149 119 164
f 152 150 174
f 174 175 152
f 152 174 150
f 174 152 175
f 169 168 155
f 155 154 169
f 169 155 168
f 155 169 154
f 107 135 136
f 136 109 107
f 107 136 135
f 136 107 109
f 185 179 131
f 131 132 185
f 185 131 179
f 131 185 132
f 187 186 182
f 182 181 187
f 187 182 186
f 182 187 181
f 127 108 110
f 110 129 127
f 127 110 108
f 110 127 129
f 134 133 184
f 184 188 134
f 134 184 133
f 184 134 188
f 189 128 130
f 130 180 189
f 189 130 128
f 130 189 180
f 141 143 96
f 96 95 141
f 141 96 143
f 96 141 95
f 185 172 173
f 173 179 185
f 185 173 172
f 173 185 179
f 178 157 159
f 159 177 178
f 178 159 157
f 159 178 177
f 183 142 143
f 143 98 183
f 143 96 98
f 183 143 142
f 143 183 98
f 143 98 96
f 149 148 165
f 165 164 149
f 149 165 148
f 165 149 164
f 118 120 122
f 122 116 118
f 118 122 120
f 122 118 116
f 186 151 153
f 153 182 186
f 186 153 151
f 153 186 182
f 156 187 181
f 181 158 156
f 156 181 187
f 181 156 158
f 111 188 184
f 184 113 111
f 111 184 188
f 184 111 113
f 144 189 180
f 180 146 144
f 144 180 189
f 180 144 146
f 183 190 101
f 101 102 183
f 183 101 190
f 101 183 102
f 105 99 100
f 100 106 105
f 105 100 99
f 100 105 106
f 139 142 183
f 183 140 139
f 140 190 176
f 190 140 183
f 192 191 193
f 193 194 192
f 194 195 192
f 194 196 195
f 196 197 195
f 196 171 197
f 196 167 171
f 196 198 167
f 198 169 167
f 198 154 169
f 198 199 154
f 199 93 154
f 199 89 93
f 199 200 89
f 200 90 89
f 200 201 90
f 201 99 90
f 201 105 99
f 201 202 105
f 202 103 105
f 202 101 103
f 202 203 101
f 203 190 101
f 203 176 190
f 176 203 204
f 174 176 204
f 174 204 205
f 150 174 205
f 151 150 205
f 151 205 206
f 186 151 206
f 187 186 206
f 187 206 207
f 156 187 207
f 156 207 208
f 157 156 208
f 178 157 208
f 178 208 209
f 161 178 209
f 163 161 209
f 163 209 197
f 197 171 163
f 192 193 191
f 193 192 194
f 194 192 195
f 194 195 196
f 196 195 197
f 196 197 171
f 196 171 167
f 196 167 198
f 198 167 169
f 198 169 154
f 198 154 199
f 199 154 93
f 199 93 89
f 199 89 200
f 200 89 90
f 200 90 201
f 201 90 99
f 201 99 105
f 201 105 202
f 202 105 103
f 202 103 101
f 202 101 203
f 203 101 190
f 203 190 176
f 176 204 203
f 174 204 176
f 174 205 204
f 150 205 174
f 151 205 150
f 151 206 205
f 186 206 151
f 187 206 186
f 187 207 206
f 156 207 187
f 156 208 207
f 157 208 156
f 178 208 157
f 178 209 208
f 161 209 178
f 163 209 161
f 163 197 209
f 197 163 171
f 203 210 204
f 210 211 204
f 210 212 211
f 212 213 211
f 212 214 213
f 203 204 210
f 210 204 211
f 210 211 212
f 212 211 213
f 212 213 214
f 201 200 123
f 123 124 201
f 201 123 200
f 123 201 124
f 202 201 124
f 124 115 202
f 202 124 201
f 124 202 115
f 203 202 115
f 115 116 203
f 203 115 202
f 115 203 116
f 122 210 203
f 203 116 122
f 122 203 210
f 203 122 116
f 121 212 210
f 210 122 121
f 121 210 212
f 210 121 122
f 165 214 212
f 212 121 165
f 165 212 214
f 212 165 121
f 148 213 214
f 214 165 148
f 148 214 213
f 214 148 165
f 137 211 213
f 213 148 137
f 137 213 211
f 213 137 148
f 135 204 211
f 211 137 135
f 135 211 204
f 211 135 137
f 205 204 135
f 135 107 205
f 205 135 204
f 135 205 107
f 206 205 107
f 107 108 206
f 206 107 205
f 107 206 108
f 207 206 108
f 108 127 207
f 207 108 206
f 108 207 127
f 208 207 127
f 127 128 208
f 208 127 207
f 127 208 128
f 209 208 128
f 128 189 209
f 209 128 208
f 128 209 189
f 197 209 189
f 189 144 197
f 197 189 209
f 189 197 144
f 197 144 145
f 145 195 197
f 197 145 144
f 145 197 195
f 195 145 172
f 172 192 195
f 195 172 145
f 172 195 192
f 192 172 185
f 185 191 192
f 191 185 132
f 132 193 191
f 192 185 172
f 185 192 191
f 191 132 185
f 132 191 193
f 193 132 134
f 134 194 193
f 193 134 132
f 134 193 194
f 194 134 188
f 188 196 194
f 194 188 134
f 188 194 196
f 198 196 188
f 188 111 198
f 198 188 196
f 188 198 111
f 199 198 111
f 111 112 199
f 199 111 198
f 111 199 112
f 200 199 112
f 112 123 200
f 200 112 199
f 112 200 123
f 162 170 166
f 166 168 162
f 168 160 162
f 168 155 160
f 155 177 160
f 155 159 177
f 155 94 159
f 94 91 159
f 91 158 159
f 91 92 158
f 92 181 158
f 92 100 181
f 100 182 181
f 100 106 182
f 106 153 182
f 106 142 153
f 106 104 142
f 104 183 142
f 104 102 183
f 153 142 139
f 139 152 153
f 139 140 152
f 140 175 152
f 162 166 170
f 166 162 168
f 168 162 160
f 168 160 155
f 155 160 177
f 155 177 159
f 155 159 94
f 94 159 91
f 91 159 158
f 91 158 92
f 92 158 181
f 92 181 100
f 100 181 182
f 100 182 106
f 106 182 153
f 106 153 142
f 106 142 104
f 104 142 183
f 104 183 102
f 153 139 142
f 139 153 152
f 139 152 140
f 140 152 175
f 183 140 97
f 97 98 183
f 140 176 190
f 190 183 140
