# City room prop — voxel footprint 2x4x2 (0.5 m cells)
o washerDryerStacked
v 0.186809 1.662199 0.353617
v 0.186809 2.000000 0.433666
v 0.186809 2.000000 0.530896
v 1.813191 2.000000 0.433666
v 1.813191 1.662199 0.353617
v 1.813191 2.000000 0.530896
v 0.257428 1.730915 0.369901
v 0.257428 1.931284 0.417382
v 0.773977 1.931284 0.417382
v 0.844596 1.931284 0.417382
v 1.742572 1.931284 0.417382
v 1.742572 1.730915 0.369901
v 0.773977 1.730915 0.369901
v 0.844596 1.730915 0.369901
v 1.000000 0.439401 1.479574
v 1.140313 0.457874 1.479574
v 0.859687 0.457874 1.479574
v 1.271064 0.512033 1.479574
v 0.728936 0.512033 1.479574
v 1.383342 0.598187 1.479574
v 0.616658 0.598187 1.479574
v 1.469496 0.710465 1.479574
v 0.530504 0.710465 1.479574
v 1.523655 0.841216 1.479574
v 0.476345 0.841216 1.479574
v 1.542128 0.981529 1.479574
v 0.457872 0.981529 1.479574
v 0.476345 1.121842 1.479574
v 1.523655 1.121842 1.479574
v 1.469496 1.252593 1.479574
v 0.530504 1.252593 1.479574
v 1.383342 1.364871 1.479574
v 0.616658 1.364871 1.479574
v 1.271064 1.451025 1.479574
v 0.728936 1.451025 1.479574
v 0.859687 1.505184 1.479574
v 1.140313 1.505184 1.479574
v 1.000000 1.523657 1.479574
v 0.616658 1.364871 0.353617
v 0.530504 1.252593 0.353617
v 0.728936 1.451025 0.353617
v 0.859687 1.505184 0.353617
v 1.000000 1.523657 0.353617
v 1.140313 1.505184 0.353617
v 1.271064 1.451025 0.353617
v 1.383342 1.364871 0.353617
v 1.469496 1.252593 0.353617
v 1.523655 1.121842 0.353617
v 1.542128 0.981529 0.353617
v 1.523655 0.841216 0.353617
v 1.469496 0.710465 0.353617
v 1.383342 0.598187 0.353617
v 1.271064 0.512033 0.353617
v 1.140313 0.457874 0.353617
v 1.000000 0.439401 0.353617
v 0.859687 0.457874 0.353617
v 0.728936 0.512033 0.353617
v 0.616658 0.598187 0.353617
v 0.530504 0.710465 0.353617
v 0.476345 0.841216 0.353617
v 0.457872 0.981529 0.353617
v 0.476345 1.121842 0.353617
v 1.813191 3.960000 0.433666
v 1.813191 3.960000 0.530896
v 0.186809 3.960000 0.433666
v 0.186809 3.960000 0.530896
v 0.186809 3.622199 0.353617
v 0.616658 3.324871 0.353617
v 0.530504 3.212593 0.353617
v 0.616658 3.324871 1.479574
v 0.530504 3.212593 1.479574
v 0.859687 3.465184 1.479574
v 0.859687 3.465184 0.353617
v 0.728936 3.411025 1.479574
v 0.728936 3.411025 0.353617
v 1.000000 3.483657 1.479574
v 1.000000 3.483657 0.353617
v 1.140313 3.465184 1.479574
v 1.140313 3.465184 0.353617
v 1.271064 3.411025 1.479574
v 1.271064 3.411025 0.353617
v 1.469496 3.212593 0.353617
v 1.383342 3.324871 0.353617
v 1.469496 3.212593 1.479574
v 1.383342 3.324871 1.479574
v 1.542128 2.941529 0.353617
v 1.523655 3.081842 0.353617
v 1.542128 2.941529 1.479574
v 1.523655 3.081842 1.479574
v 1.000000 2.399401 1.479574
v 1.140313 2.417874 1.479574
v 0.859687 2.417874 1.479574
v 1.271064 2.472032 1.479574
v 0.728936 2.472032 1.479574
v 0.616658 2.558187 1.479574
v 1.383342 2.558187 1.479574
v 0.530504 2.670465 1.479574
v 1.469496 2.670465 1.479574
v 1.523655 2.801216 1.479574
v 0.476345 2.801216 1.479574
v 0.457872 2.941529 1.479574
v 0.476345 3.081842 1.479574
v 1.523655 2.801216 0.353617
v 1.469496 2.670465 0.353617
v 1.383342 2.558187 0.353617
v 1.813191 3.622199 0.353617
v 1.271064 2.472032 0.353617
v 1.140313 2.417874 0.353617
v 0.530504 2.670465 0.353617
v 0.616658 2.558187 0.353617
v 0.476345 2.801216 0.353617
v 0.476345 3.081842 0.353617
v 0.457872 2.941529 0.353617
v 0.859687 2.417874 0.353617
v 0.728936 2.472032 0.353617
v 1.000000 2.399401 0.353617
v 0.257428 3.690915 0.369901
v 0.257428 3.891284 0.417382
v 0.773977 3.891284 0.417382
v 1.536655 3.891284 0.417382
v 1.742572 3.891284 0.417382
v 1.742572 3.690915 0.369901
v 0.773977 3.690915 0.369901
v 1.536655 3.690915 0.369901
v 0.796583 3.698267 0.371643
v 0.816909 3.710381 0.374513
v 0.833913 3.726634 0.378365
v 0.846723 3.746193 0.383000
v 0.854682 3.768056 0.388181
v 0.857381 3.791100 0.393641
v 0.854682 3.814143 0.399102
v 0.846723 3.836006 0.404283
v 0.833913 3.855565 0.408918
v 0.816909 3.871818 0.412769
v 0.796583 3.883931 0.415640
v 1.426653 0.555209 0.353617
v 1.426653 0.388401 0.353617
v 1.718568 0.555209 0.353617
v 1.813191 0.300859 0.353617
v 0.186809 0.300859 0.353617
v 1.718568 0.388401 0.353617
v 0.186809 0.040000 0.437021
v 1.813191 0.040000 0.437021
v 0.186809 0.300859 0.437021
v 1.813191 0.300859 0.437021
v 1.813191 0.040000 1.813192
v 0.186809 0.040000 1.813192
v 1.426653 0.388401 0.395319
v 1.718568 0.388401 0.395319
v 1.426653 0.555209 0.395319
v 1.718568 0.555209 0.395319
v 1.507442 0.369103 1.729787
v 0.492559 0.369103 1.729787
v 1.507442 1.670897 1.729787
v 0.492559 1.670897 1.729787
v 1.590048 0.263143 1.813192
v 0.409952 0.263143 1.813192
v 1.590048 1.776857 1.813192
v 0.409952 1.776857 1.813192
v 1.813191 2.302561 0.353617
v 0.186809 2.302561 0.353617
v 0.186809 2.079909 0.437021
v 1.813191 2.079909 0.437021
v 0.186809 2.260859 0.437021
v 1.813191 2.260859 0.437021
v 1.813191 2.260859 0.395319
v 0.186809 2.260859 0.395319
v 1.813191 3.960000 1.813192
v 1.590048 2.223143 1.813192
v 1.590048 3.736857 1.813192
v 0.409952 3.736857 1.813192
v 0.186809 3.960000 1.813192
v 0.409952 2.223143 1.813192
v 1.507442 3.630897 1.729787
v 0.492559 3.630897 1.729787
v 0.492559 2.329103 1.729787
v 1.507442 2.329103 1.729787
v 1.813191 2.000000 0.391963
v 1.813191 2.079909 0.391963
v 0.186809 2.000000 0.391963
v 0.186809 2.079909 0.391963
v 0.604165 3.144263 0.270213
v 0.457872 3.144263 0.270213
v 0.457872 3.144263 0.228511
v 0.416170 3.144263 0.228511
v 0.457872 3.144263 0.353617
v 0.416170 3.144263 0.353617
v 1.542128 3.483657 0.270213
v 1.542128 3.483657 0.353617
v 0.457872 3.483657 0.270213
v 0.457872 3.483657 0.353617
v 1.542128 2.399401 0.270213
v 1.542128 2.399401 0.353617
v 0.457872 2.738795 0.353617
v 0.613264 2.554793 0.353617
v 0.457872 2.399401 0.353617
v 1.386736 2.554793 0.353617
v 0.613264 2.738795 0.353617
v 0.613264 2.775643 0.353617
v 0.416170 2.775643 0.353617
v 0.416170 2.738795 0.353617
v 0.457872 2.775643 0.353617
v 0.613264 3.107415 0.353617
v 0.457872 3.107415 0.353617
v 1.386736 3.328265 0.353617
v 0.613264 3.328265 0.353617
v 0.416170 3.107415 0.353617
v 0.613264 3.144263 0.353617
v 0.457872 2.775643 0.265359
v 0.416170 2.775643 0.265359
v 0.416170 2.738795 0.228511
v 0.416170 3.107415 0.265359
v 0.457872 2.738795 0.228511
v 0.604165 2.738795 0.270213
v 0.457872 2.399401 0.270213
v 0.457872 2.738795 0.270213
v 0.457872 3.107415 0.265359
v 1.332593 2.608936 0.520426
v 0.667407 2.608936 0.520426
v 1.332593 3.274122 0.520426
v 0.667407 2.767177 0.520426
v 0.667407 2.798867 0.520426
v 0.667407 3.084191 0.520426
v 0.667407 3.115881 0.520426
v 0.667407 3.274122 0.520426
v 1.091917 1.324569 0.437021
v 1.000000 1.336670 0.437021
v 1.091917 1.324569 0.228511
v 1.000000 1.336670 0.228511
v 1.177570 1.289090 0.437021
v 1.177570 1.289090 0.228511
v 0.656960 0.889612 0.186809
v 0.656960 1.073446 0.186808
v 0.573557 0.889612 0.228511
v 0.573557 1.073446 0.228511
v 0.908083 1.324569 0.437021
v 0.908083 1.324569 0.228511
v 0.692439 1.159099 0.437021
v 0.692439 1.159099 0.228511
v 0.748878 1.232651 0.437021
v 0.748878 1.232651 0.228511
v 0.822430 1.289090 0.437021
v 0.822430 1.289090 0.228511
v 0.728936 0.512033 0.311915
v 0.859687 0.457874 0.311915
v 0.761464 0.568372 0.228511
v 0.876525 0.520713 0.228511
v 1.271064 1.451025 0.311915
v 1.140313 1.505184 0.311915
v 1.238536 1.394686 0.228511
v 1.123475 1.442345 0.228511
v 0.728936 1.451025 0.311915
v 0.616658 1.364871 0.311915
v 0.761464 1.394686 0.228511
v 0.662659 1.318870 0.228511
v 0.539184 1.105004 0.228511
v 0.586843 1.220065 0.228511
v 0.476345 1.121842 0.311915
v 0.530504 1.252593 0.311915
v 1.000000 1.523657 0.311915
v 0.859687 1.505184 0.311915
v 1.000000 1.458601 0.228511
v 0.876525 1.442345 0.228511
v 1.000000 0.439401 0.311915
v 1.140313 0.457874 0.311915
v 1.000000 0.504457 0.228511
v 1.123475 0.520713 0.228511
v 1.460817 1.105004 0.228511
v 1.523655 1.121842 0.311915
v 1.413157 1.220065 0.228511
v 1.469496 1.252593 0.311915
v 0.616658 0.598187 0.311915
v 0.662659 0.644188 0.228511
v 0.530504 0.710465 0.311915
v 0.586843 0.742993 0.228511
v 0.811668 0.889612 0.228511
v 0.656960 0.889612 0.228511
v 0.811668 0.889612 0.186809
v 0.811668 1.073446 0.228511
v 0.811668 1.073446 0.186808
v 1.383342 0.598187 0.311915
v 1.469496 0.710465 0.311915
v 1.337341 0.644188 0.228511
v 1.413157 0.742993 0.228511
v 0.476345 0.841216 0.311915
v 0.539184 0.858054 0.228511
v 0.748878 0.730407 0.437021
v 0.822430 0.673968 0.437021
v 0.748878 0.730407 0.228511
v 0.822430 0.673968 0.228511
v 1.251122 1.232651 0.437021
v 1.251122 1.232651 0.228511
v 1.091917 0.638489 0.437021
v 1.177570 0.673968 0.437021
v 1.091917 0.638489 0.228511
v 1.177570 0.673968 0.228511
v 1.307561 0.803959 0.228511
v 1.307561 0.803959 0.437021
v 1.343040 0.889612 0.228511
v 1.343040 0.889612 0.437021
v 0.522928 0.981529 0.228511
v 0.457872 0.981529 0.311915
v 1.343040 1.073446 0.228511
v 1.343040 1.073446 0.437021
v 1.307561 1.159099 0.228511
v 1.307561 1.159099 0.437021
v 1.355141 0.981529 0.228511
v 1.355141 0.981529 0.437021
v 1.523655 0.841216 0.311915
v 1.460817 0.858054 0.228511
v 0.692439 0.803959 0.437021
v 0.692439 0.803959 0.228511
v 0.656960 0.889612 0.437021
v 1.251122 0.730407 0.228511
v 1.251122 0.730407 0.437021
v 1.477072 0.981529 0.228511
v 1.238536 0.568372 0.228511
v 1.000000 0.626389 0.228511
v 0.908083 0.638489 0.228511
v 0.656960 1.073446 0.228511
v 1.337341 1.318870 0.228511
v 1.542128 0.981529 0.311915
v 0.908083 0.638489 0.437021
v 1.000000 0.626389 0.437021
v 1.383342 1.364871 0.311915
v 1.271064 0.512033 0.311915
v 0.656960 1.073446 0.437021
v 1.542128 0.981529 0.437021
v 1.523655 0.841216 0.437021
v 1.523655 1.121842 0.437021
v 1.469496 1.252593 0.437021
v 1.469496 0.710465 0.437021
v 1.383342 1.364871 0.437021
v 1.383342 0.598187 0.437021
v 1.271064 1.451025 0.437021
v 1.140313 1.505184 0.437021
v 1.000000 1.523657 0.437021
v 0.859687 1.505184 0.437021
v 0.728936 1.451025 0.437021
v 0.616658 1.364871 0.437021
v 0.616658 0.598187 0.437021
v 0.728936 0.512033 0.437021
v 0.859687 0.457874 0.437021
v 1.000000 0.439401 0.437021
v 1.140313 0.457874 0.437021
v 1.271064 0.512033 0.437021
v 0.530504 1.252593 0.437021
v 0.530504 0.710465 0.437021
v 0.476345 1.121842 0.437021
v 0.476345 0.841216 0.437021
v 0.457872 0.981529 0.437021
f 2 1 3
f 5 4 6
f 7 5 1
f 1 2 7
f 2 8 7
f 2 9 8
f 2 10 9
f 2 11 10
f 5 7 12
f 12 4 5
f 12 11 4
f 11 2 4
f 7 13 12
f 13 14 12
f 14 13 9
f 9 10 14
f 16 15 17
f 17 18 16
f 17 19 18
f 19 20 18
f 19 21 20
f 21 22 20
f 21 23 22
f 23 24 22
f 23 25 24
f 25 26 24
f 25 27 26
f 27 28 26
f 28 29 26
f 28 30 29
f 28 31 30
f 31 32 30
f 31 33 32
f 33 34 32
f 33 35 34
f 35 36 34
f 36 37 34
f 36 38 37
f 40 39 33
f 33 31 40
f 41 35 33
f 33 39 41
f 42 36 35
f 35 41 42
f 43 38 36
f 36 42 43
f 44 37 38
f 38 43 44
f 45 34 37
f 37 44 45
f 46 32 34
f 34 45 46
f 46 47 30
f 30 32 46
f 47 48 29
f 29 30 47
f 26 29 48
f 48 49 26
f 49 50 24
f 24 26 49
f 50 51 22
f 22 24 50
f 51 52 20
f 20 22 51
f 20 52 53
f 53 18 20
f 18 53 54
f 54 16 18
f 16 54 55
f 55 15 16
f 15 55 56
f 56 17 15
f 17 56 57
f 57 19 17
f 19 57 58
f 58 21 19
f 58 59 23
f 23 21 58
f 59 60 25
f 25 23 59
f 60 61 27
f 27 25 60
f 61 62 28
f 28 27 61
f 62 40 31
f 31 28 62
f 64 63 65
f 65 66 64
f 65 67 66
f 69 68 70
f 70 71 69
f 73 72 74
f 74 75 73
f 77 76 72
f 72 73 77
f 79 78 76
f 76 77 79
f 81 80 78
f 78 79 81
f 83 82 84
f 84 85 83
f 87 86 88
f 88 89 87
f 82 87 89
f 89 84 82
f 91 90 92
f 92 93 91
f 92 94 93
f 94 95 93
f 95 96 93
f 95 97 96
f 97 98 96
f 97 99 98
f 97 100 99
f 100 88 99
f 100 101 88
f 101 102 88
f 102 89 88
f 102 84 89
f 102 71 84
f 71 85 84
f 71 70 85
f 70 80 85
f 70 74 80
f 74 72 80
f 72 78 80
f 72 76 78
f 83 85 80
f 80 81 83
f 86 103 99
f 99 88 86
f 103 104 98
f 98 99 103
f 104 105 96
f 96 98 104
f 106 63 64
f 75 74 70
f 70 68 75
f 96 105 107
f 107 93 96
f 93 107 108
f 108 91 93
f 110 109 97
f 97 95 110
f 109 111 100
f 100 97 109
f 113 112 102
f 102 101 113
f 92 114 115
f 115 94 92
f 90 116 114
f 114 92 90
f 112 69 71
f 71 102 112
f 117 106 67
f 67 65 117
f 65 118 117
f 65 119 118
f 65 120 119
f 65 121 120
f 106 117 122
f 122 63 106
f 122 121 63
f 121 65 63
f 117 123 122
f 123 124 122
f 124 123 125
f 125 120 124
f 125 126 120
f 126 127 120
f 127 128 120
f 128 129 120
f 129 130 120
f 130 131 120
f 131 132 120
f 132 133 120
f 133 134 120
f 134 135 120
f 135 119 120
f 111 113 101
f 101 100 111
f 91 108 116
f 116 90 91
f 94 115 110
f 110 95 94
f 54 136 137
f 137 55 54
f 54 53 136
f 53 52 136
f 52 138 136
f 55 137 139
f 56 55 139
f 56 139 140
f 140 57 56
f 140 58 57
f 140 59 58
f 140 60 59
f 140 1 60
f 1 61 60
f 1 62 61
f 1 40 62
f 1 39 40
f 1 41 39
f 1 42 41
f 1 43 42
f 43 1 5
f 141 5 139
f 139 137 141
f 141 138 5
f 138 50 5
f 138 51 50
f 138 52 51
f 50 49 5
f 49 48 5
f 48 47 5
f 47 46 5
f 46 45 5
f 45 44 5
f 44 43 5
f 143 142 144
f 144 145 143
f 139 145 144
f 144 140 139
f 143 146 147
f 147 142 143
f 149 148 150
f 150 151 149
f 149 141 137
f 137 148 149
f 137 136 150
f 150 148 137
f 138 151 150
f 150 136 138
f 138 141 149
f 149 151 138
f 153 152 154
f 154 155 153
f 157 156 152
f 152 153 157
f 154 152 156
f 156 158 154
f 155 154 158
f 158 159 155
f 153 155 159
f 159 157 153
f 116 160 161
f 161 114 116
f 161 115 114
f 161 110 115
f 161 109 110
f 161 111 109
f 161 67 111
f 67 113 111
f 67 112 113
f 67 69 112
f 67 68 69
f 67 75 68
f 67 73 75
f 67 77 73
f 160 116 108
f 77 67 106
f 79 77 106
f 81 79 106
f 83 81 106
f 82 83 106
f 87 82 106
f 86 87 106
f 103 86 106
f 103 106 160
f 160 104 103
f 160 105 104
f 160 107 105
f 160 108 107
f 163 162 164
f 164 165 163
f 166 165 164
f 164 167 166
f 6 4 2
f 2 3 6
f 156 147 146
f 146 168 156
f 168 158 156
f 168 169 158
f 169 159 158
f 168 170 169
f 168 171 170
f 147 156 157
f 157 172 147
f 157 159 172
f 171 168 172
f 159 173 172
f 159 169 173
f 173 171 172
f 175 174 170
f 170 171 175
f 176 175 171
f 171 173 176
f 174 177 169
f 169 170 174
f 176 177 174
f 174 175 176
f 173 169 177
f 177 176 173
f 160 106 64
f 64 166 160
f 64 165 166
f 64 163 165
f 64 6 163
f 6 64 146
f 6 146 143
f 6 143 145
f 6 145 139
f 139 5 6
f 64 168 146
f 163 6 4
f 163 4 178
f 178 179 163
f 168 64 66
f 66 172 168
f 181 180 2
f 2 162 181
f 2 3 162
f 3 164 162
f 164 3 66
f 147 66 3
f 147 3 144
f 144 142 147
f 147 172 66
f 167 164 66
f 167 66 67
f 67 161 167
f 144 3 1
f 1 140 144
f 178 180 181
f 181 179 178
f 178 4 2
f 2 180 178
f 163 179 181
f 181 162 163
f 166 167 161
f 161 160 166
f 12 14 10
f 10 11 12
f 13 7 8
f 8 9 13
f 122 124 120
f 120 121 122
f 123 117 118
f 118 125 123
f 118 126 125
f 118 127 126
f 118 128 127
f 118 129 128
f 118 130 129
f 118 131 130
f 118 132 131
f 118 133 132
f 118 134 133
f 118 135 134
f 118 119 135
f 183 182 184
f 184 185 183
f 185 186 183
f 185 187 186
f 189 188 190
f 190 191 189
f 192 188 189
f 189 193 192
f 195 194 196
f 196 197 195
f 195 198 194
f 198 199 194
f 194 199 200
f 200 201 194
f 199 202 200
f 199 203 202
f 203 204 202
f 197 196 193
f 193 189 197
f 189 205 197
f 189 206 205
f 204 203 187
f 187 207 204
f 203 186 187
f 203 208 186
f 208 191 186
f 208 206 191
f 206 189 191
f 202 209 210
f 210 200 202
f 190 183 186
f 186 191 190
f 210 185 211
f 211 201 210
f 201 200 210
f 185 210 212
f 212 187 185
f 212 207 187
f 214 213 184
f 184 182 214
f 216 215 196
f 196 194 216
f 213 211 185
f 185 184 213
f 212 210 209
f 209 217 212
f 217 209 202
f 202 204 217
f 212 217 204
f 204 207 212
f 213 214 216
f 216 194 213
f 194 211 213
f 194 201 211
f 182 183 190
f 182 190 188
f 214 182 188
f 214 188 192
f 216 214 192
f 192 215 216
f 192 193 196
f 196 215 192
f 219 218 220
f 220 221 219
f 220 222 221
f 220 223 222
f 220 224 223
f 220 225 224
f 198 195 219
f 219 221 198
f 199 198 221
f 221 222 199
f 203 199 222
f 222 223 203
f 208 203 223
f 223 224 208
f 206 208 224
f 224 225 206
f 220 205 206
f 206 225 220
f 197 205 220
f 220 218 197
f 195 197 218
f 218 219 195
f 227 226 228
f 228 229 227
f 227 228 226
f 228 227 229
f 226 230 231
f 231 228 226
f 226 231 230
f 231 226 228
f 233 232 234
f 234 235 233
f 236 227 229
f 229 237 236
f 236 229 227
f 229 236 237
f 239 238 240
f 240 241 239
f 239 240 238
f 240 239 241
f 240 242 243
f 243 241 240
f 240 243 242
f 243 240 241
f 245 244 246
f 246 247 245
f 245 246 244
f 246 245 247
f 249 248 250
f 250 251 249
f 249 250 248
f 250 249 251
f 253 252 254
f 254 255 253
f 253 254 252
f 254 253 255
f 257 256 258
f 258 259 257
f 257 258 256
f 258 257 259
f 261 260 262
f 262 263 261
f 261 262 260
f 262 261 263
f 260 249 251
f 251 262 260
f 260 251 249
f 251 260 262
f 265 264 266
f 266 267 265
f 265 266 264
f 266 265 267
f 269 268 270
f 270 271 269
f 269 270 268
f 270 269 271
f 273 272 274
f 274 275 273
f 273 274 272
f 274 273 275
f 277 276 278
f 278 234 277
f 278 232 234
f 277 278 276
f 278 277 234
f 278 234 232
f 278 276 279
f 279 280 278
f 278 279 276
f 279 278 280
f 282 281 283
f 283 284 282
f 282 283 281
f 283 282 284
f 275 274 285
f 285 286 275
f 275 285 274
f 285 275 286
f 288 287 289
f 289 290 288
f 288 289 287
f 289 288 290
f 230 291 292
f 292 231 230
f 230 292 291
f 292 230 231
f 294 293 295
f 295 296 294
f 294 295 293
f 295 294 296
f 298 297 299
f 299 300 298
f 298 299 297
f 299 298 300
f 256 301 302
f 302 258 256
f 256 302 301
f 302 256 258
f 304 303 305
f 305 306 304
f 304 305 303
f 305 304 306
f 308 307 303
f 303 304 308
f 308 303 307
f 303 308 304
f 309 282 284
f 284 310 309
f 309 284 282
f 284 309 310
f 252 261 263
f 263 254 252
f 252 263 261
f 263 252 254
f 300 299 307
f 307 308 300
f 300 307 299
f 307 300 308
f 312 311 313
f 313 277 312
f 312 313 311
f 313 312 277
f 315 314 297
f 297 298 315
f 315 297 314
f 297 315 298
f 268 316 310
f 310 284 268
f 284 270 268
f 284 283 270
f 283 307 270
f 283 299 307
f 283 297 299
f 283 317 297
f 317 314 297
f 317 296 314
f 317 267 296
f 267 295 296
f 267 266 295
f 266 318 295
f 266 247 318
f 247 319 318
f 247 290 319
f 247 246 290
f 246 289 290
f 246 273 289
f 273 312 289
f 273 277 312
f 273 275 277
f 275 234 277
f 275 286 234
f 286 235 234
f 235 286 256
f 235 256 257
f 320 235 257
f 320 257 255
f 239 320 255
f 241 239 255
f 241 255 254
f 243 241 254
f 243 254 263
f 237 243 263
f 237 263 262
f 229 237 262
f 228 229 262
f 228 262 251
f 231 228 251
f 231 251 250
f 292 231 250
f 305 292 250
f 305 250 321
f 303 305 321
f 307 303 321
f 321 270 307
f 268 310 316
f 310 268 284
f 284 268 270
f 284 270 283
f 283 270 307
f 283 307 299
f 283 299 297
f 283 297 317
f 317 297 314
f 317 314 296
f 317 296 267
f 267 296 295
f 267 295 266
f 266 295 318
f 266 318 247
f 247 318 319
f 247 319 290
f 247 290 246
f 246 290 289
f 246 289 273
f 273 289 312
f 273 312 277
f 273 277 275
f 275 277 234
f 275 234 286
f 286 234 235
f 235 256 286
f 235 257 256
f 320 257 235
f 320 255 257
f 239 255 320
f 241 255 239
f 241 254 255
f 243 254 241
f 243 263 254
f 237 263 243
f 237 262 263
f 229 262 237
f 228 262 229
f 228 251 262
f 231 251 228
f 231 250 251
f 292 250 231
f 305 250 292
f 305 321 250
f 303 321 305
f 307 321 303
f 321 307 270
f 286 301 256
f 286 256 301
f 289 287 311
f 311 312 289
f 289 311 287
f 311 289 312
f 306 305 292
f 292 291 306
f 306 292 305
f 292 306 291
f 244 272 273
f 273 246 244
f 244 273 272
f 273 244 246
f 322 316 268
f 268 269 322
f 322 268 316
f 268 322 269
f 324 323 319
f 319 318 324
f 324 319 323
f 319 324 318
f 264 245 247
f 247 266 264
f 264 247 245
f 247 264 266
f 271 270 321
f 321 325 271
f 271 321 270
f 321 271 325
f 326 265 267
f 267 317 326
f 326 267 265
f 267 326 317
f 278 280 233
f 233 232 278
f 278 233 280
f 233 278 232
f 322 309 310
f 310 316 322
f 322 310 309
f 310 322 316
f 315 294 296
f 296 314 315
f 315 296 294
f 296 315 314
f 320 279 280
f 280 235 320
f 280 233 235
f 320 280 279
f 280 320 235
f 280 235 233
f 286 285 302
f 302 301 286
f 286 302 285
f 302 286 301
f 255 257 259
f 259 253 255
f 255 259 257
f 259 255 253
f 323 288 290
f 290 319 323
f 323 290 288
f 290 323 319
f 293 324 318
f 318 295 293
f 293 318 324
f 318 293 295
f 248 325 321
f 321 250 248
f 248 321 325
f 321 248 250
f 281 326 317
f 317 283 281
f 281 317 326
f 317 281 283
f 320 327 238
f 238 239 320
f 320 238 327
f 238 320 239
f 242 236 237
f 237 243 242
f 242 237 236
f 237 242 243
f 276 279 320
f 320 277 276
f 277 327 313
f 327 277 320
f 329 328 330
f 330 331 329
f 331 332 329
f 331 333 332
f 333 334 332
f 333 308 334
f 333 304 308
f 333 335 304
f 335 306 304
f 335 291 306
f 335 336 291
f 336 230 291
f 336 226 230
f 336 337 226
f 337 227 226
f 337 338 227
f 338 236 227
f 338 242 236
f 338 339 242
f 339 240 242
f 339 238 240
f 339 340 238
f 340 327 238
f 340 313 327
f 313 340 341
f 311 313 341
f 311 341 342
f 287 311 342
f 288 287 342
f 288 342 343
f 323 288 343
f 324 323 343
f 324 343 344
f 293 324 344
f 293 344 345
f 294 293 345
f 315 294 345
f 315 345 346
f 298 315 346
f 300 298 346
f 300 346 334
f 334 308 300
f 329 330 328
f 330 329 331
f 331 329 332
f 331 332 333
f 333 332 334
f 333 334 308
f 333 308 304
f 333 304 335
f 335 304 306
f 335 306 291
f 335 291 336
f 336 291 230
f 336 230 226
f 336 226 337
f 337 226 227
f 337 227 338
f 338 227 236
f 338 236 242
f 338 242 339
f 339 242 240
f 339 240 238
f 339 238 340
f 340 238 327
f 340 327 313
f 313 341 340
f 311 341 313
f 311 342 341
f 287 342 311
f 288 342 287
f 288 343 342
f 323 343 288
f 324 343 323
f 324 344 343
f 293 344 324
f 293 345 344
f 294 345 293
f 315 345 294
f 315 346 345
f 298 346 315
f 300 346 298
f 300 334 346
f 334 300 308
f 340 347 341
f 347 348 341
f 347 349 348
f 349 350 348
f 349 351 350
f 340 341 347
f 347 341 348
f 347 348 349
f 349 348 350
f 349 350 351
f 338 337 260
f 260 261 338
f 338 260 337
f 260 338 261
f 339 338 261
f 261 252 339
f 339 261 338
f 261 339 252
f 340 339 252
f 252 253 340
f 340 252 339
f 252 340 253
f 259 347 340
f 340 253 259
f 259 340 347
f 340 259 253
f 258 349 347
f 347 259 258
f 258 347 349
f 347 258 259
f 302 351 349
f 349 258 302
f 302 349 351
f 349 302 258
f 285 350 351
f 351 302 285
f 285 351 350
f 351 285 302
f 274 348 350
f 350 285 274
f 274 350 348
f 350 274 285
f 272 341 348
f 348 274 272
f 272 348 341
f 348 272 274
f 342 341 272
f 272 244 342
f 342 272 341
f 272 342 244
f 343 342 244
f 244 245 343
f 343 244 342
f 244 343 245
f 344 343 245
f 245 264 344
f 344 245 343
f 245 344 264
f 345 344 264
f 264 265 345
f 345 264 344
f 264 345 265
f 346 345 265
f 265 326 346
f 346 265 345
f 265 346 326
f 334 346 326
f 326 281 334
f 334 326 346
f 326 334 281
f 334 281 282
f 282 332 334
f 334 282 281
f 282 334 332
f 332 282 309
f 309 329 332
f 332 309 282
f 309 332 329
f 329 309 322
f 322 328 329
f 328 322 269
f 269 330 328
f 329 322 309
f 322 329 328
f 328 269 322
f 269 328 330
f 330 269 271
f 271 331 330
f 330 271 269
f 271 330 331
f 331 271 325
f 325 333 331
f 331 325 271
f 325 331 333
f 335 333 325
f 325 248 335
f 335 325 333
f 325 335 248
f 336 335 248
f 248 249 336
f 336 248 335
f 248 336 249
f 337 336 249
f 249 260 337
f 337 249 336
f 249 337 260
f 299 307 303
f 303 305 299
f 305 297 299
f 305 292 297
f 292 314 297
f 292 296 314
f 292 231 296
f 231 228 296
f 228 295 296
f 228 229 295
f 229 318 295
f 229 237 318
f 237 319 318
f 237 243 319
f 243 290 319
f 243 279 290
f 243 241 279
f 241 320 279
f 241 239 320
f 290 279 276
f 276 289 290
f 276 277 289
f 277 312 289
f 299 303 307
f 303 299 305
f 305 299 297
f 305 297 292
f 292 297 314
f 292 314 296
f 292 296 231
f 231 296 228
f 228 296 295
f 228 295 229
f 229 295 318
f 229 318 237
f 237 318 319
f 237 319 243
f 243 319 290
f 243 290 279
f 243 279 241
f 241 279 320
f 241 320 239
f 290 276 279
f 276 290 289
f 276 289 277
f 277 289 312
f 320 277 234
f 234 235 320
f 277 313 327
f 327 320 277
